<svg xmlns="http://www.w3.org/2000/svg" width="120" height="120" viewBox="0 0 120 120">
  <g id="Grupo_1071462" data-name="Grupo 1071462" transform="translate(-269 -958)">
    <path id="Trazado_608974" data-name="Trazado 608974" d="M60,0A60,60,0,1,1,0,60,60,60,0,0,1,60,0Z" transform="translate(269 958)" fill="#0c5e46"/>
    <g id="Layer_x0020_1" transform="translate(182.722 976.647)">
      <path id="Trazado_612724" data-name="Trazado 612724" d="M153.307,25.348a2.475,2.475,0,0,0-3.146,2.349c0,3.235,4.919,3.235,4.919,0A2.432,2.432,0,0,0,153.307,25.348ZM178.345,75.6H115.2a1.155,1.155,0,0,1-1.2-1.152V13.56a1.2,1.2,0,0,1,2.393,0V73.252h2.659V60.933a1.155,1.155,0,0,1,1.152-1.2h9.35a1.192,1.192,0,0,1,1.2,1.2V73.252h3.634V50.918a1.155,1.155,0,0,1,1.152-1.2h9.35a1.192,1.192,0,0,1,1.2,1.2V73.252h3.634V38.908a1.183,1.183,0,0,1,1.152-1.2h9.35a1.192,1.192,0,0,1,1.2,1.2V73.252h3.634V24.816a1.183,1.183,0,0,1,1.152-1.2h9.35a1.192,1.192,0,0,1,1.2,1.2V73.252c1.064,0,2.748-.266,2.748,1.2A1.144,1.144,0,0,1,178.345,75.6ZM121.4,73.252h6.957V62.085H121.4Zm15.333,0h6.957V52.114h-6.957Zm15.333,0h6.957V40.06h-6.957Zm15.333,0h6.957V26.013H167.4ZM131.947,49.278a5.032,5.032,0,0,1-2.925-.975l-4.254,3.412a1.166,1.166,0,1,1-1.462-1.817l4.254-3.457a4.782,4.782,0,0,1,1.95-6.16V32.217h-2.836A1.163,1.163,0,0,1,125.7,30.4L133.72,18.08a1.2,1.2,0,0,1,1.994,0L143.779,30.4a1.176,1.176,0,0,1-.975,1.817h-2.88v4.21l8.331-6.692a4.861,4.861,0,0,1,4.21-6.869V14.712h-2.836a1.213,1.213,0,0,1-1.019-1.861L156.675.532a1.2,1.2,0,0,1,1.994,0l8.021,12.319a1.2,1.2,0,0,1-.975,1.861h-2.836V17.9c1.019-.842,2.26-2.26,3.235-1.064a1.185,1.185,0,0,1-.177,1.64L157.03,25.7a4.825,4.825,0,0,1-7.268,5.85L136.29,42.409A4.837,4.837,0,0,1,131.947,49.278Zm-.044-9.661a4.934,4.934,0,0,1,2.925.975l2.748-2.26V31.065c0-1.507,1.773-1.2,3.013-1.2l-5.85-9-5.894,9c1.241,0,3.058-.31,3.058,1.2Zm.044,2.349c-3.235,0-3.235,4.919,0,4.919C135.138,46.885,135.138,41.966,131.947,41.966Zm23.575-18.125,5.008-4.033V13.516c0-1.462,1.773-1.2,3.013-1.2L157.65,3.368l-5.85,8.952c1.241,0,3.013-.266,3.013,1.2V23.4A3.827,3.827,0,0,1,155.523,23.841Z" fill="#fff" fill-rule="evenodd"/>
    </g>
  </g>
</svg>
