<svg xmlns="http://www.w3.org/2000/svg" width="569" height="476" viewBox="0 0 569 476">
  <g id="Group_1077100" data-name="Group 1077100" transform="translate(5813.667 -487.51)">
    <path id="Path_614220" data-name="Path 614220" d="M10,0H559a10,10,0,0,1,10,10V466a10,10,0,0,1-10,10H10A10,10,0,0,1,0,466V10A10,10,0,0,1,10,0Z" transform="translate(-5813.667 487.51)" fill="#f6f6f6"/>
    <path id="Path_614221" data-name="Path 614221" d="M3.359-4.008V0H1.016V-11.375H5.453a5.134,5.134,0,0,1,2.254.469A3.454,3.454,0,0,1,9.2-9.574a3.714,3.714,0,0,1,.523,1.965A3.266,3.266,0,0,1,8.582-4.973a4.767,4.767,0,0,1-3.168.965Zm0-1.9H5.453a2.059,2.059,0,0,0,1.418-.437,1.591,1.591,0,0,0,.488-1.25,1.876,1.876,0,0,0-.492-1.352,1.839,1.839,0,0,0-1.359-.531H3.359Zm12.578-.43a6.134,6.134,0,0,0-.812-.062,1.654,1.654,0,0,0-1.68.867V0H11.188V-8.453H13.32l.063,1.008a2.092,2.092,0,0,1,1.883-1.164,2.366,2.366,0,0,1,.7.1ZM16.391-4.3a5.013,5.013,0,0,1,.484-2.242A3.546,3.546,0,0,1,18.27-8.07a4.069,4.069,0,0,1,2.113-.539,3.849,3.849,0,0,1,2.793,1.047,4.2,4.2,0,0,1,1.207,2.844l.016.578A4.418,4.418,0,0,1,23.313-1.02,3.775,3.775,0,0,1,20.4.156,3.793,3.793,0,0,1,17.48-1.016,4.5,4.5,0,0,1,16.391-4.2Zm2.258.16A3.16,3.16,0,0,0,19.1-2.3a1.5,1.5,0,0,0,1.3.638,1.5,1.5,0,0,0,1.281-.63,3.457,3.457,0,0,0,.461-2.015A3.128,3.128,0,0,0,21.68-6.14a1.5,1.5,0,0,0-1.3-.649,1.474,1.474,0,0,0-1.281.646A3.516,3.516,0,0,0,18.648-4.144Zm14.758,0A5.119,5.119,0,0,1,32.539-.98,2.872,2.872,0,0,1,30.117.156,2.639,2.639,0,0,1,27.922-.9l-.1.9H25.789V-12h2.258v4.3A2.571,2.571,0,0,1,30.1-8.609a2.9,2.9,0,0,1,2.426,1.137,5.126,5.126,0,0,1,.879,3.2Zm-2.258-.164a3.363,3.363,0,0,0-.406-1.871,1.374,1.374,0,0,0-1.211-.59,1.489,1.489,0,0,0-1.484.883v3.336a1.509,1.509,0,0,0,1.5.891,1.394,1.394,0,0,0,1.438-1.078A5.562,5.562,0,0,0,31.148-4.312ZM39.7,0a2.507,2.507,0,0,1-.227-.758,2.732,2.732,0,0,1-2.133.914,3,3,0,0,1-2.059-.719,2.312,2.312,0,0,1-.816-1.812,2.389,2.389,0,0,1,1-2.062,4.915,4.915,0,0,1,2.879-.727h1.039v-.484a1.393,1.393,0,0,0-.3-.937,1.183,1.183,0,0,0-.949-.352,1.345,1.345,0,0,0-.895.273.929.929,0,0,0-.324.75H34.648A2.268,2.268,0,0,1,35.1-7.273a3,3,0,0,1,1.281-.98,4.669,4.669,0,0,1,1.859-.355,3.689,3.689,0,0,1,2.48.785,2.747,2.747,0,0,1,.918,2.207v3.664a4.041,4.041,0,0,0,.336,1.82V0ZM37.828-1.57a1.945,1.945,0,0,0,.922-.223,1.462,1.462,0,0,0,.625-.6V-3.844h-.844q-1.7,0-1.8,1.172l-.008.133a.9.9,0,0,0,.3.7A1.153,1.153,0,0,0,37.828-1.57ZM50.992-4.148A5.119,5.119,0,0,1,50.125-.98,2.872,2.872,0,0,1,47.7.156,2.639,2.639,0,0,1,45.508-.9l-.1.9H43.375V-12h2.258v4.3a2.571,2.571,0,0,1,2.055-.914,2.9,2.9,0,0,1,2.426,1.137,5.126,5.126,0,0,1,.879,3.2Zm-2.258-.164a3.363,3.363,0,0,0-.406-1.871,1.374,1.374,0,0,0-1.211-.59,1.489,1.489,0,0,0-1.484.883v3.336a1.509,1.509,0,0,0,1.5.891A1.394,1.394,0,0,0,48.57-2.742,5.562,5.562,0,0,0,48.734-4.312ZM54.766,0H52.5V-8.453h2.266Zm-2.4-10.641a1.112,1.112,0,0,1,.34-.836,1.277,1.277,0,0,1,.926-.328,1.28,1.28,0,0,1,.922.328,1.105,1.105,0,0,1,.344.836,1.108,1.108,0,0,1-.348.844,1.283,1.283,0,0,1-.918.328,1.283,1.283,0,0,1-.918-.328A1.108,1.108,0,0,1,52.367-10.641ZM59.008,0H56.742V-12h2.266ZM63.25,0H60.984V-8.453H63.25Zm-2.4-10.641a1.112,1.112,0,0,1,.34-.836,1.277,1.277,0,0,1,.926-.328,1.28,1.28,0,0,1,.922.328,1.105,1.105,0,0,1,.344.836,1.108,1.108,0,0,1-.348.844,1.283,1.283,0,0,1-.918.328A1.283,1.283,0,0,1,61.2-9.8,1.108,1.108,0,0,1,60.852-10.641Zm3.906,6.352a5.094,5.094,0,0,1,.887-3.148A2.877,2.877,0,0,1,68.07-8.609a2.589,2.589,0,0,1,2.039.922V-12h2.266V0H70.336l-.109-.9A2.657,2.657,0,0,1,68.055.156,2.869,2.869,0,0,1,65.66-1.02,5.258,5.258,0,0,1,64.758-4.289Zm2.258.168A3.337,3.337,0,0,0,67.43-2.3a1.349,1.349,0,0,0,1.2.634,1.511,1.511,0,0,0,1.477-.884V-5.889a1.489,1.489,0,0,0-1.461-.884Q67.016-6.773,67.016-4.121ZM79.023,0A2.507,2.507,0,0,1,78.8-.758a2.732,2.732,0,0,1-2.133.914,3,3,0,0,1-2.059-.719,2.312,2.312,0,0,1-.816-1.812,2.389,2.389,0,0,1,1-2.062,4.915,4.915,0,0,1,2.879-.727H78.7v-.484a1.393,1.393,0,0,0-.3-.937,1.183,1.183,0,0,0-.949-.352,1.345,1.345,0,0,0-.895.273.929.929,0,0,0-.324.75H73.977a2.268,2.268,0,0,1,.453-1.359,3,3,0,0,1,1.281-.98,4.669,4.669,0,0,1,1.859-.355,3.689,3.689,0,0,1,2.48.785,2.747,2.747,0,0,1,.918,2.207v3.664A4.041,4.041,0,0,0,81.3-.133V0ZM77.156-1.57a1.945,1.945,0,0,0,.922-.223,1.462,1.462,0,0,0,.625-.6V-3.844h-.844q-1.7,0-1.8,1.172l-.008.133a.9.9,0,0,0,.3.7A1.153,1.153,0,0,0,77.156-1.57Zm5.2-2.719a5.094,5.094,0,0,1,.887-3.148,2.877,2.877,0,0,1,2.426-1.172,2.589,2.589,0,0,1,2.039.922V-12h2.266V0H87.93L87.82-.9A2.657,2.657,0,0,1,85.648.156,2.869,2.869,0,0,1,83.254-1.02,5.258,5.258,0,0,1,82.352-4.289Zm2.258.168A3.337,3.337,0,0,0,85.023-2.3a1.349,1.349,0,0,0,1.2.634A1.511,1.511,0,0,0,87.7-2.548V-5.889a1.489,1.489,0,0,0-1.461-.884Q84.609-6.773,84.609-4.121Zm10.742-.168a5.094,5.094,0,0,1,.887-3.148,2.877,2.877,0,0,1,2.426-1.172,2.589,2.589,0,0,1,2.039.922V-12h2.266V0H100.93l-.109-.9A2.657,2.657,0,0,1,98.648.156,2.869,2.869,0,0,1,96.254-1.02,5.258,5.258,0,0,1,95.352-4.289Zm2.258.168A3.337,3.337,0,0,0,98.023-2.3a1.349,1.349,0,0,0,1.2.634,1.511,1.511,0,0,0,1.477-.884V-5.889a1.489,1.489,0,0,0-1.461-.884Q97.609-6.773,97.609-4.121Zm11,4.277a4.15,4.15,0,0,1-3.027-1.141,4.054,4.054,0,0,1-1.168-3.039v-.219a5.106,5.106,0,0,1,.492-2.277A3.612,3.612,0,0,1,106.3-8.066a3.914,3.914,0,0,1,2.059-.543,3.508,3.508,0,0,1,2.73,1.094,4.444,4.444,0,0,1,1,3.1v.922H106.7a2.1,2.1,0,0,0,.66,1.328,2,2,0,0,0,1.395.5,2.437,2.437,0,0,0,2.039-.945l1.109,1.242a3.389,3.389,0,0,1-1.375,1.121A4.511,4.511,0,0,1,108.609.156Zm-.258-6.945a1.411,1.411,0,0,0-1.09.455,2.357,2.357,0,0,0-.535,1.3h3.141v-.181a1.681,1.681,0,0,0-.406-1.165A1.456,1.456,0,0,0,108.352-6.789ZM117-4.3a5.013,5.013,0,0,1,.484-2.242,3.546,3.546,0,0,1,1.395-1.523,4.069,4.069,0,0,1,2.113-.539,3.849,3.849,0,0,1,2.793,1.047,4.2,4.2,0,0,1,1.207,2.844l.016.578a4.418,4.418,0,0,1-1.086,3.121A3.775,3.775,0,0,1,121.008.156a3.793,3.793,0,0,1-2.918-1.172A4.5,4.5,0,0,1,117-4.2Zm2.258.16a3.16,3.16,0,0,0,.453,1.843,1.5,1.5,0,0,0,1.3.638,1.5,1.5,0,0,0,1.281-.63,3.457,3.457,0,0,0,.461-2.015,3.128,3.128,0,0,0-.461-1.831,1.5,1.5,0,0,0-1.3-.649,1.474,1.474,0,0,0-1.281.646A3.516,3.516,0,0,0,119.258-4.144Zm10.656,2.48a1.481,1.481,0,0,0,1.016-.344,1.2,1.2,0,0,0,.406-.914h2.117a2.9,2.9,0,0,1-.469,1.574,3.093,3.093,0,0,1-1.262,1.109,3.949,3.949,0,0,1-1.77.395A3.67,3.67,0,0,1,127.094-1a4.56,4.56,0,0,1-1.047-3.184v-.148a4.508,4.508,0,0,1,1.039-3.117,3.627,3.627,0,0,1,2.852-1.164,3.555,3.555,0,0,1,2.543.9,3.2,3.2,0,0,1,.973,2.4h-2.117a1.551,1.551,0,0,0-.406-1.072,1.355,1.355,0,0,0-1.031-.412,1.36,1.36,0,0,0-1.191.575,3.333,3.333,0,0,0-.4,1.866v.235a3.375,3.375,0,0,0,.4,1.878A1.377,1.377,0,0,0,129.914-1.664Zm9.891.8A2.831,2.831,0,0,1,137.492.156a2.67,2.67,0,0,1-2.074-.781,3.335,3.335,0,0,1-.73-2.289V-8.453h2.258v5.467q0,1.322,1.2,1.322a1.63,1.63,0,0,0,1.578-.8V-8.453h2.266V0h-2.125Zm8.641-5.477a6.134,6.134,0,0,0-.812-.062,1.654,1.654,0,0,0-1.68.867V0H143.7V-8.453h2.133l.063,1.008a2.092,2.092,0,0,1,1.883-1.164,2.366,2.366,0,0,1,.7.1Zm5.836,0a6.134,6.134,0,0,0-.812-.062,1.654,1.654,0,0,0-1.68.867V0h-2.258V-8.453h2.133l.063,1.008a2.092,2.092,0,0,1,1.883-1.164,2.366,2.366,0,0,1,.7.1ZM159.109.156a4.15,4.15,0,0,1-3.027-1.141,4.054,4.054,0,0,1-1.168-3.039v-.219a5.106,5.106,0,0,1,.492-2.277A3.612,3.612,0,0,1,156.8-8.066a3.914,3.914,0,0,1,2.059-.543,3.508,3.508,0,0,1,2.73,1.094,4.444,4.444,0,0,1,1,3.1v.922H157.2a2.1,2.1,0,0,0,.66,1.328,2,2,0,0,0,1.395.5,2.437,2.437,0,0,0,2.039-.945l1.109,1.242a3.389,3.389,0,0,1-1.375,1.121A4.511,4.511,0,0,1,159.109.156Zm-.258-6.945a1.411,1.411,0,0,0-1.09.455,2.357,2.357,0,0,0-.535,1.3h3.141v-.181a1.681,1.681,0,0,0-.406-1.165A1.456,1.456,0,0,0,158.852-6.789Zm7.094-1.664.07.977a2.951,2.951,0,0,1,2.43-1.133,2.453,2.453,0,0,1,2,.789,3.682,3.682,0,0,1,.672,2.359V0h-2.258V-5.406a1.465,1.465,0,0,0-.312-1.043,1.4,1.4,0,0,0-1.039-.324,1.553,1.553,0,0,0-1.43.813V0H163.82V-8.453Zm10.4,6.789a1.481,1.481,0,0,0,1.016-.344,1.2,1.2,0,0,0,.406-.914h2.117a2.9,2.9,0,0,1-.469,1.574,3.093,3.093,0,0,1-1.262,1.109,3.949,3.949,0,0,1-1.77.395A3.67,3.67,0,0,1,173.523-1a4.56,4.56,0,0,1-1.047-3.184v-.148a4.508,4.508,0,0,1,1.039-3.117,3.627,3.627,0,0,1,2.852-1.164,3.555,3.555,0,0,1,2.543.9,3.2,3.2,0,0,1,.973,2.4h-2.117a1.551,1.551,0,0,0-.406-1.072,1.355,1.355,0,0,0-1.031-.412,1.36,1.36,0,0,0-1.191.575,3.333,3.333,0,0,0-.4,1.866v.235a3.375,3.375,0,0,0,.4,1.878A1.377,1.377,0,0,0,176.344-1.664ZM183.555,0h-2.266V-8.453h2.266Zm-2.4-10.641a1.112,1.112,0,0,1,.34-.836,1.277,1.277,0,0,1,.926-.328,1.28,1.28,0,0,1,.922.328,1.105,1.105,0,0,1,.344.836,1.109,1.109,0,0,1-.348.844,1.283,1.283,0,0,1-.918.328A1.283,1.283,0,0,1,181.5-9.8,1.109,1.109,0,0,1,181.156-10.641ZM190.313,0a2.507,2.507,0,0,1-.227-.758,2.732,2.732,0,0,1-2.133.914,3,3,0,0,1-2.059-.719,2.312,2.312,0,0,1-.816-1.812,2.389,2.389,0,0,1,1-2.062,4.915,4.915,0,0,1,2.879-.727h1.039v-.484a1.393,1.393,0,0,0-.3-.937,1.183,1.183,0,0,0-.949-.352,1.345,1.345,0,0,0-.895.273.929.929,0,0,0-.324.75h-2.258a2.268,2.268,0,0,1,.453-1.359A3,3,0,0,1,187-8.254a4.669,4.669,0,0,1,1.859-.355,3.689,3.689,0,0,1,2.48.785,2.747,2.747,0,0,1,.918,2.207v3.664a4.041,4.041,0,0,0,.336,1.82V0Zm-1.867-1.57a1.945,1.945,0,0,0,.922-.223,1.462,1.462,0,0,0,.625-.6V-3.844h-.844q-1.7,0-1.8,1.172l-.008.133a.9.9,0,0,0,.3.7A1.153,1.153,0,0,0,188.445-1.57Z" transform="translate(-5785.667 771.504) rotate(-90)" fill="#12263f"/>
    <path id="Path_614222" data-name="Path 614222" d="M9.945-3.789A4.025,4.025,0,0,1,8.59-.9,4.76,4.76,0,0,1,5.367.156,4.28,4.28,0,0,1,1.926-1.316,6.038,6.038,0,0,1,.672-5.359v-.7A6.819,6.819,0,0,1,1.25-8.945,4.332,4.332,0,0,1,2.9-10.863a4.629,4.629,0,0,1,2.5-.668A4.637,4.637,0,0,1,8.57-10.477,4.326,4.326,0,0,1,9.961-7.516H7.617A2.376,2.376,0,0,0,7-9.113a2.271,2.271,0,0,0-1.605-.5,1.991,1.991,0,0,0-1.754.84,4.707,4.707,0,0,0-.6,2.605V-5.3a5.038,5.038,0,0,0,.559,2.7,1.954,1.954,0,0,0,1.762.852,2.314,2.314,0,0,0,1.621-.5A2.241,2.241,0,0,0,7.6-3.789ZM10.984-4.3a5.013,5.013,0,0,1,.484-2.242A3.546,3.546,0,0,1,12.863-8.07a4.069,4.069,0,0,1,2.113-.539A3.849,3.849,0,0,1,17.77-7.562a4.2,4.2,0,0,1,1.207,2.844l.016.578A4.418,4.418,0,0,1,17.906-1.02,3.775,3.775,0,0,1,14.992.156a3.793,3.793,0,0,1-2.918-1.172A4.5,4.5,0,0,1,10.984-4.2Zm2.258.16A3.16,3.16,0,0,0,13.7-2.3a1.5,1.5,0,0,0,1.3.638,1.5,1.5,0,0,0,1.281-.63,3.457,3.457,0,0,0,.461-2.015,3.128,3.128,0,0,0-.461-1.831,1.5,1.5,0,0,0-1.3-.649,1.474,1.474,0,0,0-1.281.646A3.516,3.516,0,0,0,13.242-4.144Zm9.219-4.309.07.977a2.951,2.951,0,0,1,2.43-1.133,2.453,2.453,0,0,1,2,.789,3.682,3.682,0,0,1,.672,2.359V0H25.375V-5.406a1.465,1.465,0,0,0-.312-1.043,1.4,1.4,0,0,0-1.039-.324,1.553,1.553,0,0,0-1.43.813V0H20.336V-8.453ZM33.922-2.336a.727.727,0,0,0-.41-.652A4.659,4.659,0,0,0,32.2-3.414Q29.18-4.047,29.18-5.977a2.323,2.323,0,0,1,.934-1.879,3.766,3.766,0,0,1,2.441-.754,4.053,4.053,0,0,1,2.574.758,2.388,2.388,0,0,1,.965,1.969H33.836a1.092,1.092,0,0,0-.312-.8A1.322,1.322,0,0,0,32.547-7a1.351,1.351,0,0,0-.883.258.814.814,0,0,0-.312.656.7.7,0,0,0,.355.605,3.657,3.657,0,0,0,1.2.4,9.8,9.8,0,0,1,1.422.379A2.336,2.336,0,0,1,36.117-2.43a2.2,2.2,0,0,1-.992,1.871,4.28,4.28,0,0,1-2.562.715,4.47,4.47,0,0,1-1.887-.379,3.166,3.166,0,0,1-1.293-1.039,2.414,2.414,0,0,1-.469-1.426h2.141a1.179,1.179,0,0,0,.445.922,1.766,1.766,0,0,0,1.109.32,1.635,1.635,0,0,0,.98-.246A.766.766,0,0,0,33.922-2.336ZM41.461.156A4.15,4.15,0,0,1,38.434-.984a4.054,4.054,0,0,1-1.168-3.039v-.219a5.106,5.106,0,0,1,.492-2.277,3.612,3.612,0,0,1,1.395-1.547,3.914,3.914,0,0,1,2.059-.543,3.508,3.508,0,0,1,2.73,1.094,4.444,4.444,0,0,1,1,3.1v.922H39.555a2.1,2.1,0,0,0,.66,1.328,2,2,0,0,0,1.395.5,2.437,2.437,0,0,0,2.039-.945l1.109,1.242A3.389,3.389,0,0,1,43.383-.246,4.511,4.511,0,0,1,41.461.156ZM41.2-6.789a1.411,1.411,0,0,0-1.09.455,2.357,2.357,0,0,0-.535,1.3h3.141v-.181a1.681,1.681,0,0,0-.406-1.165A1.456,1.456,0,0,0,41.2-6.789Zm8.531,5.125a1.481,1.481,0,0,0,1.016-.344,1.2,1.2,0,0,0,.406-.914h2.117A2.9,2.9,0,0,1,52.8-1.348,3.093,3.093,0,0,1,51.543-.238a3.949,3.949,0,0,1-1.77.395A3.67,3.67,0,0,1,46.914-1,4.56,4.56,0,0,1,45.867-4.18v-.148a4.508,4.508,0,0,1,1.039-3.117,3.627,3.627,0,0,1,2.852-1.164,3.555,3.555,0,0,1,2.543.9,3.2,3.2,0,0,1,.973,2.4H51.156a1.551,1.551,0,0,0-.406-1.072,1.354,1.354,0,0,0-1.031-.412,1.36,1.36,0,0,0-1.191.575,3.333,3.333,0,0,0-.4,1.866v.235a3.375,3.375,0,0,0,.4,1.878A1.377,1.377,0,0,0,49.734-1.664Zm9.891.8A2.831,2.831,0,0,1,57.313.156a2.67,2.67,0,0,1-2.074-.781,3.335,3.335,0,0,1-.73-2.289V-8.453h2.258v5.467q0,1.322,1.2,1.322a1.63,1.63,0,0,0,1.578-.8V-8.453h2.266V0H59.688ZM67.406.156A4.15,4.15,0,0,1,64.379-.984a4.054,4.054,0,0,1-1.168-3.039v-.219A5.106,5.106,0,0,1,63.7-6.52,3.612,3.612,0,0,1,65.1-8.066a3.914,3.914,0,0,1,2.059-.543,3.508,3.508,0,0,1,2.73,1.094,4.444,4.444,0,0,1,1,3.1v.922H65.5a2.1,2.1,0,0,0,.66,1.328,2,2,0,0,0,1.395.5,2.437,2.437,0,0,0,2.039-.945L70.7-1.367A3.389,3.389,0,0,1,69.328-.246,4.511,4.511,0,0,1,67.406.156Zm-.258-6.945a1.411,1.411,0,0,0-1.09.455,2.357,2.357,0,0,0-.535,1.3h3.141v-.181a1.681,1.681,0,0,0-.406-1.165A1.456,1.456,0,0,0,67.148-6.789Zm7.094-1.664.07.977a2.951,2.951,0,0,1,2.43-1.133,2.453,2.453,0,0,1,2,.789,3.682,3.682,0,0,1,.672,2.359V0H77.156V-5.406a1.465,1.465,0,0,0-.312-1.043A1.4,1.4,0,0,0,75.8-6.773a1.553,1.553,0,0,0-1.43.813V0H72.117V-8.453Zm10.4,6.789a1.481,1.481,0,0,0,1.016-.344,1.2,1.2,0,0,0,.406-.914H88.18a2.9,2.9,0,0,1-.469,1.574A3.093,3.093,0,0,1,86.449-.238a3.949,3.949,0,0,1-1.77.395A3.67,3.67,0,0,1,81.82-1,4.56,4.56,0,0,1,80.773-4.18v-.148a4.508,4.508,0,0,1,1.039-3.117,3.627,3.627,0,0,1,2.852-1.164,3.555,3.555,0,0,1,2.543.9,3.2,3.2,0,0,1,.973,2.4H86.063a1.551,1.551,0,0,0-.406-1.072,1.354,1.354,0,0,0-1.031-.412,1.36,1.36,0,0,0-1.191.575,3.333,3.333,0,0,0-.4,1.866v.235a3.375,3.375,0,0,0,.4,1.878A1.377,1.377,0,0,0,84.641-1.664ZM91.852,0H89.586V-8.453h2.266Zm-2.4-10.641a1.112,1.112,0,0,1,.34-.836,1.277,1.277,0,0,1,.926-.328,1.28,1.28,0,0,1,.922.328,1.105,1.105,0,0,1,.344.836,1.108,1.108,0,0,1-.348.844,1.283,1.283,0,0,1-.918.328A1.283,1.283,0,0,1,89.8-9.8,1.108,1.108,0,0,1,89.453-10.641ZM98.609,0a2.507,2.507,0,0,1-.227-.758A2.732,2.732,0,0,1,96.25.156a3,3,0,0,1-2.059-.719,2.312,2.312,0,0,1-.816-1.812,2.389,2.389,0,0,1,1-2.062,4.915,4.915,0,0,1,2.879-.727h1.039v-.484a1.393,1.393,0,0,0-.3-.937,1.183,1.183,0,0,0-.949-.352,1.345,1.345,0,0,0-.895.273.929.929,0,0,0-.324.75H93.563a2.268,2.268,0,0,1,.453-1.359,3,3,0,0,1,1.281-.98,4.669,4.669,0,0,1,1.859-.355,3.689,3.689,0,0,1,2.48.785,2.747,2.747,0,0,1,.918,2.207v3.664a4.041,4.041,0,0,0,.336,1.82V0ZM96.742-1.57a1.945,1.945,0,0,0,.922-.223,1.462,1.462,0,0,0,.625-.6V-3.844h-.844q-1.7,0-1.8,1.172l-.008.133a.9.9,0,0,0,.3.7A1.153,1.153,0,0,0,96.742-1.57Zm10.125-.766a.727.727,0,0,0-.41-.652,4.659,4.659,0,0,0-1.316-.426q-3.016-.633-3.016-2.562a2.323,2.323,0,0,1,.934-1.879,3.766,3.766,0,0,1,2.441-.754,4.053,4.053,0,0,1,2.574.758,2.388,2.388,0,0,1,.965,1.969h-2.258a1.092,1.092,0,0,0-.312-.8A1.322,1.322,0,0,0,105.492-7a1.351,1.351,0,0,0-.883.258.814.814,0,0,0-.312.656.7.7,0,0,0,.355.605,3.657,3.657,0,0,0,1.2.4,9.8,9.8,0,0,1,1.422.379,2.336,2.336,0,0,1,1.789,2.273,2.2,2.2,0,0,1-.992,1.871,4.28,4.28,0,0,1-2.562.715,4.47,4.47,0,0,1-1.887-.379,3.166,3.166,0,0,1-1.293-1.039,2.414,2.414,0,0,1-.469-1.426H104a1.179,1.179,0,0,0,.445.922,1.766,1.766,0,0,0,1.109.32,1.635,1.635,0,0,0,.98-.246A.766.766,0,0,0,106.867-2.336Z" transform="translate(-5498.334 893.579)" fill="#12263f"/>
    <g id="Group_1076565" data-name="Group 1076565" transform="translate(-5759.466 809.652) rotate(90)">
      <path id="Path_213857" data-name="Path 213857" d="M2.754,0,0,2.753l8.114,8.115L0,18.983l2.754,2.753L13.622,10.868Z" transform="translate(6.779 0)" fill="#18b8c4"/>
      <path id="Path_213858" data-name="Path 213858" d="M0,2.753,4.265,7.018,0,11.283l2.753,2.753L9.773,7.018,2.753,0Z" transform="translate(0 3.85)" fill="#18b8c4"/>
    </g>
    <g id="Group_1076566" data-name="Group 1076566" transform="translate(-5781.202 522.904) rotate(-90)">
      <path id="Path_213857-2" data-name="Path 213857" d="M2.754,0,0,2.753l8.114,8.115L0,18.983l2.754,2.753L13.622,10.868Z" transform="translate(6.779 0)" fill="#18b8c4"/>
      <path id="Path_213858-2" data-name="Path 213858" d="M0,2.753,4.265,7.018,0,11.283l2.753,2.753L9.773,7.018,2.753,0Z" transform="translate(0 3.85)" fill="#18b8c4"/>
    </g>
    <path id="Path_613144" data-name="Path 613144" d="M600,17736.367v-297.631" transform="translate(-6370.334 -16920.314)" fill="none" stroke="#18b8c4" stroke-width="3"/>
    <g id="Group_1076565-2" data-name="Group 1076565" transform="translate(-5296.188 856.843)">
      <path id="Path_213857-3" data-name="Path 213857" d="M2.754,0,0,2.753l8.114,8.115L0,18.983l2.754,2.753L13.622,10.868Z" transform="translate(6.779 0)" fill="#18b8c4"/>
      <path id="Path_213858-3" data-name="Path 213858" d="M0,2.753,4.265,7.018,0,11.283l2.753,2.753L9.773,7.018,2.753,0Z" transform="translate(0 3.85)" fill="#18b8c4"/>
    </g>
    <g id="Group_1076566-2" data-name="Group 1076566" transform="translate(-5582.936 878.579) rotate(-180)">
      <path id="Path_213857-4" data-name="Path 213857" d="M2.754,0,0,2.753l8.114,8.115L0,18.983l2.754,2.753L13.622,10.868Z" transform="translate(6.779 0)" fill="#18b8c4"/>
      <path id="Path_213858-4" data-name="Path 213858" d="M0,2.753,4.265,7.018,0,11.283l2.753,2.753L9.773,7.018,2.753,0Z" transform="translate(0 3.85)" fill="#18b8c4"/>
    </g>
    <path id="Path_613144-2" data-name="Path 613144" d="M600,17736.367v-297.631" transform="translate(-23026.154 1467.711) rotate(-90)" fill="none" stroke="#18b8c4" stroke-width="3"/>
    <path id="Path_614230" data-name="Path 614230" d="M9.945-3.789A4.025,4.025,0,0,1,8.59-.9,4.76,4.76,0,0,1,5.367.156,4.28,4.28,0,0,1,1.926-1.316,6.038,6.038,0,0,1,.672-5.359v-.7A6.819,6.819,0,0,1,1.25-8.945,4.332,4.332,0,0,1,2.9-10.863a4.629,4.629,0,0,1,2.5-.668A4.637,4.637,0,0,1,8.57-10.477,4.326,4.326,0,0,1,9.961-7.516H7.617A2.376,2.376,0,0,0,7-9.113a2.271,2.271,0,0,0-1.605-.5,1.991,1.991,0,0,0-1.754.84,4.707,4.707,0,0,0-.6,2.605V-5.3a5.038,5.038,0,0,0,.559,2.7,1.954,1.954,0,0,0,1.762.852,2.314,2.314,0,0,0,1.621-.5A2.241,2.241,0,0,0,7.6-3.789ZM16.234,0a2.507,2.507,0,0,1-.227-.758,2.732,2.732,0,0,1-2.133.914,3,3,0,0,1-2.059-.719A2.312,2.312,0,0,1,11-2.375a2.389,2.389,0,0,1,1-2.062,4.915,4.915,0,0,1,2.879-.727h1.039v-.484a1.393,1.393,0,0,0-.3-.937,1.183,1.183,0,0,0-.949-.352,1.345,1.345,0,0,0-.895.273.929.929,0,0,0-.324.75H11.188a2.268,2.268,0,0,1,.453-1.359,3,3,0,0,1,1.281-.98,4.669,4.669,0,0,1,1.859-.355,3.689,3.689,0,0,1,2.48.785,2.747,2.747,0,0,1,.918,2.207v3.664a4.041,4.041,0,0,0,.336,1.82V0ZM14.367-1.57a1.945,1.945,0,0,0,.922-.223,1.462,1.462,0,0,0,.625-.6V-3.844H15.07q-1.7,0-1.8,1.172l-.008.133a.9.9,0,0,0,.3.7A1.153,1.153,0,0,0,14.367-1.57Zm10.125-.766a.727.727,0,0,0-.41-.652,4.659,4.659,0,0,0-1.316-.426Q19.75-4.047,19.75-5.977a2.323,2.323,0,0,1,.934-1.879,3.766,3.766,0,0,1,2.441-.754,4.053,4.053,0,0,1,2.574.758,2.388,2.388,0,0,1,.965,1.969H24.406a1.092,1.092,0,0,0-.312-.8A1.322,1.322,0,0,0,23.117-7a1.351,1.351,0,0,0-.883.258.814.814,0,0,0-.312.656.7.7,0,0,0,.355.605,3.657,3.657,0,0,0,1.2.4A9.8,9.8,0,0,1,24.9-4.7,2.336,2.336,0,0,1,26.688-2.43,2.2,2.2,0,0,1,25.7-.559a4.28,4.28,0,0,1-2.562.715,4.47,4.47,0,0,1-1.887-.379,3.166,3.166,0,0,1-1.293-1.039,2.414,2.414,0,0,1-.469-1.426h2.141a1.179,1.179,0,0,0,.445.922,1.766,1.766,0,0,0,1.109.32,1.635,1.635,0,0,0,.98-.246A.766.766,0,0,0,24.492-2.336ZM30.523,0H28.258V-8.453h2.266Zm-2.4-10.641a1.112,1.112,0,0,1,.34-.836,1.277,1.277,0,0,1,.926-.328,1.28,1.28,0,0,1,.922.328,1.105,1.105,0,0,1,.344.836,1.108,1.108,0,0,1-.348.844,1.283,1.283,0,0,1-.918.328,1.283,1.283,0,0,1-.918-.328A1.108,1.108,0,0,1,28.125-10.641ZM39.883-1.664A1.481,1.481,0,0,0,40.9-2.008a1.2,1.2,0,0,0,.406-.914h2.117a2.9,2.9,0,0,1-.469,1.574A3.093,3.093,0,0,1,41.691-.238a3.949,3.949,0,0,1-1.77.395A3.67,3.67,0,0,1,37.063-1,4.56,4.56,0,0,1,36.016-4.18v-.148a4.508,4.508,0,0,1,1.039-3.117,3.627,3.627,0,0,1,2.852-1.164,3.555,3.555,0,0,1,2.543.9,3.2,3.2,0,0,1,.973,2.4H41.3A1.551,1.551,0,0,0,40.9-6.377a1.354,1.354,0,0,0-1.031-.412,1.36,1.36,0,0,0-1.191.575,3.333,3.333,0,0,0-.4,1.866v.235a3.375,3.375,0,0,0,.4,1.878A1.377,1.377,0,0,0,39.883-1.664ZM47.094,0H44.828V-8.453h2.266ZM44.7-10.641a1.112,1.112,0,0,1,.34-.836,1.277,1.277,0,0,1,.926-.328,1.28,1.28,0,0,1,.922.328,1.105,1.105,0,0,1,.344.836,1.108,1.108,0,0,1-.348.844,1.283,1.283,0,0,1-.918.328,1.283,1.283,0,0,1-.918-.328A1.108,1.108,0,0,1,44.7-10.641ZM52.844.156A4.15,4.15,0,0,1,49.816-.984a4.054,4.054,0,0,1-1.168-3.039v-.219a5.106,5.106,0,0,1,.492-2.277,3.612,3.612,0,0,1,1.395-1.547,3.914,3.914,0,0,1,2.059-.543,3.508,3.508,0,0,1,2.73,1.094,4.444,4.444,0,0,1,1,3.1v.922H50.938a2.1,2.1,0,0,0,.66,1.328,2,2,0,0,0,1.395.5,2.437,2.437,0,0,0,2.039-.945l1.109,1.242A3.389,3.389,0,0,1,54.766-.246,4.511,4.511,0,0,1,52.844.156Zm-.258-6.945a1.411,1.411,0,0,0-1.09.455,2.357,2.357,0,0,0-.535,1.3H54.1v-.181A1.681,1.681,0,0,0,53.7-6.377,1.456,1.456,0,0,0,52.586-6.789Zm9.766.453a6.134,6.134,0,0,0-.812-.062,1.654,1.654,0,0,0-1.68.867V0H57.6V-8.453h2.133L59.8-7.445A2.092,2.092,0,0,1,61.68-8.609a2.366,2.366,0,0,1,.7.1Zm4.18-4.2v2.078h1.445V-6.8H66.531v4.219a1.007,1.007,0,0,0,.18.672.9.9,0,0,0,.688.2,3.6,3.6,0,0,0,.664-.055V-.047a4.648,4.648,0,0,1-1.367.2,2.156,2.156,0,0,1-2.422-2.4V-6.8H63.039V-8.453h1.234v-2.078ZM68.648-4.3a5.013,5.013,0,0,1,.484-2.242A3.546,3.546,0,0,1,70.527-8.07a4.069,4.069,0,0,1,2.113-.539,3.849,3.849,0,0,1,2.793,1.047,4.2,4.2,0,0,1,1.207,2.844l.016.578A4.418,4.418,0,0,1,75.57-1.02,3.775,3.775,0,0,1,72.656.156a3.793,3.793,0,0,1-2.918-1.172A4.5,4.5,0,0,1,68.648-4.2Zm2.258.16A3.16,3.16,0,0,0,71.359-2.3a1.5,1.5,0,0,0,1.3.638,1.5,1.5,0,0,0,1.281-.63A3.457,3.457,0,0,0,74.4-4.309a3.128,3.128,0,0,0-.461-1.831,1.5,1.5,0,0,0-1.3-.649,1.474,1.474,0,0,0-1.281.646A3.516,3.516,0,0,0,70.906-4.144Z" transform="translate(-5716.667 539.51)" fill="#12263f"/>
    <path id="Path_614231" data-name="Path 614231" d="M3.359-4.008V0H1.016V-11.375H5.453a5.134,5.134,0,0,1,2.254.469A3.454,3.454,0,0,1,9.2-9.574a3.714,3.714,0,0,1,.523,1.965A3.266,3.266,0,0,1,8.582-4.973a4.767,4.767,0,0,1-3.168.965Zm0-1.9H5.453a2.059,2.059,0,0,0,1.418-.437,1.591,1.591,0,0,0,.488-1.25,1.876,1.876,0,0,0-.492-1.352,1.839,1.839,0,0,0-1.359-.531H3.359Zm12.578-.43a6.134,6.134,0,0,0-.812-.062,1.654,1.654,0,0,0-1.68.867V0H11.188V-8.453H13.32l.063,1.008a2.092,2.092,0,0,1,1.883-1.164,2.366,2.366,0,0,1,.7.1ZM16.391-4.3a5.013,5.013,0,0,1,.484-2.242A3.546,3.546,0,0,1,18.27-8.07a4.069,4.069,0,0,1,2.113-.539,3.849,3.849,0,0,1,2.793,1.047,4.2,4.2,0,0,1,1.207,2.844l.016.578A4.418,4.418,0,0,1,23.313-1.02,3.775,3.775,0,0,1,20.4.156,3.793,3.793,0,0,1,17.48-1.016,4.5,4.5,0,0,1,16.391-4.2Zm2.258.16A3.16,3.16,0,0,0,19.1-2.3a1.5,1.5,0,0,0,1.3.638,1.5,1.5,0,0,0,1.281-.63,3.457,3.457,0,0,0,.461-2.015A3.128,3.128,0,0,0,21.68-6.14a1.5,1.5,0,0,0-1.3-.649,1.474,1.474,0,0,0-1.281.646A3.516,3.516,0,0,0,18.648-4.144Zm14.758,0A5.119,5.119,0,0,1,32.539-.98,2.872,2.872,0,0,1,30.117.156,2.639,2.639,0,0,1,27.922-.9l-.1.9H25.789V-12h2.258v4.3A2.571,2.571,0,0,1,30.1-8.609a2.9,2.9,0,0,1,2.426,1.137,5.126,5.126,0,0,1,.879,3.2Zm-2.258-.164a3.363,3.363,0,0,0-.406-1.871,1.374,1.374,0,0,0-1.211-.59,1.489,1.489,0,0,0-1.484.883v3.336a1.509,1.509,0,0,0,1.5.891,1.394,1.394,0,0,0,1.438-1.078A5.562,5.562,0,0,0,31.148-4.312ZM39.7,0a2.507,2.507,0,0,1-.227-.758,2.732,2.732,0,0,1-2.133.914,3,3,0,0,1-2.059-.719,2.312,2.312,0,0,1-.816-1.812,2.389,2.389,0,0,1,1-2.062,4.915,4.915,0,0,1,2.879-.727h1.039v-.484a1.393,1.393,0,0,0-.3-.937,1.183,1.183,0,0,0-.949-.352,1.345,1.345,0,0,0-.895.273.929.929,0,0,0-.324.75H34.648A2.268,2.268,0,0,1,35.1-7.273a3,3,0,0,1,1.281-.98,4.669,4.669,0,0,1,1.859-.355,3.689,3.689,0,0,1,2.48.785,2.747,2.747,0,0,1,.918,2.207v3.664a4.041,4.041,0,0,0,.336,1.82V0ZM37.828-1.57a1.945,1.945,0,0,0,.922-.223,1.462,1.462,0,0,0,.625-.6V-3.844h-.844q-1.7,0-1.8,1.172l-.008.133a.9.9,0,0,0,.3.7A1.153,1.153,0,0,0,37.828-1.57ZM50.992-4.148A5.119,5.119,0,0,1,50.125-.98,2.872,2.872,0,0,1,47.7.156,2.639,2.639,0,0,1,45.508-.9l-.1.9H43.375V-12h2.258v4.3a2.571,2.571,0,0,1,2.055-.914,2.9,2.9,0,0,1,2.426,1.137,5.126,5.126,0,0,1,.879,3.2Zm-2.258-.164a3.363,3.363,0,0,0-.406-1.871,1.374,1.374,0,0,0-1.211-.59,1.489,1.489,0,0,0-1.484.883v3.336a1.509,1.509,0,0,0,1.5.891A1.394,1.394,0,0,0,48.57-2.742,5.562,5.562,0,0,0,48.734-4.312ZM54.766,0H52.5V-12h2.266Zm5.75.156A4.15,4.15,0,0,1,57.488-.984,4.054,4.054,0,0,1,56.32-4.023v-.219a5.106,5.106,0,0,1,.492-2.277,3.612,3.612,0,0,1,1.395-1.547,3.914,3.914,0,0,1,2.059-.543A3.508,3.508,0,0,1,63-7.516a4.444,4.444,0,0,1,1,3.1v.922H58.609a2.1,2.1,0,0,0,.66,1.328,2,2,0,0,0,1.395.5A2.437,2.437,0,0,0,62.7-2.609l1.109,1.242A3.389,3.389,0,0,1,62.438-.246,4.511,4.511,0,0,1,60.516.156Zm-.258-6.945a1.411,1.411,0,0,0-1.09.455,2.357,2.357,0,0,0-.535,1.3h3.141v-.181a1.681,1.681,0,0,0-.406-1.165A1.456,1.456,0,0,0,60.258-6.789Z" transform="translate(-5703.667 597.51)" fill="#12263f"/>
    <path id="Path_614232" data-name="Path 614232" d="M4.078-11.375,7-3.125l2.906-8.25h3.078V0H10.633V-3.109l.234-5.367L7.8,0H6.188L3.125-8.469l.234,5.359V0H1.016V-11.375ZM14.531-4.3a5.013,5.013,0,0,1,.484-2.242A3.546,3.546,0,0,1,16.41-8.07a4.069,4.069,0,0,1,2.113-.539,3.849,3.849,0,0,1,2.793,1.047,4.2,4.2,0,0,1,1.207,2.844l.016.578A4.418,4.418,0,0,1,21.453-1.02,3.775,3.775,0,0,1,18.539.156a3.793,3.793,0,0,1-2.918-1.172A4.5,4.5,0,0,1,14.531-4.2Zm2.258.16A3.16,3.16,0,0,0,17.242-2.3a1.5,1.5,0,0,0,1.3.638,1.5,1.5,0,0,0,1.281-.63,3.457,3.457,0,0,0,.461-2.015A3.128,3.128,0,0,0,19.82-6.14a1.5,1.5,0,0,0-1.3-.649,1.474,1.474,0,0,0-1.281.646A3.516,3.516,0,0,0,16.789-4.144Zm6.789-.145a5.094,5.094,0,0,1,.887-3.148,2.877,2.877,0,0,1,2.426-1.172,2.589,2.589,0,0,1,2.039.922V-12H31.2V0H29.156l-.109-.9A2.657,2.657,0,0,1,26.875.156,2.869,2.869,0,0,1,24.48-1.02,5.258,5.258,0,0,1,23.578-4.289Zm2.258.168A3.337,3.337,0,0,0,26.25-2.3a1.349,1.349,0,0,0,1.2.634,1.511,1.511,0,0,0,1.477-.884V-5.889a1.489,1.489,0,0,0-1.461-.884Q25.836-6.773,25.836-4.121Zm11,4.277A4.15,4.15,0,0,1,33.809-.984a4.054,4.054,0,0,1-1.168-3.039v-.219a5.106,5.106,0,0,1,.492-2.277,3.612,3.612,0,0,1,1.395-1.547,3.914,3.914,0,0,1,2.059-.543,3.508,3.508,0,0,1,2.73,1.094,4.444,4.444,0,0,1,1,3.1v.922H34.93a2.1,2.1,0,0,0,.66,1.328,2,2,0,0,0,1.395.5,2.437,2.437,0,0,0,2.039-.945l1.109,1.242A3.389,3.389,0,0,1,38.758-.246,4.511,4.511,0,0,1,36.836.156Zm-.258-6.945a1.411,1.411,0,0,0-1.09.455,2.357,2.357,0,0,0-.535,1.3h3.141v-.181a1.681,1.681,0,0,0-.406-1.165A1.456,1.456,0,0,0,36.578-6.789Zm9.766.453a6.134,6.134,0,0,0-.812-.062,1.654,1.654,0,0,0-1.68.867V0H41.594V-8.453h2.133l.063,1.008a2.092,2.092,0,0,1,1.883-1.164,2.366,2.366,0,0,1,.7.1ZM52.094,0a2.507,2.507,0,0,1-.227-.758,2.732,2.732,0,0,1-2.133.914,3,3,0,0,1-2.059-.719,2.312,2.312,0,0,1-.816-1.812,2.389,2.389,0,0,1,1-2.062,4.915,4.915,0,0,1,2.879-.727h1.039v-.484a1.393,1.393,0,0,0-.3-.937,1.183,1.183,0,0,0-.949-.352,1.345,1.345,0,0,0-.895.273.929.929,0,0,0-.324.75H47.047A2.268,2.268,0,0,1,47.5-7.273a3,3,0,0,1,1.281-.98,4.669,4.669,0,0,1,1.859-.355,3.689,3.689,0,0,1,2.48.785,2.747,2.747,0,0,1,.918,2.207v3.664a4.041,4.041,0,0,0,.336,1.82V0ZM50.227-1.57a1.945,1.945,0,0,0,.922-.223,1.462,1.462,0,0,0,.625-.6V-3.844H50.93q-1.7,0-1.8,1.172l-.008.133a.9.9,0,0,0,.3.7A1.153,1.153,0,0,0,50.227-1.57Zm5.2-2.719a5.094,5.094,0,0,1,.887-3.148,2.877,2.877,0,0,1,2.426-1.172,2.589,2.589,0,0,1,2.039.922V-12h2.266V0H61l-.109-.9A2.657,2.657,0,0,1,58.719.156,2.869,2.869,0,0,1,56.324-1.02,5.258,5.258,0,0,1,55.422-4.289Zm2.258.168A3.337,3.337,0,0,0,58.094-2.3a1.349,1.349,0,0,0,1.2.634,1.511,1.511,0,0,0,1.477-.884V-5.889a1.489,1.489,0,0,0-1.461-.884Q57.68-6.773,57.68-4.121ZM64.438-4.3a5.013,5.013,0,0,1,.484-2.242A3.546,3.546,0,0,1,66.316-8.07a4.069,4.069,0,0,1,2.113-.539,3.849,3.849,0,0,1,2.793,1.047A4.2,4.2,0,0,1,72.43-4.719l.016.578A4.418,4.418,0,0,1,71.359-1.02,3.775,3.775,0,0,1,68.445.156a3.793,3.793,0,0,1-2.918-1.172A4.5,4.5,0,0,1,64.438-4.2Zm2.258.16A3.16,3.16,0,0,0,67.148-2.3a1.5,1.5,0,0,0,1.3.638,1.5,1.5,0,0,0,1.281-.63,3.457,3.457,0,0,0,.461-2.015,3.128,3.128,0,0,0-.461-1.831,1.5,1.5,0,0,0-1.3-.649,1.474,1.474,0,0,0-1.281.646A3.516,3.516,0,0,0,66.7-4.144Z" transform="translate(-5712.667 655.51)" fill="#12263f"/>
    <path id="Path_614233" data-name="Path 614233" d="M3.359-4.008V0H1.016V-11.375H5.453a5.134,5.134,0,0,1,2.254.469A3.454,3.454,0,0,1,9.2-9.574a3.714,3.714,0,0,1,.523,1.965A3.266,3.266,0,0,1,8.582-4.973a4.767,4.767,0,0,1-3.168.965Zm0-1.9H5.453a2.059,2.059,0,0,0,1.418-.437,1.591,1.591,0,0,0,.488-1.25,1.876,1.876,0,0,0-.492-1.352,1.839,1.839,0,0,0-1.359-.531H3.359Zm7.375,1.6a5.013,5.013,0,0,1,.484-2.242A3.546,3.546,0,0,1,12.613-8.07a4.069,4.069,0,0,1,2.113-.539A3.849,3.849,0,0,1,17.52-7.562a4.2,4.2,0,0,1,1.207,2.844l.016.578A4.418,4.418,0,0,1,17.656-1.02,3.775,3.775,0,0,1,14.742.156a3.793,3.793,0,0,1-2.918-1.172A4.5,4.5,0,0,1,10.734-4.2Zm2.258.16A3.16,3.16,0,0,0,13.445-2.3a1.5,1.5,0,0,0,1.3.638,1.5,1.5,0,0,0,1.281-.63,3.457,3.457,0,0,0,.461-2.015,3.128,3.128,0,0,0-.461-1.831,1.5,1.5,0,0,0-1.3-.649,1.474,1.474,0,0,0-1.281.646A3.516,3.516,0,0,0,12.992-4.144Zm10.656,2.48a1.481,1.481,0,0,0,1.016-.344,1.2,1.2,0,0,0,.406-.914h2.117a2.9,2.9,0,0,1-.469,1.574A3.093,3.093,0,0,1,25.457-.238a3.949,3.949,0,0,1-1.77.395A3.67,3.67,0,0,1,20.828-1,4.56,4.56,0,0,1,19.781-4.18v-.148A4.508,4.508,0,0,1,20.82-7.445a3.627,3.627,0,0,1,2.852-1.164,3.555,3.555,0,0,1,2.543.9,3.2,3.2,0,0,1,.973,2.4H25.07a1.551,1.551,0,0,0-.406-1.072,1.354,1.354,0,0,0-1.031-.412,1.36,1.36,0,0,0-1.191.575,3.333,3.333,0,0,0-.4,1.866v.235a3.375,3.375,0,0,0,.4,1.878A1.377,1.377,0,0,0,23.648-1.664ZM28.125-4.3a5.013,5.013,0,0,1,.484-2.242A3.546,3.546,0,0,1,30-8.07a4.069,4.069,0,0,1,2.113-.539A3.849,3.849,0,0,1,34.91-7.562a4.2,4.2,0,0,1,1.207,2.844l.016.578A4.418,4.418,0,0,1,35.047-1.02,3.775,3.775,0,0,1,32.133.156a3.793,3.793,0,0,1-2.918-1.172A4.5,4.5,0,0,1,28.125-4.2Zm2.258.16A3.16,3.16,0,0,0,30.836-2.3a1.5,1.5,0,0,0,1.3.638,1.5,1.5,0,0,0,1.281-.63,3.457,3.457,0,0,0,.461-2.015,3.128,3.128,0,0,0-.461-1.831,1.5,1.5,0,0,0-1.3-.649,1.474,1.474,0,0,0-1.281.646A3.516,3.516,0,0,0,30.383-4.144Zm18.734,0A5.07,5.07,0,0,1,48.23-1.02,2.843,2.843,0,0,1,45.836.156a2.633,2.633,0,0,1-2.07-.891V3.25H41.508v-11.7H43.6l.078.828a2.654,2.654,0,0,1,2.141-.984,2.862,2.862,0,0,1,2.43,1.156,5.207,5.207,0,0,1,.867,3.188Zm-2.258-.164a3.327,3.327,0,0,0-.418-1.82,1.361,1.361,0,0,0-1.215-.641,1.479,1.479,0,0,0-1.461.813V-2.5a1.5,1.5,0,0,0,1.477.836Q46.859-1.664,46.859-4.312Zm8.406-2.023a6.134,6.134,0,0,0-.812-.062,1.654,1.654,0,0,0-1.68.867V0H50.516V-8.453h2.133l.063,1.008a2.092,2.092,0,0,1,1.883-1.164,2.366,2.366,0,0,1,.7.1ZM55.719-4.3A5.013,5.013,0,0,1,56.2-6.547,3.546,3.546,0,0,1,57.6-8.07a4.069,4.069,0,0,1,2.113-.539A3.849,3.849,0,0,1,62.5-7.562a4.2,4.2,0,0,1,1.207,2.844l.016.578A4.418,4.418,0,0,1,62.641-1.02,3.775,3.775,0,0,1,59.727.156a3.793,3.793,0,0,1-2.918-1.172A4.5,4.5,0,0,1,55.719-4.2Zm2.258.16A3.16,3.16,0,0,0,58.43-2.3a1.5,1.5,0,0,0,1.3.638,1.5,1.5,0,0,0,1.281-.63,3.457,3.457,0,0,0,.461-2.015,3.128,3.128,0,0,0-.461-1.831,1.5,1.5,0,0,0-1.3-.649,1.474,1.474,0,0,0-1.281.646A3.516,3.516,0,0,0,57.977-4.144Zm14.758,0A5.119,5.119,0,0,1,71.867-.98,2.872,2.872,0,0,1,69.445.156,2.639,2.639,0,0,1,67.25-.9l-.1.9H65.117V-12h2.258v4.3a2.571,2.571,0,0,1,2.055-.914,2.9,2.9,0,0,1,2.426,1.137,5.126,5.126,0,0,1,.879,3.2Zm-2.258-.164a3.363,3.363,0,0,0-.406-1.871,1.374,1.374,0,0,0-1.211-.59,1.489,1.489,0,0,0-1.484.883v3.336a1.509,1.509,0,0,0,1.5.891,1.394,1.394,0,0,0,1.438-1.078A5.562,5.562,0,0,0,70.477-4.312ZM79.023,0A2.507,2.507,0,0,1,78.8-.758a2.732,2.732,0,0,1-2.133.914,3,3,0,0,1-2.059-.719,2.312,2.312,0,0,1-.816-1.812,2.389,2.389,0,0,1,1-2.062,4.915,4.915,0,0,1,2.879-.727H78.7v-.484a1.393,1.393,0,0,0-.3-.937,1.183,1.183,0,0,0-.949-.352,1.345,1.345,0,0,0-.895.273.929.929,0,0,0-.324.75H73.977a2.268,2.268,0,0,1,.453-1.359,3,3,0,0,1,1.281-.98,4.669,4.669,0,0,1,1.859-.355,3.689,3.689,0,0,1,2.48.785,2.747,2.747,0,0,1,.918,2.207v3.664A4.041,4.041,0,0,0,81.3-.133V0ZM77.156-1.57a1.945,1.945,0,0,0,.922-.223,1.462,1.462,0,0,0,.625-.6V-3.844h-.844q-1.7,0-1.8,1.172l-.008.133a.9.9,0,0,0,.3.7A1.153,1.153,0,0,0,77.156-1.57ZM90.32-4.148A5.119,5.119,0,0,1,89.453-.98,2.872,2.872,0,0,1,87.031.156,2.639,2.639,0,0,1,84.836-.9l-.1.9H82.7V-12h2.258v4.3a2.571,2.571,0,0,1,2.055-.914,2.9,2.9,0,0,1,2.426,1.137,5.126,5.126,0,0,1,.879,3.2Zm-2.258-.164a3.363,3.363,0,0,0-.406-1.871,1.374,1.374,0,0,0-1.211-.59,1.489,1.489,0,0,0-1.484.883v3.336a1.509,1.509,0,0,0,1.5.891A1.394,1.394,0,0,0,87.9-2.742,5.562,5.562,0,0,0,88.063-4.312ZM94.094,0H91.828V-12h2.266Zm5.75.156A4.15,4.15,0,0,1,96.816-.984a4.054,4.054,0,0,1-1.168-3.039v-.219a5.106,5.106,0,0,1,.492-2.277,3.612,3.612,0,0,1,1.395-1.547,3.914,3.914,0,0,1,2.059-.543,3.508,3.508,0,0,1,2.73,1.094,4.444,4.444,0,0,1,1,3.1v.922H97.938a2.1,2.1,0,0,0,.66,1.328,2,2,0,0,0,1.395.5,2.437,2.437,0,0,0,2.039-.945l1.109,1.242a3.389,3.389,0,0,1-1.375,1.121A4.511,4.511,0,0,1,99.844.156Zm-.258-6.945a1.411,1.411,0,0,0-1.09.455,2.357,2.357,0,0,0-.535,1.3H101.1v-.181a1.681,1.681,0,0,0-.406-1.165A1.456,1.456,0,0,0,99.586-6.789Z" transform="translate(-5743.667 712.51)" fill="#12263f"/>
    <path id="Path_614234" data-name="Path 614234" d="M9.945-3.789A4.025,4.025,0,0,1,8.59-.9,4.76,4.76,0,0,1,5.367.156,4.28,4.28,0,0,1,1.926-1.316,6.038,6.038,0,0,1,.672-5.359v-.7A6.819,6.819,0,0,1,1.25-8.945,4.332,4.332,0,0,1,2.9-10.863a4.629,4.629,0,0,1,2.5-.668A4.637,4.637,0,0,1,8.57-10.477,4.326,4.326,0,0,1,9.961-7.516H7.617A2.376,2.376,0,0,0,7-9.113a2.271,2.271,0,0,0-1.605-.5,1.991,1.991,0,0,0-1.754.84,4.707,4.707,0,0,0-.6,2.605V-5.3a5.038,5.038,0,0,0,.559,2.7,1.954,1.954,0,0,0,1.762.852,2.314,2.314,0,0,0,1.621-.5A2.241,2.241,0,0,0,7.6-3.789ZM16.234,0a2.507,2.507,0,0,1-.227-.758,2.732,2.732,0,0,1-2.133.914,3,3,0,0,1-2.059-.719A2.312,2.312,0,0,1,11-2.375a2.389,2.389,0,0,1,1-2.062,4.915,4.915,0,0,1,2.879-.727h1.039v-.484a1.393,1.393,0,0,0-.3-.937,1.183,1.183,0,0,0-.949-.352,1.345,1.345,0,0,0-.895.273.929.929,0,0,0-.324.75H11.188a2.268,2.268,0,0,1,.453-1.359,3,3,0,0,1,1.281-.98,4.669,4.669,0,0,1,1.859-.355,3.689,3.689,0,0,1,2.48.785,2.747,2.747,0,0,1,.918,2.207v3.664a4.041,4.041,0,0,0,.336,1.82V0ZM14.367-1.57a1.945,1.945,0,0,0,.922-.223,1.462,1.462,0,0,0,.625-.6V-3.844H15.07q-1.7,0-1.8,1.172l-.008.133a.9.9,0,0,0,.3.7A1.153,1.153,0,0,0,14.367-1.57Zm10.125-.766a.727.727,0,0,0-.41-.652,4.659,4.659,0,0,0-1.316-.426Q19.75-4.047,19.75-5.977a2.323,2.323,0,0,1,.934-1.879,3.766,3.766,0,0,1,2.441-.754,4.053,4.053,0,0,1,2.574.758,2.388,2.388,0,0,1,.965,1.969H24.406a1.092,1.092,0,0,0-.312-.8A1.322,1.322,0,0,0,23.117-7a1.351,1.351,0,0,0-.883.258.814.814,0,0,0-.312.656.7.7,0,0,0,.355.605,3.657,3.657,0,0,0,1.2.4A9.8,9.8,0,0,1,24.9-4.7,2.336,2.336,0,0,1,26.688-2.43,2.2,2.2,0,0,1,25.7-.559a4.28,4.28,0,0,1-2.562.715,4.47,4.47,0,0,1-1.887-.379,3.166,3.166,0,0,1-1.293-1.039,2.414,2.414,0,0,1-.469-1.426h2.141a1.179,1.179,0,0,0,.445.922,1.766,1.766,0,0,0,1.109.32,1.635,1.635,0,0,0,.98-.246A.766.766,0,0,0,24.492-2.336ZM30.523,0H28.258V-8.453h2.266Zm-2.4-10.641a1.112,1.112,0,0,1,.34-.836,1.277,1.277,0,0,1,.926-.328,1.28,1.28,0,0,1,.922.328,1.105,1.105,0,0,1,.344.836,1.108,1.108,0,0,1-.348.844,1.283,1.283,0,0,1-.918.328,1.283,1.283,0,0,1-.918-.328A1.108,1.108,0,0,1,28.125-10.641ZM38.75,0H36.484V-8.453H38.75Zm-2.4-10.641a1.112,1.112,0,0,1,.34-.836,1.277,1.277,0,0,1,.926-.328,1.28,1.28,0,0,1,.922.328,1.105,1.105,0,0,1,.344.836,1.108,1.108,0,0,1-.348.844,1.283,1.283,0,0,1-.918.328A1.283,1.283,0,0,1,36.7-9.8,1.108,1.108,0,0,1,36.352-10.641Zm6.375,2.188.07.945a2.971,2.971,0,0,1,2.43-1.1A2.255,2.255,0,0,1,47.469-7.32a2.9,2.9,0,0,1,2.539-1.289,2.521,2.521,0,0,1,2.047.8,3.681,3.681,0,0,1,.672,2.41V0H50.461V-5.391a1.61,1.61,0,0,0-.281-1.051,1.246,1.246,0,0,0-.992-.332,1.409,1.409,0,0,0-1.406.969L47.789,0H45.531V-5.383a1.59,1.59,0,0,0-.289-1.062,1.259,1.259,0,0,0-.984-.328,1.463,1.463,0,0,0-1.391.8V0H40.609V-8.453Zm19.344,4.3a5.07,5.07,0,0,1-.887,3.129A2.843,2.843,0,0,1,58.789.156a2.633,2.633,0,0,1-2.07-.891V3.25H54.461v-11.7h2.094l.078.828a2.654,2.654,0,0,1,2.141-.984A2.862,2.862,0,0,1,61.2-7.453a5.207,5.207,0,0,1,.867,3.188Zm-2.258-.164a3.327,3.327,0,0,0-.418-1.82,1.361,1.361,0,0,0-1.215-.641,1.479,1.479,0,0,0-1.461.813V-2.5a1.5,1.5,0,0,0,1.477.836Q59.813-1.664,59.813-4.312Zm3.3.008A5.013,5.013,0,0,1,63.6-6.547,3.546,3.546,0,0,1,65-8.07a4.069,4.069,0,0,1,2.113-.539A3.849,3.849,0,0,1,69.9-7.562a4.2,4.2,0,0,1,1.207,2.844l.016.578A4.418,4.418,0,0,1,70.039-1.02,3.775,3.775,0,0,1,67.125.156a3.793,3.793,0,0,1-2.918-1.172A4.5,4.5,0,0,1,63.117-4.2Zm2.258.16A3.16,3.16,0,0,0,65.828-2.3a1.5,1.5,0,0,0,1.3.638,1.5,1.5,0,0,0,1.281-.63,3.457,3.457,0,0,0,.461-2.015,3.128,3.128,0,0,0-.461-1.831,1.5,1.5,0,0,0-1.3-.649,1.474,1.474,0,0,0-1.281.646A3.516,3.516,0,0,0,65.375-4.144ZM77.266-6.336a6.134,6.134,0,0,0-.812-.062,1.654,1.654,0,0,0-1.68.867V0H72.516V-8.453h2.133l.063,1.008a2.092,2.092,0,0,1,1.883-1.164,2.366,2.366,0,0,1,.7.1Zm8.7,2.188A5.119,5.119,0,0,1,85.1-.98,2.872,2.872,0,0,1,82.68.156,2.639,2.639,0,0,1,80.484-.9l-.1.9H78.352V-12h2.258v4.3a2.571,2.571,0,0,1,2.055-.914A2.9,2.9,0,0,1,85.09-7.473a5.126,5.126,0,0,1,.879,3.2Zm-2.258-.164A3.363,3.363,0,0,0,83.3-6.184a1.374,1.374,0,0,0-1.211-.59,1.489,1.489,0,0,0-1.484.883v3.336a1.509,1.509,0,0,0,1.5.891,1.394,1.394,0,0,0,1.438-1.078A5.562,5.562,0,0,0,83.711-4.312ZM92.258,0a2.507,2.507,0,0,1-.227-.758A2.732,2.732,0,0,1,89.9.156,3,3,0,0,1,87.84-.562a2.312,2.312,0,0,1-.816-1.812,2.389,2.389,0,0,1,1-2.062A4.915,4.915,0,0,1,90.9-5.164h1.039v-.484a1.393,1.393,0,0,0-.3-.937,1.183,1.183,0,0,0-.949-.352,1.345,1.345,0,0,0-.895.273.929.929,0,0,0-.324.75H87.211a2.268,2.268,0,0,1,.453-1.359,3,3,0,0,1,1.281-.98A4.669,4.669,0,0,1,90.8-8.609a3.689,3.689,0,0,1,2.48.785A2.747,2.747,0,0,1,94.2-5.617v3.664a4.041,4.041,0,0,0,.336,1.82V0ZM90.391-1.57a1.945,1.945,0,0,0,.922-.223,1.462,1.462,0,0,0,.625-.6V-3.844h-.844q-1.7,0-1.8,1.172l-.008.133a.9.9,0,0,0,.3.7A1.153,1.153,0,0,0,90.391-1.57Zm13.164-2.578a5.119,5.119,0,0,1-.867,3.168A2.872,2.872,0,0,1,100.266.156,2.639,2.639,0,0,1,98.07-.9l-.1.9H95.938V-12H98.2v4.3a2.571,2.571,0,0,1,2.055-.914,2.9,2.9,0,0,1,2.426,1.137,5.126,5.126,0,0,1,.879,3.2ZM101.3-4.312a3.363,3.363,0,0,0-.406-1.871,1.374,1.374,0,0,0-1.211-.59,1.489,1.489,0,0,0-1.484.883v3.336a1.509,1.509,0,0,0,1.5.891,1.394,1.394,0,0,0,1.438-1.078A5.562,5.562,0,0,0,101.3-4.312ZM107.328,0h-2.266V-12h2.266Zm5.75.156a4.15,4.15,0,0,1-3.027-1.141,4.054,4.054,0,0,1-1.168-3.039v-.219a5.106,5.106,0,0,1,.492-2.277,3.612,3.612,0,0,1,1.395-1.547,3.914,3.914,0,0,1,2.059-.543,3.508,3.508,0,0,1,2.73,1.094,4.444,4.444,0,0,1,1,3.1v.922h-5.383a2.1,2.1,0,0,0,.66,1.328,2,2,0,0,0,1.395.5,2.437,2.437,0,0,0,2.039-.945l1.109,1.242A3.389,3.389,0,0,1,115-.246,4.511,4.511,0,0,1,113.078.156Zm-.258-6.945a1.411,1.411,0,0,0-1.09.455,2.357,2.357,0,0,0-.535,1.3h3.141v-.181a1.681,1.681,0,0,0-.406-1.165A1.456,1.456,0,0,0,112.82-6.789Z" transform="translate(-5756.667 770.51)" fill="#12263f"/>
    <path id="Path_614235" data-name="Path 614235" d="M7.859-4.93h-4.5v3.047H8.641V0H1.016V-11.375H8.625v1.9H3.359v2.711h4.5Zm5.227-1,1.422-2.523h2.414L14.516-4.312,17.023,0H14.6L13.094-2.656,11.594,0H9.164l2.508-4.312-2.4-4.141H11.7Zm7.625-4.6v2.078h1.445V-6.8H20.711v4.219a1.007,1.007,0,0,0,.18.672.9.9,0,0,0,.688.2,3.6,3.6,0,0,0,.664-.055V-.047a4.648,4.648,0,0,1-1.367.2,2.156,2.156,0,0,1-2.422-2.4V-6.8H17.219V-8.453h1.234v-2.078Zm7.453,4.2a6.134,6.134,0,0,0-.812-.062,1.654,1.654,0,0,0-1.68.867V0H23.414V-8.453h2.133l.063,1.008a2.092,2.092,0,0,1,1.883-1.164,2.366,2.366,0,0,1,.7.1ZM32.992.156A4.15,4.15,0,0,1,29.965-.984,4.054,4.054,0,0,1,28.8-4.023v-.219a5.106,5.106,0,0,1,.492-2.277,3.612,3.612,0,0,1,1.395-1.547,3.914,3.914,0,0,1,2.059-.543,3.508,3.508,0,0,1,2.73,1.094,4.444,4.444,0,0,1,1,3.1v.922H31.086a2.1,2.1,0,0,0,.66,1.328,2,2,0,0,0,1.395.5,2.437,2.437,0,0,0,2.039-.945l1.109,1.242A3.389,3.389,0,0,1,34.914-.246,4.511,4.511,0,0,1,32.992.156Zm-.258-6.945a1.411,1.411,0,0,0-1.09.455,2.357,2.357,0,0,0-.535,1.3H34.25v-.181a1.681,1.681,0,0,0-.406-1.165A1.456,1.456,0,0,0,32.734-6.789Zm7.133-1.664.07.945a2.971,2.971,0,0,1,2.43-1.1A2.255,2.255,0,0,1,44.609-7.32a2.9,2.9,0,0,1,2.539-1.289,2.521,2.521,0,0,1,2.047.8,3.681,3.681,0,0,1,.672,2.41V0H47.6V-5.391a1.61,1.61,0,0,0-.281-1.051,1.246,1.246,0,0,0-.992-.332,1.409,1.409,0,0,0-1.406.969L44.93,0H42.672V-5.383a1.59,1.59,0,0,0-.289-1.062,1.259,1.259,0,0,0-.984-.328,1.463,1.463,0,0,0-1.391.8V0H37.75V-8.453ZM51.25-4.3a5.013,5.013,0,0,1,.484-2.242A3.546,3.546,0,0,1,53.129-8.07a4.069,4.069,0,0,1,2.113-.539,3.849,3.849,0,0,1,2.793,1.047,4.2,4.2,0,0,1,1.207,2.844l.016.578A4.418,4.418,0,0,1,58.172-1.02,3.775,3.775,0,0,1,55.258.156,3.793,3.793,0,0,1,52.34-1.016,4.5,4.5,0,0,1,51.25-4.2Zm2.258.16A3.16,3.16,0,0,0,53.961-2.3a1.5,1.5,0,0,0,1.3.638,1.5,1.5,0,0,0,1.281-.63A3.457,3.457,0,0,0,57-4.309a3.128,3.128,0,0,0-.461-1.831,1.5,1.5,0,0,0-1.3-.649,1.474,1.474,0,0,0-1.281.646A3.516,3.516,0,0,0,53.508-4.144Z" transform="translate(-5625.667 829.51)" fill="#12263f"/>
    <path id="Path_614236" data-name="Path 614236" d="M4.078-11.375,7-3.125l2.906-8.25h3.078V0H10.633V-3.109l.234-5.367L7.8,0H6.188L3.125-8.469l.234,5.359V0H1.016V-11.375ZM19.945-.859A2.831,2.831,0,0,1,17.633.156a2.67,2.67,0,0,1-2.074-.781,3.335,3.335,0,0,1-.73-2.289V-8.453h2.258v5.467q0,1.322,1.2,1.322a1.63,1.63,0,0,0,1.578-.8V-8.453h2.266V0H20.008ZM26.992-3.2l1.563-5.258h2.422l-3.4,9.766-.187.445a2.577,2.577,0,0,1-2.5,1.656,3.552,3.552,0,0,1-1-.148V1.555l.344.008a1.857,1.857,0,0,0,.957-.2,1.283,1.283,0,0,0,.5-.648l.266-.7L22.992-8.453h2.43ZM40.75,0a2.507,2.507,0,0,1-.227-.758,2.732,2.732,0,0,1-2.133.914,3,3,0,0,1-2.059-.719,2.312,2.312,0,0,1-.816-1.812,2.389,2.389,0,0,1,1-2.062,4.915,4.915,0,0,1,2.879-.727H40.43v-.484a1.393,1.393,0,0,0-.3-.937,1.183,1.183,0,0,0-.949-.352,1.345,1.345,0,0,0-.895.273.929.929,0,0,0-.324.75H35.7a2.268,2.268,0,0,1,.453-1.359,3,3,0,0,1,1.281-.98A4.669,4.669,0,0,1,39.3-8.609a3.689,3.689,0,0,1,2.48.785A2.747,2.747,0,0,1,42.7-5.617v3.664a4.041,4.041,0,0,0,.336,1.82V0ZM38.883-1.57a1.945,1.945,0,0,0,.922-.223,1.462,1.462,0,0,0,.625-.6V-3.844h-.844q-1.7,0-1.8,1.172l-.008.133a.9.9,0,0,0,.3.7A1.153,1.153,0,0,0,38.883-1.57ZM46.813,0H44.547V-12h2.266Zm4.563-10.531v2.078H52.82V-6.8H51.375v4.219a1.007,1.007,0,0,0,.18.672.9.9,0,0,0,.688.2,3.6,3.6,0,0,0,.664-.055V-.047a4.648,4.648,0,0,1-1.367.2,2.156,2.156,0,0,1-2.422-2.4V-6.8H47.883V-8.453h1.234v-2.078ZM53.492-4.3a5.013,5.013,0,0,1,.484-2.242A3.546,3.546,0,0,1,55.371-8.07a4.069,4.069,0,0,1,2.113-.539,3.849,3.849,0,0,1,2.793,1.047,4.2,4.2,0,0,1,1.207,2.844l.016.578A4.418,4.418,0,0,1,60.414-1.02,3.775,3.775,0,0,1,57.5.156a3.793,3.793,0,0,1-2.918-1.172A4.5,4.5,0,0,1,53.492-4.2Zm2.258.16A3.16,3.16,0,0,0,56.2-2.3a1.5,1.5,0,0,0,1.3.638,1.5,1.5,0,0,0,1.281-.63,3.457,3.457,0,0,0,.461-2.015,3.128,3.128,0,0,0-.461-1.831,1.5,1.5,0,0,0-1.3-.649,1.474,1.474,0,0,0-1.281.646A3.516,3.516,0,0,0,55.75-4.144Z" transform="translate(-5538.667 829.51)" fill="#12263f"/>
    <path id="Path_614237" data-name="Path 614237" d="M4.078-11.375,7-3.125l2.906-8.25h3.078V0H10.633V-3.109l.234-5.367L7.8,0H6.188L3.125-8.469l.234,5.359V0H1.016V-11.375ZM18.773.156A4.15,4.15,0,0,1,15.746-.984a4.054,4.054,0,0,1-1.168-3.039v-.219A5.106,5.106,0,0,1,15.07-6.52a3.612,3.612,0,0,1,1.395-1.547,3.914,3.914,0,0,1,2.059-.543,3.508,3.508,0,0,1,2.73,1.094,4.444,4.444,0,0,1,1,3.1v.922H16.867a2.1,2.1,0,0,0,.66,1.328,2,2,0,0,0,1.395.5,2.437,2.437,0,0,0,2.039-.945L22.07-1.367A3.389,3.389,0,0,1,20.7-.246,4.511,4.511,0,0,1,18.773.156Zm-.258-6.945a1.411,1.411,0,0,0-1.09.455,2.357,2.357,0,0,0-.535,1.3h3.141v-.181a1.681,1.681,0,0,0-.406-1.165A1.456,1.456,0,0,0,18.516-6.789Zm4.664,2.5a5.094,5.094,0,0,1,.887-3.148,2.877,2.877,0,0,1,2.426-1.172,2.589,2.589,0,0,1,2.039.922V-12H30.8V0H28.758l-.109-.9A2.657,2.657,0,0,1,26.477.156,2.869,2.869,0,0,1,24.082-1.02,5.258,5.258,0,0,1,23.18-4.289Zm2.258.168A3.337,3.337,0,0,0,25.852-2.3a1.349,1.349,0,0,0,1.2.634,1.511,1.511,0,0,0,1.477-.884V-5.889a1.489,1.489,0,0,0-1.461-.884Q25.438-6.773,25.438-4.121ZM34.93,0H32.664V-8.453H34.93Zm-2.4-10.641a1.112,1.112,0,0,1,.34-.836A1.277,1.277,0,0,1,33.8-11.8a1.28,1.28,0,0,1,.922.328,1.105,1.105,0,0,1,.344.836,1.108,1.108,0,0,1-.348.844,1.283,1.283,0,0,1-.918.328,1.283,1.283,0,0,1-.918-.328A1.108,1.108,0,0,1,32.531-10.641ZM36.438-4.3a5.013,5.013,0,0,1,.484-2.242A3.546,3.546,0,0,1,38.316-8.07a4.069,4.069,0,0,1,2.113-.539,3.849,3.849,0,0,1,2.793,1.047A4.2,4.2,0,0,1,44.43-4.719l.016.578A4.418,4.418,0,0,1,43.359-1.02,3.775,3.775,0,0,1,40.445.156a3.793,3.793,0,0,1-2.918-1.172A4.5,4.5,0,0,1,36.438-4.2Zm2.258.16A3.16,3.16,0,0,0,39.148-2.3a1.5,1.5,0,0,0,1.3.638,1.5,1.5,0,0,0,1.281-.63,3.457,3.457,0,0,0,.461-2.015,3.128,3.128,0,0,0-.461-1.831,1.5,1.5,0,0,0-1.3-.649,1.474,1.474,0,0,0-1.281.646A3.516,3.516,0,0,0,38.7-4.144Z" transform="translate(-5444.667 829.51)" fill="#12263f"/>
    <path id="Path_614238" data-name="Path 614238" d="M1.016,0V-11.375H5a5.232,5.232,0,0,1,3.141.793,2.712,2.712,0,0,1,1.07,2.324,2.57,2.57,0,0,1-.43,1.473,2.482,2.482,0,0,1-1.2.934,2.4,2.4,0,0,1,1.379.883,2.61,2.61,0,0,1,.5,1.625A3,3,0,0,1,8.422-.859,4.713,4.713,0,0,1,5.438,0ZM3.359-4.953v3.07H5.367A1.938,1.938,0,0,0,6.66-2.277a1.353,1.353,0,0,0,.465-1.09A1.428,1.428,0,0,0,5.508-4.953Zm0-1.656H5.094q1.773-.031,1.773-1.414a1.307,1.307,0,0,0-.449-1.113A2.363,2.363,0,0,0,5-9.477H3.359ZM15.977,0a2.507,2.507,0,0,1-.227-.758,2.732,2.732,0,0,1-2.133.914,3,3,0,0,1-2.059-.719,2.312,2.312,0,0,1-.816-1.812,2.389,2.389,0,0,1,1-2.062,4.915,4.915,0,0,1,2.879-.727h1.039v-.484a1.393,1.393,0,0,0-.3-.937,1.183,1.183,0,0,0-.949-.352,1.345,1.345,0,0,0-.895.273.929.929,0,0,0-.324.75H10.93a2.268,2.268,0,0,1,.453-1.359,3,3,0,0,1,1.281-.98,4.669,4.669,0,0,1,1.859-.355A3.689,3.689,0,0,1,17-7.824a2.747,2.747,0,0,1,.918,2.207v3.664a4.041,4.041,0,0,0,.336,1.82V0ZM14.109-1.57a1.945,1.945,0,0,0,.922-.223,1.462,1.462,0,0,0,.625-.6V-3.844h-.844q-1.7,0-1.8,1.172L13-2.539a.9.9,0,0,0,.3.7A1.153,1.153,0,0,0,14.109-1.57Zm7.938-6.883V.461A3.024,3.024,0,0,1,21.3,2.637a2.821,2.821,0,0,1-2.141.777,4.591,4.591,0,0,1-1.117-.133V1.492a4.238,4.238,0,0,0,.711.07q1.023,0,1.023-1.086v-8.93ZM19.6-10.641a1.112,1.112,0,0,1,.34-.836,1.277,1.277,0,0,1,.926-.328,1.277,1.277,0,0,1,.926.328,1.112,1.112,0,0,1,.34.836,1.108,1.108,0,0,1-.348.844,1.283,1.283,0,0,1-.918.328,1.283,1.283,0,0,1-.918-.328A1.108,1.108,0,0,1,19.6-10.641ZM23.461-4.3a5.013,5.013,0,0,1,.484-2.242A3.546,3.546,0,0,1,25.34-8.07a4.069,4.069,0,0,1,2.113-.539,3.849,3.849,0,0,1,2.793,1.047,4.2,4.2,0,0,1,1.207,2.844l.016.578A4.418,4.418,0,0,1,30.383-1.02,3.775,3.775,0,0,1,27.469.156a3.793,3.793,0,0,1-2.918-1.172A4.5,4.5,0,0,1,23.461-4.2Zm2.258.16A3.16,3.16,0,0,0,26.172-2.3a1.5,1.5,0,0,0,1.3.638,1.5,1.5,0,0,0,1.281-.63,3.457,3.457,0,0,0,.461-2.015A3.128,3.128,0,0,0,28.75-6.14a1.5,1.5,0,0,0-1.3-.649,1.474,1.474,0,0,0-1.281.646A3.516,3.516,0,0,0,25.719-4.144Z" transform="translate(-5367.667 829.51)" fill="#12263f"/>
    <path id="Path_614239" data-name="Path 614239" d="M4.078-11.375,7-3.125l2.906-8.25h3.078V0H10.633V-3.109l.234-5.367L7.8,0H6.188L3.125-8.469l.234,5.359V0H1.016V-11.375ZM17.32,0H15.063V-8.453H17.32Zm-.664-11.883h2.461L16.953-9.461H15.117Zm4.688,3.43.07.977a2.951,2.951,0,0,1,2.43-1.133,2.453,2.453,0,0,1,2,.789,3.682,3.682,0,0,1,.672,2.359V0H24.258V-5.406a1.465,1.465,0,0,0-.312-1.043,1.4,1.4,0,0,0-1.039-.324,1.553,1.553,0,0,0-1.43.813V0H19.219V-8.453ZM30.609,0H28.344V-8.453h2.266Zm-2.4-10.641a1.112,1.112,0,0,1,.34-.836,1.277,1.277,0,0,1,.926-.328,1.28,1.28,0,0,1,.922.328,1.105,1.105,0,0,1,.344.836,1.108,1.108,0,0,1-.348.844,1.283,1.283,0,0,1-.918.328,1.283,1.283,0,0,1-.918-.328A1.108,1.108,0,0,1,28.211-10.641Zm6.375,2.188.07.945a2.971,2.971,0,0,1,2.43-1.1A2.255,2.255,0,0,1,39.328-7.32a2.9,2.9,0,0,1,2.539-1.289,2.521,2.521,0,0,1,2.047.8,3.681,3.681,0,0,1,.672,2.41V0H42.32V-5.391a1.61,1.61,0,0,0-.281-1.051,1.246,1.246,0,0,0-.992-.332,1.409,1.409,0,0,0-1.406.969L39.648,0H37.391V-5.383A1.59,1.59,0,0,0,37.1-6.445a1.259,1.259,0,0,0-.984-.328,1.463,1.463,0,0,0-1.391.8V0H32.469V-8.453ZM45.969-4.3a5.013,5.013,0,0,1,.484-2.242A3.546,3.546,0,0,1,47.848-8.07a4.069,4.069,0,0,1,2.113-.539,3.849,3.849,0,0,1,2.793,1.047,4.2,4.2,0,0,1,1.207,2.844l.016.578A4.418,4.418,0,0,1,52.891-1.02,3.775,3.775,0,0,1,49.977.156a3.793,3.793,0,0,1-2.918-1.172A4.5,4.5,0,0,1,45.969-4.2Zm2.258.16A3.16,3.16,0,0,0,48.68-2.3a1.5,1.5,0,0,0,1.3.638,1.5,1.5,0,0,0,1.281-.63,3.457,3.457,0,0,0,.461-2.015,3.128,3.128,0,0,0-.461-1.831,1.5,1.5,0,0,0-1.3-.649,1.474,1.474,0,0,0-1.281.646A3.516,3.516,0,0,0,48.227-4.144Z" transform="translate(-5309.667 829.51)" fill="#12263f"/>
    <path id="Path_614240" data-name="Path 614240" d="M0,0H75V75H0Z" transform="translate(-5623.667 515.51)" fill="#eba325"/>
    <path id="Path_614241" data-name="Path 614241" d="M0,0H75V75H0Z" transform="translate(-5549.667 515.51)" fill="#eba325"/>
    <path id="Path_614242" data-name="Path 614242" d="M0,0H75V38H0Z" transform="translate(-5474.667 552.51)" fill="#fef5e5"/>
    <path id="Path_614243" data-name="Path 614243" d="M0,0H75V38H0Z" transform="translate(-5402.667 552.51)" fill="#fef5e5"/>
    <path id="Path_614244" data-name="Path 614244" d="M0,0H75V38H0Z" transform="translate(-5402.667 589.51)" fill="#e1fbff"/>
    <path id="Path_614245" data-name="Path 614245" d="M0,0H75V38H0Z" transform="translate(-5402.667 664.51)" fill="#0c5e46"/>
    <path id="Path_614246" data-name="Path 614246" d="M0,0H75V38H0Z" transform="translate(-5476.667 589.51)" fill="#fef5e5"/>
    <path id="Path_614247" data-name="Path 614247" d="M0,0H75V38H0Z" transform="translate(-5476.667 627.51)" fill="#fef5e5"/>
    <path id="Path_614248" data-name="Path 614248" d="M0,0H75V38H0Z" transform="translate(-5476.667 515.51)" fill="#eba325"/>
    <path id="Path_614249" data-name="Path 614249" d="M0,0H75V38H0Z" transform="translate(-5402.667 515.51)" fill="#fef5e5"/>
    <path id="Path_614250" data-name="Path 614250" d="M0,0H75V38H0Z" transform="translate(-5329.667 515.51)" fill="#fef5e5"/>
    <path id="Path_614251" data-name="Path 614251" d="M0,0H75V38H0Z" transform="translate(-5329.667 551.51)" fill="#e1fbff"/>
    <path id="Path_614252" data-name="Path 614252" d="M0,0H75V38H0Z" transform="translate(-5329.667 589.51)" fill="#e1fbff"/>
    <path id="Path_614253" data-name="Path 614253" d="M0,0H75V38H0Z" transform="translate(-5329.667 626.51)" fill="#0c5e46"/>
    <path id="Path_614254" data-name="Path 614254" d="M0,0H75V38H0Z" transform="translate(-5402.667 626.51)" fill="#e1fbff"/>
    <path id="Path_614255" data-name="Path 614255" d="M0,0H75V38H0Z" transform="translate(-5402.667 701.51)" fill="#0c5e46"/>
    <path id="Path_614256" data-name="Path 614256" d="M0,0H75V44H0Z" transform="translate(-5623.667 739.51)" fill="#fef5e5"/>
    <path id="Path_614257" data-name="Path 614257" d="M0,0H75V44H0Z" transform="translate(-5402.667 739.51)" fill="#0c5e46"/>
    <path id="Path_614258" data-name="Path 614258" d="M0,0H75V44H0Z" transform="translate(-5549.667 739.51)" fill="#fef5e5"/>
    <path id="Path_614259" data-name="Path 614259" d="M0,0H75V44H0Z" transform="translate(-5476.667 739.51)" fill="#e1fbff"/>
    <path id="Path_614260" data-name="Path 614260" d="M0,0H75V44H0Z" transform="translate(-5329.667 739.51)" fill="#0c5e46"/>
    <path id="Path_614261" data-name="Path 614261" d="M0,0H75V75H0Z" transform="translate(-5549.667 589.51)" fill="#eba325"/>
    <path id="Path_614262" data-name="Path 614262" d="M0,0H75V75H0Z" transform="translate(-5549.667 664.51)" fill="#fef5e5"/>
    <path id="Path_614263" data-name="Path 614263" d="M0,0H75V75H0Z" transform="translate(-5476.667 664.51)" fill="#e1fbff"/>
    <path id="Path_614264" data-name="Path 614264" d="M0,0H75V75H0Z" transform="translate(-5329.667 664.51)" fill="#0c5e46"/>
    <path id="Path_614265" data-name="Path 614265" d="M0,0H75V75H0Z" transform="translate(-5623.667 589.51)" fill="#eba325"/>
    <path id="Path_614266" data-name="Path 614266" d="M0,0H75V75H0Z" transform="translate(-5623.667 664.51)" fill="#eba325"/>
    <path id="Path_614223" data-name="Path 614223" d="M25.753,12h-1.9L20.142,5.919V12h-1.9V2.758h1.9l3.713,6.094V2.758h1.9Zm3.479,0H27.391V5.132h1.841ZM27.283,3.354a.9.9,0,0,1,.276-.679,1.19,1.19,0,0,1,1.5,0,.9.9,0,0,1,.279.679.9.9,0,0,1-.282.686,1.177,1.177,0,0,1-1.492,0A.9.9,0,0,1,27.283,3.354Zm6.03,6.4,1.276-4.627h1.917L34.189,12H32.437L30.12,5.132h1.917Zm7.078,2.368a3.372,3.372,0,0,1-2.46-.927,3.294,3.294,0,0,1-.949-2.469V8.553a4.149,4.149,0,0,1,.4-1.85,2.935,2.935,0,0,1,1.133-1.257A3.18,3.18,0,0,1,40.188,5a2.85,2.85,0,0,1,2.219.889,3.611,3.611,0,0,1,.809,2.52v.749H38.842a1.7,1.7,0,0,0,.536,1.079,1.621,1.621,0,0,0,1.133.406,1.98,1.98,0,0,0,1.657-.768l.9,1.009a2.754,2.754,0,0,1-1.117.911A3.665,3.665,0,0,1,40.391,12.127Zm-.209-5.643a1.146,1.146,0,0,0-.885.37,1.915,1.915,0,0,0-.435,1.058h2.552V7.765a1.366,1.366,0,0,0-.33-.947A1.183,1.183,0,0,0,40.181,6.484ZM46.192,12H44.352V2.25h1.841Zm4.462-3.485a4.139,4.139,0,0,1,.72-2.558A2.338,2.338,0,0,1,53.346,5,2.1,2.1,0,0,1,55,5.754V2.25h1.841V12H55.187l-.089-.73a2.159,2.159,0,0,1-1.765.857,2.331,2.331,0,0,1-1.946-.955A4.272,4.272,0,0,1,50.655,8.515Zm1.834.137a2.711,2.711,0,0,0,.336,1.481,1.1,1.1,0,0,0,.978.515A1.227,1.227,0,0,0,55,9.93V7.215A1.21,1.21,0,0,0,53.816,6.5Q52.489,6.5,52.489,8.652Zm8.938,3.475a3.372,3.372,0,0,1-2.46-.927,3.294,3.294,0,0,1-.949-2.469V8.553a4.149,4.149,0,0,1,.4-1.85,2.935,2.935,0,0,1,1.133-1.257A3.18,3.18,0,0,1,61.224,5a2.85,2.85,0,0,1,2.219.889,3.611,3.611,0,0,1,.809,2.52v.749H59.878a1.7,1.7,0,0,0,.536,1.079,1.621,1.621,0,0,0,1.133.406A1.98,1.98,0,0,0,63.2,9.88l.9,1.009a2.754,2.754,0,0,1-1.117.911A3.665,3.665,0,0,1,61.427,12.127Zm-.209-5.643a1.146,1.146,0,0,0-.885.37A1.915,1.915,0,0,0,59.9,7.912h2.552V7.765a1.366,1.366,0,0,0-.33-.947A1.183,1.183,0,0,0,61.217,6.484ZM14.625,21.852a4.984,4.984,0,0,0-.66-.051,1.344,1.344,0,0,0-1.365.7V27H10.766V20.132H12.5l.051.819A1.7,1.7,0,0,1,14.08,20a1.922,1.922,0,0,1,.571.083ZM17.444,27H15.6V20.132h1.841ZM15.5,18.354a.9.9,0,0,1,.276-.679,1.19,1.19,0,0,1,1.5,0,.969.969,0,0,1,0,1.365,1.177,1.177,0,0,1-1.492,0A.9.9,0,0,1,15.5,18.354Zm6.621,8.772a3.372,3.372,0,0,1-2.46-.927,3.294,3.294,0,0,1-.949-2.469v-.178a4.149,4.149,0,0,1,.4-1.85,2.935,2.935,0,0,1,1.133-1.257A3.18,3.18,0,0,1,21.913,20a2.85,2.85,0,0,1,2.219.889,3.611,3.611,0,0,1,.809,2.52v.749H20.567a1.7,1.7,0,0,0,.536,1.079,1.621,1.621,0,0,0,1.133.406,1.98,1.98,0,0,0,1.657-.768l.9,1.009a2.754,2.754,0,0,1-1.117.911A3.665,3.665,0,0,1,22.116,27.127Zm-.209-5.643a1.146,1.146,0,0,0-.885.37,1.915,1.915,0,0,0-.435,1.058h2.552v-.147a1.366,1.366,0,0,0-.33-.947A1.183,1.183,0,0,0,21.906,21.484ZM29.7,25.1a.591.591,0,0,0-.333-.53,3.785,3.785,0,0,0-1.07-.346q-2.45-.514-2.45-2.082a1.887,1.887,0,0,1,.759-1.527A3.06,3.06,0,0,1,28.59,20a3.293,3.293,0,0,1,2.092.616,1.94,1.94,0,0,1,.784,1.6H29.631a.888.888,0,0,0-.254-.651,1.075,1.075,0,0,0-.793-.257,1.1,1.1,0,0,0-.717.209.661.661,0,0,0-.254.533.565.565,0,0,0,.289.492,2.971,2.971,0,0,0,.974.324,7.958,7.958,0,0,1,1.155.308,1.9,1.9,0,0,1,1.454,1.847,1.792,1.792,0,0,1-.806,1.52,3.478,3.478,0,0,1-2.082.581,3.632,3.632,0,0,1-1.533-.308,2.572,2.572,0,0,1-1.051-.844,1.962,1.962,0,0,1-.381-1.158h1.739a.958.958,0,0,0,.362.749,1.435,1.435,0,0,0,.9.26,1.328,1.328,0,0,0,.8-.2A.622.622,0,0,0,29.7,25.1Zm2.7-1.587a4.025,4.025,0,0,1,.752-2.545A2.437,2.437,0,0,1,35.179,20a2.138,2.138,0,0,1,1.758.774l.076-.647h1.663v6.64a2.935,2.935,0,0,1-.409,1.568,2.629,2.629,0,0,1-1.152,1.016,4.05,4.05,0,0,1-1.739.349,3.766,3.766,0,0,1-1.473-.3,2.614,2.614,0,0,1-1.085-.778l.813-1.117a2.149,2.149,0,0,0,1.663.768,1.573,1.573,0,0,0,1.136-.39,1.464,1.464,0,0,0,.406-1.108V26.41a2.122,2.122,0,0,1-1.669.717,2.431,2.431,0,0,1-2-.968,4.024,4.024,0,0,1-.765-2.568Zm1.834.137a2.506,2.506,0,0,0,.375,1.465,1.191,1.191,0,0,0,1.028.531,1.274,1.274,0,0,0,1.2-.629V22.126a1.271,1.271,0,0,0-1.187-.629,1.2,1.2,0,0,0-1.038.54A2.825,2.825,0,0,0,34.233,23.652ZM39.8,23.5a4.073,4.073,0,0,1,.394-1.822,2.881,2.881,0,0,1,1.133-1.238A3.306,3.306,0,0,1,43.044,20a3.128,3.128,0,0,1,2.269.851,3.414,3.414,0,0,1,.981,2.311l.013.47a3.59,3.59,0,0,1-.882,2.536,3.42,3.42,0,0,1-4.739,0,3.653,3.653,0,0,1-.885-2.59Zm1.834.13A2.567,2.567,0,0,0,42,25.13a1.323,1.323,0,0,0,2.095.006,2.809,2.809,0,0,0,.375-1.637,2.542,2.542,0,0,0-.375-1.488,1.217,1.217,0,0,0-1.054-.528A1.2,1.2,0,0,0,42,22.008,2.857,2.857,0,0,0,41.635,23.633ZM54.654,27a2.037,2.037,0,0,1-.184-.616,2.22,2.22,0,0,1-1.733.743,2.439,2.439,0,0,1-1.673-.584A1.878,1.878,0,0,1,50.4,25.07a1.941,1.941,0,0,1,.809-1.676,3.994,3.994,0,0,1,2.339-.59h.844v-.394a1.132,1.132,0,0,0-.244-.762.961.961,0,0,0-.771-.286,1.093,1.093,0,0,0-.727.222.755.755,0,0,0-.263.609H50.553a1.843,1.843,0,0,1,.368-1.1,2.434,2.434,0,0,1,1.041-.8A3.794,3.794,0,0,1,53.473,20a3,3,0,0,1,2.015.638,2.232,2.232,0,0,1,.746,1.793v2.977a3.284,3.284,0,0,0,.273,1.479V27Zm-1.517-1.276a1.58,1.58,0,0,0,.749-.181,1.188,1.188,0,0,0,.508-.486V23.877h-.686q-1.377,0-1.466.952l-.006.108a.734.734,0,0,0,.241.565A.937.937,0,0,0,53.137,25.724ZM59.58,27H57.739V17.25H59.58Zm3.707-8.557v1.688h1.174v1.346H63.287v3.428a.818.818,0,0,0,.146.546.733.733,0,0,0,.559.165,2.925,2.925,0,0,0,.54-.044v1.39a3.777,3.777,0,0,1-1.111.165,1.752,1.752,0,0,1-1.968-1.949v-3.7h-1V20.132h1V18.443Zm1.72,5.059a4.073,4.073,0,0,1,.394-1.822,2.881,2.881,0,0,1,1.133-1.238A3.306,3.306,0,0,1,68.25,20a3.127,3.127,0,0,1,2.269.851,3.414,3.414,0,0,1,.981,2.311l.013.47a3.59,3.59,0,0,1-.882,2.536,3.42,3.42,0,0,1-4.739,0,3.653,3.653,0,0,1-.885-2.59Zm1.834.13a2.567,2.567,0,0,0,.368,1.5,1.323,1.323,0,0,0,2.095.006,2.809,2.809,0,0,0,.375-1.637,2.542,2.542,0,0,0-.375-1.488,1.217,1.217,0,0,0-1.054-.528,1.2,1.2,0,0,0-1.041.524A2.857,2.857,0,0,0,66.841,23.633Z" transform="translate(-5592.83 559)" fill="#12263f"/>
    <path id="Path_614224" data-name="Path 614224" d="M26.753,12h-1.9L21.142,5.919V12h-1.9V2.758h1.9l3.713,6.094V2.758h1.9Zm3.479,0H28.391V5.132h1.841ZM28.283,3.354a.9.9,0,0,1,.276-.679,1.19,1.19,0,0,1,1.5,0,.9.9,0,0,1,.279.679.9.9,0,0,1-.282.686,1.177,1.177,0,0,1-1.492,0A.9.9,0,0,1,28.283,3.354Zm6.03,6.4,1.276-4.627h1.917L35.189,12H33.437L31.12,5.132h1.917Zm7.078,2.368a3.372,3.372,0,0,1-2.46-.927,3.294,3.294,0,0,1-.949-2.469V8.553a4.149,4.149,0,0,1,.4-1.85,2.935,2.935,0,0,1,1.133-1.257A3.18,3.18,0,0,1,41.188,5a2.85,2.85,0,0,1,2.219.889,3.611,3.611,0,0,1,.809,2.52v.749H39.842a1.7,1.7,0,0,0,.536,1.079,1.621,1.621,0,0,0,1.133.406,1.98,1.98,0,0,0,1.657-.768l.9,1.009a2.754,2.754,0,0,1-1.117.911A3.665,3.665,0,0,1,41.391,12.127Zm-.209-5.643a1.146,1.146,0,0,0-.885.37,1.915,1.915,0,0,0-.435,1.058h2.552V7.765a1.366,1.366,0,0,0-.33-.947A1.183,1.183,0,0,0,41.181,6.484ZM47.192,12H45.352V2.25h1.841Zm4.462-3.485a4.139,4.139,0,0,1,.72-2.558A2.338,2.338,0,0,1,54.346,5,2.1,2.1,0,0,1,56,5.754V2.25h1.841V12H56.187l-.089-.73a2.159,2.159,0,0,1-1.765.857,2.331,2.331,0,0,1-1.946-.955A4.272,4.272,0,0,1,51.655,8.515Zm1.834.137a2.711,2.711,0,0,0,.336,1.481,1.1,1.1,0,0,0,.978.515A1.227,1.227,0,0,0,56,9.93V7.215A1.21,1.21,0,0,0,54.816,6.5Q53.489,6.5,53.489,8.652Zm8.938,3.475a3.372,3.372,0,0,1-2.46-.927,3.294,3.294,0,0,1-.949-2.469V8.553a4.149,4.149,0,0,1,.4-1.85,2.935,2.935,0,0,1,1.133-1.257A3.18,3.18,0,0,1,62.224,5a2.85,2.85,0,0,1,2.219.889,3.611,3.611,0,0,1,.809,2.52v.749H60.878a1.7,1.7,0,0,0,.536,1.079,1.621,1.621,0,0,0,1.133.406A1.98,1.98,0,0,0,64.2,9.88l.9,1.009a2.754,2.754,0,0,1-1.117.911A3.665,3.665,0,0,1,62.427,12.127Zm-.209-5.643a1.146,1.146,0,0,0-.885.37A1.915,1.915,0,0,0,60.9,7.912h2.552V7.765a1.366,1.366,0,0,0-.33-.947A1.183,1.183,0,0,0,62.217,6.484ZM14.1,21.852a4.984,4.984,0,0,0-.66-.051,1.344,1.344,0,0,0-1.365.7V27H10.243V20.132h1.733l.051.819A1.7,1.7,0,0,1,13.556,20a1.922,1.922,0,0,1,.571.083ZM16.92,27H15.08V20.132H16.92Zm-1.949-8.646a.9.9,0,0,1,.276-.679,1.19,1.19,0,0,1,1.5,0,.969.969,0,0,1,0,1.365,1.177,1.177,0,0,1-1.492,0A.9.9,0,0,1,14.972,18.354Zm6.621,8.772a3.372,3.372,0,0,1-2.46-.927,3.294,3.294,0,0,1-.949-2.469v-.178a4.149,4.149,0,0,1,.4-1.85,2.935,2.935,0,0,1,1.133-1.257A3.18,3.18,0,0,1,21.389,20a2.85,2.85,0,0,1,2.219.889,3.611,3.611,0,0,1,.809,2.52v.749H20.043a1.7,1.7,0,0,0,.536,1.079,1.621,1.621,0,0,0,1.133.406,1.98,1.98,0,0,0,1.657-.768l.9,1.009a2.754,2.754,0,0,1-1.117.911A3.665,3.665,0,0,1,21.592,27.127Zm-.209-5.643a1.146,1.146,0,0,0-.885.37,1.915,1.915,0,0,0-.435,1.058h2.552v-.147a1.366,1.366,0,0,0-.33-.947A1.183,1.183,0,0,0,21.383,21.484ZM29.178,25.1a.591.591,0,0,0-.333-.53,3.785,3.785,0,0,0-1.07-.346q-2.45-.514-2.45-2.082a1.887,1.887,0,0,1,.759-1.527A3.06,3.06,0,0,1,28.067,20a3.293,3.293,0,0,1,2.092.616,1.94,1.94,0,0,1,.784,1.6H29.108a.888.888,0,0,0-.254-.651,1.075,1.075,0,0,0-.793-.257,1.1,1.1,0,0,0-.717.209.661.661,0,0,0-.254.533.565.565,0,0,0,.289.492,2.971,2.971,0,0,0,.974.324,7.958,7.958,0,0,1,1.155.308,1.9,1.9,0,0,1,1.454,1.847,1.792,1.792,0,0,1-.806,1.52,3.478,3.478,0,0,1-2.082.581,3.632,3.632,0,0,1-1.533-.308,2.572,2.572,0,0,1-1.051-.844,1.962,1.962,0,0,1-.381-1.158h1.739a.958.958,0,0,0,.362.749,1.435,1.435,0,0,0,.9.26,1.328,1.328,0,0,0,.8-.2A.622.622,0,0,0,29.178,25.1Zm2.7-1.587a4.025,4.025,0,0,1,.752-2.545A2.437,2.437,0,0,1,34.656,20a2.138,2.138,0,0,1,1.758.774l.076-.647h1.663v6.64a2.935,2.935,0,0,1-.409,1.568,2.629,2.629,0,0,1-1.152,1.016,4.05,4.05,0,0,1-1.739.349,3.766,3.766,0,0,1-1.473-.3,2.614,2.614,0,0,1-1.085-.778l.813-1.117a2.149,2.149,0,0,0,1.663.768,1.573,1.573,0,0,0,1.136-.39,1.464,1.464,0,0,0,.406-1.108V26.41a2.122,2.122,0,0,1-1.669.717,2.431,2.431,0,0,1-2-.968,4.024,4.024,0,0,1-.765-2.568Zm1.834.137a2.506,2.506,0,0,0,.375,1.465,1.191,1.191,0,0,0,1.028.531,1.274,1.274,0,0,0,1.2-.629V22.126a1.271,1.271,0,0,0-1.187-.629,1.2,1.2,0,0,0-1.038.54A2.825,2.825,0,0,0,33.71,23.652Zm5.567-.149a4.073,4.073,0,0,1,.394-1.822A2.881,2.881,0,0,1,40.8,20.443,3.306,3.306,0,0,1,42.521,20a3.128,3.128,0,0,1,2.269.851,3.414,3.414,0,0,1,.981,2.311l.013.47a3.59,3.59,0,0,1-.882,2.536,3.42,3.42,0,0,1-4.739,0,3.653,3.653,0,0,1-.885-2.59Zm1.834.13a2.567,2.567,0,0,0,.368,1.5,1.323,1.323,0,0,0,2.095.006,2.809,2.809,0,0,0,.375-1.637,2.542,2.542,0,0,0-.375-1.488,1.217,1.217,0,0,0-1.054-.528,1.2,1.2,0,0,0-1.041.524A2.857,2.857,0,0,0,41.111,23.633Zm15.228,0a4.159,4.159,0,0,1-.7,2.574,2.334,2.334,0,0,1-1.968.924,2.144,2.144,0,0,1-1.784-.857L51.8,27H50.15V17.25h1.834v3.5A2.089,2.089,0,0,1,53.654,20a2.353,2.353,0,0,1,1.971.924,4.165,4.165,0,0,1,.714,2.6ZM54.5,23.5a2.732,2.732,0,0,0-.33-1.52,1.116,1.116,0,0,0-.984-.479,1.21,1.21,0,0,0-1.206.717v2.71a1.226,1.226,0,0,0,1.219.724,1.133,1.133,0,0,0,1.168-.876A4.519,4.519,0,0,0,54.5,23.5ZM61.449,27a2.037,2.037,0,0,1-.184-.616,2.22,2.22,0,0,1-1.733.743,2.439,2.439,0,0,1-1.673-.584A1.878,1.878,0,0,1,57.2,25.07a1.941,1.941,0,0,1,.809-1.676,3.994,3.994,0,0,1,2.339-.59h.844v-.394a1.132,1.132,0,0,0-.244-.762.961.961,0,0,0-.771-.286,1.093,1.093,0,0,0-.727.222.755.755,0,0,0-.263.609H57.349a1.843,1.843,0,0,1,.368-1.1,2.434,2.434,0,0,1,1.041-.8A3.794,3.794,0,0,1,60.269,20a3,3,0,0,1,2.015.638,2.232,2.232,0,0,1,.746,1.793v2.977a3.284,3.284,0,0,0,.273,1.479V27Zm-1.517-1.276a1.58,1.58,0,0,0,.749-.181,1.188,1.188,0,0,0,.508-.486V23.877H60.5q-1.377,0-1.466.952l-.006.108a.734.734,0,0,0,.241.565A.937.937,0,0,0,59.932,25.724Zm6.449-5.592v7.243a2.457,2.457,0,0,1-.6,1.768,2.292,2.292,0,0,1-1.739.632,3.73,3.73,0,0,1-.908-.108V28.212a3.443,3.443,0,0,0,.578.057q.832,0,.832-.882V20.132Zm-1.987-1.777a.9.9,0,0,1,.276-.679,1.194,1.194,0,0,1,1.5,0,.973.973,0,0,1-.006,1.365,1.177,1.177,0,0,1-1.492,0A.9.9,0,0,1,64.395,18.354ZM67.53,23.5a4.073,4.073,0,0,1,.394-1.822,2.881,2.881,0,0,1,1.133-1.238A3.306,3.306,0,0,1,70.774,20a3.127,3.127,0,0,1,2.269.851,3.414,3.414,0,0,1,.981,2.311l.013.47a3.59,3.59,0,0,1-.882,2.536,3.42,3.42,0,0,1-4.739,0,3.653,3.653,0,0,1-.885-2.59Zm1.834.13a2.567,2.567,0,0,0,.368,1.5,1.323,1.323,0,0,0,2.095.006A2.809,2.809,0,0,0,72.2,23.5a2.542,2.542,0,0,0-.375-1.488,1.217,1.217,0,0,0-1.054-.528,1.2,1.2,0,0,0-1.041.524A2.857,2.857,0,0,0,69.365,23.633Z" transform="translate(-5364.83 708)" fill="#fff"/>
    <path id="Path_614225" data-name="Path 614225" d="M29.045,2.758l2.374,6.7,2.361-6.7h2.5V12H34.371V9.474l.19-4.361L32.066,12H30.759L28.271,5.119l.19,4.354V12h-1.9V2.758Zm11.94,9.369a3.372,3.372,0,0,1-2.46-.927,3.294,3.294,0,0,1-.949-2.469V8.553a4.149,4.149,0,0,1,.4-1.85,2.935,2.935,0,0,1,1.133-1.257A3.18,3.18,0,0,1,40.782,5,2.85,2.85,0,0,1,43,5.894a3.611,3.611,0,0,1,.809,2.52v.749H39.436a1.7,1.7,0,0,0,.536,1.079,1.621,1.621,0,0,0,1.133.406,1.98,1.98,0,0,0,1.657-.768l.9,1.009a2.754,2.754,0,0,1-1.117.911A3.665,3.665,0,0,1,40.985,12.127Zm-.209-5.643a1.146,1.146,0,0,0-.885.37,1.915,1.915,0,0,0-.435,1.058h2.552V7.765a1.366,1.366,0,0,0-.33-.947A1.183,1.183,0,0,0,40.775,6.484Zm3.79,2.031a4.139,4.139,0,0,1,.72-2.558A2.338,2.338,0,0,1,47.256,5a2.1,2.1,0,0,1,1.657.749V2.25h1.841V12H49.1l-.089-.73a2.159,2.159,0,0,1-1.765.857,2.331,2.331,0,0,1-1.946-.955A4.272,4.272,0,0,1,44.565,8.515Zm1.834.137a2.711,2.711,0,0,0,.336,1.481,1.1,1.1,0,0,0,.978.515,1.227,1.227,0,0,0,1.2-.718V7.215A1.21,1.21,0,0,0,47.726,6.5Q46.4,6.5,46.4,8.652ZM54.112,12H52.271V5.132h1.841ZM52.163,3.354a.9.9,0,0,1,.276-.679,1.19,1.19,0,0,1,1.5,0,.9.9,0,0,1,.279.679.9.9,0,0,1-.282.686,1.177,1.177,0,0,1-1.492,0A.9.9,0,0,1,52.163,3.354ZM55.337,8.5a4.073,4.073,0,0,1,.394-1.822,2.881,2.881,0,0,1,1.133-1.238A3.306,3.306,0,0,1,58.581,5a3.128,3.128,0,0,1,2.269.851,3.414,3.414,0,0,1,.981,2.311l.013.47a3.59,3.59,0,0,1-.882,2.536,3.42,3.42,0,0,1-4.739,0,3.653,3.653,0,0,1-.885-2.59Zm1.834.13a2.567,2.567,0,0,0,.368,1.5,1.323,1.323,0,0,0,2.095.006A2.809,2.809,0,0,0,60.009,8.5a2.542,2.542,0,0,0-.375-1.488,1.217,1.217,0,0,0-1.054-.528,1.2,1.2,0,0,0-1.041.524A2.857,2.857,0,0,0,57.171,8.633Z" transform="translate(-5483.83 712)" fill="#12263f"/>
    <path id="Path_614226" data-name="Path 614226" d="M29.045,2.758l2.374,6.7,2.361-6.7h2.5V12H34.371V9.474l.19-4.361L32.066,12H30.759L28.271,5.119l.19,4.354V12h-1.9V2.758Zm11.94,9.369a3.372,3.372,0,0,1-2.46-.927,3.294,3.294,0,0,1-.949-2.469V8.553a4.149,4.149,0,0,1,.4-1.85,2.935,2.935,0,0,1,1.133-1.257A3.18,3.18,0,0,1,40.782,5,2.85,2.85,0,0,1,43,5.894a3.611,3.611,0,0,1,.809,2.52v.749H39.436a1.7,1.7,0,0,0,.536,1.079,1.621,1.621,0,0,0,1.133.406,1.98,1.98,0,0,0,1.657-.768l.9,1.009a2.754,2.754,0,0,1-1.117.911A3.665,3.665,0,0,1,40.985,12.127Zm-.209-5.643a1.146,1.146,0,0,0-.885.37,1.915,1.915,0,0,0-.435,1.058h2.552V7.765a1.366,1.366,0,0,0-.33-.947A1.183,1.183,0,0,0,40.775,6.484Zm3.79,2.031a4.139,4.139,0,0,1,.72-2.558A2.338,2.338,0,0,1,47.256,5a2.1,2.1,0,0,1,1.657.749V2.25h1.841V12H49.1l-.089-.73a2.159,2.159,0,0,1-1.765.857,2.331,2.331,0,0,1-1.946-.955A4.272,4.272,0,0,1,44.565,8.515Zm1.834.137a2.711,2.711,0,0,0,.336,1.481,1.1,1.1,0,0,0,.978.515,1.227,1.227,0,0,0,1.2-.718V7.215A1.21,1.21,0,0,0,47.726,6.5Q46.4,6.5,46.4,8.652ZM54.112,12H52.271V5.132h1.841ZM52.163,3.354a.9.9,0,0,1,.276-.679,1.19,1.19,0,0,1,1.5,0,.9.9,0,0,1,.279.679.9.9,0,0,1-.282.686,1.177,1.177,0,0,1-1.492,0A.9.9,0,0,1,52.163,3.354ZM55.337,8.5a4.073,4.073,0,0,1,.394-1.822,2.881,2.881,0,0,1,1.133-1.238A3.306,3.306,0,0,1,58.581,5a3.128,3.128,0,0,1,2.269.851,3.414,3.414,0,0,1,.981,2.311l.013.47a3.59,3.59,0,0,1-.882,2.536,3.42,3.42,0,0,1-4.739,0,3.653,3.653,0,0,1-.885-2.59Zm1.834.13a2.567,2.567,0,0,0,.368,1.5,1.323,1.323,0,0,0,2.095.006A2.809,2.809,0,0,0,60.009,8.5a2.542,2.542,0,0,0-.375-1.488,1.217,1.217,0,0,0-1.054-.528,1.2,1.2,0,0,0-1.041.524A2.857,2.857,0,0,0,57.171,8.633Z" transform="translate(-5408.83 621)" fill="#12263f"/>
    <path id="Path_614227" data-name="Path 614227" d="M29.045,2.758l2.374,6.7,2.361-6.7h2.5V12H34.371V9.474l.19-4.361L32.066,12H30.759L28.271,5.119l.19,4.354V12h-1.9V2.758Zm11.94,9.369a3.372,3.372,0,0,1-2.46-.927,3.294,3.294,0,0,1-.949-2.469V8.553a4.149,4.149,0,0,1,.4-1.85,2.935,2.935,0,0,1,1.133-1.257A3.18,3.18,0,0,1,40.782,5,2.85,2.85,0,0,1,43,5.894a3.611,3.611,0,0,1,.809,2.52v.749H39.436a1.7,1.7,0,0,0,.536,1.079,1.621,1.621,0,0,0,1.133.406,1.98,1.98,0,0,0,1.657-.768l.9,1.009a2.754,2.754,0,0,1-1.117.911A3.665,3.665,0,0,1,40.985,12.127Zm-.209-5.643a1.146,1.146,0,0,0-.885.37,1.915,1.915,0,0,0-.435,1.058h2.552V7.765a1.366,1.366,0,0,0-.33-.947A1.183,1.183,0,0,0,40.775,6.484Zm3.79,2.031a4.139,4.139,0,0,1,.72-2.558A2.338,2.338,0,0,1,47.256,5a2.1,2.1,0,0,1,1.657.749V2.25h1.841V12H49.1l-.089-.73a2.159,2.159,0,0,1-1.765.857,2.331,2.331,0,0,1-1.946-.955A4.272,4.272,0,0,1,44.565,8.515Zm1.834.137a2.711,2.711,0,0,0,.336,1.481,1.1,1.1,0,0,0,.978.515,1.227,1.227,0,0,0,1.2-.718V7.215A1.21,1.21,0,0,0,47.726,6.5Q46.4,6.5,46.4,8.652ZM54.112,12H52.271V5.132h1.841ZM52.163,3.354a.9.9,0,0,1,.276-.679,1.19,1.19,0,0,1,1.5,0,.9.9,0,0,1,.279.679.9.9,0,0,1-.282.686,1.177,1.177,0,0,1-1.492,0A.9.9,0,0,1,52.163,3.354ZM55.337,8.5a4.073,4.073,0,0,1,.394-1.822,2.881,2.881,0,0,1,1.133-1.238A3.306,3.306,0,0,1,58.581,5a3.128,3.128,0,0,1,2.269.851,3.414,3.414,0,0,1,.981,2.311l.013.47a3.59,3.59,0,0,1-.882,2.536,3.42,3.42,0,0,1-4.739,0,3.653,3.653,0,0,1-.885-2.59Zm1.834.13a2.567,2.567,0,0,0,.368,1.5,1.323,1.323,0,0,0,2.095.006A2.809,2.809,0,0,0,60.009,8.5a2.542,2.542,0,0,0-.375-1.488,1.217,1.217,0,0,0-1.054-.528,1.2,1.2,0,0,0-1.041.524A2.857,2.857,0,0,0,57.171,8.633Z" transform="translate(-5332.83 581)" fill="#12263f"/>
    <path id="Path_614228" data-name="Path 614228" d="M15.8,12h-1.9L10.188,5.919V12h-1.9V2.758h1.9L13.9,8.852V2.758h1.9Zm3.479,0H17.437V5.132h1.841ZM17.329,3.354a.9.9,0,0,1,.276-.679,1.19,1.19,0,0,1,1.5,0,.9.9,0,0,1,.279.679.9.9,0,0,1-.282.686,1.177,1.177,0,0,1-1.492,0A.9.9,0,0,1,17.329,3.354Zm6.03,6.4,1.276-4.627h1.917L24.235,12H22.483L20.166,5.132h1.917Zm7.078,2.368a3.372,3.372,0,0,1-2.46-.927,3.294,3.294,0,0,1-.949-2.469V8.553a4.149,4.149,0,0,1,.4-1.85,2.935,2.935,0,0,1,1.133-1.257A3.18,3.18,0,0,1,30.234,5a2.85,2.85,0,0,1,2.219.889,3.611,3.611,0,0,1,.809,2.52v.749H28.888a1.7,1.7,0,0,0,.536,1.079,1.621,1.621,0,0,0,1.133.406,1.98,1.98,0,0,0,1.657-.768l.9,1.009A2.754,2.754,0,0,1,32,11.8,3.665,3.665,0,0,1,30.437,12.127Zm-.209-5.643a1.146,1.146,0,0,0-.885.37,1.915,1.915,0,0,0-.435,1.058h2.552V7.765a1.366,1.366,0,0,0-.33-.947A1.183,1.183,0,0,0,30.227,6.484ZM36.239,12H34.4V2.25h1.841ZM40.7,8.515a4.139,4.139,0,0,1,.72-2.558A2.338,2.338,0,0,1,43.392,5a2.1,2.1,0,0,1,1.657.749V2.25H46.89V12H45.233l-.089-.73a2.159,2.159,0,0,1-1.765.857,2.331,2.331,0,0,1-1.946-.955A4.272,4.272,0,0,1,40.7,8.515Zm1.834.137a2.711,2.711,0,0,0,.336,1.481,1.1,1.1,0,0,0,.978.515,1.227,1.227,0,0,0,1.2-.718V7.215A1.21,1.21,0,0,0,43.862,6.5Q42.535,6.5,42.535,8.652Zm8.938,3.475a3.372,3.372,0,0,1-2.46-.927,3.294,3.294,0,0,1-.949-2.469V8.553a4.149,4.149,0,0,1,.4-1.85A2.935,2.935,0,0,1,49.6,5.446,3.18,3.18,0,0,1,51.27,5a2.85,2.85,0,0,1,2.219.889,3.611,3.611,0,0,1,.809,2.52v.749H49.924a1.7,1.7,0,0,0,.536,1.079,1.621,1.621,0,0,0,1.133.406A1.98,1.98,0,0,0,53.25,9.88l.9,1.009a2.754,2.754,0,0,1-1.117.911A3.665,3.665,0,0,1,51.473,12.127Zm-.209-5.643a1.146,1.146,0,0,0-.885.37,1.915,1.915,0,0,0-.435,1.058h2.552V7.765a1.366,1.366,0,0,0-.33-.947A1.183,1.183,0,0,0,51.263,6.484Zm11.172.368a4.984,4.984,0,0,0-.66-.051,1.344,1.344,0,0,0-1.365.7V12H58.576V5.132h1.733l.051.819A1.7,1.7,0,0,1,61.889,5a1.922,1.922,0,0,1,.571.083ZM65.254,12H63.413V5.132h1.841ZM63.3,3.354a.9.9,0,0,1,.276-.679,1.19,1.19,0,0,1,1.5,0,.9.9,0,0,1,.279.679.9.9,0,0,1-.282.686,1.177,1.177,0,0,1-1.492,0A.9.9,0,0,1,63.3,3.354Zm6.621,8.772a3.372,3.372,0,0,1-2.46-.927,3.294,3.294,0,0,1-.949-2.469V8.553a4.149,4.149,0,0,1,.4-1.85A2.935,2.935,0,0,1,68.05,5.446,3.18,3.18,0,0,1,69.722,5a2.85,2.85,0,0,1,2.219.889,3.611,3.611,0,0,1,.809,2.52v.749H68.377a1.7,1.7,0,0,0,.536,1.079,1.621,1.621,0,0,0,1.133.406A1.98,1.98,0,0,0,71.7,9.88l.9,1.009a2.754,2.754,0,0,1-1.117.911A3.665,3.665,0,0,1,69.926,12.127Zm-.209-5.643a1.146,1.146,0,0,0-.885.37A1.915,1.915,0,0,0,68.4,7.912h2.552V7.765a1.366,1.366,0,0,0-.33-.947A1.183,1.183,0,0,0,69.716,6.484ZM77.511,10.1a.591.591,0,0,0-.333-.53,3.785,3.785,0,0,0-1.07-.346q-2.45-.514-2.45-2.082a1.887,1.887,0,0,1,.759-1.527A3.06,3.06,0,0,1,76.4,5a3.293,3.293,0,0,1,2.092.616,1.94,1.94,0,0,1,.784,1.6H77.441a.888.888,0,0,0-.254-.651,1.075,1.075,0,0,0-.793-.257,1.1,1.1,0,0,0-.717.209.661.661,0,0,0-.254.533.565.565,0,0,0,.289.492,2.971,2.971,0,0,0,.974.324,7.958,7.958,0,0,1,1.155.308,1.9,1.9,0,0,1,1.454,1.847,1.792,1.792,0,0,1-.806,1.52,3.478,3.478,0,0,1-2.082.581,3.632,3.632,0,0,1-1.533-.308,2.572,2.572,0,0,1-1.051-.844,1.962,1.962,0,0,1-.381-1.158h1.739a.958.958,0,0,0,.362.749,1.435,1.435,0,0,0,.9.26,1.328,1.328,0,0,0,.8-.2A.622.622,0,0,0,77.511,10.1Zm2.7-1.587a4.025,4.025,0,0,1,.752-2.545A2.437,2.437,0,0,1,82.989,5a2.138,2.138,0,0,1,1.758.774l.076-.647h1.663v6.64a2.935,2.935,0,0,1-.409,1.568,2.629,2.629,0,0,1-1.152,1.016,4.05,4.05,0,0,1-1.739.349,3.766,3.766,0,0,1-1.473-.3,2.614,2.614,0,0,1-1.085-.778l.813-1.117a2.149,2.149,0,0,0,1.663.768,1.573,1.573,0,0,0,1.136-.39,1.464,1.464,0,0,0,.406-1.108V11.41a2.122,2.122,0,0,1-1.669.717,2.431,2.431,0,0,1-2-.968,4.024,4.024,0,0,1-.765-2.568Zm1.834.137a2.506,2.506,0,0,0,.375,1.465,1.191,1.191,0,0,0,1.028.531,1.274,1.274,0,0,0,1.2-.629V7.126A1.271,1.271,0,0,0,83.459,6.5a1.2,1.2,0,0,0-1.038.54A2.825,2.825,0,0,0,82.043,8.652ZM87.61,8.5A4.073,4.073,0,0,1,88,6.681a2.881,2.881,0,0,1,1.133-1.238A3.306,3.306,0,0,1,90.854,5a3.127,3.127,0,0,1,2.269.851A3.414,3.414,0,0,1,94.1,8.166l.013.47a3.59,3.59,0,0,1-.882,2.536,3.42,3.42,0,0,1-4.739,0,3.653,3.653,0,0,1-.885-2.59Zm1.834.13a2.567,2.567,0,0,0,.368,1.5,1.323,1.323,0,0,0,2.095.006A2.809,2.809,0,0,0,92.282,8.5a2.542,2.542,0,0,0-.375-1.488,1.217,1.217,0,0,0-1.054-.528,1.2,1.2,0,0,0-1.041.524A2.857,2.857,0,0,0,89.445,8.633ZM21.395,27H19.554V20.132h1.841Zm-1.949-8.646a.9.9,0,0,1,.276-.679,1.19,1.19,0,0,1,1.5,0,.969.969,0,0,1,0,1.365,1.177,1.177,0,0,1-1.492,0A.9.9,0,0,1,19.446,18.354Zm5.18,1.777.057.768a2.414,2.414,0,0,1,1.974-.9,1.832,1.832,0,0,1,1.822,1.047A2.358,2.358,0,0,1,30.542,20a2.049,2.049,0,0,1,1.663.651,2.991,2.991,0,0,1,.546,1.958V27H30.91V22.62a1.308,1.308,0,0,0-.229-.854,1.013,1.013,0,0,0-.806-.27,1.145,1.145,0,0,0-1.143.787L28.739,27H26.9V22.626a1.292,1.292,0,0,0-.235-.863,1.023,1.023,0,0,0-.8-.267,1.189,1.189,0,0,0-1.13.647V27H22.905V20.132Zm15.717,3.5a4.119,4.119,0,0,1-.72,2.542,2.31,2.31,0,0,1-1.946.955,2.14,2.14,0,0,1-1.682-.724v3.237H34.16V20.132h1.7l.063.673a2.156,2.156,0,0,1,1.739-.8,2.326,2.326,0,0,1,1.974.939,4.231,4.231,0,0,1,.7,2.59ZM38.508,23.5a2.7,2.7,0,0,0-.34-1.479,1.106,1.106,0,0,0-.987-.521,1.2,1.2,0,0,0-1.187.66v2.812a1.222,1.222,0,0,0,1.2.679Q38.508,25.648,38.508,23.5Zm2.685.006a4.073,4.073,0,0,1,.394-1.822,2.881,2.881,0,0,1,1.133-1.238A3.306,3.306,0,0,1,44.437,20a3.128,3.128,0,0,1,2.269.851,3.414,3.414,0,0,1,.981,2.311l.013.47a3.59,3.59,0,0,1-.882,2.536,3.42,3.42,0,0,1-4.739,0,3.653,3.653,0,0,1-.885-2.59Zm1.834.13a2.567,2.567,0,0,0,.368,1.5,1.323,1.323,0,0,0,2.095.006,2.809,2.809,0,0,0,.375-1.637,2.542,2.542,0,0,0-.375-1.488,1.217,1.217,0,0,0-1.054-.528,1.2,1.2,0,0,0-1.041.524A2.857,2.857,0,0,0,43.027,23.633Zm9.661-1.781a4.984,4.984,0,0,0-.66-.051,1.344,1.344,0,0,0-1.365.7V27H48.829V20.132h1.733l.051.819A1.7,1.7,0,0,1,52.143,20a1.922,1.922,0,0,1,.571.083Zm3.4-3.409v1.688h1.174v1.346H56.084v3.428a.818.818,0,0,0,.146.546.733.733,0,0,0,.559.165,2.925,2.925,0,0,0,.54-.044v1.39a3.777,3.777,0,0,1-1.111.165,1.752,1.752,0,0,1-1.968-1.949v-3.7h-1V20.132h1V18.443ZM62.261,27a2.037,2.037,0,0,1-.184-.616,2.22,2.22,0,0,1-1.733.743,2.439,2.439,0,0,1-1.673-.584,1.878,1.878,0,0,1-.663-1.473,1.941,1.941,0,0,1,.809-1.676,3.994,3.994,0,0,1,2.339-.59H62v-.394a1.132,1.132,0,0,0-.244-.762.961.961,0,0,0-.771-.286,1.093,1.093,0,0,0-.727.222.755.755,0,0,0-.263.609H58.16a1.843,1.843,0,0,1,.368-1.1,2.434,2.434,0,0,1,1.041-.8A3.794,3.794,0,0,1,61.08,20a3,3,0,0,1,2.015.638,2.232,2.232,0,0,1,.746,1.793v2.977a3.284,3.284,0,0,0,.273,1.479V27Zm-1.517-1.276a1.58,1.58,0,0,0,.749-.181A1.188,1.188,0,0,0,62,25.058V23.877h-.686q-1.377,0-1.466.952l-.006.108a.734.734,0,0,0,.241.565A.937.937,0,0,0,60.744,25.724Zm6.2-5.592.057.793A2.4,2.4,0,0,1,68.97,20a1.993,1.993,0,0,1,1.625.641,2.991,2.991,0,0,1,.546,1.917V27H69.307V22.607a1.19,1.19,0,0,0-.254-.847,1.137,1.137,0,0,0-.844-.263,1.262,1.262,0,0,0-1.162.66V27H65.212V20.132Zm7.789-1.688v1.688H75.9v1.346H74.728v3.428a.818.818,0,0,0,.146.546.733.733,0,0,0,.559.165,2.925,2.925,0,0,0,.54-.044v1.39a3.777,3.777,0,0,1-1.111.165,1.752,1.752,0,0,1-1.968-1.949v-3.7h-1V20.132h1V18.443Zm5.357,8.684a3.372,3.372,0,0,1-2.46-.927,3.294,3.294,0,0,1-.949-2.469v-.178a4.149,4.149,0,0,1,.4-1.85,2.935,2.935,0,0,1,1.133-1.257A3.18,3.18,0,0,1,79.882,20a2.85,2.85,0,0,1,2.219.889,3.611,3.611,0,0,1,.809,2.52v.749H78.536a1.7,1.7,0,0,0,.536,1.079,1.621,1.621,0,0,0,1.133.406,1.98,1.98,0,0,0,1.657-.768l.9,1.009a2.754,2.754,0,0,1-1.117.911A3.665,3.665,0,0,1,80.085,27.127Zm-.209-5.643a1.146,1.146,0,0,0-.885.37,1.915,1.915,0,0,0-.435,1.058h2.552v-.147a1.366,1.366,0,0,0-.33-.947A1.183,1.183,0,0,0,79.875,21.484Z" transform="translate(-5453.83 557)" fill="#12263f"/>
    <path id="Path_614229" data-name="Path 614229" d="M15.8,12h-1.9L10.188,5.919V12h-1.9V2.758h1.9L13.9,8.852V2.758h1.9Zm3.479,0H17.437V5.132h1.841ZM17.329,3.354a.9.9,0,0,1,.276-.679,1.19,1.19,0,0,1,1.5,0,.9.9,0,0,1,.279.679.9.9,0,0,1-.282.686,1.177,1.177,0,0,1-1.492,0A.9.9,0,0,1,17.329,3.354Zm6.03,6.4,1.276-4.627h1.917L24.235,12H22.483L20.166,5.132h1.917Zm7.078,2.368a3.372,3.372,0,0,1-2.46-.927,3.294,3.294,0,0,1-.949-2.469V8.553a4.149,4.149,0,0,1,.4-1.85,2.935,2.935,0,0,1,1.133-1.257A3.18,3.18,0,0,1,30.234,5a2.85,2.85,0,0,1,2.219.889,3.611,3.611,0,0,1,.809,2.52v.749H28.888a1.7,1.7,0,0,0,.536,1.079,1.621,1.621,0,0,0,1.133.406,1.98,1.98,0,0,0,1.657-.768l.9,1.009A2.754,2.754,0,0,1,32,11.8,3.665,3.665,0,0,1,30.437,12.127Zm-.209-5.643a1.146,1.146,0,0,0-.885.37,1.915,1.915,0,0,0-.435,1.058h2.552V7.765a1.366,1.366,0,0,0-.33-.947A1.183,1.183,0,0,0,30.227,6.484ZM36.239,12H34.4V2.25h1.841ZM40.7,8.515a4.139,4.139,0,0,1,.72-2.558A2.338,2.338,0,0,1,43.392,5a2.1,2.1,0,0,1,1.657.749V2.25H46.89V12H45.233l-.089-.73a2.159,2.159,0,0,1-1.765.857,2.331,2.331,0,0,1-1.946-.955A4.272,4.272,0,0,1,40.7,8.515Zm1.834.137a2.711,2.711,0,0,0,.336,1.481,1.1,1.1,0,0,0,.978.515,1.227,1.227,0,0,0,1.2-.718V7.215A1.21,1.21,0,0,0,43.862,6.5Q42.535,6.5,42.535,8.652Zm8.938,3.475a3.372,3.372,0,0,1-2.46-.927,3.294,3.294,0,0,1-.949-2.469V8.553a4.149,4.149,0,0,1,.4-1.85A2.935,2.935,0,0,1,49.6,5.446,3.18,3.18,0,0,1,51.27,5a2.85,2.85,0,0,1,2.219.889,3.611,3.611,0,0,1,.809,2.52v.749H49.924a1.7,1.7,0,0,0,.536,1.079,1.621,1.621,0,0,0,1.133.406A1.98,1.98,0,0,0,53.25,9.88l.9,1.009a2.754,2.754,0,0,1-1.117.911A3.665,3.665,0,0,1,51.473,12.127Zm-.209-5.643a1.146,1.146,0,0,0-.885.37,1.915,1.915,0,0,0-.435,1.058h2.552V7.765a1.366,1.366,0,0,0-.33-.947A1.183,1.183,0,0,0,51.263,6.484Zm11.172.368a4.984,4.984,0,0,0-.66-.051,1.344,1.344,0,0,0-1.365.7V12H58.576V5.132h1.733l.051.819A1.7,1.7,0,0,1,61.889,5a1.922,1.922,0,0,1,.571.083ZM65.254,12H63.413V5.132h1.841ZM63.3,3.354a.9.9,0,0,1,.276-.679,1.19,1.19,0,0,1,1.5,0,.9.9,0,0,1,.279.679.9.9,0,0,1-.282.686,1.177,1.177,0,0,1-1.492,0A.9.9,0,0,1,63.3,3.354Zm6.621,8.772a3.372,3.372,0,0,1-2.46-.927,3.294,3.294,0,0,1-.949-2.469V8.553a4.149,4.149,0,0,1,.4-1.85A2.935,2.935,0,0,1,68.05,5.446,3.18,3.18,0,0,1,69.722,5a2.85,2.85,0,0,1,2.219.889,3.611,3.611,0,0,1,.809,2.52v.749H68.377a1.7,1.7,0,0,0,.536,1.079,1.621,1.621,0,0,0,1.133.406A1.98,1.98,0,0,0,71.7,9.88l.9,1.009a2.754,2.754,0,0,1-1.117.911A3.665,3.665,0,0,1,69.926,12.127Zm-.209-5.643a1.146,1.146,0,0,0-.885.37A1.915,1.915,0,0,0,68.4,7.912h2.552V7.765a1.366,1.366,0,0,0-.33-.947A1.183,1.183,0,0,0,69.716,6.484ZM77.511,10.1a.591.591,0,0,0-.333-.53,3.785,3.785,0,0,0-1.07-.346q-2.45-.514-2.45-2.082a1.887,1.887,0,0,1,.759-1.527A3.06,3.06,0,0,1,76.4,5a3.293,3.293,0,0,1,2.092.616,1.94,1.94,0,0,1,.784,1.6H77.441a.888.888,0,0,0-.254-.651,1.075,1.075,0,0,0-.793-.257,1.1,1.1,0,0,0-.717.209.661.661,0,0,0-.254.533.565.565,0,0,0,.289.492,2.971,2.971,0,0,0,.974.324,7.958,7.958,0,0,1,1.155.308,1.9,1.9,0,0,1,1.454,1.847,1.792,1.792,0,0,1-.806,1.52,3.478,3.478,0,0,1-2.082.581,3.632,3.632,0,0,1-1.533-.308,2.572,2.572,0,0,1-1.051-.844,1.962,1.962,0,0,1-.381-1.158h1.739a.958.958,0,0,0,.362.749,1.435,1.435,0,0,0,.9.26,1.328,1.328,0,0,0,.8-.2A.622.622,0,0,0,77.511,10.1Zm2.7-1.587a4.025,4.025,0,0,1,.752-2.545A2.437,2.437,0,0,1,82.989,5a2.138,2.138,0,0,1,1.758.774l.076-.647h1.663v6.64a2.935,2.935,0,0,1-.409,1.568,2.629,2.629,0,0,1-1.152,1.016,4.05,4.05,0,0,1-1.739.349,3.766,3.766,0,0,1-1.473-.3,2.614,2.614,0,0,1-1.085-.778l.813-1.117a2.149,2.149,0,0,0,1.663.768,1.573,1.573,0,0,0,1.136-.39,1.464,1.464,0,0,0,.406-1.108V11.41a2.122,2.122,0,0,1-1.669.717,2.431,2.431,0,0,1-2-.968,4.024,4.024,0,0,1-.765-2.568Zm1.834.137a2.506,2.506,0,0,0,.375,1.465,1.191,1.191,0,0,0,1.028.531,1.274,1.274,0,0,0,1.2-.629V7.126A1.271,1.271,0,0,0,83.459,6.5a1.2,1.2,0,0,0-1.038.54A2.825,2.825,0,0,0,82.043,8.652ZM87.61,8.5A4.073,4.073,0,0,1,88,6.681a2.881,2.881,0,0,1,1.133-1.238A3.306,3.306,0,0,1,90.854,5a3.127,3.127,0,0,1,2.269.851A3.414,3.414,0,0,1,94.1,8.166l.013.47a3.59,3.59,0,0,1-.882,2.536,3.42,3.42,0,0,1-4.739,0,3.653,3.653,0,0,1-.885-2.59Zm1.834.13a2.567,2.567,0,0,0,.368,1.5,1.323,1.323,0,0,0,2.095.006A2.809,2.809,0,0,0,92.282,8.5a2.542,2.542,0,0,0-.375-1.488,1.217,1.217,0,0,0-1.054-.528,1.2,1.2,0,0,0-1.041.524A2.857,2.857,0,0,0,89.445,8.633ZM21.395,27H19.554V20.132h1.841Zm-1.949-8.646a.9.9,0,0,1,.276-.679,1.19,1.19,0,0,1,1.5,0,.969.969,0,0,1,0,1.365,1.177,1.177,0,0,1-1.492,0A.9.9,0,0,1,19.446,18.354Zm5.18,1.777.057.768a2.414,2.414,0,0,1,1.974-.9,1.832,1.832,0,0,1,1.822,1.047A2.358,2.358,0,0,1,30.542,20a2.049,2.049,0,0,1,1.663.651,2.991,2.991,0,0,1,.546,1.958V27H30.91V22.62a1.308,1.308,0,0,0-.229-.854,1.013,1.013,0,0,0-.806-.27,1.145,1.145,0,0,0-1.143.787L28.739,27H26.9V22.626a1.292,1.292,0,0,0-.235-.863,1.023,1.023,0,0,0-.8-.267,1.189,1.189,0,0,0-1.13.647V27H22.905V20.132Zm15.717,3.5a4.119,4.119,0,0,1-.72,2.542,2.31,2.31,0,0,1-1.946.955,2.14,2.14,0,0,1-1.682-.724v3.237H34.16V20.132h1.7l.063.673a2.156,2.156,0,0,1,1.739-.8,2.326,2.326,0,0,1,1.974.939,4.231,4.231,0,0,1,.7,2.59ZM38.508,23.5a2.7,2.7,0,0,0-.34-1.479,1.106,1.106,0,0,0-.987-.521,1.2,1.2,0,0,0-1.187.66v2.812a1.222,1.222,0,0,0,1.2.679Q38.508,25.648,38.508,23.5Zm2.685.006a4.073,4.073,0,0,1,.394-1.822,2.881,2.881,0,0,1,1.133-1.238A3.306,3.306,0,0,1,44.437,20a3.128,3.128,0,0,1,2.269.851,3.414,3.414,0,0,1,.981,2.311l.013.47a3.59,3.59,0,0,1-.882,2.536,3.42,3.42,0,0,1-4.739,0,3.653,3.653,0,0,1-.885-2.59Zm1.834.13a2.567,2.567,0,0,0,.368,1.5,1.323,1.323,0,0,0,2.095.006,2.809,2.809,0,0,0,.375-1.637,2.542,2.542,0,0,0-.375-1.488,1.217,1.217,0,0,0-1.054-.528,1.2,1.2,0,0,0-1.041.524A2.857,2.857,0,0,0,43.027,23.633Zm9.661-1.781a4.984,4.984,0,0,0-.66-.051,1.344,1.344,0,0,0-1.365.7V27H48.829V20.132h1.733l.051.819A1.7,1.7,0,0,1,52.143,20a1.922,1.922,0,0,1,.571.083Zm3.4-3.409v1.688h1.174v1.346H56.084v3.428a.818.818,0,0,0,.146.546.733.733,0,0,0,.559.165,2.925,2.925,0,0,0,.54-.044v1.39a3.777,3.777,0,0,1-1.111.165,1.752,1.752,0,0,1-1.968-1.949v-3.7h-1V20.132h1V18.443ZM62.261,27a2.037,2.037,0,0,1-.184-.616,2.22,2.22,0,0,1-1.733.743,2.439,2.439,0,0,1-1.673-.584,1.878,1.878,0,0,1-.663-1.473,1.941,1.941,0,0,1,.809-1.676,3.994,3.994,0,0,1,2.339-.59H62v-.394a1.132,1.132,0,0,0-.244-.762.961.961,0,0,0-.771-.286,1.093,1.093,0,0,0-.727.222.755.755,0,0,0-.263.609H58.16a1.843,1.843,0,0,1,.368-1.1,2.434,2.434,0,0,1,1.041-.8A3.794,3.794,0,0,1,61.08,20a3,3,0,0,1,2.015.638,2.232,2.232,0,0,1,.746,1.793v2.977a3.284,3.284,0,0,0,.273,1.479V27Zm-1.517-1.276a1.58,1.58,0,0,0,.749-.181A1.188,1.188,0,0,0,62,25.058V23.877h-.686q-1.377,0-1.466.952l-.006.108a.734.734,0,0,0,.241.565A.937.937,0,0,0,60.744,25.724Zm6.2-5.592.057.793A2.4,2.4,0,0,1,68.97,20a1.993,1.993,0,0,1,1.625.641,2.991,2.991,0,0,1,.546,1.917V27H69.307V22.607a1.19,1.19,0,0,0-.254-.847,1.137,1.137,0,0,0-.844-.263,1.262,1.262,0,0,0-1.162.66V27H65.212V20.132Zm7.789-1.688v1.688H75.9v1.346H74.728v3.428a.818.818,0,0,0,.146.546.733.733,0,0,0,.559.165,2.925,2.925,0,0,0,.54-.044v1.39a3.777,3.777,0,0,1-1.111.165,1.752,1.752,0,0,1-1.968-1.949v-3.7h-1V20.132h1V18.443Zm5.357,8.684a3.372,3.372,0,0,1-2.46-.927,3.294,3.294,0,0,1-.949-2.469v-.178a4.149,4.149,0,0,1,.4-1.85,2.935,2.935,0,0,1,1.133-1.257A3.18,3.18,0,0,1,79.882,20a2.85,2.85,0,0,1,2.219.889,3.611,3.611,0,0,1,.809,2.52v.749H78.536a1.7,1.7,0,0,0,.536,1.079,1.621,1.621,0,0,0,1.133.406,1.98,1.98,0,0,0,1.657-.768l.9,1.009a2.754,2.754,0,0,1-1.117.911A3.665,3.665,0,0,1,80.085,27.127Zm-.209-5.643a1.146,1.146,0,0,0-.885.37,1.915,1.915,0,0,0-.435,1.058h2.552v-.147a1.366,1.366,0,0,0-.33-.947A1.183,1.183,0,0,0,79.875,21.484Z" transform="translate(-5602.83 745)" fill="#12263f"/>
  </g>
</svg>
