<svg xmlns="http://www.w3.org/2000/svg" width="400" height="366.069" viewBox="0 0 400 366.069">
  <g id="Group_1077106" data-name="Group 1077106" transform="translate(5145.667 -488.969)">
    <path id="Path_614352" data-name="Path 614352" d="M10,0H390a10,10,0,0,1,10,10V356.069a10,10,0,0,1-10,10H10a10,10,0,0,1-10-10V10A10,10,0,0,1,10,0Z" transform="translate(-5145.667 488.969)" fill="#f6f6f6"/>
    <path id="Path_614353" data-name="Path 614353" d="M2.939-3.507V0H.889V-9.953H4.771a4.492,4.492,0,0,1,1.972.41A3.022,3.022,0,0,1,8.053-8.377a3.25,3.25,0,0,1,.458,1.719,2.858,2.858,0,0,1-1,2.307,4.171,4.171,0,0,1-2.772.844Zm0-1.661H4.771a1.8,1.8,0,0,0,1.241-.383,1.392,1.392,0,0,0,.427-1.094,1.642,1.642,0,0,0-.431-1.183,1.609,1.609,0,0,0-1.189-.465H2.939Zm11.006-.376a5.367,5.367,0,0,0-.711-.055,1.447,1.447,0,0,0-1.47.759V0H9.789V-7.4h1.866l.055.882a1.831,1.831,0,0,1,1.647-1.019,2.07,2.07,0,0,1,.615.089Zm.4,1.777a4.387,4.387,0,0,1,.424-1.962,3.1,3.1,0,0,1,1.22-1.333,3.56,3.56,0,0,1,1.849-.472,3.368,3.368,0,0,1,2.444.916,3.676,3.676,0,0,1,1.056,2.488l.014.506A3.866,3.866,0,0,1,20.4-.892,3.3,3.3,0,0,1,17.849.137,3.319,3.319,0,0,1,15.3-.889a3.934,3.934,0,0,1-.954-2.789Zm1.976.14a2.765,2.765,0,0,0,.4,1.612,1.308,1.308,0,0,0,1.135.558,1.311,1.311,0,0,0,1.121-.551,3.025,3.025,0,0,0,.4-1.763,2.737,2.737,0,0,0-.4-1.6,1.311,1.311,0,0,0-1.135-.568,1.29,1.29,0,0,0-1.121.565A3.076,3.076,0,0,0,16.317-3.626Zm12.913,0a4.479,4.479,0,0,1-.759,2.772,2.513,2.513,0,0,1-2.119.995,2.309,2.309,0,0,1-1.921-.923L24.343,0H22.565V-10.5h1.976v3.767a2.25,2.25,0,0,1,1.8-.8,2.534,2.534,0,0,1,2.123.995,4.485,4.485,0,0,1,.769,2.8Zm-1.976-.144A2.942,2.942,0,0,0,26.9-5.411a1.2,1.2,0,0,0-1.06-.516,1.3,1.3,0,0,0-1.3.772v2.919a1.321,1.321,0,0,0,1.313.779A1.22,1.22,0,0,0,27.111-2.4,4.866,4.866,0,0,0,27.255-3.773ZM34.733,0a2.194,2.194,0,0,1-.2-.663,2.39,2.39,0,0,1-1.866.8,2.626,2.626,0,0,1-1.8-.629,2.023,2.023,0,0,1-.714-1.586,2.09,2.09,0,0,1,.872-1.8,4.3,4.3,0,0,1,2.519-.636h.909v-.424a1.219,1.219,0,0,0-.263-.82,1.035,1.035,0,0,0-.831-.308,1.177,1.177,0,0,0-.783.239.813.813,0,0,0-.284.656H30.317a1.984,1.984,0,0,1,.4-1.189,2.621,2.621,0,0,1,1.121-.858,4.086,4.086,0,0,1,1.627-.311,3.228,3.228,0,0,1,2.17.687,2.4,2.4,0,0,1,.8,1.931v3.206a3.536,3.536,0,0,0,.294,1.593V0ZM33.1-1.374a1.7,1.7,0,0,0,.807-.195,1.28,1.28,0,0,0,.547-.523V-3.363h-.738q-1.483,0-1.579,1.025l-.007.116a.791.791,0,0,0,.26.608A1.009,1.009,0,0,0,33.1-1.374ZM44.618-3.63a4.479,4.479,0,0,1-.759,2.772A2.513,2.513,0,0,1,41.74.137a2.309,2.309,0,0,1-1.921-.923L39.73,0H37.953V-10.5h1.976v3.767a2.25,2.25,0,0,1,1.8-.8,2.534,2.534,0,0,1,2.123.995,4.485,4.485,0,0,1,.769,2.8Zm-1.976-.144a2.942,2.942,0,0,0-.355-1.637,1.2,1.2,0,0,0-1.06-.516,1.3,1.3,0,0,0-1.3.772v2.919a1.321,1.321,0,0,0,1.313.779A1.22,1.22,0,0,0,42.5-2.4,4.866,4.866,0,0,0,42.643-3.773ZM47.92,0H45.938V-7.4H47.92Zm-2.1-9.311a.973.973,0,0,1,.3-.731,1.117,1.117,0,0,1,.81-.287,1.12,1.12,0,0,1,.807.287.967.967,0,0,1,.3.731.97.97,0,0,1-.3.738,1.122,1.122,0,0,1-.8.287,1.122,1.122,0,0,1-.8-.287A.97.97,0,0,1,45.821-9.311ZM51.632,0H49.649V-10.5h1.982Zm3.712,0H53.361V-7.4h1.982Zm-2.1-9.311a.973.973,0,0,1,.3-.731,1.117,1.117,0,0,1,.81-.287,1.12,1.12,0,0,1,.807.287.967.967,0,0,1,.3.731.97.97,0,0,1-.3.738,1.122,1.122,0,0,1-.8.287,1.122,1.122,0,0,1-.8-.287A.97.97,0,0,1,53.245-9.311Zm3.418,5.558a4.457,4.457,0,0,1,.776-2.755,2.517,2.517,0,0,1,2.123-1.025,2.265,2.265,0,0,1,1.784.807V-10.5h1.982V0H61.544l-.1-.786a2.325,2.325,0,0,1-1.9.923,2.511,2.511,0,0,1-2.1-1.029A4.6,4.6,0,0,1,56.663-3.753Zm1.976.147A2.92,2.92,0,0,0,59-2.011a1.18,1.18,0,0,0,1.053.555,1.322,1.322,0,0,0,1.292-.774V-5.153a1.3,1.3,0,0,0-1.278-.774Q58.639-5.927,58.639-3.606ZM69.146,0a2.194,2.194,0,0,1-.2-.663,2.39,2.39,0,0,1-1.866.8,2.626,2.626,0,0,1-1.8-.629,2.023,2.023,0,0,1-.714-1.586,2.09,2.09,0,0,1,.872-1.8,4.3,4.3,0,0,1,2.519-.636h.909v-.424a1.219,1.219,0,0,0-.263-.82,1.035,1.035,0,0,0-.831-.308,1.177,1.177,0,0,0-.783.239.813.813,0,0,0-.284.656H64.729a1.985,1.985,0,0,1,.4-1.189,2.621,2.621,0,0,1,1.121-.858,4.086,4.086,0,0,1,1.627-.311,3.228,3.228,0,0,1,2.17.687,2.4,2.4,0,0,1,.8,1.931v3.206a3.536,3.536,0,0,0,.294,1.593V0ZM67.512-1.374a1.7,1.7,0,0,0,.807-.195,1.28,1.28,0,0,0,.547-.523V-3.363h-.738q-1.483,0-1.579,1.025l-.007.116a.791.791,0,0,0,.26.608A1.009,1.009,0,0,0,67.512-1.374Zm4.546-2.379a4.457,4.457,0,0,1,.776-2.755,2.517,2.517,0,0,1,2.123-1.025,2.265,2.265,0,0,1,1.784.807V-10.5h1.982V0H76.938l-.1-.786a2.325,2.325,0,0,1-1.9.923,2.511,2.511,0,0,1-2.1-1.029A4.6,4.6,0,0,1,72.058-3.753Zm1.976.147a2.92,2.92,0,0,0,.362,1.6,1.18,1.18,0,0,0,1.053.555A1.322,1.322,0,0,0,76.74-2.23V-5.153a1.3,1.3,0,0,0-1.278-.774Q74.033-5.927,74.033-3.606Zm9.4-.147a4.457,4.457,0,0,1,.776-2.755,2.517,2.517,0,0,1,2.123-1.025,2.265,2.265,0,0,1,1.784.807V-10.5H90.1V0H88.313l-.1-.786a2.325,2.325,0,0,1-1.9.923,2.511,2.511,0,0,1-2.1-1.029A4.6,4.6,0,0,1,83.433-3.753Zm1.976.147a2.92,2.92,0,0,0,.362,1.6,1.18,1.18,0,0,0,1.053.555,1.322,1.322,0,0,0,1.292-.774V-5.153a1.3,1.3,0,0,0-1.278-.774Q85.408-5.927,85.408-3.606ZM95.033.137a3.631,3.631,0,0,1-2.649-1,3.548,3.548,0,0,1-1.022-2.659v-.191A4.468,4.468,0,0,1,91.793-5.7a3.161,3.161,0,0,1,1.22-1.354,3.425,3.425,0,0,1,1.8-.475,3.07,3.07,0,0,1,2.389.957,3.889,3.889,0,0,1,.872,2.714v.807h-4.71a1.835,1.835,0,0,0,.578,1.162,1.746,1.746,0,0,0,1.22.438,2.132,2.132,0,0,0,1.784-.827L97.918-1.2a2.966,2.966,0,0,1-1.2.981A3.947,3.947,0,0,1,95.033.137ZM94.808-5.94a1.234,1.234,0,0,0-.954.4,2.062,2.062,0,0,0-.468,1.14h2.748V-4.56a1.471,1.471,0,0,0-.355-1.02A1.274,1.274,0,0,0,94.808-5.94Zm7.567,2.174a4.387,4.387,0,0,1,.424-1.962,3.1,3.1,0,0,1,1.22-1.333,3.56,3.56,0,0,1,1.849-.472,3.368,3.368,0,0,1,2.444.916,3.676,3.676,0,0,1,1.056,2.488l.014.506a3.866,3.866,0,0,1-.95,2.731,3.3,3.3,0,0,1-2.55,1.029,3.319,3.319,0,0,1-2.553-1.025,3.934,3.934,0,0,1-.954-2.789Zm1.976.14a2.765,2.765,0,0,0,.4,1.612,1.308,1.308,0,0,0,1.135.558A1.311,1.311,0,0,0,107-2.007a3.025,3.025,0,0,0,.4-1.763,2.737,2.737,0,0,0-.4-1.6,1.311,1.311,0,0,0-1.135-.568,1.29,1.29,0,0,0-1.121.565A3.076,3.076,0,0,0,104.351-3.626Zm9.324,2.17a1.3,1.3,0,0,0,.889-.3,1.054,1.054,0,0,0,.355-.8h1.853a2.534,2.534,0,0,1-.41,1.377,2.706,2.706,0,0,1-1.1.971,3.455,3.455,0,0,1-1.548.345,3.211,3.211,0,0,1-2.5-1.008,3.99,3.99,0,0,1-.916-2.786v-.13a3.944,3.944,0,0,1,.909-2.728,3.174,3.174,0,0,1,2.5-1.019,3.111,3.111,0,0,1,2.225.79,2.8,2.8,0,0,1,.851,2.1h-1.853a1.358,1.358,0,0,0-.355-.938,1.185,1.185,0,0,0-.9-.361,1.19,1.19,0,0,0-1.042.5,2.916,2.916,0,0,0-.352,1.633V-3.6a2.953,2.953,0,0,0,.349,1.643A1.2,1.2,0,0,0,113.675-1.456Zm8.654.7a2.477,2.477,0,0,1-2.023.889,2.337,2.337,0,0,1-1.815-.684,2.918,2.918,0,0,1-.639-2V-7.4h1.976v4.784q0,1.157,1.053,1.157a1.426,1.426,0,0,0,1.381-.7V-7.4h1.982V0h-1.859Zm7.561-4.792a5.367,5.367,0,0,0-.711-.055,1.447,1.447,0,0,0-1.47.759V0h-1.976V-7.4H127.6l.055.882A1.831,1.831,0,0,1,129.3-7.533a2.07,2.07,0,0,1,.615.089Zm5.106,0a5.367,5.367,0,0,0-.711-.055,1.447,1.447,0,0,0-1.47.759V0H130.84V-7.4h1.866l.055.882a1.831,1.831,0,0,1,1.647-1.019,2.07,2.07,0,0,1,.615.089ZM139.221.137a3.631,3.631,0,0,1-2.649-1,3.548,3.548,0,0,1-1.022-2.659v-.191A4.468,4.468,0,0,1,135.98-5.7a3.161,3.161,0,0,1,1.22-1.354,3.425,3.425,0,0,1,1.8-.475,3.07,3.07,0,0,1,2.389.957,3.889,3.889,0,0,1,.872,2.714v.807h-4.71a1.835,1.835,0,0,0,.578,1.162,1.746,1.746,0,0,0,1.22.438,2.132,2.132,0,0,0,1.784-.827l.971,1.087a2.966,2.966,0,0,1-1.2.981A3.947,3.947,0,0,1,139.221.137ZM139-5.94a1.235,1.235,0,0,0-.954.4,2.062,2.062,0,0,0-.468,1.14h2.748V-4.56a1.471,1.471,0,0,0-.355-1.02A1.274,1.274,0,0,0,139-5.94ZM145.2-7.4l.062.854a2.582,2.582,0,0,1,2.126-.991,2.146,2.146,0,0,1,1.75.69,3.221,3.221,0,0,1,.588,2.064V0h-1.976V-4.73a1.282,1.282,0,0,0-.273-.913,1.224,1.224,0,0,0-.909-.284,1.359,1.359,0,0,0-1.251.711V0h-1.976V-7.4Zm9.1,5.94a1.3,1.3,0,0,0,.889-.3,1.054,1.054,0,0,0,.355-.8H157.4a2.534,2.534,0,0,1-.41,1.377,2.706,2.706,0,0,1-1.1.971,3.455,3.455,0,0,1-1.548.345,3.211,3.211,0,0,1-2.5-1.008,3.99,3.99,0,0,1-.916-2.786v-.13a3.944,3.944,0,0,1,.909-2.728,3.174,3.174,0,0,1,2.5-1.019,3.111,3.111,0,0,1,2.225.79,2.8,2.8,0,0,1,.851,2.1h-1.853a1.358,1.358,0,0,0-.355-.938,1.185,1.185,0,0,0-.9-.361,1.19,1.19,0,0,0-1.042.5,2.916,2.916,0,0,0-.352,1.633V-3.6a2.953,2.953,0,0,0,.349,1.643A1.2,1.2,0,0,0,154.3-1.456ZM160.61,0h-1.982V-7.4h1.982Zm-2.1-9.311a.973.973,0,0,1,.3-.731,1.117,1.117,0,0,1,.81-.287,1.12,1.12,0,0,1,.807.287.967.967,0,0,1,.3.731.97.97,0,0,1-.3.738,1.122,1.122,0,0,1-.8.287,1.122,1.122,0,0,1-.8-.287A.97.97,0,0,1,158.512-9.311ZM166.523,0a2.194,2.194,0,0,1-.2-.663,2.39,2.39,0,0,1-1.866.8,2.626,2.626,0,0,1-1.8-.629,2.023,2.023,0,0,1-.714-1.586,2.09,2.09,0,0,1,.872-1.8,4.3,4.3,0,0,1,2.519-.636h.909v-.424a1.219,1.219,0,0,0-.263-.82,1.035,1.035,0,0,0-.831-.308,1.177,1.177,0,0,0-.783.239.813.813,0,0,0-.284.656h-1.976a1.984,1.984,0,0,1,.4-1.189,2.621,2.621,0,0,1,1.121-.858,4.086,4.086,0,0,1,1.627-.311,3.228,3.228,0,0,1,2.17.687,2.4,2.4,0,0,1,.8,1.931v3.206a3.536,3.536,0,0,0,.294,1.593V0ZM164.89-1.374a1.7,1.7,0,0,0,.807-.195,1.28,1.28,0,0,0,.547-.523V-3.363H165.5q-1.483,0-1.579,1.025l-.007.116a.791.791,0,0,0,.26.608A1.009,1.009,0,0,0,164.89-1.374Z" transform="translate(-5128.667 699.98) rotate(-90)" fill="#12263f"/>
    <path id="Path_614354" data-name="Path 614354" d="M8.7-3.315A3.522,3.522,0,0,1,7.516-.786,4.165,4.165,0,0,1,4.7.137,3.745,3.745,0,0,1,1.685-1.152a5.284,5.284,0,0,1-1.1-3.538V-5.3a5.966,5.966,0,0,1,.506-2.529A3.791,3.791,0,0,1,2.54-9.505a4.05,4.05,0,0,1,2.184-.584A4.058,4.058,0,0,1,7.5-9.167,3.785,3.785,0,0,1,8.716-6.576H6.665a2.079,2.079,0,0,0-.537-1.4,1.987,1.987,0,0,0-1.4-.434,1.742,1.742,0,0,0-1.535.735,4.118,4.118,0,0,0-.523,2.28v.752a4.408,4.408,0,0,0,.489,2.358A1.71,1.71,0,0,0,4.7-1.538a2.025,2.025,0,0,0,1.418-.434,1.961,1.961,0,0,0,.537-1.343Zm.909-.451a4.387,4.387,0,0,1,.424-1.962,3.1,3.1,0,0,1,1.22-1.333A3.56,3.56,0,0,1,13.1-7.533a3.368,3.368,0,0,1,2.444.916A3.676,3.676,0,0,1,16.6-4.129l.014.506a3.866,3.866,0,0,1-.95,2.731A3.3,3.3,0,0,1,13.118.137,3.319,3.319,0,0,1,10.565-.889a3.934,3.934,0,0,1-.954-2.789Zm1.976.14a2.765,2.765,0,0,0,.4,1.612,1.308,1.308,0,0,0,1.135.558,1.311,1.311,0,0,0,1.121-.551,3.025,3.025,0,0,0,.4-1.763,2.737,2.737,0,0,0-.4-1.6A1.311,1.311,0,0,0,13.1-5.94a1.29,1.29,0,0,0-1.121.565A3.076,3.076,0,0,0,11.587-3.626ZM19.653-7.4l.062.854a2.582,2.582,0,0,1,2.126-.991,2.146,2.146,0,0,1,1.75.69,3.221,3.221,0,0,1,.588,2.064V0H22.2V-4.73a1.282,1.282,0,0,0-.273-.913,1.224,1.224,0,0,0-.909-.284,1.359,1.359,0,0,0-1.251.711V0H17.794V-7.4ZM29.682-2.044a.637.637,0,0,0-.359-.571,4.077,4.077,0,0,0-1.152-.373q-2.639-.554-2.639-2.242a2.032,2.032,0,0,1,.817-1.644,3.3,3.3,0,0,1,2.136-.66,3.547,3.547,0,0,1,2.252.663,2.09,2.09,0,0,1,.844,1.723H29.606a.956.956,0,0,0-.273-.7,1.157,1.157,0,0,0-.854-.277,1.182,1.182,0,0,0-.772.226.712.712,0,0,0-.273.574.609.609,0,0,0,.311.53,3.2,3.2,0,0,0,1.049.349,8.571,8.571,0,0,1,1.244.332A2.044,2.044,0,0,1,31.6-2.126a1.929,1.929,0,0,1-.868,1.637,3.745,3.745,0,0,1-2.242.625,3.912,3.912,0,0,1-1.651-.332A2.77,2.77,0,0,1,25.71-1.1a2.113,2.113,0,0,1-.41-1.248h1.873a1.031,1.031,0,0,0,.39.807,1.546,1.546,0,0,0,.971.28,1.43,1.43,0,0,0,.858-.215A.67.67,0,0,0,29.682-2.044Zm6.6,2.181a3.631,3.631,0,0,1-2.649-1,3.548,3.548,0,0,1-1.022-2.659v-.191A4.468,4.468,0,0,1,33.038-5.7a3.161,3.161,0,0,1,1.22-1.354,3.425,3.425,0,0,1,1.8-.475,3.07,3.07,0,0,1,2.389.957,3.889,3.889,0,0,1,.872,2.714v.807H34.61a1.835,1.835,0,0,0,.578,1.162,1.746,1.746,0,0,0,1.22.438,2.132,2.132,0,0,0,1.784-.827L39.163-1.2a2.966,2.966,0,0,1-1.2.981A3.947,3.947,0,0,1,36.278.137ZM36.053-5.94a1.234,1.234,0,0,0-.954.4,2.062,2.062,0,0,0-.468,1.14h2.748V-4.56a1.471,1.471,0,0,0-.355-1.02A1.274,1.274,0,0,0,36.053-5.94Zm7.465,4.484a1.3,1.3,0,0,0,.889-.3,1.054,1.054,0,0,0,.355-.8h1.853a2.534,2.534,0,0,1-.41,1.377,2.706,2.706,0,0,1-1.1.971,3.455,3.455,0,0,1-1.548.345,3.211,3.211,0,0,1-2.5-1.008,3.99,3.99,0,0,1-.916-2.786v-.13a3.944,3.944,0,0,1,.909-2.728,3.174,3.174,0,0,1,2.5-1.019,3.111,3.111,0,0,1,2.225.79,2.8,2.8,0,0,1,.851,2.1H44.762a1.358,1.358,0,0,0-.355-.938,1.185,1.185,0,0,0-.9-.361,1.19,1.19,0,0,0-1.042.5A2.916,2.916,0,0,0,42.109-3.8V-3.6a2.953,2.953,0,0,0,.349,1.643A1.2,1.2,0,0,0,43.518-1.456Zm8.654.7a2.477,2.477,0,0,1-2.023.889,2.337,2.337,0,0,1-1.815-.684,2.918,2.918,0,0,1-.639-2V-7.4H49.67v4.784q0,1.157,1.053,1.157a1.426,1.426,0,0,0,1.381-.7V-7.4h1.982V0H52.227ZM58.98.137a3.631,3.631,0,0,1-2.649-1A3.548,3.548,0,0,1,55.31-3.521v-.191A4.468,4.468,0,0,1,55.74-5.7a3.161,3.161,0,0,1,1.22-1.354,3.425,3.425,0,0,1,1.8-.475,3.07,3.07,0,0,1,2.389.957,3.889,3.889,0,0,1,.872,2.714v.807h-4.71a1.835,1.835,0,0,0,.578,1.162,1.746,1.746,0,0,0,1.22.438,2.132,2.132,0,0,0,1.784-.827L61.865-1.2a2.966,2.966,0,0,1-1.2.981A3.947,3.947,0,0,1,58.98.137ZM58.755-5.94a1.234,1.234,0,0,0-.954.4,2.062,2.062,0,0,0-.468,1.14h2.748V-4.56a1.471,1.471,0,0,0-.355-1.02A1.274,1.274,0,0,0,58.755-5.94ZM64.962-7.4l.062.854a2.582,2.582,0,0,1,2.126-.991,2.146,2.146,0,0,1,1.75.69,3.221,3.221,0,0,1,.588,2.064V0H67.512V-4.73a1.282,1.282,0,0,0-.273-.913,1.224,1.224,0,0,0-.909-.284,1.359,1.359,0,0,0-1.251.711V0H63.1V-7.4Zm9.1,5.94a1.3,1.3,0,0,0,.889-.3,1.054,1.054,0,0,0,.355-.8h1.853a2.534,2.534,0,0,1-.41,1.377,2.706,2.706,0,0,1-1.1.971,3.455,3.455,0,0,1-1.548.345,3.211,3.211,0,0,1-2.5-1.008,3.99,3.99,0,0,1-.916-2.786v-.13a3.944,3.944,0,0,1,.909-2.728,3.174,3.174,0,0,1,2.5-1.019,3.111,3.111,0,0,1,2.225.79,2.8,2.8,0,0,1,.851,2.1H75.3a1.358,1.358,0,0,0-.355-.938,1.185,1.185,0,0,0-.9-.361,1.19,1.19,0,0,0-1.042.5A2.916,2.916,0,0,0,72.652-3.8V-3.6A2.953,2.953,0,0,0,73-1.956,1.2,1.2,0,0,0,74.061-1.456ZM80.37,0H78.388V-7.4H80.37Zm-2.1-9.311a.973.973,0,0,1,.3-.731,1.117,1.117,0,0,1,.81-.287,1.12,1.12,0,0,1,.807.287.967.967,0,0,1,.3.731.97.97,0,0,1-.3.738,1.122,1.122,0,0,1-.8.287,1.122,1.122,0,0,1-.8-.287A.97.97,0,0,1,78.271-9.311ZM86.283,0a2.194,2.194,0,0,1-.2-.663,2.39,2.39,0,0,1-1.866.8,2.626,2.626,0,0,1-1.8-.629A2.023,2.023,0,0,1,81.7-2.078a2.09,2.09,0,0,1,.872-1.8,4.3,4.3,0,0,1,2.519-.636H86v-.424a1.219,1.219,0,0,0-.263-.82,1.035,1.035,0,0,0-.831-.308,1.177,1.177,0,0,0-.783.239.813.813,0,0,0-.284.656H81.867a1.985,1.985,0,0,1,.4-1.189,2.621,2.621,0,0,1,1.121-.858,4.086,4.086,0,0,1,1.627-.311,3.228,3.228,0,0,1,2.17.687,2.4,2.4,0,0,1,.8,1.931v3.206a3.536,3.536,0,0,0,.294,1.593V0ZM84.649-1.374a1.7,1.7,0,0,0,.807-.195A1.28,1.28,0,0,0,86-2.092V-3.363h-.738q-1.483,0-1.579,1.025l-.007.116a.791.791,0,0,0,.26.608A1.009,1.009,0,0,0,84.649-1.374Zm8.859-.67a.637.637,0,0,0-.359-.571A4.077,4.077,0,0,0,92-2.987q-2.639-.554-2.639-2.242a2.032,2.032,0,0,1,.817-1.644,3.3,3.3,0,0,1,2.136-.66,3.547,3.547,0,0,1,2.252.663,2.09,2.09,0,0,1,.844,1.723H93.434a.956.956,0,0,0-.273-.7,1.157,1.157,0,0,0-.854-.277,1.182,1.182,0,0,0-.772.226.712.712,0,0,0-.273.574.609.609,0,0,0,.311.53,3.2,3.2,0,0,0,1.049.349,8.571,8.571,0,0,1,1.244.332A2.044,2.044,0,0,1,95.43-2.126a1.929,1.929,0,0,1-.868,1.637,3.745,3.745,0,0,1-2.242.625,3.912,3.912,0,0,1-1.651-.332A2.77,2.77,0,0,1,89.537-1.1a2.113,2.113,0,0,1-.41-1.248H91a1.031,1.031,0,0,0,.39.807,1.546,1.546,0,0,0,.971.28,1.43,1.43,0,0,0,.858-.215A.67.67,0,0,0,93.509-2.044Z" transform="translate(-4927.334 776.647)" fill="#12263f"/>
    <g id="Group_1076564" data-name="Group 1076564" transform="translate(-5131.202 502.963)">
      <g id="Group_1076565" data-name="Group 1076565" transform="translate(21.736 198.105) rotate(90)">
        <path id="Path_213857" data-name="Path 213857" d="M2.754,0,0,2.753l8.114,8.115L0,18.983l2.754,2.753L13.622,10.868Z" transform="translate(6.779 0)" fill="#18b8c4"/>
        <path id="Path_213858" data-name="Path 213858" d="M0,2.753,4.265,7.018,0,11.283l2.753,2.753L9.773,7.018,2.753,0Z" transform="translate(0 3.85)" fill="#18b8c4"/>
      </g>
      <g id="Group_1076566" data-name="Group 1076566" transform="translate(0 20.4) rotate(-90)">
        <path id="Path_213857-2" data-name="Path 213857" d="M2.754,0,0,2.753l8.114,8.115L0,18.983l2.754,2.753L13.622,10.868Z" transform="translate(6.779 0)" fill="#18b8c4"/>
        <path id="Path_213858-2" data-name="Path 213858" d="M0,2.753,4.265,7.018,0,11.283l2.753,2.753L9.773,7.018,2.753,0Z" transform="translate(0 3.85)" fill="#18b8c4"/>
      </g>
      <path id="Path_613144" data-name="Path 613144" d="M600,17627.324v-188.59" transform="translate(-589.132 -17422.816)" fill="none" stroke="#18b8c4" stroke-width="3"/>
    </g>
    <g id="Group_1076565-2" data-name="Group 1076565" transform="translate(-17831.549 1591.147) rotate(-90)">
      <g id="Group_1076565-3" data-name="Group 1076565" transform="translate(853.236 13062.481) rotate(90)">
        <path id="Path_213857-3" data-name="Path 213857" d="M2.754,0,0,2.753l8.114,8.115L0,18.983l2.754,2.753L13.622,10.868Z" transform="translate(6.779 0)" fill="#18b8c4"/>
        <path id="Path_213858-3" data-name="Path 213858" d="M0,2.753,4.265,7.018,0,11.283l2.753,2.753L9.773,7.018,2.753,0Z" transform="translate(0 3.85)" fill="#18b8c4"/>
      </g>
      <g id="Group_1076566-2" data-name="Group 1076566" transform="translate(831.5 12832.395) rotate(-90)">
        <path id="Path_213857-4" data-name="Path 213857" d="M2.754,0,0,2.753l8.114,8.115L0,18.983l2.754,2.753L13.622,10.868Z" transform="translate(6.779 0)" fill="#18b8c4"/>
        <path id="Path_213858-4" data-name="Path 213858" d="M0,2.753,4.265,7.018,0,11.283l2.753,2.753L9.773,7.018,2.753,0Z" transform="translate(0 3.85)" fill="#18b8c4"/>
      </g>
      <path id="Path_613144-2" data-name="Path 613144" d="M600,17679.705v-240.969" transform="translate(242.368 -4610.824)" fill="none" stroke="#18b8c4" stroke-width="3"/>
    </g>
    <g id="Group_1076568" data-name="Group 1076568" transform="translate(-5999.849 -12324.789)">
      <text id="Casi_cierto" data-name="Casi cierto" transform="translate(991.334 12848.953)" fill="#12263f" font-size="14" font-family="Roboto-Bold, Roboto" font-weight="700"><tspan x="-67.532" y="0">Casi cierto</tspan></text>
      <text id="Probable" transform="translate(991.334 12892.257)" fill="#12263f" font-size="14" font-family="Roboto-Bold, Roboto" font-weight="700"><tspan x="-56.355" y="0">Probable</tspan></text>
      <text id="Moderado" transform="translate(991.334 12935.562)" fill="#12263f" font-size="14" font-family="Roboto-Bold, Roboto" font-weight="700"><tspan x="-63.848" y="0">Moderado</tspan></text>
      <text id="Poco_probable" data-name="Poco probable" transform="translate(991.334 12977.903)" fill="#12263f" font-size="14" font-family="Roboto-Bold, Roboto" font-weight="700"><tspan x="-90.768" y="0">Poco probable</tspan></text>
      <text id="Casi_improbable" data-name="Casi improbable" transform="translate(889.334 13021.814)" fill="#12263f" font-size="14" font-family="Roboto-Bold, Roboto" font-weight="700"><tspan x="0" y="0">Casi improbable</tspan></text>
    </g>
    <g id="Group_1076569" data-name="Group 1076569" transform="translate(-6127.334 -12308.031)">
      <text id="Extremo" transform="translate(1116.334 13035)" fill="#12263f" font-size="14" font-family="Roboto-Bold, Roboto" font-weight="700"><tspan x="0" y="0">Extremo</tspan></text>
      <text id="Muy_alto" data-name="Muy alto" transform="translate(1179.334 13035)" fill="#12263f" font-size="14" font-family="Roboto-Bold, Roboto" font-weight="700"><tspan x="0" y="0">Muy alto</tspan></text>
      <text id="Medio" transform="translate(1243.334 13035)" fill="#12263f" font-size="14" font-family="Roboto-Bold, Roboto" font-weight="700"><tspan x="0" y="0">Medio</tspan></text>
      <text id="Bajo" transform="translate(1292.334 13035)" fill="#12263f" font-size="14" font-family="Roboto-Bold, Roboto" font-weight="700"><tspan x="0" y="0">Bajo</tspan></text>
      <text id="Mínimo" transform="translate(1330.334 13035)" fill="#12263f" font-size="14" font-family="Roboto-Bold, Roboto" font-weight="700"><tspan x="0" y="0">Mínimo</tspan></text>
    </g>
    <g id="Group_1077081" data-name="Group 1077081" transform="translate(-6089.181 -12302.623)">
      <g id="Group_1076567" data-name="Group 1076567" transform="translate(1083.667 12818.557)">
        <rect id="Rectangle_380635" data-name="Rectangle 380635" width="51.798" height="51.798" fill="#eba325"/>
        <rect id="Rectangle_380636" data-name="Rectangle 380636" width="51.798" height="51.798" transform="translate(51.108)" fill="#eba325"/>
        <rect id="Rectangle_380637" data-name="Rectangle 380637" width="51.798" height="26.244" transform="translate(102.906 25.553)" fill="#fef5e5"/>
        <rect id="Rectangle_380638" data-name="Rectangle 380638" width="51.798" height="26.244" transform="translate(152.632 25.553)" fill="#fef5e5"/>
        <rect id="Rectangle_380639" data-name="Rectangle 380639" width="51.798" height="26.244" transform="translate(152.632 51.108)" fill="#e1fbff"/>
        <rect id="Rectangle_380640" data-name="Rectangle 380640" width="51.798" height="26.244" transform="translate(152.632 102.906)" fill="#0c5e46"/>
        <rect id="Rectangle_380641" data-name="Rectangle 380641" width="51.798" height="26.244" transform="translate(101.525 51.108)" fill="#fef5e5"/>
        <rect id="Rectangle_380642" data-name="Rectangle 380642" width="51.798" height="26.244" transform="translate(101.525 77.353)" fill="#fef5e5"/>
        <rect id="Rectangle_380643" data-name="Rectangle 380643" width="51.798" height="26.244" transform="translate(101.525)" fill="#eba325"/>
        <rect id="Rectangle_380644" data-name="Rectangle 380644" width="51.798" height="26.244" transform="translate(152.632)" fill="#fef5e5"/>
        <rect id="Rectangle_380645" data-name="Rectangle 380645" width="51.798" height="26.244" transform="translate(203.049)" fill="#fef5e5"/>
        <rect id="Rectangle_380646" data-name="Rectangle 380646" width="51.798" height="26.244" transform="translate(203.049 24.863)" fill="#e1fbff"/>
        <rect id="Rectangle_380647" data-name="Rectangle 380647" width="51.798" height="26.244" transform="translate(203.049 51.108)" fill="#e1fbff"/>
        <rect id="Rectangle_380648" data-name="Rectangle 380648" width="51.798" height="26.244" transform="translate(203.049 76.661)" fill="#0c5e46"/>
        <rect id="Rectangle_380649" data-name="Rectangle 380649" width="51.798" height="26.244" transform="translate(152.632 76.661)" fill="#e1fbff"/>
        <rect id="Rectangle_380650" data-name="Rectangle 380650" width="51.798" height="26.244" transform="translate(152.632 128.459)" fill="#0c5e46"/>
        <rect id="Rectangle_380651" data-name="Rectangle 380651" width="51.798" height="30.388" transform="translate(0 154.704)" fill="#fef5e5"/>
        <rect id="Rectangle_380652" data-name="Rectangle 380652" width="51.798" height="30.388" transform="translate(152.632 154.704)" fill="#0c5e46"/>
        <rect id="Rectangle_380653" data-name="Rectangle 380653" width="51.798" height="30.388" transform="translate(51.108 154.704)" fill="#fef5e5"/>
        <rect id="Rectangle_380654" data-name="Rectangle 380654" width="51.798" height="30.388" transform="translate(101.525 154.704)" fill="#e1fbff"/>
        <rect id="Rectangle_380655" data-name="Rectangle 380655" width="51.798" height="30.388" transform="translate(203.049 154.704)" fill="#0c5e46"/>
        <rect id="Rectangle_380656" data-name="Rectangle 380656" width="51.798" height="51.798" transform="translate(51.108 51.108)" fill="#eba325"/>
        <rect id="Rectangle_380657" data-name="Rectangle 380657" width="51.798" height="51.798" transform="translate(51.108 102.906)" fill="#fef5e5"/>
        <rect id="Rectangle_380658" data-name="Rectangle 380658" width="51.798" height="51.798" transform="translate(101.525 102.906)" fill="#e1fbff"/>
        <rect id="Rectangle_380659" data-name="Rectangle 380659" width="51.798" height="51.798" transform="translate(203.049 102.906)" fill="#0c5e46"/>
        <rect id="Rectangle_380660" data-name="Rectangle 380660" width="51.798" height="51.798" transform="translate(0 51.108)" fill="#eba325"/>
        <rect id="Rectangle_380661" data-name="Rectangle 380661" width="51.798" height="51.798" transform="translate(0 102.906)" fill="#eba325"/>
      </g>
    </g>
    <path id="Path_614355" data-name="Path 614355" d="M29.271,10H27.807L24.955,5.322V10H23.49V2.891h1.465l2.856,4.688V2.891h1.46Zm2.676,0H30.531V4.717h1.416Zm-1.5-6.65a.7.7,0,0,1,.212-.522.915.915,0,0,1,1.155,0,.691.691,0,0,1,.215.522.693.693,0,0,1-.217.527.905.905,0,0,1-1.147,0A.693.693,0,0,1,30.448,3.35Zm4.639,4.927.981-3.56h1.475L35.761,10H34.413L32.631,4.717h1.475ZM40.531,10.1a2.594,2.594,0,0,1-1.892-.713,2.534,2.534,0,0,1-.73-1.9V7.349a3.192,3.192,0,0,1,.308-1.423,2.258,2.258,0,0,1,.872-.967,2.446,2.446,0,0,1,1.287-.339,2.193,2.193,0,0,1,1.707.684A2.778,2.778,0,0,1,42.7,7.241v.576H39.34a1.311,1.311,0,0,0,.413.83,1.247,1.247,0,0,0,.872.313A1.523,1.523,0,0,0,41.9,8.369l.693.776a2.118,2.118,0,0,1-.859.7A2.819,2.819,0,0,1,40.531,10.1ZM40.37,5.757a.882.882,0,0,0-.681.284,1.473,1.473,0,0,0-.334.814h1.963V6.743a1.051,1.051,0,0,0-.254-.728A.91.91,0,0,0,40.37,5.757ZM44.994,10H43.578V2.5h1.416Zm3.433-2.681a3.184,3.184,0,0,1,.554-1.968A1.8,1.8,0,0,1,50.5,4.619a1.618,1.618,0,0,1,1.274.576V2.5h1.416V10H51.913l-.068-.562a1.661,1.661,0,0,1-1.357.659,1.793,1.793,0,0,1-1.5-.735A3.286,3.286,0,0,1,48.427,7.319Zm1.411.105A2.086,2.086,0,0,0,50.1,8.564a.843.843,0,0,0,.752.4.944.944,0,0,0,.923-.553V6.319a.931.931,0,0,0-.913-.553Q49.838,5.767,49.838,7.424ZM56.713,10.1a2.594,2.594,0,0,1-1.892-.713,2.534,2.534,0,0,1-.73-1.9V7.349A3.192,3.192,0,0,1,54.4,5.925a2.258,2.258,0,0,1,.872-.967,2.446,2.446,0,0,1,1.287-.339,2.193,2.193,0,0,1,1.707.684,2.778,2.778,0,0,1,.623,1.938v.576H55.521a1.311,1.311,0,0,0,.413.83,1.247,1.247,0,0,0,.872.313,1.523,1.523,0,0,0,1.274-.591l.693.776a2.118,2.118,0,0,1-.859.7A2.819,2.819,0,0,1,56.713,10.1Zm-.161-4.341a.882.882,0,0,0-.681.284,1.473,1.473,0,0,0-.334.814H57.5V6.743a1.051,1.051,0,0,0-.254-.728A.91.91,0,0,0,56.552,5.757ZM20.712,15.04A3.834,3.834,0,0,0,20.2,15a1.034,1.034,0,0,0-1.05.542V19H17.743V13.717h1.333l.039.63a1.308,1.308,0,0,1,1.177-.728,1.479,1.479,0,0,1,.439.063ZM22.88,19H21.464V13.717H22.88Zm-1.5-6.65a.7.7,0,0,1,.212-.522.915.915,0,0,1,1.155,0,.746.746,0,0,1,0,1.05.905.905,0,0,1-1.147,0A.693.693,0,0,1,21.381,12.35ZM26.474,19.1a2.594,2.594,0,0,1-1.892-.713,2.534,2.534,0,0,1-.73-1.9v-.137a3.192,3.192,0,0,1,.308-1.423,2.258,2.258,0,0,1,.872-.967,2.446,2.446,0,0,1,1.287-.339,2.193,2.193,0,0,1,1.707.684,2.778,2.778,0,0,1,.623,1.938v.576H25.282a1.311,1.311,0,0,0,.413.83,1.247,1.247,0,0,0,.872.313,1.523,1.523,0,0,0,1.274-.591l.693.776a2.118,2.118,0,0,1-.859.7A2.819,2.819,0,0,1,26.474,19.1Zm-.161-4.341a.882.882,0,0,0-.681.284,1.473,1.473,0,0,0-.334.814H27.26v-.113a1.051,1.051,0,0,0-.254-.728A.91.91,0,0,0,26.313,14.757Zm6,2.783a.455.455,0,0,0-.256-.408,2.912,2.912,0,0,0-.823-.266q-1.885-.4-1.885-1.6a1.452,1.452,0,0,1,.583-1.174,2.354,2.354,0,0,1,1.526-.471,2.533,2.533,0,0,1,1.609.474,1.493,1.493,0,0,1,.6,1.23H32.255a.683.683,0,0,0-.2-.5.827.827,0,0,0-.61-.2.845.845,0,0,0-.552.161.509.509,0,0,0-.2.41.435.435,0,0,0,.222.378,2.286,2.286,0,0,0,.75.249,6.122,6.122,0,0,1,.889.237,1.46,1.46,0,0,1,1.118,1.421,1.378,1.378,0,0,1-.62,1.169,2.675,2.675,0,0,1-1.6.447,2.794,2.794,0,0,1-1.179-.237,1.979,1.979,0,0,1-.808-.649,1.509,1.509,0,0,1-.293-.891h1.338a.737.737,0,0,0,.278.576,1.1,1.1,0,0,0,.693.2,1.022,1.022,0,0,0,.613-.154A.479.479,0,0,0,32.309,17.54Zm2.075-1.221a3.1,3.1,0,0,1,.579-1.958,1.875,1.875,0,0,1,1.56-.742,1.644,1.644,0,0,1,1.353.6l.059-.5h1.279v5.107A2.258,2.258,0,0,1,38.9,20.03a2.023,2.023,0,0,1-.886.781,3.115,3.115,0,0,1-1.338.269,2.9,2.9,0,0,1-1.133-.232,2.011,2.011,0,0,1-.835-.6l.625-.859a1.653,1.653,0,0,0,1.279.591,1.21,1.21,0,0,0,.874-.3,1.126,1.126,0,0,0,.313-.852v-.283a1.632,1.632,0,0,1-1.284.552,1.87,1.87,0,0,1-1.541-.745,3.1,3.1,0,0,1-.588-1.975Zm1.411.105a1.928,1.928,0,0,0,.288,1.127.916.916,0,0,0,.791.408.98.98,0,0,0,.923-.484V15.251a.978.978,0,0,0-.913-.484.922.922,0,0,0-.8.416A2.173,2.173,0,0,0,35.795,16.424Zm4.282-.115a3.133,3.133,0,0,1,.3-1.4,2.216,2.216,0,0,1,.872-.952,2.543,2.543,0,0,1,1.321-.337,2.406,2.406,0,0,1,1.746.654,2.626,2.626,0,0,1,.754,1.777l.01.361a2.761,2.761,0,0,1-.679,1.951,2.631,2.631,0,0,1-3.645,0,2.81,2.81,0,0,1-.681-1.992Zm1.411.1a1.975,1.975,0,0,0,.283,1.152,1.017,1.017,0,0,0,1.611,0,2.161,2.161,0,0,0,.288-1.259,1.955,1.955,0,0,0-.288-1.144.936.936,0,0,0-.811-.406.921.921,0,0,0-.8.4A2.2,2.2,0,0,0,41.488,16.41ZM51.5,19a1.567,1.567,0,0,1-.142-.474,1.707,1.707,0,0,1-1.333.571,1.876,1.876,0,0,1-1.287-.449,1.445,1.445,0,0,1-.51-1.133,1.493,1.493,0,0,1,.623-1.289,3.072,3.072,0,0,1,1.8-.454H51.3v-.3a.871.871,0,0,0-.188-.586.74.74,0,0,0-.593-.22.841.841,0,0,0-.559.171.581.581,0,0,0-.2.469H48.349a1.418,1.418,0,0,1,.283-.85,1.872,1.872,0,0,1,.8-.613,2.918,2.918,0,0,1,1.162-.222,2.306,2.306,0,0,1,1.55.491,1.717,1.717,0,0,1,.574,1.379v2.29a2.526,2.526,0,0,0,.21,1.138V19Zm-1.167-.981a1.215,1.215,0,0,0,.576-.139.914.914,0,0,0,.391-.374V16.6h-.527q-1.06,0-1.128.732l0,.083a.565.565,0,0,0,.186.435A.721.721,0,0,0,50.336,18.019ZM55.292,19H53.876V11.5h1.416Zm2.852-6.582v1.3h.9v1.035h-.9v2.637a.63.63,0,0,0,.112.42.564.564,0,0,0,.43.127A2.25,2.25,0,0,0,59.1,17.9v1.069a2.905,2.905,0,0,1-.854.127,1.347,1.347,0,0,1-1.514-1.5V14.752h-.771V13.717h.771v-1.3Zm1.323,3.892a3.133,3.133,0,0,1,.3-1.4,2.216,2.216,0,0,1,.872-.952,2.543,2.543,0,0,1,1.321-.337,2.406,2.406,0,0,1,1.746.654,2.626,2.626,0,0,1,.754,1.777l.01.361a2.761,2.761,0,0,1-.679,1.951,2.631,2.631,0,0,1-3.645,0,2.81,2.81,0,0,1-.681-1.992Zm1.411.1a1.975,1.975,0,0,0,.283,1.152,1.017,1.017,0,0,0,1.611,0,2.161,2.161,0,0,0,.288-1.259,1.955,1.955,0,0,0-.288-1.144.936.936,0,0,0-.811-.406.921.921,0,0,0-.8.4A2.2,2.2,0,0,0,60.878,16.41Z" transform="translate(-4994.83 559)" fill="#12263f"/>
    <path id="Path_614356" data-name="Path 614356" d="M29.271,10H27.807L24.955,5.322V10H23.49V2.891h1.465l2.856,4.688V2.891h1.46Zm2.676,0H30.531V4.717h1.416Zm-1.5-6.65a.7.7,0,0,1,.212-.522.915.915,0,0,1,1.155,0,.691.691,0,0,1,.215.522.693.693,0,0,1-.217.527.905.905,0,0,1-1.147,0A.693.693,0,0,1,30.448,3.35Zm4.639,4.927.981-3.56h1.475L35.761,10H34.413L32.631,4.717h1.475ZM40.531,10.1a2.594,2.594,0,0,1-1.892-.713,2.534,2.534,0,0,1-.73-1.9V7.349a3.192,3.192,0,0,1,.308-1.423,2.258,2.258,0,0,1,.872-.967,2.446,2.446,0,0,1,1.287-.339,2.193,2.193,0,0,1,1.707.684A2.778,2.778,0,0,1,42.7,7.241v.576H39.34a1.311,1.311,0,0,0,.413.83,1.247,1.247,0,0,0,.872.313A1.523,1.523,0,0,0,41.9,8.369l.693.776a2.118,2.118,0,0,1-.859.7A2.819,2.819,0,0,1,40.531,10.1ZM40.37,5.757a.882.882,0,0,0-.681.284,1.473,1.473,0,0,0-.334.814h1.963V6.743a1.051,1.051,0,0,0-.254-.728A.91.91,0,0,0,40.37,5.757ZM44.994,10H43.578V2.5h1.416Zm3.433-2.681a3.184,3.184,0,0,1,.554-1.968A1.8,1.8,0,0,1,50.5,4.619a1.618,1.618,0,0,1,1.274.576V2.5h1.416V10H51.913l-.068-.562a1.661,1.661,0,0,1-1.357.659,1.793,1.793,0,0,1-1.5-.735A3.286,3.286,0,0,1,48.427,7.319Zm1.411.105A2.086,2.086,0,0,0,50.1,8.564a.843.843,0,0,0,.752.4.944.944,0,0,0,.923-.553V6.319a.931.931,0,0,0-.913-.553Q49.838,5.767,49.838,7.424ZM56.713,10.1a2.594,2.594,0,0,1-1.892-.713,2.534,2.534,0,0,1-.73-1.9V7.349A3.192,3.192,0,0,1,54.4,5.925a2.258,2.258,0,0,1,.872-.967,2.446,2.446,0,0,1,1.287-.339,2.193,2.193,0,0,1,1.707.684,2.778,2.778,0,0,1,.623,1.938v.576H55.521a1.311,1.311,0,0,0,.413.83,1.247,1.247,0,0,0,.872.313,1.523,1.523,0,0,0,1.274-.591l.693.776a2.118,2.118,0,0,1-.859.7A2.819,2.819,0,0,1,56.713,10.1Zm-.161-4.341a.882.882,0,0,0-.681.284,1.473,1.473,0,0,0-.334.814H57.5V6.743a1.051,1.051,0,0,0-.254-.728A.91.91,0,0,0,56.552,5.757ZM19.54,15.04A3.834,3.834,0,0,0,19.032,15a1.034,1.034,0,0,0-1.05.542V19H16.571V13.717H17.9l.039.63a1.308,1.308,0,0,1,1.177-.728,1.479,1.479,0,0,1,.439.063ZM21.708,19H20.292V13.717h1.416Zm-1.5-6.65a.7.7,0,0,1,.212-.522.915.915,0,0,1,1.155,0,.746.746,0,0,1,0,1.05.905.905,0,0,1-1.147,0A.693.693,0,0,1,20.209,12.35ZM25.3,19.1a2.594,2.594,0,0,1-1.892-.713,2.534,2.534,0,0,1-.73-1.9v-.137a3.192,3.192,0,0,1,.308-1.423,2.258,2.258,0,0,1,.872-.967,2.446,2.446,0,0,1,1.287-.339,2.193,2.193,0,0,1,1.707.684,2.778,2.778,0,0,1,.623,1.938v.576H24.11a1.311,1.311,0,0,0,.413.83,1.247,1.247,0,0,0,.872.313,1.523,1.523,0,0,0,1.274-.591l.693.776a2.118,2.118,0,0,1-.859.7A2.819,2.819,0,0,1,25.3,19.1Zm-.161-4.341a.882.882,0,0,0-.681.284,1.473,1.473,0,0,0-.334.814h1.963v-.113a1.051,1.051,0,0,0-.254-.728A.91.91,0,0,0,25.141,14.757Zm6,2.783a.455.455,0,0,0-.256-.408,2.912,2.912,0,0,0-.823-.266q-1.885-.4-1.885-1.6a1.452,1.452,0,0,1,.583-1.174,2.354,2.354,0,0,1,1.526-.471,2.533,2.533,0,0,1,1.609.474,1.493,1.493,0,0,1,.6,1.23H31.083a.683.683,0,0,0-.2-.5.827.827,0,0,0-.61-.2.845.845,0,0,0-.552.161.509.509,0,0,0-.2.41.435.435,0,0,0,.222.378,2.286,2.286,0,0,0,.75.249,6.122,6.122,0,0,1,.889.237,1.46,1.46,0,0,1,1.118,1.421,1.378,1.378,0,0,1-.62,1.169,2.675,2.675,0,0,1-1.6.447,2.794,2.794,0,0,1-1.179-.237,1.979,1.979,0,0,1-.808-.649,1.509,1.509,0,0,1-.293-.891h1.338a.737.737,0,0,0,.278.576,1.1,1.1,0,0,0,.693.2,1.022,1.022,0,0,0,.613-.154A.479.479,0,0,0,31.137,17.54Zm2.075-1.221a3.1,3.1,0,0,1,.579-1.958,1.875,1.875,0,0,1,1.56-.742,1.644,1.644,0,0,1,1.353.6l.059-.5h1.279v5.107a2.258,2.258,0,0,1-.315,1.206,2.023,2.023,0,0,1-.886.781,3.115,3.115,0,0,1-1.338.269,2.9,2.9,0,0,1-1.133-.232,2.011,2.011,0,0,1-.835-.6l.625-.859a1.653,1.653,0,0,0,1.279.591,1.21,1.21,0,0,0,.874-.3,1.126,1.126,0,0,0,.313-.852v-.283a1.632,1.632,0,0,1-1.284.552,1.87,1.87,0,0,1-1.541-.745,3.1,3.1,0,0,1-.588-1.975Zm1.411.105a1.928,1.928,0,0,0,.288,1.127.916.916,0,0,0,.791.408.98.98,0,0,0,.923-.484V15.251a.978.978,0,0,0-.913-.484.922.922,0,0,0-.8.416A2.173,2.173,0,0,0,34.623,16.424Zm4.282-.115a3.133,3.133,0,0,1,.3-1.4,2.216,2.216,0,0,1,.872-.952,2.543,2.543,0,0,1,1.321-.337,2.406,2.406,0,0,1,1.746.654,2.626,2.626,0,0,1,.754,1.777l.01.361a2.761,2.761,0,0,1-.679,1.951,2.631,2.631,0,0,1-3.645,0,2.81,2.81,0,0,1-.681-1.992Zm1.411.1a1.975,1.975,0,0,0,.283,1.152,1.017,1.017,0,0,0,1.611,0,2.161,2.161,0,0,0,.288-1.259,1.955,1.955,0,0,0-.288-1.144.936.936,0,0,0-.811-.406.921.921,0,0,0-.8.4A2.2,2.2,0,0,0,40.316,16.41Zm11.714,0a3.2,3.2,0,0,1-.542,1.98,1.8,1.8,0,0,1-1.514.71,1.649,1.649,0,0,1-1.372-.659L48.539,19H47.27V11.5h1.411v2.69a1.607,1.607,0,0,1,1.284-.571,1.81,1.81,0,0,1,1.516.71,3.2,3.2,0,0,1,.549,2Zm-1.411-.1a2.1,2.1,0,0,0-.254-1.169.859.859,0,0,0-.757-.369.931.931,0,0,0-.928.552V17.4a.943.943,0,0,0,.938.557.871.871,0,0,0,.9-.674A3.476,3.476,0,0,0,50.619,16.3ZM55.961,19a1.567,1.567,0,0,1-.142-.474,1.707,1.707,0,0,1-1.333.571,1.876,1.876,0,0,1-1.287-.449,1.445,1.445,0,0,1-.51-1.133,1.493,1.493,0,0,1,.623-1.289,3.072,3.072,0,0,1,1.8-.454h.649v-.3a.871.871,0,0,0-.188-.586.74.74,0,0,0-.593-.22.841.841,0,0,0-.559.171.581.581,0,0,0-.2.469H52.807a1.418,1.418,0,0,1,.283-.85,1.872,1.872,0,0,1,.8-.613,2.918,2.918,0,0,1,1.162-.222,2.306,2.306,0,0,1,1.55.491,1.717,1.717,0,0,1,.574,1.379v2.29a2.526,2.526,0,0,0,.21,1.138V19Zm-1.167-.981a1.215,1.215,0,0,0,.576-.139.914.914,0,0,0,.391-.374V16.6h-.527q-1.06,0-1.128.732l0,.083a.565.565,0,0,0,.186.435A.721.721,0,0,0,54.794,18.019Zm4.961-4.3v5.571a1.89,1.89,0,0,1-.464,1.36,1.763,1.763,0,0,1-1.338.486,2.869,2.869,0,0,1-.7-.083V19.933a2.649,2.649,0,0,0,.444.044q.64,0,.64-.679V13.717ZM58.227,12.35a.7.7,0,0,1,.212-.522.919.919,0,0,1,1.157,0,.749.749,0,0,1,0,1.05.905.905,0,0,1-1.147,0A.693.693,0,0,1,58.227,12.35Zm2.412,3.96a3.133,3.133,0,0,1,.3-1.4,2.216,2.216,0,0,1,.872-.952,2.543,2.543,0,0,1,1.321-.337,2.406,2.406,0,0,1,1.746.654,2.626,2.626,0,0,1,.754,1.777l.01.361a2.761,2.761,0,0,1-.679,1.951,2.631,2.631,0,0,1-3.645,0,2.81,2.81,0,0,1-.681-1.992Zm1.411.1a1.975,1.975,0,0,0,.283,1.152,1.017,1.017,0,0,0,1.611,0,2.161,2.161,0,0,0,.288-1.259,1.955,1.955,0,0,0-.288-1.144.936.936,0,0,0-.811-.406.921.921,0,0,0-.8.4A2.2,2.2,0,0,0,62.05,16.41Z" transform="translate(-4838.83 648.003)" fill="#fff"/>
    <path id="Path_614357" data-name="Path 614357" d="M5,2.891,6.822,8.047,8.639,2.891h1.924V10H9.093V8.057L9.239,4.7,7.32,10H6.314L4.4,4.707l.146,3.35V10H3.082V2.891ZM14.181,10.1a2.594,2.594,0,0,1-1.892-.713,2.534,2.534,0,0,1-.73-1.9V7.349a3.192,3.192,0,0,1,.308-1.423,2.258,2.258,0,0,1,.872-.967,2.446,2.446,0,0,1,1.287-.339,2.193,2.193,0,0,1,1.707.684,2.778,2.778,0,0,1,.623,1.938v.576H12.989a1.311,1.311,0,0,0,.413.83,1.247,1.247,0,0,0,.872.313,1.523,1.523,0,0,0,1.274-.591l.693.776a2.118,2.118,0,0,1-.859.7A2.819,2.819,0,0,1,14.181,10.1ZM14.02,5.757a.882.882,0,0,0-.681.284A1.473,1.473,0,0,0,13,6.855h1.963V6.743a1.051,1.051,0,0,0-.254-.728A.91.91,0,0,0,14.02,5.757Zm2.915,1.563a3.184,3.184,0,0,1,.554-1.968A1.8,1.8,0,0,1,19,4.619a1.618,1.618,0,0,1,1.274.576V2.5H21.7V10H20.421l-.068-.562A1.661,1.661,0,0,1,19,10.1a1.793,1.793,0,0,1-1.5-.735A3.286,3.286,0,0,1,16.935,7.319Zm1.411.105A2.086,2.086,0,0,0,18.6,8.564a.843.843,0,0,0,.752.4.944.944,0,0,0,.923-.553V6.319a.931.931,0,0,0-.913-.553Q18.346,5.767,18.346,7.424ZM24.278,10H22.862V4.717h1.416Zm-1.5-6.65a.7.7,0,0,1,.212-.522.915.915,0,0,1,1.155,0,.691.691,0,0,1,.215.522.693.693,0,0,1-.217.527.905.905,0,0,1-1.147,0A.693.693,0,0,1,22.779,3.35Zm2.441,3.96a3.133,3.133,0,0,1,.3-1.4,2.216,2.216,0,0,1,.872-.952,2.543,2.543,0,0,1,1.321-.337,2.406,2.406,0,0,1,1.746.654,2.626,2.626,0,0,1,.754,1.777l.01.361a2.761,2.761,0,0,1-.679,1.951,2.631,2.631,0,0,1-3.645,0,2.81,2.81,0,0,1-.681-1.992Zm1.411.1a1.975,1.975,0,0,0,.283,1.152,1.017,1.017,0,0,0,1.611,0,2.161,2.161,0,0,0,.288-1.259,1.955,1.955,0,0,0-.288-1.144.936.936,0,0,0-.811-.406.921.921,0,0,0-.8.4A2.2,2.2,0,0,0,26.632,7.41Z" transform="translate(-4891.83 657.003)" fill="#12263f"/>
    <path id="Path_614358" data-name="Path 614358" d="M5,2.891,6.822,8.047,8.639,2.891h1.924V10H9.093V8.057L9.239,4.7,7.32,10H6.314L4.4,4.707l.146,3.35V10H3.082V2.891ZM14.181,10.1a2.594,2.594,0,0,1-1.892-.713,2.534,2.534,0,0,1-.73-1.9V7.349a3.192,3.192,0,0,1,.308-1.423,2.258,2.258,0,0,1,.872-.967,2.446,2.446,0,0,1,1.287-.339,2.193,2.193,0,0,1,1.707.684,2.778,2.778,0,0,1,.623,1.938v.576H12.989a1.311,1.311,0,0,0,.413.83,1.247,1.247,0,0,0,.872.313,1.523,1.523,0,0,0,1.274-.591l.693.776a2.118,2.118,0,0,1-.859.7A2.819,2.819,0,0,1,14.181,10.1ZM14.02,5.757a.882.882,0,0,0-.681.284A1.473,1.473,0,0,0,13,6.855h1.963V6.743a1.051,1.051,0,0,0-.254-.728A.91.91,0,0,0,14.02,5.757Zm2.915,1.563a3.184,3.184,0,0,1,.554-1.968A1.8,1.8,0,0,1,19,4.619a1.618,1.618,0,0,1,1.274.576V2.5H21.7V10H20.421l-.068-.562A1.661,1.661,0,0,1,19,10.1a1.793,1.793,0,0,1-1.5-.735A3.286,3.286,0,0,1,16.935,7.319Zm1.411.105A2.086,2.086,0,0,0,18.6,8.564a.843.843,0,0,0,.752.4.944.944,0,0,0,.923-.553V6.319a.931.931,0,0,0-.913-.553Q18.346,5.767,18.346,7.424ZM24.278,10H22.862V4.717h1.416Zm-1.5-6.65a.7.7,0,0,1,.212-.522.915.915,0,0,1,1.155,0,.691.691,0,0,1,.215.522.693.693,0,0,1-.217.527.905.905,0,0,1-1.147,0A.693.693,0,0,1,22.779,3.35Zm2.441,3.96a3.133,3.133,0,0,1,.3-1.4,2.216,2.216,0,0,1,.872-.952,2.543,2.543,0,0,1,1.321-.337,2.406,2.406,0,0,1,1.746.654,2.626,2.626,0,0,1,.754,1.777l.01.361a2.761,2.761,0,0,1-.679,1.951,2.631,2.631,0,0,1-3.645,0,2.81,2.81,0,0,1-.681-1.992Zm1.411.1a1.975,1.975,0,0,0,.283,1.152,1.017,1.017,0,0,0,1.611,0,2.161,2.161,0,0,0,.288-1.259,1.955,1.955,0,0,0-.288-1.144.936.936,0,0,0-.811-.406.921.921,0,0,0-.8.4A2.2,2.2,0,0,0,26.632,7.41Z" transform="translate(-4839.83 588.003)" fill="#12263f"/>
    <path id="Path_614359" data-name="Path 614359" d="M5,2.891,6.822,8.047,8.639,2.891h1.924V10H9.093V8.057L9.239,4.7,7.32,10H6.314L4.4,4.707l.146,3.35V10H3.082V2.891ZM14.181,10.1a2.594,2.594,0,0,1-1.892-.713,2.534,2.534,0,0,1-.73-1.9V7.349a3.192,3.192,0,0,1,.308-1.423,2.258,2.258,0,0,1,.872-.967,2.446,2.446,0,0,1,1.287-.339,2.193,2.193,0,0,1,1.707.684,2.778,2.778,0,0,1,.623,1.938v.576H12.989a1.311,1.311,0,0,0,.413.83,1.247,1.247,0,0,0,.872.313,1.523,1.523,0,0,0,1.274-.591l.693.776a2.118,2.118,0,0,1-.859.7A2.819,2.819,0,0,1,14.181,10.1ZM14.02,5.757a.882.882,0,0,0-.681.284A1.473,1.473,0,0,0,13,6.855h1.963V6.743a1.051,1.051,0,0,0-.254-.728A.91.91,0,0,0,14.02,5.757Zm2.915,1.563a3.184,3.184,0,0,1,.554-1.968A1.8,1.8,0,0,1,19,4.619a1.618,1.618,0,0,1,1.274.576V2.5H21.7V10H20.421l-.068-.562A1.661,1.661,0,0,1,19,10.1a1.793,1.793,0,0,1-1.5-.735A3.286,3.286,0,0,1,16.935,7.319Zm1.411.105A2.086,2.086,0,0,0,18.6,8.564a.843.843,0,0,0,.752.4.944.944,0,0,0,.923-.553V6.319a.931.931,0,0,0-.913-.553Q18.346,5.767,18.346,7.424ZM24.278,10H22.862V4.717h1.416Zm-1.5-6.65a.7.7,0,0,1,.212-.522.915.915,0,0,1,1.155,0,.691.691,0,0,1,.215.522.693.693,0,0,1-.217.527.905.905,0,0,1-1.147,0A.693.693,0,0,1,22.779,3.35Zm2.441,3.96a3.133,3.133,0,0,1,.3-1.4,2.216,2.216,0,0,1,.872-.952,2.543,2.543,0,0,1,1.321-.337,2.406,2.406,0,0,1,1.746.654,2.626,2.626,0,0,1,.754,1.777l.01.361a2.761,2.761,0,0,1-.679,1.951,2.631,2.631,0,0,1-3.645,0,2.81,2.81,0,0,1-.681-1.992Zm1.411.1a1.975,1.975,0,0,0,.283,1.152,1.017,1.017,0,0,0,1.611,0,2.161,2.161,0,0,0,.288-1.259,1.955,1.955,0,0,0-.288-1.144.936.936,0,0,0-.811-.406.921.921,0,0,0-.8.4A2.2,2.2,0,0,0,26.632,7.41Z" transform="translate(-4791.83 557)" fill="#12263f"/>
    <path id="Path_614360" data-name="Path 614360" d="M23.922,10H22.458L19.606,5.322V10H18.141V2.891h1.465l2.856,4.688V2.891h1.46ZM26.6,10H25.182V4.717H26.6ZM25.1,3.35a.7.7,0,0,1,.212-.522.915.915,0,0,1,1.155,0,.691.691,0,0,1,.215.522.693.693,0,0,1-.217.527.905.905,0,0,1-1.147,0A.693.693,0,0,1,25.1,3.35Zm4.639,4.927.981-3.56h1.475L30.412,10H29.064L27.282,4.717h1.475ZM35.182,10.1a2.594,2.594,0,0,1-1.892-.713,2.534,2.534,0,0,1-.73-1.9V7.349a3.192,3.192,0,0,1,.308-1.423,2.258,2.258,0,0,1,.872-.967,2.446,2.446,0,0,1,1.287-.339,2.193,2.193,0,0,1,1.707.684,2.778,2.778,0,0,1,.623,1.938v.576H33.991a1.311,1.311,0,0,0,.413.83,1.247,1.247,0,0,0,.872.313,1.523,1.523,0,0,0,1.274-.591l.693.776a2.118,2.118,0,0,1-.859.7A2.819,2.819,0,0,1,35.182,10.1Zm-.161-4.341a.882.882,0,0,0-.681.284,1.473,1.473,0,0,0-.334.814h1.963V6.743a1.051,1.051,0,0,0-.254-.728A.91.91,0,0,0,35.021,5.757ZM39.645,10H38.229V2.5h1.416Zm3.433-2.681a3.184,3.184,0,0,1,.554-1.968,1.8,1.8,0,0,1,1.516-.732,1.618,1.618,0,0,1,1.274.576V2.5h1.416V10H46.564L46.5,9.438a1.661,1.661,0,0,1-1.357.659,1.793,1.793,0,0,1-1.5-.735A3.286,3.286,0,0,1,43.078,7.319Zm1.411.105a2.086,2.086,0,0,0,.259,1.139.843.843,0,0,0,.752.4.944.944,0,0,0,.923-.553V6.319a.931.931,0,0,0-.913-.553Q44.489,5.767,44.489,7.424ZM51.364,10.1a2.594,2.594,0,0,1-1.892-.713,2.534,2.534,0,0,1-.73-1.9V7.349a3.192,3.192,0,0,1,.308-1.423,2.258,2.258,0,0,1,.872-.967,2.446,2.446,0,0,1,1.287-.339,2.193,2.193,0,0,1,1.707.684,2.778,2.778,0,0,1,.623,1.938v.576H50.172a1.311,1.311,0,0,0,.413.83,1.247,1.247,0,0,0,.872.313,1.523,1.523,0,0,0,1.274-.591l.693.776a2.118,2.118,0,0,1-.859.7A2.819,2.819,0,0,1,51.364,10.1ZM51.2,5.757a.882.882,0,0,0-.681.284,1.473,1.473,0,0,0-.334.814H52.15V6.743a1.051,1.051,0,0,0-.254-.728A.91.91,0,0,0,51.2,5.757ZM59.8,6.04A3.834,3.834,0,0,0,59.289,6a1.034,1.034,0,0,0-1.05.542V10H56.828V4.717h1.333l.039.63a1.308,1.308,0,0,1,1.177-.728,1.479,1.479,0,0,1,.439.063ZM61.964,10H60.548V4.717h1.416Zm-1.5-6.65a.7.7,0,0,1,.212-.522.915.915,0,0,1,1.155,0,.691.691,0,0,1,.215.522.693.693,0,0,1-.217.527.905.905,0,0,1-1.147,0A.693.693,0,0,1,60.465,3.35ZM65.558,10.1a2.594,2.594,0,0,1-1.892-.713,2.534,2.534,0,0,1-.73-1.9V7.349a3.192,3.192,0,0,1,.308-1.423,2.258,2.258,0,0,1,.872-.967A2.446,2.446,0,0,1,65.4,4.619a2.193,2.193,0,0,1,1.707.684,2.778,2.778,0,0,1,.623,1.938v.576H64.367a1.311,1.311,0,0,0,.413.83,1.247,1.247,0,0,0,.872.313,1.523,1.523,0,0,0,1.274-.591l.693.776a2.118,2.118,0,0,1-.859.7A2.819,2.819,0,0,1,65.558,10.1ZM65.4,5.757a.882.882,0,0,0-.681.284,1.473,1.473,0,0,0-.334.814h1.963V6.743a1.051,1.051,0,0,0-.254-.728A.91.91,0,0,0,65.4,5.757Zm6,2.783a.455.455,0,0,0-.256-.408,2.912,2.912,0,0,0-.823-.266q-1.885-.4-1.885-1.6a1.452,1.452,0,0,1,.583-1.174,2.354,2.354,0,0,1,1.526-.471,2.533,2.533,0,0,1,1.609.474,1.493,1.493,0,0,1,.6,1.23H71.339a.683.683,0,0,0-.2-.5.827.827,0,0,0-.61-.2.845.845,0,0,0-.552.161.509.509,0,0,0-.2.41.435.435,0,0,0,.222.378,2.285,2.285,0,0,0,.75.249,6.122,6.122,0,0,1,.889.237,1.46,1.46,0,0,1,1.118,1.421,1.378,1.378,0,0,1-.62,1.169,2.675,2.675,0,0,1-1.6.447,2.794,2.794,0,0,1-1.179-.237,1.979,1.979,0,0,1-.808-.649,1.509,1.509,0,0,1-.293-.891H69.6a.737.737,0,0,0,.278.576,1.1,1.1,0,0,0,.693.2,1.022,1.022,0,0,0,.613-.154A.479.479,0,0,0,71.393,8.54Zm2.075-1.221a3.1,3.1,0,0,1,.579-1.958,1.875,1.875,0,0,1,1.56-.742,1.644,1.644,0,0,1,1.353.6l.059-.5H78.3V9.824a2.258,2.258,0,0,1-.315,1.206,2.023,2.023,0,0,1-.886.781,3.115,3.115,0,0,1-1.338.269,2.9,2.9,0,0,1-1.133-.232,2.011,2.011,0,0,1-.835-.6l.625-.859a1.653,1.653,0,0,0,1.279.591,1.21,1.21,0,0,0,.874-.3,1.126,1.126,0,0,0,.313-.852V9.546A1.632,1.632,0,0,1,75.6,10.1a1.87,1.87,0,0,1-1.541-.745,3.1,3.1,0,0,1-.588-1.975Zm1.411.105a1.928,1.928,0,0,0,.288,1.127.916.916,0,0,0,.791.408.98.98,0,0,0,.923-.484V6.251a.978.978,0,0,0-.913-.484.922.922,0,0,0-.8.416A2.173,2.173,0,0,0,74.879,7.424Zm4.282-.115a3.133,3.133,0,0,1,.3-1.4,2.216,2.216,0,0,1,.872-.952,2.543,2.543,0,0,1,1.321-.337,2.406,2.406,0,0,1,1.746.654,2.626,2.626,0,0,1,.754,1.777l.01.361a2.761,2.761,0,0,1-.679,1.951,2.631,2.631,0,0,1-3.645,0,2.81,2.81,0,0,1-.681-1.992Zm1.411.1a1.975,1.975,0,0,0,.283,1.152,1.017,1.017,0,0,0,1.611,0,2.161,2.161,0,0,0,.288-1.259,1.955,1.955,0,0,0-.288-1.144.936.936,0,0,0-.811-.406.921.921,0,0,0-.8.4A2.2,2.2,0,0,0,80.573,7.41ZM28.227,19H26.811V13.717h1.416Zm-1.5-6.65a.7.7,0,0,1,.212-.522.915.915,0,0,1,1.155,0,.746.746,0,0,1,0,1.05.905.905,0,0,1-1.147,0A.693.693,0,0,1,26.728,12.35Zm3.984,1.367.044.591a1.857,1.857,0,0,1,1.519-.688,1.409,1.409,0,0,1,1.4.806,1.814,1.814,0,0,1,1.587-.806,1.576,1.576,0,0,1,1.279.5,2.3,2.3,0,0,1,.42,1.506V19H35.546V15.631a1.006,1.006,0,0,0-.176-.657.779.779,0,0,0-.62-.208.881.881,0,0,0-.879.605l0,3.628H32.465V15.636a.994.994,0,0,0-.181-.664.787.787,0,0,0-.615-.205.914.914,0,0,0-.869.5V19H29.389V13.717Zm12.09,2.69a3.169,3.169,0,0,1-.554,1.956,1.777,1.777,0,0,1-1.5.735,1.646,1.646,0,0,1-1.294-.557v2.49H38.046V13.717h1.309l.049.518a1.659,1.659,0,0,1,1.338-.615,1.789,1.789,0,0,1,1.519.723,3.254,3.254,0,0,1,.542,1.992Zm-1.411-.1a2.079,2.079,0,0,0-.261-1.138.851.851,0,0,0-.759-.4.924.924,0,0,0-.913.508v2.163a.94.94,0,0,0,.923.522Q41.391,17.96,41.391,16.3Zm2.065,0a3.133,3.133,0,0,1,.3-1.4,2.216,2.216,0,0,1,.872-.952,2.543,2.543,0,0,1,1.321-.337,2.406,2.406,0,0,1,1.746.654,2.626,2.626,0,0,1,.754,1.777l.01.361a2.761,2.761,0,0,1-.679,1.951,2.631,2.631,0,0,1-3.645,0,2.81,2.81,0,0,1-.681-1.992Zm1.411.1a1.975,1.975,0,0,0,.283,1.152,1.017,1.017,0,0,0,1.611,0,2.161,2.161,0,0,0,.288-1.259,1.955,1.955,0,0,0-.288-1.144.936.936,0,0,0-.811-.406.921.921,0,0,0-.8.4A2.2,2.2,0,0,0,44.867,16.41ZM52.3,15.04A3.834,3.834,0,0,0,51.791,15a1.034,1.034,0,0,0-1.05.542V19H49.33V13.717h1.333l.039.63a1.308,1.308,0,0,1,1.177-.728,1.479,1.479,0,0,1,.439.063Zm2.612-2.622v1.3h.9v1.035h-.9v2.637a.63.63,0,0,0,.112.42.564.564,0,0,0,.43.127,2.25,2.25,0,0,0,.415-.034v1.069a2.905,2.905,0,0,1-.854.127A1.347,1.347,0,0,1,53.5,17.6V14.752h-.771V13.717H53.5v-1.3ZM59.662,19a1.567,1.567,0,0,1-.142-.474,1.707,1.707,0,0,1-1.333.571,1.876,1.876,0,0,1-1.287-.449,1.445,1.445,0,0,1-.51-1.133,1.493,1.493,0,0,1,.623-1.289,3.072,3.072,0,0,1,1.8-.454h.649v-.3a.871.871,0,0,0-.188-.586.74.74,0,0,0-.593-.22.841.841,0,0,0-.559.171.581.581,0,0,0-.2.469H56.508a1.418,1.418,0,0,1,.283-.85,1.872,1.872,0,0,1,.8-.613,2.918,2.918,0,0,1,1.162-.222,2.306,2.306,0,0,1,1.55.491,1.717,1.717,0,0,1,.574,1.379v2.29a2.526,2.526,0,0,0,.21,1.138V19ZM58.5,18.019a1.215,1.215,0,0,0,.576-.139.914.914,0,0,0,.391-.374V16.6h-.527q-1.06,0-1.128.732l0,.083a.565.565,0,0,0,.186.435A.721.721,0,0,0,58.5,18.019Zm4.766-4.3.044.61a1.845,1.845,0,0,1,1.519-.708,1.533,1.533,0,0,1,1.25.493,2.3,2.3,0,0,1,.42,1.475V19H65.082V15.621a.915.915,0,0,0-.2-.652.874.874,0,0,0-.649-.2.971.971,0,0,0-.894.508V19H61.933V13.717Zm5.991-1.3v1.3h.9v1.035h-.9v2.637a.63.63,0,0,0,.112.42.564.564,0,0,0,.43.127,2.25,2.25,0,0,0,.415-.034v1.069a2.905,2.905,0,0,1-.854.127,1.347,1.347,0,0,1-1.514-1.5V14.752h-.771V13.717h.771v-1.3Zm4.121,6.68a2.594,2.594,0,0,1-1.892-.713,2.534,2.534,0,0,1-.73-1.9v-.137a3.192,3.192,0,0,1,.308-1.423,2.258,2.258,0,0,1,.872-.967,2.446,2.446,0,0,1,1.287-.339,2.193,2.193,0,0,1,1.707.684,2.778,2.778,0,0,1,.623,1.938v.576H72.182a1.311,1.311,0,0,0,.413.83,1.247,1.247,0,0,0,.872.313,1.523,1.523,0,0,0,1.274-.591l.693.776a2.118,2.118,0,0,1-.859.7A2.819,2.819,0,0,1,73.373,19.1Zm-.161-4.341a.882.882,0,0,0-.681.284,1.473,1.473,0,0,0-.334.814h1.963v-.113a1.051,1.051,0,0,0-.254-.728A.91.91,0,0,0,73.212,14.757Z" transform="translate(-4899.83 544.5)" fill="#12263f"/>
    <path id="Path_614361" data-name="Path 614361" d="M23.922,10H22.458L19.606,5.322V10H18.141V2.891h1.465l2.856,4.688V2.891h1.46ZM26.6,10H25.182V4.717H26.6ZM25.1,3.35a.7.7,0,0,1,.212-.522.915.915,0,0,1,1.155,0,.691.691,0,0,1,.215.522.693.693,0,0,1-.217.527.905.905,0,0,1-1.147,0A.693.693,0,0,1,25.1,3.35Zm4.639,4.927.981-3.56h1.475L30.412,10H29.064L27.282,4.717h1.475ZM35.182,10.1a2.594,2.594,0,0,1-1.892-.713,2.534,2.534,0,0,1-.73-1.9V7.349a3.192,3.192,0,0,1,.308-1.423,2.258,2.258,0,0,1,.872-.967,2.446,2.446,0,0,1,1.287-.339,2.193,2.193,0,0,1,1.707.684,2.778,2.778,0,0,1,.623,1.938v.576H33.991a1.311,1.311,0,0,0,.413.83,1.247,1.247,0,0,0,.872.313,1.523,1.523,0,0,0,1.274-.591l.693.776a2.118,2.118,0,0,1-.859.7A2.819,2.819,0,0,1,35.182,10.1Zm-.161-4.341a.882.882,0,0,0-.681.284,1.473,1.473,0,0,0-.334.814h1.963V6.743a1.051,1.051,0,0,0-.254-.728A.91.91,0,0,0,35.021,5.757ZM39.645,10H38.229V2.5h1.416Zm3.433-2.681a3.184,3.184,0,0,1,.554-1.968,1.8,1.8,0,0,1,1.516-.732,1.618,1.618,0,0,1,1.274.576V2.5h1.416V10H46.564L46.5,9.438a1.661,1.661,0,0,1-1.357.659,1.793,1.793,0,0,1-1.5-.735A3.286,3.286,0,0,1,43.078,7.319Zm1.411.105a2.086,2.086,0,0,0,.259,1.139.843.843,0,0,0,.752.4.944.944,0,0,0,.923-.553V6.319a.931.931,0,0,0-.913-.553Q44.489,5.767,44.489,7.424ZM51.364,10.1a2.594,2.594,0,0,1-1.892-.713,2.534,2.534,0,0,1-.73-1.9V7.349a3.192,3.192,0,0,1,.308-1.423,2.258,2.258,0,0,1,.872-.967,2.446,2.446,0,0,1,1.287-.339,2.193,2.193,0,0,1,1.707.684,2.778,2.778,0,0,1,.623,1.938v.576H50.172a1.311,1.311,0,0,0,.413.83,1.247,1.247,0,0,0,.872.313,1.523,1.523,0,0,0,1.274-.591l.693.776a2.118,2.118,0,0,1-.859.7A2.819,2.819,0,0,1,51.364,10.1ZM51.2,5.757a.882.882,0,0,0-.681.284,1.473,1.473,0,0,0-.334.814H52.15V6.743a1.051,1.051,0,0,0-.254-.728A.91.91,0,0,0,51.2,5.757ZM59.8,6.04A3.834,3.834,0,0,0,59.289,6a1.034,1.034,0,0,0-1.05.542V10H56.828V4.717h1.333l.039.63a1.308,1.308,0,0,1,1.177-.728,1.479,1.479,0,0,1,.439.063ZM61.964,10H60.548V4.717h1.416Zm-1.5-6.65a.7.7,0,0,1,.212-.522.915.915,0,0,1,1.155,0,.691.691,0,0,1,.215.522.693.693,0,0,1-.217.527.905.905,0,0,1-1.147,0A.693.693,0,0,1,60.465,3.35ZM65.558,10.1a2.594,2.594,0,0,1-1.892-.713,2.534,2.534,0,0,1-.73-1.9V7.349a3.192,3.192,0,0,1,.308-1.423,2.258,2.258,0,0,1,.872-.967A2.446,2.446,0,0,1,65.4,4.619a2.193,2.193,0,0,1,1.707.684,2.778,2.778,0,0,1,.623,1.938v.576H64.367a1.311,1.311,0,0,0,.413.83,1.247,1.247,0,0,0,.872.313,1.523,1.523,0,0,0,1.274-.591l.693.776a2.118,2.118,0,0,1-.859.7A2.819,2.819,0,0,1,65.558,10.1ZM65.4,5.757a.882.882,0,0,0-.681.284,1.473,1.473,0,0,0-.334.814h1.963V6.743a1.051,1.051,0,0,0-.254-.728A.91.91,0,0,0,65.4,5.757Zm6,2.783a.455.455,0,0,0-.256-.408,2.912,2.912,0,0,0-.823-.266q-1.885-.4-1.885-1.6a1.452,1.452,0,0,1,.583-1.174,2.354,2.354,0,0,1,1.526-.471,2.533,2.533,0,0,1,1.609.474,1.493,1.493,0,0,1,.6,1.23H71.339a.683.683,0,0,0-.2-.5.827.827,0,0,0-.61-.2.845.845,0,0,0-.552.161.509.509,0,0,0-.2.41.435.435,0,0,0,.222.378,2.285,2.285,0,0,0,.75.249,6.122,6.122,0,0,1,.889.237,1.46,1.46,0,0,1,1.118,1.421,1.378,1.378,0,0,1-.62,1.169,2.675,2.675,0,0,1-1.6.447,2.794,2.794,0,0,1-1.179-.237,1.979,1.979,0,0,1-.808-.649,1.509,1.509,0,0,1-.293-.891H69.6a.737.737,0,0,0,.278.576,1.1,1.1,0,0,0,.693.2,1.022,1.022,0,0,0,.613-.154A.479.479,0,0,0,71.393,8.54Zm2.075-1.221a3.1,3.1,0,0,1,.579-1.958,1.875,1.875,0,0,1,1.56-.742,1.644,1.644,0,0,1,1.353.6l.059-.5H78.3V9.824a2.258,2.258,0,0,1-.315,1.206,2.023,2.023,0,0,1-.886.781,3.115,3.115,0,0,1-1.338.269,2.9,2.9,0,0,1-1.133-.232,2.011,2.011,0,0,1-.835-.6l.625-.859a1.653,1.653,0,0,0,1.279.591,1.21,1.21,0,0,0,.874-.3,1.126,1.126,0,0,0,.313-.852V9.546A1.632,1.632,0,0,1,75.6,10.1a1.87,1.87,0,0,1-1.541-.745,3.1,3.1,0,0,1-.588-1.975Zm1.411.105a1.928,1.928,0,0,0,.288,1.127.916.916,0,0,0,.791.408.98.98,0,0,0,.923-.484V6.251a.978.978,0,0,0-.913-.484.922.922,0,0,0-.8.416A2.173,2.173,0,0,0,74.879,7.424Zm4.282-.115a3.133,3.133,0,0,1,.3-1.4,2.216,2.216,0,0,1,.872-.952,2.543,2.543,0,0,1,1.321-.337,2.406,2.406,0,0,1,1.746.654,2.626,2.626,0,0,1,.754,1.777l.01.361a2.761,2.761,0,0,1-.679,1.951,2.631,2.631,0,0,1-3.645,0,2.81,2.81,0,0,1-.681-1.992Zm1.411.1a1.975,1.975,0,0,0,.283,1.152,1.017,1.017,0,0,0,1.611,0,2.161,2.161,0,0,0,.288-1.259,1.955,1.955,0,0,0-.288-1.144.936.936,0,0,0-.811-.406.921.921,0,0,0-.8.4A2.2,2.2,0,0,0,80.573,7.41ZM28.227,19H26.811V13.717h1.416Zm-1.5-6.65a.7.7,0,0,1,.212-.522.915.915,0,0,1,1.155,0,.746.746,0,0,1,0,1.05.905.905,0,0,1-1.147,0A.693.693,0,0,1,26.728,12.35Zm3.984,1.367.044.591a1.857,1.857,0,0,1,1.519-.688,1.409,1.409,0,0,1,1.4.806,1.814,1.814,0,0,1,1.587-.806,1.576,1.576,0,0,1,1.279.5,2.3,2.3,0,0,1,.42,1.506V19H35.546V15.631a1.006,1.006,0,0,0-.176-.657.779.779,0,0,0-.62-.208.881.881,0,0,0-.879.605l0,3.628H32.465V15.636a.994.994,0,0,0-.181-.664.787.787,0,0,0-.615-.205.914.914,0,0,0-.869.5V19H29.389V13.717Zm12.09,2.69a3.169,3.169,0,0,1-.554,1.956,1.777,1.777,0,0,1-1.5.735,1.646,1.646,0,0,1-1.294-.557v2.49H38.046V13.717h1.309l.049.518a1.659,1.659,0,0,1,1.338-.615,1.789,1.789,0,0,1,1.519.723,3.254,3.254,0,0,1,.542,1.992Zm-1.411-.1a2.079,2.079,0,0,0-.261-1.138.851.851,0,0,0-.759-.4.924.924,0,0,0-.913.508v2.163a.94.94,0,0,0,.923.522Q41.391,17.96,41.391,16.3Zm2.065,0a3.133,3.133,0,0,1,.3-1.4,2.216,2.216,0,0,1,.872-.952,2.543,2.543,0,0,1,1.321-.337,2.406,2.406,0,0,1,1.746.654,2.626,2.626,0,0,1,.754,1.777l.01.361a2.761,2.761,0,0,1-.679,1.951,2.631,2.631,0,0,1-3.645,0,2.81,2.81,0,0,1-.681-1.992Zm1.411.1a1.975,1.975,0,0,0,.283,1.152,1.017,1.017,0,0,0,1.611,0,2.161,2.161,0,0,0,.288-1.259,1.955,1.955,0,0,0-.288-1.144.936.936,0,0,0-.811-.406.921.921,0,0,0-.8.4A2.2,2.2,0,0,0,44.867,16.41ZM52.3,15.04A3.834,3.834,0,0,0,51.791,15a1.034,1.034,0,0,0-1.05.542V19H49.33V13.717h1.333l.039.63a1.308,1.308,0,0,1,1.177-.728,1.479,1.479,0,0,1,.439.063Zm2.612-2.622v1.3h.9v1.035h-.9v2.637a.63.63,0,0,0,.112.42.564.564,0,0,0,.43.127,2.25,2.25,0,0,0,.415-.034v1.069a2.905,2.905,0,0,1-.854.127A1.347,1.347,0,0,1,53.5,17.6V14.752h-.771V13.717H53.5v-1.3ZM59.662,19a1.567,1.567,0,0,1-.142-.474,1.707,1.707,0,0,1-1.333.571,1.876,1.876,0,0,1-1.287-.449,1.445,1.445,0,0,1-.51-1.133,1.493,1.493,0,0,1,.623-1.289,3.072,3.072,0,0,1,1.8-.454h.649v-.3a.871.871,0,0,0-.188-.586.74.74,0,0,0-.593-.22.841.841,0,0,0-.559.171.581.581,0,0,0-.2.469H56.508a1.418,1.418,0,0,1,.283-.85,1.872,1.872,0,0,1,.8-.613,2.918,2.918,0,0,1,1.162-.222,2.306,2.306,0,0,1,1.55.491,1.717,1.717,0,0,1,.574,1.379v2.29a2.526,2.526,0,0,0,.21,1.138V19ZM58.5,18.019a1.215,1.215,0,0,0,.576-.139.914.914,0,0,0,.391-.374V16.6h-.527q-1.06,0-1.128.732l0,.083a.565.565,0,0,0,.186.435A.721.721,0,0,0,58.5,18.019Zm4.766-4.3.044.61a1.845,1.845,0,0,1,1.519-.708,1.533,1.533,0,0,1,1.25.493,2.3,2.3,0,0,1,.42,1.475V19H65.082V15.621a.915.915,0,0,0-.2-.652.874.874,0,0,0-.649-.2.971.971,0,0,0-.894.508V19H61.933V13.717Zm5.991-1.3v1.3h.9v1.035h-.9v2.637a.63.63,0,0,0,.112.42.564.564,0,0,0,.43.127,2.25,2.25,0,0,0,.415-.034v1.069a2.905,2.905,0,0,1-.854.127,1.347,1.347,0,0,1-1.514-1.5V14.752h-.771V13.717h.771v-1.3Zm4.121,6.68a2.594,2.594,0,0,1-1.892-.713,2.534,2.534,0,0,1-.73-1.9v-.137a3.192,3.192,0,0,1,.308-1.423,2.258,2.258,0,0,1,.872-.967,2.446,2.446,0,0,1,1.287-.339,2.193,2.193,0,0,1,1.707.684,2.778,2.778,0,0,1,.623,1.938v.576H72.182a1.311,1.311,0,0,0,.413.83,1.247,1.247,0,0,0,.872.313,1.523,1.523,0,0,0,1.274-.591l.693.776a2.118,2.118,0,0,1-.859.7A2.819,2.819,0,0,1,73.373,19.1Zm-.161-4.341a.882.882,0,0,0-.681.284,1.473,1.473,0,0,0-.334.814h1.963v-.113a1.051,1.051,0,0,0-.254-.728A.91.91,0,0,0,73.212,14.757Z" transform="translate(-5001.83 674.003)" fill="#12263f"/>
  </g>
</svg>
