<svg xmlns="http://www.w3.org/2000/svg" width="141" height="141" viewBox="0 0 141 141">
  <g id="Grupo_1077074" data-name="Grupo 1077074" transform="translate(-317 -8147.437)">
    <g id="Grupo_1076900" data-name="Grupo 1076900" transform="translate(48 7189.437)">
      <circle id="Elipse_5614" data-name="Elipse 5614" cx="70.5" cy="70.5" r="70.5" transform="translate(269 958)" fill="#fff"/>
    </g>
    <g id="Grupo_1076903" data-name="Grupo 1076903" transform="translate(343.283 8176.05)">
      <path id="Trazado_613566" data-name="Trazado 613566" d="M66.45,6l-5.465,5.436H20L25.465,6Z" transform="translate(7.323 0.367)" fill="#03386e"/>
      <path id="Trazado_613567" data-name="Trazado 613567" d="M55.465,22V32.9L50,38.365v-10.9Z" transform="translate(18.308 6.225)" fill="#03386e"/>
      <path id="Trazado_613568" data-name="Trazado 613568" d="M55.465,29.979v9.209L50,40.022V35.444Z" transform="translate(18.308 9.147)" fill="#03386e"/>
      <path id="Trazado_613569" data-name="Trazado 613569" d="M55.465,24.918,50,30.383V19.495l5.465-5.465Z" transform="translate(18.308 3.307)" fill="#03386e"/>
      <path id="Trazado_613570" data-name="Trazado 613570" d="M55.465,16.97,50,22.435v-11L55.465,6Z" transform="translate(18.308 0.367)" fill="#03386e"/>
      <path id="Trazado_613571" data-name="Trazado 613571" d="M20,9.979H60.985V20.908H20Z" transform="translate(7.323 1.824)" fill="#6debff"/>
      <path id="Trazado_613572" data-name="Trazado 613572" d="M30.15,33.979H57.268v4.578L42.241,40.839a5.473,5.473,0,0,0-4.522-5.383Z" transform="translate(11.04 10.611)" fill="#6debff"/>
      <path id="Trazado_613573" data-name="Trazado 613573" d="M20,17.979H60.985V28.908H20Z" transform="translate(7.323 4.753)" fill="#6debff"/>
      <path id="Trazado_613574" data-name="Trazado 613574" d="M20,25.979H60.985V36.908H33.867L20,34.2Z" transform="translate(7.323 7.682)" fill="#6debff"/>
      <path id="Trazado_613575" data-name="Trazado 613575" d="M76.576,37.465A5.47,5.47,0,0,1,79.308,47.67L42.422,67.52,11,63.422V32H23.3l13.867,2.7,7.569,1.475a5.476,5.476,0,0,1,4.522,5.384L64.28,39.282l5.465-.833,5.9-.9A5.221,5.221,0,0,1,76.576,37.465Z" transform="translate(4.028 9.887)" fill="#eac6bb"/>
      <path id="Trazado_613576" data-name="Trazado 613576" d="M14.662,64.154v2.732H1V30H14.662V64.154Z" transform="translate(0.366 9.155)" fill="#03386e"/>
      <path id="Trazado_613577" data-name="Trazado 613577" d="M6.4,55.732A1.366,1.366,0,0,1,6.383,53H6.4a1.366,1.366,0,0,1,0,2.732Z" transform="translate(1.84 17.576)"/>
      <path id="Trazado_613578" data-name="Trazado 613578" d="M62.1,47.931a1.366,1.366,0,0,1-.686-2.548,4.1,4.1,0,0,0-2.049-7.651,1.366,1.366,0,0,1,0-2.732,6.832,6.832,0,0,1,3.418,12.746,1.352,1.352,0,0,1-.683.184Z" transform="translate(21.238 10.985)"/>
      <path id="Trazado_613579" data-name="Trazado 613579" d="M34.368,65.055a1.366,1.366,0,0,1-.649-2.568l36.886-19.86A1.366,1.366,0,0,1,71.9,45.032L35.013,64.892A1.353,1.353,0,0,1,34.368,65.055Z" transform="translate(12.083 13.718)"/>
      <path id="Trazado_613580" data-name="Trazado 613580" d="M42.789,60.831a1.309,1.309,0,0,1-.178-.012L11.19,56.72a1.365,1.365,0,1,1,.352-2.708l31.422,4.1a1.366,1.366,0,0,1-.175,2.72Z" transform="translate(3.662 17.942)"/>
      <path id="Trazado_613581" data-name="Trazado 613581" d="M15.028,68.619H1.366A1.365,1.365,0,0,1,0,67.253V30.366A1.365,1.365,0,0,1,1.366,29H15.028a1.365,1.365,0,0,1,1.366,1.366V67.253A1.365,1.365,0,0,1,15.028,68.619Zm-12.3-2.732H13.662V31.732H2.732Z" transform="translate(0 8.788)"/>
      <path id="Trazado_613582" data-name="Trazado 613582" d="M39.365,41.81a1.366,1.366,0,0,1-.2-2.717l26.39-4.018a1.366,1.366,0,0,1,.411,2.7L39.571,41.793a1.312,1.312,0,0,1-.206.016Z" transform="translate(13.914 11.006)"/>
      <path id="Trazado_613583" data-name="Trazado 613583" d="M35.366,47.64a1.366,1.366,0,0,1,0-2.732,4.1,4.1,0,0,0,.706-8.137,1.366,1.366,0,1,1,.464-2.691A6.831,6.831,0,0,1,35.366,47.64Z" transform="translate(12.45 10.641)"/>
      <path id="Trazado_613584" data-name="Trazado 613584" d="M41.8,37.912a1.324,1.324,0,0,1-.262-.026L20.1,33.707a1.366,1.366,0,1,1,.523-2.682L42.06,35.2a1.367,1.367,0,0,1-.261,2.708Z" transform="translate(6.957 9.52)"/>
      <path id="Trazado_613585" data-name="Trazado 613585" d="M23.662,33.732h-12.3a1.366,1.366,0,1,1,0-2.732h12.3a1.366,1.366,0,0,1,0,2.732Z" transform="translate(3.662 9.521)"/>
      <path id="Trazado_613586" data-name="Trazado 613586" d="M39.553,45.067c-.034,0-.071,0-.107,0L22.261,43.728A1.366,1.366,0,0,1,22.471,41l17.185,1.335a1.366,1.366,0,0,1-.1,2.728Z" transform="translate(7.689 13.182)"/>
      <path id="Trazado_613587" data-name="Trazado 613587" d="M58.681,37.81a1.366,1.366,0,0,1-.224-2.713,6.875,6.875,0,0,1,1.16-.1,1.366,1.366,0,0,1,0,2.732,4.318,4.318,0,0,0-.709.059A1.271,1.271,0,0,1,58.681,37.81Z" transform="translate(20.987 10.985)"/>
      <path id="Trazado_613588" data-name="Trazado 613588" d="M35.519,44.741a6.349,6.349,0,0,1-.725-.041,1.366,1.366,0,0,1-1.2-1.51,1.349,1.349,0,0,1,1.51-1.2c.139.014.277.022.419.022a1.366,1.366,0,0,1,0,2.732Z" transform="translate(12.296 13.54)"/>
      <path id="Trazado_613589" data-name="Trazado 613589" d="M47.4,15.711a1.366,1.366,0,0,1-.015-2.732H47.4a1.366,1.366,0,1,1,0,2.732Z" transform="translate(16.853 2.922)"/>
      <path id="Trazado_613590" data-name="Trazado 613590" d="M61.355,22.641H20.364A1.365,1.365,0,0,1,19,21.274V10.345a1.365,1.365,0,0,1,1.366-1.366h40.99a1.365,1.365,0,0,1,1.366,1.366V21.274A1.366,1.366,0,0,1,61.355,22.641ZM21.73,19.908H59.988v-8.2H21.73Z" transform="translate(6.956 1.457)"/>
      <path id="Trazado_613591" data-name="Trazado 613591" d="M24.364,17.444a1.366,1.366,0,0,1-.966-2.332l2.732-2.732a1.366,1.366,0,0,1,1.932,1.932L25.33,17.043a1.362,1.362,0,0,1-.966.4Z" transform="translate(8.421 2.556)"/>
      <path id="Trazado_613592" data-name="Trazado 613592" d="M29.364,17.444a1.366,1.366,0,0,1-.966-2.332l2.732-2.732a1.366,1.366,0,1,1,1.932,1.932L30.33,17.043a1.362,1.362,0,0,1-.966.4Z" transform="translate(10.252 2.556)"/>
      <path id="Trazado_613593" data-name="Trazado 613593" d="M34.364,17.444a1.366,1.366,0,0,1-.966-2.332l2.732-2.732a1.366,1.366,0,0,1,1.932,1.932L35.33,17.043a1.362,1.362,0,0,1-.966.4Z" transform="translate(12.083 2.556)"/>
      <path id="Trazado_613594" data-name="Trazado 613594" d="M47.4,23.711a1.366,1.366,0,0,1-.015-2.732H47.4a1.366,1.366,0,1,1,0,2.732Z" transform="translate(16.853 5.851)"/>
      <path id="Trazado_613595" data-name="Trazado 613595" d="M61.355,30.641H20.364A1.365,1.365,0,0,1,19,29.274V18.345a1.365,1.365,0,0,1,1.366-1.366h40.99a1.365,1.365,0,0,1,1.366,1.366V29.274A1.366,1.366,0,0,1,61.355,30.641ZM21.73,27.908H59.988v-8.2H21.73Z" transform="translate(6.956 4.387)"/>
      <path id="Trazado_613596" data-name="Trazado 613596" d="M24.364,25.444a1.366,1.366,0,0,1-.966-2.332l2.732-2.732a1.366,1.366,0,1,1,1.932,1.932L25.33,25.043A1.362,1.362,0,0,1,24.364,25.444Z" transform="translate(8.421 5.485)"/>
      <path id="Trazado_613597" data-name="Trazado 613597" d="M29.364,25.444a1.366,1.366,0,0,1-.966-2.332l2.732-2.732a1.366,1.366,0,1,1,1.932,1.932L30.33,25.043A1.362,1.362,0,0,1,29.364,25.444Z" transform="translate(10.252 5.485)"/>
      <path id="Trazado_613598" data-name="Trazado 613598" d="M34.364,25.444a1.366,1.366,0,0,1-.966-2.332l2.732-2.732a1.366,1.366,0,0,1,1.932,1.932L35.33,25.043A1.362,1.362,0,0,1,34.364,25.444Z" transform="translate(12.083 5.485)"/>
      <path id="Trazado_613599" data-name="Trazado 613599" d="M47.4,31.711a1.366,1.366,0,0,1-.015-2.732H47.4a1.366,1.366,0,1,1,0,2.732Z" transform="translate(16.853 8.781)"/>
      <path id="Trazado_613600" data-name="Trazado 613600" d="M61.355,38.641H34.231a1.366,1.366,0,0,1,0-2.732H59.988v-8.2H21.73v6.86a1.366,1.366,0,0,1-2.732,0V26.345a1.365,1.365,0,0,1,1.366-1.366h40.99a1.365,1.365,0,0,1,1.366,1.366V37.274A1.366,1.366,0,0,1,61.355,38.641Z" transform="translate(6.956 7.316)"/>
      <path id="Trazado_613601" data-name="Trazado 613601" d="M24.364,33.444a1.366,1.366,0,0,1-.966-2.332l2.732-2.732a1.366,1.366,0,0,1,1.932,1.932L25.33,33.043A1.362,1.362,0,0,1,24.364,33.444Z" transform="translate(8.421 8.414)"/>
      <path id="Trazado_613602" data-name="Trazado 613602" d="M29.364,33.444a1.366,1.366,0,0,1-.966-2.332l2.732-2.732a1.366,1.366,0,1,1,1.932,1.932L30.33,33.043A1.362,1.362,0,0,1,29.364,33.444Z" transform="translate(10.252 8.414)"/>
      <path id="Trazado_613603" data-name="Trazado 613603" d="M34.364,33.444a1.366,1.366,0,0,1-.966-2.332l2.732-2.732a1.366,1.366,0,0,1,1.932,1.932L35.33,33.043A1.362,1.362,0,0,1,34.364,33.444Z" transform="translate(12.083 8.414)"/>
      <path id="Trazado_613604" data-name="Trazado 613604" d="M50.368,40.282A1.365,1.365,0,0,1,49,38.915V34.344a1.366,1.366,0,0,1,2.732,0v4.571A1.365,1.365,0,0,1,50.368,40.282Z" transform="translate(17.943 10.245)"/>
      <path id="Trazado_613605" data-name="Trazado 613605" d="M20.364,13.169a1.366,1.366,0,0,1-.963-2.335L24.866,5.4a1.366,1.366,0,1,1,1.926,1.937l-5.465,5.436a1.361,1.361,0,0,1-.963.4Z" transform="translate(6.956)"/>
      <path id="Trazado_613606" data-name="Trazado 613606" d="M50.368,13.169a1.366,1.366,0,0,1-.963-2.335L54.867,5.4a1.366,1.366,0,0,1,1.926,1.937l-5.462,5.436a1.359,1.359,0,0,1-.963.4Z" transform="translate(17.943)"/>
      <path id="Trazado_613607" data-name="Trazado 613607" d="M65.352,7.732H24.364a1.366,1.366,0,0,1,0-2.732H65.352a1.366,1.366,0,0,1,0,2.732Z" transform="translate(8.421 0)"/>
      <path id="Trazado_613608" data-name="Trazado 613608" d="M54.366,49.694A1.365,1.365,0,0,1,53,48.328V6.366a1.366,1.366,0,0,1,2.732,0V48.328A1.365,1.365,0,0,1,54.366,49.694Z" transform="translate(19.407 0)"/>
      <path id="Trazado_613609" data-name="Trazado 613609" d="M50.368,37.176a1.366,1.366,0,0,1-.966-2.332l5.463-5.465A1.366,1.366,0,0,1,56.8,31.311l-5.463,5.465a1.362,1.362,0,0,1-.966.4Z" transform="translate(17.943 8.781)"/>
      <path id="Trazado_613610" data-name="Trazado 613610" d="M50.368,29.2a1.366,1.366,0,0,1-.966-2.332L54.866,21.4A1.366,1.366,0,0,1,56.8,23.334L51.334,28.8A1.362,1.362,0,0,1,50.368,29.2Z" transform="translate(17.943 5.86)"/>
      <path id="Trazado_613611" data-name="Trazado 613611" d="M50.368,21.22a1.366,1.366,0,0,1-.966-2.332l5.463-5.465A1.366,1.366,0,1,1,56.8,15.355L51.334,20.82A1.357,1.357,0,0,1,50.368,21.22Z" transform="translate(17.943 2.938)"/>
    </g>
  </g>
</svg>
