<svg xmlns="http://www.w3.org/2000/svg" xmlns:xlink="http://www.w3.org/1999/xlink" width="1030" height="679.52" viewBox="0 0 1030 679.52">
  <defs>
    <linearGradient id="linear-gradient" x1="0.5" x2="0.5" y2="1" gradientUnits="objectBoundingBox">
      <stop offset="0" stop-color="#fff"/>
      <stop offset="1" stop-color="#eff6f9"/>
    </linearGradient>
    <linearGradient id="linear-gradient-2" x1="0.5" x2="0.5" y2="1" gradientUnits="objectBoundingBox">
      <stop offset="0" stop-color="#e1efe3"/>
      <stop offset="1" stop-color="#fff"/>
    </linearGradient>
  </defs>
  <g id="Grupo_1077067" data-name="Grupo 1077067" transform="translate(-285 -1143)">
    <g id="Grupo_1076763" data-name="Grupo 1076763" transform="translate(-48 -854)">
      <rect id="Rectángulo_292178" data-name="Rectángulo 292178" width="1030" height="679.52" transform="translate(1363 2676.52) rotate(180)" fill="url(#linear-gradient)"/>
      <g id="Grupo_1073457" data-name="Grupo 1073457" transform="translate(1352.61 2481.855)">
        <path id="Trazado_214670" data-name="Trazado 214670" d="M0,0H7.72l7.72,10.39H7.72Z" transform="translate(0 73.338) rotate(-90)" fill="#3ae3fe"/>
        <path id="Trazado_214675" data-name="Trazado 214675" d="M0,0H7.72l7.72,10.39H7.72Z" transform="translate(0 38.599) rotate(-90)" fill="#3ae3fe"/>
        <path id="Trazado_214671" data-name="Trazado 214671" d="M0,0H7.72l7.72,10.39H7.72Z" transform="translate(0 61.758) rotate(-90)" fill="#3ae3fe"/>
        <path id="Trazado_214674" data-name="Trazado 214674" d="M0,0H7.72l7.72,10.39H7.72Z" transform="translate(0 27.019) rotate(-90)" fill="#3ae3fe"/>
        <path id="Trazado_214672" data-name="Trazado 214672" d="M0,0H7.72l7.72,10.39H7.72Z" transform="translate(0 50.178) rotate(-90)" fill="#3ae3fe"/>
        <path id="Trazado_214673" data-name="Trazado 214673" d="M0,0H7.72l7.72,10.39H7.72Z" transform="translate(0 15.44) rotate(-90)" fill="#3ae3fe"/>
      </g>
      <g id="Grupo_1073458" data-name="Grupo 1073458" transform="translate(333 2004.726)">
        <path id="Trazado_214670-2" data-name="Trazado 214670" d="M0,0H7.72l7.72,10.39H7.72Z" transform="translate(0 73.338) rotate(-90)" fill="#03386e"/>
        <path id="Trazado_214675-2" data-name="Trazado 214675" d="M0,0H7.72l7.72,10.39H7.72Z" transform="translate(0 38.599) rotate(-90)" fill="#03386e"/>
        <path id="Trazado_214671-2" data-name="Trazado 214671" d="M0,0H7.72l7.72,10.39H7.72Z" transform="translate(0 61.758) rotate(-90)" fill="#03386e"/>
        <path id="Trazado_214674-2" data-name="Trazado 214674" d="M0,0H7.72l7.72,10.39H7.72Z" transform="translate(0 27.019) rotate(-90)" fill="#03386e"/>
        <path id="Trazado_214672-2" data-name="Trazado 214672" d="M0,0H7.72l7.72,10.39H7.72Z" transform="translate(0 50.178) rotate(-90)" fill="#03386e"/>
        <path id="Trazado_214673-2" data-name="Trazado 214673" d="M0,0H7.72l7.72,10.39H7.72Z" transform="translate(0 15.44) rotate(-90)" fill="#03386e"/>
      </g>
    </g>
    <g id="Grupo_1076751" data-name="Grupo 1076751" transform="translate(21 35)">
      <g id="Grupo_1076693" data-name="Grupo 1076693" transform="translate(580 1143)">
        <path id="Sustracción_7" data-name="Sustracción 7" d="M350.093,67.527H0V8.226H37.846L44.778,0H397.373V55.249H356.847l-6.754,12.278Z" transform="translate(0 0)" fill="#0c5e46"/>
        <path id="Trazado_214008" data-name="Trazado 214008" d="M.309,1.311H36.828V9.835H-4Z" transform="translate(361.407 57.691)" fill="#0c5e46" opacity="0.4"/>
      </g>
      <path id="Trazado_614248" data-name="Trazado 614248" d="M105,14.264a5.031,5.031,0,0,1-1.694,3.613A5.951,5.951,0,0,1,99.282,19.2a5.351,5.351,0,0,1-4.3-1.841A7.548,7.548,0,0,1,93.413,12.3v-.869a8.523,8.523,0,0,1,.723-3.613,5.416,5.416,0,0,1,2.065-2.4,6.455,6.455,0,0,1,7.085.483,5.407,5.407,0,0,1,1.738,3.7h-2.93a2.97,2.97,0,0,0-.767-2,2.839,2.839,0,0,0-2.007-.62,2.489,2.489,0,0,0-2.192,1.05,5.883,5.883,0,0,0-.747,3.257v1.074a6.3,6.3,0,0,0,.7,3.369,2.443,2.443,0,0,0,2.2,1.064,2.892,2.892,0,0,0,2.026-.62,2.8,2.8,0,0,0,.767-1.919Zm1.3-.645a6.266,6.266,0,0,1,.605-2.8,4.432,4.432,0,0,1,1.743-1.9,5.086,5.086,0,0,1,2.642-.674,4.812,4.812,0,0,1,3.491,1.309,5.252,5.252,0,0,1,1.509,3.555l.02.723a5.523,5.523,0,0,1-1.357,3.9,5.261,5.261,0,0,1-7.29,0,5.62,5.62,0,0,1-1.362-3.984Zm2.822.2a3.95,3.95,0,0,0,.566,2.3,2.035,2.035,0,0,0,3.223.01,4.322,4.322,0,0,0,.576-2.518,3.91,3.91,0,0,0-.576-2.289,1.873,1.873,0,0,0-1.621-.812,1.842,1.842,0,0,0-1.6.807A4.395,4.395,0,0,0,109.126,13.819ZM120.7,8.434l.088,1.182a3.713,3.713,0,0,1,3.037-1.377,2.818,2.818,0,0,1,2.8,1.611A3.628,3.628,0,0,1,129.8,8.238a3.152,3.152,0,0,1,2.559,1,4.6,4.6,0,0,1,.84,3.013V19h-2.832V12.262a2.012,2.012,0,0,0-.352-1.313,1.558,1.558,0,0,0-1.24-.415,1.762,1.762,0,0,0-1.758,1.211l.01,7.256H124.2V12.271a1.988,1.988,0,0,0-.361-1.328,1.573,1.573,0,0,0-1.23-.41,1.829,1.829,0,0,0-1.738,1V19h-2.822V8.434Zm24.18,5.381a6.337,6.337,0,0,1-1.108,3.911,3.554,3.554,0,0,1-2.993,1.47,3.292,3.292,0,0,1-2.588-1.113v4.98h-2.822V8.434h2.617l.1,1.035a3.317,3.317,0,0,1,2.676-1.23,3.578,3.578,0,0,1,3.037,1.445,6.509,6.509,0,0,1,1.084,3.984Zm-2.822-.205a4.158,4.158,0,0,0-.522-2.275,1.7,1.7,0,0,0-1.519-.8,1.848,1.848,0,0,0-1.826,1.016v4.326a1.879,1.879,0,0,0,1.846,1.045Q142.055,16.92,142.055,13.609Zm4.131.01a6.267,6.267,0,0,1,.605-2.8,4.432,4.432,0,0,1,1.743-1.9,5.086,5.086,0,0,1,2.642-.674,4.812,4.812,0,0,1,3.491,1.309,5.252,5.252,0,0,1,1.509,3.555l.02.723a5.523,5.523,0,0,1-1.357,3.9,5.261,5.261,0,0,1-7.29,0,5.62,5.62,0,0,1-1.362-3.984Zm2.822.2a3.95,3.95,0,0,0,.566,2.3,2.035,2.035,0,0,0,3.223.01,4.322,4.322,0,0,0,.576-2.518,3.91,3.91,0,0,0-.576-2.289,1.873,1.873,0,0,0-1.621-.812,1.842,1.842,0,0,0-1.6.807A4.395,4.395,0,0,0,149.008,13.819Zm11.523-5.386.088,1.221a3.689,3.689,0,0,1,3.037-1.416,3.066,3.066,0,0,1,2.5.986,4.6,4.6,0,0,1,.84,2.949V19h-2.822V12.242a1.831,1.831,0,0,0-.391-1.3,1.749,1.749,0,0,0-1.3-.405,1.942,1.942,0,0,0-1.787,1.016V19h-2.822V8.434ZM174,19.2a5.187,5.187,0,0,1-3.784-1.426,5.068,5.068,0,0,1-1.46-3.8V13.7a6.383,6.383,0,0,1,.615-2.847,4.515,4.515,0,0,1,1.743-1.934,4.893,4.893,0,0,1,2.573-.679A4.385,4.385,0,0,1,177.1,9.605a5.555,5.555,0,0,1,1.245,3.877v1.152h-6.729a2.622,2.622,0,0,0,.825,1.66,2.5,2.5,0,0,0,1.743.625,3.046,3.046,0,0,0,2.549-1.182l1.387,1.553a4.237,4.237,0,0,1-1.719,1.4A5.639,5.639,0,0,1,174,19.2Zm-.322-8.682a1.764,1.764,0,0,0-1.362.569,2.946,2.946,0,0,0-.669,1.628h3.926v-.226a2.1,2.1,0,0,0-.508-1.457A1.819,1.819,0,0,0,173.676,10.514Zm8.867-2.08.088,1.221a3.689,3.689,0,0,1,3.037-1.416,3.066,3.066,0,0,1,2.5.986,4.6,4.6,0,0,1,.84,2.949V19h-2.822V12.242a1.831,1.831,0,0,0-.391-1.3,1.749,1.749,0,0,0-1.3-.405,1.942,1.942,0,0,0-1.787,1.016V19h-2.822V8.434Zm11.982-2.6v2.6h1.807V10.5h-1.807v5.273a1.259,1.259,0,0,0,.225.84,1.128,1.128,0,0,0,.859.254,4.5,4.5,0,0,0,.83-.068v2.139a5.81,5.81,0,0,1-1.709.254q-2.969,0-3.027-3V10.5h-1.543V8.434H191.7v-2.6ZM202.768,19.2a5.187,5.187,0,0,1-3.784-1.426,5.068,5.068,0,0,1-1.46-3.8V13.7a6.383,6.383,0,0,1,.615-2.847,4.515,4.515,0,0,1,1.743-1.934,4.893,4.893,0,0,1,2.573-.679,4.385,4.385,0,0,1,3.413,1.367,5.555,5.555,0,0,1,1.245,3.877v1.152h-6.729a2.622,2.622,0,0,0,.825,1.66,2.5,2.5,0,0,0,1.743.625,3.046,3.046,0,0,0,2.549-1.182l1.387,1.553a4.237,4.237,0,0,1-1.719,1.4A5.639,5.639,0,0,1,202.768,19.2Zm-.322-8.682a1.764,1.764,0,0,0-1.362.569,2.946,2.946,0,0,0-.669,1.628h3.926v-.226a2.1,2.1,0,0,0-.508-1.457A1.819,1.819,0,0,0,202.446,10.514Zm11.992,5.566a.909.909,0,0,0-.513-.815,5.824,5.824,0,0,0-1.646-.532q-3.77-.791-3.77-3.2a2.9,2.9,0,0,1,1.167-2.349,4.708,4.708,0,0,1,3.052-.942,5.067,5.067,0,0,1,3.218.947,2.985,2.985,0,0,1,1.206,2.461h-2.822a1.366,1.366,0,0,0-.391-1,1.653,1.653,0,0,0-1.221-.4,1.689,1.689,0,0,0-1.1.322,1.017,1.017,0,0,0-.391.82.87.87,0,0,0,.444.757,4.571,4.571,0,0,0,1.5.5,12.244,12.244,0,0,1,1.777.474,2.92,2.92,0,0,1,2.236,2.842,2.756,2.756,0,0,1-1.24,2.339,5.35,5.35,0,0,1-3.2.894,5.588,5.588,0,0,1-2.358-.474,3.957,3.957,0,0,1-1.616-1.3,3.018,3.018,0,0,1-.586-1.782h2.676a1.473,1.473,0,0,0,.557,1.152,2.208,2.208,0,0,0,1.387.4,2.044,2.044,0,0,0,1.226-.308A.957.957,0,0,0,214.438,16.08Z" transform="translate(625 1161.929)" fill="#fff"/>
    </g>
    <g id="Grupo_1076752" data-name="Grupo 1076752" transform="translate(21 462.16)">
      <g id="Grupo_1076693-2" data-name="Grupo 1076693" transform="translate(580 1143)">
        <path id="Sustracción_7-2" data-name="Sustracción 7" d="M350.093,67.527H0V8.226H37.846L44.778,0H397.373V55.249H356.847l-6.754,12.278Z" transform="translate(0 0)" fill="#03386e"/>
        <path id="Trazado_214008-2" data-name="Trazado 214008" d="M.309,1.311H36.828V9.835H-4Z" transform="translate(361.407 57.691)" fill="#03386e" opacity="0.4"/>
      </g>
      <path id="Trazado_614254" data-name="Trazado 614254" d="M44.726,19H41.8V12.906H36.084V19h-2.93V4.781h2.93v5.762H41.8V4.781h2.93Zm8.5,0a3.134,3.134,0,0,1-.283-.947A3.415,3.415,0,0,1,50.273,19.2a3.752,3.752,0,0,1-2.573-.9,2.89,2.89,0,0,1-1.021-2.266,2.986,2.986,0,0,1,1.245-2.578,6.144,6.144,0,0,1,3.6-.908h1.3v-.605a1.741,1.741,0,0,0-.376-1.172,1.479,1.479,0,0,0-1.187-.439,1.682,1.682,0,0,0-1.118.342,1.161,1.161,0,0,0-.405.938H46.914a2.835,2.835,0,0,1,.566-1.7,3.744,3.744,0,0,1,1.6-1.226,5.837,5.837,0,0,1,2.324-.444,4.611,4.611,0,0,1,3.1.981,3.433,3.433,0,0,1,1.147,2.759v4.58a5.052,5.052,0,0,0,.42,2.275V19Zm-2.334-1.963a2.431,2.431,0,0,0,1.152-.278,1.828,1.828,0,0,0,.781-.747V14.2H51.767q-2.119,0-2.256,1.465l-.01.166a1.13,1.13,0,0,0,.371.869A1.441,1.441,0,0,0,50.888,17.037Zm16.455-3.223a6.4,6.4,0,0,1-1.084,3.96A3.591,3.591,0,0,1,63.232,19.2a3.3,3.3,0,0,1-2.744-1.318L60.361,19H57.822V4h2.822V9.381a3.214,3.214,0,0,1,2.568-1.143,3.62,3.62,0,0,1,3.032,1.421,6.408,6.408,0,0,1,1.1,4Zm-2.822-.205a4.2,4.2,0,0,0-.508-2.339,1.717,1.717,0,0,0-1.514-.737,1.862,1.862,0,0,0-1.855,1.1v4.17a1.887,1.887,0,0,0,1.875,1.113,1.742,1.742,0,0,0,1.8-1.348A6.952,6.952,0,0,0,64.521,13.609ZM72.06,19H69.228V8.434H72.06Zm-3-13.3a1.39,1.39,0,0,1,.425-1.045,1.831,1.831,0,0,1,2.31,0,1.382,1.382,0,0,1,.43,1.045,1.386,1.386,0,0,1-.435,1.055,1.81,1.81,0,0,1-2.295,0A1.386,1.386,0,0,1,69.062,5.7Zm8.3,13.3H74.531V4h2.832Zm5.3,0H79.834V8.434h2.832Zm-3-13.3a1.39,1.39,0,0,1,.425-1.045,1.831,1.831,0,0,1,2.31,0,1.382,1.382,0,0,1,.43,1.045A1.386,1.386,0,0,1,82.4,6.754a1.81,1.81,0,0,1-2.295,0A1.386,1.386,0,0,1,79.668,5.7Zm8.7.137v2.6h1.807V10.5H88.369v5.273a1.259,1.259,0,0,0,.225.84,1.128,1.128,0,0,0,.859.254,4.5,4.5,0,0,0,.83-.068v2.139a5.81,5.81,0,0,1-1.709.254q-2.969,0-3.027-3V10.5H84V8.434h1.543v-2.6ZM97.871,19a3.134,3.134,0,0,1-.283-.947A3.415,3.415,0,0,1,94.922,19.2a3.752,3.752,0,0,1-2.573-.9,2.89,2.89,0,0,1-1.021-2.266,2.986,2.986,0,0,1,1.245-2.578,6.144,6.144,0,0,1,3.6-.908h1.3v-.605a1.741,1.741,0,0,0-.376-1.172,1.479,1.479,0,0,0-1.187-.439,1.682,1.682,0,0,0-1.118.342,1.161,1.161,0,0,0-.405.938H91.562a2.835,2.835,0,0,1,.566-1.7,3.744,3.744,0,0,1,1.6-1.226,5.837,5.837,0,0,1,2.324-.444,4.611,4.611,0,0,1,3.1.981,3.433,3.433,0,0,1,1.147,2.759v4.58a5.052,5.052,0,0,0,.42,2.275V19Zm-2.334-1.963a2.431,2.431,0,0,0,1.152-.278,1.828,1.828,0,0,0,.781-.747V14.2H96.416q-2.119,0-2.256,1.465l-.01.166a1.13,1.13,0,0,0,.371.869A1.441,1.441,0,0,0,95.537,17.037Zm6.494-3.4A6.368,6.368,0,0,1,103.139,9.7a3.6,3.6,0,0,1,3.032-1.465,3.236,3.236,0,0,1,2.549,1.152V4h2.832V19H109l-.137-1.123a3.321,3.321,0,0,1-2.715,1.318,3.587,3.587,0,0,1-2.993-1.47A6.573,6.573,0,0,1,102.031,13.639Zm2.822.21a4.171,4.171,0,0,0,.518,2.279,1.686,1.686,0,0,0,1.5.792,1.888,1.888,0,0,0,1.846-1.105V11.638a1.861,1.861,0,0,0-1.826-1.105Q104.853,10.533,104.853,13.849Zm8.447-.23a6.266,6.266,0,0,1,.605-2.8,4.432,4.432,0,0,1,1.743-1.9,5.086,5.086,0,0,1,2.642-.674,4.812,4.812,0,0,1,3.491,1.309,5.252,5.252,0,0,1,1.509,3.555l.02.723a5.523,5.523,0,0,1-1.357,3.9,5.261,5.261,0,0,1-7.29,0,5.62,5.62,0,0,1-1.362-3.984Zm2.822.2a3.95,3.95,0,0,0,.566,2.3,2.035,2.035,0,0,0,3.223.01,4.322,4.322,0,0,0,.576-2.518,3.91,3.91,0,0,0-.576-2.289,1.873,1.873,0,0,0-1.621-.812,1.842,1.842,0,0,0-1.6.807A4.395,4.395,0,0,0,116.123,13.819Zm14.863-2.739A7.667,7.667,0,0,0,129.97,11a2.067,2.067,0,0,0-2.1,1.084V19h-2.822V8.434h2.666l.078,1.26a2.615,2.615,0,0,1,2.354-1.455,2.957,2.957,0,0,1,.879.127Zm6.035,8.115a5.187,5.187,0,0,1-3.784-1.426,5.068,5.068,0,0,1-1.46-3.8V13.7a6.383,6.383,0,0,1,.615-2.847,4.515,4.515,0,0,1,1.743-1.934,4.893,4.893,0,0,1,2.573-.679,4.385,4.385,0,0,1,3.413,1.367,5.555,5.555,0,0,1,1.245,3.877v1.152h-6.729a2.622,2.622,0,0,0,.825,1.66,2.5,2.5,0,0,0,1.743.625,3.046,3.046,0,0,0,2.549-1.182l1.387,1.553a4.237,4.237,0,0,1-1.719,1.4A5.639,5.639,0,0,1,137.021,19.2Zm-.322-8.682a1.764,1.764,0,0,0-1.362.569,2.946,2.946,0,0,0-.669,1.628h3.926v-.226a2.1,2.1,0,0,0-.508-1.457A1.819,1.819,0,0,0,136.7,10.514Zm11.992,5.566a.909.909,0,0,0-.513-.815,5.824,5.824,0,0,0-1.646-.532q-3.77-.791-3.77-3.2a2.9,2.9,0,0,1,1.167-2.349,4.708,4.708,0,0,1,3.052-.942,5.067,5.067,0,0,1,3.218.947,2.985,2.985,0,0,1,1.206,2.461h-2.822a1.366,1.366,0,0,0-.391-1,1.653,1.653,0,0,0-1.221-.4,1.689,1.689,0,0,0-1.1.322,1.017,1.017,0,0,0-.391.82.87.87,0,0,0,.444.757,4.571,4.571,0,0,0,1.5.5,12.244,12.244,0,0,1,1.777.474,2.92,2.92,0,0,1,2.236,2.842A2.756,2.756,0,0,1,150.2,18.3a5.35,5.35,0,0,1-3.2.894,5.588,5.588,0,0,1-2.358-.474,3.957,3.957,0,0,1-1.616-1.3,3.018,3.018,0,0,1-.586-1.782h2.676a1.473,1.473,0,0,0,.557,1.152,2.208,2.208,0,0,0,1.387.4,2.044,2.044,0,0,0,1.226-.308A.957.957,0,0,0,148.691,16.08Zm12.92-10.244v2.6h1.807V10.5h-1.807v5.273a1.259,1.259,0,0,0,.225.84,1.128,1.128,0,0,0,.859.254,4.5,4.5,0,0,0,.83-.068v2.139a5.81,5.81,0,0,1-1.709.254q-2.969,0-3.027-3V10.5h-1.543V8.434h1.543v-2.6Zm9.316,5.244A7.667,7.667,0,0,0,169.912,11a2.067,2.067,0,0,0-2.1,1.084V19H164.99V8.434h2.666l.078,1.26a2.615,2.615,0,0,1,2.354-1.455,2.957,2.957,0,0,1,.879.127ZM178.115,19a3.134,3.134,0,0,1-.283-.947,3.415,3.415,0,0,1-2.666,1.143,3.752,3.752,0,0,1-2.573-.9,2.889,2.889,0,0,1-1.021-2.266,2.986,2.986,0,0,1,1.245-2.578,6.144,6.144,0,0,1,3.6-.908h1.3v-.605a1.741,1.741,0,0,0-.376-1.172,1.479,1.479,0,0,0-1.187-.439,1.682,1.682,0,0,0-1.118.342,1.161,1.161,0,0,0-.405.938h-2.822a2.835,2.835,0,0,1,.566-1.7,3.744,3.744,0,0,1,1.6-1.226,5.837,5.837,0,0,1,2.324-.444,4.611,4.611,0,0,1,3.1.981,3.433,3.433,0,0,1,1.147,2.759v4.58a5.052,5.052,0,0,0,.42,2.275V19Zm-2.334-1.963a2.431,2.431,0,0,0,1.152-.278,1.828,1.828,0,0,0,.781-.747V14.2H176.66q-2.119,0-2.256,1.465l-.01.166a1.13,1.13,0,0,0,.371.869A1.441,1.441,0,0,0,175.781,17.037Zm9.531-8.6.088,1.221a3.689,3.689,0,0,1,3.037-1.416,3.066,3.066,0,0,1,2.5.986,4.6,4.6,0,0,1,.84,2.949V19h-2.822V12.242a1.831,1.831,0,0,0-.391-1.3,1.749,1.749,0,0,0-1.3-.405,1.942,1.942,0,0,0-1.787,1.016V19h-2.822V8.434Zm14.326,7.646a.909.909,0,0,0-.513-.815,5.824,5.824,0,0,0-1.646-.532q-3.77-.791-3.77-3.2a2.9,2.9,0,0,1,1.167-2.349,4.708,4.708,0,0,1,3.052-.942,5.067,5.067,0,0,1,3.218.947,2.985,2.985,0,0,1,1.206,2.461h-2.822a1.366,1.366,0,0,0-.391-1,1.653,1.653,0,0,0-1.221-.4,1.689,1.689,0,0,0-1.1.322,1.017,1.017,0,0,0-.391.82.87.87,0,0,0,.444.757,4.571,4.571,0,0,0,1.5.5,12.244,12.244,0,0,1,1.777.474,2.92,2.92,0,0,1,2.236,2.842,2.756,2.756,0,0,1-1.24,2.339,5.35,5.35,0,0,1-3.2.894,5.588,5.588,0,0,1-2.358-.474,3.957,3.957,0,0,1-1.616-1.3,3.018,3.018,0,0,1-.586-1.782h2.676a1.473,1.473,0,0,0,.557,1.152,2.208,2.208,0,0,0,1.387.4,2.044,2.044,0,0,0,1.226-.308A.957.957,0,0,0,199.638,16.08Zm8.516-.527,1.963-7.119h2.949L209.5,19h-2.7L203.242,8.434h2.949ZM219.043,19.2a5.187,5.187,0,0,1-3.784-1.426,5.068,5.068,0,0,1-1.46-3.8V13.7a6.383,6.383,0,0,1,.615-2.847,4.515,4.515,0,0,1,1.743-1.934,4.893,4.893,0,0,1,2.573-.679,4.385,4.385,0,0,1,3.413,1.367,5.555,5.555,0,0,1,1.245,3.877v1.152H216.66a2.622,2.622,0,0,0,.825,1.66,2.5,2.5,0,0,0,1.743.625,3.046,3.046,0,0,0,2.549-1.182l1.387,1.553a4.237,4.237,0,0,1-1.719,1.4A5.639,5.639,0,0,1,219.043,19.2Zm-.322-8.682a1.764,1.764,0,0,0-1.362.569,2.946,2.946,0,0,0-.669,1.628h3.926v-.226a2.1,2.1,0,0,0-.508-1.457A1.819,1.819,0,0,0,218.72,10.514Zm12.207.566A7.667,7.667,0,0,0,229.912,11a2.067,2.067,0,0,0-2.1,1.084V19H224.99V8.434h2.666l.078,1.26a2.615,2.615,0,0,1,2.354-1.455,2.957,2.957,0,0,1,.879.127Zm7.08,5a.909.909,0,0,0-.513-.815,5.824,5.824,0,0,0-1.646-.532q-3.77-.791-3.77-3.2a2.9,2.9,0,0,1,1.167-2.349,4.708,4.708,0,0,1,3.052-.942,5.067,5.067,0,0,1,3.218.947,2.985,2.985,0,0,1,1.206,2.461H237.9a1.366,1.366,0,0,0-.391-1,1.653,1.653,0,0,0-1.221-.4,1.689,1.689,0,0,0-1.1.322,1.017,1.017,0,0,0-.391.82.87.87,0,0,0,.444.757,4.571,4.571,0,0,0,1.5.5,12.244,12.244,0,0,1,1.777.474,2.92,2.92,0,0,1,2.236,2.842,2.756,2.756,0,0,1-1.24,2.339,5.35,5.35,0,0,1-3.2.894,5.588,5.588,0,0,1-2.358-.474,3.957,3.957,0,0,1-1.616-1.3,3.018,3.018,0,0,1-.586-1.782h2.676a1.473,1.473,0,0,0,.557,1.152,2.208,2.208,0,0,0,1.387.4,2.044,2.044,0,0,0,1.226-.308A.957.957,0,0,0,238.008,16.08ZM248.691,19a3.134,3.134,0,0,1-.283-.947,3.415,3.415,0,0,1-2.666,1.143,3.752,3.752,0,0,1-2.573-.9,2.889,2.889,0,0,1-1.021-2.266,2.986,2.986,0,0,1,1.245-2.578,6.144,6.144,0,0,1,3.6-.908h1.3v-.605a1.741,1.741,0,0,0-.376-1.172,1.479,1.479,0,0,0-1.187-.439,1.682,1.682,0,0,0-1.118.342,1.161,1.161,0,0,0-.405.938h-2.822a2.835,2.835,0,0,1,.566-1.7,3.744,3.744,0,0,1,1.6-1.226,5.837,5.837,0,0,1,2.324-.444,4.611,4.611,0,0,1,3.1.981,3.433,3.433,0,0,1,1.147,2.759v4.58a5.052,5.052,0,0,0,.42,2.275V19Zm-2.334-1.963a2.431,2.431,0,0,0,1.152-.278,1.828,1.828,0,0,0,.781-.747V14.2h-1.055q-2.119,0-2.256,1.465l-.01.166a1.13,1.13,0,0,0,.371.869A1.441,1.441,0,0,0,246.357,17.037ZM256.269,19h-2.832V4h2.832Zm7.188.2a5.187,5.187,0,0,1-3.784-1.426,5.068,5.068,0,0,1-1.46-3.8V13.7a6.383,6.383,0,0,1,.615-2.847,4.515,4.515,0,0,1,1.743-1.934,4.893,4.893,0,0,1,2.573-.679,4.385,4.385,0,0,1,3.413,1.367,5.555,5.555,0,0,1,1.245,3.877v1.152h-6.729a2.622,2.622,0,0,0,.825,1.66,2.5,2.5,0,0,0,1.743.625,3.046,3.046,0,0,0,2.549-1.182l1.387,1.553a4.237,4.237,0,0,1-1.719,1.4A5.639,5.639,0,0,1,263.457,19.2Zm-.322-8.682a1.764,1.764,0,0,0-1.362.569,2.946,2.946,0,0,0-.669,1.628h3.926v-.226a2.1,2.1,0,0,0-.508-1.457A1.819,1.819,0,0,0,263.134,10.514Zm11.992,5.566a.909.909,0,0,0-.513-.815,5.824,5.824,0,0,0-1.646-.532q-3.77-.791-3.77-3.2a2.9,2.9,0,0,1,1.167-2.349,4.708,4.708,0,0,1,3.052-.942,5.067,5.067,0,0,1,3.218.947,2.985,2.985,0,0,1,1.206,2.461h-2.822a1.366,1.366,0,0,0-.391-1,1.653,1.653,0,0,0-1.221-.4,1.689,1.689,0,0,0-1.1.322,1.017,1.017,0,0,0-.391.82.87.87,0,0,0,.444.757,4.571,4.571,0,0,0,1.5.5,12.244,12.244,0,0,1,1.777.474,2.92,2.92,0,0,1,2.236,2.842,2.756,2.756,0,0,1-1.24,2.339,5.35,5.35,0,0,1-3.2.894,5.588,5.588,0,0,1-2.358-.474,3.957,3.957,0,0,1-1.616-1.3,3.018,3.018,0,0,1-.586-1.782h2.676a1.473,1.473,0,0,0,.557,1.152,2.208,2.208,0,0,0,1.387.4,2.044,2.044,0,0,0,1.226-.308A.957.957,0,0,0,275.127,16.08Z" transform="translate(625 1161.929)" fill="#fff"/>
    </g>
    <path id="Trazado_613470" data-name="Trazado 613470" d="M0,0V45.125H420.014V.229" transform="translate(1010.014 1325.458) rotate(180)" fill="none" stroke="#18b8c4" stroke-width="2"/>
    <path id="Trazado_613471" data-name="Trazado 613471" d="M0,0V51.188H420.014V.259" transform="translate(590 1497.607)" fill="none" stroke="#18b8c4" stroke-width="2"/>
    <path id="Trazado_613472" data-name="Trazado 613472" d="M-12271.8-9529.776v34.807" transform="translate(13073.302 10775.304)" fill="none" stroke="#18b8c4" stroke-width="2"/>
    <path id="Trazado_613473" data-name="Trazado 613473" d="M-12271.8-9529.773v123.956" transform="translate(13073.302 11004.703)" fill="none" stroke="#18b8c4" stroke-width="2"/>
    <path id="Trazado_613474" data-name="Trazado 613474" d="M-12271.8-9529.773v33.694" transform="translate(13073.302 11128.659)" fill="none" stroke="#18b8c4" stroke-width="2"/>
    <g id="Grupo_1076753" data-name="Grupo 1076753" transform="translate(-105 533.472)">
      <g id="Grupo_154234" data-name="Grupo 154234" transform="translate(600 791.986)">
        <path id="Sustracción_4" data-name="Sustracción 4" d="M141.1,48.753H0L-.149,1.958l4.381-.051c.025,1.533.094,2.594.095,2.6H32.108l1.942-2.953L167.586,0l-.149,41.847H145.265L141.1,48.753Z" transform="translate(21.624 2.495)" fill="#e1efe3"/>
        <path id="Trazado_614249" data-name="Trazado 614249" d="M8.381,4.708H5.332V13H3.281V4.708H.273V3.047H8.381ZM11.73,13H9.68V3.047H11.73Zm9.714-3.315a3.522,3.522,0,0,1-1.186,2.529,4.165,4.165,0,0,1-2.82.923,3.745,3.745,0,0,1-3.011-1.289,5.284,5.284,0,0,1-1.1-3.538V7.7a5.966,5.966,0,0,1,.506-2.529,3.791,3.791,0,0,1,1.446-1.678,4.05,4.05,0,0,1,2.184-.584,4.058,4.058,0,0,1,2.775.923,3.785,3.785,0,0,1,1.217,2.591H19.407a2.079,2.079,0,0,0-.537-1.4,1.987,1.987,0,0,0-1.4-.434,1.742,1.742,0,0,0-1.535.735,4.118,4.118,0,0,0-.523,2.28v.752a4.408,4.408,0,0,0,.489,2.358,1.71,1.71,0,0,0,1.542.745,2.025,2.025,0,0,0,1.418-.434,1.961,1.961,0,0,0,.537-1.343ZM32.806,9.37a4.436,4.436,0,0,1-.776,2.738,2.488,2.488,0,0,1-2.1,1.029,2.3,2.3,0,0,1-1.812-.779v3.486H26.147V5.6h1.832l.068.725a2.322,2.322,0,0,1,1.873-.861,2.5,2.5,0,0,1,2.126,1.012,4.556,4.556,0,0,1,.759,2.789ZM30.83,9.227a2.911,2.911,0,0,0-.366-1.593A1.191,1.191,0,0,0,29.4,7.073a1.294,1.294,0,0,0-1.278.711v3.028a1.316,1.316,0,0,0,1.292.731Q30.83,11.544,30.83,9.227ZM38.315,13a2.194,2.194,0,0,1-.2-.663,2.39,2.39,0,0,1-1.866.8,2.626,2.626,0,0,1-1.8-.629,2.023,2.023,0,0,1-.714-1.586,2.09,2.09,0,0,1,.872-1.8,4.3,4.3,0,0,1,2.519-.636h.909V8.058a1.219,1.219,0,0,0-.263-.82,1.035,1.035,0,0,0-.831-.308,1.177,1.177,0,0,0-.783.239.813.813,0,0,0-.284.656H33.9a1.984,1.984,0,0,1,.4-1.189,2.621,2.621,0,0,1,1.121-.858,4.086,4.086,0,0,1,1.627-.311,3.228,3.228,0,0,1,2.17.687,2.4,2.4,0,0,1,.8,1.931v3.206a3.536,3.536,0,0,0,.294,1.593V13Zm-1.634-1.374a1.7,1.7,0,0,0,.807-.195,1.28,1.28,0,0,0,.547-.523V9.637H37.3q-1.483,0-1.579,1.025l-.007.116a.791.791,0,0,0,.26.608A1.009,1.009,0,0,0,36.682,11.626Zm9.01-4.17A5.367,5.367,0,0,0,44.98,7.4a1.447,1.447,0,0,0-1.47.759V13H41.535V5.6H43.4l.055.882A1.831,1.831,0,0,1,45.1,5.467a2.07,2.07,0,0,1,.615.089ZM50.723,13a2.194,2.194,0,0,1-.2-.663,2.39,2.39,0,0,1-1.866.8,2.626,2.626,0,0,1-1.8-.629,2.023,2.023,0,0,1-.714-1.586,2.09,2.09,0,0,1,.872-1.8,4.3,4.3,0,0,1,2.519-.636h.909V8.058a1.219,1.219,0,0,0-.263-.82,1.035,1.035,0,0,0-.831-.308,1.177,1.177,0,0,0-.783.239.813.813,0,0,0-.284.656H46.307a1.984,1.984,0,0,1,.4-1.189,2.621,2.621,0,0,1,1.121-.858,4.086,4.086,0,0,1,1.627-.311,3.228,3.228,0,0,1,2.17.687,2.4,2.4,0,0,1,.8,1.931v3.206a3.536,3.536,0,0,0,.294,1.593V13Zm-1.634-1.374a1.7,1.7,0,0,0,.807-.195,1.28,1.28,0,0,0,.547-.523V9.637H49.7q-1.483,0-1.579,1.025l-.007.116a.791.791,0,0,0,.26.608A1.009,1.009,0,0,0,49.089,11.626Zm11.744,1.511a3.631,3.631,0,0,1-2.649-1,3.548,3.548,0,0,1-1.022-2.659V9.288A4.468,4.468,0,0,1,57.593,7.3a3.161,3.161,0,0,1,1.22-1.354,3.425,3.425,0,0,1,1.8-.475A3.07,3.07,0,0,1,63,6.424a3.889,3.889,0,0,1,.872,2.714v.807h-4.71a1.835,1.835,0,0,0,.578,1.162,1.746,1.746,0,0,0,1.22.438,2.132,2.132,0,0,0,1.784-.827l.971,1.087a2.966,2.966,0,0,1-1.2.981A3.947,3.947,0,0,1,60.833,13.137ZM60.607,7.06a1.234,1.234,0,0,0-.954.4,2.062,2.062,0,0,0-.468,1.14h2.748V8.44a1.471,1.471,0,0,0-.355-1.02A1.274,1.274,0,0,0,60.607,7.06ZM67.081,13H65.1V2.5h1.982ZM78.313,8.687H74.375v2.666H79V13H72.324V3.047h6.658V4.708H74.375V7.08h3.938Zm5.763,2.27a.637.637,0,0,0-.359-.571,4.077,4.077,0,0,0-1.152-.373q-2.639-.554-2.639-2.242a2.032,2.032,0,0,1,.817-1.644,3.3,3.3,0,0,1,2.136-.66,3.547,3.547,0,0,1,2.252.663,2.09,2.09,0,0,1,.844,1.723H84a.956.956,0,0,0-.273-.7,1.157,1.157,0,0,0-.854-.277A1.182,1.182,0,0,0,82.1,7.1a.712.712,0,0,0-.273.574.609.609,0,0,0,.311.53,3.2,3.2,0,0,0,1.049.349,8.571,8.571,0,0,1,1.244.332A2.044,2.044,0,0,1,86,10.874a1.929,1.929,0,0,1-.868,1.637,3.745,3.745,0,0,1-2.242.625,3.912,3.912,0,0,1-1.651-.332A2.77,2.77,0,0,1,80.1,11.9a2.113,2.113,0,0,1-.41-1.248h1.873a1.031,1.031,0,0,0,.39.807,1.546,1.546,0,0,0,.971.28,1.43,1.43,0,0,0,.858-.215A.67.67,0,0,0,84.075,10.956Zm5.558-7.171V5.6H90.9V7.053H89.633v3.691a.881.881,0,0,0,.157.588.79.79,0,0,0,.6.178,3.15,3.15,0,0,0,.581-.048v1.5a4.067,4.067,0,0,1-1.2.178,1.886,1.886,0,0,1-2.119-2.1V7.053h-1.08V5.6h1.08V3.785ZM96.284,13a2.194,2.194,0,0,1-.2-.663,2.39,2.39,0,0,1-1.866.8,2.626,2.626,0,0,1-1.8-.629,2.023,2.023,0,0,1-.714-1.586,2.09,2.09,0,0,1,.872-1.8,4.3,4.3,0,0,1,2.519-.636H96V8.058a1.219,1.219,0,0,0-.263-.82,1.035,1.035,0,0,0-.831-.308,1.177,1.177,0,0,0-.783.239.813.813,0,0,0-.284.656H91.868a1.985,1.985,0,0,1,.4-1.189,2.621,2.621,0,0,1,1.121-.858,4.086,4.086,0,0,1,1.627-.311,3.228,3.228,0,0,1,2.17.687,2.4,2.4,0,0,1,.8,1.931v3.206a3.536,3.536,0,0,0,.294,1.593V13ZM94.65,11.626a1.7,1.7,0,0,0,.807-.195A1.28,1.28,0,0,0,96,10.908V9.637h-.738q-1.483,0-1.579,1.025l-.007.116a.791.791,0,0,0,.26.608A1.009,1.009,0,0,0,94.65,11.626ZM99.2,9.247a4.457,4.457,0,0,1,.776-2.755,2.517,2.517,0,0,1,2.123-1.025,2.265,2.265,0,0,1,1.784.807V2.5h1.982V13h-1.784l-.1-.786a2.325,2.325,0,0,1-1.9.923,2.511,2.511,0,0,1-2.1-1.029A4.6,4.6,0,0,1,99.2,9.247Zm1.976.147a2.92,2.92,0,0,0,.362,1.6,1.18,1.18,0,0,0,1.053.555,1.322,1.322,0,0,0,1.292-.774V7.847a1.3,1.3,0,0,0-1.278-.774Q101.172,7.073,101.172,9.394Zm5.913-.161a4.387,4.387,0,0,1,.424-1.962,3.1,3.1,0,0,1,1.22-1.333,3.56,3.56,0,0,1,1.849-.472,3.368,3.368,0,0,1,2.444.916,3.676,3.676,0,0,1,1.056,2.488l.014.506a3.866,3.866,0,0,1-.95,2.731,3.683,3.683,0,0,1-5.1,0,3.934,3.934,0,0,1-.954-2.789Zm1.976.14a2.765,2.765,0,0,0,.4,1.612,1.424,1.424,0,0,0,2.256.007,3.025,3.025,0,0,0,.4-1.763,2.737,2.737,0,0,0-.4-1.6,1.311,1.311,0,0,0-1.135-.568,1.29,1.29,0,0,0-1.121.565A3.076,3.076,0,0,0,109.061,9.374Z" transform="translate(54 18.921)" fill="#12263f"/>
        <path id="Trazado_213850" data-name="Trazado 213850" d="M-1.281,1.311H21.763V6.69H-4Z" transform="translate(168.238 44.364)" fill="#0c5e46" opacity="0.5"/>
        <path id="Trazado_213851" data-name="Trazado 213851" d="M0,0H46.226V45.674H0Z" fill="url(#linear-gradient-2)"/>
      </g>
      <g id="Grupo_154240" data-name="Grupo 154240" transform="translate(622.108 809.356)">
        <path id="Trazado_213855" data-name="Trazado 213855" d="M0,0,2.5,3.327v23.7H0Z" transform="translate(24.119)" fill="#0c5e46"/>
        <path id="Trazado_213856" data-name="Trazado 213856" d="M0,26.614l2.5-3.327V0H0Z" transform="translate(26.614 26.614) rotate(90)" fill="#0c5e46"/>
      </g>
      <g id="Grupo_1076701" data-name="Grupo 1076701" transform="translate(611 801.171)">
        <g id="Grupo_1076698" data-name="Grupo 1076698">
          <g id="Grupo_1076697" data-name="Grupo 1076697" transform="translate(0 0)">
            <path id="Trazado_613455" data-name="Trazado 613455" d="M24.7,24.568v-.433a1.3,1.3,0,0,0-.867-1.217V22.4a1.3,1.3,0,0,0-.867-1.22V14.52a1.3,1.3,0,0,0,.867-1.22v-.764l.79-1.58,1.25-1.25a.433.433,0,0,0-.081-.676L13.228,1.359a.432.432,0,0,0-.451,0L.208,9.029a.433.433,0,0,0-.081.676l1.25,1.25.79,1.58V13.3a1.3,1.3,0,0,0,.867,1.22v6.661a1.3,1.3,0,0,0-.867,1.22v.517A1.3,1.3,0,0,0,1.3,24.135v.433a1.3,1.3,0,0,0-1.3,1.3v.867a.433.433,0,0,0,.433.433H25.571A.433.433,0,0,0,26,26.735h0v-.867A1.3,1.3,0,0,0,24.7,24.568ZM22.971,13.3a.434.434,0,0,1-.433.433h-2.6A.434.434,0,0,1,19.5,13.3v-.433h3.467V13.3ZM10.835,21.181V14.52A1.3,1.3,0,0,0,11.7,13.3v-.433h2.6V13.3a1.3,1.3,0,0,0,.867,1.22v6.661A1.3,1.3,0,0,0,14.3,22.4v.433H11.7V22.4A1.3,1.3,0,0,0,10.835,21.181ZM3.468,13.733a.434.434,0,0,1-.433-.433v-.433H6.5V13.3a.434.434,0,0,1-.433.433Zm2.167.867v6.5H3.9V14.6Zm.867-.08a1.293,1.293,0,0,0,.433-.258,1.293,1.293,0,0,0,.433.258v6.661a1.293,1.293,0,0,0-.433.258,1.294,1.294,0,0,0-.433-.258ZM7.368,22.4a.434.434,0,0,1,.433-.433h2.6a.434.434,0,0,1,.433.433v.433H7.368Zm.867-1.3V14.6H9.969v6.5ZM10.4,13.733H7.8a.434.434,0,0,1-.433-.433v-.433h3.467V13.3A.434.434,0,0,1,10.4,13.733ZM15.169,22.4a.434.434,0,0,1,.433-.433h2.6a.434.434,0,0,1,.433.433v.433H15.169Zm.867-1.3V14.6H17.77v6.5ZM18.2,13.733H15.6a.434.434,0,0,1-.433-.433v-.433h3.467V13.3A.434.434,0,0,1,18.2,13.733Zm.433.787a1.293,1.293,0,0,0,.433-.258,1.293,1.293,0,0,0,.433.258v6.661a1.293,1.293,0,0,0-.433.258,1.294,1.294,0,0,0-.433-.258ZM19.5,22.4a.434.434,0,0,1,.433-.433h2.6a.434.434,0,0,1,.433.433v.433H19.5V22.4Zm.867-1.3V14.6H22.1v6.5ZM1.8,10.151,1.13,9.482,13,2.237,24.875,9.482l-.669.669L13.23,3.4a.433.433,0,0,0-.455,0Zm20.941.115H3.265L13,4.274ZM2.869,12l-.433-.867H23.57L23.136,12Zm.165,10.4a.434.434,0,0,1,.433-.433h2.6A.434.434,0,0,1,6.5,22.4v.433H3.034Zm22.1,3.9H.867v-.433a.434.434,0,0,1,.433-.433h9.1a.433.433,0,1,0,0-.867H2.167v-.433a.443.443,0,0,1,.45-.433H23.387a.443.443,0,0,1,.45.433v.433H15.6a.433.433,0,1,0,0,.867h9.1a.434.434,0,0,1,.433.433Z" transform="translate(0 -1.296)"/>
          </g>
        </g>
        <g id="Grupo_1076700" data-name="Grupo 1076700" transform="translate(11.269 4.419)">
          <g id="Grupo_1076699" data-name="Grupo 1076699">
            <path id="Trazado_613456" data-name="Trazado 613456" d="M223.6,88.309a1.734,1.734,0,1,0,1.734,1.734A1.735,1.735,0,0,0,223.6,88.309Zm0,2.6a.867.867,0,1,1,.867-.867A.867.867,0,0,1,223.6,90.909Z" transform="translate(-221.87 -88.309)"/>
          </g>
        </g>
      </g>
    </g>
    <g id="Grupo_1076754" data-name="Grupo 1076754" transform="translate(315 526.793)">
      <g id="Grupo_154234-2" data-name="Grupo 154234" transform="translate(600 791.986)">
        <path id="Sustracción_4-2" data-name="Sustracción 4" d="M141.1,48.753H0L-.149,1.958l4.381-.051c.025,1.533.094,2.594.095,2.6H32.108l1.942-2.953L167.586,0l-.149,41.847H145.265L141.1,48.753Z" transform="translate(21.624 2.495)" fill="#e1efe3"/>
        <path id="Trazado_614250" data-name="Trazado 614250" d="M8.381,4.708H5.332V13H3.281V4.708H.273V3.047H8.381ZM11.73,13H9.68V3.047H11.73Zm9.714-3.315a3.522,3.522,0,0,1-1.186,2.529,4.165,4.165,0,0,1-2.82.923,3.745,3.745,0,0,1-3.011-1.289,5.284,5.284,0,0,1-1.1-3.538V7.7a5.966,5.966,0,0,1,.506-2.529,3.791,3.791,0,0,1,1.446-1.678,4.05,4.05,0,0,1,2.184-.584,4.058,4.058,0,0,1,2.775.923,3.785,3.785,0,0,1,1.217,2.591H19.407a2.079,2.079,0,0,0-.537-1.4,1.987,1.987,0,0,0-1.4-.434,1.742,1.742,0,0,0-1.535.735,4.118,4.118,0,0,0-.523,2.28v.752a4.408,4.408,0,0,0,.489,2.358,1.71,1.71,0,0,0,1.542.745,2.025,2.025,0,0,0,1.418-.434,1.961,1.961,0,0,0,.537-1.343ZM32.806,9.37a4.436,4.436,0,0,1-.776,2.738,2.488,2.488,0,0,1-2.1,1.029,2.3,2.3,0,0,1-1.812-.779v3.486H26.147V5.6h1.832l.068.725a2.322,2.322,0,0,1,1.873-.861,2.5,2.5,0,0,1,2.126,1.012,4.556,4.556,0,0,1,.759,2.789ZM30.83,9.227a2.911,2.911,0,0,0-.366-1.593A1.191,1.191,0,0,0,29.4,7.073a1.294,1.294,0,0,0-1.278.711v3.028a1.316,1.316,0,0,0,1.292.731Q30.83,11.544,30.83,9.227ZM38.315,13a2.194,2.194,0,0,1-.2-.663,2.39,2.39,0,0,1-1.866.8,2.626,2.626,0,0,1-1.8-.629,2.023,2.023,0,0,1-.714-1.586,2.09,2.09,0,0,1,.872-1.8,4.3,4.3,0,0,1,2.519-.636h.909V8.058a1.219,1.219,0,0,0-.263-.82,1.035,1.035,0,0,0-.831-.308,1.177,1.177,0,0,0-.783.239.813.813,0,0,0-.284.656H33.9a1.984,1.984,0,0,1,.4-1.189,2.621,2.621,0,0,1,1.121-.858,4.086,4.086,0,0,1,1.627-.311,3.228,3.228,0,0,1,2.17.687,2.4,2.4,0,0,1,.8,1.931v3.206a3.536,3.536,0,0,0,.294,1.593V13Zm-1.634-1.374a1.7,1.7,0,0,0,.807-.195,1.28,1.28,0,0,0,.547-.523V9.637H37.3q-1.483,0-1.579,1.025l-.007.116a.791.791,0,0,0,.26.608A1.009,1.009,0,0,0,36.682,11.626Zm9.01-4.17A5.367,5.367,0,0,0,44.98,7.4a1.447,1.447,0,0,0-1.47.759V13H41.535V5.6H43.4l.055.882A1.831,1.831,0,0,1,45.1,5.467a2.07,2.07,0,0,1,.615.089ZM50.723,13a2.194,2.194,0,0,1-.2-.663,2.39,2.39,0,0,1-1.866.8,2.626,2.626,0,0,1-1.8-.629,2.023,2.023,0,0,1-.714-1.586,2.09,2.09,0,0,1,.872-1.8,4.3,4.3,0,0,1,2.519-.636h.909V8.058a1.219,1.219,0,0,0-.263-.82,1.035,1.035,0,0,0-.831-.308,1.177,1.177,0,0,0-.783.239.813.813,0,0,0-.284.656H46.307a1.984,1.984,0,0,1,.4-1.189,2.621,2.621,0,0,1,1.121-.858,4.086,4.086,0,0,1,1.627-.311,3.228,3.228,0,0,1,2.17.687,2.4,2.4,0,0,1,.8,1.931v3.206a3.536,3.536,0,0,0,.294,1.593V13Zm-1.634-1.374a1.7,1.7,0,0,0,.807-.195,1.28,1.28,0,0,0,.547-.523V9.637H49.7q-1.483,0-1.579,1.025l-.007.116a.791.791,0,0,0,.26.608A1.009,1.009,0,0,0,49.089,11.626ZM59.514,13H57.531V2.5h1.982Zm5.913,0a2.194,2.194,0,0,1-.2-.663,2.39,2.39,0,0,1-1.866.8,2.626,2.626,0,0,1-1.8-.629,2.023,2.023,0,0,1-.714-1.586,2.09,2.09,0,0,1,.872-1.8,4.3,4.3,0,0,1,2.519-.636h.909V8.058a1.219,1.219,0,0,0-.263-.82,1.035,1.035,0,0,0-.831-.308,1.177,1.177,0,0,0-.783.239.813.813,0,0,0-.284.656H61.011a1.984,1.984,0,0,1,.4-1.189,2.621,2.621,0,0,1,1.121-.858,4.086,4.086,0,0,1,1.627-.311,3.228,3.228,0,0,1,2.17.687,2.4,2.4,0,0,1,.8,1.931v3.206a3.536,3.536,0,0,0,.294,1.593V13Zm-1.634-1.374a1.7,1.7,0,0,0,.807-.195,1.28,1.28,0,0,0,.547-.523V9.637h-.738q-1.483,0-1.579,1.025l-.007.116a.791.791,0,0,0,.26.608A1.009,1.009,0,0,0,63.793,11.626Zm12.346-.67a.637.637,0,0,0-.359-.571,4.077,4.077,0,0,0-1.152-.373q-2.639-.554-2.639-2.242a2.032,2.032,0,0,1,.817-1.644,3.3,3.3,0,0,1,2.136-.66,3.547,3.547,0,0,1,2.252.663,2.09,2.09,0,0,1,.844,1.723H76.063a.956.956,0,0,0-.273-.7,1.157,1.157,0,0,0-.854-.277,1.182,1.182,0,0,0-.772.226.712.712,0,0,0-.273.574.609.609,0,0,0,.311.53,3.2,3.2,0,0,0,1.049.349,8.571,8.571,0,0,1,1.244.332,2.044,2.044,0,0,1,1.565,1.989,1.929,1.929,0,0,1-.868,1.637,3.745,3.745,0,0,1-2.242.625,3.912,3.912,0,0,1-1.651-.332,2.77,2.77,0,0,1-1.131-.909,2.113,2.113,0,0,1-.41-1.248H73.63a1.031,1.031,0,0,0,.39.807,1.546,1.546,0,0,0,.971.28,1.43,1.43,0,0,0,.858-.215A.67.67,0,0,0,76.139,10.956Zm2.885-1.723a4.387,4.387,0,0,1,.424-1.962,3.1,3.1,0,0,1,1.22-1.333,3.56,3.56,0,0,1,1.849-.472,3.368,3.368,0,0,1,2.444.916,3.676,3.676,0,0,1,1.056,2.488l.014.506a3.866,3.866,0,0,1-.95,2.731,3.683,3.683,0,0,1-5.1,0,3.934,3.934,0,0,1-.954-2.789ZM81,9.374a2.765,2.765,0,0,0,.4,1.612,1.424,1.424,0,0,0,2.256.007,3.025,3.025,0,0,0,.4-1.763,2.737,2.737,0,0,0-.4-1.6,1.311,1.311,0,0,0-1.135-.568,1.29,1.29,0,0,0-1.121.565A3.076,3.076,0,0,0,81,9.374Zm9.324,2.17a1.3,1.3,0,0,0,.889-.3,1.054,1.054,0,0,0,.355-.8H93.42a2.534,2.534,0,0,1-.41,1.377,2.706,2.706,0,0,1-1.1.971,3.455,3.455,0,0,1-1.548.345,3.211,3.211,0,0,1-2.5-1.008,3.99,3.99,0,0,1-.916-2.786v-.13a3.944,3.944,0,0,1,.909-2.728,3.174,3.174,0,0,1,2.5-1.019,3.111,3.111,0,0,1,2.225.79,2.8,2.8,0,0,1,.851,2.1H91.567a1.358,1.358,0,0,0-.355-.938,1.321,1.321,0,0,0-1.945.142A2.916,2.916,0,0,0,88.915,9.2V9.4a2.953,2.953,0,0,0,.349,1.643A1.2,1.2,0,0,0,90.323,11.544ZM96.633,13H94.65V5.6h1.982Zm-2.1-9.311a.973.973,0,0,1,.3-.731,1.281,1.281,0,0,1,1.617,0,.967.967,0,0,1,.3.731.97.97,0,0,1-.3.738,1.267,1.267,0,0,1-1.606,0A.97.97,0,0,1,94.534,3.689Zm7.13,9.447a3.631,3.631,0,0,1-2.649-1,3.548,3.548,0,0,1-1.022-2.659V9.288A4.468,4.468,0,0,1,98.424,7.3a3.161,3.161,0,0,1,1.22-1.354,3.425,3.425,0,0,1,1.8-.475,3.07,3.07,0,0,1,2.389.957,3.889,3.889,0,0,1,.872,2.714v.807H100a1.835,1.835,0,0,0,.578,1.162,1.746,1.746,0,0,0,1.22.438,2.132,2.132,0,0,0,1.784-.827l.971,1.087a2.966,2.966,0,0,1-1.2.981A3.947,3.947,0,0,1,101.664,13.137Zm-.226-6.077a1.234,1.234,0,0,0-.954.4,2.062,2.062,0,0,0-.468,1.14h2.748V8.44a1.471,1.471,0,0,0-.355-1.02A1.274,1.274,0,0,0,101.438,7.06Zm4.081,2.188a4.457,4.457,0,0,1,.776-2.755,2.517,2.517,0,0,1,2.123-1.025,2.265,2.265,0,0,1,1.784.807V2.5h1.982V13H110.4l-.1-.786a2.325,2.325,0,0,1-1.9.923,2.511,2.511,0,0,1-2.1-1.029A4.6,4.6,0,0,1,105.52,9.247Zm1.976.147a2.92,2.92,0,0,0,.362,1.6,1.18,1.18,0,0,0,1.053.555,1.322,1.322,0,0,0,1.292-.774V7.847a1.3,1.3,0,0,0-1.278-.774Q107.5,7.073,107.5,9.394ZM118,13a2.194,2.194,0,0,1-.2-.663,2.39,2.39,0,0,1-1.866.8,2.626,2.626,0,0,1-1.8-.629,2.023,2.023,0,0,1-.714-1.586,2.09,2.09,0,0,1,.872-1.8,4.3,4.3,0,0,1,2.519-.636h.909V8.058a1.219,1.219,0,0,0-.263-.82,1.035,1.035,0,0,0-.831-.308,1.177,1.177,0,0,0-.783.239.813.813,0,0,0-.284.656h-1.976a1.985,1.985,0,0,1,.4-1.189,2.621,2.621,0,0,1,1.121-.858,4.086,4.086,0,0,1,1.627-.311,3.228,3.228,0,0,1,2.17.687,2.4,2.4,0,0,1,.8,1.931v3.206A3.536,3.536,0,0,0,120,12.884V13Zm-1.634-1.374a1.7,1.7,0,0,0,.807-.195,1.28,1.28,0,0,0,.547-.523V9.637h-.738q-1.483,0-1.579,1.025l-.007.116a.791.791,0,0,0,.26.608A1.009,1.009,0,0,0,116.368,11.626Zm4.546-2.379a4.457,4.457,0,0,1,.776-2.755,2.517,2.517,0,0,1,2.123-1.025,2.265,2.265,0,0,1,1.784.807V2.5h1.982V13h-1.784l-.1-.786a2.325,2.325,0,0,1-1.9.923,2.511,2.511,0,0,1-2.1-1.029A4.6,4.6,0,0,1,120.914,9.247Zm1.976.147a2.92,2.92,0,0,0,.362,1.6,1.18,1.18,0,0,0,1.053.555,1.322,1.322,0,0,0,1.292-.774V7.847a1.3,1.3,0,0,0-1.278-.774Q122.89,7.073,122.89,9.394Z" transform="translate(54 18.921)" fill="#12263f"/>
        <path id="Trazado_213850-2" data-name="Trazado 213850" d="M-1.281,1.311H21.763V6.69H-4Z" transform="translate(168.238 44.364)" fill="#0c5e46" opacity="0.5"/>
        <path id="Trazado_213851-2" data-name="Trazado 213851" d="M0,0H46.226V45.674H0Z" fill="url(#linear-gradient-2)"/>
      </g>
      <g id="Grupo_154240-2" data-name="Grupo 154240" transform="translate(622.108 809.356)">
        <path id="Trazado_213855-2" data-name="Trazado 213855" d="M0,0,2.5,3.327v23.7H0Z" transform="translate(24.119)" fill="#0c5e46"/>
        <path id="Trazado_213856-2" data-name="Trazado 213856" d="M0,26.614l2.5-3.327V0H0Z" transform="translate(26.614 26.614) rotate(90)" fill="#0c5e46"/>
      </g>
      <g id="Grupo_1076705" data-name="Grupo 1076705" transform="translate(607.063 803.22)">
        <path id="Trazado_613457" data-name="Trazado 613457" d="M44.295,61.485a3.69,3.69,0,1,1,3.724-3.69A3.711,3.711,0,0,1,44.295,61.485Zm0-6.344A2.654,2.654,0,1,0,46.983,57.8,2.675,2.675,0,0,0,44.295,55.141Zm0,0" transform="translate(-37.945 -50.604)"/>
        <path id="Trazado_613458" data-name="Trazado 613458" d="M7.848,191.194H1.353A1.35,1.35,0,0,1,0,189.849v-1.694a6.363,6.363,0,0,1,10.14-5.045.518.518,0,0,1-.615.834,5.327,5.327,0,0,0-8.489,4.212v1.694a.314.314,0,0,0,.318.309h6.5a.518.518,0,1,1,0,1.036Zm0,0" transform="translate(0 -170.097)"/>
        <path id="Trazado_613459" data-name="Trazado 613459" d="M342.078,185.142h-6.495a.518.518,0,1,1,0-1.036h6.5a.314.314,0,0,0,.318-.309V182.1a5.29,5.29,0,0,0-5.314-5.253,5.362,5.362,0,0,0-3.364,1.187.518.518,0,1,1-.651-.8,6.4,6.4,0,0,1,4.016-1.418,6.326,6.326,0,0,1,6.35,6.288V183.8a1.35,1.35,0,0,1-1.353,1.344Zm0,0" transform="translate(-311.33 -164.438)"/>
        <path id="Trazado_613460" data-name="Trazado 613460" d="M344.076,57.532a3.69,3.69,0,1,1,3.724-3.69A3.711,3.711,0,0,1,344.076,57.532Zm0-6.344a2.654,2.654,0,1,0,2.689,2.654A2.674,2.674,0,0,0,344.076,51.188Zm0,0" transform="translate(-318.324 -46.907)"/>
        <path id="Trazado_613461" data-name="Trazado 613461" d="M129.009,168.528H114.955a1.689,1.689,0,0,1-1.693-1.681v-2.382a8.721,8.721,0,0,1,17.441,0v2.382a1.689,1.689,0,0,1-1.693,1.681Zm-7.027-11.66a7.65,7.65,0,0,0-7.685,7.6v2.382a.652.652,0,0,0,.658.645h14.054a.652.652,0,0,0,.658-.645v-2.382a7.65,7.65,0,0,0-7.685-7.6Zm0,0" transform="translate(-105.932 -145.746)"/>
        <path id="Trazado_613462" data-name="Trazado 613462" d="M176.067,9.48a4.769,4.769,0,0,1-4.785-4.741,4.786,4.786,0,0,1,9.571,0A4.768,4.768,0,0,1,176.067,9.48Zm0-8.445a3.732,3.732,0,0,0-3.75,3.7,3.75,3.75,0,0,0,7.5,0,3.732,3.732,0,0,0-3.75-3.7Zm0,0" transform="translate(-160.196)"/>
      </g>
    </g>
    <path id="Trazado_613475" data-name="Trazado 613475" d="M10,0H180a10,10,0,0,1,10,10V44a10,10,0,0,1-10,10H10A10,10,0,0,1,0,44V10A10,10,0,0,1,10,0Z" transform="translate(495 1435.58)" fill="#dadddf"/>
    <rect id="Rectángulo_380776" data-name="Rectángulo 380776" width="190" height="54" rx="10" transform="translate(915 1435.58)" fill="#dadddf"/>
    <rect id="Rectángulo_380777" data-name="Rectángulo 380777" width="190" height="54" rx="10" transform="translate(705 1435.58)" fill="#dadddf"/>
    <path id="Trazado_614251" data-name="Trazado 614251" d="M-45.691-4.437a6.172,6.172,0,0,1-2.458-1.193,2.279,2.279,0,0,1-.769-1.747,2.408,2.408,0,0,1,.94-1.945,3.736,3.736,0,0,1,2.444-.769,4.078,4.078,0,0,1,1.829.4A3.007,3.007,0,0,1-42.461-8.6a2.8,2.8,0,0,1,.441,1.524H-43.34A1.82,1.82,0,0,0-43.914-8.5a2.335,2.335,0,0,0-1.62-.518,2.391,2.391,0,0,0-1.514.428A1.428,1.428,0,0,0-47.592-7.4a1.285,1.285,0,0,0,.516,1.031,5.062,5.062,0,0,0,1.757.77,8.151,8.151,0,0,1,1.941.77,2.946,2.946,0,0,1,1.039.981A2.5,2.5,0,0,1-42-2.529a2.326,2.326,0,0,1-.943,1.938,4.022,4.022,0,0,1-2.522.728A4.678,4.678,0,0,1-47.38-.256,3.221,3.221,0,0,1-48.75-1.333a2.627,2.627,0,0,1-.482-1.552h1.319a1.714,1.714,0,0,0,.667,1.425,2.806,2.806,0,0,0,1.781.523,2.58,2.58,0,0,0,1.593-.424,1.377,1.377,0,0,0,.554-1.155,1.351,1.351,0,0,0-.513-1.131A5.911,5.911,0,0,0-45.691-4.437ZM-37.447.137a3.232,3.232,0,0,1-2.447-.988,3.666,3.666,0,0,1-.943-2.642v-.232a4.438,4.438,0,0,1,.42-1.965,3.28,3.28,0,0,1,1.176-1.354A2.956,2.956,0,0,1-37.6-7.533a2.77,2.77,0,0,1,2.242.95,4.114,4.114,0,0,1,.8,2.721v.526h-5.011a2.629,2.629,0,0,0,.639,1.767A2.009,2.009,0,0,0-37.379-.9a2.2,2.2,0,0,0,1.135-.273,2.851,2.851,0,0,0,.813-.725l.772.6A3.106,3.106,0,0,1-37.447.137ZM-37.6-6.494a1.687,1.687,0,0,0-1.285.557,2.708,2.708,0,0,0-.643,1.562h3.705v-.1a2.409,2.409,0,0,0-.52-1.494A1.588,1.588,0,0,0-37.6-6.494Zm4.2,2.734a4.347,4.347,0,0,1,.8-2.751,2.558,2.558,0,0,1,2.119-1.022,2.544,2.544,0,0,1,2.112.957l.062-.82h1.155V-.178A3.009,3.009,0,0,1-28,2.085a3.141,3.141,0,0,1-2.287.827,3.8,3.8,0,0,1-1.565-.342,2.7,2.7,0,0,1-1.169-.937l.656-.759a2.473,2.473,0,0,0,1.989,1,1.938,1.938,0,0,0,1.439-.52A1.986,1.986,0,0,0-28.424-.1V-.738A2.6,2.6,0,0,1-30.5.137,2.527,2.527,0,0,1-32.6-.909,4.571,4.571,0,0,1-33.4-3.76Zm1.271.144a3.316,3.316,0,0,0,.513,1.965,1.666,1.666,0,0,0,1.436.714,1.852,1.852,0,0,0,1.757-1.087V-5.4a1.874,1.874,0,0,0-1.743-1.06,1.681,1.681,0,0,0-1.442.718A3.612,3.612,0,0,0-32.129-3.616Zm11.45,2.885a2.686,2.686,0,0,1-2.167.868,2.3,2.3,0,0,1-1.8-.687,2.974,2.974,0,0,1-.625-2.034V-7.4h1.265v4.778q0,1.682,1.367,1.682a1.893,1.893,0,0,0,1.928-1.08V-7.4h1.265V0h-1.2Zm6.727-5.53a3.79,3.79,0,0,0-.622-.048,1.667,1.667,0,0,0-1.688,1.06V0h-1.265V-7.4h1.23l.021.854a1.969,1.969,0,0,1,1.764-.991,1.292,1.292,0,0,1,.561.1ZM-11.416,0h-1.265V-7.4h1.265Zm-1.367-9.358a.755.755,0,0,1,.188-.52.706.706,0,0,1,.557-.212.717.717,0,0,1,.561.212.747.747,0,0,1,.191.52.722.722,0,0,1-.191.513.73.73,0,0,1-.561.205.718.718,0,0,1-.557-.205A.73.73,0,0,1-12.783-9.358ZM-9.7-3.76A4.333,4.333,0,0,1-8.894-6.5,2.551,2.551,0,0,1-6.781-7.533a2.565,2.565,0,0,1,2.058.889V-10.5h1.265V0H-4.621l-.062-.793a2.575,2.575,0,0,1-2.112.93A2.526,2.526,0,0,1-8.89-.916,4.382,4.382,0,0,1-9.7-3.664Zm1.265.144a3.281,3.281,0,0,0,.52,1.969A1.68,1.68,0,0,0-6.48-.937a1.845,1.845,0,0,0,1.757-1.08v-3.4A1.859,1.859,0,0,0-6.467-6.46a1.687,1.687,0,0,0-1.449.718A3.612,3.612,0,0,0-8.436-3.616ZM3.069,0a2.657,2.657,0,0,1-.178-.779A2.822,2.822,0,0,1,.786.137,2.611,2.611,0,0,1-1.008-.482a2,2,0,0,1-.7-1.569A2.091,2.091,0,0,1-.831-3.845a4.142,4.142,0,0,1,2.471-.639h1.23v-.581a1.42,1.42,0,0,0-.4-1.056,1.593,1.593,0,0,0-1.169-.393,1.844,1.844,0,0,0-1.135.342,1.007,1.007,0,0,0-.458.827H-1.559a1.745,1.745,0,0,1,.393-1.07A2.683,2.683,0,0,1-.1-7.232a3.588,3.588,0,0,1,1.48-.3,2.924,2.924,0,0,1,2,.639,2.306,2.306,0,0,1,.752,1.76v3.4A4.162,4.162,0,0,0,4.4-.109V0ZM.971-.964A2.223,2.223,0,0,0,2.1-1.271a1.861,1.861,0,0,0,.772-.8V-3.589H1.88q-2.324,0-2.324,1.36a1.151,1.151,0,0,0,.4.93A1.524,1.524,0,0,0,.971-.964Zm4.84-2.8A4.333,4.333,0,0,1,6.617-6.5,2.551,2.551,0,0,1,8.729-7.533a2.565,2.565,0,0,1,2.058.889V-10.5h1.265V0H10.89l-.062-.793a2.575,2.575,0,0,1-2.112.93,2.526,2.526,0,0,1-2.1-1.053,4.382,4.382,0,0,1-.81-2.748Zm1.265.144a3.281,3.281,0,0,0,.52,1.969A1.68,1.68,0,0,0,9.03-.937a1.845,1.845,0,0,0,1.757-1.08v-3.4A1.859,1.859,0,0,0,9.044-6.46a1.687,1.687,0,0,0-1.449.718A3.612,3.612,0,0,0,7.075-3.616Zm10.1-.144A4.333,4.333,0,0,1,17.979-6.5a2.551,2.551,0,0,1,2.112-1.036,2.565,2.565,0,0,1,2.058.889V-10.5h1.265V0H22.251l-.062-.793a2.575,2.575,0,0,1-2.112.93,2.526,2.526,0,0,1-2.1-1.053,4.382,4.382,0,0,1-.81-2.748Zm1.265.144a3.281,3.281,0,0,0,.52,1.969,1.68,1.68,0,0,0,1.436.711,1.845,1.845,0,0,0,1.757-1.08v-3.4A1.859,1.859,0,0,0,20.405-6.46a1.687,1.687,0,0,0-1.449.718A3.612,3.612,0,0,0,18.437-3.616ZM28.444.137A3.232,3.232,0,0,1,26-.851a3.666,3.666,0,0,1-.943-2.642v-.232a4.438,4.438,0,0,1,.42-1.965A3.28,3.28,0,0,1,26.65-7.044a2.956,2.956,0,0,1,1.637-.489,2.77,2.77,0,0,1,2.242.95,4.114,4.114,0,0,1,.8,2.721v.526H26.318a2.629,2.629,0,0,0,.639,1.767A2.009,2.009,0,0,0,28.513-.9a2.2,2.2,0,0,0,1.135-.273,2.851,2.851,0,0,0,.813-.725l.772.6A3.106,3.106,0,0,1,28.444.137Zm-.157-6.631A1.687,1.687,0,0,0,27-5.937a2.708,2.708,0,0,0-.643,1.562h3.705v-.1a2.409,2.409,0,0,0-.52-1.494A1.588,1.588,0,0,0,28.287-6.494ZM37.632,0H36.367V-10.5h1.265Zm6.59,0a2.657,2.657,0,0,1-.178-.779,2.822,2.822,0,0,1-2.105.916,2.611,2.611,0,0,1-1.794-.619,2,2,0,0,1-.7-1.569,2.091,2.091,0,0,1,.878-1.794,4.142,4.142,0,0,1,2.471-.639h1.23v-.581a1.42,1.42,0,0,0-.4-1.056,1.593,1.593,0,0,0-1.169-.393,1.844,1.844,0,0,0-1.135.342,1.007,1.007,0,0,0-.458.827H39.594a1.745,1.745,0,0,1,.393-1.07,2.683,2.683,0,0,1,1.066-.817,3.588,3.588,0,0,1,1.48-.3,2.924,2.924,0,0,1,2,.639,2.306,2.306,0,0,1,.752,1.76v3.4a4.162,4.162,0,0,0,.26,1.62V0Zm-2.1-.964a2.223,2.223,0,0,0,1.128-.308,1.861,1.861,0,0,0,.772-.8V-3.589h-.991q-2.324,0-2.324,1.36a1.151,1.151,0,0,0,.4.93A1.524,1.524,0,0,0,42.123-.964ZM-35.181,18h-1.265V10.6h1.265Zm-1.367-9.358a.755.755,0,0,1,.188-.52A.706.706,0,0,1-35.8,7.91a.717.717,0,0,1,.561.212.747.747,0,0,1,.191.52.722.722,0,0,1-.191.513.73.73,0,0,1-.561.205.718.718,0,0,1-.557-.205A.73.73,0,0,1-36.548,8.642Zm4.587,1.962.041.93a2.7,2.7,0,0,1,2.215-1.066q2.345,0,2.365,2.646V18H-28.6V13.105a1.7,1.7,0,0,0-.366-1.183,1.466,1.466,0,0,0-1.118-.383,1.825,1.825,0,0,0-1.08.328,2.228,2.228,0,0,0-.725.861V18h-1.265V10.6Zm7.15,7.4V11.581H-25.98V10.6h1.169V9.845a2.519,2.519,0,0,1,.636-1.839,2.4,2.4,0,0,1,1.8-.649,3.339,3.339,0,0,1,.868.115l-.068,1.019a3.632,3.632,0,0,0-.684-.062,1.234,1.234,0,0,0-.95.36,1.46,1.46,0,0,0-.335,1.032V10.6h1.579v.978h-1.579V18Zm3.9-3.767a4.369,4.369,0,0,1,.427-1.955,3.187,3.187,0,0,1,1.189-1.34,3.238,3.238,0,0,1,1.74-.472,3.119,3.119,0,0,1,2.444,1.046,4.024,4.024,0,0,1,.933,2.782v.089a4.407,4.407,0,0,1-.414,1.938,3.14,3.14,0,0,1-1.183,1.336,3.275,3.275,0,0,1-1.767.479,3.111,3.111,0,0,1-2.437-1.046,4,4,0,0,1-.933-2.769Zm1.271.15a3.164,3.164,0,0,0,.571,1.976,1.827,1.827,0,0,0,1.528.745,1.816,1.816,0,0,0,1.531-.755,3.46,3.46,0,0,0,.567-2.116,3.159,3.159,0,0,0-.578-1.972,1.836,1.836,0,0,0-1.535-.755,1.816,1.816,0,0,0-1.511.745A3.435,3.435,0,0,0-19.636,14.384Zm10.623-2.646a3.79,3.79,0,0,0-.622-.048,1.667,1.667,0,0,0-1.688,1.06V18h-1.265V10.6h1.23l.021.854a1.969,1.969,0,0,1,1.764-.991,1.292,1.292,0,0,1,.561.1ZM-6.662,10.6l.034.82a2.732,2.732,0,0,1,2.194-.957,2.115,2.115,0,0,1,2.112,1.189,2.8,2.8,0,0,1,.96-.861,2.837,2.837,0,0,1,1.4-.328q2.434,0,2.475,2.577V18H1.248V13.119a1.7,1.7,0,0,0-.362-1.186A1.6,1.6,0,0,0-.332,11.54a1.677,1.677,0,0,0-1.169.42,1.706,1.706,0,0,0-.54,1.131V18H-3.312V13.153A1.411,1.411,0,0,0-4.891,11.54a1.692,1.692,0,0,0-1.7,1.06V18H-7.858V10.6ZM8.986,18a2.657,2.657,0,0,1-.178-.779,2.822,2.822,0,0,1-2.105.916,2.611,2.611,0,0,1-1.794-.619,2,2,0,0,1-.7-1.569,2.091,2.091,0,0,1,.878-1.794,4.142,4.142,0,0,1,2.471-.639h1.23v-.581a1.42,1.42,0,0,0-.4-1.056,1.593,1.593,0,0,0-1.169-.393,1.844,1.844,0,0,0-1.135.342,1.007,1.007,0,0,0-.458.827H4.358a1.745,1.745,0,0,1,.393-1.07,2.683,2.683,0,0,1,1.066-.817,3.588,3.588,0,0,1,1.48-.3,2.924,2.924,0,0,1,2,.639,2.306,2.306,0,0,1,.752,1.76v3.4a4.162,4.162,0,0,0,.26,1.62V18Zm-2.1-.964a2.223,2.223,0,0,0,1.128-.308,1.861,1.861,0,0,0,.772-.8V14.411H7.8q-2.324,0-2.324,1.36a1.151,1.151,0,0,0,.4.93A1.524,1.524,0,0,0,6.887,17.036ZM15,17.1a1.822,1.822,0,0,0,1.183-.41,1.443,1.443,0,0,0,.561-1.025h1.2a2.293,2.293,0,0,1-.437,1.21,2.881,2.881,0,0,1-1.077.916A3.107,3.107,0,0,1,15,18.137a3.047,3.047,0,0,1-2.4-1.008,4.016,4.016,0,0,1-.892-2.758v-.212a4.453,4.453,0,0,1,.4-1.921,3.02,3.02,0,0,1,1.138-1.306,3.233,3.233,0,0,1,1.753-.465,2.966,2.966,0,0,1,2.068.745,2.663,2.663,0,0,1,.878,1.935h-1.2a1.743,1.743,0,0,0-.543-1.179,1.691,1.691,0,0,0-1.207-.461A1.77,1.77,0,0,0,13.5,12.2a3.259,3.259,0,0,0-.53,2.006v.239a3.194,3.194,0,0,0,.526,1.969A1.779,1.779,0,0,0,15,17.1Zm5.735.9H19.472V10.6h1.265ZM19.37,8.642a.755.755,0,0,1,.188-.52.706.706,0,0,1,.557-.212.717.717,0,0,1,.561.212.747.747,0,0,1,.191.52.722.722,0,0,1-.191.513.73.73,0,0,1-.561.205.718.718,0,0,1-.557-.205A.73.73,0,0,1,19.37,8.642Zm3.056,5.592a4.369,4.369,0,0,1,.427-1.955,3.187,3.187,0,0,1,1.189-1.34,3.238,3.238,0,0,1,1.74-.472,3.119,3.119,0,0,1,2.444,1.046,4.024,4.024,0,0,1,.933,2.782v.089a4.407,4.407,0,0,1-.414,1.938,3.14,3.14,0,0,1-1.183,1.336,3.275,3.275,0,0,1-1.767.479,3.111,3.111,0,0,1-2.437-1.046,4,4,0,0,1-.933-2.769Zm1.271.15a3.164,3.164,0,0,0,.571,1.976,1.934,1.934,0,0,0,3.059-.01,3.46,3.46,0,0,0,.567-2.116,3.159,3.159,0,0,0-.578-1.972,1.836,1.836,0,0,0-1.535-.755,1.816,1.816,0,0,0-1.511.745A3.435,3.435,0,0,0,23.7,14.384ZM26.356,7.5h1.531L26.055,9.51l-1.019,0Zm5.585,3.1.041.93A2.7,2.7,0,0,1,34.2,10.467q2.345,0,2.365,2.646V18H35.3V13.105a1.7,1.7,0,0,0-.366-1.183,1.466,1.466,0,0,0-1.118-.383,1.825,1.825,0,0,0-1.08.328,2.228,2.228,0,0,0-.725.861V18H30.745V10.6Z" transform="translate(590 1459.58)" fill="#12263f"/>
    <path id="Trazado_614253" data-name="Trazado 614253" d="M-63.919-4.437a6.172,6.172,0,0,1-2.458-1.193,2.279,2.279,0,0,1-.769-1.747,2.408,2.408,0,0,1,.94-1.945,3.736,3.736,0,0,1,2.444-.769,4.078,4.078,0,0,1,1.829.4A3.007,3.007,0,0,1-60.689-8.6a2.8,2.8,0,0,1,.441,1.524h-1.319A1.82,1.82,0,0,0-62.142-8.5a2.335,2.335,0,0,0-1.62-.518,2.391,2.391,0,0,0-1.514.428A1.428,1.428,0,0,0-65.82-7.4,1.285,1.285,0,0,0-65.3-6.37a5.062,5.062,0,0,0,1.757.77,8.151,8.151,0,0,1,1.941.77,2.946,2.946,0,0,1,1.039.981,2.5,2.5,0,0,1,.338,1.319,2.326,2.326,0,0,1-.943,1.938,4.022,4.022,0,0,1-2.522.728,4.678,4.678,0,0,1-1.914-.393,3.221,3.221,0,0,1-1.371-1.077,2.627,2.627,0,0,1-.482-1.552h1.319a1.714,1.714,0,0,0,.667,1.425,2.806,2.806,0,0,0,1.781.523A2.58,2.58,0,0,0-62.1-1.36a1.377,1.377,0,0,0,.554-1.155,1.351,1.351,0,0,0-.513-1.131A5.911,5.911,0,0,0-63.919-4.437ZM-55.675.137a3.232,3.232,0,0,1-2.447-.988,3.666,3.666,0,0,1-.943-2.642v-.232a4.438,4.438,0,0,1,.42-1.965A3.28,3.28,0,0,1-57.47-7.044a2.956,2.956,0,0,1,1.637-.489,2.77,2.77,0,0,1,2.242.95,4.114,4.114,0,0,1,.8,2.721v.526H-57.8a2.629,2.629,0,0,0,.639,1.767A2.009,2.009,0,0,0-55.607-.9a2.2,2.2,0,0,0,1.135-.273,2.851,2.851,0,0,0,.813-.725l.772.6A3.106,3.106,0,0,1-55.675.137Zm-.157-6.631a1.687,1.687,0,0,0-1.285.557,2.708,2.708,0,0,0-.643,1.562h3.705v-.1a2.409,2.409,0,0,0-.52-1.494A1.588,1.588,0,0,0-55.833-6.494Zm8.08.232a3.79,3.79,0,0,0-.622-.048,1.667,1.667,0,0,0-1.688,1.06V0h-1.265V-7.4h1.23l.021.854a1.969,1.969,0,0,1,1.764-.991,1.292,1.292,0,0,1,.561.1Zm3.726,4.546L-42.195-7.4H-40.9L-43.555,0h-.964L-47.2-7.4h1.292ZM-38.312,0h-1.265V-7.4h1.265Zm-1.367-9.358a.755.755,0,0,1,.188-.52.706.706,0,0,1,.557-.212.717.717,0,0,1,.561.212.747.747,0,0,1,.191.52.722.722,0,0,1-.191.513.73.73,0,0,1-.561.205.718.718,0,0,1-.557-.205A.73.73,0,0,1-39.679-9.358ZM-33.322-.9a1.822,1.822,0,0,0,1.183-.41,1.443,1.443,0,0,0,.561-1.025h1.2a2.293,2.293,0,0,1-.437,1.21A2.881,2.881,0,0,1-31.9-.205a3.107,3.107,0,0,1-1.425.342,3.047,3.047,0,0,1-2.4-1.008,4.016,4.016,0,0,1-.892-2.758v-.212a4.453,4.453,0,0,1,.4-1.921,3.02,3.02,0,0,1,1.138-1.306,3.233,3.233,0,0,1,1.753-.465,2.966,2.966,0,0,1,2.068.745,2.663,2.663,0,0,1,.878,1.935h-1.2a1.743,1.743,0,0,0-.543-1.179,1.691,1.691,0,0,0-1.207-.461,1.77,1.77,0,0,0-1.494.694,3.259,3.259,0,0,0-.53,2.006v.239a3.194,3.194,0,0,0,.526,1.969A1.779,1.779,0,0,0-33.322-.9Zm5.735.9h-1.265V-7.4h1.265Zm-1.367-9.358a.755.755,0,0,1,.188-.52.706.706,0,0,1,.557-.212.717.717,0,0,1,.561.212.747.747,0,0,1,.191.52.722.722,0,0,1-.191.513.73.73,0,0,1-.561.205.718.718,0,0,1-.557-.205A.73.73,0,0,1-28.954-9.358ZM-25.9-3.767a4.369,4.369,0,0,1,.427-1.955,3.187,3.187,0,0,1,1.189-1.34,3.238,3.238,0,0,1,1.74-.472A3.119,3.119,0,0,1-20.1-6.487a4.024,4.024,0,0,1,.933,2.782v.089a4.407,4.407,0,0,1-.414,1.938A3.14,3.14,0,0,1-20.761-.342a3.275,3.275,0,0,1-1.767.479A3.111,3.111,0,0,1-24.965-.909,4,4,0,0,1-25.9-3.678Zm1.271.15a3.164,3.164,0,0,0,.571,1.976A1.827,1.827,0,0,0-22.528-.9,1.816,1.816,0,0,0-21-1.651a3.46,3.46,0,0,0,.567-2.116,3.159,3.159,0,0,0-.578-1.972,1.836,1.836,0,0,0-1.535-.755,1.816,1.816,0,0,0-1.511.745A3.434,3.434,0,0,0-24.626-3.616Zm11.354,1.654a.931.931,0,0,0-.386-.8A3.718,3.718,0,0,0-15-3.247a6.367,6.367,0,0,1-1.524-.492,2.169,2.169,0,0,1-.834-.684,1.635,1.635,0,0,1-.27-.943A1.919,1.919,0,0,1-16.864-6.9,3,3,0,0,1-14.9-7.533a3.091,3.091,0,0,1,2.041.649,2.063,2.063,0,0,1,.783,1.661h-1.271a1.142,1.142,0,0,0-.441-.9A1.652,1.652,0,0,0-14.9-6.494a1.729,1.729,0,0,0-1.08.3.947.947,0,0,0-.39.786.767.767,0,0,0,.362.69,4.458,4.458,0,0,0,1.309.444,6.821,6.821,0,0,1,1.535.506,2.239,2.239,0,0,1,.872.708,1.74,1.74,0,0,1,.284,1.008A1.893,1.893,0,0,1-12.8-.461a3.326,3.326,0,0,1-2.058.6A3.725,3.725,0,0,1-16.43-.178a2.557,2.557,0,0,1-1.07-.878,2.117,2.117,0,0,1-.386-1.22h1.265a1.309,1.309,0,0,0,.509,1.008A1.976,1.976,0,0,0-14.858-.9a2.039,2.039,0,0,0,1.152-.291A.893.893,0,0,0-13.272-1.962ZM-3.927-.9a1.822,1.822,0,0,0,1.183-.41,1.443,1.443,0,0,0,.561-1.025h1.2a2.293,2.293,0,0,1-.437,1.21A2.881,2.881,0,0,1-2.5-.205,3.107,3.107,0,0,1-3.927.137,3.047,3.047,0,0,1-6.33-.872,4.016,4.016,0,0,1-7.222-3.63v-.212a4.453,4.453,0,0,1,.4-1.921A3.02,3.02,0,0,1-5.687-7.068a3.233,3.233,0,0,1,1.753-.465,2.966,2.966,0,0,1,2.068.745A2.663,2.663,0,0,1-.988-4.854h-1.2a1.743,1.743,0,0,0-.543-1.179,1.691,1.691,0,0,0-1.207-.461A1.77,1.77,0,0,0-5.428-5.8a3.259,3.259,0,0,0-.53,2.006v.239a3.194,3.194,0,0,0,.526,1.969A1.779,1.779,0,0,0-3.927-.9ZM1.808,0H.543V-7.4H1.808ZM.441-9.358a.755.755,0,0,1,.188-.52.706.706,0,0,1,.557-.212.717.717,0,0,1,.561.212.747.747,0,0,1,.191.52.722.722,0,0,1-.191.513.73.73,0,0,1-.561.205.718.718,0,0,1-.557-.205A.73.73,0,0,1,.441-9.358ZM8.4-.731A2.686,2.686,0,0,1,6.231.137,2.3,2.3,0,0,1,4.43-.55,2.974,2.974,0,0,1,3.8-2.584V-7.4H5.069v4.778q0,1.682,1.367,1.682a1.893,1.893,0,0,0,1.928-1.08V-7.4H9.628V0h-1.2ZM11.242-3.76A4.333,4.333,0,0,1,12.048-6.5a2.551,2.551,0,0,1,2.112-1.036,2.565,2.565,0,0,1,2.058.889V-10.5h1.265V0H16.321l-.062-.793a2.575,2.575,0,0,1-2.112.93,2.526,2.526,0,0,1-2.1-1.053,4.382,4.382,0,0,1-.81-2.748Zm1.265.144a3.281,3.281,0,0,0,.52,1.969,1.68,1.68,0,0,0,1.436.711,1.845,1.845,0,0,0,1.757-1.08v-3.4A1.859,1.859,0,0,0,14.475-6.46a1.687,1.687,0,0,0-1.449.718A3.612,3.612,0,0,0,12.506-3.616ZM24.011,0a2.657,2.657,0,0,1-.178-.779,2.822,2.822,0,0,1-2.105.916,2.611,2.611,0,0,1-1.794-.619,2,2,0,0,1-.7-1.569,2.091,2.091,0,0,1,.878-1.794,4.142,4.142,0,0,1,2.471-.639h1.23v-.581a1.42,1.42,0,0,0-.4-1.056,1.593,1.593,0,0,0-1.169-.393,1.844,1.844,0,0,0-1.135.342,1.007,1.007,0,0,0-.458.827H19.383a1.745,1.745,0,0,1,.393-1.07,2.683,2.683,0,0,1,1.066-.817,3.588,3.588,0,0,1,1.48-.3,2.924,2.924,0,0,1,2,.639,2.306,2.306,0,0,1,.752,1.76v3.4a4.162,4.162,0,0,0,.26,1.62V0Zm-2.1-.964a2.223,2.223,0,0,0,1.128-.308,1.861,1.861,0,0,0,.772-.8V-3.589h-.991q-2.324,0-2.324,1.36a1.151,1.151,0,0,0,.4.93A1.524,1.524,0,0,0,21.913-.964Zm4.84-2.8A4.333,4.333,0,0,1,27.559-6.5a2.551,2.551,0,0,1,2.112-1.036,2.565,2.565,0,0,1,2.058.889V-10.5h1.265V0H31.832L31.77-.793a2.575,2.575,0,0,1-2.112.93,2.526,2.526,0,0,1-2.1-1.053,4.382,4.382,0,0,1-.81-2.748Zm1.265.144a3.281,3.281,0,0,0,.52,1.969,1.68,1.68,0,0,0,1.436.711,1.845,1.845,0,0,0,1.757-1.08v-3.4A1.859,1.859,0,0,0,29.986-6.46a1.687,1.687,0,0,0-1.449.718A3.612,3.612,0,0,0,28.017-3.616ZM39.522,0a2.657,2.657,0,0,1-.178-.779,2.822,2.822,0,0,1-2.105.916,2.611,2.611,0,0,1-1.794-.619,2,2,0,0,1-.7-1.569,2.091,2.091,0,0,1,.878-1.794,4.142,4.142,0,0,1,2.471-.639h1.23v-.581a1.42,1.42,0,0,0-.4-1.056,1.593,1.593,0,0,0-1.169-.393,1.844,1.844,0,0,0-1.135.342,1.007,1.007,0,0,0-.458.827H34.894a1.745,1.745,0,0,1,.393-1.07,2.683,2.683,0,0,1,1.066-.817,3.588,3.588,0,0,1,1.48-.3,2.924,2.924,0,0,1,2,.639,2.306,2.306,0,0,1,.752,1.76v3.4a4.162,4.162,0,0,0,.26,1.62V0Zm-2.1-.964a2.223,2.223,0,0,0,1.128-.308,1.861,1.861,0,0,0,.772-.8V-3.589h-.991q-2.324,0-2.324,1.36a1.151,1.151,0,0,0,.4.93A1.524,1.524,0,0,0,37.423-.964ZM43.767-7.4l.041.93a2.7,2.7,0,0,1,2.215-1.066q2.345,0,2.365,2.646V0H47.124V-4.895a1.7,1.7,0,0,0-.366-1.183A1.466,1.466,0,0,0,45.64-6.46a1.825,1.825,0,0,0-1.08.328,2.228,2.228,0,0,0-.725.861V0H42.571V-7.4Zm6.193,3.63a4.369,4.369,0,0,1,.427-1.955,3.187,3.187,0,0,1,1.189-1.34,3.238,3.238,0,0,1,1.74-.472,3.119,3.119,0,0,1,2.444,1.046,4.024,4.024,0,0,1,.933,2.782v.089a4.407,4.407,0,0,1-.414,1.938A3.14,3.14,0,0,1,55.1-.342a3.275,3.275,0,0,1-1.767.479A3.111,3.111,0,0,1,50.894-.909a4,4,0,0,1-.933-2.769Zm1.271.15A3.164,3.164,0,0,0,51.8-1.641,1.827,1.827,0,0,0,53.331-.9a1.816,1.816,0,0,0,1.531-.755,3.46,3.46,0,0,0,.567-2.116,3.159,3.159,0,0,0-.578-1.972,1.836,1.836,0,0,0-1.535-.755,1.816,1.816,0,0,0-1.511.745A3.434,3.434,0,0,0,51.232-3.616ZM62.586-1.962a.931.931,0,0,0-.386-.8,3.718,3.718,0,0,0-1.347-.489,6.367,6.367,0,0,1-1.524-.492,2.169,2.169,0,0,1-.834-.684,1.635,1.635,0,0,1-.27-.943A1.919,1.919,0,0,1,58.994-6.9a3,3,0,0,1,1.965-.629A3.091,3.091,0,0,1,63-6.884a2.063,2.063,0,0,1,.783,1.661H62.511a1.142,1.142,0,0,0-.441-.9,1.652,1.652,0,0,0-1.111-.376,1.729,1.729,0,0,0-1.08.3.947.947,0,0,0-.39.786.767.767,0,0,0,.362.69,4.458,4.458,0,0,0,1.309.444,6.821,6.821,0,0,1,1.535.506,2.239,2.239,0,0,1,.872.708,1.74,1.74,0,0,1,.284,1.008,1.893,1.893,0,0,1-.793,1.589A3.326,3.326,0,0,1,61,.137a3.725,3.725,0,0,1-1.572-.314,2.557,2.557,0,0,1-1.07-.878,2.117,2.117,0,0,1-.386-1.22h1.265a1.309,1.309,0,0,0,.509,1.008A1.976,1.976,0,0,0,61-.9a2.039,2.039,0,0,0,1.152-.291A.893.893,0,0,0,62.586-1.962Zm-88.32,16.2a4.333,4.333,0,0,1,.807-2.738,2.551,2.551,0,0,1,2.112-1.036,2.565,2.565,0,0,1,2.058.889V7.5h1.265V18h-1.162l-.062-.793a2.575,2.575,0,0,1-2.112.93,2.526,2.526,0,0,1-2.1-1.053,4.382,4.382,0,0,1-.81-2.748Zm1.265.144a3.281,3.281,0,0,0,.52,1.969,1.68,1.68,0,0,0,1.436.711,1.845,1.845,0,0,0,1.757-1.08v-3.4A1.859,1.859,0,0,0-22.5,11.54a1.687,1.687,0,0,0-1.449.718A3.612,3.612,0,0,0-24.469,14.384ZM-16.157,18h-1.265V10.6h1.265Zm-1.367-9.358a.755.755,0,0,1,.188-.52.706.706,0,0,1,.557-.212.717.717,0,0,1,.561.212.747.747,0,0,1,.191.52.722.722,0,0,1-.191.513.73.73,0,0,1-.561.205.718.718,0,0,1-.557-.205A.73.73,0,0,1-17.524,8.642Zm3.09,5.6a4.347,4.347,0,0,1,.8-2.751,2.558,2.558,0,0,1,2.119-1.022,2.544,2.544,0,0,1,2.112.957l.062-.82h1.155v7.219a3.009,3.009,0,0,1-.851,2.263,3.141,3.141,0,0,1-2.287.827,3.8,3.8,0,0,1-1.565-.342,2.7,2.7,0,0,1-1.169-.937l.656-.759a2.473,2.473,0,0,0,1.989,1,1.938,1.938,0,0,0,1.439-.52A1.986,1.986,0,0,0-9.458,17.9v-.636a2.6,2.6,0,0,1-2.071.875,2.527,2.527,0,0,1-2.1-1.046A4.571,4.571,0,0,1-14.434,14.24Zm1.271.144a3.316,3.316,0,0,0,.513,1.965,1.666,1.666,0,0,0,1.436.714,1.852,1.852,0,0,0,1.757-1.087V12.6A1.874,1.874,0,0,0-11.2,11.54a1.681,1.681,0,0,0-1.442.718A3.612,3.612,0,0,0-13.163,14.384ZM-4.9,18H-6.169V10.6H-4.9ZM-6.272,8.642a.755.755,0,0,1,.188-.52.706.706,0,0,1,.557-.212.717.717,0,0,1,.561.212.747.747,0,0,1,.191.52.722.722,0,0,1-.191.513.73.73,0,0,1-.561.205.718.718,0,0,1-.557-.205A.73.73,0,0,1-6.272,8.642Zm5.106.171V10.6H.215v.978H-1.166v4.593a1.027,1.027,0,0,0,.185.667.777.777,0,0,0,.629.222,3.062,3.062,0,0,0,.6-.082V18a3.688,3.688,0,0,1-.971.136A1.575,1.575,0,0,1-2,17.624a2.2,2.2,0,0,1-.431-1.456V11.581H-3.777V10.6H-2.43V8.813ZM6.258,18a2.657,2.657,0,0,1-.178-.779,2.822,2.822,0,0,1-2.105.916,2.611,2.611,0,0,1-1.794-.619,2,2,0,0,1-.7-1.569,2.091,2.091,0,0,1,.878-1.794,4.142,4.142,0,0,1,2.471-.639H6.06v-.581a1.42,1.42,0,0,0-.4-1.056,1.593,1.593,0,0,0-1.169-.393,1.844,1.844,0,0,0-1.135.342,1.007,1.007,0,0,0-.458.827H1.63a1.745,1.745,0,0,1,.393-1.07,2.683,2.683,0,0,1,1.066-.817,3.588,3.588,0,0,1,1.48-.3,2.924,2.924,0,0,1,2,.639,2.306,2.306,0,0,1,.752,1.76v3.4a4.162,4.162,0,0,0,.26,1.62V18Zm-2.1-.964a2.223,2.223,0,0,0,1.128-.308,1.861,1.861,0,0,0,.772-.8V14.411H5.069q-2.324,0-2.324,1.36a1.151,1.151,0,0,0,.4.93A1.524,1.524,0,0,0,4.16,17.036ZM10.681,18H9.417V7.5h1.265Zm5.093.137a3.232,3.232,0,0,1-2.447-.988,3.666,3.666,0,0,1-.943-2.642v-.232a4.438,4.438,0,0,1,.42-1.965,3.28,3.28,0,0,1,1.176-1.354,2.956,2.956,0,0,1,1.637-.489,2.77,2.77,0,0,1,2.242.95,4.114,4.114,0,0,1,.8,2.721v.526H13.648a2.629,2.629,0,0,0,.639,1.767,2.009,2.009,0,0,0,1.555.673,2.2,2.2,0,0,0,1.135-.273,2.851,2.851,0,0,0,.813-.725l.772.6A3.106,3.106,0,0,1,15.774,18.137Zm-.157-6.631a1.687,1.687,0,0,0-1.285.557,2.708,2.708,0,0,0-.643,1.562h3.705v-.1a2.409,2.409,0,0,0-.52-1.494A1.588,1.588,0,0,0,15.617,11.506Zm8.812,4.532a.931.931,0,0,0-.386-.8,3.718,3.718,0,0,0-1.347-.489,6.367,6.367,0,0,1-1.524-.492,2.169,2.169,0,0,1-.834-.684,1.635,1.635,0,0,1-.27-.943,1.919,1.919,0,0,1,.769-1.538,3,3,0,0,1,1.965-.629,3.091,3.091,0,0,1,2.041.649,2.063,2.063,0,0,1,.783,1.661H24.353a1.142,1.142,0,0,0-.441-.9,1.652,1.652,0,0,0-1.111-.376,1.729,1.729,0,0,0-1.08.3.947.947,0,0,0-.39.786.767.767,0,0,0,.362.69A4.458,4.458,0,0,0,23,13.728a6.821,6.821,0,0,1,1.535.506,2.239,2.239,0,0,1,.872.708,1.74,1.74,0,0,1,.284,1.008,1.893,1.893,0,0,1-.793,1.589,3.326,3.326,0,0,1-2.058.6,3.725,3.725,0,0,1-1.572-.314,2.557,2.557,0,0,1-1.07-.878,2.117,2.117,0,0,1-.386-1.22h1.265a1.309,1.309,0,0,0,.509,1.008,1.976,1.976,0,0,0,1.254.373,2.039,2.039,0,0,0,1.152-.291A.893.893,0,0,0,24.428,16.038Z" transform="translate(1013 1459.58)" fill="#12263f"/>
    <path id="Trazado_614252" data-name="Trazado 614252" d="M-31.6-2.6h-4.17L-36.706,0h-1.354l3.8-9.953h1.148L-29.3,0h-1.347Zm-3.773-1.073h3.384l-1.7-4.655Zm10.787-2.584a3.79,3.79,0,0,0-.622-.048A1.667,1.667,0,0,0-26.9-5.25V0h-1.265V-7.4h1.23l.021.854a1.969,1.969,0,0,1,1.764-.991,1.292,1.292,0,0,1,.561.1Zm.725,2.5a4.341,4.341,0,0,1,.8-2.758,2.592,2.592,0,0,1,2.146-1.015,2.59,2.59,0,0,1,2.071.882l.055-.745h1.162V2.844h-1.265V-.684a2.654,2.654,0,0,1-2.037.82A2.551,2.551,0,0,1-23.064-.906a4.438,4.438,0,0,1-.8-2.765Zm1.265.144a3.291,3.291,0,0,0,.537,2A1.707,1.707,0,0,0-20.614-.9a1.894,1.894,0,0,0,1.723-1V-5.517A1.9,1.9,0,0,0-20.6-6.494a1.72,1.72,0,0,0-1.456.728A3.583,3.583,0,0,0-22.6-3.616ZM-11.03-.731A2.686,2.686,0,0,1-13.2.137,2.3,2.3,0,0,1-15-.55a2.974,2.974,0,0,1-.625-2.034V-7.4h1.265v4.778q0,1.682,1.367,1.682a1.893,1.893,0,0,0,1.928-1.08V-7.4H-9.8V0H-11ZM-6.5,0H-7.769V-7.4H-6.5ZM-7.872-9.358a.755.755,0,0,1,.188-.52.706.706,0,0,1,.557-.212.717.717,0,0,1,.561.212.747.747,0,0,1,.191.52.722.722,0,0,1-.191.513.73.73,0,0,1-.561.205.718.718,0,0,1-.557-.205A.73.73,0,0,1-7.872-9.358Zm5.106.171V-7.4h1.381v.978H-2.765v4.593a1.027,1.027,0,0,0,.185.667.777.777,0,0,0,.629.222,3.062,3.062,0,0,0,.6-.082V0a3.688,3.688,0,0,1-.971.136A1.575,1.575,0,0,1-3.6-.376,2.2,2.2,0,0,1-4.03-1.832V-6.419H-5.376V-7.4H-4.03V-9.187ZM3.162.137A3.232,3.232,0,0,1,.714-.851,3.666,3.666,0,0,1-.229-3.493v-.232a4.438,4.438,0,0,1,.42-1.965A3.28,3.28,0,0,1,1.367-7.044,2.956,2.956,0,0,1,3-7.533a2.77,2.77,0,0,1,2.242.95,4.114,4.114,0,0,1,.8,2.721v.526H1.036a2.629,2.629,0,0,0,.639,1.767A2.009,2.009,0,0,0,3.23-.9a2.2,2.2,0,0,0,1.135-.273,2.851,2.851,0,0,0,.813-.725l.772.6A3.106,3.106,0,0,1,3.162.137ZM3-6.494a1.687,1.687,0,0,0-1.285.557,2.708,2.708,0,0,0-.643,1.562H4.782v-.1a2.409,2.409,0,0,0-.52-1.494A1.588,1.588,0,0,0,3-6.494ZM10.476-.9a1.822,1.822,0,0,0,1.183-.41,1.443,1.443,0,0,0,.561-1.025h1.2a2.293,2.293,0,0,1-.437,1.21A2.881,2.881,0,0,1,11.9-.205a3.107,3.107,0,0,1-1.425.342,3.047,3.047,0,0,1-2.4-1.008A4.016,4.016,0,0,1,7.181-3.63v-.212a4.453,4.453,0,0,1,.4-1.921A3.02,3.02,0,0,1,8.716-7.068a3.233,3.233,0,0,1,1.753-.465,2.966,2.966,0,0,1,2.068.745,2.663,2.663,0,0,1,.878,1.935h-1.2a1.743,1.743,0,0,0-.543-1.179,1.691,1.691,0,0,0-1.207-.461A1.77,1.77,0,0,0,8.976-5.8a3.259,3.259,0,0,0-.53,2.006v.239a3.194,3.194,0,0,0,.526,1.969A1.779,1.779,0,0,0,10.476-.9Zm6.077-8.292V-7.4h1.381v.978H16.553v4.593a1.027,1.027,0,0,0,.185.667.777.777,0,0,0,.629.222,3.062,3.062,0,0,0,.6-.082V0A3.688,3.688,0,0,1,17,.137a1.575,1.575,0,0,1-1.278-.513,2.2,2.2,0,0,1-.431-1.456V-6.419H13.942V-7.4h1.347V-9.187ZM23.977-.731A2.686,2.686,0,0,1,21.81.137a2.3,2.3,0,0,1-1.8-.687,2.974,2.974,0,0,1-.625-2.034V-7.4h1.265v4.778q0,1.682,1.367,1.682a1.893,1.893,0,0,0,1.928-1.08V-7.4h1.265V0H24ZM30.7-6.262a3.79,3.79,0,0,0-.622-.048,1.667,1.667,0,0,0-1.688,1.06V0H27.128V-7.4h1.23l.021.854a1.969,1.969,0,0,1,1.764-.991,1.292,1.292,0,0,1,.561.1ZM36.159,0a2.657,2.657,0,0,1-.178-.779,2.822,2.822,0,0,1-2.105.916,2.611,2.611,0,0,1-1.794-.619,2,2,0,0,1-.7-1.569,2.091,2.091,0,0,1,.878-1.794,4.142,4.142,0,0,1,2.471-.639h1.23v-.581a1.42,1.42,0,0,0-.4-1.056A1.593,1.593,0,0,0,34.4-6.515a1.844,1.844,0,0,0-1.135.342,1.007,1.007,0,0,0-.458.827H31.531a1.745,1.745,0,0,1,.393-1.07,2.683,2.683,0,0,1,1.066-.817,3.588,3.588,0,0,1,1.48-.3,2.924,2.924,0,0,1,2,.639,2.306,2.306,0,0,1,.752,1.76v3.4a4.162,4.162,0,0,0,.26,1.62V0Zm-2.1-.964a2.223,2.223,0,0,0,1.128-.308,1.861,1.861,0,0,0,.772-.8V-3.589h-.991q-2.324,0-2.324,1.36a1.151,1.151,0,0,0,.4.93A1.524,1.524,0,0,0,34.06-.964Z" transform="translate(800 1466.935)" fill="#12263f"/>
    <path id="Trazado_614255" data-name="Trazado 614255" d="M5.219-2.82,7.8-11.375h2.609L6.445,0H4L.055-11.375h2.6ZM15.867,0a2.507,2.507,0,0,1-.227-.758,2.732,2.732,0,0,1-2.133.914,3,3,0,0,1-2.059-.719,2.312,2.312,0,0,1-.816-1.812,2.389,2.389,0,0,1,1-2.062,4.915,4.915,0,0,1,2.879-.727h1.039v-.484a1.393,1.393,0,0,0-.3-.937,1.183,1.183,0,0,0-.949-.352,1.345,1.345,0,0,0-.895.273.929.929,0,0,0-.324.75H10.82a2.268,2.268,0,0,1,.453-1.359,3,3,0,0,1,1.281-.98,4.669,4.669,0,0,1,1.859-.355,3.689,3.689,0,0,1,2.48.785,2.747,2.747,0,0,1,.918,2.207v3.664a4.041,4.041,0,0,0,.336,1.82V0ZM14-1.57a1.945,1.945,0,0,0,.922-.223,1.462,1.462,0,0,0,.625-.6V-3.844H14.7q-1.7,0-1.8,1.172l-.008.133a.9.9,0,0,0,.3.7A1.153,1.153,0,0,0,14-1.57ZM21.93,0H19.664V-12H21.93Zm1.508-4.3a5.013,5.013,0,0,1,.484-2.242A3.546,3.546,0,0,1,25.316-8.07a4.069,4.069,0,0,1,2.113-.539,3.849,3.849,0,0,1,2.793,1.047A4.2,4.2,0,0,1,31.43-4.719l.016.578A4.418,4.418,0,0,1,30.359-1.02,3.775,3.775,0,0,1,27.445.156a3.793,3.793,0,0,1-2.918-1.172A4.5,4.5,0,0,1,23.438-4.2Zm2.258.16A3.16,3.16,0,0,0,26.148-2.3a1.5,1.5,0,0,0,1.3.638,1.5,1.5,0,0,0,1.281-.63,3.457,3.457,0,0,0,.461-2.015,3.128,3.128,0,0,0-.461-1.831,1.5,1.5,0,0,0-1.3-.649,1.474,1.474,0,0,0-1.281.646A3.516,3.516,0,0,0,25.7-4.144ZM37.586-6.336a6.134,6.134,0,0,0-.812-.062,1.654,1.654,0,0,0-1.68.867V0H32.836V-8.453h2.133l.063,1.008a2.092,2.092,0,0,1,1.883-1.164,2.366,2.366,0,0,1,.7.1Zm12.68,2.188a5.07,5.07,0,0,1-.887,3.129A2.843,2.843,0,0,1,46.984.156a2.633,2.633,0,0,1-2.07-.891V3.25H42.656v-11.7H44.75l.078.828a2.654,2.654,0,0,1,2.141-.984A2.862,2.862,0,0,1,49.4-7.453a5.207,5.207,0,0,1,.867,3.188Zm-2.258-.164a3.327,3.327,0,0,0-.418-1.82,1.361,1.361,0,0,0-1.215-.641,1.479,1.479,0,0,0-1.461.813V-2.5a1.5,1.5,0,0,0,1.477.836Q48.008-1.664,48.008-4.312ZM56.727-.859A2.831,2.831,0,0,1,54.414.156,2.67,2.67,0,0,1,52.34-.625a3.335,3.335,0,0,1-.73-2.289V-8.453h2.258v5.467q0,1.322,1.2,1.322a1.63,1.63,0,0,0,1.578-.8V-8.453h2.266V0H56.789ZM55.719-12H58.18L56.016-9.578H54.18ZM68.234-4.148A5.119,5.119,0,0,1,67.367-.98,2.872,2.872,0,0,1,64.945.156,2.639,2.639,0,0,1,62.75-.9l-.1.9H60.617V-12h2.258v4.3a2.571,2.571,0,0,1,2.055-.914,2.9,2.9,0,0,1,2.426,1.137,5.126,5.126,0,0,1,.879,3.2Zm-2.258-.164a3.363,3.363,0,0,0-.406-1.871,1.374,1.374,0,0,0-1.211-.59,1.489,1.489,0,0,0-1.484.883v3.336a1.509,1.509,0,0,0,1.5.891,1.394,1.394,0,0,0,1.438-1.078A5.562,5.562,0,0,0,65.977-4.312ZM72.008,0H69.742V-12h2.266ZM76.25,0H73.984V-8.453H76.25Zm-2.4-10.641a1.112,1.112,0,0,1,.34-.836,1.277,1.277,0,0,1,.926-.328,1.28,1.28,0,0,1,.922.328,1.105,1.105,0,0,1,.344.836,1.108,1.108,0,0,1-.348.844,1.283,1.283,0,0,1-.918.328A1.283,1.283,0,0,1,74.2-9.8,1.108,1.108,0,0,1,73.852-10.641Zm7.773,8.977a1.481,1.481,0,0,0,1.016-.344,1.2,1.2,0,0,0,.406-.914h2.117A2.9,2.9,0,0,1,84.7-1.348,3.093,3.093,0,0,1,83.434-.238a3.949,3.949,0,0,1-1.77.395A3.67,3.67,0,0,1,78.8-1,4.56,4.56,0,0,1,77.758-4.18v-.148A4.508,4.508,0,0,1,78.8-7.445a3.627,3.627,0,0,1,2.852-1.164,3.555,3.555,0,0,1,2.543.9,3.2,3.2,0,0,1,.973,2.4H83.047a1.551,1.551,0,0,0-.406-1.072,1.354,1.354,0,0,0-1.031-.412,1.36,1.36,0,0,0-1.191.575,3.333,3.333,0,0,0-.4,1.866v.235a3.375,3.375,0,0,0,.4,1.878A1.377,1.377,0,0,0,81.625-1.664ZM86.1-4.3a5.013,5.013,0,0,1,.484-2.242A3.546,3.546,0,0,1,87.98-8.07a4.069,4.069,0,0,1,2.113-.539,3.849,3.849,0,0,1,2.793,1.047,4.2,4.2,0,0,1,1.207,2.844l.016.578A4.418,4.418,0,0,1,93.023-1.02,3.775,3.775,0,0,1,90.109.156a3.793,3.793,0,0,1-2.918-1.172A4.5,4.5,0,0,1,86.1-4.2Zm2.258.16A3.16,3.16,0,0,0,88.813-2.3a1.5,1.5,0,0,0,1.3.638,1.5,1.5,0,0,0,1.281-.63,3.457,3.457,0,0,0,.461-2.015,3.128,3.128,0,0,0-.461-1.831,1.5,1.5,0,0,0-1.3-.649,1.474,1.474,0,0,0-1.281.646A3.516,3.516,0,0,0,88.359-4.144Z" transform="translate(752.5 1747.88)" fill="#12263f"/>
    <g id="Grupo_1076762" data-name="Grupo 1076762" transform="translate(-12316.994 2550.563) rotate(-90)">
      <g id="Grupo_1076565" data-name="Grupo 1076565" transform="translate(853.236 13401.594) rotate(90)">
        <path id="Trazado_213857" data-name="Trazado 213857" d="M2.754,0,0,2.753l8.114,8.115L0,18.983l2.754,2.753L13.622,10.868Z" transform="translate(6.779 0)" fill="#18b8c4"/>
        <path id="Trazado_213858" data-name="Trazado 213858" d="M0,2.753,4.265,7.018,0,11.283l2.753,2.753L9.773,7.018,2.753,0Z" transform="translate(0 3.85)" fill="#18b8c4"/>
      </g>
      <g id="Grupo_1076566" data-name="Grupo 1076566" transform="translate(831.5 12832.395) rotate(-90)">
        <path id="Trazado_213857-2" data-name="Trazado 213857" d="M2.754,0,0,2.753l8.114,8.115L0,18.983l2.754,2.753L13.622,10.868Z" transform="translate(6.779 0)" fill="#18b8c4"/>
        <path id="Trazado_213858-2" data-name="Trazado 213858" d="M0,2.753,4.265,7.018,0,11.283l2.753,2.753L9.773,7.018,2.753,0Z" transform="translate(0 3.85)" fill="#18b8c4"/>
      </g>
      <path id="Trazado_613144" data-name="Trazado 613144" d="M600,18018.816v-580.082" transform="translate(242.368 -4610.822)" fill="none" stroke="#18b8c4" stroke-width="3"/>
    </g>
  </g>
</svg>
