<svg xmlns="http://www.w3.org/2000/svg" width="141" height="141" viewBox="0 0 141 141">
  <g id="Grupo_1077068" data-name="Grupo 1077068" transform="translate(-317 -3515.831)">
    <circle id="Elipse_5614" data-name="Elipse 5614" cx="70.5" cy="70.5" r="70.5" transform="translate(317 3515.831)" fill="#fff"/>
    <g id="Artboard291" transform="translate(315.445 3532.929)">
      <g id="Grupo_1076776" data-name="Grupo 1076776" transform="translate(34.324 7)">
        <g id="Grupo_1076775" data-name="Grupo 1076775" transform="translate(1.364 1.441)">
          <g id="Grupo_1076772" data-name="Grupo 1076772" transform="translate(0 15.844)">
            <path id="Trazado_613510" data-name="Trazado 613510" d="M188.136,386.406H211v13.019h-22.86Z" transform="translate(-163.201 -338.822)" fill="#a79ba7" fill-rule="evenodd"/>
            <path id="Trazado_613511" data-name="Trazado 613511" d="M311.463,386.406h1.774v13.019h-1.774Z" transform="translate(-265.442 -338.822)" fill="#837683" fill-rule="evenodd"/>
            <path id="Trazado_613512" data-name="Trazado 613512" d="M110.483,458.063H159.9v-3.81c0-2.092-2.148-3.81-4.768-3.81H115.251c-2.625,0-4.768,1.718-4.768,3.81Z" transform="translate(-98.825 -391.91)" fill="#eceff1" fill-rule="evenodd"/>
            <path id="Trazado_613513" data-name="Trazado 613513" d="M110.483,461.75H159.9v-3.81a3.634,3.634,0,0,0-1.924-3.05,3.141,3.141,0,0,1,.408,1.538v3.81h-47.9Z" transform="translate(-98.825 -395.597)" fill="#d1d1d6" fill-rule="evenodd"/>
            <path id="Trazado_613514" data-name="Trazado 613514" d="M47.888,108.1h61.553a5.61,5.61,0,0,1,5.593,5.593v38.465a5.61,5.61,0,0,1-5.593,5.593H47.888a5.606,5.606,0,0,1-5.588-5.593V113.691A5.606,5.606,0,0,1,47.888,108.1Z" transform="translate(-42.3 -108.098)" fill="#eceff1" fill-rule="evenodd"/>
            <path id="Trazado_613515" data-name="Trazado 613515" d="M117.183,113.7a5.6,5.6,0,0,1,2.474,4.635V156.8a5.61,5.61,0,0,1-5.593,5.593H52.512a5.609,5.609,0,0,1-4.635-2.47,5.57,5.57,0,0,0,3.118.954h61.553a5.606,5.606,0,0,0,5.593-5.588v-38.47a5.54,5.54,0,0,0-.958-3.118Z" transform="translate(-46.923 -112.742)" fill="#d1d1d6" fill-rule="evenodd"/>
            <path id="Trazado_613516" data-name="Trazado 613516" d="M70.411,135.457h61.832a.776.776,0,0,1,.773.773v34.823H69.633V136.23A.776.776,0,0,1,70.411,135.457Z" transform="translate(-64.96 -130.779)" fill="#d8ecfe" fill-rule="evenodd"/>
            <path id="Trazado_613517" data-name="Trazado 613517" d="M418.083,135.457h3.032a.776.776,0,0,1,.773.773v34.823H418.86V136.23A.779.779,0,0,0,418.083,135.457Z" transform="translate(-353.833 -130.779)" fill="#c4e2ff" fill-rule="evenodd"/>
          </g>
          <g id="Grupo_1076773" data-name="Grupo 1076773" transform="translate(16.291)">
            <path id="Trazado_613518" data-name="Trazado 613518" d="M157.318,15.5a.855.855,0,0,1,.674,0l19.223,8.241a.855.855,0,0,1,.518.786V40.191a23.431,23.431,0,0,1-19.347,23h0l-.581.1a.861.861,0,0,1-.3,0l-.581-.1h0a23.431,23.431,0,0,1-19.342-23V24.525a.855.855,0,0,1,.518-.786L157.318,15.5Z" transform="translate(-137.581 -15.43)" fill="#6debff" fill-rule="evenodd"/>
            <path id="Trazado_613519" data-name="Trazado 613519" d="M249.986,15.721l.518-.222a.855.855,0,0,1,.674,0L270.4,23.739a.855.855,0,0,1,.518.786V40.191a23.431,23.431,0,0,1-19.347,23h0l-.581.1a.861.861,0,0,1-.3,0l-.581-.1h0l-.124-.022a23.431,23.431,0,0,0,19.223-22.973V24.525a.855.855,0,0,0-.518-.786Z" transform="translate(-230.767 -15.43)" fill="#6debff" fill-rule="evenodd"/>
          </g>
          <g id="Grupo_1076774" data-name="Grupo 1076774" transform="translate(25.317 7.151)">
            <path id="Trazado_613520" data-name="Trazado 613520" d="M221.179,68.409h3.595v-3.3a7.853,7.853,0,1,0-15.707,0v3.3h3.6v-3.3a4.257,4.257,0,1,1,8.514,0Z" transform="translate(-205.871 -57.255)" fill="#837683" fill-rule="evenodd"/>
            <path id="Trazado_613521" data-name="Trazado 613521" d="M222.785,68.409v-3.3a4.279,4.279,0,0,1,4.257-4.26,4.211,4.211,0,0,1,.626.047,4.284,4.284,0,0,0-3.63,4.213v3.3Zm12.109,0v-3.3a7.879,7.879,0,0,0-7.225-7.83q.31-.025.626-.025a7.876,7.876,0,0,1,7.852,7.855v3.3Z" transform="translate(-217.244 -57.255)" fill="#685e68" fill-rule="evenodd"/>
            <path id="Trazado_613522" data-name="Trazado 613522" d="M191.812,122.493H211.04a1.436,1.436,0,0,1,1.433,1.433v15.285a1.433,1.433,0,0,1-1.433,1.433H191.812a1.436,1.436,0,0,1-1.437-1.433V123.926A1.438,1.438,0,0,1,191.812,122.493Z" transform="translate(-190.375 -111.339)" fill="#eba325" fill-rule="evenodd"/>
            <path id="Trazado_613523" data-name="Trazado 613523" d="M303.914,122.493h1.253a1.436,1.436,0,0,1,1.433,1.433v15.285a1.433,1.433,0,0,1-1.433,1.433h-1.253a1.433,1.433,0,0,0,1.433-1.433V123.926A1.436,1.436,0,0,0,303.914,122.493Z" transform="translate(-284.501 -111.339)" fill="#ffd064" fill-rule="evenodd"/>
            <path id="Trazado_613524" data-name="Trazado 613524" d="M241.449,143.675a2.8,2.8,0,0,1,1.467,5.178v4.264a1.467,1.467,0,0,1-2.933,0v-4.264a2.8,2.8,0,0,1,1.467-5.178Z" transform="translate(-230.398 -128.899)" fill="#eceff1" fill-rule="evenodd"/>
            <path id="Trazado_613525" data-name="Trazado 613525" d="M242.075,154.442a1.454,1.454,0,0,1-.626.141,1.469,1.469,0,0,1-1.467-1.466v-4.264a2.8,2.8,0,0,1,2.093-5.107,2.8,2.8,0,0,0-.84,5.107v4.264A1.469,1.469,0,0,0,242.075,154.442Z" transform="translate(-230.398 -128.899)" fill="#d1d1d6" fill-rule="evenodd"/>
          </g>
        </g>
        <path id="Trazado_613526" data-name="Trazado 613526" d="M59.26,75.3H41.284a6.982,6.982,0,0,1-6.96-6.96V29.883a6.982,6.982,0,0,1,6.96-6.96h9.327V16.975a1.368,1.368,0,0,1,.829-1.257L71.513,7.11a1.368,1.368,0,0,1,1.078,0l20.078,8.607a1.367,1.367,0,0,1,.829,1.257v5.948h9.327a6.982,6.982,0,0,1,6.96,6.96v38.46a6.982,6.982,0,0,1-6.96,6.96H84.854v6.149H92c3.448,0,6.136,2.42,6.136,5.173v3.811A1.368,1.368,0,0,1,96.764,91.8H47.35a1.368,1.368,0,0,1-1.368-1.368V86.626c0-2.753,2.688-5.173,6.136-5.173H59.26ZM50.611,25.658H41.284a4.238,4.238,0,0,0-4.225,4.225v38.46a4.238,4.238,0,0,0,4.225,4.225h61.541a4.238,4.238,0,0,0,4.225-4.225V29.883a4.238,4.238,0,0,0-4.225-4.225H93.5V27.6h9.47a2.146,2.146,0,0,1,2.143,2.143V64.518a1.368,1.368,0,0,1-1.368,1.368H40.366A1.368,1.368,0,0,1,39,64.518V29.745A2.145,2.145,0,0,1,41.146,27.6h9.465ZM82.118,75.3H62v6.149H82.118ZM93.5,30.338V33.2A24.8,24.8,0,0,1,73.02,57.546l-.729.129a1.371,1.371,0,0,1-.478,0l-.729-.129A24.8,24.8,0,0,1,50.611,33.2V30.338H41.734V63.15h60.641V30.338ZM72.052,9.856,53.346,17.877V33.2a22.058,22.058,0,0,0,18.21,21.648h0l.491.087.491-.087h0A22.058,22.058,0,0,0,90.763,33.2V17.877ZM81.277,25.38h.395a2.806,2.806,0,0,1,2.8,2.8V43.467a2.8,2.8,0,0,1-2.8,2.8H62.441a2.806,2.806,0,0,1-2.8-2.8V28.181a2.81,2.81,0,0,1,2.8-2.8h.392V23.449a9.222,9.222,0,1,1,18.444,0Zm-12.11,0h5.779V23.449a2.889,2.889,0,1,0-5.779,0Zm9.374,0V23.449a6.486,6.486,0,1,0-12.973,0V25.38h.863V23.449a5.625,5.625,0,1,1,11.25,0V25.38Zm-16.1,2.736a.067.067,0,0,0-.069.066V43.467a.067.067,0,0,0,.069.066H81.671a.066.066,0,0,0,.066-.066V28.181a.066.066,0,0,0-.066-.066ZM72.056,29a4.167,4.167,0,0,1,2.834,7.216v3.594a2.835,2.835,0,1,1-5.669,0s0-3.594,0-3.594A4.165,4.165,0,0,1,72.056,29Zm0,2.736a1.429,1.429,0,0,0-.749,2.647,1.368,1.368,0,0,1,.65,1.164v4.264a.1.1,0,1,0,.2,0V35.548a1.368,1.368,0,0,1,.65-1.164,1.43,1.43,0,0,0-.749-2.647ZM48.718,89.069H95.4V86.626c0-1.435-1.6-2.438-3.4-2.438H52.118c-1.8,0-3.4,1-3.4,2.438Z" transform="translate(-34.324 -7)" fill-rule="evenodd"/>
      </g>
    </g>
  </g>
</svg>
