<svg xmlns="http://www.w3.org/2000/svg" xmlns:xlink="http://www.w3.org/1999/xlink" width="400" height="522" viewBox="0 0 400 522">
  <defs>
    <clipPath id="clip-path">
      <rect id="Rectangle_291117" data-name="Rectangle 291117" width="400" height="522" transform="translate(0 0.001)" fill="none"/>
    </clipPath>
    <radialGradient id="radial-gradient" cx="0.386" cy="0.252" r="1.28" gradientTransform="matrix(0.667, 0, 0, -1, 0, 2)" gradientUnits="objectBoundingBox">
      <stop offset="0" stop-color="#f2fff9"/>
      <stop offset="1" stop-color="#ebf6f1"/>
    </radialGradient>
    <linearGradient id="linear-gradient" x1="0.5" x2="0.5" y2="1" gradientUnits="objectBoundingBox">
      <stop offset="0" stop-color="#fff"/>
      <stop offset="1" stop-color="#fff" stop-opacity="0"/>
    </linearGradient>
    <linearGradient id="linear-gradient-2" y1="1" y2="0" xlink:href="#linear-gradient"/>
    <linearGradient id="linear-gradient-3" x1="0.5" x2="0.5" y2="1" gradientUnits="objectBoundingBox">
      <stop offset="0" stop-color="#e1efe3"/>
      <stop offset="1" stop-color="#fff"/>
    </linearGradient>
  </defs>
  <g id="Group_1077102" data-name="Group 1077102" transform="translate(2978 7480)">
    <g id="Group_870471" data-name="Group 870471" transform="translate(-2978 -7480.001)">
      <g id="Group_870469" data-name="Group 870469" transform="translate(0 0)" clip-path="url(#clip-path)">
        <rect id="Rectangle_291116" data-name="Rectangle 291116" width="400" height="522" transform="translate(0 0.001)" fill="url(#radial-gradient)"/>
      </g>
    </g>
    <path id="Path_614292" data-name="Path 614292" d="M0,0H400V101H0Z" transform="translate(-2978 -7480)" fill="url(#linear-gradient)"/>
    <path id="Path_614293" data-name="Path 614293" d="M0,0H400V101H0Z" transform="translate(-2978 -7059)" fill="url(#linear-gradient-2)"/>
    <path id="Path_614294" data-name="Path 614294" d="M0,0H115V142H10A10,10,0,0,1,0,132Z" transform="translate(-2889.353 -7233)" fill="#0c5e46"/>
    <path id="Path_614295" data-name="Path 614295" d="M-31.234-5.07a7.053,7.053,0,0,1-2.809-1.363,2.6,2.6,0,0,1-.879-2,2.752,2.752,0,0,1,1.074-2.223,4.269,4.269,0,0,1,2.793-.879,4.66,4.66,0,0,1,2.09.453,3.436,3.436,0,0,1,1.422,1.25,3.2,3.2,0,0,1,.5,1.742h-1.508A2.08,2.08,0,0,0-29.2-9.713a2.669,2.669,0,0,0-1.852-.592,2.732,2.732,0,0,0-1.73.489,1.632,1.632,0,0,0-.621,1.358,1.468,1.468,0,0,0,.59,1.178,5.785,5.785,0,0,0,2.008.88,9.316,9.316,0,0,1,2.219.88A3.367,3.367,0,0,1-27.4-4.4a2.861,2.861,0,0,1,.387,1.508A2.658,2.658,0,0,1-28.094-.676a4.6,4.6,0,0,1-2.883.832,5.347,5.347,0,0,1-2.187-.449,3.681,3.681,0,0,1-1.566-1.23A3,3,0,0,1-35.281-3.3h1.508a1.959,1.959,0,0,0,.762,1.629,3.207,3.207,0,0,0,2.035.6,2.948,2.948,0,0,0,1.82-.484,1.573,1.573,0,0,0,.633-1.32,1.545,1.545,0,0,0-.586-1.293A6.755,6.755,0,0,0-31.234-5.07ZM-21.812.156a3.693,3.693,0,0,1-2.8-1.129,4.19,4.19,0,0,1-1.078-3.02v-.266a5.073,5.073,0,0,1,.48-2.246,3.748,3.748,0,0,1,1.344-1.547,3.378,3.378,0,0,1,1.871-.559A3.166,3.166,0,0,1-19.43-7.523a4.7,4.7,0,0,1,.914,3.109v.6h-5.727a3,3,0,0,0,.73,2.02,2.3,2.3,0,0,0,1.777.77,2.517,2.517,0,0,0,1.3-.312,3.259,3.259,0,0,0,.93-.828l.883.688A3.55,3.55,0,0,1-21.812.156Zm-.18-7.578a1.928,1.928,0,0,0-1.469.637A3.1,3.1,0,0,0-24.2-5h4.234v-.109a2.753,2.753,0,0,0-.594-1.707A1.815,1.815,0,0,0-21.992-7.422Zm4.8,3.125a4.968,4.968,0,0,1,.914-3.145,2.923,2.923,0,0,1,2.422-1.168,2.908,2.908,0,0,1,2.414,1.094l.07-.937h1.32V-.2a3.439,3.439,0,0,1-.973,2.586,3.589,3.589,0,0,1-2.613.945,4.348,4.348,0,0,1-1.789-.391,3.08,3.08,0,0,1-1.336-1.07l.75-.867a2.826,2.826,0,0,0,2.273,1.148,2.214,2.214,0,0,0,1.645-.594A2.269,2.269,0,0,0-11.5-.117V-.844a2.971,2.971,0,0,1-2.367,1,2.887,2.887,0,0,1-2.4-1.2A5.224,5.224,0,0,1-17.187-4.3Zm1.453.164a3.79,3.79,0,0,0,.586,2.246,1.9,1.9,0,0,0,1.641.816A2.117,2.117,0,0,0-11.5-2.312V-6.172a2.142,2.142,0,0,0-1.992-1.211,1.921,1.921,0,0,0-1.648.82A4.128,4.128,0,0,0-15.734-4.133Zm13.086,3.3A3.07,3.07,0,0,1-5.125.156,2.628,2.628,0,0,1-7.184-.629,3.4,3.4,0,0,1-7.9-2.953v-5.5h1.445v5.461q0,1.922,1.563,1.922A2.163,2.163,0,0,0-2.687-2.3V-8.453h1.445V0H-2.617Zm7.688-6.32a4.331,4.331,0,0,0-.711-.055A1.9,1.9,0,0,0,2.4-6V0H.953V-8.453H2.359l.023.977A2.251,2.251,0,0,1,4.4-8.609a1.477,1.477,0,0,1,.641.109ZM7.938,0H6.492V-8.453H7.938ZM6.375-10.7a.863.863,0,0,1,.215-.594.807.807,0,0,1,.637-.242.819.819,0,0,1,.641.242.854.854,0,0,1,.219.594.826.826,0,0,1-.219.586.834.834,0,0,1-.641.234.821.821,0,0,1-.637-.234A.834.834,0,0,1,6.375-10.7ZM9.9-4.3a4.952,4.952,0,0,1,.922-3.129,2.915,2.915,0,0,1,2.414-1.184,2.932,2.932,0,0,1,2.352,1.016V-12h1.445V0H15.7l-.07-.906A2.943,2.943,0,0,1,13.219.156a2.887,2.887,0,0,1-2.395-1.2A5.008,5.008,0,0,1,9.9-4.187Zm1.445.164a3.749,3.749,0,0,0,.594,2.25,1.92,1.92,0,0,0,1.641.813A2.108,2.108,0,0,0,15.586-2.3V-6.187a2.125,2.125,0,0,0-1.992-1.2,1.929,1.929,0,0,0-1.656.82A4.128,4.128,0,0,0,11.344-4.133ZM24.492,0a3.036,3.036,0,0,1-.2-.891A3.225,3.225,0,0,1,21.883.156a2.984,2.984,0,0,1-2.051-.707,2.287,2.287,0,0,1-.8-1.793,2.39,2.39,0,0,1,1-2.051,4.733,4.733,0,0,1,2.824-.73h1.406v-.664A1.623,1.623,0,0,0,23.813-7a1.821,1.821,0,0,0-1.336-.449,2.108,2.108,0,0,0-1.3.391,1.151,1.151,0,0,0-.523.945H19.2a2,2,0,0,1,.449-1.223,3.066,3.066,0,0,1,1.219-.934,4.1,4.1,0,0,1,1.691-.344,3.342,3.342,0,0,1,2.289.73,2.635,2.635,0,0,1,.859,2.012v3.891a4.757,4.757,0,0,0,.3,1.852V0Zm-2.4-1.1a2.54,2.54,0,0,0,1.289-.352,2.127,2.127,0,0,0,.883-.914V-4.1H23.133q-2.656,0-2.656,1.555a1.316,1.316,0,0,0,.453,1.063A1.742,1.742,0,0,0,22.094-1.1Zm5.531-3.2a4.952,4.952,0,0,1,.922-3.129,2.915,2.915,0,0,1,2.414-1.184,2.932,2.932,0,0,1,2.352,1.016V-12h1.445V0H33.43l-.07-.906A2.943,2.943,0,0,1,30.945.156a2.887,2.887,0,0,1-2.395-1.2,5.008,5.008,0,0,1-.926-3.141Zm1.445.164a3.749,3.749,0,0,0,.594,2.25A1.92,1.92,0,0,0,31.3-1.07,2.108,2.108,0,0,0,33.313-2.3V-6.187a2.125,2.125,0,0,0-1.992-1.2,1.929,1.929,0,0,0-1.656.82A4.128,4.128,0,0,0,29.07-4.133ZM-29.645,13.7a4.952,4.952,0,0,1,.922-3.129,2.915,2.915,0,0,1,2.414-1.184,2.932,2.932,0,0,1,2.352,1.016V6h1.445V18H-23.84l-.07-.906a2.943,2.943,0,0,1-2.414,1.063,2.887,2.887,0,0,1-2.395-1.2,5.008,5.008,0,0,1-.926-3.141Zm1.445.164a3.749,3.749,0,0,0,.594,2.25,1.92,1.92,0,0,0,1.641.813A2.108,2.108,0,0,0-23.957,15.7V11.813a2.125,2.125,0,0,0-1.992-1.2,1.929,1.929,0,0,0-1.656.82A4.128,4.128,0,0,0-28.2,13.867Zm11.438,4.289a3.693,3.693,0,0,1-2.8-1.129,4.19,4.19,0,0,1-1.078-3.02v-.266a5.073,5.073,0,0,1,.48-2.246,3.748,3.748,0,0,1,1.344-1.547,3.378,3.378,0,0,1,1.871-.559,3.166,3.166,0,0,1,2.563,1.086,4.7,4.7,0,0,1,.914,3.109v.6h-5.727a3,3,0,0,0,.73,2.02,2.3,2.3,0,0,0,1.777.77,2.517,2.517,0,0,0,1.3-.312,3.259,3.259,0,0,0,.93-.828l.883.688A3.55,3.55,0,0,1-16.762,18.156Zm-.18-7.578a1.928,1.928,0,0,0-1.469.637A3.1,3.1,0,0,0-19.145,13h4.234v-.109a2.753,2.753,0,0,0-.594-1.707A1.815,1.815,0,0,0-16.941,10.578ZM-6.262,18H-7.707V6h1.445ZM1.27,18a3.036,3.036,0,0,1-.2-.891A3.225,3.225,0,0,1-1.34,18.156a2.984,2.984,0,0,1-2.051-.707,2.287,2.287,0,0,1-.8-1.793,2.39,2.39,0,0,1,1-2.051,4.733,4.733,0,0,1,2.824-.73H1.043v-.664A1.623,1.623,0,0,0,.59,11a1.821,1.821,0,0,0-1.336-.449,2.107,2.107,0,0,0-1.3.391,1.151,1.151,0,0,0-.523.945H-4.02a2,2,0,0,1,.449-1.223,3.066,3.066,0,0,1,1.219-.934A4.1,4.1,0,0,1-.66,9.391a3.342,3.342,0,0,1,2.289.73,2.635,2.635,0,0,1,.859,2.012v3.891a4.757,4.757,0,0,0,.3,1.852V18Zm-2.4-1.1A2.54,2.54,0,0,0,.16,16.547a2.127,2.127,0,0,0,.883-.914V13.9H-.09q-2.656,0-2.656,1.555a1.316,1.316,0,0,0,.453,1.063A1.742,1.742,0,0,0-1.129,16.9ZM12.8,10.844a4.331,4.331,0,0,0-.711-.055A1.9,1.9,0,0,0,10.16,12v6H8.715V9.547h1.406l.023.977A2.251,2.251,0,0,1,12.16,9.391,1.477,1.477,0,0,1,12.8,9.5Zm4.688,7.313a3.693,3.693,0,0,1-2.8-1.129,4.19,4.19,0,0,1-1.078-3.02v-.266a5.073,5.073,0,0,1,.48-2.246,3.748,3.748,0,0,1,1.344-1.547,3.378,3.378,0,0,1,1.871-.559,3.166,3.166,0,0,1,2.563,1.086,4.7,4.7,0,0,1,.914,3.109v.6H15.059a3,3,0,0,0,.73,2.02,2.3,2.3,0,0,0,1.777.77,2.517,2.517,0,0,0,1.3-.312,3.259,3.259,0,0,0,.93-.828l.883.688A3.55,3.55,0,0,1,17.488,18.156Zm-.18-7.578a1.928,1.928,0,0,0-1.469.637A3.1,3.1,0,0,0,15.105,13H19.34v-.109a2.753,2.753,0,0,0-.594-1.707A1.815,1.815,0,0,0,17.309,10.578Zm4.8,3.125a4.952,4.952,0,0,1,.922-3.129,3.137,3.137,0,0,1,4.766-.168V6h1.445V18H27.91l-.07-.906a2.943,2.943,0,0,1-2.414,1.063,2.887,2.887,0,0,1-2.395-1.2,5.008,5.008,0,0,1-.926-3.141Zm1.445.164a3.749,3.749,0,0,0,.594,2.25,1.92,1.92,0,0,0,1.641.813A2.108,2.108,0,0,0,27.793,15.7V11.813a2.125,2.125,0,0,0-1.992-1.2,1.929,1.929,0,0,0-1.656.82A4.128,4.128,0,0,0,23.551,13.867Z" transform="translate(-2832.58 -7134)" fill="#fff"/>
    <g id="Path_614296" data-name="Path 614296" transform="translate(-2931.681 -7426)" fill="none">
      <path d="M20,0H288.073a20,20,0,0,1,20,20V163a20,20,0,0,1-20,20H20A20,20,0,0,1,0,163V20A20,20,0,0,1,20,0Z" stroke="none"/>
      <path d="M 20 2 C 15.19204711914062 2 10.67184448242188 3.872329711914062 7.272064208984375 7.272079467773438 C 3.872314453125 10.67182922363281 2 15.19204711914062 2 20 L 2 163 C 2 167.8079528808594 3.872314453125 172.3281707763672 7.272064208984375 175.7279205322266 C 10.67184448242188 179.1276702880859 15.19204711914062 181 20 181 L 288.0732421875 181 C 292.8811950683594 181 297.4014282226562 179.1276702880859 300.8011474609375 175.7279205322266 C 304.200927734375 172.3281707763672 306.0732421875 167.8079528808594 306.0732421875 163 L 306.0732421875 20 C 306.0732421875 15.19204711914062 304.200927734375 10.67182922363281 300.8011474609375 7.272079467773438 C 297.4014282226562 3.872329711914062 292.8811950683594 2 288.0732421875 2 L 20 2 M 20 0 L 288.0732421875 0 C 299.1189270019531 0 308.0732421875 8.95428466796875 308.0732421875 20 L 308.0732421875 163 C 308.0732421875 174.0457153320312 299.1189270019531 183 288.0732421875 183 L 20 183 C 8.954315185546875 183 0 174.0457153320312 0 163 L 0 20 C 0 8.95428466796875 8.954315185546875 0 20 0 Z" stroke="none" fill="#0c5e46"/>
    </g>
    <g id="Path_614297" data-name="Path 614297" transform="translate(-2969.681 -7245)" fill="none">
      <path d="M20,0H363.073a20,20,0,0,1,20,20V215a20,20,0,0,1-20,20H20A20,20,0,0,1,0,215V20A20,20,0,0,1,20,0Z" stroke="none"/>
      <path d="M 19.99996948242188 2 C 15.1920166015625 2 10.67181396484375 3.872344970703125 7.272064208984375 7.2720947265625 C 3.872314453125 10.67184448242188 1.999969482421875 15.19204711914062 1.999969482421875 20 L 1.999969482421875 215 C 1.999969482421875 219.8079528808594 3.872314453125 224.3281555175781 7.272064208984375 227.7279052734375 C 10.67181396484375 231.1276550292969 15.1920166015625 233 19.99996948242188 233 L 363.0732116699219 233 C 367.8812255859375 233 372.4013671875 231.1276550292969 375.8011169433594 227.7279052734375 C 379.2008666992188 224.3281555175781 381.0732116699219 219.8079986572266 381.0732116699219 215 L 381.0732116699219 20 C 381.0732116699219 15.19200134277344 379.2008666992188 10.67184448242188 375.8011169433594 7.2720947265625 C 372.4013671875 3.872344970703125 367.8812255859375 2 363.0732116699219 2 L 19.99996948242188 2 M 19.99996948242188 0 L 363.0732116699219 0 C 374.1189270019531 0 383.0732116699219 8.954299926757812 383.0732116699219 20 L 383.0732116699219 215 C 383.0732116699219 226.0457000732422 374.1189270019531 235 363.0732116699219 235 L 19.99996948242188 235 C 8.954315185546875 235 -3.0517578125e-05 226.0457000732422 -3.0517578125e-05 215 L -3.0517578125e-05 20 C -3.0517578125e-05 8.954299926757812 8.954315185546875 0 19.99996948242188 0 Z" stroke="none" fill="#0c5e46"/>
    </g>
    <g id="Group_1076779" data-name="Group 1076779" transform="translate(-2911.681 -7393.248)">
      <g id="Group_154234" data-name="Group 154234">
        <path id="Subtraction_4" data-name="Subtraction 4" d="M205.76,48.753H.218L0,1.958l6.382-.051c.037,1.533.137,2.594.138,2.6H46.991L49.82,1.559,244.344,0l-.218,41.847h-32.3l-6.067,6.905Z" transform="translate(21.475 2.495)" fill="#e1efe3"/>
        <text id="Seguridad_de_la_información" data-name="Seguridad de la información" transform="translate(56.365 15.532)" fill="#12263f" font-size="16" font-family="Roboto-Bold, Roboto" font-weight="700"><tspan x="0" y="15">Seguridad de la información</tspan></text>
        <path id="Path_213850" data-name="Path 213850" d="M-1.281,1.311H21.763V6.69H-4Z" transform="translate(244.846 44.364)" fill="#0c5e46" opacity="0.5"/>
        <path id="Path_213851" data-name="Path 213851" d="M0,0H46.226V45.674H0Z" fill="url(#linear-gradient-3)"/>
        <g id="Layer_x0020_1" transform="translate(10.28 8.799)">
          <path id="Path_613527" data-name="Path 613527" d="M198.83,23.011c-.479,0-.369-.615-.369-1.095a1.048,1.048,0,1,1,.745,0C199.206,22.4,199.316,23.011,198.83,23.011ZM189.167,7.493V.376A.376.376,0,0,1,189.543,0h18.581a.376.376,0,0,1,.376.376v9.792h2.791a.37.37,0,0,1,.376.369V27.7a.376.376,0,0,1-.376.376H186.376A.376.376,0,0,1,186,27.7V7.869a.376.376,0,0,1,.376-.376ZM199.6,10.168h8.147V.745h-17.83V7.493h6.548a.375.375,0,0,1,.253.1Zm9.993,16.172H188.072a.376.376,0,0,1-.376-.376V12.279a.376.376,0,0,1,.376-.376h21.521a.376.376,0,0,1,.376.376V25.964A.376.376,0,0,1,209.594,26.34Zm-21.146-.751h20.77V12.649h-20.77Zm-1.7,1.742h24.164V10.913H199.458a.374.374,0,0,1-.253-.1l-2.882-2.578h-9.572ZM205.578,3.569H192.088a.376.376,0,0,1,0-.751h13.491A.376.376,0,0,1,205.578,3.569Zm0,2.26H192.088a.372.372,0,0,1,0-.745h13.491A.372.372,0,0,1,205.578,5.829Zm0,2.267h-6.166a.376.376,0,0,1,0-.751C206.071,7.344,206.071,8.1,205.578,8.1Zm-2.6,16.515h-8.3a.376.376,0,0,1-.376-.376V18.659a.375.375,0,0,1,.376-.369h1.334V16.334c0-3.594,5.66-3.594,5.66,0V18.29h1.3a.375.375,0,0,1,.376.369v5.576A.376.376,0,0,1,202.981,24.611Zm-7.921-.745h7.545c-.019-3.729.085-2.31,0-4.831h-7.545Zm1.7-5.576h4.164V16.334c0-2.61-4.164-2.61-4.164,0Zm2.066,2.344a.3.3,0,0,0,0,.609A.3.3,0,0,0,198.83,20.634Z" transform="translate(-186)" fill-rule="evenodd"/>
        </g>
      </g>
      <g id="Group_154240" data-name="Group 154240" transform="translate(22.108 17.369)">
        <path id="Path_213855" data-name="Path 213855" d="M0,0,2.5,3.327v23.7H0Z" transform="translate(24.119)" fill="#0c5e46"/>
        <path id="Path_213856" data-name="Path 213856" d="M0,26.614l2.5-3.327V0H0Z" transform="translate(26.614 26.614) rotate(90)" fill="#0c5e46"/>
      </g>
    </g>
    <path id="Path_614298" data-name="Path 614298" d="M10,0H186.073a10,10,0,0,1,10,10V38a10,10,0,0,1-10,10H10A10,10,0,0,1,0,38V10A10,10,0,0,1,10,0Z" transform="translate(-2875.681 -7312)" fill="#0c5e46"/>
    <path id="Path_614299" data-name="Path 614299" d="M0,0H116V132a10,10,0,0,1-10,10H0Z" transform="translate(-2781.949 -7233)" fill="#e1fbff"/>
    <path id="Path_614300" data-name="Path 614300" d="M4.672-5.07A7.053,7.053,0,0,1,1.863-6.434a2.6,2.6,0,0,1-.879-2,2.751,2.751,0,0,1,1.074-2.223,4.269,4.269,0,0,1,2.793-.879,4.66,4.66,0,0,1,2.09.453,3.436,3.436,0,0,1,1.422,1.25,3.2,3.2,0,0,1,.5,1.742H7.359A2.08,2.08,0,0,0,6.7-9.713,2.669,2.669,0,0,0,4.852-10.3a2.732,2.732,0,0,0-1.73.489A1.632,1.632,0,0,0,2.5-8.458,1.468,1.468,0,0,0,3.09-7.28,5.785,5.785,0,0,0,5.1-6.4a9.316,9.316,0,0,1,2.219.88A3.367,3.367,0,0,1,8.5-4.4a2.861,2.861,0,0,1,.387,1.508A2.658,2.658,0,0,1,7.813-.676,4.6,4.6,0,0,1,4.93.156,5.347,5.347,0,0,1,2.742-.293a3.681,3.681,0,0,1-1.566-1.23A3,3,0,0,1,.625-3.3H2.133a1.959,1.959,0,0,0,.762,1.629,3.207,3.207,0,0,0,2.035.6,2.948,2.948,0,0,0,1.82-.484,1.573,1.573,0,0,0,.633-1.32A1.545,1.545,0,0,0,6.8-4.168,6.755,6.755,0,0,0,4.672-5.07ZM14.094.156A3.693,3.693,0,0,1,11.3-.973a4.19,4.19,0,0,1-1.078-3.02v-.266A5.073,5.073,0,0,1,10.7-6.5a3.748,3.748,0,0,1,1.344-1.547,3.378,3.378,0,0,1,1.871-.559,3.166,3.166,0,0,1,2.563,1.086,4.7,4.7,0,0,1,.914,3.109v.6H11.664a3,3,0,0,0,.73,2.02,2.3,2.3,0,0,0,1.777.77,2.517,2.517,0,0,0,1.3-.312,3.259,3.259,0,0,0,.93-.828l.883.688A3.55,3.55,0,0,1,14.094.156Zm-.18-7.578a1.928,1.928,0,0,0-1.469.637A3.1,3.1,0,0,0,11.711-5h4.234v-.109a2.753,2.753,0,0,0-.594-1.707A1.815,1.815,0,0,0,13.914-7.422Zm4.8,3.125a4.968,4.968,0,0,1,.914-3.145,2.923,2.923,0,0,1,2.422-1.168,2.908,2.908,0,0,1,2.414,1.094l.07-.937h1.32V-.2a3.439,3.439,0,0,1-.973,2.586,3.589,3.589,0,0,1-2.613.945,4.348,4.348,0,0,1-1.789-.391,3.08,3.08,0,0,1-1.336-1.07L19.9,1a2.826,2.826,0,0,0,2.273,1.148,2.214,2.214,0,0,0,1.645-.594,2.269,2.269,0,0,0,.59-1.672V-.844a2.971,2.971,0,0,1-2.367,1,2.887,2.887,0,0,1-2.4-1.2A5.224,5.224,0,0,1,18.719-4.3Zm1.453.164a3.79,3.79,0,0,0,.586,2.246A1.9,1.9,0,0,0,22.4-1.07a2.117,2.117,0,0,0,2.008-1.242V-6.172a2.142,2.142,0,0,0-1.992-1.211,1.921,1.921,0,0,0-1.648.82A4.128,4.128,0,0,0,20.172-4.133Zm13.086,3.3a3.07,3.07,0,0,1-2.477.992,2.628,2.628,0,0,1-2.059-.785,3.4,3.4,0,0,1-.715-2.324v-5.5h1.445v5.461q0,1.922,1.563,1.922a2.163,2.163,0,0,0,2.2-1.234V-8.453h1.445V0H33.289Zm7.688-6.32a4.331,4.331,0,0,0-.711-.055A1.9,1.9,0,0,0,38.3-6V0H36.859V-8.453h1.406l.023.977A2.251,2.251,0,0,1,40.3-8.609a1.477,1.477,0,0,1,.641.109ZM43.844,0H42.4V-8.453h1.445ZM42.281-10.7a.863.863,0,0,1,.215-.594.807.807,0,0,1,.637-.242.819.819,0,0,1,.641.242.854.854,0,0,1,.219.594.826.826,0,0,1-.219.586.834.834,0,0,1-.641.234.821.821,0,0,1-.637-.234A.834.834,0,0,1,42.281-10.7ZM45.8-4.3a4.952,4.952,0,0,1,.922-3.129,2.915,2.915,0,0,1,2.414-1.184,2.932,2.932,0,0,1,2.352,1.016V-12h1.445V0H51.609l-.07-.906A2.943,2.943,0,0,1,49.125.156a2.887,2.887,0,0,1-2.395-1.2A5.008,5.008,0,0,1,45.8-4.187Zm1.445.164a3.749,3.749,0,0,0,.594,2.25,1.92,1.92,0,0,0,1.641.813A2.108,2.108,0,0,0,51.492-2.3V-6.187a2.125,2.125,0,0,0-1.992-1.2,1.929,1.929,0,0,0-1.656.82A4.128,4.128,0,0,0,47.25-4.133ZM60.4,0a3.036,3.036,0,0,1-.2-.891A3.225,3.225,0,0,1,57.789.156a2.984,2.984,0,0,1-2.051-.707,2.287,2.287,0,0,1-.8-1.793,2.39,2.39,0,0,1,1-2.051,4.733,4.733,0,0,1,2.824-.73h1.406v-.664A1.623,1.623,0,0,0,59.719-7a1.821,1.821,0,0,0-1.336-.449,2.107,2.107,0,0,0-1.3.391,1.151,1.151,0,0,0-.523.945H55.109a2,2,0,0,1,.449-1.223,3.066,3.066,0,0,1,1.219-.934,4.1,4.1,0,0,1,1.691-.344,3.342,3.342,0,0,1,2.289.73,2.635,2.635,0,0,1,.859,2.012v3.891a4.757,4.757,0,0,0,.3,1.852V0ZM58-1.1a2.54,2.54,0,0,0,1.289-.352,2.127,2.127,0,0,0,.883-.914V-4.1H59.039q-2.656,0-2.656,1.555a1.316,1.316,0,0,0,.453,1.063A1.742,1.742,0,0,0,58-1.1Zm5.531-3.2a4.952,4.952,0,0,1,.922-3.129,2.915,2.915,0,0,1,2.414-1.184,2.932,2.932,0,0,1,2.352,1.016V-12h1.445V0H69.336l-.07-.906A2.943,2.943,0,0,1,66.852.156a2.887,2.887,0,0,1-2.395-1.2,5.008,5.008,0,0,1-.926-3.141Zm1.445.164a3.749,3.749,0,0,0,.594,2.25,1.92,1.92,0,0,0,1.641.813A2.109,2.109,0,0,0,69.219-2.3V-6.187a2.125,2.125,0,0,0-1.992-1.2,1.929,1.929,0,0,0-1.656.82A4.128,4.128,0,0,0,64.977-4.133ZM76.516-4.3a4.952,4.952,0,0,1,.922-3.129,2.915,2.915,0,0,1,2.414-1.184A2.932,2.932,0,0,1,82.2-7.594V-12h1.445V0H82.32l-.07-.906A2.943,2.943,0,0,1,79.836.156a2.887,2.887,0,0,1-2.395-1.2,5.008,5.008,0,0,1-.926-3.141Zm1.445.164a3.749,3.749,0,0,0,.594,2.25A1.92,1.92,0,0,0,80.2-1.07,2.109,2.109,0,0,0,82.2-2.3V-6.187a2.125,2.125,0,0,0-1.992-1.2,1.929,1.929,0,0,0-1.656.82A4.128,4.128,0,0,0,77.961-4.133ZM89.4.156A3.693,3.693,0,0,1,86.6-.973a4.19,4.19,0,0,1-1.078-3.02v-.266A5.073,5.073,0,0,1,86-6.5a3.748,3.748,0,0,1,1.344-1.547,3.378,3.378,0,0,1,1.871-.559,3.166,3.166,0,0,1,2.563,1.086A4.7,4.7,0,0,1,92.7-4.414v.6H86.969a3,3,0,0,0,.73,2.02,2.3,2.3,0,0,0,1.777.77,2.517,2.517,0,0,0,1.3-.312,3.259,3.259,0,0,0,.93-.828l.883.688A3.55,3.55,0,0,1,89.4.156Zm-.18-7.578a1.928,1.928,0,0,0-1.469.637A3.1,3.1,0,0,0,87.016-5H91.25v-.109a2.753,2.753,0,0,0-.594-1.707A1.815,1.815,0,0,0,89.219-7.422ZM99.9,0H98.453V-12H99.9Zm7.531,0a3.036,3.036,0,0,1-.2-.891A3.225,3.225,0,0,1,104.82.156a2.984,2.984,0,0,1-2.051-.707,2.288,2.288,0,0,1-.8-1.793,2.39,2.39,0,0,1,1-2.051,4.733,4.733,0,0,1,2.824-.73H107.2v-.664A1.623,1.623,0,0,0,106.75-7a1.821,1.821,0,0,0-1.336-.449,2.108,2.108,0,0,0-1.3.391,1.151,1.151,0,0,0-.523.945h-1.453a2,2,0,0,1,.449-1.223,3.066,3.066,0,0,1,1.219-.934,4.1,4.1,0,0,1,1.691-.344,3.342,3.342,0,0,1,2.289.73,2.635,2.635,0,0,1,.859,2.012v3.891a4.757,4.757,0,0,0,.3,1.852V0Zm-2.4-1.1a2.54,2.54,0,0,0,1.289-.352,2.127,2.127,0,0,0,.883-.914V-4.1H106.07q-2.656,0-2.656,1.555a1.316,1.316,0,0,0,.453,1.063A1.742,1.742,0,0,0,105.031-1.1ZM120.094,0a3.036,3.036,0,0,1-.2-.891A3.225,3.225,0,0,1,117.484.156a2.984,2.984,0,0,1-2.051-.707,2.288,2.288,0,0,1-.8-1.793,2.39,2.39,0,0,1,1-2.051,4.733,4.733,0,0,1,2.824-.73h1.406v-.664A1.623,1.623,0,0,0,119.414-7a1.821,1.821,0,0,0-1.336-.449,2.108,2.108,0,0,0-1.3.391,1.151,1.151,0,0,0-.523.945H114.8a2,2,0,0,1,.449-1.223,3.066,3.066,0,0,1,1.219-.934,4.1,4.1,0,0,1,1.691-.344,3.342,3.342,0,0,1,2.289.73,2.635,2.635,0,0,1,.859,2.012v3.891a4.757,4.757,0,0,0,.3,1.852V0Zm-2.4-1.1a2.54,2.54,0,0,0,1.289-.352,2.127,2.127,0,0,0,.883-.914V-4.1h-1.133q-2.656,0-2.656,1.555a1.316,1.316,0,0,0,.453,1.063A1.742,1.742,0,0,0,117.7-1.1Zm13.023-3.031a5.062,5.062,0,0,1-.883,3.109,2.829,2.829,0,0,1-2.391,1.18,3.1,3.1,0,0,1-2.422-.977V3.25h-1.445v-11.7h1.32l.07.938a2.977,2.977,0,0,1,2.453-1.094,2.882,2.882,0,0,1,2.41,1.148,5.117,5.117,0,0,1,.887,3.2ZM129.273-4.3a3.735,3.735,0,0,0-.609-2.258,1.963,1.963,0,0,0-1.672-.828,2.125,2.125,0,0,0-1.969,1.164V-2.18a2.129,2.129,0,0,0,1.984,1.156,1.954,1.954,0,0,0,1.652-.824A4.077,4.077,0,0,0,129.273-4.3ZM134.125,0H132.68V-12h1.445Zm3.883,0h-1.445V-8.453h1.445Zm-1.562-10.7a.863.863,0,0,1,.215-.594.807.807,0,0,1,.637-.242.819.819,0,0,1,.641.242.854.854,0,0,1,.219.594.826.826,0,0,1-.219.586.834.834,0,0,1-.641.234.821.821,0,0,1-.637-.234A.834.834,0,0,1,136.445-10.7Zm7.266,9.672a2.082,2.082,0,0,0,1.352-.469,1.649,1.649,0,0,0,.641-1.172h1.367a2.621,2.621,0,0,1-.5,1.383,3.293,3.293,0,0,1-1.23,1.047,3.55,3.55,0,0,1-1.629.391A3.482,3.482,0,0,1,140.965-1a4.59,4.59,0,0,1-1.02-3.152v-.242a5.089,5.089,0,0,1,.453-2.2,3.451,3.451,0,0,1,1.3-1.492,3.7,3.7,0,0,1,2-.531,3.39,3.39,0,0,1,2.363.852,3.043,3.043,0,0,1,1,2.211H145.7a1.992,1.992,0,0,0-.621-1.348,1.932,1.932,0,0,0-1.379-.527A2.023,2.023,0,0,0,142-6.629a3.724,3.724,0,0,0-.605,2.293v.273a3.65,3.65,0,0,0,.6,2.25A2.033,2.033,0,0,0,143.711-1.023ZM153.914,0a3.036,3.036,0,0,1-.2-.891A3.225,3.225,0,0,1,151.3.156a2.984,2.984,0,0,1-2.051-.707,2.287,2.287,0,0,1-.8-1.793,2.39,2.39,0,0,1,1-2.051,4.733,4.733,0,0,1,2.824-.73h1.406v-.664A1.623,1.623,0,0,0,153.234-7a1.821,1.821,0,0,0-1.336-.449,2.107,2.107,0,0,0-1.3.391,1.151,1.151,0,0,0-.523.945h-1.453a2,2,0,0,1,.449-1.223,3.066,3.066,0,0,1,1.219-.934,4.1,4.1,0,0,1,1.691-.344,3.342,3.342,0,0,1,2.289.73,2.635,2.635,0,0,1,.859,2.012v3.891a4.757,4.757,0,0,0,.3,1.852V0Zm-2.4-1.1a2.54,2.54,0,0,0,1.289-.352,2.127,2.127,0,0,0,.883-.914V-4.1h-1.133q-2.656,0-2.656,1.555a1.316,1.316,0,0,0,.453,1.063A1.742,1.742,0,0,0,151.516-1.1Zm9.273.078a2.082,2.082,0,0,0,1.352-.469,1.649,1.649,0,0,0,.641-1.172h1.367a2.621,2.621,0,0,1-.5,1.383,3.293,3.293,0,0,1-1.23,1.047,3.55,3.55,0,0,1-1.629.391A3.482,3.482,0,0,1,158.043-1a4.59,4.59,0,0,1-1.02-3.152v-.242a5.089,5.089,0,0,1,.453-2.2,3.451,3.451,0,0,1,1.3-1.492,3.7,3.7,0,0,1,2-.531,3.39,3.39,0,0,1,2.363.852,3.043,3.043,0,0,1,1,2.211h-1.367a1.992,1.992,0,0,0-.621-1.348,1.932,1.932,0,0,0-1.379-.527,2.023,2.023,0,0,0-1.707.793,3.724,3.724,0,0,0-.605,2.293v.273a3.65,3.65,0,0,0,.6,2.25A2.033,2.033,0,0,0,160.789-1.023ZM167.344,0H165.9V-8.453h1.445Zm-1.562-10.7a.863.863,0,0,1,.215-.594.807.807,0,0,1,.637-.242.819.819,0,0,1,.641.242.854.854,0,0,1,.219.594.826.826,0,0,1-.219.586.834.834,0,0,1-.641.234.821.821,0,0,1-.637-.234A.834.834,0,0,1,165.781-10.7ZM169.273-4.3a4.993,4.993,0,0,1,.488-2.234,3.642,3.642,0,0,1,1.359-1.531,3.7,3.7,0,0,1,1.988-.539,3.565,3.565,0,0,1,2.793,1.2,4.6,4.6,0,0,1,1.066,3.18v.1a5.036,5.036,0,0,1-.473,2.215,3.589,3.589,0,0,1-1.352,1.527,3.743,3.743,0,0,1-2.02.547,3.556,3.556,0,0,1-2.785-1.2A4.575,4.575,0,0,1,169.273-4.2Zm1.453.172a3.616,3.616,0,0,0,.652,2.258,2.088,2.088,0,0,0,1.746.852,2.075,2.075,0,0,0,1.75-.863,3.954,3.954,0,0,0,.648-2.418,3.61,3.61,0,0,0-.66-2.254,2.1,2.1,0,0,0-1.754-.863,2.075,2.075,0,0,0-1.727.852A3.925,3.925,0,0,0,170.727-4.133ZM173.766-12h1.75l-2.094,2.3-1.164,0Zm6.383,3.547.047,1.063a3.08,3.08,0,0,1,2.531-1.219q2.68,0,2.7,3.023V0h-1.445V-5.594a1.946,1.946,0,0,0-.418-1.352,1.675,1.675,0,0,0-1.277-.437,2.086,2.086,0,0,0-1.234.375,2.546,2.546,0,0,0-.828.984V0h-1.445V-8.453Z" transform="translate(-2870.203 -7284)" fill="#fff"/>
    <path id="Path_614301" data-name="Path 614301" d="M-121.5-4.453V0H-123V-11.375h4.2a4.215,4.215,0,0,1,2.926.953A3.231,3.231,0,0,1-114.82-7.9a3.189,3.189,0,0,1-1.035,2.551,4.4,4.4,0,0,1-2.965.895Zm0-1.227h2.7a2.7,2.7,0,0,0,1.844-.567,2.075,2.075,0,0,0,.641-1.64,2.143,2.143,0,0,0-.641-1.628,2.525,2.525,0,0,0-1.758-.634H-121.5Zm12.453-1.477a4.331,4.331,0,0,0-.711-.055A1.9,1.9,0,0,0-111.687-6V0h-1.445V-8.453h1.406l.023.977a2.251,2.251,0,0,1,2.016-1.133,1.477,1.477,0,0,1,.641.109Zm.789,2.852a4.993,4.993,0,0,1,.488-2.234A3.643,3.643,0,0,1-106.41-8.07a3.7,3.7,0,0,1,1.988-.539,3.565,3.565,0,0,1,2.793,1.2,4.6,4.6,0,0,1,1.066,3.18v.1a5.036,5.036,0,0,1-.473,2.215,3.589,3.589,0,0,1-1.352,1.527,3.743,3.743,0,0,1-2.02.547,3.556,3.556,0,0,1-2.785-1.2A4.575,4.575,0,0,1-108.258-4.2Zm1.453.172a3.616,3.616,0,0,0,.652,2.258,2.088,2.088,0,0,0,1.746.852,2.075,2.075,0,0,0,1.75-.863,3.955,3.955,0,0,0,.648-2.418,3.61,3.61,0,0,0-.66-2.254,2.1,2.1,0,0,0-1.754-.863,2.075,2.075,0,0,0-1.727.852A3.925,3.925,0,0,0-106.8-4.133ZM-96.789-10.5v2.047h1.578v1.117h-1.578v5.249a1.173,1.173,0,0,0,.211.763.888.888,0,0,0,.719.254,3.5,3.5,0,0,0,.688-.094V0a4.215,4.215,0,0,1-1.109.155A1.8,1.8,0,0,1-97.742-.43a2.517,2.517,0,0,1-.492-1.664V-7.336h-1.539V-8.453h1.539V-10.5ZM-90.016.156a3.693,3.693,0,0,1-2.8-1.129,4.19,4.19,0,0,1-1.078-3.02v-.266A5.073,5.073,0,0,1-93.41-6.5a3.748,3.748,0,0,1,1.344-1.547A3.378,3.378,0,0,1-90.2-8.609a3.166,3.166,0,0,1,2.563,1.086,4.7,4.7,0,0,1,.914,3.109v.6h-5.727a3,3,0,0,0,.73,2.02,2.3,2.3,0,0,0,1.777.77,2.517,2.517,0,0,0,1.3-.312,3.259,3.259,0,0,0,.93-.828l.883.688A3.55,3.55,0,0,1-90.016.156Zm-.18-7.578a1.928,1.928,0,0,0-1.469.637A3.1,3.1,0,0,0-92.4-5h4.234v-.109a2.753,2.753,0,0,0-.594-1.707A1.815,1.815,0,0,0-90.2-7.422Zm8.539,6.4A2.082,2.082,0,0,0-80.3-1.492a1.649,1.649,0,0,0,.641-1.172H-78.3a2.621,2.621,0,0,1-.5,1.383,3.293,3.293,0,0,1-1.23,1.047,3.55,3.55,0,0,1-1.629.391A3.482,3.482,0,0,1-84.4-1a4.59,4.59,0,0,1-1.02-3.152v-.242a5.089,5.089,0,0,1,.453-2.2,3.451,3.451,0,0,1,1.3-1.492,3.7,3.7,0,0,1,2-.531,3.39,3.39,0,0,1,2.363.852,3.043,3.043,0,0,1,1,2.211h-1.367a1.992,1.992,0,0,0-.621-1.348,1.932,1.932,0,0,0-1.379-.527,2.023,2.023,0,0,0-1.707.793,3.724,3.724,0,0,0-.605,2.293v.273a3.65,3.65,0,0,0,.6,2.25A2.033,2.033,0,0,0-81.656-1.023Zm8.375,0a2.082,2.082,0,0,0,1.352-.469,1.649,1.649,0,0,0,.641-1.172h1.367a2.621,2.621,0,0,1-.5,1.383,3.293,3.293,0,0,1-1.23,1.047,3.55,3.55,0,0,1-1.629.391A3.482,3.482,0,0,1-76.027-1a4.59,4.59,0,0,1-1.02-3.152v-.242a5.089,5.089,0,0,1,.453-2.2,3.451,3.451,0,0,1,1.3-1.492,3.7,3.7,0,0,1,2-.531,3.39,3.39,0,0,1,2.363.852,3.043,3.043,0,0,1,1,2.211h-1.367a1.992,1.992,0,0,0-.621-1.348,1.932,1.932,0,0,0-1.379-.527A2.023,2.023,0,0,0-75-6.629,3.724,3.724,0,0,0-75.6-4.336v.273a3.65,3.65,0,0,0,.6,2.25A2.033,2.033,0,0,0-73.281-1.023ZM-66.727,0h-1.445V-8.453h1.445Zm-1.562-10.7a.863.863,0,0,1,.215-.594.807.807,0,0,1,.637-.242.819.819,0,0,1,.641.242.854.854,0,0,1,.219.594.826.826,0,0,1-.219.586.834.834,0,0,1-.641.234.821.821,0,0,1-.637-.234A.834.834,0,0,1-68.289-10.7ZM-64.8-4.3a4.993,4.993,0,0,1,.488-2.234A3.643,3.643,0,0,1-62.949-8.07a3.7,3.7,0,0,1,1.988-.539,3.565,3.565,0,0,1,2.793,1.2A4.6,4.6,0,0,1-57.1-4.234v.1a5.036,5.036,0,0,1-.473,2.215A3.589,3.589,0,0,1-58.926-.391a3.743,3.743,0,0,1-2.02.547,3.556,3.556,0,0,1-2.785-1.2A4.575,4.575,0,0,1-64.8-4.2Zm1.453.172a3.616,3.616,0,0,0,.652,2.258,2.088,2.088,0,0,0,1.746.852,2.075,2.075,0,0,0,1.75-.863A3.955,3.955,0,0,0-58.547-4.3a3.61,3.61,0,0,0-.66-2.254,2.1,2.1,0,0,0-1.754-.863,2.075,2.075,0,0,0-1.727.852A3.925,3.925,0,0,0-63.344-4.133ZM-60.3-12h1.75l-2.094,2.3-1.164,0Zm6.383,3.547.047,1.063a3.08,3.08,0,0,1,2.531-1.219q2.68,0,2.7,3.023V0h-1.445V-5.594A1.946,1.946,0,0,0-50.5-6.945a1.675,1.675,0,0,0-1.277-.437,2.086,2.086,0,0,0-1.234.375,2.546,2.546,0,0,0-.828.984V0h-1.445V-8.453ZM-42.852-4.3a4.952,4.952,0,0,1,.922-3.129,2.915,2.915,0,0,1,2.414-1.184,2.932,2.932,0,0,1,2.352,1.016V-12h1.445V0h-1.328l-.07-.906A2.943,2.943,0,0,1-39.531.156a2.887,2.887,0,0,1-2.395-1.2,5.008,5.008,0,0,1-.926-3.141Zm1.445.164a3.749,3.749,0,0,0,.594,2.25,1.92,1.92,0,0,0,1.641.813A2.108,2.108,0,0,0-37.164-2.3V-6.187a2.125,2.125,0,0,0-1.992-1.2,1.929,1.929,0,0,0-1.656.82A4.128,4.128,0,0,0-41.406-4.133ZM-29.969.156a3.693,3.693,0,0,1-2.8-1.129,4.19,4.19,0,0,1-1.078-3.02v-.266a5.073,5.073,0,0,1,.48-2.246A3.748,3.748,0,0,1-32.02-8.051a3.378,3.378,0,0,1,1.871-.559,3.166,3.166,0,0,1,2.563,1.086,4.7,4.7,0,0,1,.914,3.109v.6H-32.4a3,3,0,0,0,.73,2.02,2.3,2.3,0,0,0,1.777.77,2.517,2.517,0,0,0,1.3-.312,3.259,3.259,0,0,0,.93-.828l.883.688A3.55,3.55,0,0,1-29.969.156Zm-.18-7.578a1.928,1.928,0,0,0-1.469.637A3.1,3.1,0,0,0-32.352-5h4.234v-.109a2.753,2.753,0,0,0-.594-1.707A1.815,1.815,0,0,0-30.148-7.422ZM-19.469,0h-1.445V-12h1.445Zm7.531,0a3.036,3.036,0,0,1-.2-.891A3.225,3.225,0,0,1-14.547.156,2.984,2.984,0,0,1-16.6-.551a2.287,2.287,0,0,1-.8-1.793,2.39,2.39,0,0,1,1-2.051,4.733,4.733,0,0,1,2.824-.73h1.406v-.664A1.623,1.623,0,0,0-12.617-7a1.821,1.821,0,0,0-1.336-.449,2.107,2.107,0,0,0-1.3.391,1.151,1.151,0,0,0-.523.945h-1.453a2,2,0,0,1,.449-1.223,3.066,3.066,0,0,1,1.219-.934,4.1,4.1,0,0,1,1.691-.344,3.342,3.342,0,0,1,2.289.73,2.635,2.635,0,0,1,.859,2.012v3.891a4.757,4.757,0,0,0,.3,1.852V0Zm-2.4-1.1a2.54,2.54,0,0,0,1.289-.352,2.127,2.127,0,0,0,.883-.914V-4.1H-13.3q-2.656,0-2.656,1.555A1.316,1.316,0,0,0-15.5-1.484,1.742,1.742,0,0,0-14.336-1.1ZM-2.922,0H-4.367V-8.453h1.445ZM-4.484-10.7a.863.863,0,0,1,.215-.594.807.807,0,0,1,.637-.242.819.819,0,0,1,.641.242.854.854,0,0,1,.219.594.826.826,0,0,1-.219.586.834.834,0,0,1-.641.234.821.821,0,0,1-.637-.234A.834.834,0,0,1-4.484-10.7ZM.758-8.453.8-7.391A3.08,3.08,0,0,1,3.336-8.609q2.68,0,2.7,3.023V0H4.594V-5.594a1.946,1.946,0,0,0-.418-1.352A1.675,1.675,0,0,0,2.9-7.383a2.086,2.086,0,0,0-1.234.375,2.546,2.546,0,0,0-.828.984V0H-.609V-8.453ZM8.93,0V-7.336H7.594V-8.453H8.93V-9.32a2.878,2.878,0,0,1,.727-2.1,2.745,2.745,0,0,1,2.055-.742,3.816,3.816,0,0,1,.992.132l-.078,1.165a4.151,4.151,0,0,0-.781-.07,1.41,1.41,0,0,0-1.086.411,1.669,1.669,0,0,0-.383,1.18v.893h1.8v1.117h-1.8V0Zm8.93-7.156a4.331,4.331,0,0,0-.711-.055A1.9,1.9,0,0,0,15.219-6V0H13.773V-8.453H15.18l.023.977a2.251,2.251,0,0,1,2.016-1.133,1.477,1.477,0,0,1,.641.109ZM24.094,0a3.036,3.036,0,0,1-.2-.891A3.225,3.225,0,0,1,21.484.156a2.984,2.984,0,0,1-2.051-.707,2.287,2.287,0,0,1-.8-1.793,2.39,2.39,0,0,1,1-2.051,4.733,4.733,0,0,1,2.824-.73h1.406v-.664A1.623,1.623,0,0,0,23.414-7a1.821,1.821,0,0,0-1.336-.449,2.108,2.108,0,0,0-1.3.391,1.151,1.151,0,0,0-.523.945H18.8a2,2,0,0,1,.449-1.223,3.066,3.066,0,0,1,1.219-.934,4.1,4.1,0,0,1,1.691-.344,3.342,3.342,0,0,1,2.289.73,2.635,2.635,0,0,1,.859,2.012v3.891a4.757,4.757,0,0,0,.3,1.852V0ZM21.7-1.1a2.54,2.54,0,0,0,1.289-.352,2.127,2.127,0,0,0,.883-.914V-4.1H22.734q-2.656,0-2.656,1.555a1.316,1.316,0,0,0,.453,1.063A1.742,1.742,0,0,0,21.7-1.1ZM31.086.156a3.693,3.693,0,0,1-2.8-1.129,4.19,4.19,0,0,1-1.078-3.02v-.266a5.073,5.073,0,0,1,.48-2.246,3.748,3.748,0,0,1,1.344-1.547,3.378,3.378,0,0,1,1.871-.559,3.166,3.166,0,0,1,2.563,1.086,4.7,4.7,0,0,1,.914,3.109v.6H28.656a3,3,0,0,0,.73,2.02,2.3,2.3,0,0,0,1.777.77,2.517,2.517,0,0,0,1.3-.312,3.259,3.259,0,0,0,.93-.828l.883.688A3.55,3.55,0,0,1,31.086.156Zm-.18-7.578a1.928,1.928,0,0,0-1.469.637A3.1,3.1,0,0,0,28.7-5h4.234v-.109a2.753,2.753,0,0,0-.594-1.707A1.815,1.815,0,0,0,30.906-7.422Zm10.07,5.18a1.064,1.064,0,0,0-.441-.91A4.249,4.249,0,0,0,39-3.711a7.277,7.277,0,0,1-1.742-.562,2.479,2.479,0,0,1-.953-.781,1.869,1.869,0,0,1-.309-1.078,2.193,2.193,0,0,1,.879-1.758,3.432,3.432,0,0,1,2.246-.719,3.532,3.532,0,0,1,2.332.742,2.357,2.357,0,0,1,.895,1.9H40.891a1.3,1.3,0,0,0-.5-1.023,1.888,1.888,0,0,0-1.27-.43,1.976,1.976,0,0,0-1.234.344,1.082,1.082,0,0,0-.445.9.877.877,0,0,0,.414.789,5.1,5.1,0,0,0,1.5.508A7.8,7.8,0,0,1,41.1-4.3a2.558,2.558,0,0,1,1,.809,1.988,1.988,0,0,1,.324,1.152,2.163,2.163,0,0,1-.906,1.816,3.8,3.8,0,0,1-2.352.684,4.257,4.257,0,0,1-1.8-.359,2.922,2.922,0,0,1-1.223-1A2.42,2.42,0,0,1,35.7-2.6h1.445a1.5,1.5,0,0,0,.582,1.152,2.258,2.258,0,0,0,1.434.426,2.331,2.331,0,0,0,1.316-.332A1.02,1.02,0,0,0,40.977-2.242ZM46.266-10.5v2.047h1.578v1.117H46.266v5.249a1.173,1.173,0,0,0,.211.763.888.888,0,0,0,.719.254,3.5,3.5,0,0,0,.688-.094V0a4.215,4.215,0,0,1-1.109.155A1.8,1.8,0,0,1,45.313-.43a2.517,2.517,0,0,1-.492-1.664V-7.336H43.281V-8.453H44.82V-10.5Zm7.352,3.344a4.331,4.331,0,0,0-.711-.055A1.9,1.9,0,0,0,50.977-6V0H49.531V-8.453h1.406l.023.977a2.251,2.251,0,0,1,2.016-1.133,1.477,1.477,0,0,1,.641.109Zm6.547,6.32a3.07,3.07,0,0,1-2.477.992,2.628,2.628,0,0,1-2.059-.785,3.4,3.4,0,0,1-.715-2.324v-5.5h1.445v5.461q0,1.922,1.563,1.922a2.163,2.163,0,0,0,2.2-1.234V-8.453H61.57V0H60.2Zm6.992-.187a2.082,2.082,0,0,0,1.352-.469,1.649,1.649,0,0,0,.641-1.172h1.367a2.621,2.621,0,0,1-.5,1.383,3.293,3.293,0,0,1-1.23,1.047,3.55,3.55,0,0,1-1.629.391A3.482,3.482,0,0,1,64.41-1a4.59,4.59,0,0,1-1.02-3.152v-.242a5.089,5.089,0,0,1,.453-2.2,3.451,3.451,0,0,1,1.3-1.492,3.7,3.7,0,0,1,2-.531,3.39,3.39,0,0,1,2.363.852,3.043,3.043,0,0,1,1,2.211H69.148a1.992,1.992,0,0,0-.621-1.348,1.932,1.932,0,0,0-1.379-.527,2.023,2.023,0,0,0-1.707.793,3.724,3.724,0,0,0-.605,2.293v.273a3.65,3.65,0,0,0,.6,2.25A2.033,2.033,0,0,0,67.156-1.023ZM74.1-10.5v2.047H75.68v1.117H74.1v5.249a1.173,1.173,0,0,0,.211.763.888.888,0,0,0,.719.254,3.5,3.5,0,0,0,.688-.094V0a4.215,4.215,0,0,1-1.109.155A1.8,1.8,0,0,1,73.148-.43a2.517,2.517,0,0,1-.492-1.664V-7.336H71.117V-8.453h1.539V-10.5ZM82.586-.836a3.07,3.07,0,0,1-2.477.992,2.628,2.628,0,0,1-2.059-.785,3.4,3.4,0,0,1-.715-2.324v-5.5h1.445v5.461q0,1.922,1.563,1.922a2.163,2.163,0,0,0,2.2-1.234V-8.453h1.445V0H82.617Zm7.688-6.32a4.331,4.331,0,0,0-.711-.055A1.9,1.9,0,0,0,87.633-6V0H86.188V-8.453h1.406l.023.977a2.251,2.251,0,0,1,2.016-1.133,1.477,1.477,0,0,1,.641.109ZM96.508,0a3.036,3.036,0,0,1-.2-.891A3.225,3.225,0,0,1,93.9.156a2.984,2.984,0,0,1-2.051-.707,2.288,2.288,0,0,1-.8-1.793,2.39,2.39,0,0,1,1-2.051,4.733,4.733,0,0,1,2.824-.73h1.406v-.664A1.623,1.623,0,0,0,95.828-7a1.821,1.821,0,0,0-1.336-.449,2.108,2.108,0,0,0-1.3.391,1.151,1.151,0,0,0-.523.945H91.219a2,2,0,0,1,.449-1.223,3.066,3.066,0,0,1,1.219-.934,4.1,4.1,0,0,1,1.691-.344,3.342,3.342,0,0,1,2.289.73,2.635,2.635,0,0,1,.859,2.012v3.891a4.757,4.757,0,0,0,.3,1.852V0Zm-2.4-1.1A2.54,2.54,0,0,0,95.4-1.453a2.127,2.127,0,0,0,.883-.914V-4.1H95.148q-2.656,0-2.656,1.555a1.316,1.316,0,0,0,.453,1.063A1.742,1.742,0,0,0,94.109-1.1ZM103.6-4.3a4.952,4.952,0,0,1,.922-3.129,2.915,2.915,0,0,1,2.414-1.184,2.932,2.932,0,0,1,2.352,1.016V-12h1.445V0h-1.328l-.07-.906A2.943,2.943,0,0,1,106.922.156a2.887,2.887,0,0,1-2.395-1.2,5.008,5.008,0,0,1-.926-3.141Zm1.445.164a3.749,3.749,0,0,0,.594,2.25,1.92,1.92,0,0,0,1.641.813A2.109,2.109,0,0,0,109.289-2.3V-6.187a2.125,2.125,0,0,0-1.992-1.2,1.929,1.929,0,0,0-1.656.82A4.128,4.128,0,0,0,105.047-4.133ZM116.484.156a3.693,3.693,0,0,1-2.8-1.129,4.19,4.19,0,0,1-1.078-3.02v-.266a5.073,5.073,0,0,1,.48-2.246,3.748,3.748,0,0,1,1.344-1.547,3.378,3.378,0,0,1,1.871-.559,3.166,3.166,0,0,1,2.563,1.086,4.7,4.7,0,0,1,.914,3.109v.6h-5.727a3,3,0,0,0,.73,2.02,2.3,2.3,0,0,0,1.777.77,2.517,2.517,0,0,0,1.3-.312,3.259,3.259,0,0,0,.93-.828l.883.688A3.55,3.55,0,0,1,116.484.156Zm-.18-7.578a1.928,1.928,0,0,0-1.469.637A3.1,3.1,0,0,0,114.1-5h4.234v-.109a2.753,2.753,0,0,0-.594-1.707A1.815,1.815,0,0,0,116.3-7.422ZM-64.152,24H-65.6V15.547h1.445Zm-1.562-10.7a.863.863,0,0,1,.215-.594.807.807,0,0,1,.637-.242.819.819,0,0,1,.641.242A.854.854,0,0,1-64,13.3a.826.826,0,0,1-.219.586.834.834,0,0,1-.641.234.821.821,0,0,1-.637-.234A.834.834,0,0,1-65.715,13.3Zm5.242,2.242.047,1.063a3.08,3.08,0,0,1,2.531-1.219q2.68,0,2.7,3.023V24h-1.445V18.406a1.946,1.946,0,0,0-.418-1.352,1.675,1.675,0,0,0-1.277-.437,2.086,2.086,0,0,0-1.234.375,2.546,2.546,0,0,0-.828.984V24H-61.84V15.547ZM-52.3,24V16.664h-1.336V15.547H-52.3V14.68a2.878,2.878,0,0,1,.727-2.1,2.745,2.745,0,0,1,2.055-.742,3.816,3.816,0,0,1,.992.132l-.078,1.165a4.151,4.151,0,0,0-.781-.07,1.41,1.41,0,0,0-1.086.411,1.669,1.669,0,0,0-.383,1.18v.893h1.8v1.117h-1.8V24Zm4.461-4.3a4.993,4.993,0,0,1,.488-2.234,3.643,3.643,0,0,1,1.359-1.531A3.7,3.7,0,0,1-44,15.391a3.565,3.565,0,0,1,2.793,1.2,4.6,4.6,0,0,1,1.066,3.18v.1a5.036,5.036,0,0,1-.473,2.215,3.589,3.589,0,0,1-1.352,1.527,3.743,3.743,0,0,1-2.02.547,3.556,3.556,0,0,1-2.785-1.2A4.575,4.575,0,0,1-47.84,19.8Zm1.453.172a3.616,3.616,0,0,0,.652,2.258,2.088,2.088,0,0,0,1.746.852,2.075,2.075,0,0,0,1.75-.863A3.955,3.955,0,0,0-41.59,19.7a3.61,3.61,0,0,0-.66-2.254A2.1,2.1,0,0,0-44,16.578a2.075,2.075,0,0,0-1.727.852A3.925,3.925,0,0,0-46.387,19.867Zm12.141-3.023a4.331,4.331,0,0,0-.711-.055A1.9,1.9,0,0,0-36.887,18v6h-1.445V15.547h1.406l.023.977a2.251,2.251,0,0,1,2.016-1.133,1.477,1.477,0,0,1,.641.109Zm2.688-1.3.039.938a3.122,3.122,0,0,1,2.508-1.094A2.417,2.417,0,0,1-26.6,16.75a3.2,3.2,0,0,1,1.1-.984,3.242,3.242,0,0,1,1.6-.375q2.781,0,2.828,2.945V24H-22.52V18.422a1.941,1.941,0,0,0-.414-1.355,1.823,1.823,0,0,0-1.391-.449,1.916,1.916,0,0,0-1.336.48,1.949,1.949,0,0,0-.617,1.293V24H-27.73V18.461a1.613,1.613,0,0,0-1.8-1.844,1.934,1.934,0,0,0-1.945,1.211V24h-1.445V15.547ZM-13.676,24a3.036,3.036,0,0,1-.2-.891,3.225,3.225,0,0,1-2.406,1.047,2.984,2.984,0,0,1-2.051-.707,2.287,2.287,0,0,1-.8-1.793,2.39,2.39,0,0,1,1-2.051,4.733,4.733,0,0,1,2.824-.73H-13.9v-.664A1.623,1.623,0,0,0-14.355,17a1.821,1.821,0,0,0-1.336-.449,2.108,2.108,0,0,0-1.3.391,1.151,1.151,0,0,0-.523.945h-1.453a2,2,0,0,1,.449-1.223,3.066,3.066,0,0,1,1.219-.934,4.1,4.1,0,0,1,1.691-.344,3.342,3.342,0,0,1,2.289.73,2.635,2.635,0,0,1,.859,2.012v3.891a4.757,4.757,0,0,0,.3,1.852V24Zm-2.4-1.1a2.54,2.54,0,0,0,1.289-.352,2.127,2.127,0,0,0,.883-.914V19.9h-1.133q-2.656,0-2.656,1.555a1.316,1.316,0,0,0,.453,1.063A1.742,1.742,0,0,0-16.074,22.9Zm9.273.078a2.082,2.082,0,0,0,1.352-.469,1.649,1.649,0,0,0,.641-1.172h1.367a2.621,2.621,0,0,1-.5,1.383,3.293,3.293,0,0,1-1.23,1.047,3.55,3.55,0,0,1-1.629.391A3.482,3.482,0,0,1-9.547,23a4.59,4.59,0,0,1-1.02-3.152v-.242a5.089,5.089,0,0,1,.453-2.2,3.451,3.451,0,0,1,1.3-1.492,3.7,3.7,0,0,1,2-.531,3.39,3.39,0,0,1,2.363.852,3.043,3.043,0,0,1,1,2.211H-4.809a1.992,1.992,0,0,0-.621-1.348,1.932,1.932,0,0,0-1.379-.527,2.023,2.023,0,0,0-1.707.793,3.724,3.724,0,0,0-.605,2.293v.273a3.65,3.65,0,0,0,.6,2.25A2.033,2.033,0,0,0-6.8,22.977ZM-.246,24H-1.691V15.547H-.246ZM-1.809,13.3a.863.863,0,0,1,.215-.594.807.807,0,0,1,.637-.242.819.819,0,0,1,.641.242A.854.854,0,0,1-.1,13.3a.826.826,0,0,1-.219.586.834.834,0,0,1-.641.234.821.821,0,0,1-.637-.234A.834.834,0,0,1-1.809,13.3ZM1.684,19.7a4.993,4.993,0,0,1,.488-2.234A3.643,3.643,0,0,1,3.531,15.93a3.7,3.7,0,0,1,1.988-.539,3.565,3.565,0,0,1,2.793,1.2,4.6,4.6,0,0,1,1.066,3.18v.1a5.036,5.036,0,0,1-.473,2.215,3.589,3.589,0,0,1-1.352,1.527,3.743,3.743,0,0,1-2.02.547,3.556,3.556,0,0,1-2.785-1.2A4.575,4.575,0,0,1,1.684,19.8Zm1.453.172a3.616,3.616,0,0,0,.652,2.258,2.088,2.088,0,0,0,1.746.852,2.075,2.075,0,0,0,1.75-.863A3.955,3.955,0,0,0,7.934,19.7a3.61,3.61,0,0,0-.66-2.254,2.1,2.1,0,0,0-1.754-.863,2.075,2.075,0,0,0-1.727.852A3.925,3.925,0,0,0,3.137,19.867ZM6.176,12h1.75L5.832,14.3l-1.164,0Zm6.383,3.547.047,1.063a3.08,3.08,0,0,1,2.531-1.219q2.68,0,2.7,3.023V24H16.395V18.406a1.946,1.946,0,0,0-.418-1.352,1.675,1.675,0,0,0-1.277-.437,2.086,2.086,0,0,0-1.234.375,2.546,2.546,0,0,0-.828.984V24H11.191V15.547Zm14.813,7.43a2.082,2.082,0,0,0,1.352-.469,1.649,1.649,0,0,0,.641-1.172H30.73a2.621,2.621,0,0,1-.5,1.383A3.293,3.293,0,0,1,29,23.766a3.55,3.55,0,0,1-1.629.391A3.482,3.482,0,0,1,24.625,23a4.59,4.59,0,0,1-1.02-3.152v-.242a5.089,5.089,0,0,1,.453-2.2,3.451,3.451,0,0,1,1.3-1.492,3.7,3.7,0,0,1,2-.531,3.39,3.39,0,0,1,2.363.852,3.043,3.043,0,0,1,1,2.211H29.363a1.992,1.992,0,0,0-.621-1.348,1.932,1.932,0,0,0-1.379-.527,2.023,2.023,0,0,0-1.707.793,3.724,3.724,0,0,0-.605,2.293v.273a3.65,3.65,0,0,0,.6,2.25A2.033,2.033,0,0,0,27.371,22.977Zm9.07-6.133a4.331,4.331,0,0,0-.711-.055A1.9,1.9,0,0,0,33.8,18v6H32.355V15.547h1.406l.023.977A2.251,2.251,0,0,1,35.8,15.391a1.477,1.477,0,0,1,.641.109ZM39.34,24H37.887V15.547H39.34Zm.016-11.992h1.75l-2.094,2.3-1.164,0ZM43.684,13.5v2.047h1.578v1.117H43.684v5.249a1.173,1.173,0,0,0,.211.763.888.888,0,0,0,.719.254,3.5,3.5,0,0,0,.688-.094V24a4.215,4.215,0,0,1-1.109.155,1.8,1.8,0,0,1-1.461-.586,2.517,2.517,0,0,1-.492-1.664V16.664H40.7V15.547h1.539V13.5ZM48.52,24H47.074V15.547H48.52ZM46.957,13.3a.863.863,0,0,1,.215-.594.807.807,0,0,1,.637-.242.819.819,0,0,1,.641.242.854.854,0,0,1,.219.594.826.826,0,0,1-.219.586.834.834,0,0,1-.641.234.821.821,0,0,1-.637-.234A.834.834,0,0,1,46.957,13.3Zm7.266,9.672a2.082,2.082,0,0,0,1.352-.469,1.649,1.649,0,0,0,.641-1.172h1.367a2.621,2.621,0,0,1-.5,1.383,3.293,3.293,0,0,1-1.23,1.047,3.55,3.55,0,0,1-1.629.391A3.482,3.482,0,0,1,51.477,23a4.59,4.59,0,0,1-1.02-3.152v-.242a5.089,5.089,0,0,1,.453-2.2,3.451,3.451,0,0,1,1.3-1.492,3.7,3.7,0,0,1,2-.531,3.39,3.39,0,0,1,2.363.852,3.043,3.043,0,0,1,1,2.211H56.215a1.992,1.992,0,0,0-.621-1.348,1.932,1.932,0,0,0-1.379-.527,2.023,2.023,0,0,0-1.707.793,3.724,3.724,0,0,0-.605,2.293v.273a3.65,3.65,0,0,0,.6,2.25A2.033,2.033,0,0,0,54.223,22.977ZM64.426,24a3.036,3.036,0,0,1-.2-.891,3.225,3.225,0,0,1-2.406,1.047,2.984,2.984,0,0,1-2.051-.707,2.287,2.287,0,0,1-.8-1.793,2.39,2.39,0,0,1,1-2.051,4.733,4.733,0,0,1,2.824-.73H64.2v-.664A1.623,1.623,0,0,0,63.746,17a1.821,1.821,0,0,0-1.336-.449,2.107,2.107,0,0,0-1.3.391,1.151,1.151,0,0,0-.523.945H59.137a2,2,0,0,1,.449-1.223,3.066,3.066,0,0,1,1.219-.934,4.1,4.1,0,0,1,1.691-.344,3.342,3.342,0,0,1,2.289.73,2.635,2.635,0,0,1,.859,2.012v3.891a4.757,4.757,0,0,0,.3,1.852V24Zm-2.4-1.1a2.54,2.54,0,0,0,1.289-.352,2.127,2.127,0,0,0,.883-.914V19.9H63.066q-2.656,0-2.656,1.555a1.316,1.316,0,0,0,.453,1.063A1.742,1.742,0,0,0,62.027,22.9Z" transform="translate(-2778.135 -7062)" fill="#12263f"/>
    <path id="Path_614302" data-name="Path 614302" d="M-31.234-5.07a7.053,7.053,0,0,1-2.809-1.363,2.6,2.6,0,0,1-.879-2,2.752,2.752,0,0,1,1.074-2.223,4.269,4.269,0,0,1,2.793-.879,4.66,4.66,0,0,1,2.09.453,3.436,3.436,0,0,1,1.422,1.25,3.2,3.2,0,0,1,.5,1.742h-1.508A2.08,2.08,0,0,0-29.2-9.713a2.669,2.669,0,0,0-1.852-.592,2.732,2.732,0,0,0-1.73.489,1.632,1.632,0,0,0-.621,1.358,1.468,1.468,0,0,0,.59,1.178,5.785,5.785,0,0,0,2.008.88,9.316,9.316,0,0,1,2.219.88A3.367,3.367,0,0,1-27.4-4.4a2.861,2.861,0,0,1,.387,1.508A2.658,2.658,0,0,1-28.094-.676a4.6,4.6,0,0,1-2.883.832,5.347,5.347,0,0,1-2.187-.449,3.681,3.681,0,0,1-1.566-1.23A3,3,0,0,1-35.281-3.3h1.508a1.959,1.959,0,0,0,.762,1.629,3.207,3.207,0,0,0,2.035.6,2.948,2.948,0,0,0,1.82-.484,1.573,1.573,0,0,0,.633-1.32,1.545,1.545,0,0,0-.586-1.293A6.755,6.755,0,0,0-31.234-5.07ZM-21.812.156a3.693,3.693,0,0,1-2.8-1.129,4.19,4.19,0,0,1-1.078-3.02v-.266a5.073,5.073,0,0,1,.48-2.246,3.748,3.748,0,0,1,1.344-1.547,3.378,3.378,0,0,1,1.871-.559A3.166,3.166,0,0,1-19.43-7.523a4.7,4.7,0,0,1,.914,3.109v.6h-5.727a3,3,0,0,0,.73,2.02,2.3,2.3,0,0,0,1.777.77,2.517,2.517,0,0,0,1.3-.312,3.259,3.259,0,0,0,.93-.828l.883.688A3.55,3.55,0,0,1-21.812.156Zm-.18-7.578a1.928,1.928,0,0,0-1.469.637A3.1,3.1,0,0,0-24.2-5h4.234v-.109a2.753,2.753,0,0,0-.594-1.707A1.815,1.815,0,0,0-21.992-7.422Zm4.8,3.125a4.968,4.968,0,0,1,.914-3.145,2.923,2.923,0,0,1,2.422-1.168,2.908,2.908,0,0,1,2.414,1.094l.07-.937h1.32V-.2a3.439,3.439,0,0,1-.973,2.586,3.589,3.589,0,0,1-2.613.945,4.348,4.348,0,0,1-1.789-.391,3.08,3.08,0,0,1-1.336-1.07l.75-.867a2.826,2.826,0,0,0,2.273,1.148,2.214,2.214,0,0,0,1.645-.594A2.269,2.269,0,0,0-11.5-.117V-.844a2.971,2.971,0,0,1-2.367,1,2.887,2.887,0,0,1-2.4-1.2A5.224,5.224,0,0,1-17.187-4.3Zm1.453.164a3.79,3.79,0,0,0,.586,2.246,1.9,1.9,0,0,0,1.641.816A2.117,2.117,0,0,0-11.5-2.312V-6.172a2.142,2.142,0,0,0-1.992-1.211,1.921,1.921,0,0,0-1.648.82A4.128,4.128,0,0,0-15.734-4.133Zm13.086,3.3A3.07,3.07,0,0,1-5.125.156,2.628,2.628,0,0,1-7.184-.629,3.4,3.4,0,0,1-7.9-2.953v-5.5h1.445v5.461q0,1.922,1.563,1.922A2.163,2.163,0,0,0-2.687-2.3V-8.453h1.445V0H-2.617Zm7.688-6.32a4.331,4.331,0,0,0-.711-.055A1.9,1.9,0,0,0,2.4-6V0H.953V-8.453H2.359l.023.977A2.251,2.251,0,0,1,4.4-8.609a1.477,1.477,0,0,1,.641.109ZM7.938,0H6.492V-8.453H7.938ZM6.375-10.7a.863.863,0,0,1,.215-.594.807.807,0,0,1,.637-.242.819.819,0,0,1,.641.242.854.854,0,0,1,.219.594.826.826,0,0,1-.219.586.834.834,0,0,1-.641.234.821.821,0,0,1-.637-.234A.834.834,0,0,1,6.375-10.7ZM9.9-4.3a4.952,4.952,0,0,1,.922-3.129,2.915,2.915,0,0,1,2.414-1.184,2.932,2.932,0,0,1,2.352,1.016V-12h1.445V0H15.7l-.07-.906A2.943,2.943,0,0,1,13.219.156a2.887,2.887,0,0,1-2.395-1.2A5.008,5.008,0,0,1,9.9-4.187Zm1.445.164a3.749,3.749,0,0,0,.594,2.25,1.92,1.92,0,0,0,1.641.813A2.108,2.108,0,0,0,15.586-2.3V-6.187a2.125,2.125,0,0,0-1.992-1.2,1.929,1.929,0,0,0-1.656.82A4.128,4.128,0,0,0,11.344-4.133ZM24.492,0a3.036,3.036,0,0,1-.2-.891A3.225,3.225,0,0,1,21.883.156a2.984,2.984,0,0,1-2.051-.707,2.287,2.287,0,0,1-.8-1.793,2.39,2.39,0,0,1,1-2.051,4.733,4.733,0,0,1,2.824-.73h1.406v-.664A1.623,1.623,0,0,0,23.813-7a1.821,1.821,0,0,0-1.336-.449,2.108,2.108,0,0,0-1.3.391,1.151,1.151,0,0,0-.523.945H19.2a2,2,0,0,1,.449-1.223,3.066,3.066,0,0,1,1.219-.934,4.1,4.1,0,0,1,1.691-.344,3.342,3.342,0,0,1,2.289.73,2.635,2.635,0,0,1,.859,2.012v3.891a4.757,4.757,0,0,0,.3,1.852V0Zm-2.4-1.1a2.54,2.54,0,0,0,1.289-.352,2.127,2.127,0,0,0,.883-.914V-4.1H23.133q-2.656,0-2.656,1.555a1.316,1.316,0,0,0,.453,1.063A1.742,1.742,0,0,0,22.094-1.1Zm5.531-3.2a4.952,4.952,0,0,1,.922-3.129,2.915,2.915,0,0,1,2.414-1.184,2.932,2.932,0,0,1,2.352,1.016V-12h1.445V0H33.43l-.07-.906A2.943,2.943,0,0,1,30.945.156a2.887,2.887,0,0,1-2.395-1.2,5.008,5.008,0,0,1-.926-3.141Zm1.445.164a3.749,3.749,0,0,0,.594,2.25A1.92,1.92,0,0,0,31.3-1.07,2.108,2.108,0,0,0,33.313-2.3V-6.187a2.125,2.125,0,0,0-1.992-1.2,1.929,1.929,0,0,0-1.656.82A4.128,4.128,0,0,0,29.07-4.133ZM-37.168,13.7a4.952,4.952,0,0,1,.922-3.129,2.915,2.915,0,0,1,2.414-1.184,2.932,2.932,0,0,1,2.352,1.016V6h1.445V18h-1.328l-.07-.906a2.943,2.943,0,0,1-2.414,1.063,2.887,2.887,0,0,1-2.395-1.2,5.008,5.008,0,0,1-.926-3.141Zm1.445.164a3.749,3.749,0,0,0,.594,2.25,1.92,1.92,0,0,0,1.641.813A2.108,2.108,0,0,0-31.48,15.7V11.813a2.125,2.125,0,0,0-1.992-1.2,1.929,1.929,0,0,0-1.656.82A4.128,4.128,0,0,0-35.723,13.867Zm11.438,4.289a3.693,3.693,0,0,1-2.8-1.129,4.19,4.19,0,0,1-1.078-3.02v-.266a5.073,5.073,0,0,1,.48-2.246,3.748,3.748,0,0,1,1.344-1.547,3.378,3.378,0,0,1,1.871-.559A3.166,3.166,0,0,1-21.9,10.477a4.7,4.7,0,0,1,.914,3.109v.6h-5.727a3,3,0,0,0,.73,2.02,2.3,2.3,0,0,0,1.777.77,2.517,2.517,0,0,0,1.3-.312,3.259,3.259,0,0,0,.93-.828l.883.688A3.55,3.55,0,0,1-24.285,18.156Zm-.18-7.578a1.928,1.928,0,0,0-1.469.637A3.1,3.1,0,0,0-26.668,13h4.234v-.109a2.753,2.753,0,0,0-.594-1.707A1.815,1.815,0,0,0-24.465,10.578ZM-13.785,18H-15.23V9.547h1.445ZM-15.348,7.3a.863.863,0,0,1,.215-.594.807.807,0,0,1,.637-.242.819.819,0,0,1,.641.242.854.854,0,0,1,.219.594.826.826,0,0,1-.219.586.834.834,0,0,1-.641.234.821.821,0,0,1-.637-.234A.834.834,0,0,1-15.348,7.3Zm5.242,2.242.047,1.063A3.08,3.08,0,0,1-7.527,9.391q2.68,0,2.7,3.023V18H-6.27V12.406a1.946,1.946,0,0,0-.418-1.352,1.675,1.675,0,0,0-1.277-.437,2.086,2.086,0,0,0-1.234.375,2.546,2.546,0,0,0-.828.984V18h-1.445V9.547ZM-.684,7.5V9.547H.895v1.117H-.684v5.249a1.173,1.173,0,0,0,.211.763.888.888,0,0,0,.719.254,3.5,3.5,0,0,0,.688-.094V18a4.215,4.215,0,0,1-1.109.155,1.8,1.8,0,0,1-1.461-.586,2.517,2.517,0,0,1-.492-1.664V10.664H-3.668V9.547h1.539V7.5ZM6.09,18.156a3.693,3.693,0,0,1-2.8-1.129,4.19,4.19,0,0,1-1.078-3.02v-.266A5.073,5.073,0,0,1,2.7,11.5,3.748,3.748,0,0,1,4.039,9.949,3.378,3.378,0,0,1,5.91,9.391a3.166,3.166,0,0,1,2.563,1.086,4.7,4.7,0,0,1,.914,3.109v.6H3.66a3,3,0,0,0,.73,2.02,2.3,2.3,0,0,0,1.777.77,2.517,2.517,0,0,0,1.3-.312,3.259,3.259,0,0,0,.93-.828l.883.688A3.55,3.55,0,0,1,6.09,18.156Zm-.18-7.578a1.928,1.928,0,0,0-1.469.637A3.1,3.1,0,0,0,3.707,13H7.941v-.109a2.753,2.753,0,0,0-.594-1.707A1.815,1.815,0,0,0,5.91,10.578Zm9.234.266a4.331,4.331,0,0,0-.711-.055A1.9,1.9,0,0,0,12.5,12v6H11.059V9.547h1.406l.023.977A2.251,2.251,0,0,1,14.5,9.391a1.477,1.477,0,0,1,.641.109Zm2.7-1.3.047,1.063a3.08,3.08,0,0,1,2.531-1.219q2.68,0,2.7,3.023V18H21.676V12.406a1.946,1.946,0,0,0-.418-1.352,1.675,1.675,0,0,0-1.277-.437,2.086,2.086,0,0,0-1.234.375,2.546,2.546,0,0,0-.828.984V18H16.473V9.547Zm10.969,8.609a3.693,3.693,0,0,1-2.8-1.129,4.19,4.19,0,0,1-1.078-3.02v-.266a5.073,5.073,0,0,1,.48-2.246,3.748,3.748,0,0,1,1.344-1.547,3.378,3.378,0,0,1,1.871-.559,3.166,3.166,0,0,1,2.563,1.086,4.7,4.7,0,0,1,.914,3.109v.6H26.379a3,3,0,0,0,.73,2.02,2.3,2.3,0,0,0,1.777.77,2.517,2.517,0,0,0,1.3-.312,3.259,3.259,0,0,0,.93-.828l.883.688A3.55,3.55,0,0,1,28.809,18.156Zm-.18-7.578a1.928,1.928,0,0,0-1.469.637A3.1,3.1,0,0,0,26.426,13H30.66v-.109a2.753,2.753,0,0,0-.594-1.707A1.815,1.815,0,0,0,28.629,10.578ZM35.738,7.5V9.547h1.578v1.117H35.738v5.249a1.173,1.173,0,0,0,.211.763.888.888,0,0,0,.719.254,3.5,3.5,0,0,0,.688-.094V18a4.215,4.215,0,0,1-1.109.155,1.8,1.8,0,0,1-1.461-.586,2.517,2.517,0,0,1-.492-1.664V10.664H32.754V9.547h1.539V7.5Z" transform="translate(-2723.721 -7134)" fill="#12263f"/>
    <g id="Group_1076780" data-name="Group 1076780" transform="translate(-2893 -7273.706)">
      <g id="Group_154234-2" data-name="Group 154234">
        <path id="Subtraction_4-2" data-name="Subtraction 4" d="M174.932,48.753H.185L0,1.958l5.426-.051c.031,1.533.116,2.594.117,2.6H39.95l2.405-2.953L207.735,0l-.185,41.847H180.09l-5.158,6.905Z" transform="translate(21.475 2.495)" fill="#e1efe3"/>
        <text id="Seguridad_cibernética" data-name="Seguridad cibernética" transform="translate(55.118 16.532)" fill="#12263f" font-size="16" font-family="Roboto-Bold, Roboto" font-weight="700"><tspan x="2.25" y="15">Seguridad cibernética</tspan></text>
        <path id="Path_213850-2" data-name="Path 213850" d="M-1.281,1.311H21.763V6.69H-4Z" transform="translate(208.237 44.364)" fill="#0c5e46" opacity="0.5"/>
        <path id="Path_213851-2" data-name="Path 213851" d="M0,0H46.226V45.674H0Z" fill="url(#linear-gradient-3)"/>
        <g id="Group_1076781" data-name="Group 1076781" transform="translate(8 8.706)">
          <path id="Path_613528" data-name="Path 613528" d="M89.5,21H89V5.5A2.5,2.5,0,0,0,86.5,3V2.5A2.5,2.5,0,0,0,84,0H69a2.5,2.5,0,0,0-2.5,2.5V3A2.5,2.5,0,0,0,64,5.5v6h1v-6A1.5,1.5,0,0,1,66.5,4v7h1V2.5A1.5,1.5,0,0,1,69,1H84a1.5,1.5,0,0,1,1.5,1.5v17h1V4A1.5,1.5,0,0,1,88,5.5V21H81a2.19,2.19,0,0,0-1.559.646,1.2,1.2,0,0,1-.856.354H76v1h2.585a2.2,2.2,0,0,0,1.564-.646A1.2,1.2,0,0,1,81,22h8v1a1,1,0,0,1-1,1H76v1H88a2,2,0,0,0,2-2V21.5A.5.5,0,0,0,89.5,21Z" transform="translate(-60)"/>
          <path id="Path_613529" data-name="Path 613529" d="M104,256h1v3.5h-1Z" transform="translate(-97.5 -240)"/>
          <path id="Path_613530" data-name="Path 613530" d="M143.995,32h1v1h-1Z" transform="translate(-134.995 -30)"/>
          <path id="Path_613531" data-name="Path 613531" d="M175.995,32h1v1h-1Z" transform="translate(-164.995 -30)"/>
          <path id="Path_613532" data-name="Path 613532" d="M207.995,32h1v1h-1Z" transform="translate(-194.995 -30)"/>
          <path id="Path_613533" data-name="Path 613533" d="M144,64h15v1H144Z" transform="translate(-135 -60)"/>
          <path id="Path_613534" data-name="Path 613534" d="M160.282,108.8c-.106-.027-.213-.058-.317-.092l-.306.952c.123.039.249.076.37.107a7,7,0,1,0-4.113-10.539,6.911,6.911,0,0,0-.917,2.156l.973.23a5.909,5.909,0,0,1,.645-1.615h1.547a12.773,12.773,0,0,0-.352,3c0,.346.014.7.041,1.04l1-.08c-.012-.152-.021-.306-.028-.46h2.489v3h-1.5v1h1.5v1.478a5.988,5.988,0,0,1-1.03-.177Zm5.494-1.3a6.023,6.023,0,0,1-1.138.79c.126-.256.243-.519.348-.79Zm.907-1h-1.359a12.576,12.576,0,0,0,.478-3h1.99A5.894,5.894,0,0,1,166.683,106.5Zm-6.22-9.346a5.97,5.97,0,0,1,.849-.132V99h-1.8A8.842,8.842,0,0,1,160.463,97.157Zm1.849-.132a5.979,5.979,0,0,1,.849.132A8.84,8.84,0,0,1,164.108,99h-1.8ZM164.429,100a11.632,11.632,0,0,1,.373,2.5h-2.489V100Zm3.363,2.5H165.8a12.69,12.69,0,0,0-.342-2.5h1.546a5.942,5.942,0,0,1,.784,2.5ZM166.282,99h-1.112a10.738,10.738,0,0,0-.537-1.3,5.944,5.944,0,0,1,1.648,1.3Zm-7.291-1.3a10.747,10.747,0,0,0-.537,1.3h-1.112A5.944,5.944,0,0,1,158.991,97.7Zm-.168,4.8a11.624,11.624,0,0,1,.373-2.5h2.116v2.5Zm3.489,1h2.49a11.454,11.454,0,0,1-.523,3h-1.966Zm1.591,4a8.337,8.337,0,0,1-.74,1.345,5.96,5.96,0,0,1-.851.132V107.5Z" transform="translate(-145.312 -90.002)"/>
          <path id="Path_613535" data-name="Path 613535" d="M13.5,200.51V198a6,6,0,0,0-12,0v2.51A1.684,1.684,0,0,0,0,202.181v6.137A1.683,1.683,0,0,0,1.681,210H13.319A1.683,1.683,0,0,0,15,208.319v-6.137a1.684,1.684,0,0,0-1.5-1.671ZM7.5,193a5.006,5.006,0,0,1,5,5v2.5h-1V198a4,4,0,0,0-8,0v2.5h-1V198A5.006,5.006,0,0,1,7.5,193Zm3,7.5h-6V198a3,3,0,0,1,6,0Zm3.5,7.819a.682.682,0,0,1-.681.681H1.681A.682.682,0,0,1,1,208.319v-6.138a.682.682,0,0,1,.681-.681H13.319a.682.682,0,0,1,.681.681Z" transform="translate(0 -180)"/>
          <path id="Path_613536" data-name="Path 613536" d="M97.509,376a1.5,1.5,0,0,0-.5,2.914V380h1v-1.086a1.5,1.5,0,0,0-.5-2.914Zm0,2a.5.5,0,1,1,.5-.5A.5.5,0,0,1,97.509,378Z" transform="translate(-90.009 -352.5)"/>
        </g>
      </g>
      <g id="Group_154240-2" data-name="Group 154240" transform="translate(22.108 17.369)">
        <path id="Path_213855-2" data-name="Path 213855" d="M0,0,2.5,3.327v23.7H0Z" transform="translate(24.119)" fill="#0c5e46"/>
        <path id="Path_213856-2" data-name="Path 213856" d="M0,26.614l2.5-3.327V0H0Z" transform="translate(26.614 26.614) rotate(90)" fill="#0c5e46"/>
      </g>
    </g>
    <g id="Group_1076880" data-name="Group 1076880" transform="translate(-2852.717 -7199.482)">
      <g id="Group_1076783" data-name="Group 1076783">
        <g id="Group_1076782" data-name="Group 1076782">
          <path id="Path_613537" data-name="Path 613537" d="M38.677,12.214a2.036,2.036,0,0,0,2.036-2.036V2.036A2.036,2.036,0,0,0,38.677,0H2.036A2.036,2.036,0,0,0,0,2.036v8.142a2.036,2.036,0,0,0,2.036,2.036H4.071v2.036H2.036A2.036,2.036,0,0,0,0,16.285v8.142a2.036,2.036,0,0,0,2.036,2.036H4.071V28.5H2.036A2.036,2.036,0,0,0,0,30.534v8.142a2.036,2.036,0,0,0,2.036,2.036H38.677a2.036,2.036,0,0,0,2.036-2.036V30.534A2.036,2.036,0,0,0,38.677,28.5H36.641V26.463h2.036a2.036,2.036,0,0,0,2.036-2.036V16.285a2.036,2.036,0,0,0-2.036-2.036H36.641V12.214Zm0,17.642a.679.679,0,0,1,.679.679v8.142a.679.679,0,0,1-.679.679H2.036a.679.679,0,0,1-.679-.679V30.534a.679.679,0,0,1,.679-.679ZM5.428,28.5V26.463H6.785V28.5Zm2.714,0V26.463H32.57V28.5Zm25.785,0V26.463h1.357V28.5Zm4.75-12.892a.679.679,0,0,1,.679.679v8.142a.679.679,0,0,1-.679.679H2.036a.679.679,0,0,1-.679-.679V16.285a.679.679,0,0,1,.679-.679ZM5.428,14.249V12.214H6.785v2.036Zm2.714,0V12.214H32.57v2.036Zm25.785,0V12.214h1.357v2.036ZM2.036,10.857a.679.679,0,0,1-.679-.679V2.036a.679.679,0,0,1,.679-.679H38.677a.679.679,0,0,1,.679.679v8.142a.679.679,0,0,1-.679.679Z" fill="#fff"/>
        </g>
      </g>
      <g id="Group_1076785" data-name="Group 1076785" transform="translate(4.062 4.071)">
        <g id="Group_1076784" data-name="Group 1076784">
          <path id="Path_613538" data-name="Path 613538" d="M65.545,49.351H51.85a2.036,2.036,0,1,0,0,1.357h13.7a.679.679,0,1,0,0-1.357ZM49.939,50.708a.679.679,0,1,1,.679-.679A.679.679,0,0,1,49.939,50.708Z" transform="translate(-47.894 -47.994)" fill="#fff"/>
        </g>
      </g>
      <g id="Group_1076787" data-name="Group 1076787" transform="translate(29.865 2.527)">
        <g id="Group_1076786" data-name="Group 1076786" transform="translate(0 0)">
          <rect id="Rectangle_380794" data-name="Rectangle 380794" width="1.189" height="1.189" fill="#fff"/>
        </g>
      </g>
      <g id="Group_1076789" data-name="Group 1076789" transform="translate(32.243 2.527)">
        <g id="Group_1076788" data-name="Group 1076788" transform="translate(0 0)">
          <rect id="Rectangle_380795" data-name="Rectangle 380795" width="1.189" height="1.189" fill="#fff"/>
        </g>
      </g>
      <g id="Group_1076791" data-name="Group 1076791" transform="translate(35.808 2.527)">
        <g id="Group_1076790" data-name="Group 1076790" transform="translate(0 0)">
          <rect id="Rectangle_380796" data-name="Rectangle 380796" width="1.189" height="1.189" fill="#fff"/>
        </g>
      </g>
      <g id="Group_1076793" data-name="Group 1076793" transform="translate(27.488 2.527)">
        <g id="Group_1076792" data-name="Group 1076792" transform="translate(0 0)">
          <rect id="Rectangle_380797" data-name="Rectangle 380797" width="1.189" height="1.189" fill="#fff"/>
        </g>
      </g>
      <g id="Group_1076795" data-name="Group 1076795" transform="translate(23.922 2.527)">
        <g id="Group_1076794" data-name="Group 1076794" transform="translate(0 0)">
          <rect id="Rectangle_380798" data-name="Rectangle 380798" width="2.377" height="1.189" fill="#fff"/>
        </g>
      </g>
      <g id="Group_1076797" data-name="Group 1076797" transform="translate(29.865 4.904)">
        <g id="Group_1076796" data-name="Group 1076796" transform="translate(0 0)">
          <rect id="Rectangle_380799" data-name="Rectangle 380799" width="1.189" height="2.377" fill="#fff"/>
        </g>
      </g>
      <g id="Group_1076799" data-name="Group 1076799" transform="translate(32.243 4.904)">
        <g id="Group_1076798" data-name="Group 1076798" transform="translate(0 0)">
          <rect id="Rectangle_380800" data-name="Rectangle 380800" width="1.189" height="2.377" fill="#fff"/>
        </g>
      </g>
      <g id="Group_1076801" data-name="Group 1076801" transform="translate(35.808 4.904)">
        <g id="Group_1076800" data-name="Group 1076800" transform="translate(0 0)">
          <rect id="Rectangle_380801" data-name="Rectangle 380801" width="1.189" height="2.377" fill="#fff"/>
        </g>
      </g>
      <g id="Group_1076803" data-name="Group 1076803" transform="translate(27.488 4.904)">
        <g id="Group_1076802" data-name="Group 1076802" transform="translate(0 0)">
          <rect id="Rectangle_380802" data-name="Rectangle 380802" width="1.189" height="2.377" fill="#fff"/>
        </g>
      </g>
      <g id="Group_1076805" data-name="Group 1076805" transform="translate(23.922 4.904)">
        <g id="Group_1076804" data-name="Group 1076804" transform="translate(0 0)">
          <rect id="Rectangle_380803" data-name="Rectangle 380803" width="2.377" height="2.377" fill="#fff"/>
        </g>
      </g>
      <g id="Group_1076807" data-name="Group 1076807" transform="translate(29.865 8.47)">
        <g id="Group_1076806" data-name="Group 1076806" transform="translate(0 0)">
          <rect id="Rectangle_380804" data-name="Rectangle 380804" width="1.189" height="1.189" fill="#fff"/>
        </g>
      </g>
      <g id="Group_1076809" data-name="Group 1076809" transform="translate(32.243 8.47)">
        <g id="Group_1076808" data-name="Group 1076808" transform="translate(0 0)">
          <rect id="Rectangle_380805" data-name="Rectangle 380805" width="1.189" height="1.189" fill="#fff"/>
        </g>
      </g>
      <g id="Group_1076811" data-name="Group 1076811" transform="translate(35.808 8.47)">
        <g id="Group_1076810" data-name="Group 1076810" transform="translate(0 0)">
          <rect id="Rectangle_380806" data-name="Rectangle 380806" width="1.189" height="1.189" fill="#fff"/>
        </g>
      </g>
      <g id="Group_1076813" data-name="Group 1076813" transform="translate(27.488 8.47)">
        <g id="Group_1076812" data-name="Group 1076812" transform="translate(0 0)">
          <rect id="Rectangle_380807" data-name="Rectangle 380807" width="1.189" height="1.189" fill="#fff"/>
        </g>
      </g>
      <g id="Group_1076815" data-name="Group 1076815" transform="translate(23.922 8.47)">
        <g id="Group_1076814" data-name="Group 1076814" transform="translate(0 0)">
          <rect id="Rectangle_380808" data-name="Rectangle 380808" width="2.377" height="1.189" fill="#fff"/>
        </g>
      </g>
      <g id="Group_1076817" data-name="Group 1076817" transform="translate(4.062 18.32)">
        <g id="Group_1076816" data-name="Group 1076816">
          <path id="Path_613539" data-name="Path 613539" d="M65.545,217.351H51.85a2.036,2.036,0,1,0,0,1.357h13.7a.679.679,0,1,0,0-1.357Zm-15.606,1.357a.679.679,0,1,1,.679-.679A.679.679,0,0,1,49.939,218.708Z" transform="translate(-47.894 -215.994)" fill="#fff"/>
        </g>
      </g>
      <g id="Group_1076819" data-name="Group 1076819" transform="translate(29.865 16.791)">
        <g id="Group_1076818" data-name="Group 1076818" transform="translate(0 0)">
          <rect id="Rectangle_380809" data-name="Rectangle 380809" width="1.189" height="1.189" fill="#fff"/>
        </g>
      </g>
      <g id="Group_1076821" data-name="Group 1076821" transform="translate(32.243 16.791)">
        <g id="Group_1076820" data-name="Group 1076820" transform="translate(0 0)">
          <rect id="Rectangle_380810" data-name="Rectangle 380810" width="1.189" height="1.189" fill="#fff"/>
        </g>
      </g>
      <g id="Group_1076823" data-name="Group 1076823" transform="translate(35.808 16.791)">
        <g id="Group_1076822" data-name="Group 1076822" transform="translate(0 0)">
          <rect id="Rectangle_380811" data-name="Rectangle 380811" width="1.189" height="1.189" fill="#fff"/>
        </g>
      </g>
      <g id="Group_1076825" data-name="Group 1076825" transform="translate(27.488 16.791)">
        <g id="Group_1076824" data-name="Group 1076824" transform="translate(0 0)">
          <rect id="Rectangle_380812" data-name="Rectangle 380812" width="1.189" height="1.189" fill="#fff"/>
        </g>
      </g>
      <g id="Group_1076827" data-name="Group 1076827" transform="translate(23.922 16.791)">
        <g id="Group_1076826" data-name="Group 1076826" transform="translate(0 0)">
          <rect id="Rectangle_380813" data-name="Rectangle 380813" width="2.377" height="1.189" fill="#fff"/>
        </g>
      </g>
      <g id="Group_1076829" data-name="Group 1076829" transform="translate(29.865 19.168)">
        <g id="Group_1076828" data-name="Group 1076828" transform="translate(0 0)">
          <rect id="Rectangle_380814" data-name="Rectangle 380814" width="1.189" height="2.377" fill="#fff"/>
        </g>
      </g>
      <g id="Group_1076831" data-name="Group 1076831" transform="translate(32.243 19.168)">
        <g id="Group_1076830" data-name="Group 1076830" transform="translate(0 0)">
          <rect id="Rectangle_380815" data-name="Rectangle 380815" width="1.189" height="2.377" fill="#fff"/>
        </g>
      </g>
      <g id="Group_1076833" data-name="Group 1076833" transform="translate(35.808 19.168)">
        <g id="Group_1076832" data-name="Group 1076832" transform="translate(0 0)">
          <rect id="Rectangle_380816" data-name="Rectangle 380816" width="1.189" height="2.377" fill="#fff"/>
        </g>
      </g>
      <g id="Group_1076835" data-name="Group 1076835" transform="translate(27.488 19.168)">
        <g id="Group_1076834" data-name="Group 1076834" transform="translate(0 0)">
          <rect id="Rectangle_380817" data-name="Rectangle 380817" width="1.189" height="2.377" fill="#fff"/>
        </g>
      </g>
      <g id="Group_1076837" data-name="Group 1076837" transform="translate(23.922 19.168)">
        <g id="Group_1076836" data-name="Group 1076836" transform="translate(0 0)">
          <rect id="Rectangle_380818" data-name="Rectangle 380818" width="2.377" height="2.377" fill="#fff"/>
        </g>
      </g>
      <g id="Group_1076839" data-name="Group 1076839" transform="translate(29.865 22.734)">
        <g id="Group_1076838" data-name="Group 1076838" transform="translate(0 0)">
          <rect id="Rectangle_380819" data-name="Rectangle 380819" width="1.189" height="1.189" fill="#fff"/>
        </g>
      </g>
      <g id="Group_1076841" data-name="Group 1076841" transform="translate(32.243 22.734)">
        <g id="Group_1076840" data-name="Group 1076840" transform="translate(0 0)">
          <rect id="Rectangle_380820" data-name="Rectangle 380820" width="1.189" height="1.189" fill="#fff"/>
        </g>
      </g>
      <g id="Group_1076843" data-name="Group 1076843" transform="translate(35.808 22.734)">
        <g id="Group_1076842" data-name="Group 1076842" transform="translate(0 0)">
          <rect id="Rectangle_380821" data-name="Rectangle 380821" width="1.189" height="1.189" fill="#fff"/>
        </g>
      </g>
      <g id="Group_1076845" data-name="Group 1076845" transform="translate(27.488 22.734)">
        <g id="Group_1076844" data-name="Group 1076844" transform="translate(0 0)">
          <rect id="Rectangle_380822" data-name="Rectangle 380822" width="1.189" height="1.189" fill="#fff"/>
        </g>
      </g>
      <g id="Group_1076847" data-name="Group 1076847" transform="translate(23.922 22.734)">
        <g id="Group_1076846" data-name="Group 1076846" transform="translate(0 0)">
          <rect id="Rectangle_380823" data-name="Rectangle 380823" width="2.377" height="1.189" fill="#fff"/>
        </g>
      </g>
      <g id="Group_1076849" data-name="Group 1076849" transform="translate(4.062 32.569)">
        <g id="Group_1076848" data-name="Group 1076848">
          <path id="Path_613540" data-name="Path 613540" d="M65.545,385.351H51.85a2.036,2.036,0,1,0,0,1.357h13.7a.679.679,0,1,0,0-1.357Zm-15.606,1.357a.679.679,0,1,1,.679-.679A.679.679,0,0,1,49.939,386.708Z" transform="translate(-47.894 -383.994)" fill="#fff"/>
        </g>
      </g>
      <g id="Group_1076851" data-name="Group 1076851" transform="translate(29.865 31.054)">
        <g id="Group_1076850" data-name="Group 1076850" transform="translate(0 0)">
          <rect id="Rectangle_380824" data-name="Rectangle 380824" width="1.189" height="1.189" fill="#fff"/>
        </g>
      </g>
      <g id="Group_1076853" data-name="Group 1076853" transform="translate(32.243 31.054)">
        <g id="Group_1076852" data-name="Group 1076852" transform="translate(0 0)">
          <rect id="Rectangle_380825" data-name="Rectangle 380825" width="1.189" height="1.189" fill="#fff"/>
        </g>
      </g>
      <g id="Group_1076855" data-name="Group 1076855" transform="translate(35.808 31.054)">
        <g id="Group_1076854" data-name="Group 1076854" transform="translate(0 0)">
          <rect id="Rectangle_380826" data-name="Rectangle 380826" width="1.189" height="1.189" fill="#fff"/>
        </g>
      </g>
      <g id="Group_1076857" data-name="Group 1076857" transform="translate(27.488 31.054)">
        <g id="Group_1076856" data-name="Group 1076856" transform="translate(0 0)">
          <rect id="Rectangle_380827" data-name="Rectangle 380827" width="1.189" height="1.189" fill="#fff"/>
        </g>
      </g>
      <g id="Group_1076859" data-name="Group 1076859" transform="translate(23.922 31.054)">
        <g id="Group_1076858" data-name="Group 1076858" transform="translate(0 0)">
          <rect id="Rectangle_380828" data-name="Rectangle 380828" width="2.377" height="1.189" fill="#fff"/>
        </g>
      </g>
      <g id="Group_1076861" data-name="Group 1076861" transform="translate(29.865 33.431)">
        <g id="Group_1076860" data-name="Group 1076860" transform="translate(0 0)">
          <rect id="Rectangle_380829" data-name="Rectangle 380829" width="1.189" height="2.377" fill="#fff"/>
        </g>
      </g>
      <g id="Group_1076863" data-name="Group 1076863" transform="translate(32.243 33.431)">
        <g id="Group_1076862" data-name="Group 1076862" transform="translate(0 0)">
          <rect id="Rectangle_380830" data-name="Rectangle 380830" width="1.189" height="2.377" fill="#fff"/>
        </g>
      </g>
      <g id="Group_1076865" data-name="Group 1076865" transform="translate(35.808 33.431)">
        <g id="Group_1076864" data-name="Group 1076864" transform="translate(0 0)">
          <rect id="Rectangle_380831" data-name="Rectangle 380831" width="1.189" height="2.377" fill="#fff"/>
        </g>
      </g>
      <g id="Group_1076867" data-name="Group 1076867" transform="translate(27.488 33.431)">
        <g id="Group_1076866" data-name="Group 1076866" transform="translate(0 0)">
          <rect id="Rectangle_380832" data-name="Rectangle 380832" width="1.189" height="2.377" fill="#fff"/>
        </g>
      </g>
      <g id="Group_1076869" data-name="Group 1076869" transform="translate(23.922 33.431)">
        <g id="Group_1076868" data-name="Group 1076868" transform="translate(0 0)">
          <rect id="Rectangle_380833" data-name="Rectangle 380833" width="2.377" height="2.377" fill="#fff"/>
        </g>
      </g>
      <g id="Group_1076871" data-name="Group 1076871" transform="translate(29.865 36.997)">
        <g id="Group_1076870" data-name="Group 1076870" transform="translate(0 0)">
          <rect id="Rectangle_380834" data-name="Rectangle 380834" width="1.189" height="1.189" fill="#fff"/>
        </g>
      </g>
      <g id="Group_1076873" data-name="Group 1076873" transform="translate(32.243 36.997)">
        <g id="Group_1076872" data-name="Group 1076872" transform="translate(0 0)">
          <rect id="Rectangle_380835" data-name="Rectangle 380835" width="1.189" height="1.189" fill="#fff"/>
        </g>
      </g>
      <g id="Group_1076875" data-name="Group 1076875" transform="translate(35.808 36.997)">
        <g id="Group_1076874" data-name="Group 1076874" transform="translate(0 0)">
          <rect id="Rectangle_380836" data-name="Rectangle 380836" width="1.189" height="1.189" fill="#fff"/>
        </g>
      </g>
      <g id="Group_1076877" data-name="Group 1076877" transform="translate(27.488 36.997)">
        <g id="Group_1076876" data-name="Group 1076876" transform="translate(0 0)">
          <rect id="Rectangle_380837" data-name="Rectangle 380837" width="1.189" height="1.189" fill="#fff"/>
        </g>
      </g>
      <g id="Group_1076879" data-name="Group 1076879" transform="translate(23.922 36.997)">
        <g id="Group_1076878" data-name="Group 1076878" transform="translate(0 0)">
          <rect id="Rectangle_380838" data-name="Rectangle 380838" width="2.377" height="1.189" fill="#fff"/>
        </g>
      </g>
    </g>
    <g id="Group_1076881" data-name="Group 1076881" transform="translate(-2748.71 -7197.645)">
      <path id="Path_613541" data-name="Path 613541" d="M49.268,103.773H48.193V77.162a.732.732,0,0,0-.732-.732H42.822v-2.2a.732.732,0,0,0-.732-.732H7.91a.732.732,0,0,0-.732.732v2.2H2.539a.732.732,0,0,0-.732.732v26.611H.732a.732.732,0,0,0-.732.732v3.906a.732.732,0,0,0,.732.732H49.268a.732.732,0,0,0,.732-.732v-3.906a.732.732,0,0,0-.732-.732ZM8.643,79.848H41.357V98.891H8.643Zm32.715-4.883v3.418H8.643V74.965ZM3.271,77.895H7.178V99.623a.732.732,0,0,0,.732.732H42.09a.732.732,0,0,0,.732-.732V77.895h3.906v25.879H3.271ZM48.535,107.68H1.465v-2.441h47.07Z" transform="translate(0 -73.5)"/>
      <path id="Path_613542" data-name="Path 613542" d="M201.684,161.5a.732.732,0,0,0-.467-.684l-5.859-2.278a.733.733,0,0,0-.531,0l-5.859,2.278a.732.732,0,0,0-.467.684v2.832a9.92,9.92,0,0,0,6.325,9.245.733.733,0,0,0,.533,0,9.921,9.921,0,0,0,6.326-9.248Zm-1.465,2.832a8.4,8.4,0,0,1-5.127,7.771,8.4,8.4,0,0,1-5.127-7.774V162l5.127-1.993L200.219,162Z" transform="translate(-170.092 -150.19)"/>
      <path id="Path_613543" data-name="Path 613543" d="M349.232,99.965h.488a.732.732,0,0,0,0-1.465h-.488a.732.732,0,0,0,0,1.465Z" transform="translate(-314.467 -96.059)"/>
      <path id="Path_613544" data-name="Path 613544" d="M389.232,99.965h.488a.732.732,0,0,0,0-1.465h-.488a.732.732,0,0,0,0,1.465Z" transform="translate(-350.561 -96.059)"/>
      <path id="Path_613545" data-name="Path 613545" d="M232.252,217.637a.733.733,0,0,0-1.043,1.029l1.008,1.02a.732.732,0,0,0,1.042,0l2.411-2.441a.733.733,0,1,0-1.043-1.029l-1.89,1.914Z" transform="translate(-208.439 -202.082)"/>
      <path id="Path_613546" data-name="Path 613546" d="M326.186,303.5h-1.953a.732.732,0,0,0,0,1.465h1.953a.732.732,0,0,0,0-1.465Z" transform="translate(-291.908 -281.039)"/>
      <path id="Path_613547" data-name="Path 613547" d="M376.186,303.5h-1.953a.732.732,0,0,0,0,1.465h1.953a.732.732,0,0,0,0-1.465Z" transform="translate(-337.025 -281.039)"/>
      <path id="Path_613548" data-name="Path 613548" d="M106.186,303.5h-1.953a.732.732,0,0,0,0,1.465h1.953a.732.732,0,1,0,0-1.465Z" transform="translate(-93.393 -281.039)"/>
      <path id="Path_613549" data-name="Path 613549" d="M156.186,303.5h-1.953a.732.732,0,0,0,0,1.465h1.953a.732.732,0,0,0,0-1.465Z" transform="translate(-138.51 -281.039)"/>
    </g>
    <path id="Path_614303" data-name="Path 614303" d="M9.688-3.609A4.185,4.185,0,0,1,8.355-.824a4.365,4.365,0,0,1-2.98.98,4.008,4.008,0,0,1-3.23-1.445A5.815,5.815,0,0,1,.93-5.156V-6.25A6.481,6.481,0,0,1,1.5-9.039,4.231,4.231,0,0,1,3.1-10.887a4.47,4.47,0,0,1,2.406-.645A4.11,4.11,0,0,1,8.414-10.52a4.235,4.235,0,0,1,1.273,2.8H8.18a3.268,3.268,0,0,0-.848-1.975A2.565,2.565,0,0,0,5.508-10.3,2.684,2.684,0,0,0,3.254-9.241a4.882,4.882,0,0,0-.816,3.026v1.1a5.018,5.018,0,0,0,.773,2.948A2.5,2.5,0,0,0,5.375-1.07a2.887,2.887,0,0,0,1.918-.566A3.143,3.143,0,0,0,8.18-3.609ZM13.078,0H11.633V-8.453h1.445ZM11.516-10.7a.863.863,0,0,1,.215-.594.807.807,0,0,1,.637-.242.819.819,0,0,1,.641.242.854.854,0,0,1,.219.594.826.826,0,0,1-.219.586.834.834,0,0,1-.641.234.821.821,0,0,1-.637-.234A.834.834,0,0,1,11.516-10.7ZM22.547-4.133a5.026,5.026,0,0,1-.891,3.113A2.846,2.846,0,0,1,19.266.156,2.947,2.947,0,0,1,16.789-.977L16.719,0H15.391V-12h1.445v4.477A2.93,2.93,0,0,1,19.25-8.609a2.863,2.863,0,0,1,2.418,1.164,5.177,5.177,0,0,1,.879,3.188ZM21.1-4.3a3.906,3.906,0,0,0-.57-2.281,1.888,1.888,0,0,0-1.641-.8,2.122,2.122,0,0,0-2.055,1.328V-2.4a2.181,2.181,0,0,0,2.07,1.328,1.878,1.878,0,0,0,1.617-.8A4.153,4.153,0,0,0,21.1-4.3ZM27.875.156a3.693,3.693,0,0,1-2.8-1.129A4.19,4.19,0,0,1,24-3.992v-.266A5.073,5.073,0,0,1,24.48-6.5a3.748,3.748,0,0,1,1.344-1.547A3.378,3.378,0,0,1,27.7-8.609a3.166,3.166,0,0,1,2.563,1.086,4.7,4.7,0,0,1,.914,3.109v.6H25.445a3,3,0,0,0,.73,2.02,2.3,2.3,0,0,0,1.777.77,2.517,2.517,0,0,0,1.3-.312,3.259,3.259,0,0,0,.93-.828l.883.688A3.55,3.55,0,0,1,27.875.156ZM27.7-7.422a1.928,1.928,0,0,0-1.469.637A3.1,3.1,0,0,0,25.492-5h4.234v-.109a2.753,2.753,0,0,0-.594-1.707A1.815,1.815,0,0,0,27.7-7.422Zm9.234.266a4.331,4.331,0,0,0-.711-.055A1.9,1.9,0,0,0,34.289-6V0H32.844V-8.453H34.25l.023.977a2.251,2.251,0,0,1,2.016-1.133,1.477,1.477,0,0,1,.641.109ZM37.758-4.3a4.952,4.952,0,0,1,.922-3.129,2.915,2.915,0,0,1,2.414-1.184,2.932,2.932,0,0,1,2.352,1.016V-12h1.445V0H43.563l-.07-.906A2.943,2.943,0,0,1,41.078.156a2.887,2.887,0,0,1-2.395-1.2,5.008,5.008,0,0,1-.926-3.141Zm1.445.164a3.749,3.749,0,0,0,.594,2.25,1.92,1.92,0,0,0,1.641.813A2.108,2.108,0,0,0,43.445-2.3V-6.187a2.125,2.125,0,0,0-1.992-1.2,1.929,1.929,0,0,0-1.656.82A4.128,4.128,0,0,0,39.2-4.133ZM50.641.156a3.693,3.693,0,0,1-2.8-1.129,4.19,4.19,0,0,1-1.078-3.02v-.266a5.073,5.073,0,0,1,.48-2.246A3.748,3.748,0,0,1,48.59-8.051a3.378,3.378,0,0,1,1.871-.559,3.166,3.166,0,0,1,2.563,1.086,4.7,4.7,0,0,1,.914,3.109v.6H48.211a3,3,0,0,0,.73,2.02,2.3,2.3,0,0,0,1.777.77,2.517,2.517,0,0,0,1.3-.312,3.259,3.259,0,0,0,.93-.828l.883.688A3.55,3.55,0,0,1,50.641.156Zm-.18-7.578a1.928,1.928,0,0,0-1.469.637A3.1,3.1,0,0,0,48.258-5h4.234v-.109A2.753,2.753,0,0,0,51.9-6.816,1.815,1.815,0,0,0,50.461-7.422ZM57.18,0H55.734V-12H57.18Zm3.883,0H59.617V-8.453h1.445ZM59.5-10.7a.863.863,0,0,1,.215-.594.807.807,0,0,1,.637-.242.819.819,0,0,1,.641.242.854.854,0,0,1,.219.594.826.826,0,0,1-.219.586.834.834,0,0,1-.641.234.821.821,0,0,1-.637-.234A.834.834,0,0,1,59.5-10.7Zm5.242,2.242.047,1.063A3.08,3.08,0,0,1,67.32-8.609q2.68,0,2.7,3.023V0H68.578V-5.594a1.946,1.946,0,0,0-.418-1.352,1.675,1.675,0,0,0-1.277-.437,2.086,2.086,0,0,0-1.234.375,2.546,2.546,0,0,0-.828.984V0H63.375V-8.453Zm10.852,7.43a2.082,2.082,0,0,0,1.352-.469,1.649,1.649,0,0,0,.641-1.172h1.367a2.621,2.621,0,0,1-.5,1.383,3.293,3.293,0,0,1-1.23,1.047,3.55,3.55,0,0,1-1.629.391A3.482,3.482,0,0,1,72.848-1a4.59,4.59,0,0,1-1.02-3.152v-.242a5.089,5.089,0,0,1,.453-2.2,3.451,3.451,0,0,1,1.3-1.492,3.7,3.7,0,0,1,2-.531,3.39,3.39,0,0,1,2.363.852,3.043,3.043,0,0,1,1,2.211H77.586a1.992,1.992,0,0,0-.621-1.348,1.932,1.932,0,0,0-1.379-.527,2.023,2.023,0,0,0-1.707.793,3.724,3.724,0,0,0-.605,2.293v.273a3.65,3.65,0,0,0,.6,2.25A2.033,2.033,0,0,0,75.594-1.023Zm10.2.188A3.07,3.07,0,0,1,83.32.156a2.628,2.628,0,0,1-2.059-.785,3.4,3.4,0,0,1-.715-2.324v-5.5h1.445v5.461q0,1.922,1.563,1.922a2.163,2.163,0,0,0,2.2-1.234V-8.453H87.2V0H85.828Zm7.109.992a3.693,3.693,0,0,1-2.8-1.129,4.19,4.19,0,0,1-1.078-3.02v-.266a5.073,5.073,0,0,1,.48-2.246,3.748,3.748,0,0,1,1.344-1.547,3.378,3.378,0,0,1,1.871-.559,3.166,3.166,0,0,1,2.563,1.086A4.7,4.7,0,0,1,96.2-4.414v.6H90.477a3,3,0,0,0,.73,2.02,2.3,2.3,0,0,0,1.777.77,2.517,2.517,0,0,0,1.3-.312,3.259,3.259,0,0,0,.93-.828l.883.688A3.55,3.55,0,0,1,92.906.156Zm-.18-7.578a1.928,1.928,0,0,0-1.469.637A3.1,3.1,0,0,0,90.523-5h4.234v-.109a2.753,2.753,0,0,0-.594-1.707A1.815,1.815,0,0,0,92.727-7.422Zm6.516-1.031.047,1.063a3.08,3.08,0,0,1,2.531-1.219q2.68,0,2.7,3.023V0h-1.445V-5.594a1.946,1.946,0,0,0-.418-1.352,1.675,1.675,0,0,0-1.277-.437,2.086,2.086,0,0,0-1.234.375,2.546,2.546,0,0,0-.828.984V0H97.875V-8.453Zm10.852,7.43a2.082,2.082,0,0,0,1.352-.469,1.649,1.649,0,0,0,.641-1.172h1.367a2.621,2.621,0,0,1-.5,1.383,3.293,3.293,0,0,1-1.23,1.047,3.55,3.55,0,0,1-1.629.391A3.482,3.482,0,0,1,107.348-1a4.59,4.59,0,0,1-1.02-3.152v-.242a5.089,5.089,0,0,1,.453-2.2,3.451,3.451,0,0,1,1.3-1.492,3.7,3.7,0,0,1,2-.531,3.39,3.39,0,0,1,2.363.852,3.043,3.043,0,0,1,1,2.211h-1.367a1.992,1.992,0,0,0-.621-1.348,1.932,1.932,0,0,0-1.379-.527,2.023,2.023,0,0,0-1.707.793,3.724,3.724,0,0,0-.605,2.293v.273a3.65,3.65,0,0,0,.6,2.25A2.033,2.033,0,0,0,110.094-1.023ZM116.648,0H115.2V-8.453h1.445Zm-1.562-10.7a.863.863,0,0,1,.215-.594.807.807,0,0,1,.637-.242.819.819,0,0,1,.641.242.854.854,0,0,1,.219.594.826.826,0,0,1-.219.586.834.834,0,0,1-.641.234.821.821,0,0,1-.637-.234A.834.834,0,0,1,115.086-10.7ZM124.18,0a3.036,3.036,0,0,1-.2-.891A3.225,3.225,0,0,1,121.57.156a2.984,2.984,0,0,1-2.051-.707,2.288,2.288,0,0,1-.8-1.793,2.39,2.39,0,0,1,1-2.051,4.733,4.733,0,0,1,2.824-.73h1.406v-.664A1.623,1.623,0,0,0,123.5-7a1.821,1.821,0,0,0-1.336-.449,2.108,2.108,0,0,0-1.3.391,1.151,1.151,0,0,0-.523.945h-1.453a2,2,0,0,1,.449-1.223,3.066,3.066,0,0,1,1.219-.934,4.1,4.1,0,0,1,1.691-.344,3.342,3.342,0,0,1,2.289.73,2.635,2.635,0,0,1,.859,2.012v3.891a4.757,4.757,0,0,0,.3,1.852V0Zm-2.4-1.1a2.54,2.54,0,0,0,1.289-.352,2.127,2.127,0,0,0,.883-.914V-4.1H122.82q-2.656,0-2.656,1.555a1.316,1.316,0,0,0,.453,1.063A1.742,1.742,0,0,0,121.781-1.1Z" transform="translate(-2969.353 -7439.979)" fill="#12263f"/>
    <path id="Path_614304" data-name="Path 614304" d="M9.688-3.609A4.185,4.185,0,0,1,8.355-.824a4.365,4.365,0,0,1-2.98.98,4.008,4.008,0,0,1-3.23-1.445A5.815,5.815,0,0,1,.93-5.156V-6.25A6.481,6.481,0,0,1,1.5-9.039,4.231,4.231,0,0,1,3.1-10.887a4.47,4.47,0,0,1,2.406-.645A4.11,4.11,0,0,1,8.414-10.52a4.235,4.235,0,0,1,1.273,2.8H8.18a3.268,3.268,0,0,0-.848-1.975A2.565,2.565,0,0,0,5.508-10.3,2.684,2.684,0,0,0,3.254-9.241a4.882,4.882,0,0,0-.816,3.026v1.1a5.018,5.018,0,0,0,.773,2.948A2.5,2.5,0,0,0,5.375-1.07a2.887,2.887,0,0,0,1.918-.566A3.143,3.143,0,0,0,8.18-3.609ZM13.078,0H11.633V-8.453h1.445ZM11.516-10.7a.863.863,0,0,1,.215-.594.807.807,0,0,1,.637-.242.819.819,0,0,1,.641.242.854.854,0,0,1,.219.594.826.826,0,0,1-.219.586.834.834,0,0,1-.641.234.821.821,0,0,1-.637-.234A.834.834,0,0,1,11.516-10.7ZM22.547-4.133a5.026,5.026,0,0,1-.891,3.113A2.846,2.846,0,0,1,19.266.156,2.947,2.947,0,0,1,16.789-.977L16.719,0H15.391V-12h1.445v4.477A2.93,2.93,0,0,1,19.25-8.609a2.863,2.863,0,0,1,2.418,1.164,5.177,5.177,0,0,1,.879,3.188ZM21.1-4.3a3.906,3.906,0,0,0-.57-2.281,1.888,1.888,0,0,0-1.641-.8,2.122,2.122,0,0,0-2.055,1.328V-2.4a2.181,2.181,0,0,0,2.07,1.328,1.878,1.878,0,0,0,1.617-.8A4.153,4.153,0,0,0,21.1-4.3ZM27.875.156a3.693,3.693,0,0,1-2.8-1.129A4.19,4.19,0,0,1,24-3.992v-.266A5.073,5.073,0,0,1,24.48-6.5a3.748,3.748,0,0,1,1.344-1.547A3.378,3.378,0,0,1,27.7-8.609a3.166,3.166,0,0,1,2.563,1.086,4.7,4.7,0,0,1,.914,3.109v.6H25.445a3,3,0,0,0,.73,2.02,2.3,2.3,0,0,0,1.777.77,2.517,2.517,0,0,0,1.3-.312,3.259,3.259,0,0,0,.93-.828l.883.688A3.55,3.55,0,0,1,27.875.156ZM27.7-7.422a1.928,1.928,0,0,0-1.469.637A3.1,3.1,0,0,0,25.492-5h4.234v-.109a2.753,2.753,0,0,0-.594-1.707A1.815,1.815,0,0,0,27.7-7.422Zm9.234.266a4.331,4.331,0,0,0-.711-.055A1.9,1.9,0,0,0,34.289-6V0H32.844V-8.453H34.25l.023.977a2.251,2.251,0,0,1,2.016-1.133,1.477,1.477,0,0,1,.641.109Zm6.25,4.914a1.064,1.064,0,0,0-.441-.91A4.249,4.249,0,0,0,41.2-3.711a7.277,7.277,0,0,1-1.742-.562,2.479,2.479,0,0,1-.953-.781A1.869,1.869,0,0,1,38.2-6.133a2.193,2.193,0,0,1,.879-1.758,3.432,3.432,0,0,1,2.246-.719,3.532,3.532,0,0,1,2.332.742,2.357,2.357,0,0,1,.895,1.9H43.094a1.3,1.3,0,0,0-.5-1.023,1.888,1.888,0,0,0-1.27-.43,1.976,1.976,0,0,0-1.234.344,1.082,1.082,0,0,0-.445.9.877.877,0,0,0,.414.789,5.1,5.1,0,0,0,1.5.508A7.8,7.8,0,0,1,43.3-4.3a2.558,2.558,0,0,1,1,.809,1.988,1.988,0,0,1,.324,1.152,2.163,2.163,0,0,1-.906,1.816,3.8,3.8,0,0,1-2.352.684A4.257,4.257,0,0,1,39.57-.2a2.922,2.922,0,0,1-1.223-1A2.42,2.42,0,0,1,37.906-2.6h1.445a1.5,1.5,0,0,0,.582,1.152,2.258,2.258,0,0,0,1.434.426,2.331,2.331,0,0,0,1.316-.332A1.02,1.02,0,0,0,43.18-2.242Zm6.836,2.4a3.693,3.693,0,0,1-2.8-1.129,4.19,4.19,0,0,1-1.078-3.02v-.266a5.073,5.073,0,0,1,.48-2.246,3.748,3.748,0,0,1,1.344-1.547,3.378,3.378,0,0,1,1.871-.559A3.166,3.166,0,0,1,52.4-7.523a4.7,4.7,0,0,1,.914,3.109v.6H47.586a3,3,0,0,0,.73,2.02,2.3,2.3,0,0,0,1.777.77,2.517,2.517,0,0,0,1.3-.312,3.259,3.259,0,0,0,.93-.828l.883.688A3.55,3.55,0,0,1,50.016.156Zm-.18-7.578a1.928,1.928,0,0,0-1.469.637A3.1,3.1,0,0,0,47.633-5h4.234v-.109a2.753,2.753,0,0,0-.594-1.707A1.815,1.815,0,0,0,49.836-7.422Zm4.8,3.125a4.968,4.968,0,0,1,.914-3.145,2.923,2.923,0,0,1,2.422-1.168,2.908,2.908,0,0,1,2.414,1.094l.07-.937h1.32V-.2a3.439,3.439,0,0,1-.973,2.586,3.589,3.589,0,0,1-2.613.945,4.348,4.348,0,0,1-1.789-.391,3.08,3.08,0,0,1-1.336-1.07L55.82,1a2.826,2.826,0,0,0,2.273,1.148,2.214,2.214,0,0,0,1.645-.594,2.269,2.269,0,0,0,.59-1.672V-.844a2.971,2.971,0,0,1-2.367,1,2.887,2.887,0,0,1-2.4-1.2A5.224,5.224,0,0,1,54.641-4.3Zm1.453.164a3.79,3.79,0,0,0,.586,2.246,1.9,1.9,0,0,0,1.641.816,2.117,2.117,0,0,0,2.008-1.242V-6.172a2.142,2.142,0,0,0-1.992-1.211,1.921,1.921,0,0,0-1.648.82A4.128,4.128,0,0,0,56.094-4.133ZM69.18-.836A3.07,3.07,0,0,1,66.7.156a2.628,2.628,0,0,1-2.059-.785,3.4,3.4,0,0,1-.715-2.324v-5.5h1.445v5.461q0,1.922,1.563,1.922a2.163,2.163,0,0,0,2.2-1.234V-8.453h1.445V0H69.211Zm7.688-6.32a4.331,4.331,0,0,0-.711-.055A1.9,1.9,0,0,0,74.227-6V0H72.781V-8.453h1.406l.023.977a2.251,2.251,0,0,1,2.016-1.133,1.477,1.477,0,0,1,.641.109ZM79.766,0H78.32V-8.453h1.445ZM78.2-10.7a.863.863,0,0,1,.215-.594.807.807,0,0,1,.637-.242.819.819,0,0,1,.641.242.854.854,0,0,1,.219.594.826.826,0,0,1-.219.586.834.834,0,0,1-.641.234.821.821,0,0,1-.637-.234A.834.834,0,0,1,78.2-10.7Zm3.523,6.4a4.952,4.952,0,0,1,.922-3.129,2.915,2.915,0,0,1,2.414-1.184,2.932,2.932,0,0,1,2.352,1.016V-12h1.445V0H87.531l-.07-.906A2.943,2.943,0,0,1,85.047.156a2.887,2.887,0,0,1-2.395-1.2,5.008,5.008,0,0,1-.926-3.141Zm1.445.164a3.749,3.749,0,0,0,.594,2.25,1.92,1.92,0,0,0,1.641.813A2.109,2.109,0,0,0,87.414-2.3V-6.187a2.125,2.125,0,0,0-1.992-1.2,1.929,1.929,0,0,0-1.656.82A4.128,4.128,0,0,0,83.172-4.133ZM96.32,0a3.036,3.036,0,0,1-.2-.891A3.225,3.225,0,0,1,93.711.156,2.984,2.984,0,0,1,91.66-.551a2.288,2.288,0,0,1-.8-1.793,2.39,2.39,0,0,1,1-2.051,4.733,4.733,0,0,1,2.824-.73h1.406v-.664A1.623,1.623,0,0,0,95.641-7,1.821,1.821,0,0,0,94.3-7.445a2.108,2.108,0,0,0-1.3.391,1.151,1.151,0,0,0-.523.945H91.031a2,2,0,0,1,.449-1.223A3.066,3.066,0,0,1,92.7-8.266a4.1,4.1,0,0,1,1.691-.344,3.342,3.342,0,0,1,2.289.73,2.635,2.635,0,0,1,.859,2.012v3.891a4.757,4.757,0,0,0,.3,1.852V0Zm-2.4-1.1a2.54,2.54,0,0,0,1.289-.352,2.127,2.127,0,0,0,.883-.914V-4.1H94.961Q92.3-4.1,92.3-2.547a1.316,1.316,0,0,0,.453,1.063A1.742,1.742,0,0,0,93.922-1.1Zm5.531-3.2a4.952,4.952,0,0,1,.922-3.129,2.915,2.915,0,0,1,2.414-1.184,2.932,2.932,0,0,1,2.352,1.016V-12h1.445V0h-1.328l-.07-.906A2.943,2.943,0,0,1,102.773.156a2.887,2.887,0,0,1-2.395-1.2,5.008,5.008,0,0,1-.926-3.141Zm1.445.164a3.749,3.749,0,0,0,.594,2.25,1.92,1.92,0,0,0,1.641.813A2.109,2.109,0,0,0,105.141-2.3V-6.187a2.125,2.125,0,0,0-1.992-1.2,1.929,1.929,0,0,0-1.656.82A4.128,4.128,0,0,0,100.9-4.133Z" transform="translate(-2694.319 -7439.979)" fill="#12263f"/>
    <g id="Group_1077055" data-name="Group 1077055" transform="translate(-2960.417 -7429)">
      <path id="Path_614174" data-name="Path 614174" d="M-4057.7-7426v158.981" transform="translate(4068.568 7429)" fill="none" stroke="#0c5e46" stroke-width="2"/>
      <g id="Group_1077054" data-name="Group 1077054" transform="translate(21.736 154.8) rotate(90)">
        <path id="Path_213857" data-name="Path 213857" d="M2.754,0,0,2.753l8.114,8.115L0,18.983l2.754,2.753L13.622,10.868Z" transform="translate(6.779 0)" fill="#0c5e46"/>
        <path id="Path_213858" data-name="Path 213858" d="M0,2.753,4.265,7.018,0,11.283l2.753,2.753L9.773,7.018,2.753,0Z" transform="translate(0 3.85)" fill="#0c5e46"/>
      </g>
      <circle id="Ellipse_5710" data-name="Ellipse 5710" cx="3" cy="3" r="3" transform="translate(7.736)" fill="#0c5e46"/>
    </g>
    <g id="Group_1077056" data-name="Group 1077056" transform="translate(-2616.055 -7429)">
      <path id="Path_614174-2" data-name="Path 614174" d="M-4057.7-7426v158.981" transform="translate(4068.568 7429)" fill="none" stroke="#0c5e46" stroke-width="2"/>
      <g id="Group_1077054-2" data-name="Group 1077054" transform="translate(21.736 154.8) rotate(90)">
        <path id="Path_213857-2" data-name="Path 213857" d="M2.754,0,0,2.753l8.114,8.115L0,18.983l2.754,2.753L13.622,10.868Z" transform="translate(6.779 0)" fill="#0c5e46"/>
        <path id="Path_213858-2" data-name="Path 213858" d="M0,2.753,4.265,7.018,0,11.283l2.753,2.753L9.773,7.018,2.753,0Z" transform="translate(0 3.85)" fill="#0c5e46"/>
      </g>
      <circle id="Ellipse_5710-2" data-name="Ellipse 5710" cx="3" cy="3" r="3" transform="translate(7.448)" fill="#0c5e46"/>
    </g>
  </g>
</svg>
