<svg xmlns="http://www.w3.org/2000/svg" width="141" height="141" viewBox="0 0 141 141">
  <g id="Grupo_1077076" data-name="Grupo 1077076" transform="translate(-1143 -8147.437)">
    <g id="Grupo_1076902" data-name="Grupo 1076902" transform="translate(874 7189.437)">
      <circle id="Elipse_5614" data-name="Elipse 5614" cx="70.5" cy="70.5" r="70.5" transform="translate(269 958)" fill="#fff"/>
    </g>
    <g id="Grupo_1076989" data-name="Grupo 1076989" transform="translate(1170 8174)">
      <path id="Trazado_613644" data-name="Trazado 613644" d="M150.03,197.289v6.9a1.742,1.742,0,0,1-1.742,1.742h-6.9v32.4h33.278V197.289Z" transform="translate(-114.026 -161.812)" fill="#b9e4ef"/>
      <path id="Trazado_613645" data-name="Trazado 613645" d="M95.811,32H33.221A1.224,1.224,0,0,0,32,33.225v8.734H53.336L55.094,39.3a1.742,1.742,0,0,1,1.453-.781H97.031V33.225A1.224,1.224,0,0,0,95.811,32Z" transform="translate(-20.516 -20.516)" fill="#80b4fb"/>
      <path id="Trazado_613646" data-name="Trazado 613646" d="M75.295,8H12.7A4.712,4.712,0,0,0,8,12.709V65.485a4.712,4.712,0,0,0,4.7,4.709H23.879v8.064A1.742,1.742,0,0,0,25.621,80H62.382a1.742,1.742,0,0,0,1.742-1.742V70.194h11.17A4.712,4.712,0,0,0,80,65.485V12.709A4.712,4.712,0,0,0,75.294,8ZM12.7,11.484h62.59a1.224,1.224,0,0,1,1.221,1.225V18H36.031a1.743,1.743,0,0,0-1.453.781l-1.759,2.659H11.484V12.709A1.224,1.224,0,0,1,12.7,11.484ZM60.64,76.515H27.363v-32.4h6.9A1.742,1.742,0,0,0,36,42.376v-6.9H60.64V76.515ZM28.715,40.634l3.8-3.8v3.8ZM75.295,66.71H64.124V33.735a1.742,1.742,0,0,0-1.742-1.742H33.151a1.742,1.742,0,0,0-1.232.51l-7.53,7.53a1.742,1.742,0,0,0-.51,1.232V66.71H12.7a1.239,1.239,0,0,1-1.221-1.225V24.927H33.756a1.743,1.743,0,0,0,1.453-.781l1.759-2.659H76.515v44A1.239,1.239,0,0,1,75.295,66.71ZM14.548,16.754a1.743,1.743,0,1,1,1.745,1.74A1.748,1.748,0,0,1,14.548,16.754Zm5.456,0a1.743,1.743,0,1,1,1.745,1.74A1.751,1.751,0,0,1,20,16.754Zm5.46,0a1.741,1.741,0,1,1,1.74,1.74A1.747,1.747,0,0,1,25.464,16.754ZM36.873,51.959a1.741,1.741,0,0,0-.918.48L33.894,54.5a1.742,1.742,0,0,0-.51,1.232v9.443a1.742,1.742,0,0,0,.51,1.232l2.061,2.062a1.742,1.742,0,0,0,1.232.51H50.811a1.742,1.742,0,0,0,1.232-.51L54.1,66.408a1.742,1.742,0,0,0,.51-1.232V55.733A1.742,1.742,0,0,0,54.1,54.5L52.043,52.44a1.741,1.741,0,0,0-.918-.48V50.141a7.126,7.126,0,1,0-14.252,0Zm14.258,12.5L50.09,65.5H37.909l-1.041-1.041v-8l1.041-1.041H50.09l1.041,1.041v8ZM44,46.5a3.646,3.646,0,0,1,3.64,3.644v1.789H40.357V50.141A3.649,3.649,0,0,1,44,46.5ZM45.158,60.6l.407,2.053a.816.816,0,0,1-.2.7.837.837,0,0,1-.663.3H43.3a.843.843,0,0,1-.663-.3.8.8,0,0,1-.2-.7l.4-2.053a1.878,1.878,0,1,1,2.317,0Z" fill-rule="evenodd"/>
      <path id="Trazado_613647" data-name="Trazado 613647" d="M55.725,103.57a1.742,1.742,0,0,1-1.453.781H32v40.558a1.239,1.239,0,0,0,1.221,1.225H44.395V120.689a1.742,1.742,0,0,1,.51-1.232l7.53-7.53a1.742,1.742,0,0,1,1.232-.51H82.9a1.742,1.742,0,0,1,1.742,1.742v32.975h11.17a1.239,1.239,0,0,0,1.221-1.225v-44H57.484l-1.759,2.659Z" transform="translate(-20.516 -79.424)" fill="#e4f6ff"/>
      <path id="Trazado_613648" data-name="Trazado 613648" d="M150.706,210.412h3.8v-3.8Z" transform="translate(-121.991 -169.777)" fill="#6dbacc"/>
      <path id="Trazado_613649" data-name="Trazado 613649" d="M220.092,344.712l1.041-1.041v-8l-1.041-1.041H207.911l-1.041,1.041v8l1.041,1.041h12.181ZM214,336.464a1.879,1.879,0,0,1,1.156,3.358l.407,2.053a.816.816,0,0,1-.2.7.837.837,0,0,1-.663.3h-1.4a.843.843,0,0,1-.663-.3.8.8,0,0,1-.2-.7l.4-2.053a1.879,1.879,0,0,1,1.16-3.358Z" transform="translate(-170.002 -279.217)" fill="#80b4fb"/>
    </g>
  </g>
</svg>
