<svg xmlns="http://www.w3.org/2000/svg" width="142" height="142" viewBox="0 0 142 142">
  <g id="Grupo_1072077" data-name="Grupo 1072077" transform="translate(-269.001 -958.001)">
    <circle id="Elipse_5614" data-name="Elipse 5614" cx="71" cy="71" r="71" transform="translate(269.001 958.001)" fill="#fff"/>
    <g id="Grupo_1076346" data-name="Grupo 1076346" transform="translate(295.253 987.837)">
      <path id="Trazado_612750" data-name="Trazado 612750" d="M446.2,59.471c.049.774-.3,1.547-1.17,1.515-1.35-.066-4.972-2.421-7.014-3.475q-.321-.173-.593-.3c-.017-.017-.033-.017-.066-.033a8.065,8.065,0,0,0-.833-6.388.819.819,0,0,1,.6-1.259,6.211,6.211,0,0,0,3.182-1.277c.247.543.544,1.1.758,1.63.082.181.23.461.345.724a.056.056,0,0,1,.017.033c.05.132.1.28.148.411.247.659.461,1.219.543,1.416a11.45,11.45,0,0,0,.692,1.433c.757,1.285,1.926,2.273,2.7,3.557a4.446,4.446,0,0,1,.692,2.009Zm0,0" transform="translate(-359.26 -39.581)" fill="#e57e25"/>
      <path id="Trazado_612751" data-name="Trazado 612751" d="M93.945,70.151C91.3,81.114,79.422,84.244,75.253,85.016c-1.216.223-2.433.445-3.649.683a107.454,107.454,0,0,1-33.126.934c-13.663-1.854-22.446-8.56-26.732-13.811A15.375,15.375,0,0,1,8.7,67.615c-1.1-4.347,4.732-.638,9.642-.638a13.7,13.7,0,0,0,3.279-.4,3.945,3.945,0,0,0,.4-.089,13.9,13.9,0,0,0,3.234-1.335c-.03-.015-.074-.044-.1-.059-3.293-1.72-2.7-3.991,2.106-3.59a53.27,53.27,0,0,0,14.494-1.335,47.827,47.827,0,0,1-14.938-.519,17.185,17.185,0,0,1-4.747-1.5,8.061,8.061,0,0,1-4.109-3.842c-.549-1.454.208-2.463,2.18-1.958a65.114,65.114,0,0,0,9.346,1.216,22.4,22.4,0,0,1-10.266-4.124A15.426,15.426,0,0,1,15.766,45.9c-.015,0-.03-.03-.03-.03-2.048-3.012-1.9-5.534-.489-4.673,2.893,1.751,13.351,4.124,20.339,5.177.756.119,1.483.222,2.151.3,5.429.668,16.882-2.655,27.029-.594.014,0,.03.015.044.015h.03a23.078,23.078,0,0,1,7.106,2.626,24.072,24.072,0,0,1,3.516,2.478,21.348,21.348,0,0,1,4.51,5.266,16,16,0,0,1,.935,1.691c-.237,1.973-.579,4.153-.638,4.555a7.433,7.433,0,0,1-2.715,4.954,1.485,1.485,0,0,0,.846,2.7,1.425,1.425,0,0,0,.86-.282,9.747,9.747,0,0,0,3.679-5.667v-.045c.014-.044.014-.089.03-.133l.03-.208a12.192,12.192,0,0,0,.148-1.276l.015-.178a30.733,30.733,0,0,0-.46-7.121c-1.113-6.557-6.794-14.6-11.927-25.352S69.6,12.429,73.31,9.833s8.219-1.053,11.675,1.35c.341.237.652.46.949.652,1.87,1.32,2.878,2.122,3.382,3.857-2.537,1.468-6.957.964-6.957.964a7.9,7.9,0,0,1,2.6,7.18,19.76,19.76,0,0,1-5.534-3.753,7.1,7.1,0,0,0-.993-.831c-2.077-1.38-3.383.207-3.264,3.115.119,3.337,1.721,6.127,8.708,15.888S97.164,56.8,93.945,70.151Zm0,0" transform="translate(-7.055 -6.838)" fill="#0d0d0d"/>
      <path id="Trazado_612752" data-name="Trazado 612752" d="M82.939,64.41v-.045c.014-.044.014-.089.03-.133l.03-.208a12.191,12.191,0,0,0,.148-1.276l.015-.178a30.733,30.733,0,0,0-.46-7.121c-1.113-6.557-6.794-14.6-11.927-25.352S69.6,12.428,73.31,9.832s8.219-1.053,11.675,1.35c.341.237.652.46.949.652.075.163,2.655,3.5,2.7,3.679A13.757,13.757,0,0,1,82.7,17c2.8,2.8,1.78,4.317,1.484,5.934-.772-.371-4.065-3.264-4.941-3.827a4.6,4.6,0,0,1-.5-.312c-.86-.579-1.172,1.973-1.973,1.172-2.655-2.655-1.617-.371-1.484,2.967s-1.6,2.211,5.385,11.972S93.961,53.447,90.742,66.8C88.1,77.761,76.218,80.891,72.049,81.662c-1.216.223-2.433.445-3.649.683a107.479,107.479,0,0,1-33.126.934A43.375,43.375,0,0,1,11.746,72.821,15.375,15.375,0,0,1,8.7,67.614c-1.1-4.347,4.732-.638,9.642-.638a13.7,13.7,0,0,0,3.279-.4,3.945,3.945,0,0,0,.4-.089,13.9,13.9,0,0,0,3.234-1.335c-.03-.015-.074-.044-.1-.059-3.293-1.72-2.7-3.991,2.106-3.59a53.27,53.27,0,0,0,14.494-1.335,47.827,47.827,0,0,1-14.938-.519,17.185,17.185,0,0,1-4.747-1.5,10.985,10.985,0,0,1,1.988,0,53.27,53.27,0,0,0,14.494-1.335,47.832,47.832,0,0,1-14.939-.519,16.406,16.406,0,0,1-5.652-1.988c-.549-1.454.208-2.463,2.18-1.958a65.114,65.114,0,0,0,9.346,1.216,22.4,22.4,0,0,1-10.266-4.124c2.092.341,4.673.594,7.061.771A22.334,22.334,0,0,1,15.766,45.9c-.015,0-.03-.03-.03-.03-2.048-3.012-1.9-5.534-.489-4.673C18.14,42.944,28.6,45.317,35.586,46.37c.756.119,1.483.222,2.151.3,5.429.668,16.882-2.655,27.029-.594.014,0,.03.015.044.015h.03a23.078,23.078,0,0,1,7.106,2.626,24.073,24.073,0,0,1,3.516,2.478,20.92,20.92,0,0,1,2.24,3.6l2.269,1.661a16,16,0,0,1,.935,1.691Zm0,0" transform="translate(-7.055 -6.838)" fill="#232222"/>
      <path id="Trazado_612753" data-name="Trazado 612753" d="M119.98,153.589c-10.147-2.062-21.6,1.261-27.029.594-.668-.075-1.395-.178-2.151-.3-6.231-2.685-12.8-6.364-15-13.262-.148-.46-.341-1.143.163-1.439.608-.356,1.781.312,2.3.549a38.758,38.758,0,0,1,4.821,2.893c9.272,6.216,11.868,6.3,24.878,8.026a42.446,42.446,0,0,1,12.016,2.937Zm0,0" transform="translate(-62.27 -114.353)" fill="#454748"/>
      <path id="Trazado_612754" data-name="Trazado 612754" d="M220.848,346.567a8.6,8.6,0,0,1-1.138-.067c-1.721-.235-2.238-1.074-2.369-1.736-.194-.984.382-1.877,1.716-2.648a44.488,44.488,0,0,0,8.253-6.812c1.365-1.389,2.4-2.547,2.865-3.063l.2-.226a1.484,1.484,0,0,1,2.194,2l-.188.208c-.462.516-1.547,1.724-2.967,3.17a55.213,55.213,0,0,1-7.067,6.127c3.924-.474,10.929-2.67,13.5-7.773a1.484,1.484,0,1,1,2.651,1.333c-3.56,7.075-13.221,9.487-17.65,9.487Zm0,0" transform="translate(-178.896 -272.788)"/>
      <path id="Trazado_612755" data-name="Trazado 612755" d="M170.947,355.778a7.783,7.783,0,0,1-2.934-.446,2.074,2.074,0,0,1-1.408-1.844c-.03-.915.565-1.689,1.763-2.3a97.365,97.365,0,0,0,8.6-5.306,1.483,1.483,0,0,1,1.657,2.46c-2.037,1.373-4.718,3.122-7.05,4.471a24.136,24.136,0,0,0,14.065-5.953,1.484,1.484,0,0,1,1.965,2.225,26.877,26.877,0,0,1-16.655,6.693Zm0,0" transform="translate(-137.157 -284.407)"/>
      <path id="Trazado_612756" data-name="Trazado 612756" d="M290.57,334.115a1.484,1.484,0,0,1-1.112-2.465c.043-.053.1-.12.137-.156a1.484,1.484,0,0,1,2.162,2.03c-.043.053-.1.12-.138.156A1.479,1.479,0,0,1,290.57,334.115Zm0,0" transform="translate(-237.993 -272.404)"/>
      <path id="Trazado_612757" data-name="Trazado 612757" d="M128.478,331.642a13.1,13.1,0,0,1-8.07-2.294,2.526,2.526,0,0,1-1.109-2.767c.169-.542.72-1.476,2.5-1.634a42.438,42.438,0,0,0,9.1-2.414,1.523,1.523,0,0,1,1.984,1.4,1.48,1.48,0,0,1-1.1,1.436,53.054,53.054,0,0,1-8.417,2.364c2.445,1.081,8.023,1.9,14.723-1.627a29.776,29.776,0,0,0,5.7-3.946,1.637,1.637,0,0,1,.168-.126,1.484,1.484,0,0,1,1.959,2.221,2.037,2.037,0,0,1-.236.193,32.675,32.675,0,0,1-6.206,4.285,23.665,23.665,0,0,1-10.995,2.909Zm0,0" transform="translate(-98.148 -264.714)"/>
      <path id="Trazado_612758" data-name="Trazado 612758" d="M94.594,302.162a26.414,26.414,0,0,1-3.036-.175A19.405,19.405,0,0,1,85.3,300.3c-3.242-1.65-3.112-3.519-2.906-4.246.278-.978,1.4-2.548,5.693-2.209a51.942,51.942,0,0,0,14.034-1.3,1.484,1.484,0,0,1,.678,2.889A53.912,53.912,0,0,1,87.836,296.8a6.893,6.893,0,0,0-2.323.11,4.8,4.8,0,0,0,1.118.739,16.068,16.068,0,0,0,5.272,1.392,24.8,24.8,0,0,0,8.738-.6c.035-.009.07-.017.1-.023a25.163,25.163,0,0,0,6.312-2.436,1.588,1.588,0,0,1,.8-.227,1.484,1.484,0,0,1,.666,2.809,28.4,28.4,0,0,1-7.155,2.757.847.847,0,0,1-.093.019,27.926,27.926,0,0,1-6.679.826Zm0,0" transform="translate(-67.753 -240.656)"/>
      <path id="Trazado_612759" data-name="Trazado 612759" d="M102.236,210.555a1.479,1.479,0,0,1-1.475-1.315A20.653,20.653,0,0,0,90.5,194.665a21.724,21.724,0,0,0-6.615-2.445,1.721,1.721,0,0,1-.2-.048c-5.964-1.183-12.57-.436-17.883.163a42.66,42.66,0,0,1-8.944.472c-.67-.074-1.421-.181-2.2-.3-5.672-.857-14.958-2.805-19.374-4.64a9.382,9.382,0,0,0,1.122,2.017c1.464,2.057,5.049,5.686,12.619,6.889a34.115,34.115,0,0,0,6.569.368,1.453,1.453,0,0,1,1.534,1.43,1.481,1.481,0,0,1-1.43,1.534,37.113,37.113,0,0,1-7.141-.4c-11.123-1.765-15.578-8.515-16.379-11.839-.489-2.033.248-2.929.732-3.281a2.124,2.124,0,0,1,2.412.015c2.511,1.52,12.52,3.882,19.79,4.978.742.117,1.446.218,2.094.289a41.813,41.813,0,0,0,8.265-.474c5.553-.629,12.466-1.408,18.925-.1.046.01.091.022.137.035a24.584,24.584,0,0,1,7.465,2.78A23.577,23.577,0,0,1,103.7,208.821a1.521,1.521,0,0,1,.02.244,1.489,1.489,0,0,1-1.484,1.49Zm0,0" transform="translate(-26.353 -151.507)"/>
      <path id="Trazado_612760" data-name="Trazado 612760" d="M72.422,258.558a59.281,59.281,0,0,1-9.938-.884c-5.782-.985-9.22-3.939-10.061-6.428a2.979,2.979,0,0,1,.485-3.074,3.347,3.347,0,0,1,3.523-.694,62.244,62.244,0,0,0,9.082,1.174,1.483,1.483,0,1,1-.22,2.958,68.486,68.486,0,0,1-9.6-1.257,2.541,2.541,0,0,0-.487-.086c.278,1.045,2.542,3.59,7.777,4.483a46.721,46.721,0,0,0,14.459.514l.73,2.879s-.1.026-.26.052a36.608,36.608,0,0,1-5.49.362Zm0,0" transform="translate(-42.97 -203.402)"/>
      <path id="Trazado_612761" data-name="Trazado 612761" d="M83.924,148.707a1.508,1.508,0,0,1-.585-.12c-6.483-2.786-13.433-6.647-15.832-14.173-.594-1.861.122-2.749.827-3.166a3.8,3.8,0,0,1,3.509.4l.177.086a39.726,39.726,0,0,1,5.016,3c8.538,5.726,10.932,6.04,22.437,7.551l1.808.238a45.283,45.283,0,0,1,12.495,3.079,1.483,1.483,0,1,1-1.254,2.688,42.6,42.6,0,0,0-11.631-2.827l-1.8-.237c-11.5-1.51-14.59-1.915-23.7-8.026a37.494,37.494,0,0,0-4.633-2.784l-.117-.057c2.3,5.853,8.274,9.1,13.876,11.5a1.484,1.484,0,0,1-.585,2.847Zm0,0" transform="translate(-55.393 -107.691)"/>
      <path id="Trazado_612762" data-name="Trazado 612762" d="M44.724,82.148a101.114,101.114,0,0,1-13.5-.882C10.814,78.493,1.351,65.548.214,61.147a3.181,3.181,0,0,1,.542-3.2c1.236-1.241,3.19-.744,5.669-.121a21.1,21.1,0,0,0,4.868.831,12.622,12.622,0,0,0,6.176-1.63A1.484,1.484,0,0,1,18.943,59.6a15.427,15.427,0,0,1-7.651,2.022A23.368,23.368,0,0,1,5.7,60.7a19.78,19.78,0,0,0-2.67-.555c.013.076.032.164.058.267.962,3.724,9.858,15.375,28.535,17.912A106.038,106.038,0,0,0,64.27,77.4c1.216-.236,2.44-.461,3.661-.684,4.47-.827,15.125-3.821,17.517-13.751C88.5,50.313,82.555,42,75.673,32.369c-7.009-9.793-8.91-12.964-9.046-16.786-.1-2.47.692-4.263,2.171-4.911.8-.352,2.47-.623,4.617,1.524a18.034,18.034,0,0,0,5.118,3.462c.712.349,1.33.623,1.831.844l.336.149c.653.293,1.55.807,2.5,1.352.879.505,2.351,1.35,3.241,1.728A2.837,2.837,0,0,0,86.112,19a11.011,11.011,0,0,0-1.048-1.363,13.019,13.019,0,0,1-1.39-1.857,19.461,19.461,0,0,1-1.283-2.833c-.126-.326-.253-.65-.386-.967-.116-.278-.255-.562-.394-.849a11.605,11.605,0,0,1-.775-1.859c-.374-1.3-1.081-1.841-3.258-3.358l-.5-.349C74.853,4.011,70.59,1.77,67.1,4.21c-3.747,2.622-6.531,9.018-2.049,18.41,1.778,3.725,3.665,7.2,5.332,10.269,3.2,5.884,5.955,10.966,6.72,15.475a27.9,27.9,0,0,1,.235,9.453,10.248,10.248,0,0,1-3.927,6.9A1.484,1.484,0,1,1,71.7,62.295a7.429,7.429,0,0,0,2.719-5,25.049,25.049,0,0,0-.239-8.433c-.684-4.025-3.334-8.906-6.4-14.557-1.682-3.1-3.59-6.612-5.4-10.407C57.1,12.831,60.707,5.066,65.4,1.779,69.024-.753,73.9-.264,78.777,3.127l.5.347c2.246,1.566,3.73,2.6,4.413,4.97a9.325,9.325,0,0,0,.591,1.384c.165.339.327.677.467,1.009s.275.685.411,1.031a16.793,16.793,0,0,0,1.078,2.409,10.58,10.58,0,0,0,1.091,1.434,13.638,13.638,0,0,1,1.323,1.743,5.479,5.479,0,0,1,.837,2.494,2.92,2.92,0,0,1-.757,2.234,2.4,2.4,0,0,1-1.841.706c-1.155-.051-2.721-.905-5.163-2.309-.882-.505-1.715-.985-2.232-1.216l-.329-.146c-.53-.235-1.182-.525-1.917-.886A20.8,20.8,0,0,1,71.318,14.3c-.765-.765-1.232-.907-1.353-.9a3.232,3.232,0,0,0-.374,2.073c.1,2.893,1.522,5.43,8.433,15.084C85.087,40.439,91.7,49.693,88.331,63.662,85.453,75.61,72.4,78.91,68.467,79.638c-1.214.222-2.425.445-3.637.679a110.212,110.212,0,0,1-20.106,1.831Zm0,0" transform="translate(0 0)"/>
      <path id="Trazado_612763" data-name="Trazado 612763" d="M421.755,51.912a1.463,1.463,0,0,1-.269-.025A1.483,1.483,0,0,1,420.3,50.16a6.449,6.449,0,0,0-2.187-5.864,1.484,1.484,0,0,1,1.216-2.522A12.076,12.076,0,0,0,425.373,41a1.484,1.484,0,1,1,1.486,2.568,11,11,0,0,1-4.675,1.214,8.832,8.832,0,0,1,1.029,5.915,1.483,1.483,0,0,1-1.457,1.215Zm0,0" transform="translate(-343.854 -33.43)"/>
    </g>
  </g>
</svg>
