<svg xmlns="http://www.w3.org/2000/svg" width="120" height="120" viewBox="0 0 120 120">
  <g id="Grupo_1071460" data-name="Grupo 1071460" transform="translate(-269 -958)">
    <path id="Trazado_608973" data-name="Trazado 608973" d="M60,0A60,60,0,1,1,0,60,60,60,0,0,1,60,0Z" transform="translate(269 958)" fill="#e1efe3"/>
    <g id="Grupo_1076317" data-name="Grupo 1076317" transform="translate(293 982.137)">
      <path id="Trazado_612722" data-name="Trazado 612722" d="M69.419,55.419A7.946,7.946,0,0,0,71,50.677V36a3.376,3.376,0,0,0-4.647-3.139,3.357,3.357,0,0,0-5.514-1.626,3.283,3.283,0,0,0-3.387-.673V25.47c.409-.184.866-.411,1.331-.65l2.658,1.515,4.411-4.412-1.525-2.67c.117-.255.226-.514.323-.773l2.964-.811V11.429l-2.964-.811c-.1-.26-.205-.518-.323-.773l1.525-2.67L61.44,2.762,58.768,4.287c-.256-.117-.514-.226-.772-.323L57.185,1h-6.24l-.811,2.964c-.259.1-.517.2-.773.323L46.69,2.762,42.279,7.175,43.8,9.845c-.117.255-.226.514-.323.773l-2.965.811v1.99H33.742a3.391,3.391,0,0,0-3.387,3.387v2.325a9.6,9.6,0,0,0-2.258,0V13.419a3.391,3.391,0,0,0-3.387-3.387H21.256a10.161,10.161,0,1,0,0,2.258H24.71a1.13,1.13,0,0,1,1.129,1.129v6.238a10.2,10.2,0,0,0-5.056,3.923H6.645A5.652,5.652,0,0,0,1,29.226V51.806a5.652,5.652,0,0,0,5.645,5.645h9.032V59.71H14.548a4.521,4.521,0,0,0-4.516,4.516,2.26,2.26,0,0,0,2.258,2.258H37.129a2.26,2.26,0,0,0,2.258-2.258,4.521,4.521,0,0,0-4.516-4.516H33.742V57.452h9.032a5.59,5.59,0,0,0,3.7-1.418l.816,1.678v2H45.032V71H69.871V59.71H67.613V57.828ZM6.282,17.366a5.634,5.634,0,0,1,9.759,0,7.86,7.86,0,0,1-9.759,0ZM8.9,10.032a2.258,2.258,0,1,1,2.258,2.258A2.26,2.26,0,0,1,8.9,10.032Zm8.726,5.656a7.838,7.838,0,0,0-3.12-2.654,4.516,4.516,0,1,0-6.7,0,7.838,7.838,0,0,0-3.12,2.654,7.9,7.9,0,1,1,12.936,0ZM39.868,37.015l1.162,1.743a5.026,5.026,0,0,1,.615,1.32v10.6H7.774V30.355H19.131a10.157,10.157,0,0,0,20.189,0h2.325v2.277a2.86,2.86,0,0,0-1.777,4.383ZM26.968,28.1a2.258,2.258,0,1,1,2.258,2.258A2.26,2.26,0,0,1,26.968,28.1Zm2.258,4.516a5.615,5.615,0,0,1,4.88,2.818,7.86,7.86,0,0,1-9.759,0,5.615,5.615,0,0,1,4.88-2.818ZM41.645,28.1H39.32a10.089,10.089,0,0,0-.526-2.258h3.98a3.391,3.391,0,0,1,3.387,3.387v4.513a7.233,7.233,0,0,0-2.258-.957V30.355A2.26,2.26,0,0,0,41.645,28.1Zm5.712-2.143,1.99-1.135c.453.235.916.463,1.331.65V41.661a3.386,3.386,0,0,1-.345,1.489l-.947-4.735A7.241,7.241,0,0,0,48.418,36h0V29.226a5.6,5.6,0,0,0-1.062-3.272Zm4.015-7.793a4.515,4.515,0,1,1,5.385,0,3.352,3.352,0,0,0-5.385,0Zm-8.6-5.01,2.476-.677.182-.593a9.041,9.041,0,0,1,.646-1.546l.291-.549L45.093,7.553l1.975-1.976L49.3,6.852l.549-.29A8.89,8.89,0,0,1,51.4,5.917l.592-.183.68-2.476h2.792l.679,2.476.592.183a9.039,9.039,0,0,1,1.548.646l.548.289,2.234-1.275,1.975,1.976L61.76,9.787l.291.549a8.951,8.951,0,0,1,.646,1.546l.182.593,2.476.677v2.793l-2.476.677-.182.593a9.041,9.041,0,0,1-.646,1.546l-.291.549,1.276,2.234L61.061,23.52l-2.234-1.275-.548.289c-.3.16-.578.3-.826.429V20.4a6.774,6.774,0,1,0-6.774,0v2.558c-.24-.122-.509-.261-.825-.428l-.549-.29L47.07,23.52,45.1,21.544l1.276-2.234-.291-.549a8.951,8.951,0,0,1-.646-1.546l-.182-.593-2.478-.677ZM32.613,16.806a1.13,1.13,0,0,1,1.129-1.129h6.774v1.99l2.964.811c.1.26.205.518.323.773l-1.525,2.67,1.837,1.837a5.583,5.583,0,0,0-1.34-.178H37.669a10.2,10.2,0,0,0-5.056-3.923Zm-3.387,4.516a7.893,7.893,0,0,1,6.468,12.431,7.838,7.838,0,0,0-3.12-2.654,4.516,4.516,0,1,0-6.7,0,7.838,7.838,0,0,0-3.12,2.654,7.893,7.893,0,0,1,6.468-12.431Zm7.9,42.9-24.839,0v0a2.26,2.26,0,0,1,2.258-2.258H34.871A2.26,2.26,0,0,1,37.129,64.226ZM31.484,59.71H17.935V57.452H31.484Zm11.29-4.516H6.645a3.391,3.391,0,0,1-3.387-3.387V29.226a3.391,3.391,0,0,1,3.387-3.387H19.657a10.028,10.028,0,0,0-.526,2.258H7.774a2.26,2.26,0,0,0-2.258,2.258V50.677a2.26,2.26,0,0,0,2.258,2.258H41.645a2.258,2.258,0,0,0,2.252-2.2l1.515,3.116a3.343,3.343,0,0,1-2.639,1.342ZM67.613,68.742H47.29V61.968H67.613ZM49.548,59.71V57.192l-3.992-8.2a5.575,5.575,0,0,1-.7-2.1l-.781-6.248a7.293,7.293,0,0,0-1.165-3.133l-1.163-1.744a.6.6,0,0,1,.5-.939,5.034,5.034,0,0,1,4.921,4.034l1.452,7.256h2.753l.964-1.93a5.676,5.676,0,0,0,.6-2.523V20.194a1.129,1.129,0,0,1,2.258,0V38.258h2.258V33.742a1.129,1.129,0,1,1,2.258,0v4.516h2.258V33.742a1.129,1.129,0,1,1,2.258,0v4.516h2.258V36a1.129,1.129,0,1,1,2.258,0V50.677a5.677,5.677,0,0,1-1.129,3.387l-2.258,3.011V59.71Z" fill="#0c5e46"/>
      <path id="Trazado_612723" data-name="Trazado 612723" d="M33.839,38.032H31.581v4.516H29.323V40.29H27.065v2.258H24.806V38.032H22.548v4.516H20.29V33.516H18.032v9.032H15.774V31.258H13.516v11.29H11.258V29H9V44.806H36.1V42.548H33.839Z" transform="translate(1.032 3.613)" fill="#0c5e46"/>
    </g>
  </g>
</svg>
