<svg xmlns="http://www.w3.org/2000/svg" width="141" height="141" viewBox="0 0 141 141">
  <g id="Grupo_1077075" data-name="Grupo 1077075" transform="translate(-730 -8147.437)">
    <g id="Grupo_1076901" data-name="Grupo 1076901" transform="translate(461 7189.437)">
      <circle id="Elipse_5614" data-name="Elipse 5614" cx="70.5" cy="70.5" r="70.5" transform="translate(269 958)" fill="#fff"/>
    </g>
    <g id="Layer_23" transform="translate(741.604 8168.48)">
      <g id="Grupo_1076988" data-name="Grupo 1076988" transform="translate(13.626 -2.725)">
        <g id="Grupo_1076905" data-name="Grupo 1076905" transform="translate(35.54 0)">
          <g id="Grupo_1076904" data-name="Grupo 1076904">
            <circle id="Elipse_5704" data-name="Elipse 5704" cx="6.548" cy="6.548" r="6.548" transform="translate(0 12.101) rotate(-67.486)" fill="#0c5e46"/>
          </g>
        </g>
        <g id="Grupo_1076907" data-name="Grupo 1076907" transform="translate(71.77 20.913)">
          <g id="Grupo_1076906" data-name="Grupo 1076906">
            <circle id="Elipse_5705" data-name="Elipse 5705" cx="6.548" cy="6.548" r="6.548" transform="translate(0 12.101) rotate(-67.486)" fill="#d2e1f1"/>
          </g>
        </g>
        <g id="Grupo_1076909" data-name="Grupo 1076909" transform="translate(71.022 62.036)">
          <g id="Grupo_1076908" data-name="Grupo 1076908" transform="translate(0 0)">
            <circle id="Elipse_5706" data-name="Elipse 5706" cx="6.548" cy="6.548" r="6.548" transform="translate(0 9.259) rotate(-45)" fill="#03386e"/>
          </g>
        </g>
        <g id="Grupo_1076911" data-name="Grupo 1076911" transform="translate(0.346 21.962)">
          <g id="Grupo_1076910" data-name="Grupo 1076910" transform="translate(0 0)">
            <circle id="Elipse_5707" data-name="Elipse 5707" cx="6.548" cy="6.548" r="6.548" transform="matrix(0.987, -0.16, 0.16, 0.987, 0, 2.095)" fill="#6debff"/>
          </g>
        </g>
        <g id="Grupo_1076913" data-name="Grupo 1076913" transform="translate(34.807 82.939)">
          <g id="Grupo_1076912" data-name="Grupo 1076912" transform="translate(0 0)">
            <circle id="Elipse_5708" data-name="Elipse 5708" cx="6.548" cy="6.548" r="6.548" transform="translate(0 9.259) rotate(-45)" fill="#dadddf"/>
          </g>
        </g>
        <g id="Grupo_1076915" data-name="Grupo 1076915" transform="translate(0 63.395)">
          <g id="Grupo_1076914" data-name="Grupo 1076914" transform="translate(0 0)">
            <circle id="Elipse_5709" data-name="Elipse 5709" cx="6.548" cy="6.548" r="6.548" transform="translate(0 3.012) rotate(-13.3)" fill="#e1fbff"/>
          </g>
        </g>
        <g id="Grupo_1076917" data-name="Grupo 1076917" transform="translate(23.076 22.633)">
          <g id="Grupo_1076916" data-name="Grupo 1076916">
            <path id="Trazado_613612" data-name="Trazado 613612" d="M113.366,56H75.643A2.149,2.149,0,0,0,73.5,58.143v51.213a2.149,2.149,0,0,0,2.143,2.143h37.723a2.149,2.149,0,0,0,2.143-2.143V58.143A2.149,2.149,0,0,0,113.366,56Z" transform="translate(-73.5 -56)" fill="#edf4fc"/>
          </g>
        </g>
        <g id="Grupo_1076919" data-name="Grupo 1076919" transform="translate(23.076 22.633)">
          <g id="Grupo_1076918" data-name="Grupo 1076918">
            <path id="Trazado_613613" data-name="Trazado 613613" d="M113.366,56H75.643A2.149,2.149,0,0,0,73.5,58.143V61.01h42.009V58.143A2.149,2.149,0,0,0,113.366,56Z" transform="translate(-73.5 -56)" fill="#5290db"/>
          </g>
        </g>
        <g id="Grupo_1076921" data-name="Grupo 1076921" transform="translate(29.389 35.69)">
          <g id="Grupo_1076920" data-name="Grupo 1076920">
            <path id="Trazado_613614" data-name="Trazado 613614" d="M118.929,102.362h-2.9a.337.337,0,0,1-.328-.266,11.333,11.333,0,0,0-1.509-3.641.337.337,0,0,1,.044-.42l2.054-2.054a.335.335,0,0,0,0-.474l-2.649-2.649a.335.335,0,0,0-.474,0l-2.054,2.054a.337.337,0,0,1-.42.044,11.329,11.329,0,0,0-3.641-1.509.337.337,0,0,1-.266-.328v-2.9a.335.335,0,0,0-.335-.335H102.7a.335.335,0,0,0-.335.335v2.9a.337.337,0,0,1-.266.328,11.33,11.33,0,0,0-3.641,1.509.337.337,0,0,1-.42-.044l-2.054-2.054a.335.335,0,0,0-.474,0l-2.649,2.649a.335.335,0,0,0,0,.474l2.054,2.054a.337.337,0,0,1,.044.42,11.329,11.329,0,0,0-1.509,3.641.337.337,0,0,1-.328.266h-2.9a.335.335,0,0,0-.335.335v3.746a.335.335,0,0,0,.335.335h2.9a.337.337,0,0,1,.328.266,11.329,11.329,0,0,0,1.509,3.641.337.337,0,0,1-.044.42l-2.054,2.054a.335.335,0,0,0,0,.474l2.649,2.649a.335.335,0,0,0,.474,0l2.054-2.054a.337.337,0,0,1,.42-.044A11.329,11.329,0,0,0,102.1,115.7a.337.337,0,0,1,.266.328v2.9a.335.335,0,0,0,.335.335h3.746a.335.335,0,0,0,.335-.335v-2.9a.337.337,0,0,1,.266-.328,11.33,11.33,0,0,0,3.641-1.509.337.337,0,0,1,.42.044l2.054,2.054a.335.335,0,0,0,.474,0l2.649-2.649a.335.335,0,0,0,0-.474l-2.054-2.054a.337.337,0,0,1-.044-.42,11.329,11.329,0,0,0,1.509-3.641.337.337,0,0,1,.328-.266h2.9a.335.335,0,0,0,.335-.335V102.7A.335.335,0,0,0,118.929,102.362Z" transform="translate(-89.881 -89.879)" fill="#6debff"/>
          </g>
        </g>
        <g id="Grupo_1076934" data-name="Grupo 1076934" transform="translate(36.57 1.05)">
          <g id="Grupo_1076933" data-name="Grupo 1076933">
            <g id="Grupo_1076932" data-name="Grupo 1076932">
              <path id="Trazado_613620" data-name="Trazado 613620" d="M116.025,0a7.512,7.512,0,1,0,7.512,7.512A7.52,7.52,0,0,0,116.025,0Zm0,13.1a5.585,5.585,0,1,1,5.585-5.585A5.591,5.591,0,0,1,116.025,13.1Z" transform="translate(-108.513)"/>
            </g>
          </g>
        </g>
        <g id="Grupo_1076936" data-name="Grupo 1076936" transform="translate(41.539 6.904)">
          <g id="Grupo_1076935" data-name="Grupo 1076935" transform="translate(0 0)">
            <path id="Trazado_613621" data-name="Trazado 613621" d="M126.594,15.471a.963.963,0,0,0-1.362,0l-1.5,1.5-.681-.681a.963.963,0,0,0-1.362,1.362l1.363,1.363a.964.964,0,0,0,1.363,0l2.18-2.18A.963.963,0,0,0,126.594,15.471Z" transform="translate(-121.406 -15.189)"/>
          </g>
        </g>
        <g id="Grupo_1076939" data-name="Grupo 1076939" transform="translate(72.786 21.962)">
          <g id="Grupo_1076938" data-name="Grupo 1076938" transform="translate(0 0)">
            <g id="Grupo_1076937" data-name="Grupo 1076937">
              <path id="Trazado_613622" data-name="Trazado 613622" d="M209.995,54.258a7.512,7.512,0,1,0,7.512,7.512A7.52,7.52,0,0,0,209.995,54.258Zm0,13.1a5.585,5.585,0,1,1,5.585-5.585A5.591,5.591,0,0,1,209.995,67.354Z" transform="translate(-202.483 -54.258)"/>
            </g>
          </g>
        </g>
        <g id="Grupo_1076941" data-name="Grupo 1076941" transform="translate(77.755 27.815)">
          <g id="Grupo_1076940" data-name="Grupo 1076940">
            <path id="Trazado_613623" data-name="Trazado 613623" d="M220.563,69.729a.963.963,0,0,0-1.362,0l-1.5,1.5-.681-.681a.964.964,0,1,0-1.362,1.363l1.362,1.363a.964.964,0,0,0,1.363,0l2.18-2.18A.964.964,0,0,0,220.563,69.729Z" transform="translate(-215.375 -69.446)"/>
          </g>
        </g>
        <g id="Grupo_1076944" data-name="Grupo 1076944" transform="translate(72.786 63.782)">
          <g id="Grupo_1076943" data-name="Grupo 1076943">
            <g id="Grupo_1076942" data-name="Grupo 1076942">
              <path id="Trazado_613624" data-name="Trazado 613624" d="M209.995,162.768a7.512,7.512,0,1,0,7.512,7.512A7.52,7.52,0,0,0,209.995,162.768Zm0,13.1a5.585,5.585,0,1,1,5.585-5.585A5.591,5.591,0,0,1,209.995,175.864Z" transform="translate(-202.483 -162.768)"/>
            </g>
          </g>
        </g>
        <g id="Grupo_1076946" data-name="Grupo 1076946" transform="translate(77.755 69.635)">
          <g id="Grupo_1076945" data-name="Grupo 1076945">
            <path id="Trazado_613625" data-name="Trazado 613625" d="M220.563,178.239a.963.963,0,0,0-1.362,0l-1.5,1.5-.681-.681a.963.963,0,1,0-1.362,1.363l1.362,1.363a.964.964,0,0,0,1.363,0l2.18-2.18A.964.964,0,0,0,220.563,178.239Z" transform="translate(-215.375 -177.956)"/>
          </g>
        </g>
        <g id="Grupo_1076949" data-name="Grupo 1076949" transform="translate(0.352 21.962)">
          <g id="Grupo_1076948" data-name="Grupo 1076948" transform="translate(0 0)">
            <g id="Grupo_1076947" data-name="Grupo 1076947">
              <path id="Trazado_613626" data-name="Trazado 613626" d="M22.05,54.258a7.512,7.512,0,1,0,7.512,7.512A7.52,7.52,0,0,0,22.05,54.258Zm0,13.1a5.585,5.585,0,1,1,5.585-5.585A5.591,5.591,0,0,1,22.05,67.354Z" transform="translate(-14.538 -54.258)"/>
            </g>
          </g>
        </g>
        <g id="Grupo_1076951" data-name="Grupo 1076951" transform="translate(5.321 27.815)">
          <g id="Grupo_1076950" data-name="Grupo 1076950">
            <path id="Trazado_613627" data-name="Trazado 613627" d="M32.619,69.729a.964.964,0,0,0-1.363,0l-1.5,1.5-.681-.681a.963.963,0,1,0-1.362,1.362l1.363,1.363a.964.964,0,0,0,1.363,0l2.18-2.18a.964.964,0,0,0,0-1.362Z" transform="translate(-27.431 -69.447)"/>
          </g>
        </g>
        <g id="Grupo_1076954" data-name="Grupo 1076954" transform="translate(36.57 84.691)">
          <g id="Grupo_1076953" data-name="Grupo 1076953" transform="translate(0 0)">
            <g id="Grupo_1076952" data-name="Grupo 1076952">
              <path id="Trazado_613628" data-name="Trazado 613628" d="M116.025,217.02a7.512,7.512,0,1,0,7.512,7.512A7.52,7.52,0,0,0,116.025,217.02Zm0,13.1a5.585,5.585,0,1,1,5.585-5.585A5.591,5.591,0,0,1,116.025,230.116Z" transform="translate(-108.513 -217.02)"/>
            </g>
          </g>
        </g>
        <g id="Grupo_1076956" data-name="Grupo 1076956" transform="translate(41.539 90.545)">
          <g id="Grupo_1076955" data-name="Grupo 1076955">
            <path id="Trazado_613629" data-name="Trazado 613629" d="M126.594,232.491a.964.964,0,0,0-1.362,0l-1.5,1.5-.681-.681a.963.963,0,0,0-1.362,1.362l1.363,1.363a.964.964,0,0,0,1.363,0l2.18-2.18A.963.963,0,0,0,126.594,232.491Z" transform="translate(-121.406 -232.209)"/>
          </g>
        </g>
        <g id="Grupo_1076959" data-name="Grupo 1076959" transform="translate(0.352 63.782)">
          <g id="Grupo_1076958" data-name="Grupo 1076958">
            <g id="Grupo_1076957" data-name="Grupo 1076957">
              <path id="Trazado_613630" data-name="Trazado 613630" d="M22.05,162.768a7.512,7.512,0,1,0,7.512,7.512A7.52,7.52,0,0,0,22.05,162.768Zm0,13.1a5.585,5.585,0,1,1,5.585-5.585A5.591,5.591,0,0,1,22.05,175.864Z" transform="translate(-14.538 -162.768)"/>
            </g>
          </g>
        </g>
        <g id="Grupo_1076961" data-name="Grupo 1076961" transform="translate(5.321 69.635)">
          <g id="Grupo_1076960" data-name="Grupo 1076960">
            <path id="Trazado_613631" data-name="Trazado 613631" d="M32.619,178.238a.964.964,0,0,0-1.363,0l-1.5,1.5-.681-.681a.963.963,0,1,0-1.362,1.362l1.363,1.363a.964.964,0,0,0,1.363,0l2.18-2.18A.964.964,0,0,0,32.619,178.238Z" transform="translate(-27.431 -177.956)"/>
          </g>
        </g>
        <g id="Grupo_1076963" data-name="Grupo 1076963" transform="translate(10.482 7.623)">
          <g id="Grupo_1076962" data-name="Grupo 1076962">
            <path id="Trazado_613632" data-name="Trazado 613632" d="M68.248,17.857a.963.963,0,0,0-1.111-.789A43.343,43.343,0,0,0,41.046,32.139a.964.964,0,0,0,1.483,1.231,41.415,41.415,0,0,1,24.93-14.4.964.964,0,0,0,.789-1.111Z" transform="translate(-40.824 -17.054)"/>
          </g>
        </g>
        <g id="Grupo_1076965" data-name="Grupo 1076965" transform="translate(50.243 7.623)">
          <g id="Grupo_1076964" data-name="Grupo 1076964">
            <path id="Trazado_613633" data-name="Trazado 613633" d="M171.205,32.139a43.343,43.343,0,0,0-26.09-15.07.964.964,0,1,0-.321,1.9,41.417,41.417,0,0,1,24.929,14.4.964.964,0,1,0,1.483-1.231Z" transform="translate(-143.99 -17.055)"/>
          </g>
        </g>
        <g id="Grupo_1076967" data-name="Grupo 1076967" transform="translate(82.878 34.683)">
          <g id="Grupo_1076966" data-name="Grupo 1076966">
            <path id="Trazado_613634" data-name="Trazado 613634" d="M230.536,87.894a.963.963,0,1,0-1.807.67,41.588,41.588,0,0,1,0,28.8.963.963,0,1,0,1.807.67,43.514,43.514,0,0,0,0-30.144Z" transform="translate(-228.668 -87.265)"/>
          </g>
        </g>
        <g id="Grupo_1076969" data-name="Grupo 1076969" transform="translate(50.242 76.48)">
          <g id="Grupo_1076968" data-name="Grupo 1076968">
            <path id="Trazado_613635" data-name="Trazado 613635" d="M171.077,195.937a.963.963,0,0,0-1.357.126,41.419,41.419,0,0,1-24.928,14.4.963.963,0,1,0,.321,1.9A43.345,43.345,0,0,0,171.2,197.294.963.963,0,0,0,171.077,195.937Z" transform="translate(-143.989 -195.715)"/>
          </g>
        </g>
        <g id="Grupo_1076971" data-name="Grupo 1076971" transform="translate(10.483 76.479)">
          <g id="Grupo_1076970" data-name="Grupo 1076970">
            <path id="Trazado_613636" data-name="Trazado 613636" d="M67.46,210.461a41.416,41.416,0,0,1-24.929-14.4.964.964,0,0,0-1.483,1.231,43.345,43.345,0,0,0,26.09,15.069.964.964,0,1,0,.321-1.9Z" transform="translate(-40.826 -195.713)"/>
          </g>
        </g>
        <g id="Grupo_1076973" data-name="Grupo 1076973" transform="translate(0.724 34.683)">
          <g id="Grupo_1076972" data-name="Grupo 1076972">
            <path id="Trazado_613637" data-name="Trazado 613637" d="M20,117.368a41.587,41.587,0,0,1,0-28.8A.963.963,0,0,0,18.2,87.9a43.517,43.517,0,0,0,0,30.142.964.964,0,1,0,1.807-.67Z" transform="translate(-15.503 -87.267)"/>
          </g>
        </g>
        <g id="Grupo_1076976" data-name="Grupo 1076976" transform="translate(22.112 21.669)">
          <g id="Grupo_1076975" data-name="Grupo 1076975">
            <g id="Grupo_1076974" data-name="Grupo 1076974">
              <path id="Trazado_613638" data-name="Trazado 613638" d="M111.83,53.5H74.106A3.11,3.11,0,0,0,71,56.606v51.213a3.11,3.11,0,0,0,3.106,3.106H111.83a3.11,3.11,0,0,0,3.106-3.106V56.606A3.11,3.11,0,0,0,111.83,53.5Zm1.179,54.319A1.18,1.18,0,0,1,111.83,109H74.106a1.181,1.181,0,0,1-1.179-1.179V56.606a1.181,1.181,0,0,1,1.179-1.179H111.83a1.181,1.181,0,0,1,1.179,1.179Z" transform="translate(-71 -53.5)"/>
            </g>
          </g>
        </g>
        <g id="Grupo_1076978" data-name="Grupo 1076978" transform="translate(46.885 46.523)">
          <g id="Grupo_1076977" data-name="Grupo 1076977">
            <path id="Trazado_613639" data-name="Trazado 613639" d="M139.818,121.164l-2.9-2.9a.963.963,0,0,0-1.362,1.362l2.214,2.214-2.214,2.214a.963.963,0,0,0,1.363,1.362l2.9-2.9A.963.963,0,0,0,139.818,121.164Z" transform="translate(-135.277 -117.986)"/>
          </g>
        </g>
        <g id="Grupo_1076980" data-name="Grupo 1076980" transform="translate(36.453 46.523)">
          <g id="Grupo_1076979" data-name="Grupo 1076979">
            <path id="Trazado_613640" data-name="Trazado 613640" d="M110.536,121.846l2.214-2.214a.963.963,0,0,0-1.362-1.362l-2.9,2.9a.963.963,0,0,0,0,1.362l2.9,2.9a.963.963,0,0,0,1.363-1.362Z" transform="translate(-108.21 -117.987)"/>
          </g>
        </g>
        <g id="Grupo_1076982" data-name="Grupo 1076982" transform="translate(42.093 45.908)">
          <g id="Grupo_1076981" data-name="Grupo 1076981">
            <path id="Trazado_613641" data-name="Trazado 613641" d="M126.123,116.431a.962.962,0,0,0-1.195.655l-2.048,7.02a.964.964,0,1,0,1.85.54l2.048-7.02a.964.964,0,0,0-.655-1.2Z" transform="translate(-122.842 -116.392)"/>
          </g>
        </g>
        <g id="Grupo_1076984" data-name="Grupo 1076984" transform="translate(22.498 26.68)">
          <g id="Grupo_1076983" data-name="Grupo 1076983">
            <path id="Trazado_613642" data-name="Trazado 613642" d="M114.29,66.5H72.964a.964.964,0,1,0,0,1.927H114.29a.964.964,0,1,0,0-1.927Z" transform="translate(-72 -66.5)"/>
          </g>
        </g>
        <g id="Grupo_1076987" data-name="Grupo 1076987" transform="translate(28.424 34.727)">
          <g id="Grupo_1076986" data-name="Grupo 1076986">
            <g id="Grupo_1076985" data-name="Grupo 1076985">
              <path id="Trazado_613643" data-name="Trazado 613643" d="M117.391,99.863h-2.41a12.226,12.226,0,0,0-1.256-3.032l1.7-1.7a1.3,1.3,0,0,0,0-1.837l-2.65-2.65a1.3,1.3,0,0,0-1.836,0l-1.7,1.7a12.23,12.23,0,0,0-3.032-1.256v-2.41a1.3,1.3,0,0,0-1.3-1.3H101.16a1.3,1.3,0,0,0-1.3,1.3v2.41a12.253,12.253,0,0,0-3.032,1.256l-1.7-1.7a1.3,1.3,0,0,0-1.837,0L90.639,93.29a1.3,1.3,0,0,0,0,1.837l1.7,1.7a12.239,12.239,0,0,0-1.256,3.032h-2.41a1.3,1.3,0,0,0-1.3,1.3v3.747a1.3,1.3,0,0,0,1.3,1.3h2.41a12.253,12.253,0,0,0,1.256,3.032l-1.7,1.7a1.3,1.3,0,0,0,0,1.837l2.649,2.649a1.3,1.3,0,0,0,1.837,0l1.7-1.7a12.239,12.239,0,0,0,3.032,1.256v2.41a1.3,1.3,0,0,0,1.3,1.3h3.747a1.3,1.3,0,0,0,1.3-1.3v-2.41a12.23,12.23,0,0,0,3.032-1.256l1.7,1.7a1.3,1.3,0,0,0,1.837,0l2.649-2.649a1.3,1.3,0,0,0,0-1.837l-1.7-1.7a12.238,12.238,0,0,0,1.256-3.032h2.41a1.3,1.3,0,0,0,1.3-1.3v-3.747A1.3,1.3,0,0,0,117.391,99.863Zm-.628,4.417h-2.276a1.293,1.293,0,0,0-1.269,1.022,10.334,10.334,0,0,1-1.381,3.332,1.293,1.293,0,0,0,.175,1.618l1.61,1.61-1.761,1.761-1.61-1.61a1.293,1.293,0,0,0-1.619-.175,10.35,10.35,0,0,1-3.332,1.381,1.293,1.293,0,0,0-1.021,1.268v2.276h-2.49v-2.276a1.294,1.294,0,0,0-1.021-1.268,10.349,10.349,0,0,1-3.332-1.381,1.293,1.293,0,0,0-1.619.175l-1.61,1.61-1.761-1.761,1.61-1.61a1.293,1.293,0,0,0,.175-1.619A10.354,10.354,0,0,1,92.85,105.3a1.293,1.293,0,0,0-1.268-1.02H89.305v-2.49h2.276a1.294,1.294,0,0,0,1.268-1.021,10.349,10.349,0,0,1,1.381-3.332,1.293,1.293,0,0,0-.175-1.619l-1.61-1.61,1.761-1.761,1.61,1.61a1.293,1.293,0,0,0,1.619.175,10.354,10.354,0,0,1,3.333-1.381,1.293,1.293,0,0,0,1.02-1.268V89.307h2.49v2.276a1.294,1.294,0,0,0,1.022,1.268,10.353,10.353,0,0,1,3.331,1.38,1.293,1.293,0,0,0,1.619-.175l1.61-1.61,1.761,1.761-1.61,1.61a1.294,1.294,0,0,0-.175,1.619,10.332,10.332,0,0,1,1.381,3.331,1.292,1.292,0,0,0,1.268,1.021h2.276v2.49Z" transform="translate(-87.378 -87.38)"/>
            </g>
          </g>
        </g>
      </g>
    </g>
  </g>
</svg>
