<svg id="Grupo_1076407" data-name="Grupo 1076407" xmlns="http://www.w3.org/2000/svg" xmlns:xlink="http://www.w3.org/1999/xlink" width="268.381" height="260.838" viewBox="0 0 268.381 260.838">
  <defs>
    <clipPath id="clip-path">
      <rect id="Rectángulo_380508" data-name="Rectángulo 380508" width="268.381" height="260.838" fill="none"/>
    </clipPath>
    <clipPath id="clip-path-4">
      <rect id="Rectángulo_380492" data-name="Rectángulo 380492" width="43.025" height="60.613" fill="none"/>
    </clipPath>
    <clipPath id="clip-path-5">
      <rect id="Rectángulo_380493" data-name="Rectángulo 380493" width="68.271" height="60.388" fill="#fff"/>
    </clipPath>
    <clipPath id="clip-path-6">
      <rect id="Rectángulo_380494" data-name="Rectángulo 380494" width="37.971" height="68.347" fill="none"/>
    </clipPath>
    <clipPath id="clip-path-7">
      <rect id="Rectángulo_380495" data-name="Rectángulo 380495" width="40.823" height="17.43" fill="none"/>
    </clipPath>
    <clipPath id="clip-path-8">
      <rect id="Rectángulo_380496" data-name="Rectángulo 380496" width="13.673" height="22.506" fill="none"/>
    </clipPath>
    <clipPath id="clip-path-9">
      <rect id="Rectángulo_380497" data-name="Rectángulo 380497" width="14.609" height="9.136" fill="none"/>
    </clipPath>
    <clipPath id="clip-path-10">
      <rect id="Rectángulo_380498" data-name="Rectángulo 380498" width="33.444" height="21.66" fill="none"/>
    </clipPath>
    <clipPath id="clip-path-11">
      <rect id="Rectángulo_380499" data-name="Rectángulo 380499" width="78.455" height="109.74" fill="none"/>
    </clipPath>
    <clipPath id="clip-path-12">
      <rect id="Rectángulo_380500" data-name="Rectángulo 380500" width="57.848" height="124.053" fill="none"/>
    </clipPath>
    <clipPath id="clip-path-13">
      <rect id="Rectángulo_380501" data-name="Rectángulo 380501" width="16.154" height="29.962" fill="none"/>
    </clipPath>
    <clipPath id="clip-path-14">
      <rect id="Rectángulo_380502" data-name="Rectángulo 380502" width="6.552" height="11.023" fill="none"/>
    </clipPath>
    <clipPath id="clip-path-15">
      <rect id="Rectángulo_380503" data-name="Rectángulo 380503" width="33.114" height="20.07" fill="none"/>
    </clipPath>
    <clipPath id="clip-path-16">
      <rect id="Rectángulo_380504" data-name="Rectángulo 380504" width="5.888" height="9.1" fill="none"/>
    </clipPath>
    <clipPath id="clip-path-17">
      <rect id="Rectángulo_380505" data-name="Rectángulo 380505" width="57.562" height="37.004" fill="none"/>
    </clipPath>
    <clipPath id="clip-path-18">
      <rect id="Rectángulo_380506" data-name="Rectángulo 380506" width="51.757" height="119.255" fill="none"/>
    </clipPath>
  </defs>
  <g id="Grupo_1076406" data-name="Grupo 1076406" clip-path="url(#clip-path)">
    <g id="Grupo_1076358" data-name="Grupo 1076358">
      <g id="Grupo_1076357" data-name="Grupo 1076357" clip-path="url(#clip-path)">
        <path id="Trazado_612767" data-name="Trazado 612767" d="M232.252,232.59l-67.867-.635-20.568-.1-5.592.012-1.455.019a3.25,3.25,0,0,0-.5.026,3.086,3.086,0,0,0,.5.031l1.454.034,5.592.068,20.567.108,67.87.042c26.49,0,50.477.031,67.842.157,8.682.061,15.709.141,20.566.232,2.428.045,4.313.093,5.592.141a10.52,10.52,0,0,1,1.949.144,10.65,10.65,0,0,1-1.951.124c-1.279.035-3.164.065-5.593.085-4.857.043-11.884.053-20.567.027-17.366-.048-41.352-.253-67.84-.52" transform="translate(-59.823 -101.782)" fill="#f5f5f5"/>
        <path id="Trazado_612768" data-name="Trazado 612768" d="M232.308,231.658l-66.94-10.882-20.3-3.2-5.527-.83-1.44-.2a3.068,3.068,0,0,0-.494-.048,3.053,3.053,0,0,0,.484.107l1.431.254,5.513.914,20.3,3.215,67.041,10.286c26.168,4,49.859,7.649,66.993,10.395,8.567,1.372,15.5,2.512,20.279,3.337,2.391.412,4.246.744,5.5.986a10.371,10.371,0,0,1,1.9.438,10.326,10.326,0,0,1-1.947-.169c-1.269-.158-3.137-.413-5.539-.758-4.8-.691-11.749-1.741-20.322-3.078-17.147-2.67-40.809-6.5-66.932-10.765" transform="translate(-60.406 -95.037)" fill="#f5f5f5"/>
        <path id="Trazado_612769" data-name="Trazado 612769" d="M232.555,230.553l-64.34-21-19.531-6.267-5.323-1.665-1.39-.417a3.065,3.065,0,0,0-.48-.123,2.955,2.955,0,0,0,.461.18l1.372.47,5.3,1.747,19.525,6.282,64.538,20.415c25.195,7.949,48,15.182,64.474,20.516,8.238,2.666,14.9,4.853,19.484,6.4,2.295.773,4.072,1.386,5.272,1.817a10.147,10.147,0,0,1,1.807.725,10.239,10.239,0,0,1-1.9-.465c-1.228-.35-3.031-.887-5.348-1.6-4.633-1.417-11.32-3.516-19.569-6.149-16.5-5.262-39.247-12.664-64.352-20.878" transform="translate(-62.112 -88.272)" fill="#f5f5f5"/>
        <path id="Trazado_612770" data-name="Trazado 612770" d="M232.975,229.5l-60.142-30.568-18.272-9.177-4.987-2.459-1.3-.625a3.119,3.119,0,0,0-.454-.2,3.027,3.027,0,0,0,.426.248l1.279.674,4.947,2.534,18.265,9.189,60.426,30.036c23.593,11.7,44.941,22.337,60.348,30.124,7.7,3.892,13.925,7.07,18.207,9.3,2.141,1.114,3.8,1.99,4.913,2.6a10.211,10.211,0,0,1,1.668.99,10.376,10.376,0,0,1-1.8-.751c-1.156-.534-2.849-1.341-5.022-2.4-4.346-2.108-10.609-5.206-18.33-9.067-15.443-7.72-36.708-18.507-60.171-30.455" transform="translate(-64.888 -81.859)" fill="#f5f5f5"/>
        <path id="Trazado_612771" data-name="Trazado 612771" d="M233.52,228.59l-54.487-39.33-16.571-11.84-4.53-3.187-1.188-.815a2.936,2.936,0,0,0-.417-.261,3.012,3.012,0,0,0,.381.309l1.155.859,4.479,3.254L178.9,189.43l54.853,38.846c21.42,15.145,40.8,28.89,54.761,38.922,6.983,5.014,12.616,9.1,16.487,11.95,1.936,1.426,3.431,2.543,4.434,3.313a10.071,10.071,0,0,1,1.488,1.232,10.247,10.247,0,0,1-1.653-1.014c-1.055-.7-2.6-1.757-4.575-3.128-3.953-2.742-9.641-6.753-16.646-11.739-14.011-9.97-33.28-23.856-54.534-39.222" transform="translate(-68.624 -76.012)" fill="#f5f5f5"/>
        <path id="Trazado_612772" data-name="Trazado 612772" d="M234.166,227.815l-47.53-47.087-14.475-14.2-3.965-3.833-1.043-.985a3.138,3.138,0,0,0-.37-.321,2.865,2.865,0,0,0,.327.363l1,1.023,3.9,3.892,14.465,14.21,47.968,46.666c18.736,18.2,35.676,34.706,47.865,46.727,6.1,6.01,11.007,10.895,14.374,14.3,1.684,1.7,2.982,3.031,3.85,3.943a9.93,9.93,0,0,1,1.273,1.442,10.092,10.092,0,0,1-1.471-1.252c-.93-.853-2.285-2.128-4.018-3.782-3.466-3.307-8.443-8.128-14.565-14.113-12.245-11.967-29.058-28.6-47.594-46.988" transform="translate(-73.215 -70.846)" fill="#f5f5f5"/>
        <path id="Trazado_612773" data-name="Trazado 612773" d="M234.93,227.148l-39.416-53.7-12.026-16.216-3.3-4.385-.873-1.131a2.9,2.9,0,0,0-.314-.373,2.946,2.946,0,0,0,.265.408l.827,1.163,3.233,4.434,12.015,16.224,39.916,53.348c15.6,20.81,29.688,39.676,39.805,53.393,5.06,6.857,9.129,12.426,11.911,16.3,1.391,1.935,2.461,3.445,3.173,4.477a9.811,9.811,0,0,1,1.027,1.617,9.961,9.961,0,0,1-1.252-1.459c-.783-.983-1.918-2.448-3.364-4.343-2.895-3.79-7.04-9.306-12.129-16.143-10.181-13.673-24.127-32.641-39.494-53.611" transform="translate(-78.577 -66.437)" fill="#f5f5f5"/>
        <path id="Trazado_612774" data-name="Trazado 612774" d="M235.846,226.573l-30.29-59.029-9.27-17.844-2.558-4.833-.68-1.249a2.863,2.863,0,0,0-.251-.416,2.78,2.78,0,0,0,.2.443l.629,1.275,2.479,4.871,9.257,17.85L236.2,226.4c12.057,22.923,22.941,43.7,30.728,58.785,3.895,7.542,7.017,13.66,9.142,17.9,1.063,2.122,1.876,3.776,2.412,4.9a9.708,9.708,0,0,1,.754,1.753,9.72,9.72,0,0,1-1-1.631c-.615-1.09-1.5-2.709-2.625-4.8-2.25-4.184-5.456-10.261-9.383-17.788-7.857-15.052-18.579-35.906-30.383-58.954" transform="translate(-84.634 -62.862)" fill="#f5f5f5"/>
        <path id="Trazado_612775" data-name="Trazado 612775" d="M236.909,226.117l-20.356-62.926c-2.642-8.027-4.781-14.526-6.266-19.039-.753-2.229-1.339-3.966-1.744-5.164l-.47-1.337a2.718,2.718,0,0,0-.181-.45,2.88,2.88,0,0,0,.122.468c.1.322.236.771.415,1.354.385,1.2.943,2.949,1.659,5.191l6.251,19.044c5.366,16.07,12.769,38.242,20.95,62.741,8.2,24.482,15.582,46.662,20.829,62.75,2.625,8.044,4.719,14.564,6.13,19.081.706,2.258,1.241,4.016,1.588,5.212a9.546,9.546,0,0,1,.46,1.847,9.6,9.6,0,0,1-.727-1.764c-.431-1.17-1.043-2.9-1.815-5.142-1.544-4.475-3.728-10.967-6.387-19-5.322-16.065-12.534-38.3-20.459-62.866" transform="translate(-91.261 -60.229)" fill="#f5f5f5"/>
        <path id="Trazado_612776" data-name="Trazado 612776" d="M238.03,225.829c-3.872-25.481-7.376-48.54-9.917-65.255l-3.105-19.76c-.383-2.318-.681-4.121-.886-5.366-.106-.6-.188-1.062-.247-1.393a2.856,2.856,0,0,0-.1-.472,2.91,2.91,0,0,0,.044.481l.191,1.4c.185,1.248.454,3.056.8,5.379.733,4.684,1.787,11.43,3.091,19.762,2.7,16.691,6.418,39.718,10.53,65.163,4.13,25.43,7.832,48.464,10.41,65.154,1.29,8.345,2.3,15.1,2.965,19.78.331,2.338.576,4.156.725,5.391a9.524,9.524,0,0,1,.155,1.894,9.64,9.64,0,0,1-.431-1.853c-.236-1.222-.56-3.028-.96-5.356-.8-4.656-1.905-11.4-3.231-19.741-2.655-16.679-6.179-39.739-10.029-65.211" transform="translate(-98.23 -58.64)" fill="#f5f5f5"/>
        <path id="Trazado_612777" data-name="Trazado 612777" d="M238.126,225.725c.238-25.756.454-49.065.611-65.96.036-8.428.066-15.251.087-19.989-.007-2.347-.013-4.173-.016-5.435-.009-.609-.016-1.078-.021-1.414a2.963,2.963,0,0,0-.027-.481,2.937,2.937,0,0,0-.032.481c-.008.336-.019.8-.034,1.413-.016,1.261-.038,3.087-.067,5.435-.023,4.738-.057,11.561-.1,19.989,0,16.9,0,40.2,0,65.962.019,25.745,0,49.058-.119,65.935-.057,8.439-.135,15.268-.226,19.987-.045,2.36-.093,4.192-.142,5.435a9.713,9.713,0,0,1-.146,1.9,9.713,9.713,0,0,1-.128-1.9c-.038-1.243-.068-3.076-.091-5.435-.047-4.72-.062-11.551-.041-19.989.039-16.878.236-40.19.494-65.934" transform="translate(-104.312 -58.141)" fill="#f5f5f5"/>
        <path id="Trazado_612778" data-name="Trazado 612778" d="M216,225.778l11.155-65.066c1.383-8.32,2.5-15.056,3.28-19.733l.851-5.372c.088-.6.155-1.066.2-1.4a2.838,2.838,0,0,0,.049-.48,2.885,2.885,0,0,0-.109.47c-.062.331-.149.792-.26,1.391l-.937,5.358c-.78,4.677-1.905,11.412-3.294,19.731-2.7,16.691-6.425,39.717-10.542,65.162-4.093,25.435-7.838,48.463-10.653,65.117-1.405,8.327-2.575,15.062-3.421,19.71-.422,2.324-.764,4.127-1.011,5.347a9.619,9.619,0,0,1-.449,1.849,9.51,9.51,0,0,1,.173-1.892c.162-1.234.423-3.049.776-5.384.708-4.67,1.784-11.42,3.155-19.752,2.737-16.667,6.66-39.666,11.034-65.057" transform="translate(-88.168 -58.704)" fill="#f5f5f5"/>
        <path id="Trazado_612779" data-name="Trazado 612779" d="M194.1,226.018l21.562-62.545,6.436-18.985,1.71-5.175.428-1.351a2.8,2.8,0,0,0,.126-.467,2.773,2.773,0,0,0-.185.448l-.483,1.334-1.794,5.147L215.448,163.4c-5.371,16.069-12.779,38.238-20.966,62.736-8.163,24.492-15.591,46.659-21.069,62.675-2.737,8.009-4.984,14.48-6.573,18.941-.794,2.231-1.423,3.959-1.865,5.125a9.581,9.581,0,0,1-.745,1.757,9.514,9.514,0,0,1,.477-1.842c.359-1.194.911-2.946,1.638-5.2,1.455-4.5,3.611-11,6.314-19.024,5.4-16.04,13.006-38.151,21.44-62.556" transform="translate(-72.09 -60.358)" fill="#f5f5f5"/>
        <path id="Trazado_612780" data-name="Trazado 612780" d="M173.33,226.426l31.414-58.472c3.976-7.49,7.2-13.554,9.43-17.764l2.527-4.848.642-1.268a2.933,2.933,0,0,0,.2-.442,2.9,2.9,0,0,0-.255.415l-.692,1.243-2.6,4.81-9.444,17.757L173.683,226.6c-12.029,22.937-22.955,43.692-30.957,58.67-4,7.49-7.266,13.538-9.556,17.7-1.144,2.081-2.045,3.692-2.67,4.777a9.858,9.858,0,0,1-1.018,1.622,9.719,9.719,0,0,1,.771-1.746c.548-1.124,1.378-2.77,2.461-4.882,2.167-4.224,5.349-10.314,9.318-17.82,7.933-15.013,19.019-35.688,31.3-58.5" transform="translate(-56.838 -63.052)" fill="#f5f5f5"/>
        <path id="Trazado_612781" data-name="Trazado 612781" d="M154.258,226.955l40.433-52.979c5.132-6.794,9.287-12.294,12.172-16.114l3.276-4.405.839-1.155a3.017,3.017,0,0,0,.269-.405,2.933,2.933,0,0,0-.318.37l-.884,1.123-3.345,4.355-12.184,16.1-39.935,53.335c-15.57,20.828-29.7,39.667-40.014,53.246-5.155,6.791-9.354,12.267-12.285,16.031-1.466,1.883-2.614,3.336-3.407,4.312a9.862,9.862,0,0,1-1.267,1.447,9.841,9.841,0,0,1,1.043-1.607c.721-1.027,1.806-2.526,3.215-4.449,2.82-3.844,6.943-9.375,12.069-16.185,10.25-13.623,24.525-32.36,40.322-53.025" transform="translate(-42.847 -66.68)" fill="#f5f5f5"/>
        <path id="Trazado_612782" data-name="Trazado 612782" d="M137.315,227.582l48.419-46.223,14.6-14.077,3.941-3.856,1.013-1.014a2.859,2.859,0,0,0,.33-.36,3.077,3.077,0,0,0-.373.319l-1.052.976-4,3.8-14.612,14.067L137.6,227.858c-18.714,18.221-35.687,34.695-48.048,46.549-6.179,5.928-11.2,10.7-14.7,13.979-1.749,1.638-3.116,2.9-4.054,3.745a10.08,10.08,0,0,1-1.483,1.238,9.939,9.939,0,0,1,1.288-1.43c.877-.9,2.188-2.222,3.888-3.908,3.4-3.371,8.359-8.211,14.512-14.165,12.306-11.908,29.4-28.258,48.317-46.285" transform="translate(-30.425 -71.138)" fill="#f5f5f5"/>
        <path id="Trazado_612783" data-name="Trazado 612783" d="M122.856,228.325l55.228-38.341,16.677-11.7,4.51-3.213,1.163-.849a2.861,2.861,0,0,0,.384-.306,3.219,3.219,0,0,0-.419.258l-1.2.805-4.561,3.145-16.686,11.687L123.09,228.64c-21.4,15.171-40.8,28.878-54.913,38.72-7.053,4.922-12.779,8.88-16.759,11.586-1.99,1.353-3.542,2.394-4.6,3.086a10.23,10.23,0,0,1-1.663,1,10.112,10.112,0,0,1,1.5-1.219c1.012-.761,2.517-1.865,4.467-3.272,3.9-2.816,9.57-6.848,16.6-11.8,14.061-9.9,33.57-23.47,55.136-38.417" transform="translate(-19.82 -76.346)" fill="#f5f5f5"/>
        <path id="Trazado_612784" data-name="Trazado 612784" d="M111.212,229.214l60.717-29.476,18.354-9.021,4.971-2.489,1.285-.662a2.907,2.907,0,0,0,.428-.244,3.081,3.081,0,0,0-.456.191l-1.311.613-5.01,2.413-18.361,9.007-60.437,30.015c-23.579,11.732-44.948,22.324-60.465,29.9-7.758,3.79-14.051,6.829-18.418,8.9-2.183,1.035-3.884,1.826-5.045,2.348a10.356,10.356,0,0,1-1.8.733,10.119,10.119,0,0,1,1.677-.976c1.121-.6,2.787-1.459,4.938-2.554,4.3-2.189,10.554-5.31,18.3-9.131,15.482-7.645,36.932-18.079,60.639-29.566" transform="translate(-11.265 -82.231)" fill="#f5f5f5"/>
        <path id="Trazado_612785" data-name="Trazado 612785" d="M102.7,230.247l64.733-19.824,19.586-6.1,5.312-1.7,1.376-.457a2.969,2.969,0,0,0,.462-.176,3.061,3.061,0,0,0-.481.118l-1.394.4-5.339,1.616-19.591,6.087-64.543,20.4c-25.184,7.982-48,15.174-64.552,20.284-8.274,2.556-14.981,4.6-19.628,5.969-2.324.687-4.131,1.209-5.363,1.547a10.256,10.256,0,0,1-1.9.448,10.256,10.256,0,0,1,1.814-.707c1.2-.42,2.987-1.015,5.29-1.768,4.6-1.5,11.282-3.63,19.546-6.219,16.526-5.182,39.4-12.207,64.671-19.924" transform="translate(-4.994 -88.669)" fill="#f5f5f5"/>
        <path id="Trazado_612786" data-name="Trazado 612786" d="M97.571,231.336l67.136-9.679,20.329-3.031,5.522-.864,1.433-.241a3.041,3.041,0,0,0,.485-.1,3.051,3.051,0,0,0-.495.043l-1.442.187-5.533.78-20.332,3.017L97.631,231.72c-26.162,4.03-49.86,7.643-67.032,10.158-8.586,1.259-15.539,2.247-20.35,2.894-2.406.323-4.276.562-5.546.707a10.365,10.365,0,0,1-1.949.153,10.37,10.37,0,0,1,1.906-.421c1.257-.23,3.115-.546,5.51-.936,4.79-.781,11.729-1.859,20.309-3.153,17.16-2.591,40.885-6.03,67.091-9.788" transform="translate(-1.209 -95.442)" fill="#f5f5f5"/>
        <path id="Trazado_612787" data-name="Trazado 612787" d="M95.951,231.512l67.868.553,20.568.072,5.592-.019,1.454-.021a3.1,3.1,0,0,0,.5-.027,3.3,3.3,0,0,0-.5-.03l-1.454-.032-5.592-.062-20.568-.084-67.87.039c-26.489.035-50.477.03-67.842-.074-8.682-.051-15.71-.122-20.566-.207-2.428-.043-4.314-.088-5.592-.135A10.57,10.57,0,0,1,0,231.343a10.608,10.608,0,0,1,1.951-.126c1.279-.037,3.164-.068,5.592-.092,4.857-.049,11.885-.067,20.568-.052,17.366.027,41.353.2,67.841.439" transform="translate(0 -101.434)" fill="#f5f5f5"/>
        <path id="Trazado_612788" data-name="Trazado 612788" d="M97.812,210.019l66.954,10.8,20.307,3.175,5.527.823,1.441.2a3.089,3.089,0,0,0,.494.047,3.006,3.006,0,0,0-.484-.106l-1.432-.252-5.513-.907-20.3-3.189L97.747,210.4c-26.173-3.962-49.869-7.587-67.006-10.312-8.57-1.361-15.5-2.493-20.283-3.312-2.392-.409-4.247-.739-5.5-.979a10.33,10.33,0,0,1-1.9-.436A10.344,10.344,0,0,1,5,195.532c1.27.156,3.138.41,5.54.752,4.806.684,11.751,1.726,20.326,3.052,17.15,2.65,40.817,6.448,66.946,10.683" transform="translate(-1.34 -85.754)" fill="#f5f5f5"/>
        <path id="Trazado_612789" data-name="Trazado 612789" d="M103.181,188.729l64.368,20.915,19.539,6.243,5.326,1.658,1.39.416a3.033,3.033,0,0,0,.48.122,2.924,2.924,0,0,0-.461-.18l-1.372-.468-5.3-1.74-19.533-6.258L103.055,189.1c-25.2-7.918-48.019-15.123-64.5-20.437-8.241-2.655-14.9-4.835-19.492-6.376-2.3-.77-4.075-1.381-5.275-1.81a10.14,10.14,0,0,1-1.808-.723,10.236,10.236,0,0,1,1.9.462c1.229.348,3.032.884,5.35,1.589,4.635,1.411,11.324,3.5,19.577,6.125,16.507,5.241,39.263,12.616,64.379,20.8" transform="translate(-5.258 -70.126)" fill="#f5f5f5"/>
        <path id="Trazado_612790" data-name="Trazado 612790" d="M111.928,168.538l60.182,30.494,18.284,9.154,4.991,2.453,1.3.624a3.12,3.12,0,0,0,.454.194,3.027,3.027,0,0,0-.426-.247l-1.28-.672-4.95-2.528-18.278-9.166-60.465-29.962c-23.608-11.676-44.97-22.282-60.386-30.05-7.71-3.883-13.933-7.053-18.219-9.276-2.143-1.111-3.8-1.985-4.916-2.592a10.147,10.147,0,0,1-1.67-.989,10.365,10.365,0,0,1,1.8.749c1.156.532,2.85,1.337,5.025,2.389,4.348,2.1,10.615,5.192,18.341,9.044,15.452,7.7,36.731,18.462,60.21,30.381" transform="translate(-11.657 -55.299)" fill="#f5f5f5"/>
        <path id="Trazado_612791" data-name="Trazado 612791" d="M123.783,149.994l54.537,39.263,16.587,11.82,4.534,3.182,1.189.814a2.975,2.975,0,0,0,.417.261,2.975,2.975,0,0,0-.382-.309l-1.156-.858-4.483-3.249-16.578-11.83-54.9-38.779c-21.44-15.119-40.833-28.84-54.811-38.855-6.99-5.006-12.628-9.083-16.5-11.93C50.3,98.1,48.8,96.984,47.794,96.215a10.033,10.033,0,0,1-1.49-1.23A10.279,10.279,0,0,1,47.959,96c1.056.7,2.6,1.754,4.579,3.123,3.956,2.738,9.65,6.742,16.661,11.72,14.024,9.953,33.311,23.815,54.584,39.155" transform="translate(-20.326 -41.695)" fill="#f5f5f5"/>
        <path id="Trazado_612792" data-name="Trazado 612792" d="M138.429,133.518l47.591,47.029,14.493,14.183,3.969,3.828,1.045.984a2.993,2.993,0,0,0,.37.321,2.966,2.966,0,0,0-.328-.362l-1-1.022-3.909-3.887L186.173,180.4l-48.028-46.607c-18.759-18.176-35.721-34.662-47.926-46.668-6.1-6-11.021-10.881-14.392-14.279-1.686-1.7-2.986-3.027-3.856-3.938a9.893,9.893,0,0,1-1.275-1.44,10.135,10.135,0,0,1,1.472,1.25c.932.852,2.288,2.126,4.023,3.777,3.47,3.3,8.454,8.118,14.583,14.1,12.261,11.953,29.095,28.561,47.655,46.93" transform="translate(-31.034 -29.615)" fill="#f5f5f5"/>
        <path id="Trazado_612793" data-name="Trazado 612793" d="M155.531,119.455l39.485,53.651,12.047,16.2,3.309,4.382.874,1.129a2.97,2.97,0,0,0,.315.374,2.883,2.883,0,0,0-.265-.408l-.829-1.162-3.239-4.43-12.036-16.21-39.985-53.3c-15.623-20.791-29.739-39.64-39.874-53.344-5.069-6.852-9.145-12.415-11.932-16.281-1.394-1.933-2.465-3.441-3.179-4.474a9.79,9.79,0,0,1-1.028-1.616,9.969,9.969,0,0,1,1.254,1.458c.784.982,1.92,2.445,3.37,4.339,2.9,3.787,7.051,9.3,12.149,16.128,10.2,13.66,24.17,32.611,39.564,53.563" transform="translate(-43.543 -19.301)" fill="#f5f5f5"/>
        <path id="Trazado_612794" data-name="Trazado 612794" d="M174.732,108.127,205.1,167.119l9.293,17.833,2.563,4.83.682,1.249a2.825,2.825,0,0,0,.251.416,2.9,2.9,0,0,0-.2-.443l-.631-1.274-2.486-4.869-9.28-17.839L174.375,108.3c-12.087-22.909-23-43.67-30.8-58.747-3.9-7.537-7.035-13.652-9.165-17.894-1.065-2.121-1.881-3.774-2.419-4.9a9.645,9.645,0,0,1-.756-1.753,9.807,9.807,0,0,1,1.005,1.63c.616,1.089,1.5,2.707,2.631,4.8,2.255,4.181,5.47,10.254,9.407,17.776,7.876,15.042,18.626,35.883,30.459,58.917" transform="translate(-57.606 -10.978)" fill="#f5f5f5"/>
        <path id="Trazado_612795" data-name="Trazado 612795" d="M195.592,99.838c7.981,24.562,15.2,46.789,20.438,62.9l6.291,19.031c.756,2.229,1.344,3.964,1.75,5.162l.471,1.337a2.8,2.8,0,0,0,.181.449,2.879,2.879,0,0,0-.122-.468c-.1-.322-.238-.771-.417-1.354l-1.666-5.188-6.276-19.036L195.211,99.957c-8.228-24.471-15.644-46.643-20.912-62.725-2.636-8.041-4.738-14.558-6.155-19.073-.709-2.258-1.246-4.015-1.595-5.211a9.555,9.555,0,0,1-.462-1.846,9.7,9.7,0,0,1,.729,1.763c.433,1.17,1.047,2.9,1.822,5.14,1.55,4.474,3.743,10.963,6.412,18.993,5.343,16.059,12.585,38.284,20.542,62.84" transform="translate(-72.906 -4.873)" fill="#f5f5f5"/>
        <path id="Trazado_612796" data-name="Trazado 612796" d="M217.535,94.842l10,65.243c1.32,8.33,2.389,15.073,3.132,19.756.385,2.317.685,4.12.892,5.365.107.6.19,1.062.249,1.393a2.864,2.864,0,0,0,.105.471,2.87,2.87,0,0,0-.045-.48l-.193-1.4c-.187-1.248-.458-3.055-.806-5.378-.739-4.683-1.8-11.427-3.116-19.759L217.139,94.9c-4.163-25.424-7.9-48.454-10.495-65.142-1.3-8.343-2.322-15.1-2.99-19.776-.334-2.338-.581-4.155-.732-5.39a9.6,9.6,0,0,1-.158-1.894,9.582,9.582,0,0,1,.434,1.853c.237,1.221.563,3.027.967,5.354.807,4.655,1.92,11.4,3.257,19.737,2.676,16.676,6.23,39.732,10.113,65.2" transform="translate(-89.002 -1.185)" fill="#f5f5f5"/>
        <path id="Trazado_612797" data-name="Trazado 612797" d="M239.316,93.254c-.206,25.757-.392,49.066-.526,65.961-.025,8.428-.046,15.251-.061,19.989.01,2.347.017,4.173.023,5.435.01.609.017,1.078.023,1.414a2.833,2.833,0,0,0,.028.481,3.1,3.1,0,0,0,.03-.481c.008-.336.019-.8.033-1.413.013-1.261.034-3.087.059-5.435.018-4.738.042-11.561.074-19.989-.022-16.9-.052-40.2-.084-65.962-.053-25.745-.062-49.058.033-65.936.046-8.438.116-15.268.2-19.987.043-2.36.088-4.192.135-5.435A9.68,9.68,0,0,1,239.428,0a9.781,9.781,0,0,1,.131,1.9c.039,1.243.072,3.076.1,5.436.053,4.72.076,11.55.066,19.989-.017,16.878-.183,40.191-.407,65.934" transform="translate(-104.798)" fill="#f5f5f5"/>
        <path id="Trazado_612798" data-name="Trazado 612798" d="M238.37,95.049c-4.322,25.413-8.234,48.41-11.069,65.079-1.372,8.322-2.482,15.059-3.254,19.738l-.843,5.373-.2,1.4a2.746,2.746,0,0,0-.048.48,2.879,2.879,0,0,0,.109-.471c.061-.33.147-.792.259-1.391.215-1.243.528-3.045.93-5.359.775-4.678,1.891-11.414,3.269-19.736,2.678-16.694,6.373-39.725,10.455-65.175,4.06-25.441,7.775-48.473,10.567-65.131,1.394-8.329,2.555-15.065,3.394-19.715.42-2.325.758-4.128,1-5.348a9.54,9.54,0,0,1,.447-1.849,9.532,9.532,0,0,1-.171,1.892c-.16,1.234-.419,3.049-.77,5.385-.7,4.672-1.769,11.422-3.128,19.757-2.715,16.67-6.608,39.674-10.948,65.071" transform="translate(-97.871 -1.292)" fill="#f5f5f5"/>
        <path id="Trazado_612799" data-name="Trazado 612799" d="M237.233,100.254l-21.479,62.573-6.411,18.993-1.7,5.177-.427,1.351a2.821,2.821,0,0,0-.125.467,2.8,2.8,0,0,0,.185-.448l.481-1.334,1.787-5.15,6.426-18.989,20.882-62.763c8.13-24.5,15.529-46.679,20.985-62.7,2.727-8.012,4.965-14.486,6.548-18.949.791-2.232,1.418-3.96,1.859-5.128a9.6,9.6,0,0,1,.743-1.758,9.536,9.536,0,0,1-.475,1.844c-.357,1.194-.907,2.947-1.631,5.2-1.449,4.506-3.6,11.009-6.289,19.031-5.381,16.047-12.954,38.168-21.357,62.583" transform="translate(-90.907 -5.09)" fill="#f5f5f5"/>
        <path id="Trazado_612800" data-name="Trazado 612800" d="M236.148,108.741l-31.337,58.51L195.4,185.027l-2.521,4.852-.641,1.269a2.854,2.854,0,0,0-.2.442,2.9,2.9,0,0,0,.254-.414c.164-.3.393-.709.691-1.244l2.6-4.813,9.421-17.769,30.789-58.785c12-22.952,22.9-43.721,30.88-58.709,3.99-7.5,7.248-13.547,9.532-17.712,1.142-2.083,2.04-3.695,2.664-4.78a9.847,9.847,0,0,1,1.016-1.623,9.774,9.774,0,0,1-.769,1.747c-.546,1.124-1.374,2.771-2.455,4.885C274.5,36.6,271.328,42.692,267.37,50.2c-7.913,15.024-18.973,35.712-31.221,58.538" transform="translate(-84.303 -11.299)" fill="#f5f5f5"/>
        <path id="Trazado_612801" data-name="Trazado 612801" d="M235.21,120.252l-40.364,53.03L182.7,189.409l-3.27,4.408-.837,1.156a2.951,2.951,0,0,0-.268.406,2.971,2.971,0,0,0,.317-.371l.882-1.124,3.34-4.359,12.162-16.12,39.865-53.385c15.542-20.847,29.648-39.7,39.943-53.3,5.146-6.8,9.338-12.278,12.264-16.046,1.464-1.884,2.61-3.339,3.4-4.316a9.886,9.886,0,0,1,1.265-1.449,9.863,9.863,0,0,1-1.04,1.608c-.721,1.027-1.8,2.529-3.21,4.452-2.815,3.847-6.93,9.383-12.048,16.2-10.232,13.636-24.482,32.39-40.253,53.075" transform="translate(-78.279 -19.716)" fill="#f5f5f5"/>
        <path id="Trazado_612802" data-name="Trazado 612802" d="M234.411,134.475l-48.358,46.283-14.584,14.1-3.936,3.86-1.012,1.015a2.986,2.986,0,0,0-.33.36,2.939,2.939,0,0,0,.373-.318l1.051-.977,4-3.8,14.594-14.085L234.129,134.2c18.69-18.244,35.642-34.738,47.987-46.608,6.172-5.936,11.19-10.718,14.683-14,1.747-1.64,3.113-2.9,4.05-3.75a10.146,10.146,0,0,1,1.481-1.24,9.917,9.917,0,0,1-1.285,1.432c-.876.906-2.185,2.225-3.883,3.913-3.4,3.375-8.348,8.222-14.494,14.182-12.29,11.924-29.368,28.3-48.257,46.345" transform="translate(-72.954 -30.115)" fill="#f5f5f5"/>
        <path id="Trazado_612803" data-name="Trazado 612803" d="M233.724,151.088,178.546,189.5l-16.662,11.719-4.506,3.219-1.162.851a2.978,2.978,0,0,0-.383.306,3.008,3.008,0,0,0,.419-.259l1.195-.806L162,201.376l16.67-11.708,54.815-38.9c21.382-15.2,40.767-28.928,54.862-38.787,7.046-4.931,12.768-8.9,16.744-11.607,1.988-1.355,3.539-2.4,4.6-3.092a10.217,10.217,0,0,1,1.662-1,10.106,10.106,0,0,1-1.5,1.22c-1.011.763-2.515,1.868-4.463,3.279-3.895,2.82-9.561,6.86-16.587,11.818-14.049,9.921-33.539,23.511-55.086,38.485" transform="translate(-68.408 -42.266)" fill="#f5f5f5"/>
        <path id="Trazado_612804" data-name="Trazado 612804" d="M233.131,169.741l-60.678,29.552-18.343,9.044-4.968,2.495-1.284.663a2.976,2.976,0,0,0-.428.245,3.033,3.033,0,0,0,.456-.191l1.31-.615,5.008-2.419,18.349-9.03,60.4-30.09c23.563-11.762,44.918-22.38,60.426-29.976,7.753-3.8,14.042-6.846,18.405-8.92,2.182-1.037,3.882-1.831,5.042-2.354a10.3,10.3,0,0,1,1.8-.736,10.164,10.164,0,0,1-1.676.978c-1.121.6-2.784,1.463-4.935,2.56-4.3,2.194-10.547,5.323-18.284,9.154-15.472,7.664-36.909,18.125-60.6,29.641" transform="translate(-64.719 -55.928)" fill="#f5f5f5"/>
        <path id="Trazado_612805" data-name="Trazado 612805" d="M232.66,190.01l-64.707,19.9-19.577,6.127-5.31,1.7-1.376.459a2.93,2.93,0,0,0-.462.176,3.12,3.12,0,0,0,.481-.119l1.393-.406,5.337-1.623,19.583-6.112,64.515-20.482c25.173-8.013,47.981-15.234,64.525-20.364,8.272-2.567,14.976-4.614,19.621-5.994,2.323-.69,4.13-1.213,5.361-1.553a10.315,10.315,0,0,1,1.9-.451,10.248,10.248,0,0,1-1.814.71c-1.2.421-2.986,1.019-5.288,1.774-4.6,1.51-11.278,3.644-19.537,6.244-16.52,5.2-39.384,12.255-64.645,20" transform="translate(-61.997 -70.794)" fill="#f5f5f5"/>
        <path id="Trazado_612806" data-name="Trazado 612806" d="M232.362,211.333,165.239,221.1l-20.325,3.056-5.52.871-1.433.243a3.2,3.2,0,0,0-.485.1,2.935,2.935,0,0,0,.494-.044l1.442-.188,5.533-.787,20.328-3.042L232.3,210.949c26.158-4.063,49.85-7.706,67.018-10.242,8.585-1.27,15.537-2.266,20.347-2.919,2.406-.327,4.275-.568,5.545-.715a10.4,10.4,0,0,1,1.948-.155,10.365,10.365,0,0,1-1.906.423c-1.257.232-3.114.55-5.509.943-4.79.787-11.728,1.874-20.306,3.178-17.157,2.612-40.877,6.081-67.078,9.871" transform="translate(-60.349 -86.436)" fill="#f5f5f5"/>
        <path id="Trazado_612807" data-name="Trazado 612807" d="M340.5,62.111l9.918-12.1-4.05-1.561,3.167-8.823-9.042,10.436,4.651,1.356Z" transform="translate(-149.47 -17.394)" fill="#f3f9ff"/>
        <path id="Trazado_612808" data-name="Trazado 612808" d="M397.1,264.284l9.381,12.525,2.484-3.559,7.809,5.185L408.8,267.16l-2.429,4.192Z" transform="translate(-174.318 -116.016)" fill="#f3f9ff"/>
        <path id="Trazado_612809" data-name="Trazado 612809" d="M94.063,76.036l10,29.258,6.838-5.175,11.516,14.506-8.107-26.05-7.121,6.4Z" transform="translate(-41.292 -33.378)" fill="#f3f9ff"/>
        <path id="Trazado_612810" data-name="Trazado 612810" d="M222.312,343.186l6.726-24.093-6.93.321-1.041-14.948-6.517,21.089,7.679-1.009Z" transform="translate(-94.183 -133.655)" fill="#f3f9ff"/>
        <path id="Trazado_612811" data-name="Trazado 612811" d="M168.669,83.842l-.059,11.279,2.976-.964,2.231,6.378.326-9.948-3.22,1.352Z" transform="translate(-74.016 -36.805)" fill="#f3f9ff"/>
        <path id="Trazado_612812" data-name="Trazado 612812" d="M78.383,143.637l7.136,8.735,1.681-2.639,5.782,3.5L86.9,145.353l-1.622,3.093Z" transform="translate(-34.409 -63.054)" fill="#e0e0e0"/>
        <path id="Trazado_612813" data-name="Trazado 612813" d="M265.367,309.311l-.059,11.279,2.976-.964L270.515,326l.326-9.948-3.22,1.352Z" transform="translate(-116.465 -135.782)" fill="#f3f9ff"/>
      </g>
    </g>
    <g id="Grupo_1076405" data-name="Grupo 1076405">
      <g id="Grupo_1076404" data-name="Grupo 1076404" clip-path="url(#clip-path)">
        <path id="Trazado_612814" data-name="Trazado 612814" d="M86.073,237.993c3.2,11.164-2.417,22.567-12.546,25.47s-20.933-3.792-24.133-14.956,2.416-22.567,12.545-25.47,20.934,3.793,24.134,14.956" transform="translate(-21.288 -97.612)" fill="#eba325"/>
        <path id="Trazado_612815" data-name="Trazado 612815" d="M92.484,232.334c5.233,14.913,2.245,29.539-6.673,32.668s-20.39-6.424-25.622-21.336S57.944,214.126,66.862,211s20.39,6.423,25.622,21.336" transform="translate(-25.291 -92.363)" fill="#0c5e46"/>
        <path id="Trazado_612816" data-name="Trazado 612816" d="M165.352,205.542c5.73,16.331,1.941,32.53-8.465,36.181s-23.486-6.628-29.216-22.959-1.941-32.53,8.465-36.181,23.486,6.628,29.216,22.959" transform="translate(-54.872 -79.827)" fill="#0c5e46"/>
        <path id="Trazado_612817" data-name="Trazado 612817" d="M129.068,290.015c-7.043-14.526-4.842-37.709-4.842-37.709s-.587-4.255,0-6.016,9.014-4.159,9.014-4.159l-20.076-59.354L71.132,199.625l13.421,53.28s2.112,20.676,3.579,30.066,3.522,22.6,5.429,27.585,10.711,5.576,15.407,6.163,22.449-8.07,24.274-10.711,2.871-1.468-4.172-15.994" transform="translate(-31.226 -80.236)" fill="#0c5e46"/>
        <g id="Grupo_1076361" data-name="Grupo 1076361" transform="translate(70.127 101.873)" opacity="0.3">
          <g id="Grupo_1076360" data-name="Grupo 1076360">
            <g id="Grupo_1076359" data-name="Grupo 1076359" clip-path="url(#clip-path-4)">
              <path id="Trazado_612818" data-name="Trazado 612818" d="M165.352,205.542c5.73,16.331,1.941,32.53-8.465,36.181s-23.486-6.628-29.216-22.959-1.941-32.53,8.465-36.181,23.486,6.628,29.216,22.959" transform="translate(-124.999 -181.846)"/>
            </g>
          </g>
        </g>
        <path id="Trazado_612819" data-name="Trazado 612819" d="M144.266,149.723s20.685-12.24,31.369-24.416c8.692-9.905,20.624-26.587,20.624-26.587l54.915,115.295s-28.575-10.933-54.915-11.182c-25.126-.237-34.571-.074-34.571-.074Z" transform="translate(-63.33 -43.336)" fill="#f6f6f6"/>
        <path id="Trazado_612820" data-name="Trazado 612820" d="M165.087,209.193c5.158,14.7,2.718,28.94-5.45,31.805s-18.971-6.727-24.129-21.426-2.718-28.94,5.45-31.805,18.971,6.727,24.129,21.426" transform="translate(-58.298 -82.204)" fill="#f6f6f6"/>
        <g id="Grupo_1076364" data-name="Grupo 1076364" transform="translate(74.789 82.303)" opacity="0.83">
          <g id="Grupo_1076363" data-name="Grupo 1076363">
            <g id="Grupo_1076362" data-name="Grupo 1076362" clip-path="url(#clip-path-5)">
              <path id="Trazado_612821" data-name="Trazado 612821" d="M137.945,207.09c19.408-11.7,40.333-21.119,63.636-18.23A129.574,129.574,0,0,1,191.224,146.7c-14.736,20.155-33.718,38.585-57.914,44.745a72.724,72.724,0,0,0,1.946,8.9c.977,2.791,2.689,6.744,2.689,6.744" transform="translate(-133.309 -146.703)" fill="#fff"/>
            </g>
          </g>
        </g>
        <g id="Grupo_1076367" data-name="Grupo 1076367" transform="translate(53.327 162.436)" opacity="0.2">
          <g id="Grupo_1076366" data-name="Grupo 1076366">
            <g id="Grupo_1076365" data-name="Grupo 1076365" clip-path="url(#clip-path-6)">
              <path id="Trazado_612822" data-name="Trazado 612822" d="M107.263,356.256c.286-.149.572-.295.859-.441q.55-.28,1.1-.555.441-.219.884-.434.55-.266,1.1-.527c.3-.14.592-.279.89-.417.378-.174.756-.346,1.135-.516.286-.129.572-.259.859-.385.411-.182.824-.358,1.238-.535.256-.11.513-.222.77-.33q.968-.406,1.939-.8c.2-.08.4-.157.6-.235.483-.192.966-.383,1.45-.568.279-.107.558-.21.836-.315q.595-.225,1.19-.444c.3-.11.6-.218.9-.326q.564-.2,1.127-.4.459-.161.917-.318.56-.192,1.119-.379c.3-.1.606-.2.909-.3.378-.125.756-.246,1.134-.367.293-.094.587-.189.88-.28.4-.127.8-.25,1.206-.373.265-.081.53-.164.794-.243q.953-.287,1.9-.56l.023-.007c-.48-1.22-4.643-9.79-9.278-22.566-4.98-13.728-1.844-33.119-2.951-34.04s-25.742,10.179-25.742,10.179,2.112,20.676,3.579,30.066,3.521,22.6,5.428,27.585q.092.238.2.463c.355-.2.709-.4,1.066-.6.26-.143.522-.281.784-.421.382-.205.764-.411,1.148-.611" transform="translate(-95.054 -289.538)" fill="#f5f5f5"/>
            </g>
          </g>
        </g>
        <g id="Grupo_1076370" data-name="Grupo 1076370" transform="translate(62.538 219.082)" opacity="0.3">
          <g id="Grupo_1076369" data-name="Grupo 1076369">
            <g id="Grupo_1076368" data-name="Grupo 1076368" clip-path="url(#clip-path-7)">
              <path id="Trazado_612823" data-name="Trazado 612823" d="M140.232,390.523l-.023.007q-.947.273-1.9.56c-.264.079-.529.162-.794.243-.4.123-.8.246-1.206.373-.293.092-.586.187-.88.281-.378.121-.755.242-1.134.367-.3.1-.606.2-.909.3q-.559.187-1.118.379-.459.157-.918.318-.564.2-1.127.4c-.3.108-.6.216-.9.326q-.595.218-1.189.444c-.279.1-.558.208-.836.315-.484.186-.967.376-1.45.568-.2.079-.4.155-.6.235q-.971.39-1.939.8c-.257.108-.513.22-.77.33-.413.177-.826.353-1.238.535-.287.126-.573.256-.859.385q-.569.256-1.135.516c-.3.137-.594.277-.89.417q-.552.261-1.1.527-.443.215-.884.434-.553.274-1.1.555c-.287.146-.574.292-.859.441-.384.2-.766.406-1.148.611-.261.14-.523.278-.784.421-.357.2-.711.4-1.066.6,2.261,4.563,10.657,5.131,15.2,5.7,4.7.587,22.449-8.07,24.274-10.711.978-1.415,1.73-1.738,1.135-3.966-3.883-.948-7.446-1.812-11.8-2.724l-.055.016" transform="translate(-111.473 -390.507)"/>
            </g>
          </g>
        </g>
        <path id="Trazado_612824" data-name="Trazado 612824" d="M150.071,298.589a5.048,5.048,0,0,0-2.112.6c-.452.452-1.052,21.72,1.056,25.192.125.206-.151.151,1.056.9s6.816,3.139,8.537,2.022,5.794-4.738,5.492-6.246-1.841-2.662-3.642-6.158c-1.617-3.139-2.242-13.156-2.242-13.156-.632-.283-7.207-3.306-8.146-3.162" transform="translate(-64.758 -131.073)" fill="#f5f5f5"/>
        <g id="Grupo_1076373" data-name="Grupo 1076373" transform="translate(85.671 167.546)" opacity="0.3">
          <g id="Grupo_1076372" data-name="Grupo 1076372">
            <g id="Grupo_1076371" data-name="Grupo 1076371" clip-path="url(#clip-path-8)">
              <path id="Trazado_612825" data-name="Trazado 612825" d="M166.379,321.152c0-.019,0-.041,0-.059-.3-1.509-1.841-2.663-3.642-6.158-1.617-3.139-2.242-13.156-2.242-13.156-.578-.258-6.127-2.808-7.788-3.132.081.539,1.3,7.1,2.37,11.9a23.34,23.34,0,0,0,3.473,8.055c.111-.073.191-.113.226-.1a42.934,42.934,0,0,1,7.6,2.656" transform="translate(-152.706 -298.646)"/>
            </g>
          </g>
        </g>
        <g id="Grupo_1076376" data-name="Grupo 1076376" transform="translate(84.749 187.395)" opacity="0.5">
          <g id="Grupo_1076375" data-name="Grupo 1076375">
            <g id="Grupo_1076374" data-name="Grupo 1076374" clip-path="url(#clip-path-9)">
              <path id="Trazado_612826" data-name="Trazado 612826" d="M158.061,334.029c-.035-.009-.116.031-.226.1-1.1.728-5.588,5.165-6.774,6.345.139.1.323.216.572.371,1.207.755,6.816,3.139,8.537,2.022,1.477-.959,4.679-3.759,5.368-5.487a1.441,1.441,0,0,0,.125-.7,42.936,42.936,0,0,0-7.6-2.656" transform="translate(-151.062 -334.027)"/>
            </g>
          </g>
        </g>
        <path id="Trazado_612827" data-name="Trazado 612827" d="M152.229,393.344a2.1,2.1,0,0,1-.4-.026c-.263-.025-.649-.082-1.142-.178-.988-.182-2.387-.581-4.1-1.091-.858-.249-1.8-.515-2.825-.718a8.314,8.314,0,0,0-3.289-.107c-2.318.389-4.669,1.579-7.269,2.429a112.153,112.153,0,0,0-12.884,5.376c-1.6.794-2.879,1.474-3.758,1.951l-1.013.549a2.137,2.137,0,0,1-.362.176,2.043,2.043,0,0,1,.333-.227c.224-.139.553-.346.986-.6.863-.508,2.127-1.217,3.721-2.036a101.052,101.052,0,0,1,12.881-5.467c2.583-.843,4.94-2.031,7.321-2.419a7.5,7.5,0,0,1,1.751-.1,12.392,12.392,0,0,1,1.629.238c1.037.215,1.982.495,2.838.757,1.709.537,3.089.963,4.065,1.178.486.112.867.187,1.127.231a2.087,2.087,0,0,1,.394.084" transform="translate(-50.564 -171.573)" fill="#263238"/>
        <path id="Trazado_612828" data-name="Trazado 612828" d="M158.182,334.168a7.371,7.371,0,0,1-1.029.935c-.652.555-1.549,1.324-2.515,2.2s-1.818,1.7-2.433,2.292a7.341,7.341,0,0,1-1.029.934,5.949,5.949,0,0,1,.881-1.078c.58-.635,1.414-1.482,2.385-2.364s1.895-1.63,2.582-2.145a5.935,5.935,0,0,1,1.158-.774" transform="translate(-66.363 -146.693)" fill="#263238"/>
        <path id="Trazado_612829" data-name="Trazado 612829" d="M158.043,318.388a2.834,2.834,0,0,1-.4-.568,13.41,13.41,0,0,1-.872-1.683,30.839,30.839,0,0,1-1.72-6c-.514-2.378-.913-4.548-1.123-6.131-.107-.791-.173-1.434-.206-1.879a3.064,3.064,0,0,1-.017-.694,3.233,3.233,0,0,1,.13.681c.08.5.18,1.121.3,1.861.261,1.569.691,3.725,1.2,6.1a36.278,36.278,0,0,0,1.625,5.978c.589,1.472,1.13,2.3,1.083,2.331" transform="translate(-67.468 -132.325)" fill="#263238"/>
        <path id="Trazado_612830" data-name="Trazado 612830" d="M170.546,336.448c-.039.078-1.57-.658-3.551-1.311s-3.645-.988-3.63-1.074a3.754,3.754,0,0,1,1.112.12,20.256,20.256,0,0,1,5.106,1.7,3.743,3.743,0,0,1,.963.569" transform="translate(-71.714 -146.641)" fill="#263238"/>
        <g id="Grupo_1076379" data-name="Grupo 1076379" transform="translate(34.924 123.978)" opacity="0.3">
          <g id="Grupo_1076378" data-name="Grupo 1076378">
            <g id="Grupo_1076377" data-name="Grupo 1076377" clip-path="url(#clip-path-10)">
              <path id="Trazado_612831" data-name="Trazado 612831" d="M94.878,220.988a20.037,20.037,0,0,0,.818,10.407s-21.245,6.756-31.436,11.253a14.074,14.074,0,0,1-1.873-9.177Z" transform="translate(-62.251 -220.988)" fill="#fff"/>
            </g>
          </g>
        </g>
        <path id="Trazado_612832" data-name="Trazado 612832" d="M136.034,183.159a1.133,1.133,0,0,1-.191.091l-.568.241a14.342,14.342,0,0,0-2.072,1.142,16.3,16.3,0,0,0-5.5,6.607,29.613,29.613,0,0,0-2.663,12.53,47.262,47.262,0,0,0,10.283,29.306,29.615,29.615,0,0,0,9.909,8.12,16.3,16.3,0,0,0,8.421,1.722,14.326,14.326,0,0,0,2.33-.4l.594-.167a1.211,1.211,0,0,1,.206-.048,1.1,1.1,0,0,1-.2.076l-.588.2a13.064,13.064,0,0,1-2.336.46,16.2,16.2,0,0,1-8.52-1.648,29.59,29.59,0,0,1-10.029-8.135,47.151,47.151,0,0,1-10.344-29.48,29.581,29.581,0,0,1,2.746-12.617,16.191,16.191,0,0,1,5.622-6.611,13.112,13.112,0,0,1,2.112-1.1l.581-.215a1.157,1.157,0,0,1,.2-.063" transform="translate(-54.77 -80.403)" fill="#263238"/>
        <path id="Trazado_612833" data-name="Trazado 612833" d="M155.592,293.593a1.977,1.977,0,0,1-.549,0c-.352-.02-.859-.069-1.484-.148a37.577,37.577,0,0,1-9.489-2.53c-.581-.243-1.046-.453-1.36-.611a1.987,1.987,0,0,1-.477-.27,19.587,19.587,0,0,1,1.913.688c1.175.435,2.815.993,4.661,1.487s3.546.824,4.782,1.031a19.532,19.532,0,0,1,2,.356" transform="translate(-62.437 -127.316)" fill="#263238"/>
        <path id="Trazado_612834" data-name="Trazado 612834" d="M119.232,289.489c.031.075-5.375,2.437-12.075,5.276S95,299.846,94.967,299.772s5.374-2.436,12.076-5.276,12.157-5.081,12.189-5.007" transform="translate(-41.689 -127.079)" fill="#263238"/>
        <path id="Trazado_612835" data-name="Trazado 612835" d="M196.26,98.719a.906.906,0,0,1-.1.163l-.314.461-1.236,1.75c-1.082,1.515-2.662,3.7-4.646,6.366s-4.374,5.832-7.094,9.292c-1.363,1.727-2.8,3.532-4.338,5.372q-1.144,1.385-2.363,2.787c-.806.939-1.686,1.84-2.543,2.779a108.419,108.419,0,0,1-10.772,9.44c-3.479,2.7-6.72,4.985-9.477,6.851s-5.036,3.3-6.621,4.277c-.792.489-1.414.857-1.837,1.1l-.484.277a.918.918,0,0,1-.171.084.927.927,0,0,1,.155-.11l.469-.3,1.806-1.15c1.565-1,3.826-2.466,6.566-4.352s5.964-4.186,9.427-6.892a110.984,110.984,0,0,0,10.728-9.432c.853-.936,1.727-1.83,2.532-2.766s1.6-1.858,2.362-2.779c1.534-1.835,2.979-3.635,4.347-5.356,2.729-3.447,5.133-6.6,7.14-9.248l4.72-6.309,1.28-1.718.337-.444a.971.971,0,0,1,.123-.145" transform="translate(-63.33 -43.336)" fill="#263238"/>
        <path id="Trazado_612836" data-name="Trazado 612836" d="M175.321,284.1a.748.748,0,0,1,.172-.015l.506-.013,1.946-.023,7.157-.031,23.617.007a129.7,129.7,0,0,1,23.49,2.354c2.973.553,5.362,1.084,7.008,1.469.824.188,1.46.35,1.892.459l.49.128a.752.752,0,0,1,.164.054.78.78,0,0,1-.171-.025l-.5-.1-1.9-.405c-1.653-.35-4.046-.85-7.021-1.377a135.566,135.566,0,0,0-23.456-2.265l-23.613-.093-7.158-.062L176,284.134l-.506-.016a.759.759,0,0,1-.173-.015" transform="translate(-76.963 -124.68)" fill="#263238"/>
        <g id="Grupo_1076382" data-name="Grupo 1076382" transform="translate(126.798 56.537)" opacity="0.3">
          <g id="Grupo_1076381" data-name="Grupo 1076381">
            <g id="Grupo_1076380" data-name="Grupo 1076380" clip-path="url(#clip-path-11)">
              <path id="Trazado_612837" data-name="Trazado 612837" d="M304.468,137.506l-73.3-36.731L226.736,107c-1.966,15.108.035,34.206,6.485,53.871,6.226,18.982,15.478,35.083,25.585,46.08l14.654,3.56Z" transform="translate(-226.013 -100.775)"/>
            </g>
          </g>
        </g>
        <path id="Trazado_612838" data-name="Trazado 612838" d="M309.322,115.417c13.13,40.032,7.824,77.715-11.85,84.168s-46.267-20.769-59.4-60.8-7.825-77.715,11.85-84.168,46.267,20.768,59.4,60.8" transform="translate(-101.346 -23.56)" fill="#03386e"/>
        <path id="Trazado_612839" data-name="Trazado 612839" d="M308.883,130.012c10.814,32.971,8.908,63.2-4.255,67.515s-32.6-18.91-43.416-51.88-8.908-63.2,4.256-67.515,32.6,18.91,43.415,51.88" transform="translate(-111.589 -34.072)" fill="#f6f6f6"/>
        <g id="Grupo_1076385" data-name="Grupo 1076385" transform="translate(152.785 41.198)" opacity="0.3">
          <g id="Grupo_1076384" data-name="Grupo 1076384">
            <g id="Grupo_1076383" data-name="Grupo 1076383" clip-path="url(#clip-path-12)">
              <path id="Trazado_612840" data-name="Trazado 612840" d="M323.349,126.842c-11.125-33.92-31.91-57.558-46.424-52.8a12.718,12.718,0,0,0-4.59,2.715,10.176,10.176,0,0,1,1.136-.451c13.164-4.318,32.6,18.91,43.415,51.88s8.908,63.2-4.256,67.515a11.388,11.388,0,0,1-6.307.137c3.834,1.717,7.531,2.139,10.89,1.037,14.514-4.76,17.261-36.117,6.136-70.036" transform="translate(-272.335 -73.435)"/>
            </g>
          </g>
        </g>
        <path id="Trazado_612841" data-name="Trazado 612841" d="M259.758,170.652l34.3-7.427,6.223,18.974-31.146,16.5s-8.808-19.466-9.374-28.048" transform="translate(-114.029 -71.653)" fill="#0c5e46"/>
        <g id="Grupo_1076388" data-name="Grupo 1076388" transform="translate(145.729 96.927)" opacity="0.2">
          <g id="Grupo_1076387" data-name="Grupo 1076387">
            <g id="Grupo_1076386" data-name="Grupo 1076386" clip-path="url(#clip-path-13)">
              <path id="Trazado_612842" data-name="Trazado 612842" d="M269.329,172.77c-.536.22-6.88,11.393-2.516,17.795s9.1,8.733,9.1,8.733l-6.351,3.433-6.633-17.578-3.17-10.31Z" transform="translate(-259.758 -172.77)"/>
            </g>
          </g>
        </g>
        <path id="Trazado_612843" data-name="Trazado 612843" d="M326.757,171.038c1.718,5.24.964,10.191-1.684,11.06s-6.189-2.674-7.907-7.914-.965-10.191,1.684-11.06,6.189,2.675,7.907,7.914" transform="translate(-138.825 -71.551)" fill="#0c5e46"/>
        <path id="Trazado_612844" data-name="Trazado 612844" d="M326.649,170.946a3.136,3.136,0,0,1-.193-.454c-.109-.3-.293-.742-.541-1.3a18.614,18.614,0,0,0-1.044-1.965,13,13,0,0,0-1.783-2.328,5.982,5.982,0,0,0-2.952-1.811,2.582,2.582,0,0,0-1.841.293,3.412,3.412,0,0,0-1.3,1.534,9.587,9.587,0,0,0-.7,4.385,18.744,18.744,0,0,0,2.986,9.107,9.606,9.606,0,0,0,3.159,3.121,3.419,3.419,0,0,0,1.959.465,2.583,2.583,0,0,0,1.657-.855,5.978,5.978,0,0,0,1.306-3.207A12.991,12.991,0,0,0,327.42,175a18.531,18.531,0,0,0-.323-2.2c-.131-.6-.243-1.059-.334-1.369a3.108,3.108,0,0,1-.113-.48,3.072,3.072,0,0,1,.169.463c.11.3.24.764.389,1.361a17.273,17.273,0,0,1,.375,2.211,12.863,12.863,0,0,1-.016,2.975,6.15,6.15,0,0,1-1.333,3.345,2.83,2.83,0,0,1-1.809.945,3.672,3.672,0,0,1-2.111-.482,9.8,9.8,0,0,1-3.27-3.2,18.855,18.855,0,0,1-3.035-9.254,9.807,9.807,0,0,1,.739-4.515,3.67,3.67,0,0,1,1.415-1.638,2.826,2.826,0,0,1,2.017-.31,6.152,6.152,0,0,1,3.056,1.905,12.841,12.841,0,0,1,1.775,2.388,17.273,17.273,0,0,1,1.008,2c.233.57.4,1.017.493,1.327a3.138,3.138,0,0,1,.137.474" transform="translate(-138.718 -71.459)" fill="#263238"/>
        <g id="Grupo_1076391" data-name="Grupo 1076391" transform="translate(179.948 95.519)" opacity="0.3">
          <g id="Grupo_1076390" data-name="Grupo 1076390">
            <g id="Grupo_1076389" data-name="Grupo 1076389" clip-path="url(#clip-path-14)">
              <path id="Trazado_612845" data-name="Trazado 612845" d="M326.777,174.871c.985,3,.553,5.84-.965,6.338s-3.546-1.533-4.531-4.535-.553-5.84.965-6.338,3.547,1.533,4.531,4.535" transform="translate(-320.753 -170.26)"/>
            </g>
          </g>
        </g>
        <path id="Trazado_612846" data-name="Trazado 612846" d="M265.374,78.536s-.114.057-.341.153-.575.217-1,.438a12.065,12.065,0,0,0-3.3,2.548c-2.513,2.655-4.773,7.653-5.732,14.109a68.279,68.279,0,0,0-.769,10.638,104.924,104.924,0,0,0,.8,12.226,150.946,150.946,0,0,0,17.413,53.091,104.952,104.952,0,0,0,6.6,10.326,68.33,68.33,0,0,0,6.92,8.117c4.6,4.632,9.377,7.321,12.974,7.972a12.066,12.066,0,0,0,4.169.1c.474-.073.824-.191,1.065-.239s.365-.079.365-.079a13.981,13.981,0,0,1-1.421.376,11.828,11.828,0,0,1-4.2-.043,18.976,18.976,0,0,1-6.177-2.462,36.419,36.419,0,0,1-6.921-5.473,67.921,67.921,0,0,1-6.971-8.121,104.279,104.279,0,0,1-6.637-10.337,149.9,149.9,0,0,1-17.445-53.191,104.232,104.232,0,0,1-.775-12.258,68.029,68.029,0,0,1,.807-10.671,36.417,36.417,0,0,1,2.334-8.51,18.973,18.973,0,0,1,3.519-5.643,11.836,11.836,0,0,1,3.359-2.523,13.875,13.875,0,0,1,1.367-.538" transform="translate(-111.496 -34.476)" fill="#263238"/>
        <g id="Grupo_1076394" data-name="Grupo 1076394" transform="translate(152.166 106.819)" opacity="0.2">
          <g id="Grupo_1076393" data-name="Grupo 1076393">
            <g id="Grupo_1076392" data-name="Grupo 1076392" clip-path="url(#clip-path-15)">
              <path id="Trazado_612847" data-name="Trazado 612847" d="M271.232,202.327,299.375,190.4s2.182,3.713,4.971,3.853L274.6,210.472Z" transform="translate(-271.232 -190.402)"/>
            </g>
          </g>
        </g>
        <g id="Grupo_1076397" data-name="Grupo 1076397" transform="translate(132.832 71.083)" opacity="0.3">
          <g id="Grupo_1076396" data-name="Grupo 1076396">
            <g id="Grupo_1076395" data-name="Grupo 1076395" clip-path="url(#clip-path-16)">
              <path id="Trazado_612848" data-name="Trazado 612848" d="M237.431,126.7s-1.488,6.582,0,9.1h5.227v-9.1Z" transform="translate(-236.77 -126.703)" fill="#fff"/>
            </g>
          </g>
        </g>
        <g id="Grupo_1076400" data-name="Grupo 1076400" transform="translate(133.22 30.245)" opacity="0.3">
          <g id="Grupo_1076399" data-name="Grupo 1076399">
            <g id="Grupo_1076398" data-name="Grupo 1076398" clip-path="url(#clip-path-17)">
              <path id="Trazado_612849" data-name="Trazado 612849" d="M261.191,53.911a23.446,23.446,0,0,0-11.621,5.767c-8.635,7.3-12.173,20.07-12.108,31.238,1.719-.394,4.208-.928,5.707,0,.434-5.616.952-11.312,2.965-16.573s5.741-10.115,10.959-12.236c4.247-1.727,9.09-1.492,13.5-.232,9.918,2.836,17.564,10.3,24.432,18.18-10.453-15.2-22.712-24.919-33.831-26.143" transform="translate(-237.461 -53.911)" fill="#fff"/>
            </g>
          </g>
        </g>
        <path id="Trazado_612850" data-name="Trazado 612850" d="M345.249,280.266a2.231,2.231,0,0,1-.156.389c-.118.247-.263.629-.516,1.086a21.83,21.83,0,0,1-2.421,3.7,21.221,21.221,0,0,1-4.835,4.43,18.735,18.735,0,0,1-3.446,1.8,17.515,17.515,0,0,1-4.044,1.039,14.815,14.815,0,0,1-7.873-1.381,28.467,28.467,0,0,1-5.593-3.429c-1.482-1.137-2.617-2.136-3.388-2.838-.389-.348-.679-.631-.879-.819a2.291,2.291,0,0,1-.292-.3,2.214,2.214,0,0,1,.331.258l.914.777c.793.675,1.946,1.648,3.438,2.758a29.237,29.237,0,0,0,5.578,3.349,14.694,14.694,0,0,0,7.728,1.336,17.445,17.445,0,0,0,3.976-1.015,18.752,18.752,0,0,0,3.4-1.759,21.538,21.538,0,0,0,4.822-4.336,23.624,23.624,0,0,0,2.481-3.624c.268-.446.428-.819.564-1.057a2.326,2.326,0,0,1,.209-.364" transform="translate(-136.877 -123.031)" fill="#fff"/>
        <g id="Grupo_1076403" data-name="Grupo 1076403" transform="translate(142.336 44.717)" opacity="0.3">
          <g id="Grupo_1076402" data-name="Grupo 1076402">
            <g id="Grupo_1076401" data-name="Grupo 1076401" clip-path="url(#clip-path-18)">
              <path id="Trazado_612851" data-name="Trazado 612851" d="M276.087,171.337a191.12,191.12,0,0,1-16.847-58.224c-.82-6.687-1.284-13.483-.292-20.147a37.316,37.316,0,0,1,4.481-13.26c-11.749,6.125-13.084,35.227-2.709,66.858,10.814,32.971,30.251,56.2,43.415,51.881a10.325,10.325,0,0,0,1.332-.547c-6.673-.321-12.989-3.821-17.736-8.574-5.073-5.079-8.578-11.5-11.644-17.988" transform="translate(-253.71 -79.707)"/>
            </g>
          </g>
        </g>
      </g>
    </g>
    <path id="Trazado_612852" data-name="Trazado 612852" d="M374.859,150.931l34.472-6.208-5.3-7.552,18.892-7.965L392.8,132.843l5.46,8.278Z" transform="translate(-164.556 -56.719)" fill="#eba325"/>
    <path id="Trazado_612853" data-name="Trazado 612853" d="M369.189,100.942l21.884-17.5-8.506-3.668,7.605-13.834L372.37,80.9l7.377,3.486Z" transform="translate(-162.067 -28.945)" fill="#eba325"/>
    <path id="Trazado_612854" data-name="Trazado 612854" d="M389.6,201.114l21.97,17.467.576-6.562,14.6,6-18.914-15.233-.592,6.956Z" transform="translate(-171.026 -88.285)" fill="#eba325"/>
  </g>
</svg>
