<svg xmlns="http://www.w3.org/2000/svg" width="399.575" height="187" viewBox="0 0 399.575 187">
  <g id="Grupo_1077065" data-name="Grupo 1077065" transform="translate(-1180 -10555.202)">
    <rect id="Rectángulo_380509" data-name="Rectángulo 380509" width="31" height="143.824" rx="9" transform="translate(1180 10555.202)" fill="#03386e"/>
    <rect id="Rectángulo_380538" data-name="Rectángulo 380538" width="31" height="143.824" rx="9" transform="translate(1495 10711.202) rotate(90)" fill="#03386e"/>
    <path id="Trazado_614236" data-name="Trazado 614236" d="M2.939-3.507V0H.889V-9.953H4.771a4.492,4.492,0,0,1,1.972.41A3.022,3.022,0,0,1,8.053-8.377a3.25,3.25,0,0,1,.458,1.719,2.858,2.858,0,0,1-1,2.307,4.171,4.171,0,0,1-2.772.844Zm0-1.661H4.771a1.8,1.8,0,0,0,1.241-.383,1.392,1.392,0,0,0,.427-1.094,1.642,1.642,0,0,0-.431-1.183,1.609,1.609,0,0,0-1.189-.465H2.939Zm11.006-.376a5.367,5.367,0,0,0-.711-.055,1.447,1.447,0,0,0-1.47.759V0H9.789V-7.4h1.866l.055.882a1.831,1.831,0,0,1,1.647-1.019,2.07,2.07,0,0,1,.615.089Zm.4,1.777a4.387,4.387,0,0,1,.424-1.962,3.1,3.1,0,0,1,1.22-1.333,3.56,3.56,0,0,1,1.849-.472,3.368,3.368,0,0,1,2.444.916,3.676,3.676,0,0,1,1.056,2.488l.014.506A3.866,3.866,0,0,1,20.4-.892,3.3,3.3,0,0,1,17.849.137,3.319,3.319,0,0,1,15.3-.889a3.934,3.934,0,0,1-.954-2.789Zm1.976.14a2.765,2.765,0,0,0,.4,1.612,1.308,1.308,0,0,0,1.135.558,1.311,1.311,0,0,0,1.121-.551,3.025,3.025,0,0,0,.4-1.763,2.737,2.737,0,0,0-.4-1.6,1.311,1.311,0,0,0-1.135-.568,1.29,1.29,0,0,0-1.121.565A3.076,3.076,0,0,0,16.317-3.626Zm12.913,0a4.479,4.479,0,0,1-.759,2.772,2.513,2.513,0,0,1-2.119.995,2.309,2.309,0,0,1-1.921-.923L24.343,0H22.565V-10.5h1.976v3.767a2.25,2.25,0,0,1,1.8-.8,2.534,2.534,0,0,1,2.123.995,4.485,4.485,0,0,1,.769,2.8Zm-1.976-.144A2.942,2.942,0,0,0,26.9-5.411a1.2,1.2,0,0,0-1.06-.516,1.3,1.3,0,0,0-1.3.772v2.919a1.321,1.321,0,0,0,1.313.779A1.22,1.22,0,0,0,27.111-2.4,4.866,4.866,0,0,0,27.255-3.773ZM34.733,0a2.194,2.194,0,0,1-.2-.663,2.39,2.39,0,0,1-1.866.8,2.626,2.626,0,0,1-1.8-.629,2.023,2.023,0,0,1-.714-1.586,2.09,2.09,0,0,1,.872-1.8,4.3,4.3,0,0,1,2.519-.636h.909v-.424a1.219,1.219,0,0,0-.263-.82,1.035,1.035,0,0,0-.831-.308,1.177,1.177,0,0,0-.783.239.813.813,0,0,0-.284.656H30.317a1.984,1.984,0,0,1,.4-1.189,2.621,2.621,0,0,1,1.121-.858,4.086,4.086,0,0,1,1.627-.311,3.228,3.228,0,0,1,2.17.687,2.4,2.4,0,0,1,.8,1.931v3.206a3.536,3.536,0,0,0,.294,1.593V0ZM33.1-1.374a1.7,1.7,0,0,0,.807-.195,1.28,1.28,0,0,0,.547-.523V-3.363h-.738q-1.483,0-1.579,1.025l-.007.116a.791.791,0,0,0,.26.608A1.009,1.009,0,0,0,33.1-1.374ZM44.618-3.63a4.479,4.479,0,0,1-.759,2.772A2.513,2.513,0,0,1,41.74.137a2.309,2.309,0,0,1-1.921-.923L39.73,0H37.953V-10.5h1.976v3.767a2.25,2.25,0,0,1,1.8-.8,2.534,2.534,0,0,1,2.123.995,4.485,4.485,0,0,1,.769,2.8Zm-1.976-.144a2.942,2.942,0,0,0-.355-1.637,1.2,1.2,0,0,0-1.06-.516,1.3,1.3,0,0,0-1.3.772v2.919a1.321,1.321,0,0,0,1.313.779A1.22,1.22,0,0,0,42.5-2.4,4.866,4.866,0,0,0,42.643-3.773ZM47.92,0H45.938V-7.4H47.92Zm-2.1-9.311a.973.973,0,0,1,.3-.731,1.117,1.117,0,0,1,.81-.287,1.12,1.12,0,0,1,.807.287.967.967,0,0,1,.3.731.97.97,0,0,1-.3.738,1.122,1.122,0,0,1-.8.287,1.122,1.122,0,0,1-.8-.287A.97.97,0,0,1,45.821-9.311ZM51.632,0H49.649V-10.5h1.982Zm3.712,0H53.361V-7.4h1.982Zm-2.1-9.311a.973.973,0,0,1,.3-.731,1.117,1.117,0,0,1,.81-.287,1.12,1.12,0,0,1,.807.287.967.967,0,0,1,.3.731.97.97,0,0,1-.3.738,1.122,1.122,0,0,1-.8.287,1.122,1.122,0,0,1-.8-.287A.97.97,0,0,1,53.245-9.311Zm3.418,5.558a4.457,4.457,0,0,1,.776-2.755,2.517,2.517,0,0,1,2.123-1.025,2.265,2.265,0,0,1,1.784.807V-10.5h1.982V0H61.544l-.1-.786a2.325,2.325,0,0,1-1.9.923,2.511,2.511,0,0,1-2.1-1.029A4.6,4.6,0,0,1,56.663-3.753Zm1.976.147A2.92,2.92,0,0,0,59-2.011a1.18,1.18,0,0,0,1.053.555,1.322,1.322,0,0,0,1.292-.774V-5.153a1.3,1.3,0,0,0-1.278-.774Q58.639-5.927,58.639-3.606ZM69.146,0a2.194,2.194,0,0,1-.2-.663,2.39,2.39,0,0,1-1.866.8,2.626,2.626,0,0,1-1.8-.629,2.023,2.023,0,0,1-.714-1.586,2.09,2.09,0,0,1,.872-1.8,4.3,4.3,0,0,1,2.519-.636h.909v-.424a1.219,1.219,0,0,0-.263-.82,1.035,1.035,0,0,0-.831-.308,1.177,1.177,0,0,0-.783.239.813.813,0,0,0-.284.656H64.729a1.985,1.985,0,0,1,.4-1.189,2.621,2.621,0,0,1,1.121-.858,4.086,4.086,0,0,1,1.627-.311,3.228,3.228,0,0,1,2.17.687,2.4,2.4,0,0,1,.8,1.931v3.206a3.536,3.536,0,0,0,.294,1.593V0ZM67.512-1.374a1.7,1.7,0,0,0,.807-.195,1.28,1.28,0,0,0,.547-.523V-3.363h-.738q-1.483,0-1.579,1.025l-.007.116a.791.791,0,0,0,.26.608A1.009,1.009,0,0,0,67.512-1.374Zm4.546-2.379a4.457,4.457,0,0,1,.776-2.755,2.517,2.517,0,0,1,2.123-1.025,2.265,2.265,0,0,1,1.784.807V-10.5h1.982V0H76.938l-.1-.786a2.325,2.325,0,0,1-1.9.923,2.511,2.511,0,0,1-2.1-1.029A4.6,4.6,0,0,1,72.058-3.753Zm1.976.147a2.92,2.92,0,0,0,.362,1.6,1.18,1.18,0,0,0,1.053.555A1.322,1.322,0,0,0,76.74-2.23V-5.153a1.3,1.3,0,0,0-1.278-.774Q74.033-5.927,74.033-3.606Z" transform="translate(1200 10668.202) rotate(-90)" fill="#fff"/>
    <path id="Trazado_614243" data-name="Trazado 614243" d="M3.069,0H1.019V-9.953H3.069ZM6.692-7.4l.062.827A2.6,2.6,0,0,1,8.88-7.533a1.973,1.973,0,0,1,1.962,1.128,2.54,2.54,0,0,1,2.222-1.128,2.206,2.206,0,0,1,1.791.7,3.221,3.221,0,0,1,.588,2.109V0H13.46V-4.717a1.408,1.408,0,0,0-.246-.919,1.091,1.091,0,0,0-.868-.291,1.233,1.233,0,0,0-1.23.848L11.122,0H9.146V-4.71a1.391,1.391,0,0,0-.253-.93,1.1,1.1,0,0,0-.861-.287,1.28,1.28,0,0,0-1.217.7V0H4.84V-7.4ZM23.618-3.63a4.436,4.436,0,0,1-.776,2.738,2.488,2.488,0,0,1-2.1,1.029,2.3,2.3,0,0,1-1.812-.779V2.844H16.96V-7.4h1.832l.068.725a2.322,2.322,0,0,1,1.873-.861,2.5,2.5,0,0,1,2.126,1.012,4.556,4.556,0,0,1,.759,2.789Zm-1.976-.144a2.911,2.911,0,0,0-.366-1.593,1.191,1.191,0,0,0-1.063-.561,1.294,1.294,0,0,0-1.278.711v3.028a1.316,1.316,0,0,0,1.292.731Q21.643-1.456,21.643-3.773ZM29.128,0a2.194,2.194,0,0,1-.2-.663,2.39,2.39,0,0,1-1.866.8,2.626,2.626,0,0,1-1.8-.629,2.023,2.023,0,0,1-.714-1.586,2.09,2.09,0,0,1,.872-1.8,4.3,4.3,0,0,1,2.519-.636h.909v-.424a1.219,1.219,0,0,0-.263-.82,1.035,1.035,0,0,0-.831-.308,1.177,1.177,0,0,0-.783.239.813.813,0,0,0-.284.656H24.712a1.984,1.984,0,0,1,.4-1.189,2.621,2.621,0,0,1,1.121-.858,4.086,4.086,0,0,1,1.627-.311,3.228,3.228,0,0,1,2.17.687,2.4,2.4,0,0,1,.8,1.931v3.206a3.536,3.536,0,0,0,.294,1.593V0ZM27.494-1.374a1.7,1.7,0,0,0,.807-.195,1.28,1.28,0,0,0,.547-.523V-3.363h-.738q-1.483,0-1.579,1.025l-.007.116a.791.791,0,0,0,.26.608A1.009,1.009,0,0,0,27.494-1.374Zm7.93-.082a1.3,1.3,0,0,0,.889-.3,1.054,1.054,0,0,0,.355-.8h1.853a2.534,2.534,0,0,1-.41,1.377,2.706,2.706,0,0,1-1.1.971,3.455,3.455,0,0,1-1.548.345,3.211,3.211,0,0,1-2.5-1.008,3.99,3.99,0,0,1-.916-2.786v-.13a3.944,3.944,0,0,1,.909-2.728,3.174,3.174,0,0,1,2.5-1.019,3.111,3.111,0,0,1,2.225.79,2.8,2.8,0,0,1,.851,2.1H36.668a1.358,1.358,0,0,0-.355-.938,1.185,1.185,0,0,0-.9-.361,1.19,1.19,0,0,0-1.042.5A2.916,2.916,0,0,0,34.016-3.8V-3.6a2.953,2.953,0,0,0,.349,1.643A1.2,1.2,0,0,0,35.424-1.456Zm6.59-7.759V-7.4h1.265v1.449H42.014v3.691a.881.881,0,0,0,.157.588.79.79,0,0,0,.6.178,3.151,3.151,0,0,0,.581-.048v1.5a4.067,4.067,0,0,1-1.2.178,1.886,1.886,0,0,1-2.119-2.1V-5.947h-1.08V-7.4h1.08V-9.215Zm1.853,5.448a4.387,4.387,0,0,1,.424-1.962,3.1,3.1,0,0,1,1.22-1.333,3.56,3.56,0,0,1,1.849-.472,3.368,3.368,0,0,1,2.444.916,3.676,3.676,0,0,1,1.056,2.488l.014.506a3.866,3.866,0,0,1-.95,2.731A3.3,3.3,0,0,1,47.373.137,3.319,3.319,0,0,1,44.82-.889a3.934,3.934,0,0,1-.954-2.789Zm1.976.14a2.765,2.765,0,0,0,.4,1.612,1.308,1.308,0,0,0,1.135.558,1.311,1.311,0,0,0,1.121-.551,3.025,3.025,0,0,0,.4-1.763,2.737,2.737,0,0,0-.4-1.6,1.311,1.311,0,0,0-1.135-.568,1.29,1.29,0,0,0-1.121.565A3.076,3.076,0,0,0,45.842-3.626Z" transform="translate(1395.256 10731.202)" fill="#fff"/>
    <path id="Trazado_614237" data-name="Trazado 614237" d="M-55.788-3.315A3.522,3.522,0,0,1-56.974-.786a4.165,4.165,0,0,1-2.82.923,3.745,3.745,0,0,1-3.011-1.289,5.284,5.284,0,0,1-1.1-3.538V-5.3A5.966,5.966,0,0,1-63.4-7.827a3.791,3.791,0,0,1,1.446-1.678,4.05,4.05,0,0,1,2.184-.584,4.058,4.058,0,0,1,2.775.923,3.785,3.785,0,0,1,1.217,2.591h-2.051a2.079,2.079,0,0,0-.537-1.4,1.987,1.987,0,0,0-1.4-.434,1.742,1.742,0,0,0-1.535.735,4.118,4.118,0,0,0-.523,2.28v.752a4.408,4.408,0,0,0,.489,2.358,1.71,1.71,0,0,0,1.542.745,2.025,2.025,0,0,0,1.418-.434,1.961,1.961,0,0,0,.537-1.343Zm.909-.451a4.387,4.387,0,0,1,.424-1.962,3.1,3.1,0,0,1,1.22-1.333,3.56,3.56,0,0,1,1.849-.472,3.368,3.368,0,0,1,2.444.916,3.676,3.676,0,0,1,1.056,2.488l.014.506a3.866,3.866,0,0,1-.95,2.731A3.3,3.3,0,0,1-51.372.137,3.319,3.319,0,0,1-53.925-.889a3.934,3.934,0,0,1-.954-2.789Zm1.976.14a2.765,2.765,0,0,0,.4,1.612,1.308,1.308,0,0,0,1.135.558,1.311,1.311,0,0,0,1.121-.551,3.025,3.025,0,0,0,.4-1.763,2.737,2.737,0,0,0-.4-1.6,1.311,1.311,0,0,0-1.135-.568,1.29,1.29,0,0,0-1.121.565A3.076,3.076,0,0,0-52.9-3.626Zm8.066-3.77.062.854a2.582,2.582,0,0,1,2.126-.991,2.146,2.146,0,0,1,1.75.69,3.221,3.221,0,0,1,.588,2.064V0h-1.976V-4.73a1.282,1.282,0,0,0-.273-.913,1.224,1.224,0,0,0-.909-.284,1.359,1.359,0,0,0-1.251.711V0H-46.7V-7.4Zm10.028,5.353a.637.637,0,0,0-.359-.571,4.077,4.077,0,0,0-1.152-.373q-2.639-.554-2.639-2.242a2.032,2.032,0,0,1,.817-1.644A3.3,3.3,0,0,1-36-7.533a3.547,3.547,0,0,1,2.252.663,2.09,2.09,0,0,1,.844,1.723h-1.976a.956.956,0,0,0-.273-.7,1.157,1.157,0,0,0-.854-.277,1.182,1.182,0,0,0-.772.226.712.712,0,0,0-.273.574.609.609,0,0,0,.311.53,3.2,3.2,0,0,0,1.049.349,8.571,8.571,0,0,1,1.244.332,2.044,2.044,0,0,1,1.565,1.989,1.929,1.929,0,0,1-.868,1.637A3.745,3.745,0,0,1-36,.137a3.912,3.912,0,0,1-1.651-.332A2.77,2.77,0,0,1-38.78-1.1a2.113,2.113,0,0,1-.41-1.248h1.873a1.031,1.031,0,0,0,.39.807,1.546,1.546,0,0,0,.971.28A1.43,1.43,0,0,0-35.1-1.48.67.67,0,0,0-34.809-2.044Zm5.558-7.171V-7.4h1.265v1.449h-1.265v3.691a.881.881,0,0,0,.157.588.79.79,0,0,0,.6.178,3.151,3.151,0,0,0,.581-.048v1.5a4.067,4.067,0,0,1-1.2.178,1.886,1.886,0,0,1-2.119-2.1V-5.947h-1.08V-7.4h1.08V-9.215ZM-22.6,0a2.194,2.194,0,0,1-.2-.663,2.39,2.39,0,0,1-1.866.8,2.626,2.626,0,0,1-1.8-.629,2.023,2.023,0,0,1-.714-1.586,2.09,2.09,0,0,1,.872-1.8,4.3,4.3,0,0,1,2.519-.636h.909v-.424a1.219,1.219,0,0,0-.263-.82,1.035,1.035,0,0,0-.831-.308,1.177,1.177,0,0,0-.783.239.813.813,0,0,0-.284.656h-1.976a1.984,1.984,0,0,1,.4-1.189A2.621,2.621,0,0,1-25.5-7.222a4.086,4.086,0,0,1,1.627-.311,3.228,3.228,0,0,1,2.17.687,2.4,2.4,0,0,1,.8,1.931v3.206A3.536,3.536,0,0,0-20.6-.116V0Zm-1.634-1.374a1.7,1.7,0,0,0,.807-.195,1.28,1.28,0,0,0,.547-.523V-3.363h-.738q-1.483,0-1.579,1.025l-.007.116a.791.791,0,0,0,.26.608A1.009,1.009,0,0,0-24.233-1.374ZM-17.562-7.4l.062.854a2.582,2.582,0,0,1,2.126-.991,2.146,2.146,0,0,1,1.75.69,3.221,3.221,0,0,1,.588,2.064V0h-1.976V-4.73a1.282,1.282,0,0,0-.273-.913,1.224,1.224,0,0,0-.909-.284,1.359,1.359,0,0,0-1.251.711V0h-1.976V-7.4Zm8.388-1.818V-7.4h1.265v1.449H-9.174v3.691a.881.881,0,0,0,.157.588.79.79,0,0,0,.6.178,3.151,3.151,0,0,0,.581-.048v1.5a4.067,4.067,0,0,1-1.2.178,1.886,1.886,0,0,1-2.119-2.1V-5.947h-1.08V-7.4h1.08V-9.215ZM-3.4.137a3.631,3.631,0,0,1-2.649-1A3.548,3.548,0,0,1-7.075-3.521v-.191A4.468,4.468,0,0,1-6.645-5.7a3.161,3.161,0,0,1,1.22-1.354,3.425,3.425,0,0,1,1.8-.475,3.07,3.07,0,0,1,2.389.957A3.889,3.889,0,0,1-.362-3.862v.807h-4.71a1.835,1.835,0,0,0,.578,1.162,1.746,1.746,0,0,0,1.22.438A2.132,2.132,0,0,0-1.49-2.283L-.52-1.2a2.966,2.966,0,0,1-1.2.981A3.947,3.947,0,0,1-3.4.137ZM-3.63-5.94a1.234,1.234,0,0,0-.954.4A2.062,2.062,0,0,0-5.052-4.4H-2.3V-4.56a1.471,1.471,0,0,0-.355-1.02A1.274,1.274,0,0,0-3.63-5.94ZM-60.279,14.047l2.557,7.219,2.543-7.219h2.693V24h-2.058V21.279l.205-4.7L-57.025,24h-1.408l-2.68-7.41.205,4.689V24h-2.051V14.047Zm9.146,6.187a4.387,4.387,0,0,1,.424-1.962,3.1,3.1,0,0,1,1.22-1.333,3.56,3.56,0,0,1,1.849-.472,3.368,3.368,0,0,1,2.444.916,3.676,3.676,0,0,1,1.056,2.488l.014.506a3.866,3.866,0,0,1-.95,2.731,3.3,3.3,0,0,1-2.55,1.029,3.319,3.319,0,0,1-2.553-1.025,3.934,3.934,0,0,1-.954-2.789Zm1.976.14a2.765,2.765,0,0,0,.4,1.612,1.308,1.308,0,0,0,1.135.558,1.311,1.311,0,0,0,1.121-.551,3.025,3.025,0,0,0,.4-1.763,2.737,2.737,0,0,0-.4-1.6,1.311,1.311,0,0,0-1.135-.568,1.29,1.29,0,0,0-1.121.565A3.076,3.076,0,0,0-49.157,20.374Zm5.94-.127a4.457,4.457,0,0,1,.776-2.755,2.517,2.517,0,0,1,2.123-1.025,2.265,2.265,0,0,1,1.784.807V13.5h1.982V24h-1.784l-.1-.786a2.325,2.325,0,0,1-1.9.923,2.511,2.511,0,0,1-2.1-1.029A4.6,4.6,0,0,1-43.217,20.247Zm1.976.147a2.92,2.92,0,0,0,.362,1.6,1.18,1.18,0,0,0,1.053.555,1.322,1.322,0,0,0,1.292-.774V18.847a1.3,1.3,0,0,0-1.278-.774Q-41.241,18.073-41.241,20.394Zm9.625,3.743a3.631,3.631,0,0,1-2.649-1,3.548,3.548,0,0,1-1.022-2.659v-.191a4.468,4.468,0,0,1,.431-1.993,3.161,3.161,0,0,1,1.22-1.354,3.425,3.425,0,0,1,1.8-.475,3.07,3.07,0,0,1,2.389.957,3.889,3.889,0,0,1,.872,2.714v.807h-4.71a1.835,1.835,0,0,0,.578,1.162,1.746,1.746,0,0,0,1.22.438,2.132,2.132,0,0,0,1.784-.827l.971,1.087a2.966,2.966,0,0,1-1.2.981A3.947,3.947,0,0,1-31.616,24.137Zm-.226-6.077a1.234,1.234,0,0,0-.954.4,2.062,2.062,0,0,0-.468,1.14h2.748V19.44a1.471,1.471,0,0,0-.355-1.02A1.274,1.274,0,0,0-31.842,18.06Zm8.545.4a5.367,5.367,0,0,0-.711-.055,1.447,1.447,0,0,0-1.47.759V24h-1.976V16.6h1.866l.055.882a1.831,1.831,0,0,1,1.647-1.019,2.07,2.07,0,0,1,.615.089ZM-18.266,24a2.194,2.194,0,0,1-.2-.663,2.39,2.39,0,0,1-1.866.8,2.626,2.626,0,0,1-1.8-.629,2.023,2.023,0,0,1-.714-1.586,2.09,2.09,0,0,1,.872-1.8,4.3,4.3,0,0,1,2.519-.636h.909v-.424a1.219,1.219,0,0,0-.263-.82,1.035,1.035,0,0,0-.831-.308,1.177,1.177,0,0,0-.783.239.813.813,0,0,0-.284.656h-1.976a1.985,1.985,0,0,1,.4-1.189,2.621,2.621,0,0,1,1.121-.858,4.086,4.086,0,0,1,1.627-.311,3.228,3.228,0,0,1,2.17.687,2.4,2.4,0,0,1,.8,1.931v3.206a3.536,3.536,0,0,0,.294,1.593V24ZM-19.9,22.626a1.7,1.7,0,0,0,.807-.195,1.28,1.28,0,0,0,.547-.523V20.637h-.738q-1.483,0-1.579,1.025l-.007.116a.791.791,0,0,0,.26.608A1.009,1.009,0,0,0-19.9,22.626Zm4.546-2.379a4.457,4.457,0,0,1,.776-2.755,2.517,2.517,0,0,1,2.123-1.025,2.265,2.265,0,0,1,1.784.807V13.5h1.982V24h-1.784l-.1-.786a2.325,2.325,0,0,1-1.9.923,2.511,2.511,0,0,1-2.1-1.029A4.6,4.6,0,0,1-15.354,20.247Zm1.976.147a2.92,2.92,0,0,0,.362,1.6,1.18,1.18,0,0,0,1.053.555,1.322,1.322,0,0,0,1.292-.774V18.847a1.3,1.3,0,0,0-1.278-.774Q-13.378,18.073-13.378,20.394Zm5.913-.161a4.387,4.387,0,0,1,.424-1.962,3.1,3.1,0,0,1,1.22-1.333,3.56,3.56,0,0,1,1.849-.472,3.368,3.368,0,0,1,2.444.916A3.676,3.676,0,0,1-.472,19.871l.014.506a3.866,3.866,0,0,1-.95,2.731,3.3,3.3,0,0,1-2.55,1.029,3.319,3.319,0,0,1-2.553-1.025,3.934,3.934,0,0,1-.954-2.789Zm1.976.14a2.765,2.765,0,0,0,.4,1.612,1.308,1.308,0,0,0,1.135.558,1.311,1.311,0,0,0,1.121-.551,3.025,3.025,0,0,0,.4-1.763,2.737,2.737,0,0,0-.4-1.6,1.311,1.311,0,0,0-1.135-.568,1.29,1.29,0,0,0-1.121.565A3.076,3.076,0,0,0-5.489,20.374Zm-47.8,22.875a6.008,6.008,0,0,1-.52,2.577A3.913,3.913,0,0,1-55.3,47.535a4.113,4.113,0,0,1-2.218.6,4.141,4.141,0,0,1-2.208-.595,3.951,3.951,0,0,1-1.5-1.7,5.837,5.837,0,0,1-.54-2.54v-.492a5.977,5.977,0,0,1,.53-2.587,3.945,3.945,0,0,1,1.5-1.716,4.118,4.118,0,0,1,2.211-.6,4.118,4.118,0,0,1,2.211.6,3.945,3.945,0,0,1,1.5,1.716,5.96,5.96,0,0,1,.53,2.581Zm-2.078-.451a4.188,4.188,0,0,0-.561-2.379,1.827,1.827,0,0,0-1.6-.813,1.827,1.827,0,0,0-1.593.8,4.141,4.141,0,0,0-.567,2.355v.485a4.241,4.241,0,0,0,.561,2.365,1.822,1.822,0,0,0,1.613.841,1.806,1.806,0,0,0,1.586-.81,4.216,4.216,0,0,0,.561-2.362Zm6.515,3.746a1.3,1.3,0,0,0,.889-.3,1.054,1.054,0,0,0,.355-.8h1.853a2.534,2.534,0,0,1-.41,1.377,2.706,2.706,0,0,1-1.1.971,3.455,3.455,0,0,1-1.548.345,3.211,3.211,0,0,1-2.5-1.008,3.99,3.99,0,0,1-.916-2.786v-.13a3.944,3.944,0,0,1,.909-2.728,3.174,3.174,0,0,1,2.5-1.019,3.111,3.111,0,0,1,2.225.79,2.8,2.8,0,0,1,.851,2.1h-1.853a1.358,1.358,0,0,0-.355-.938,1.185,1.185,0,0,0-.9-.361,1.19,1.19,0,0,0-1.042.5,2.916,2.916,0,0,0-.352,1.633V44.4a2.953,2.953,0,0,0,.349,1.643A1.2,1.2,0,0,0-48.856,46.544ZM-40.346,48a2.194,2.194,0,0,1-.2-.663,2.39,2.39,0,0,1-1.866.8,2.626,2.626,0,0,1-1.8-.629,2.023,2.023,0,0,1-.714-1.586,2.09,2.09,0,0,1,.872-1.8,4.3,4.3,0,0,1,2.519-.636h.909v-.424a1.219,1.219,0,0,0-.263-.82,1.035,1.035,0,0,0-.831-.308,1.177,1.177,0,0,0-.783.239.813.813,0,0,0-.284.656h-1.976a1.984,1.984,0,0,1,.4-1.189,2.621,2.621,0,0,1,1.121-.858,4.086,4.086,0,0,1,1.627-.311,3.228,3.228,0,0,1,2.17.687,2.4,2.4,0,0,1,.8,1.931v3.206a3.536,3.536,0,0,0,.294,1.593V48Zm-1.634-1.374a1.7,1.7,0,0,0,.807-.195,1.28,1.28,0,0,0,.547-.523V44.637h-.738q-1.483,0-1.579,1.025l-.007.116a.791.791,0,0,0,.26.608A1.009,1.009,0,0,0-41.979,46.626Zm8.859-.67a.637.637,0,0,0-.359-.571,4.077,4.077,0,0,0-1.152-.373q-2.639-.554-2.639-2.242a2.032,2.032,0,0,1,.817-1.644,3.3,3.3,0,0,1,2.136-.66,3.547,3.547,0,0,1,2.252.663,2.09,2.09,0,0,1,.844,1.723H-33.2a.956.956,0,0,0-.273-.7,1.157,1.157,0,0,0-.854-.277,1.182,1.182,0,0,0-.772.226.712.712,0,0,0-.273.574.609.609,0,0,0,.311.53,3.2,3.2,0,0,0,1.049.349,8.57,8.57,0,0,1,1.244.332A2.044,2.044,0,0,1-31.2,45.874a1.929,1.929,0,0,1-.868,1.637,3.745,3.745,0,0,1-2.242.625,3.912,3.912,0,0,1-1.651-.332,2.77,2.77,0,0,1-1.131-.909,2.113,2.113,0,0,1-.41-1.248h1.873a1.031,1.031,0,0,0,.39.807,1.546,1.546,0,0,0,.971.28,1.43,1.43,0,0,0,.858-.215A.67.67,0,0,0-33.12,45.956ZM-27.843,48h-1.982V40.6h1.982Zm-2.1-9.311a.973.973,0,0,1,.3-.731,1.117,1.117,0,0,1,.81-.287,1.12,1.12,0,0,1,.807.287.967.967,0,0,1,.3.731.97.97,0,0,1-.3.738,1.122,1.122,0,0,1-.8.287,1.122,1.122,0,0,1-.8-.287A.97.97,0,0,1-29.941,38.689Zm3.418,5.544a4.387,4.387,0,0,1,.424-1.962,3.1,3.1,0,0,1,1.22-1.333,3.56,3.56,0,0,1,1.849-.472,3.368,3.368,0,0,1,2.444.916,3.676,3.676,0,0,1,1.056,2.488l.014.506a3.866,3.866,0,0,1-.95,2.731,3.3,3.3,0,0,1-2.55,1.029,3.319,3.319,0,0,1-2.553-1.025,3.934,3.934,0,0,1-.954-2.789Zm1.976.14a2.765,2.765,0,0,0,.4,1.612,1.308,1.308,0,0,0,1.135.558,1.311,1.311,0,0,0,1.121-.551,3.025,3.025,0,0,0,.4-1.763,2.737,2.737,0,0,0-.4-1.6,1.311,1.311,0,0,0-1.135-.568,1.29,1.29,0,0,0-1.121.565A3.076,3.076,0,0,0-24.548,44.374Zm8.066-3.77.062.854a2.582,2.582,0,0,1,2.126-.991,2.146,2.146,0,0,1,1.75.69,3.221,3.221,0,0,1,.588,2.064V48h-1.976V43.27a1.282,1.282,0,0,0-.273-.913,1.224,1.224,0,0,0-.909-.284,1.359,1.359,0,0,0-1.251.711V48h-1.976V40.6ZM-6.173,48a2.194,2.194,0,0,1-.2-.663,2.39,2.39,0,0,1-1.866.8,2.626,2.626,0,0,1-1.8-.629,2.023,2.023,0,0,1-.714-1.586,2.09,2.09,0,0,1,.872-1.8,4.3,4.3,0,0,1,2.519-.636h.909v-.424a1.219,1.219,0,0,0-.263-.82,1.035,1.035,0,0,0-.831-.308,1.177,1.177,0,0,0-.783.239.813.813,0,0,0-.284.656h-1.976a1.984,1.984,0,0,1,.4-1.189,2.621,2.621,0,0,1,1.121-.858,4.086,4.086,0,0,1,1.627-.311,3.228,3.228,0,0,1,2.17.687,2.4,2.4,0,0,1,.8,1.931v3.206a3.536,3.536,0,0,0,.294,1.593V48Zm-1.634-1.374A1.7,1.7,0,0,0-7,46.431a1.28,1.28,0,0,0,.547-.523V44.637h-.738q-1.483,0-1.579,1.025l-.007.116a.791.791,0,0,0,.26.608A1.009,1.009,0,0,0-7.807,46.626ZM-.868,48H-2.851V37.5H-.868ZM-43.989,68.493V72H-46.04V62.047h3.883a4.492,4.492,0,0,1,1.972.41,3.022,3.022,0,0,1,1.309,1.166,3.25,3.25,0,0,1,.458,1.719,2.858,2.858,0,0,1-1,2.307,4.171,4.171,0,0,1-2.772.844Zm0-1.661h1.832a1.8,1.8,0,0,0,1.241-.383,1.392,1.392,0,0,0,.427-1.094,1.642,1.642,0,0,0-.431-1.183,1.609,1.609,0,0,0-1.189-.465h-1.88Zm6.453,1.4a4.387,4.387,0,0,1,.424-1.962,3.1,3.1,0,0,1,1.22-1.333,3.56,3.56,0,0,1,1.849-.472,3.368,3.368,0,0,1,2.444.916,3.676,3.676,0,0,1,1.056,2.488l.014.506a3.866,3.866,0,0,1-.95,2.731,3.3,3.3,0,0,1-2.55,1.029,3.319,3.319,0,0,1-2.553-1.025,3.934,3.934,0,0,1-.954-2.789Zm1.976.14a2.765,2.765,0,0,0,.4,1.612,1.308,1.308,0,0,0,1.135.558,1.311,1.311,0,0,0,1.121-.551,3.025,3.025,0,0,0,.4-1.763,2.737,2.737,0,0,0-.4-1.6,1.311,1.311,0,0,0-1.135-.568,1.29,1.29,0,0,0-1.121.565A3.076,3.076,0,0,0-35.561,68.374Zm10.254,1.582a.637.637,0,0,0-.359-.571,4.077,4.077,0,0,0-1.152-.373q-2.639-.554-2.639-2.242a2.032,2.032,0,0,1,.817-1.644,3.3,3.3,0,0,1,2.136-.66,3.547,3.547,0,0,1,2.252.663,2.09,2.09,0,0,1,.844,1.723h-1.976a.956.956,0,0,0-.273-.7,1.157,1.157,0,0,0-.854-.277,1.182,1.182,0,0,0-.772.226.712.712,0,0,0-.273.574.609.609,0,0,0,.311.53,3.2,3.2,0,0,0,1.049.349,8.571,8.571,0,0,1,1.244.332,2.044,2.044,0,0,1,1.565,1.989,1.929,1.929,0,0,1-.868,1.637,3.745,3.745,0,0,1-2.242.625,3.912,3.912,0,0,1-1.651-.332,2.77,2.77,0,0,1-1.131-.909,2.113,2.113,0,0,1-.41-1.248h1.873a1.031,1.031,0,0,0,.39.807,1.546,1.546,0,0,0,.971.28,1.43,1.43,0,0,0,.858-.215A.67.67,0,0,0-25.307,69.956ZM-20.029,72h-1.982V64.6h1.982Zm-2.1-9.311a.973.973,0,0,1,.3-.731,1.117,1.117,0,0,1,.81-.287,1.12,1.12,0,0,1,.807.287.967.967,0,0,1,.3.731.97.97,0,0,1-.3.738,1.122,1.122,0,0,1-.8.287,1.122,1.122,0,0,1-.8-.287A.97.97,0,0,1-22.128,62.689Zm10.391,5.681a4.479,4.479,0,0,1-.759,2.772,2.513,2.513,0,0,1-2.119.995,2.309,2.309,0,0,1-1.921-.923l-.089.786H-18.4V61.5h1.976v3.767a2.25,2.25,0,0,1,1.8-.8,2.534,2.534,0,0,1,2.123.995,4.485,4.485,0,0,1,.769,2.8Zm-1.976-.144a2.942,2.942,0,0,0-.355-1.637,1.2,1.2,0,0,0-1.06-.516,1.3,1.3,0,0,0-1.3.772v2.919a1.321,1.321,0,0,0,1.313.779,1.22,1.22,0,0,0,1.258-.943A4.866,4.866,0,0,0-13.713,68.227ZM-8.436,72h-1.982V61.5h1.982Zm5.031.137a3.631,3.631,0,0,1-2.649-1,3.548,3.548,0,0,1-1.022-2.659v-.191A4.468,4.468,0,0,1-6.645,66.3a3.161,3.161,0,0,1,1.22-1.354,3.425,3.425,0,0,1,1.8-.475,3.07,3.07,0,0,1,2.389.957,3.889,3.889,0,0,1,.872,2.714v.807h-4.71a1.835,1.835,0,0,0,.578,1.162,1.746,1.746,0,0,0,1.22.438,2.132,2.132,0,0,0,1.784-.827L-.52,70.8a2.966,2.966,0,0,1-1.2.981A3.947,3.947,0,0,1-3.4,72.137ZM-3.63,66.06a1.234,1.234,0,0,0-.954.4,2.062,2.062,0,0,0-.468,1.14H-2.3V67.44a1.471,1.471,0,0,0-.355-1.02A1.274,1.274,0,0,0-3.63,66.06ZM-68.339,96H-70.39V86.047h2.051Zm3.623-7.4.062.827a2.6,2.6,0,0,1,2.126-.964,1.973,1.973,0,0,1,1.962,1.128,2.54,2.54,0,0,1,2.222-1.128,2.206,2.206,0,0,1,1.791.7,3.221,3.221,0,0,1,.588,2.109V96h-1.982V91.283a1.408,1.408,0,0,0-.246-.919,1.091,1.091,0,0,0-.868-.291,1.233,1.233,0,0,0-1.23.848L-60.286,96h-1.976V91.29a1.391,1.391,0,0,0-.253-.93,1.1,1.1,0,0,0-.861-.287,1.28,1.28,0,0,0-1.217.7V96h-1.976V88.6ZM-47.79,92.37a4.436,4.436,0,0,1-.776,2.738,2.488,2.488,0,0,1-2.1,1.029,2.3,2.3,0,0,1-1.812-.779v3.486h-1.976V88.6h1.832l.068.725a2.322,2.322,0,0,1,1.873-.861,2.5,2.5,0,0,1,2.126,1.012,4.556,4.556,0,0,1,.759,2.789Zm-1.976-.144a2.911,2.911,0,0,0-.366-1.593,1.191,1.191,0,0,0-1.063-.561,1.294,1.294,0,0,0-1.278.711v3.028a1.316,1.316,0,0,0,1.292.731Q-49.766,94.544-49.766,92.227Zm7.355-1.771a5.367,5.367,0,0,0-.711-.055,1.447,1.447,0,0,0-1.47.759V96h-1.976V88.6H-44.7l.055.882A1.831,1.831,0,0,1-43,88.467a2.07,2.07,0,0,1,.615.089Zm.4,1.777a4.387,4.387,0,0,1,.424-1.962,3.1,3.1,0,0,1,1.22-1.333,3.56,3.56,0,0,1,1.849-.472,3.368,3.368,0,0,1,2.444.916,3.676,3.676,0,0,1,1.056,2.488l.014.506a3.866,3.866,0,0,1-.95,2.731,3.3,3.3,0,0,1-2.55,1.029,3.319,3.319,0,0,1-2.553-1.025,3.934,3.934,0,0,1-.954-2.789Zm1.976.14a2.765,2.765,0,0,0,.4,1.612,1.308,1.308,0,0,0,1.135.558,1.311,1.311,0,0,0,1.121-.551,3.025,3.025,0,0,0,.4-1.763,2.737,2.737,0,0,0-.4-1.6,1.311,1.311,0,0,0-1.135-.568,1.29,1.29,0,0,0-1.121.565A3.076,3.076,0,0,0-40.038,92.374Zm12.913,0a4.479,4.479,0,0,1-.759,2.772A2.513,2.513,0,0,1-30,96.137a2.309,2.309,0,0,1-1.921-.923l-.089.786H-33.79V85.5h1.976v3.767a2.25,2.25,0,0,1,1.8-.8,2.534,2.534,0,0,1,2.123.995,4.485,4.485,0,0,1,.769,2.8Zm-1.976-.144a2.942,2.942,0,0,0-.355-1.637,1.2,1.2,0,0,0-1.06-.516,1.3,1.3,0,0,0-1.3.772v2.919a1.321,1.321,0,0,0,1.313.779,1.22,1.22,0,0,0,1.258-.943A4.866,4.866,0,0,0-29.1,92.227ZM-21.622,96a2.194,2.194,0,0,1-.2-.663,2.39,2.39,0,0,1-1.866.8,2.626,2.626,0,0,1-1.8-.629,2.023,2.023,0,0,1-.714-1.586,2.09,2.09,0,0,1,.872-1.8,4.3,4.3,0,0,1,2.519-.636h.909v-.424a1.219,1.219,0,0,0-.263-.82A1.035,1.035,0,0,0-23,89.93a1.177,1.177,0,0,0-.783.239.813.813,0,0,0-.284.656h-1.976a1.985,1.985,0,0,1,.4-1.189,2.621,2.621,0,0,1,1.121-.858,4.086,4.086,0,0,1,1.627-.311,3.228,3.228,0,0,1,2.17.687,2.4,2.4,0,0,1,.8,1.931v3.206a3.536,3.536,0,0,0,.294,1.593V96Zm-1.634-1.374a1.7,1.7,0,0,0,.807-.195,1.28,1.28,0,0,0,.547-.523V92.637h-.738q-1.483,0-1.579,1.025l-.007.116a.791.791,0,0,0,.26.608A1.009,1.009,0,0,0-23.256,94.626Zm11.519-2.256a4.479,4.479,0,0,1-.759,2.772,2.513,2.513,0,0,1-2.119.995,2.309,2.309,0,0,1-1.921-.923l-.089.786H-18.4V85.5h1.976v3.767a2.25,2.25,0,0,1,1.8-.8,2.534,2.534,0,0,1,2.123.995,4.485,4.485,0,0,1,.769,2.8Zm-1.976-.144a2.942,2.942,0,0,0-.355-1.637,1.2,1.2,0,0,0-1.06-.516,1.3,1.3,0,0,0-1.3.772v2.919a1.321,1.321,0,0,0,1.313.779,1.22,1.22,0,0,0,1.258-.943A4.866,4.866,0,0,0-13.713,92.227ZM-8.436,96h-1.982V85.5h1.982Zm5.031.137a3.631,3.631,0,0,1-2.649-1,3.548,3.548,0,0,1-1.022-2.659v-.191A4.468,4.468,0,0,1-6.645,90.3a3.161,3.161,0,0,1,1.22-1.354,3.425,3.425,0,0,1,1.8-.475,3.07,3.07,0,0,1,2.389.957,3.889,3.889,0,0,1,.872,2.714v.807h-4.71a1.835,1.835,0,0,0,.578,1.162,1.746,1.746,0,0,0,1.22.438,2.132,2.132,0,0,0,1.784-.827L-.52,94.8a2.966,2.966,0,0,1-1.2.981A3.947,3.947,0,0,1-3.4,96.137ZM-3.63,90.06a1.234,1.234,0,0,0-.954.4,2.062,2.062,0,0,0-.468,1.14H-2.3V91.44a1.471,1.471,0,0,0-.355-1.02A1.274,1.274,0,0,0-3.63,90.06Z" transform="translate(1288 10568.202)" fill="#12263f"/>
    <path id="Trazado_614238" data-name="Trazado 614238" d="M-76.857,0h-1.9V-9.242h1.9Zm3.333-6.868.057.793A2.4,2.4,0,0,1-71.494-7a1.993,1.993,0,0,1,1.625.641,2.991,2.991,0,0,1,.546,1.917V0h-1.834V-4.393a1.19,1.19,0,0,0-.254-.847,1.137,1.137,0,0,0-.844-.263,1.262,1.262,0,0,0-1.162.66V0h-1.834V-6.868Zm9.312,4.97a.591.591,0,0,0-.333-.53,3.785,3.785,0,0,0-1.07-.346q-2.45-.514-2.45-2.082a1.887,1.887,0,0,1,.759-1.527A3.06,3.06,0,0,1-65.324-7a3.293,3.293,0,0,1,2.092.616,1.94,1.94,0,0,1,.784,1.6h-1.834a.888.888,0,0,0-.254-.651,1.075,1.075,0,0,0-.793-.257,1.1,1.1,0,0,0-.717.209.661.661,0,0,0-.254.533.565.565,0,0,0,.289.492,2.971,2.971,0,0,0,.974.324,7.958,7.958,0,0,1,1.155.308,1.9,1.9,0,0,1,1.454,1.847,1.792,1.792,0,0,1-.806,1.52,3.478,3.478,0,0,1-2.082.581A3.632,3.632,0,0,1-66.85-.181,2.572,2.572,0,0,1-67.9-1.025a1.962,1.962,0,0,1-.381-1.158h1.739a.958.958,0,0,0,.362.749,1.435,1.435,0,0,0,.9.26,1.328,1.328,0,0,0,.8-.2A.622.622,0,0,0-64.213-1.9Zm4.9,1.9h-1.841V-6.868h1.841Zm-1.949-8.646a.9.9,0,0,1,.276-.679,1.037,1.037,0,0,1,.752-.267,1.04,1.04,0,0,1,.749.267.9.9,0,0,1,.279.679.9.9,0,0,1-.282.686,1.042,1.042,0,0,1-.746.267,1.042,1.042,0,0,1-.746-.267A.9.9,0,0,1-61.261-8.646Zm3.193,5.161a4.025,4.025,0,0,1,.752-2.545A2.437,2.437,0,0,1-55.288-7a2.138,2.138,0,0,1,1.758.774l.076-.647h1.663v6.64A2.935,2.935,0,0,1-52.2,1.339a2.629,2.629,0,0,1-1.152,1.016,4.05,4.05,0,0,1-1.739.349,3.766,3.766,0,0,1-1.473-.3,2.614,2.614,0,0,1-1.085-.778l.813-1.117a2.149,2.149,0,0,0,1.663.768,1.573,1.573,0,0,0,1.136-.39,1.464,1.464,0,0,0,.406-1.108V-.59A2.122,2.122,0,0,1-55.3.127a2.431,2.431,0,0,1-2-.968,4.024,4.024,0,0,1-.765-2.568Zm1.834.137a2.506,2.506,0,0,0,.375,1.465,1.191,1.191,0,0,0,1.028.531,1.274,1.274,0,0,0,1.2-.629V-4.874A1.271,1.271,0,0,0-54.818-5.5a1.2,1.2,0,0,0-1.038.54A2.825,2.825,0,0,0-56.234-3.348Zm7.541-3.52.057.793A2.4,2.4,0,0,1-46.662-7a1.993,1.993,0,0,1,1.625.641,2.991,2.991,0,0,1,.546,1.917V0h-1.834V-4.393a1.19,1.19,0,0,0-.254-.847,1.137,1.137,0,0,0-.844-.263,1.262,1.262,0,0,0-1.162.66V0h-1.834V-6.868ZM-41.165,0h-1.841V-6.868h1.841Zm-1.949-8.646a.9.9,0,0,1,.276-.679,1.037,1.037,0,0,1,.752-.267,1.04,1.04,0,0,1,.749.267.9.9,0,0,1,.279.679.9.9,0,0,1-.282.686,1.042,1.042,0,0,1-.746.267,1.042,1.042,0,0,1-.746-.267A.9.9,0,0,1-43.113-8.646ZM-39.209,0V-5.522h-1.022V-6.868h1.022v-.317a2.576,2.576,0,0,1,.8-2,3.205,3.205,0,0,1,2.212-.7,7.338,7.338,0,0,1,2.082.375l-.267,1.517a8.123,8.123,0,0,0-.965-.238,4.741,4.741,0,0,0-.736-.054q-1.282,0-1.282,1.136v.279h1.352v1.346h-1.352V0Zm5.948,0H-35.1V-6.868h1.841Zm4.374-1.352a1.2,1.2,0,0,0,.825-.279.979.979,0,0,0,.33-.743h1.72a2.353,2.353,0,0,1-.381,1.279,2.513,2.513,0,0,1-1.025.9,3.208,3.208,0,0,1-1.438.321A2.982,2.982,0,0,1-31.18-.809,3.705,3.705,0,0,1-32.03-3.4v-.121a3.663,3.663,0,0,1,.844-2.533A2.947,2.947,0,0,1-28.869-7a2.889,2.889,0,0,1,2.066.733,2.6,2.6,0,0,1,.79,1.952h-1.72a1.261,1.261,0,0,0-.33-.871,1.1,1.1,0,0,0-.838-.335,1.1,1.1,0,0,0-.968.467A2.708,2.708,0,0,0-30.2-3.533v.191a2.742,2.742,0,0,0,.324,1.526A1.119,1.119,0,0,0-28.888-1.352ZM-20.985,0a2.037,2.037,0,0,1-.184-.616A2.22,2.22,0,0,1-22.9.127a2.439,2.439,0,0,1-1.673-.584,1.878,1.878,0,0,1-.663-1.473,1.941,1.941,0,0,1,.809-1.676A3.994,3.994,0,0,1-22.09-4.2h.844v-.394a1.132,1.132,0,0,0-.244-.762.961.961,0,0,0-.771-.286,1.093,1.093,0,0,0-.727.222.755.755,0,0,0-.263.609h-1.834a1.843,1.843,0,0,1,.368-1.1,2.434,2.434,0,0,1,1.041-.8A3.794,3.794,0,0,1-22.166-7a3,3,0,0,1,2.015.638A2.232,2.232,0,0,1-19.4-4.564v2.977a3.284,3.284,0,0,0,.273,1.479V0ZM-22.5-1.276a1.58,1.58,0,0,0,.749-.181,1.188,1.188,0,0,0,.508-.486V-3.123h-.686q-1.377,0-1.466.952l-.006.108a.734.734,0,0,0,.241.565A.937.937,0,0,0-22.5-1.276Zm6.2-5.592.057.793A2.4,2.4,0,0,1-14.276-7a1.993,1.993,0,0,1,1.625.641A2.991,2.991,0,0,1-12.1-4.437V0h-1.834V-4.393a1.19,1.19,0,0,0-.254-.847,1.137,1.137,0,0,0-.844-.263,1.262,1.262,0,0,0-1.162.66V0h-1.834V-6.868Zm7.789-1.688v1.688h1.174v1.346H-8.519v3.428a.818.818,0,0,0,.146.546.733.733,0,0,0,.559.165,2.925,2.925,0,0,0,.54-.044v1.39A3.777,3.777,0,0,1-8.385.127a1.752,1.752,0,0,1-1.968-1.949v-3.7h-1V-6.868h1V-8.557ZM-3.161.127A3.372,3.372,0,0,1-5.621-.8,3.294,3.294,0,0,1-6.57-3.269v-.178a4.149,4.149,0,0,1,.4-1.85A2.935,2.935,0,0,1-5.037-6.554,3.18,3.18,0,0,1-3.364-7a2.85,2.85,0,0,1,2.219.889,3.611,3.611,0,0,1,.809,2.52v.749H-4.71a1.7,1.7,0,0,0,.536,1.079,1.621,1.621,0,0,0,1.133.406A1.98,1.98,0,0,0-1.384-2.12l.9,1.009A2.754,2.754,0,0,1-1.6-.2,3.665,3.665,0,0,1-3.161.127Zm-.209-5.643a1.146,1.146,0,0,0-.885.37,1.915,1.915,0,0,0-.435,1.058h2.552v-.147a1.366,1.366,0,0,0-.33-.947A1.183,1.183,0,0,0-3.371-5.516Z" transform="translate(1349 10696.202)" fill="#12263f"/>
    <path id="Trazado_614239" data-name="Trazado 614239" d="M-34.474-9.242l2.374,6.7,2.361-6.7h2.5V0h-1.911V-2.526l.19-4.361L-31.453,0H-32.76l-2.488-6.881.19,4.354V0h-1.9V-9.242ZM-22.534.127A3.372,3.372,0,0,1-24.994-.8a3.294,3.294,0,0,1-.949-2.469v-.178a4.149,4.149,0,0,1,.4-1.85A2.935,2.935,0,0,1-24.41-6.554,3.18,3.18,0,0,1-22.737-7a2.85,2.85,0,0,1,2.219.889,3.611,3.611,0,0,1,.809,2.52v.749h-4.374a1.7,1.7,0,0,0,.536,1.079,1.621,1.621,0,0,0,1.133.406,1.98,1.98,0,0,0,1.657-.768l.9,1.009A2.754,2.754,0,0,1-20.973-.2,3.665,3.665,0,0,1-22.534.127Zm-.209-5.643a1.146,1.146,0,0,0-.885.37,1.915,1.915,0,0,0-.435,1.058h2.552v-.147a1.366,1.366,0,0,0-.33-.947A1.183,1.183,0,0,0-22.744-5.516Zm5.764-1.352.057.793A2.4,2.4,0,0,1-14.949-7a1.993,1.993,0,0,1,1.625.641,2.991,2.991,0,0,1,.546,1.917V0h-1.834V-4.393a1.19,1.19,0,0,0-.254-.847A1.137,1.137,0,0,0-15.71-5.5a1.262,1.262,0,0,0-1.162.66V0h-1.834V-6.868ZM-11.673-3.5a4.073,4.073,0,0,1,.394-1.822,2.881,2.881,0,0,1,1.133-1.238A3.306,3.306,0,0,1-8.43-7a3.127,3.127,0,0,1,2.269.851A3.414,3.414,0,0,1-5.18-3.834l.013.47A3.59,3.59,0,0,1-6.049-.828,3.067,3.067,0,0,1-8.417.127a3.082,3.082,0,0,1-2.371-.952,3.653,3.653,0,0,1-.885-2.59Zm1.834.13a2.567,2.567,0,0,0,.368,1.5,1.215,1.215,0,0,0,1.054.518,1.217,1.217,0,0,0,1.041-.512A2.809,2.809,0,0,0-7-3.5a2.542,2.542,0,0,0-.375-1.488A1.217,1.217,0,0,0-8.43-5.516a1.2,1.2,0,0,0-1.041.524A2.857,2.857,0,0,0-9.839-3.367ZM-.178-5.148A4.984,4.984,0,0,0-.838-5.2a1.344,1.344,0,0,0-1.365.7V0H-4.037V-6.868H-2.3l.051.819A1.7,1.7,0,0,1-.724-7a1.922,1.922,0,0,1,.571.083Z" transform="translate(1397 10696.202)" fill="#12263f"/>
    <path id="Trazado_614240" data-name="Trazado 614240" d="M-30.316-3.079a3.27,3.27,0,0,1-1.1,2.349,3.868,3.868,0,0,1-2.618.857,3.478,3.478,0,0,1-2.8-1.2,4.906,4.906,0,0,1-1.019-3.285v-.565a5.54,5.54,0,0,1,.47-2.349,3.52,3.52,0,0,1,1.343-1.558,3.761,3.761,0,0,1,2.028-.543,3.768,3.768,0,0,1,2.577.857A3.515,3.515,0,0,1-30.3-6.106h-1.9a1.93,1.93,0,0,0-.5-1.3,1.845,1.845,0,0,0-1.3-.4,1.618,1.618,0,0,0-1.425.682,3.824,3.824,0,0,0-.486,2.117v.7a4.093,4.093,0,0,0,.454,2.19,1.588,1.588,0,0,0,1.431.692,1.88,1.88,0,0,0,1.317-.4,1.821,1.821,0,0,0,.5-1.247Zm4.989-2.069a4.984,4.984,0,0,0-.66-.051,1.344,1.344,0,0,0-1.365.7V0h-1.834V-6.868h1.733l.051.819A1.7,1.7,0,0,1-25.873-7a1.922,1.922,0,0,1,.571.083ZM-22.464,0H-24.3V-6.868h1.834ZM-23-9.655h2l-1.758,1.968h-1.492Zm4.316,1.1v1.688h1.174v1.346h-1.174v3.428a.818.818,0,0,0,.146.546.733.733,0,0,0,.559.165,2.925,2.925,0,0,0,.54-.044v1.39a3.777,3.777,0,0,1-1.111.165,1.752,1.752,0,0,1-1.968-1.949v-3.7h-1V-6.868h1V-8.557ZM-14.555,0H-16.4V-6.868h1.841ZM-16.5-8.646a.9.9,0,0,1,.276-.679,1.037,1.037,0,0,1,.752-.267,1.04,1.04,0,0,1,.749.267.9.9,0,0,1,.279.679.9.9,0,0,1-.282.686,1.042,1.042,0,0,1-.746.267,1.042,1.042,0,0,1-.746-.267A.9.9,0,0,1-16.5-8.646Zm6.316,7.293a1.2,1.2,0,0,0,.825-.279.979.979,0,0,0,.33-.743h1.72a2.353,2.353,0,0,1-.381,1.279,2.513,2.513,0,0,1-1.025.9,3.208,3.208,0,0,1-1.438.321,2.982,2.982,0,0,1-2.323-.936A3.705,3.705,0,0,1-13.33-3.4v-.121a3.663,3.663,0,0,1,.844-2.533A2.947,2.947,0,0,1-10.169-7,2.889,2.889,0,0,1-8.1-6.262a2.6,2.6,0,0,1,.79,1.952h-1.72a1.261,1.261,0,0,0-.33-.871,1.1,1.1,0,0,0-.838-.335,1.1,1.1,0,0,0-.968.467A2.708,2.708,0,0,0-11.5-3.533v.191a2.742,2.742,0,0,0,.324,1.526A1.119,1.119,0,0,0-10.188-1.352ZM-2.285,0a2.037,2.037,0,0,1-.184-.616A2.22,2.22,0,0,1-4.2.127,2.439,2.439,0,0,1-5.875-.457,1.878,1.878,0,0,1-6.538-1.93a1.941,1.941,0,0,1,.809-1.676A3.994,3.994,0,0,1-3.39-4.2h.844v-.394a1.132,1.132,0,0,0-.244-.762.961.961,0,0,0-.771-.286,1.093,1.093,0,0,0-.727.222.755.755,0,0,0-.263.609H-6.386a1.843,1.843,0,0,1,.368-1.1,2.434,2.434,0,0,1,1.041-.8A3.794,3.794,0,0,1-3.466-7a3,3,0,0,1,2.015.638A2.232,2.232,0,0,1-.7-4.564v2.977A3.284,3.284,0,0,0-.432-.108V0ZM-3.8-1.276a1.58,1.58,0,0,0,.749-.181,1.188,1.188,0,0,0,.508-.486V-3.123h-.686q-1.377,0-1.466.952l-.006.108a.734.734,0,0,0,.241.565A.937.937,0,0,0-3.8-1.276Z" transform="translate(1451 10696.202)" fill="#12263f"/>
    <path id="Trazado_614241" data-name="Trazado 614241" d="M-33.471-9.242l2.374,6.7,2.361-6.7h2.5V0h-1.911V-2.526l.19-4.361L-30.45,0h-1.308l-2.488-6.881.19,4.354V0h-1.9V-9.242ZM-20.712,0A2.037,2.037,0,0,1-20.9-.616a2.22,2.22,0,0,1-1.733.743A2.439,2.439,0,0,1-24.3-.457a1.878,1.878,0,0,1-.663-1.473,1.941,1.941,0,0,1,.809-1.676,3.994,3.994,0,0,1,2.339-.59h.844v-.394a1.132,1.132,0,0,0-.244-.762.961.961,0,0,0-.771-.286,1.093,1.093,0,0,0-.727.222.755.755,0,0,0-.263.609h-1.834a1.843,1.843,0,0,1,.368-1.1,2.434,2.434,0,0,1,1.041-.8A3.794,3.794,0,0,1-21.893-7a3,3,0,0,1,2.015.638,2.232,2.232,0,0,1,.746,1.793v2.977a3.284,3.284,0,0,0,.273,1.479V0Zm-1.517-1.276a1.58,1.58,0,0,0,.749-.181,1.188,1.188,0,0,0,.508-.486V-3.123h-.686q-1.377,0-1.466.952l-.006.108a.734.734,0,0,0,.241.565A.937.937,0,0,0-22.229-1.276Zm6.976-1.32,1.27-4.272h1.968l-2.761,7.935-.152.362a2.094,2.094,0,0,1-2.031,1.346,2.886,2.886,0,0,1-.812-.121V1.263l.279.006a1.509,1.509,0,0,0,.778-.159,1.043,1.043,0,0,0,.4-.527L-16.1.019-18.5-6.868h1.974Zm3.58-.9a4.073,4.073,0,0,1,.394-1.822,2.881,2.881,0,0,1,1.133-1.238A3.306,3.306,0,0,1-8.43-7a3.127,3.127,0,0,1,2.269.851A3.414,3.414,0,0,1-5.18-3.834l.013.47A3.59,3.59,0,0,1-6.049-.828,3.067,3.067,0,0,1-8.417.127a3.082,3.082,0,0,1-2.371-.952,3.653,3.653,0,0,1-.885-2.59Zm1.834.13a2.567,2.567,0,0,0,.368,1.5,1.215,1.215,0,0,0,1.054.518,1.217,1.217,0,0,0,1.041-.512A2.809,2.809,0,0,0-7-3.5a2.542,2.542,0,0,0-.375-1.488A1.217,1.217,0,0,0-8.43-5.516a1.2,1.2,0,0,0-1.041.524A2.857,2.857,0,0,0-9.839-3.367ZM-.178-5.148A4.984,4.984,0,0,0-.838-5.2a1.344,1.344,0,0,0-1.365.7V0H-4.037V-6.868H-2.3l.051.819A1.7,1.7,0,0,1-.724-7a1.922,1.922,0,0,1,.571.083Z" transform="translate(1502 10696.202)" fill="#12263f"/>
    <path id="Trazado_614242" data-name="Trazado 614242" d="M-63.737-3.079a3.27,3.27,0,0,1-1.1,2.349,3.868,3.868,0,0,1-2.618.857,3.478,3.478,0,0,1-2.8-1.2,4.906,4.906,0,0,1-1.019-3.285v-.565a5.54,5.54,0,0,1,.47-2.349,3.52,3.52,0,0,1,1.343-1.558,3.761,3.761,0,0,1,2.028-.543,3.768,3.768,0,0,1,2.577.857,3.515,3.515,0,0,1,1.13,2.406h-1.9a1.93,1.93,0,0,0-.5-1.3,1.845,1.845,0,0,0-1.3-.4,1.618,1.618,0,0,0-1.425.682,3.824,3.824,0,0,0-.486,2.117v.7a4.093,4.093,0,0,0,.454,2.19,1.588,1.588,0,0,0,1.431.692,1.88,1.88,0,0,0,1.317-.4,1.821,1.821,0,0,0,.5-1.247ZM-58.627,0a2.037,2.037,0,0,1-.184-.616,2.22,2.22,0,0,1-1.733.743,2.439,2.439,0,0,1-1.673-.584A1.878,1.878,0,0,1-62.88-1.93a1.941,1.941,0,0,1,.809-1.676,3.994,3.994,0,0,1,2.339-.59h.844v-.394a1.132,1.132,0,0,0-.244-.762.961.961,0,0,0-.771-.286,1.093,1.093,0,0,0-.727.222.755.755,0,0,0-.263.609h-1.834a1.843,1.843,0,0,1,.368-1.1,2.434,2.434,0,0,1,1.041-.8A3.794,3.794,0,0,1-59.808-7a3,3,0,0,1,2.015.638,2.232,2.232,0,0,1,.746,1.793v2.977a3.284,3.284,0,0,0,.273,1.479V0Zm-1.517-1.276a1.58,1.58,0,0,0,.749-.181,1.188,1.188,0,0,0,.508-.486V-3.123h-.686q-1.377,0-1.466.952l-.006.108A.734.734,0,0,0-60.8-1.5.937.937,0,0,0-60.144-1.276Zm6.7-7.281v1.688h1.174v1.346h-1.174v3.428a.818.818,0,0,0,.146.546.733.733,0,0,0,.559.165,2.925,2.925,0,0,0,.54-.044v1.39a3.777,3.777,0,0,1-1.111.165,1.752,1.752,0,0,1-1.968-1.949v-3.7h-1V-6.868h1V-8.557ZM-47.265,0a2.037,2.037,0,0,1-.184-.616,2.22,2.22,0,0,1-1.733.743,2.439,2.439,0,0,1-1.673-.584,1.878,1.878,0,0,1-.663-1.473,1.941,1.941,0,0,1,.809-1.676,3.994,3.994,0,0,1,2.339-.59h.844v-.394a1.132,1.132,0,0,0-.244-.762.961.961,0,0,0-.771-.286,1.093,1.093,0,0,0-.727.222.755.755,0,0,0-.263.609h-1.834A1.843,1.843,0,0,1-51-5.91a2.434,2.434,0,0,1,1.041-.8A3.794,3.794,0,0,1-48.445-7a3,3,0,0,1,2.015.638,2.232,2.232,0,0,1,.746,1.793v2.977a3.284,3.284,0,0,0,.273,1.479V0Zm-1.517-1.276a1.58,1.58,0,0,0,.749-.181,1.188,1.188,0,0,0,.508-.486V-3.123h-.686q-1.377,0-1.466.952l-.006.108a.734.734,0,0,0,.241.565A.937.937,0,0,0-48.782-1.276Zm8.227-.622a.591.591,0,0,0-.333-.53,3.785,3.785,0,0,0-1.07-.346q-2.45-.514-2.45-2.082a1.887,1.887,0,0,1,.759-1.527A3.06,3.06,0,0,1-41.666-7a3.293,3.293,0,0,1,2.092.616,1.94,1.94,0,0,1,.784,1.6h-1.834a.888.888,0,0,0-.254-.651,1.075,1.075,0,0,0-.793-.257,1.1,1.1,0,0,0-.717.209.661.661,0,0,0-.254.533.565.565,0,0,0,.289.492,2.971,2.971,0,0,0,.974.324,7.959,7.959,0,0,1,1.155.308,1.9,1.9,0,0,1,1.454,1.847,1.792,1.792,0,0,1-.806,1.52A3.478,3.478,0,0,1-41.66.127a3.632,3.632,0,0,1-1.533-.308,2.572,2.572,0,0,1-1.051-.844,1.962,1.962,0,0,1-.381-1.158h1.739a.958.958,0,0,0,.362.749,1.435,1.435,0,0,0,.9.26,1.328,1.328,0,0,0,.8-.2A.622.622,0,0,0-40.555-1.9Zm5.161-6.659v1.688h1.174v1.346h-1.174v3.428a.818.818,0,0,0,.146.546.733.733,0,0,0,.559.165,2.925,2.925,0,0,0,.54-.044v1.39a3.777,3.777,0,0,1-1.111.165,1.752,1.752,0,0,1-1.968-1.949v-3.7h-1V-6.868h1V-8.557Zm6.056,3.409A4.984,4.984,0,0,0-30-5.2a1.344,1.344,0,0,0-1.365.7V0H-33.2V-6.868h1.733l.051.819A1.7,1.7,0,0,1-29.885-7a1.922,1.922,0,0,1,.571.083Zm.368,1.65a4.073,4.073,0,0,1,.394-1.822,2.881,2.881,0,0,1,1.133-1.238A3.306,3.306,0,0,1-25.727-7a3.127,3.127,0,0,1,2.269.851,3.414,3.414,0,0,1,.981,2.311l.013.47a3.59,3.59,0,0,1-.882,2.536,3.067,3.067,0,0,1-2.368.955,3.082,3.082,0,0,1-2.371-.952,3.653,3.653,0,0,1-.885-2.59Zm1.834.13a2.567,2.567,0,0,0,.368,1.5,1.215,1.215,0,0,0,1.054.518,1.217,1.217,0,0,0,1.041-.512A2.809,2.809,0,0,0-24.3-3.5a2.542,2.542,0,0,0-.375-1.488,1.217,1.217,0,0,0-1.054-.528,1.2,1.2,0,0,0-1.041.524A2.857,2.857,0,0,0-27.136-3.367Zm1.771-6.383h2l-1.758,1.968h-1.492ZM-20.89,0V-5.522h-1.022V-6.868h1.022v-.317a2.576,2.576,0,0,1,.8-2,3.205,3.205,0,0,1,2.212-.7,7.338,7.338,0,0,1,2.082.375l-.267,1.517a8.123,8.123,0,0,0-.965-.238,4.741,4.741,0,0,0-.736-.054q-1.282,0-1.282,1.136v.279H-17.7v1.346h-1.352V0Zm5.948,0h-1.841V-6.868h1.841Zm4.374-1.352a1.2,1.2,0,0,0,.825-.279.979.979,0,0,0,.33-.743h1.72a2.353,2.353,0,0,1-.381,1.279,2.513,2.513,0,0,1-1.025.9,3.208,3.208,0,0,1-1.438.321A2.982,2.982,0,0,1-12.86-.809,3.705,3.705,0,0,1-13.711-3.4v-.121a3.663,3.663,0,0,1,.844-2.533A2.947,2.947,0,0,1-10.55-7a2.889,2.889,0,0,1,2.066.733,2.6,2.6,0,0,1,.79,1.952h-1.72a1.261,1.261,0,0,0-.33-.871,1.1,1.1,0,0,0-.838-.335,1.1,1.1,0,0,0-.968.467,2.708,2.708,0,0,0-.327,1.516v.191a2.742,2.742,0,0,0,.324,1.526A1.119,1.119,0,0,0-10.569-1.352ZM-6.932-3.5a4.073,4.073,0,0,1,.394-1.822A2.881,2.881,0,0,1-5.405-6.557,3.306,3.306,0,0,1-3.688-7a3.128,3.128,0,0,1,2.269.851A3.414,3.414,0,0,1-.438-3.834l.013.47A3.59,3.59,0,0,1-1.308-.828,3.067,3.067,0,0,1-3.675.127,3.082,3.082,0,0,1-6.046-.825a3.653,3.653,0,0,1-.885-2.59Zm1.834.13a2.567,2.567,0,0,0,.368,1.5,1.215,1.215,0,0,0,1.054.518,1.217,1.217,0,0,0,1.041-.512A2.809,2.809,0,0,0-2.26-3.5a2.542,2.542,0,0,0-.375-1.488,1.217,1.217,0,0,0-1.054-.528,1.2,1.2,0,0,0-1.041.524A2.857,2.857,0,0,0-5.1-3.367Z" transform="translate(1580 10696.026)" fill="#12263f"/>
    <g id="Rectángulo_380511" data-name="Rectángulo 380511" transform="translate(1296 10579.202)" fill="#59c433" stroke="#707070" stroke-width="1">
      <rect width="56.181" height="24" stroke="none"/>
      <rect x="0.5" y="0.5" width="55.181" height="23" fill="none"/>
    </g>
    <g id="Rectángulo_380520" data-name="Rectángulo 380520" transform="translate(1350 10579.202)" fill="#ff0" stroke="#707070" stroke-width="1">
      <rect width="56" height="24" stroke="none"/>
      <rect x="0.5" y="0.5" width="55" height="23" fill="none"/>
    </g>
    <g id="Rectángulo_380525" data-name="Rectángulo 380525" transform="translate(1405 10579.202)" fill="#ff0" stroke="#707070" stroke-width="1">
      <rect width="55.313" height="24" stroke="none"/>
      <rect x="0.5" y="0.5" width="54.313" height="23" fill="none"/>
    </g>
    <g id="Rectángulo_380530" data-name="Rectángulo 380530" transform="translate(1459.313 10579.202)" fill="#ff4b1d" stroke="#707070" stroke-width="1">
      <rect width="54" height="24" stroke="none"/>
      <rect x="0.5" y="0.5" width="53" height="23" fill="none"/>
    </g>
    <g id="Rectángulo_380535" data-name="Rectángulo 380535" transform="translate(1512.313 10579.202)" fill="#ff4b1d" stroke="#707070" stroke-width="1">
      <rect width="51" height="24" stroke="none"/>
      <rect x="0.5" y="0.5" width="50" height="23" fill="none"/>
    </g>
    <g id="Rectángulo_380513" data-name="Rectángulo 380513" transform="translate(1296 10625.202)" fill="#59c433" stroke="#707070" stroke-width="1">
      <rect width="56.181" height="24" stroke="none"/>
      <rect x="0.5" y="0.5" width="55.181" height="23" fill="none"/>
    </g>
    <g id="Rectángulo_380518" data-name="Rectángulo 380518" transform="translate(1350 10625.202)" fill="#59c433" stroke="#707070" stroke-width="1">
      <rect width="56" height="24" stroke="none"/>
      <rect x="0.5" y="0.5" width="55" height="23" fill="none"/>
    </g>
    <g id="Rectángulo_380523" data-name="Rectángulo 380523" transform="translate(1405 10625.202)" fill="#ff0" stroke="#707070" stroke-width="1">
      <rect width="55.313" height="24" stroke="none"/>
      <rect x="0.5" y="0.5" width="54.313" height="23" fill="none"/>
    </g>
    <g id="Rectángulo_380528" data-name="Rectángulo 380528" transform="translate(1459.313 10625.202)" fill="#ff0" stroke="#707070" stroke-width="1">
      <rect width="54" height="24" stroke="none"/>
      <rect x="0.5" y="0.5" width="53" height="23" fill="none"/>
    </g>
    <g id="Rectángulo_380533" data-name="Rectángulo 380533" transform="translate(1512.313 10625.202)" fill="#ff4b1d" stroke="#707070" stroke-width="1">
      <rect width="51" height="24" stroke="none"/>
      <rect x="0.5" y="0.5" width="50" height="23" fill="none"/>
    </g>
    <g id="Rectángulo_380512" data-name="Rectángulo 380512" transform="translate(1296 10556.202)" fill="#ff0" stroke="#707070" stroke-width="1">
      <rect width="56.181" height="24" stroke="none"/>
      <rect x="0.5" y="0.5" width="55.181" height="23" fill="none"/>
    </g>
    <g id="Rectángulo_380521" data-name="Rectángulo 380521" transform="translate(1350 10556.202)" fill="#ff0" stroke="#707070" stroke-width="1">
      <rect width="56" height="24" stroke="none"/>
      <rect x="0.5" y="0.5" width="55" height="23" fill="none"/>
    </g>
    <g id="Rectángulo_380526" data-name="Rectángulo 380526" transform="translate(1405 10556.202)" fill="#ff4b1d" stroke="#707070" stroke-width="1">
      <rect width="55.313" height="24" stroke="none"/>
      <rect x="0.5" y="0.5" width="54.313" height="23" fill="none"/>
    </g>
    <g id="Rectángulo_380531" data-name="Rectángulo 380531" transform="translate(1459.313 10556.202)" fill="#ff4b1d" stroke="#707070" stroke-width="1">
      <rect width="54" height="24" stroke="none"/>
      <rect x="0.5" y="0.5" width="53" height="23" fill="none"/>
    </g>
    <g id="Rectángulo_380536" data-name="Rectángulo 380536" transform="translate(1512.313 10556.202)" fill="#ff4b1d" stroke="#707070" stroke-width="1">
      <rect width="51" height="24" stroke="none"/>
      <rect x="0.5" y="0.5" width="50" height="23" fill="none"/>
    </g>
    <g id="Rectángulo_380514" data-name="Rectángulo 380514" transform="translate(1296 10602.202)" fill="#59c433" stroke="#707070" stroke-width="1">
      <rect width="56.181" height="24" stroke="none"/>
      <rect x="0.5" y="0.5" width="55.181" height="23" fill="none"/>
    </g>
    <g id="Rectángulo_380519" data-name="Rectángulo 380519" transform="translate(1350 10602.202)" fill="#ff0" stroke="#707070" stroke-width="1">
      <rect width="56" height="24" stroke="none"/>
      <rect x="0.5" y="0.5" width="55" height="23" fill="none"/>
    </g>
    <g id="Rectángulo_380524" data-name="Rectángulo 380524" transform="translate(1405 10602.202)" fill="#ff0" stroke="#707070" stroke-width="1">
      <rect width="55.313" height="24" stroke="none"/>
      <rect x="0.5" y="0.5" width="54.313" height="23" fill="none"/>
    </g>
    <g id="Rectángulo_380529" data-name="Rectángulo 380529" transform="translate(1459.313 10602.202)" fill="#ff4b1d" stroke="#707070" stroke-width="1">
      <rect width="54" height="24" stroke="none"/>
      <rect x="0.5" y="0.5" width="53" height="23" fill="none"/>
    </g>
    <g id="Rectángulo_380534" data-name="Rectángulo 380534" transform="translate(1512.313 10602.202)" fill="#ff4b1d" stroke="#707070" stroke-width="1">
      <rect width="51" height="24" stroke="none"/>
      <rect x="0.5" y="0.5" width="50" height="23" fill="none"/>
    </g>
    <g id="Rectángulo_380516" data-name="Rectángulo 380516" transform="translate(1296 10648.202)" fill="#59c433" stroke="#707070" stroke-width="1">
      <rect width="56.181" height="24" stroke="none"/>
      <rect x="0.5" y="0.5" width="55.181" height="23" fill="none"/>
    </g>
    <g id="Rectángulo_380517" data-name="Rectángulo 380517" transform="translate(1350 10648.202)" fill="#59c433" stroke="#707070" stroke-width="1">
      <rect width="56" height="24" stroke="none"/>
      <rect x="0.5" y="0.5" width="55" height="23" fill="none"/>
    </g>
    <g id="Rectángulo_380522" data-name="Rectángulo 380522" transform="translate(1405 10648.202)" fill="#59c433" stroke="#707070" stroke-width="1">
      <rect width="55.313" height="24" stroke="none"/>
      <rect x="0.5" y="0.5" width="54.313" height="23" fill="none"/>
    </g>
    <g id="Rectángulo_380527" data-name="Rectángulo 380527" transform="translate(1459.313 10648.202)" fill="#ff0" stroke="#707070" stroke-width="1">
      <rect width="54" height="24" stroke="none"/>
      <rect x="0.5" y="0.5" width="53" height="23" fill="none"/>
    </g>
    <g id="Rectángulo_380532" data-name="Rectángulo 380532" transform="translate(1512.313 10648.202)" fill="#ff0" stroke="#707070" stroke-width="1">
      <rect width="51" height="24" stroke="none"/>
      <rect x="0.5" y="0.5" width="50" height="23" fill="none"/>
    </g>
    <g id="Elipse_5698" data-name="Elipse 5698" transform="translate(1368.756 10605.42)" fill="#fff" stroke="#144567" stroke-width="1.5">
      <ellipse cx="9.244" cy="8.782" rx="9.244" ry="8.782" stroke="none"/>
      <ellipse cx="9.244" cy="8.782" rx="8.494" ry="8.032" fill="none"/>
    </g>
    <g id="Elipse_5699" data-name="Elipse 5699" transform="translate(1368.756 10582.244)" fill="#fff" stroke="#144567" stroke-width="1.5">
      <ellipse cx="9.244" cy="8.782" rx="9.244" ry="8.782" stroke="none"/>
      <ellipse cx="9.244" cy="8.782" rx="8.494" ry="8.032" fill="none"/>
    </g>
    <g id="Elipse_5700" data-name="Elipse 5700" transform="translate(1422.756 10605.42)" fill="#fff" stroke="#144567" stroke-width="1.5">
      <ellipse cx="9.244" cy="8.782" rx="9.244" ry="8.782" stroke="none"/>
      <ellipse cx="9.244" cy="8.782" rx="8.494" ry="8.032" fill="none"/>
    </g>
    <g id="Elipse_5701" data-name="Elipse 5701" transform="translate(1478.155 10605.42)" fill="#fff" stroke="#144567" stroke-width="1.5">
      <ellipse cx="9.244" cy="8.782" rx="9.244" ry="8.782" stroke="none"/>
      <ellipse cx="9.244" cy="8.782" rx="8.494" ry="8.032" fill="none"/>
    </g>
    <path id="Trazado_614245" data-name="Trazado 614245" d="M4.3,0H2.75V-5.983L.9-5.409V-6.671l3.239-1.16H4.3Z" transform="translate(1375.188 10618.026)" fill="#12263f"/>
    <path id="Trazado_614244" data-name="Trazado 614244" d="M2.111-4.6h.827a1.166,1.166,0,0,0,.875-.3A1.082,1.082,0,0,0,4.1-5.677a.957.957,0,0,0-.282-.736,1.093,1.093,0,0,0-.776-.263,1.145,1.145,0,0,0-.747.244.781.781,0,0,0-.3.636H.44a1.909,1.909,0,0,1,.33-1.1,2.2,2.2,0,0,1,.924-.76A3.083,3.083,0,0,1,3-7.928a2.924,2.924,0,0,1,1.944.594A2.025,2.025,0,0,1,5.65-5.7a1.646,1.646,0,0,1-.328.988,2.129,2.129,0,0,1-.859.693,1.943,1.943,0,0,1,.986.709,1.923,1.923,0,0,1,.325,1.117,2.059,2.059,0,0,1-.76,1.67A3.056,3.056,0,0,1,3,.107,2.9,2.9,0,0,1,1.088-.51,2.017,2.017,0,0,1,.344-2.143H1.9a.9.9,0,0,0,.33.72,1.217,1.217,0,0,0,.814.279,1.223,1.223,0,0,0,.867-.293,1.01,1.01,0,0,0,.314-.776q0-1.171-1.289-1.171H2.111Z" transform="translate(1375.188 10595.026)" fill="#12263f"/>
    <path id="Trazado_614246" data-name="Trazado 614246" d="M5.124-2.943H6.01v1.251H5.124V0H3.572V-1.692H.365L.3-2.669,3.556-7.82H5.124Zm-3.282,0H3.572V-5.7l-.1.177Z" transform="translate(1428.99 10618.026)" fill="#12263f"/>
    <path id="Trazado_614247" data-name="Trazado 614247" d="M5.892,0H.532V-1.063l2.53-2.7a6.241,6.241,0,0,0,.771-.994,1.6,1.6,0,0,0,.25-.806,1.2,1.2,0,0,0-.263-.819.95.95,0,0,0-.752-.3,1.025,1.025,0,0,0-.83.363,1.436,1.436,0,0,0-.3.953H.376A2.564,2.564,0,0,1,.717-6.666a2.4,2.4,0,0,1,.964-.927,2.93,2.93,0,0,1,1.413-.336,2.775,2.775,0,0,1,1.877.58A2.052,2.052,0,0,1,5.64-5.709a2.629,2.629,0,0,1-.3,1.182,6.567,6.567,0,0,1-1.031,1.4L2.53-1.251H5.892Z" transform="translate(1484.399 10618.026)" fill="#12263f"/>
  </g>
</svg>
