<svg id="Grupo_1076561" data-name="Grupo 1076561" xmlns="http://www.w3.org/2000/svg" xmlns:xlink="http://www.w3.org/1999/xlink" width="335" height="205.314" viewBox="0 0 335 205.314">
  <defs>
    <clipPath id="clip-path">
      <path id="Trazado_613143" data-name="Trazado 613143" d="M0,0H335V205.314H0Z" fill="none"/>
    </clipPath>
    <clipPath id="clip-path-2">
      <rect id="Rectángulo_380592" data-name="Rectángulo 380592" width="335" height="205.314" fill="none"/>
    </clipPath>
    <clipPath id="clip-path-5">
      <rect id="Rectángulo_380594" data-name="Rectángulo 380594" width="105.462" height="202.537" fill="none"/>
    </clipPath>
    <clipPath id="clip-path-6">
      <rect id="Rectángulo_380595" data-name="Rectángulo 380595" width="126.448" height="195.408" fill="none"/>
    </clipPath>
    <clipPath id="clip-path-9">
      <rect id="Rectángulo_380598" data-name="Rectángulo 380598" width="49.436" height="31.281" fill="none"/>
    </clipPath>
    <clipPath id="clip-path-10">
      <rect id="Rectángulo_380599" data-name="Rectángulo 380599" width="8.137" height="5.193" fill="none"/>
    </clipPath>
    <clipPath id="clip-path-11">
      <rect id="Rectángulo_380600" data-name="Rectángulo 380600" width="9.329" height="22.262" fill="none"/>
    </clipPath>
  </defs>
  <g id="Enmascarar_grupo_1072829" data-name="Enmascarar grupo 1072829" clip-path="url(#clip-path)">
    <g id="Grupo_1076536" data-name="Grupo 1076536">
      <g id="Grupo_1076535" data-name="Grupo 1076535" clip-path="url(#clip-path-2)">
        <path id="Trazado_613070" data-name="Trazado 613070" d="M227.615,225.543a26.189,26.189,0,0,0-6.386-2.775l-1.316-6.321-10.68-.187-1.537,6.27a26.183,26.183,0,0,0-6.48,2.55l-5.4-3.538-7.684,7.42,3.346,5.518a26.151,26.151,0,0,0-2.775,6.387l-6.32,1.316-.188,10.68,6.27,1.537a26.185,26.185,0,0,0,2.549,6.48l-3.538,5.4,7.419,7.685,5.518-3.346a26.148,26.148,0,0,0,6.387,2.775l1.316,6.321,10.679.188,1.537-6.271a26.2,26.2,0,0,0,6.48-2.55l5.4,3.539,7.684-7.42-3.346-5.518a26.17,26.17,0,0,0,2.776-6.387l6.321-1.316.187-10.68-6.271-1.538a26.181,26.181,0,0,0-2.549-6.479l3.538-5.4-7.419-7.684Zm-5.693,14.227a11.458,11.458,0,1,1-16.2-.285,11.459,11.459,0,0,1,16.2.285" transform="translate(-1.831 -108.251)" fill="#6debff" opacity="0.34"/>
        <path id="Trazado_613071" data-name="Trazado 613071" d="M494.157,11.944a26.184,26.184,0,0,0-6.386-2.775l-1.315-6.321-10.68-.187-1.537,6.27a26.175,26.175,0,0,0-6.48,2.55l-5.4-3.538-7.684,7.42,3.346,5.518a26.131,26.131,0,0,0-2.775,6.387l-6.32,1.316-.188,10.68,6.27,1.537a26.184,26.184,0,0,0,2.549,6.48l-3.538,5.4,7.419,7.685,5.518-3.346a26.162,26.162,0,0,0,6.387,2.775l1.316,6.321,10.679.187,1.537-6.271a26.179,26.179,0,0,0,6.48-2.55l5.4,3.539,7.684-7.42-3.346-5.518a26.172,26.172,0,0,0,2.776-6.387l6.321-1.316.187-10.68-6.271-1.538a26.2,26.2,0,0,0-2.549-6.479l3.538-5.4L499.676,8.6Zm-5.693,14.227a11.458,11.458,0,1,1-16.2-.285,11.459,11.459,0,0,1,16.2.285" transform="translate(-401.494 -1.331)" fill="#0c5e46" opacity="0.36"/>
        <path id="Trazado_613072" data-name="Trazado 613072" d="M93.481,138.869a20.011,20.011,0,0,0-4.88-2.121L87.6,131.917l-8.161-.143-1.175,4.792a20.013,20.013,0,0,0-4.952,1.948l-4.124-2.7-5.872,5.67,2.557,4.216a19.969,19.969,0,0,0-2.121,4.881l-4.83,1.005-.143,8.161,4.792,1.175a20,20,0,0,0,1.948,4.951l-2.7,4.125,5.669,5.872L72.7,173.31a19.969,19.969,0,0,0,4.881,2.121l1.005,4.831,8.161.143,1.175-4.792a20.016,20.016,0,0,0,4.952-1.948l4.124,2.7,5.872-5.67-2.557-4.216a20,20,0,0,0,2.121-4.881l4.83-1,.143-8.161-4.792-1.175a20.026,20.026,0,0,0-1.948-4.951l2.7-4.125-5.67-5.872ZM89.131,149.74a8.756,8.756,0,1,1-12.381-.218,8.756,8.756,0,0,1,12.381.218" transform="translate(198.241 -65.961)" fill="#ebebeb"/>
        <path id="Trazado_613073" data-name="Trazado 613073" d="M564.77,147.388a18.52,18.52,0,0,0-4.521-1.965l-.932-4.475-7.561-.132-1.088,4.439a18.527,18.527,0,0,0-4.588,1.8l-3.822-2.5-5.44,5.253,2.369,3.906a18.5,18.5,0,0,0-1.965,4.522l-4.475.931-.133,7.561,4.44,1.088a18.515,18.515,0,0,0,1.8,4.587l-2.5,3.822,5.252,5.44,3.907-2.369a18.525,18.525,0,0,0,4.522,1.965l.931,4.475,7.561.132,1.088-4.44a18.538,18.538,0,0,0,4.587-1.8l3.822,2.505,5.44-5.253-2.369-3.907a18.529,18.529,0,0,0,1.965-4.522l4.475-.931.133-7.561-4.44-1.088a18.526,18.526,0,0,0-1.8-4.587l2.5-3.822-5.253-5.44Zm-4.03,10.073a8.112,8.112,0,1,1-11.471-.2,8.112,8.112,0,0,1,11.471.2" transform="translate(-508.678 -70.487)" fill="#ebebeb"/>
        <path id="Trazado_613074" data-name="Trazado 613074" d="M621.9,70.845a15.577,15.577,0,0,0-3.8-1.654l-.784-3.766-6.362-.111-.915,3.735a15.587,15.587,0,0,0-3.861,1.519L602.96,68.46l-4.577,4.42,1.993,3.287a15.572,15.572,0,0,0-1.653,3.806l-3.765.784-.112,6.362,3.735.915a15.588,15.588,0,0,0,1.519,3.86l-2.107,3.216,4.419,4.578L605.7,97.7a15.591,15.591,0,0,0,3.805,1.653l.784,3.766,6.362.111.915-3.736a15.586,15.586,0,0,0,3.86-1.519l3.216,2.108,4.578-4.421-1.993-3.287a15.583,15.583,0,0,0,1.654-3.805l3.766-.784.111-6.362-3.736-.916a15.618,15.618,0,0,0-1.518-3.86l2.107-3.216-4.42-4.578Zm-3.392,8.475a6.826,6.826,0,1,1-9.652-.17,6.827,6.827,0,0,1,9.652.17" transform="translate(-594.845 -32.694)" fill="#e1fbff"/>
        <path id="Trazado_613075" data-name="Trazado 613075" d="M21.11,216.068a12.153,12.153,0,0,0-2.968-1.29l-.611-2.938-4.964-.087-.715,2.914a12.153,12.153,0,0,0-3.012,1.185l-2.509-1.645L2.76,217.656l1.555,2.565a12.139,12.139,0,0,0-1.29,2.969L.087,223.8,0,228.765l2.914.714A12.172,12.172,0,0,0,4.1,232.491L2.455,235,5.9,238.572l2.565-1.555a12.158,12.158,0,0,0,2.969,1.29l.611,2.938,4.964.087.714-2.915a12.184,12.184,0,0,0,3.012-1.185l2.509,1.645,3.571-3.449-1.555-2.565a12.157,12.157,0,0,0,1.29-2.969l2.938-.611.087-4.964-2.915-.715a12.153,12.153,0,0,0-1.185-3.012l1.645-2.509-3.448-3.571Zm-2.646,6.613a5.326,5.326,0,1,1-7.531-.132,5.326,5.326,0,0,1,7.531.132" transform="translate(305.421 -105.996)" fill="#0c5e46" opacity="0.38"/>
        <path id="Trazado_613076" data-name="Trazado 613076" d="M289.648,173.756a10.872,10.872,0,0,0-2.655-1.154l-.547-2.629L282,169.9l-.639,2.608a10.885,10.885,0,0,0-2.694,1.06l-2.244-1.471-3.2,3.086,1.391,2.294a10.874,10.874,0,0,0-1.154,2.656l-2.629.547-.078,4.441,2.608.639a10.886,10.886,0,0,0,1.06,2.694l-1.471,2.244,3.085,3.2,2.294-1.391a10.866,10.866,0,0,0,2.656,1.154l.547,2.629,4.441.078.639-2.608a10.906,10.906,0,0,0,2.694-1.06l2.244,1.471,3.2-3.085-1.391-2.294a10.883,10.883,0,0,0,1.154-2.656l2.629-.547.078-4.441-2.608-.639a10.887,10.887,0,0,0-1.06-2.694l1.471-2.244-3.085-3.2Zm-2.367,5.916a4.765,4.765,0,1,1-6.737-.118,4.764,4.764,0,0,1,6.737.118" transform="translate(-97.453 -85.043)" fill="#e1fbff"/>
        <path id="Trazado_613077" data-name="Trazado 613077" d="M243.6,30.742a12.145,12.145,0,0,0-2.968-1.29l-.611-2.938-4.964-.087-.715,2.914a12.161,12.161,0,0,0-3.012,1.185l-2.509-1.645-3.572,3.449,1.555,2.565a12.122,12.122,0,0,0-1.29,2.969l-2.938.611-.087,4.964,2.915.714a12.153,12.153,0,0,0,1.185,3.012l-1.644,2.509,3.448,3.572,2.565-1.555a12.158,12.158,0,0,0,2.969,1.29l.611,2.938,4.964.087.714-2.915a12.183,12.183,0,0,0,3.012-1.185l2.509,1.645L249.31,50.1l-1.555-2.565a12.158,12.158,0,0,0,1.29-2.969l2.938-.612.087-4.963-2.915-.715a12.157,12.157,0,0,0-1.185-3.011l1.645-2.509-3.448-3.571Zm-2.646,6.613a5.326,5.326,0,1,1-7.531-.132,5.326,5.326,0,0,1,7.531.132" transform="translate(-28.19 -13.228)" fill="#ebebeb"/>
        <path id="Trazado_613078" data-name="Trazado 613078" d="M287.977,368.327a3.859,3.859,0,0,1,2.1,2.174,6.813,6.813,0,0,1,.4,3.053,12.014,12.014,0,0,1-2.324,5.7c-1.739-1.387-2.237-3.92-2.409-5.22-.272-2.056.485-5.935,2.236-5.7" transform="translate(-98.181 -184.366)" fill="#0c5e46"/>
        <path id="Trazado_613079" data-name="Trazado 613079" d="M274.74,392.277a3.292,3.292,0,0,1,.924-3.172,4.368,4.368,0,0,1,3.175-1.148,1.84,1.84,0,0,1,1.441.572,1.408,1.408,0,0,1,.085,1.424,2.85,2.85,0,0,1-1.009,1.085,5.656,5.656,0,0,1-4.617,1.239" transform="translate(-82.68 -194.195)" fill="#0c5e46"/>
        <path id="Trazado_613080" data-name="Trazado 613080" d="M279.945,400.471a2.359,2.359,0,0,1,.041-.411c.04-.29.092-.664.154-1.113a11.55,11.55,0,0,1,.983-3.578,7.064,7.064,0,0,1,2.413-2.8,4.8,4.8,0,0,1,1.012-.5,2.823,2.823,0,0,1,.294-.088c.068-.017.1-.024.105-.019a7.51,7.51,0,0,0-1.355.7,7.3,7.3,0,0,0-2.339,2.782,12.443,12.443,0,0,0-1.012,3.529c-.081.467-.147.846-.2,1.106a2.2,2.2,0,0,1-.1.4" transform="translate(-89.762 -196.198)" fill="#263238"/>
        <path id="Trazado_613081" data-name="Trazado 613081" d="M289.892,374.355a.842.842,0,0,1,.028.177c.013.132.031.3.053.511.043.444.1,1.087.159,1.883.122,1.591.26,3.791.357,6.224s.135,4.638.14,6.234c0,.8,0,1.443-.008,1.89,0,.21-.009.381-.012.513a.817.817,0,0,1-.014.179.842.842,0,0,1-.015-.179c0-.132-.009-.3-.015-.513-.009-.464-.022-1.1-.038-1.888-.031-1.595-.085-3.8-.182-6.229s-.219-4.631-.315-6.223c-.046-.783-.085-1.422-.113-1.886-.011-.21-.019-.381-.026-.513a.852.852,0,0,1,0-.18" transform="translate(-100.412 -187.388)" fill="#263238"/>
        <path id="Trazado_613082" data-name="Trazado 613082" d="M298.382,393.6a7.7,7.7,0,0,0-4.448-5.447,1.623,1.623,0,0,0-1.751.05,1.593,1.593,0,0,0-.055,1.75,6.577,6.577,0,0,0,6.222,3.812" transform="translate(-109.165 -194.178)" fill="#0c5e46"/>
        <path id="Trazado_613083" data-name="Trazado 613083" d="M289.9,392.133a1.922,1.922,0,0,1,.362.139,3.7,3.7,0,0,1,.411.2c.154.087.341.171.525.3a6.769,6.769,0,0,1,.6.414,7.619,7.619,0,0,1,.648.538,8.555,8.555,0,0,1,1.25,1.467,8.364,8.364,0,0,1,.857,1.727,7.41,7.41,0,0,1,.233.81,6.218,6.218,0,0,1,.133.721,5.816,5.816,0,0,1,.054.6,3.489,3.489,0,0,1,.007.456,1.964,1.964,0,0,1-.026.387c-.033,0,0-.554-.137-1.429a6.653,6.653,0,0,0-.148-.707,7.65,7.65,0,0,0-.242-.793,8.741,8.741,0,0,0-.852-1.692,8.89,8.89,0,0,0-1.221-1.449,7.888,7.888,0,0,0-.629-.54,7.231,7.231,0,0,0-.586-.423c-.742-.484-1.257-.691-1.243-.72" transform="translate(-104.781 -196.287)" fill="#263238"/>
        <path id="Trazado_613084" data-name="Trazado 613084" d="M100.544,368.327a3.859,3.859,0,0,1,2.1,2.174,6.813,6.813,0,0,1,.4,3.053,12.014,12.014,0,0,1-2.324,5.7c-1.739-1.387-2.237-3.92-2.409-5.22-.272-2.056.485-5.935,2.236-5.7" transform="translate(182.863 -184.366)" fill="#ebebeb"/>
        <path id="Trazado_613085" data-name="Trazado 613085" d="M87.306,392.277a3.292,3.292,0,0,1,.924-3.172,4.369,4.369,0,0,1,3.175-1.148,1.839,1.839,0,0,1,1.441.572,1.408,1.408,0,0,1,.085,1.424,2.851,2.851,0,0,1-1.009,1.085,5.656,5.656,0,0,1-4.617,1.239" transform="translate(198.366 -194.195)" fill="#ebebeb"/>
        <path id="Trazado_613086" data-name="Trazado 613086" d="M92.512,400.471a2.362,2.362,0,0,1,.041-.411c.04-.29.092-.664.154-1.113a11.55,11.55,0,0,1,.983-3.578,7.064,7.064,0,0,1,2.413-2.8,4.8,4.8,0,0,1,1.012-.5,2.861,2.861,0,0,1,.294-.088c.068-.017.1-.024.106-.019a7.511,7.511,0,0,0-1.355.7,7.3,7.3,0,0,0-2.339,2.782,12.444,12.444,0,0,0-1.012,3.529c-.081.467-.147.846-.2,1.106a2.2,2.2,0,0,1-.1.4" transform="translate(191.282 -196.198)" fill="#e0e0e0"/>
        <path id="Trazado_613087" data-name="Trazado 613087" d="M102.458,374.355a.842.842,0,0,1,.028.177c.013.132.031.3.053.511.043.444.1,1.087.159,1.883.122,1.591.26,3.791.357,6.224s.135,4.638.14,6.234c0,.8,0,1.443-.008,1.89,0,.21-.009.381-.012.513a.828.828,0,0,1-.014.179.845.845,0,0,1-.015-.179c0-.132-.009-.3-.015-.513-.009-.464-.022-1.1-.038-1.888-.031-1.595-.085-3.8-.182-6.229s-.219-4.631-.315-6.223c-.046-.783-.085-1.422-.113-1.886-.01-.21-.019-.381-.026-.513a.856.856,0,0,1,0-.18" transform="translate(180.634 -187.388)" fill="#e0e0e0"/>
        <path id="Trazado_613088" data-name="Trazado 613088" d="M110.949,393.6a7.7,7.7,0,0,0-4.448-5.447,1.622,1.622,0,0,0-1.751.05,1.593,1.593,0,0,0-.055,1.75,6.576,6.576,0,0,0,6.222,3.812" transform="translate(171.88 -194.178)" fill="#ebebeb"/>
        <path id="Trazado_613089" data-name="Trazado 613089" d="M102.47,392.133a1.922,1.922,0,0,1,.362.139,3.7,3.7,0,0,1,.411.2c.154.087.341.171.525.3a6.771,6.771,0,0,1,.6.414,7.62,7.62,0,0,1,.648.538,8.555,8.555,0,0,1,1.25,1.467,8.391,8.391,0,0,1,.857,1.727,7.408,7.408,0,0,1,.233.81,6.318,6.318,0,0,1,.133.721,5.806,5.806,0,0,1,.054.6,3.483,3.483,0,0,1,.007.456,1.961,1.961,0,0,1-.026.387c-.033,0,0-.554-.137-1.429a6.659,6.659,0,0,0-.148-.707,7.65,7.65,0,0,0-.242-.793,8.717,8.717,0,0,0-.853-1.692,8.864,8.864,0,0,0-1.22-1.449,7.888,7.888,0,0,0-.629-.54,7.226,7.226,0,0,0-.586-.423c-.742-.484-1.257-.691-1.243-.72" transform="translate(176.265 -196.287)" fill="#e0e0e0"/>
      </g>
    </g>
    <g id="Grupo_1076538" data-name="Grupo 1076538">
      <g id="Grupo_1076537" data-name="Grupo 1076537" clip-path="url(#clip-path-2)">
        <path id="Trazado_613090" data-name="Trazado 613090" d="M19.363,409.914c0,.072,71.924.13,160.628.13,88.734,0,160.643-.058,160.643-.13s-71.909-.13-160.643-.13c-88.7,0-160.628.058-160.628.13" transform="translate(-15.305 -205.123)" fill="#263238"/>
      </g>
    </g>
    <path id="Trazado_613091" data-name="Trazado 613091" d="M252.217,194.246l30.448,10.709L348.339,11.039,317.891.33Z" transform="translate(-139.306 -0.165)" fill="#03386e"/>
    <g id="Grupo_1076546" data-name="Grupo 1076546">
      <g id="Grupo_1076545" data-name="Grupo 1076545" clip-path="url(#clip-path-2)">
        <path id="Trazado_613092" data-name="Trazado 613092" d="M251.887,194.082,317.683.206l-.165.08,30.437,10.707.011,0-.08-.164L282.274,204.77l.082-.04-30.47-10.649,30.427,10.77.062.022.021-.062,65.736-193.9.041-.122-.121-.043-.011,0L317.6.043,317.481,0l-.042.123L251.887,194.082" transform="translate(-138.976)" fill="#263238"/>
        <path id="Trazado_613093" data-name="Trazado 613093" d="M323.017,194.839l29.868,12.212L428.479,16.727,398.611,4.515Z" transform="translate(-254.805 -2.26)" fill="#03386e"/>
        <path id="Trazado_613094" data-name="Trazado 613094" d="M322.68,194.67,398.393,4.393l-.168.071,29.857,12.209.01,0-.072-.168L352.488,206.858l.085-.036L322.68,194.67l29.843,12.272.061.025.024-.061,75.654-190.3.047-.12-.119-.049-.01,0L398.322,4.226l-.12-.049-.048.121L322.68,194.67" transform="translate(-254.468 -2.091)" fill="#263238"/>
        <g id="Grupo_1076541" data-name="Grupo 1076541" transform="translate(58.38 2.254)" opacity="0.2">
          <g id="Grupo_1076540" data-name="Grupo 1076540" transform="translate(10)">
            <g id="Grupo_1076539" data-name="Grupo 1076539" clip-path="url(#clip-path-5)">
              <path id="Trazado_613095" data-name="Trazado 613095" d="M323.017,194.839l29.868,12.212L428.479,16.727,398.611,4.515Z" transform="translate(-323.017 -4.514)"/>
            </g>
          </g>
        </g>
        <path id="Trazado_613096" data-name="Trazado 613096" d="M400.557,198.629,428.8,214.195,527,34.352,498.762,18.786Z" transform="translate(-392.058 -9.404)" fill="#03386e"/>
        <path id="Trazado_613097" data-name="Trazado 613097" d="M400.2,198.454l98.319-179.78-.175.051,28.231,15.561.01.005-.051-.176L428.389,213.989l.088-.025L400.2,198.454l28.211,15.622.057.032.031-.057L526.766,34.24l.062-.113-.113-.063-.01-.005L498.472,18.5l-.113-.062-.062.114L400.2,198.454" transform="translate(-391.705 -9.228)" fill="#263238"/>
        <g id="Grupo_1076544" data-name="Grupo 1076544" transform="translate(8.675 9.383)" opacity="0.3">
          <g id="Grupo_1076543" data-name="Grupo 1076543">
            <g id="Grupo_1076542" data-name="Grupo 1076542" clip-path="url(#clip-path-6)">
              <path id="Trazado_613098" data-name="Trazado 613098" d="M400.557,198.629,428.8,214.195,527,34.352,498.762,18.786Z" transform="translate(-400.557 -18.787)"/>
            </g>
          </g>
        </g>
      </g>
    </g>
    <g id="Grupo_1076548" data-name="Grupo 1076548">
      <g id="Grupo_1076547" data-name="Grupo 1076547" clip-path="url(#clip-path-2)">
        <path id="Trazado_613099" data-name="Trazado 613099" d="M109.492,71.762l1.178-4.367a14.554,14.554,0,1,1,3.458,3.9l.005.007Z" transform="translate(143.139 -22.698)" fill="#fff"/>
        <path id="Trazado_613100" data-name="Trazado 613100" d="M109.3,71.614s.11-.017.313-.042l.894-.1,3.426-.379-.047.108,0-.006a.067.067,0,0,1,.013-.094.069.069,0,0,1,.083,0,14.555,14.555,0,0,0,6.484,2.848,14.624,14.624,0,0,0,9.528-1.69,14.371,14.371,0,0,0,3.728-21.984l-.593-.657-.648-.6a15.407,15.407,0,0,0-1.365-1.093,14.589,14.589,0,0,0-9.568-2.511,14.458,14.458,0,0,0-11.006,21.8c0,.018,0,.034.007.053l-.909,3.214-.242.841c-.055.19-.09.293-.09.293a2.678,2.678,0,0,1,.062-.272l.208-.83.843-3.282.007.052A14.472,14.472,0,0,1,108.3,60.45a14.69,14.69,0,0,1,13.216-15.338,14.875,14.875,0,0,1,9.777,2.553,15.858,15.858,0,0,1,1.4,1.116l.662.611.606.672a14.66,14.66,0,0,1-3.835,22.424A14.524,14.524,0,0,1,125.11,74.2a14.349,14.349,0,0,1-4.682-.046A14.554,14.554,0,0,1,113.9,71.2l.1-.093,0,.006a.067.067,0,0,1-.012.094.066.066,0,0,1-.035.013l-3.481.3-.879.071a2.81,2.81,0,0,1-.287.017" transform="translate(143.328 -22.55)" fill="#263238"/>
        <path id="Trazado_613101" data-name="Trazado 613101" d="M129.45,75.694l-7.64-5.111,1.784-2.666,5.123,3.427,6.375-8.436,2.559,1.934Z" transform="translate(136.514 -31.489)" fill="#0c5e46"/>
      </g>
    </g>
    <g id="Grupo_1076559" data-name="Grupo 1076559">
      <g id="Grupo_1076558" data-name="Grupo 1076558" clip-path="url(#clip-path-2)">
        <path id="Trazado_613102" data-name="Trazado 613102" d="M237.9,120.136c-2.256,7.424-5,14.688-7.741,21.947-1.957,5.182-4.131,10.658-8.594,13.939a10.7,10.7,0,0,0,4.163,2.2,47.481,47.481,0,0,0,10.606-23.841" transform="translate(-13.558 -60.136)" fill="#263238"/>
        <path id="Trazado_613103" data-name="Trazado 613103" d="M176.6,118.13l23.32.025c9.445,20.256-1.64,37.573-3.218,44.49-9.461,1.459-17.221.806-28.494-4.193.515-7.571,6.286-33.031,8.393-40.322" transform="translate(47.307 -59.131)" fill="#263238"/>
        <path id="Trazado_613104" data-name="Trazado 613104" d="M194.41,106.466a13.436,13.436,0,0,0-11.244-2.948,14.424,14.424,0,0,0-4.755,1.92,7.467,7.467,0,0,0-3.594,3.62,12.5,12.5,0,0,0-1.236,6.088,35.05,35.05,0,0,0,1.007,6.361,11.745,11.745,0,0,0,3.195,5.509l5.538-.184a34.367,34.367,0,0,0,8.722-2.311,11.575,11.575,0,0,0,6.226-6.238c1.413-3.945-.6-9.183-3.86-11.816" transform="translate(49.598 -51.692)" fill="#263238"/>
        <path id="Trazado_613105" data-name="Trazado 613105" d="M183.88,109.486l1.816-.6,7.714,1.347a2.027,2.027,0,0,1,2.281,1.52l3.993,20.683.428,1.9-8.6,8.089-1.158-2.362-1.688-5.267a7.389,7.389,0,0,1-7.228-4.8,61.542,61.542,0,0,1-2.994-11c-.677-3.4,1.253-8.613,5.439-9.5" transform="translate(45.833 -54.503)" fill="#ffc09d"/>
        <path id="Trazado_613106" data-name="Trazado 613106" d="M213.731,137.258a.739.739,0,0,0,.88.537.707.707,0,0,0,.565-.84.739.739,0,0,0-.88-.538.707.707,0,0,0-.566.84" transform="translate(13.07 -68.277)" fill="#263238"/>
        <path id="Trazado_613107" data-name="Trazado 613107" d="M212.705,132.293c.113.069.548-.474,1.318-.677s1.435.032,1.494-.084c.03-.052-.105-.2-.4-.31a2.03,2.03,0,0,0-1.227-.048,1.948,1.948,0,0,0-1.017.655c-.188.244-.224.434-.169.464" transform="translate(13.258 -65.625)" fill="#263238"/>
        <path id="Trazado_613108" data-name="Trazado 613108" d="M207.954,135.963a5.284,5.284,0,0,0-1.309.107c-.2.032-.4.042-.466-.082a1.034,1.034,0,0,1-.023-.616q.088-.786.184-1.649a26.61,26.61,0,0,0,.266-4.254,26.634,26.634,0,0,0-.608,4.223q-.082.864-.157,1.651a1.173,1.173,0,0,0,.1.8.509.509,0,0,0,.4.2,1.4,1.4,0,0,0,.346-.042,5.159,5.159,0,0,0,1.266-.335" transform="translate(24.253 -64.807)" fill="#263238"/>
        <path id="Trazado_613109" data-name="Trazado 613109" d="M187.372,156.767a14.676,14.676,0,0,0,6.933-3.973s-.694,4.619-6.409,5.581Z" transform="translate(47.115 -76.483)" fill="#ff9b6c"/>
        <path id="Trazado_613110" data-name="Trazado 613110" d="M212.536,129.444c.125.2.739.1,1.448.188.711.067,1.289.3,1.453.136.073-.082,0-.275-.234-.481a2.263,2.263,0,0,0-2.337-.261c-.276.149-.384.322-.33.418" transform="translate(13.394 -64.479)" fill="#263238"/>
        <path id="Trazado_613111" data-name="Trazado 613111" d="M201.35,133.353a.739.739,0,0,1-.531.884.707.707,0,0,1-.89-.481.74.74,0,0,1,.53-.885.707.707,0,0,1,.891.481" transform="translate(33.787 -66.496)" fill="#263238"/>
        <path id="Trazado_613112" data-name="Trazado 613112" d="M200.652,127.664c-.068.114-.706-.166-1.481.011s-1.257.694-1.362.618c-.051-.033,0-.223.209-.459a2.034,2.034,0,0,1,1.064-.611,1.953,1.953,0,0,1,1.206.108c.28.129.4.281.365.333" transform="translate(35.559 -63.659)" fill="#263238"/>
        <path id="Trazado_613113" data-name="Trazado 613113" d="M202.726,125.936c-.064.23-.7.324-1.369.633-.68.288-1.18.694-1.39.585-.1-.056-.085-.262.089-.533a2.28,2.28,0,0,1,.981-.793,2.249,2.249,0,0,1,1.243-.188c.315.055.472.187.448.3" transform="translate(32.431 -62.879)" fill="#263238"/>
        <path id="Trazado_613114" data-name="Trazado 613114" d="M176.232,131.937c-.109-.415.111-1.52.5-1.693,1.049-.461,3.045-.9,3.8,1.873,1.033,3.789-2.987,4.047-3.023,3.94-.028-.083-.9-2.688-1.281-4.121" transform="translate(66.291 -65.025)" fill="#ffc09d"/>
        <path id="Trazado_613115" data-name="Trazado 613115" d="M178.941,135.66c.013-.016.079.028.2.049a.683.683,0,0,0,.5-.125,1.693,1.693,0,0,0,.357-1.672,2.262,2.262,0,0,0-.443-.895.79.79,0,0,0-.635-.371.348.348,0,0,0-.341.287c-.022.12.023.189,0,.2s-.1-.041-.111-.206a.439.439,0,0,1,.085-.279.518.518,0,0,1,.339-.2.962.962,0,0,1,.85.4,2.322,2.322,0,0,1,.517.993,1.776,1.776,0,0,1-.517,1.9.734.734,0,0,1-.631.065c-.143-.061-.186-.141-.175-.151" transform="translate(65.531 -66.296)" fill="#ff9b6c"/>
        <path id="Trazado_613116" data-name="Trazado 613116" d="M197.993,118.779l-.766,1.215c-7.065-1.752-15.384-11.533-14.8-11.027a12.539,12.539,0,0,1,5.885-1.906c3.244-.119,9.513.212,10.19,3.924a19.671,19.671,0,0,1-.509,7.794" transform="translate(45.192 -53.581)" fill="#263238"/>
        <path id="Trazado_613117" data-name="Trazado 613117" d="M198.847,146.639a10.088,10.088,0,0,0,1.359.133,1.339,1.339,0,0,0,1.2-.517,1.706,1.706,0,0,0,.171-.9,4.079,4.079,0,0,0-.088-1.014,1.48,1.48,0,0,0-.531-.847,1.506,1.506,0,0,0-1.361-.123,4.46,4.46,0,0,0-1.207.739,1.61,1.61,0,0,0-.243.982c.023.632-.022,1.425.7,1.542" transform="translate(34.466 -71.716)" fill="#ff9b6c"/>
        <path id="Trazado_613118" data-name="Trazado 613118" d="M198.2,146.522a1.187,1.187,0,0,0,.33.067c.212.032.512.11.907.152a1.557,1.557,0,0,0,1.339-.427,1.329,1.329,0,0,0,.273-.819,7.018,7.018,0,0,0-.013-.878,1.659,1.659,0,0,0-.883-1.46,1.743,1.743,0,0,0-1.4.08,3.534,3.534,0,0,0-.773.517c-.165.142-.248.23-.237.244s.116-.046.3-.162a4.825,4.825,0,0,1,.787-.43,1.6,1.6,0,0,1,1.232-.03,1.446,1.446,0,0,1,.721,1.266c.02.558.095,1.177-.186,1.52a1.411,1.411,0,0,1-1.143.4c-.376-.016-.689-.066-.908-.068s-.34.016-.34.033" transform="translate(35.186 -71.602)" fill="#263238"/>
        <path id="Trazado_613119" data-name="Trazado 613119" d="M187.453,378.593l.439,10.053s-10.647,3.766-10.757,5.631l20.622-.043,0-15.688Z" transform="translate(48.775 -189.486)" fill="#263238"/>
        <path id="Trazado_613120" data-name="Trazado 613120" d="M183.921,397.017a.8.8,0,0,1,.587.909.81.81,0,0,1-.944.556.841.841,0,0,1-.616-.965.851.851,0,0,1,1.05-.475" transform="translate(59.119 -198.716)" fill="#e0e0e0"/>
        <path id="Trazado_613121" data-name="Trazado 613121" d="M197.766,408.374l-.066-1.582-19.747.632s-.916.38-.809.992Z" transform="translate(48.767 -203.625)" fill="#455a64"/>
        <path id="Trazado_613122" data-name="Trazado 613122" d="M193.782,398.484c0,.1.508.137,1,.443s.764.705.856.667c.092-.018-.061-.588-.67-.948s-1.214-.25-1.191-.162" transform="translate(42.551 -199.422)" fill="#fff"/>
        <path id="Trazado_613123" data-name="Trazado 613123" d="M199.127,400.238c-.022.092.415.254.759.656s.445.829.545.825c.095.015.161-.543-.277-1.036s-1.026-.535-1.028-.444" transform="translate(35.048 -200.325)" fill="#fff"/>
        <path id="Trazado_613124" data-name="Trazado 613124" d="M204.887,403.541c.092.02.229-.456-.032-.978s-.734-.728-.776-.649.251.358.458.789.249.829.35.838" transform="translate(28.073 -201.175)" fill="#fff"/>
        <path id="Trazado_613125" data-name="Trazado 613125" d="M11.848,366.949l7.257,6.971s-5.1,10.074-3.9,11.5L30.1,371.154,19.267,359.806Z" transform="translate(298.983 -180.105)" fill="#263238"/>
        <path id="Trazado_613126" data-name="Trazado 613126" d="M23.944,377.915a.8.8,0,0,1,1.052.252.809.809,0,0,1-.3,1.054.84.84,0,0,1-1.112-.273.851.851,0,0,1,.432-1.069" transform="translate(298.161 -189.12)" fill="#e0e0e0"/>
        <path id="Trazado_613127" data-name="Trazado 613127" d="M26.99,381.426l-1.139-1.1L12,394.416s-.4.907.1,1.276Z" transform="translate(302.092 -190.378)" fill="#455a64"/>
        <path id="Trazado_613128" data-name="Trazado 613128" d="M30.255,387.634c.068.066.462-.251,1.033-.373s1.039-.016,1.08-.108-.45-.384-1.139-.224-1.05.657-.974.7" transform="translate(287.523 -193.66)" fill="#fff"/>
        <path id="Trazado_613129" data-name="Trazado 613129" d="M32.48,392.207c.047.082.475-.1,1-.049.529.038.894.292.964.219.079-.054-.259-.5-.915-.558s-1.112.321-1.05.388" transform="translate(284.324 -196.127)" fill="#fff"/>
        <path id="Trazado_613130" data-name="Trazado 613130" d="M36.48,397.056c.08-.049-.149-.488-.7-.685s-1.034-.02-1.009.066.429.086.877.254.752.427.831.365" transform="translate(281.138 -198.363)" fill="#fff"/>
        <path id="Trazado_613131" data-name="Trazado 613131" d="M184.65,117.827a56.8,56.8,0,0,0,9.125,7.25c4.377,2.8,12.64,9.182,14.31,10.406s9.515,5.674,13.134,6.392a35.671,35.671,0,0,1,8.354,3.385l-2.58,2.051s-13.386,1.935-13.453,1.787c0,0-12.573-6.115-13.6-6.8-3.825-2.55-18.749-19.31-19.8-20.117Z" transform="translate(15.46 -58.98)" fill="#6debff"/>
        <g id="Grupo_1076551" data-name="Grupo 1076551" transform="translate(195.597 58.848)" opacity="0.3">
          <g id="Grupo_1076550" data-name="Grupo 1076550">
            <g id="Grupo_1076549" data-name="Grupo 1076549" clip-path="url(#clip-path-9)">
              <path id="Trazado_613132" data-name="Trazado 613132" d="M184.65,117.827a56.8,56.8,0,0,0,9.125,7.25c4.377,2.8,12.64,9.182,14.31,10.406s9.515,5.674,13.134,6.392a35.671,35.671,0,0,1,8.354,3.385l-2.58,2.051s-13.386,1.935-13.453,1.787c0,0-12.573-6.115-13.6-6.8-3.825-2.55-18.749-19.31-19.8-20.117Z" transform="translate(-180.137 -117.827)"/>
            </g>
          </g>
        </g>
        <path id="Trazado_613133" data-name="Trazado 613133" d="M271.875,91.586c.61.14,2.083,3.837,2.083,3.837s.8-7.845.861-8.763.76-1.313,1.151-1.123,1.092,8.951,1.124,9.8-.676,3.941-.787,4.893a2.852,2.852,0,0,0,.75,1.893l-3.247,3.4c-.976-.748-2.032-3.364-2.048-4.844a22.114,22.114,0,0,1,.556-4.509c.208-.768-1.308-2.362-1.335-3.24s.281-1.485.891-1.345" transform="translate(-77.433 -42.793)" fill="#ff9b6c"/>
        <path id="Trazado_613134" data-name="Trazado 613134" d="M303.983,152.092l-.048-6.828.208-2.993-1.2-4.424s-1.019-.109-.693,1.253a5.656,5.656,0,0,1,.119,2.311l-.592,3.342-4.149-5.414a.882.882,0,0,0-.667,1.093c.244.858,3,4.739,2.545,5.211s-4.961-3.417-5.412-3.326a.893.893,0,0,0-.24,1.489c.553.634,4.375,2.995,4.281,3.58s-4.515-1.49-5.1-1.039.053.882.657,1.2,4.05,1.619,4.05,1.619,1.15,4.728,2.032,5.688,4.138,1.732,4.138,1.732l1.636-4.087Z" transform="translate(-116.785 -69.001)" fill="#ffc09d"/>
        <path id="Trazado_613135" data-name="Trazado 613135" d="M223.031,173.639c-.4-.014-28.205-1.32-28.6-1.256a40.372,40.372,0,0,1-17.6-.9c-9.741-2.6-10.413-3.217-10.413-3.217l1.934-4.833s16.7.885,26.406.517,19.167-2.447,27.512-3.163,9.75,4.139,9.246,7.273-5.793,5.674-8.484,5.58" transform="translate(20.279 -80.448)" fill="#6debff"/>
        <path id="Trazado_613136" data-name="Trazado 613136" d="M223.049,173.548a5.207,5.207,0,0,0,1.43-.121,11.963,11.963,0,0,0,3.821-1.518A9.026,9.026,0,0,0,230.592,170a4.816,4.816,0,0,0,.868-1.479,6.16,6.16,0,0,0,.233-1.84,7.274,7.274,0,0,0-.327-1.96,6.065,6.065,0,0,0-1.04-1.843,7.013,7.013,0,0,0-4-2.132,17.16,17.16,0,0,0-5.028-.06c-1.739.166-3.543.384-5.407.635-3.728.5-7.7,1.126-11.892,1.634-2.1.252-4.251.472-6.456.623s-4.461.216-6.76.235c-4.6.024-9.36-.084-14.234-.255-2.766-.1-5.5-.212-8.17-.348l-.092-.005-.034.086-1.933,4.833-.038.1.07.045a4.167,4.167,0,0,0,.732.345q.358.139.718.265c.479.169.96.324,1.439.477.959.3,1.916.584,2.865.858,1.9.538,3.766,1.065,5.616,1.516a42.94,42.94,0,0,0,10.821,1.231,36.112,36.112,0,0,0,5.025-.406l.6-.1.295-.055.285,0,1.185.036,2.318.09,8.408.354,12.033.513,3.236.128.838.027c.189,0,.285,0,.285,0s-.1-.012-.284-.024l-.837-.05-3.234-.171-12.029-.589-8.407-.385-2.319-.1-1.2-.04h-.316l-.3.055-.6.1a36.06,36.06,0,0,1-5,.391,42.832,42.832,0,0,1-10.761-1.243c-1.839-.451-3.708-.981-5.6-1.521-.947-.274-1.9-.556-2.858-.859-.477-.153-.956-.308-1.431-.476q-.357-.124-.709-.262a5.28,5.28,0,0,1-.652-.3l.032.141,1.935-4.832-.127.081q4.016.205,8.175.35c4.877.171,9.642.277,14.245.249,2.3-.02,4.565-.084,6.775-.242s4.368-.378,6.468-.633c4.2-.515,8.168-1.148,11.892-1.658,1.862-.255,3.663-.478,5.4-.649a17.023,17.023,0,0,1,4.974.04,6.847,6.847,0,0,1,3.91,2.06,5.91,5.91,0,0,1,1.019,1.785,7.125,7.125,0,0,1,.328,1.913,6.027,6.027,0,0,1-.215,1.794,4.687,4.687,0,0,1-.836,1.443,8.952,8.952,0,0,1-2.248,1.9,12.18,12.18,0,0,1-3.779,1.553,4.968,4.968,0,0,1-.61.106,3.2,3.2,0,0,1-.446.044c-.24.01-.364.022-.364.022" transform="translate(20.262 -80.357)" fill="#263238"/>
        <path id="Trazado_613137" data-name="Trazado 613137" d="M152.527,190.9c-.357-.337-11.2-10.9-12.915-13.881s-11.469-16.144-16.742-18.52c-7.3-3.288-8.949-1.97-9.294-1.855s-11.232,5.523-11.232,5.523,5.326,16.656,8.537,21.013,10.534,4.994,13.056,7.976,5.187,9.82,7.338,11.029S152.527,190.9,152.527,190.9" transform="translate(131.358 -78.231)" fill="#6debff"/>
        <g id="Grupo_1076554" data-name="Grupo 1076554" transform="translate(236.797 92.89)" opacity="0.3">
          <g id="Grupo_1076553" data-name="Grupo 1076553">
            <g id="Grupo_1076552" data-name="Grupo 1076552" clip-path="url(#clip-path-10)">
              <path id="Trazado_613138" data-name="Trazado 613138" d="M188.472,186.105l-6.123,5.078-2.015-5.193Z" transform="translate(-180.335 -185.99)"/>
            </g>
          </g>
        </g>
        <path id="Trazado_613139" data-name="Trazado 613139" d="M159.531,257.975,123.037,279s1.648,10.707,2.458,15.566-.819,22.285-.819,22.285l-10.012.412s-2.754-20.247-4.212-28.1-5.021-14.659-1.457-20.328,28.831-24.782,28.831-24.782l.882-4.374Z" transform="translate(121.8 -119.971)" fill="#031930"/>
        <path id="Trazado_613140" data-name="Trazado 613140" d="M40.719,212.671c5.776,6.274,13.559,9.552,13.493,22.556l5.524,30.608s9.843,5.946,14.54,11.778,12.666,14.306,12.666,14.306l-8.517,7.044s-20.882-14.543-28.953-22.136c-7.873-7.408-19.417-36.368-19.417-36.368l-8.886-16.111Z" transform="translate(237.485 -106.455)" fill="#031930"/>
        <path id="Trazado_613141" data-name="Trazado 613141" d="M40.449,212.671s-.111.06-.332.189l-.984.577L35.3,215.7l-14.443,8.577-.064.038.036.066L29.7,240.506l-.005-.011c1.807,4.474,3.867,9.246,6.195,14.242a154.98,154.98,0,0,0,8.105,15.418c.8,1.294,1.647,2.583,2.584,3.827a22.4,22.4,0,0,0,3.159,3.5c2.344,2.133,4.85,4.161,7.417,6.188,5.153,4.032,10.581,8.032,16.178,12.039l4.75,3.362.08.057.077-.063,8.516-7.044.1-.087-.093-.1c-4.646-4.983-9.075-9.883-13.087-14.789a33.4,33.4,0,0,0-3.319-3.347c-1.155-1.038-2.346-2.008-3.549-2.929a88.032,88.032,0,0,0-7.286-5.028l.053.077c-2.135-11.769-4.012-22.114-5.553-30.6v.015a27.135,27.135,0,0,0-.673-6.087,19.525,19.525,0,0,0-2.013-5.034,28.6,28.6,0,0,0-5.615-6.495c-1.74-1.575-3.092-2.773-3.964-3.628-.441-.424-.761-.768-.982-.985s-.33-.327-.33-.327.109.122.323.35.522.569.957,1c.862.867,2.206,2.078,3.935,3.662a28.7,28.7,0,0,1,5.563,6.494,19.446,19.446,0,0,1,1.98,5,27.083,27.083,0,0,1,.651,6.05v.015l5.495,30.614.009.049.044.027a88.167,88.167,0,0,1,7.259,5.022c1.2.919,2.384,1.886,3.532,2.921a33.082,33.082,0,0,1,3.293,3.325c4.008,4.908,8.441,9.82,13.087,14.806l.012-.187-8.518,7.042.157-.006-4.747-3.36c-5.6-4.006-11.022-8-16.172-12.029-2.565-2.024-5.069-4.048-7.4-6.172a22.073,22.073,0,0,1-3.13-3.461c-.931-1.235-1.774-2.518-2.575-3.807a155.358,155.358,0,0,1-8.108-15.384c-2.332-4.989-4.4-9.755-6.213-14.22l0-.006,0-.005-8.906-16.1-.028.1L35.3,215.786l3.824-2.306.986-.6c.221-.136.335-.21.335-.21" transform="translate(237.755 -106.455)" fill="#455a64"/>
        <g id="Grupo_1076557" data-name="Grupo 1076557" transform="translate(262.295 124.494)" opacity="0.3">
          <g id="Grupo_1076556" data-name="Grupo 1076556">
            <g id="Grupo_1076555" data-name="Grupo 1076555" clip-path="url(#clip-path-11)">
              <path id="Trazado_613142" data-name="Trazado 613142" d="M130.733,271.53l-.334-11.393-3.506-10.87,5.245,9.509,4.084,9.592Z" transform="translate(-126.892 -249.268)"/>
            </g>
          </g>
        </g>
      </g>
    </g>
  </g>
</svg>
