<svg id="Grupo_1076768" data-name="Grupo 1076768" xmlns="http://www.w3.org/2000/svg" xmlns:xlink="http://www.w3.org/1999/xlink" width="335" height="196.275" viewBox="0 0 335 196.275">
  <defs>
    <clipPath id="clip-path">
      <rect id="Rectángulo_380786" data-name="Rectángulo 380786" width="335" height="196.275" fill="none"/>
    </clipPath>
  </defs>
  <g id="Grupo_1076767" data-name="Grupo 1076767" clip-path="url(#clip-path)">
    <path id="Trazado_613477" data-name="Trazado 613477" d="M1117.161,648.425a28.648,28.648,0,1,1,28.648-28.648,28.68,28.68,0,0,1-28.648,28.648m0-51.679a23.031,23.031,0,1,0,23.031,23.031,23.057,23.057,0,0,0-23.031-23.031" transform="translate(-845.413 -459.111)" fill="#6debff"/>
    <path id="Trazado_613478" data-name="Trazado 613478" d="M1318.789,190.375a22.779,22.779,0,1,1,22.779-22.779,22.8,22.8,0,0,1-22.779,22.779m0-39.941a17.162,17.162,0,1,0,17.162,17.162,17.182,17.182,0,0,0-17.162-17.162" transform="translate(-1006.568 -112.475)" fill="#03386e"/>
    <path id="Trazado_613479" data-name="Trazado 613479" d="M26.337,238.529a26.337,26.337,0,1,1,26.337-26.337,26.367,26.367,0,0,1-26.337,26.337m0-47.058a20.721,20.721,0,1,0,20.721,20.721,20.744,20.744,0,0,0-20.721-20.721" transform="translate(0 -144.347)" fill="#8bc3b6"/>
    <path id="Trazado_613480" data-name="Trazado 613480" d="M213.333,743.841a19.41,19.41,0,1,1,19.41-19.41,19.432,19.432,0,0,1-19.41,19.41m0-33.2a13.794,13.794,0,1,0,13.794,13.794,13.809,13.809,0,0,0-13.794-13.794" transform="translate(-150.613 -547.566)" fill="#0c5e46"/>
    <path id="Trazado_613481" data-name="Trazado 613481" d="M350.66,567.061a9.55,9.55,0,1,1,9.55-9.55,9.561,9.561,0,0,1-9.55,9.55m0-13.483a3.933,3.933,0,1,0,3.933,3.933,3.938,3.938,0,0,0-3.933-3.933" transform="translate(-264.929 -425.583)" fill="#6debff"/>
    <path id="Trazado_613482" data-name="Trazado 613482" d="M35.355,483.841a5.338,5.338,0,1,1-5.338-5.338,5.338,5.338,0,0,1,5.338,5.338" transform="translate(-19.167 -371.637)" fill="#89bbe1"/>
    <path id="Trazado_613483" data-name="Trazado 613483" d="M696.832,773.369a5.338,5.338,0,1,1-5.338-5.338,5.338,5.338,0,0,1,5.338,5.338" transform="translate(-532.914 -596.504)" fill="#0c5e46"/>
    <path id="Trazado_613484" data-name="Trazado 613484" d="M1306.774,464.195a5.338,5.338,0,1,1-5.338-5.338,5.338,5.338,0,0,1,5.338,5.338" transform="translate(-1006.636 -356.379)" fill="#0c5e46"/>
    <path id="Trazado_613485" data-name="Trazado 613485" d="M1111.936,5.338A5.338,5.338,0,1,1,1106.6,0a5.338,5.338,0,0,1,5.338,5.338" transform="translate(-855.312 0)" fill="#8bc3b6"/>
    <path id="Trazado_613486" data-name="Trazado 613486" d="M311.174,5.338A5.338,5.338,0,1,1,305.836,0a5.338,5.338,0,0,1,5.338,5.338" transform="translate(-233.387 0)" fill="#03386e"/>
    <path id="Trazado_613487" data-name="Trazado 613487" d="M727.8,114.762a5.338,5.338,0,1,1-5.338-5.338,5.338,5.338,0,0,1,5.338,5.338" transform="translate(-556.969 -84.986)" fill="#6debff"/>
    <path id="Trazado_613488" data-name="Trazado 613488" d="M280.322,618.131a5.338,5.338,0,1,1-5.338-5.338,5.338,5.338,0,0,1,5.338,5.338" transform="translate(-209.425 -475.936)" fill="#8bc3b6"/>
    <path id="Trazado_613489" data-name="Trazado 613489" d="M859.575,788.31a9.55,9.55,0,1,1,9.55-9.55,9.561,9.561,0,0,1-9.55,9.55m0-13.483a3.933,3.933,0,1,0,3.933,3.933,3.938,3.938,0,0,0-3.933-3.933" transform="translate(-660.186 -597.42)" fill="#8bc3b6"/>
    <rect id="Rectángulo_380779" data-name="Rectángulo 380779" width="5.616" height="38.144" transform="matrix(0.505, -0.863, 0.863, 0.505, 215.529, 130.076)" fill="#6debff"/>
    <rect id="Rectángulo_380780" data-name="Rectángulo 380780" width="80.021" height="5.617" transform="translate(215.39 85.923) rotate(-18.292)" fill="#03386e"/>
    <rect id="Rectángulo_380781" data-name="Rectángulo 380781" width="5.617" height="63.138" transform="matrix(0.287, -0.958, 0.958, 0.287, 48.362, 76.236)" fill="#8bc3b6"/>
    <rect id="Rectángulo_380782" data-name="Rectángulo 380782" width="18.542" height="5.616" transform="translate(90.927 125.727) rotate(-12.188)" fill="#6debff"/>
    <rect id="Rectángulo_380783" data-name="Rectángulo 380783" width="49.932" height="5.617" transform="translate(75.858 166.307) rotate(-28.874)" fill="#0c5e46"/>
    <rect id="Rectángulo_380784" data-name="Rectángulo 380784" width="5.617" height="17.841" transform="translate(186.849 159.577) rotate(-24.781)" fill="#8bc3b6"/>
    <path id="Trazado_613490" data-name="Trazado 613490" d="M533.617,109.937a9.55,9.55,0,1,1-8.8,10.241,9.561,9.561,0,0,1,8.8-10.241m1.014,13.445a3.933,3.933,0,1,0-4.218-3.627,3.938,3.938,0,0,0,4.218,3.627" transform="translate(-407.583 -85.363)" fill="#03386e"/>
    <rect id="Rectángulo_380785" data-name="Rectángulo 380785" width="5.617" height="17.841" transform="translate(127.309 41.996) rotate(-29.094)" fill="#03386e"/>
    <path id="Trazado_613491" data-name="Trazado 613491" d="M922.577,37.472a9.55,9.55,0,1,1-13.253-2.6,9.561,9.561,0,0,1,13.253,2.6m-11.191,7.52a3.933,3.933,0,1,0,1.071-5.458,3.938,3.938,0,0,0-1.071,5.458" transform="translate(-702.963 -25.826)" fill="#0c5e46"/>
    <path id="Trazado_613492" data-name="Trazado 613492" d="M856.369,98.553l-19.2,32.964-4.8-2.919,19.2-32.964Z" transform="translate(-646.478 -74.275)" fill="#0c5e46"/>
    <path id="Trazado_613493" data-name="Trazado 613493" d="M896.447,304.629l6.334-.448a59.857,59.857,0,0,0-24-38.445l-3.324,5.391a53.532,53.532,0,0,1,20.985,33.5" transform="translate(-679.942 -206.387)" fill="#0c5e46"/>
    <path id="Trazado_613494" data-name="Trazado 613494" d="M613.986,221.467a53.158,53.158,0,0,1,31.6,10.371l3.324-5.391a59.642,59.642,0,0,0-69.425-.31L583.558,231a53.145,53.145,0,0,1,30.427-9.533" transform="translate(-450.068 -167.098)" fill="#8bc3b6"/>
    <path id="Trazado_613495" data-name="Trazado 613495" d="M527.93,269.212l-4.071-4.863a60.247,60.247,0,0,0-16,16.846l5.474,3.167a53.89,53.89,0,0,1,14.593-15.15" transform="translate(-394.44 -205.311)" fill="#6debff"/>
    <path id="Trazado_613496" data-name="Trazado 613496" d="M585.035,361.685l-6.334.448a53.454,53.454,0,1,1-97.608-19.191l-5.474-3.167a59.752,59.752,0,1,0,109.416,21.909" transform="translate(-362.196 -263.893)" fill="#03386e"/>
    <path id="Trazado_613497" data-name="Trazado 613497" d="M256.727,756.1a.585.585,0,0,0-.461-.575l-2.1-.469,1.152-1.818a.586.586,0,0,0-.081-.733l-2.726-2.731a.6.6,0,0,0-.733-.081l-1.813,1.152-.469-2.1a.586.586,0,0,0-.575-.461h-3.854a.585.585,0,0,0-.575.461l-.468,2.1-1.811-1.152a.6.6,0,0,0-.735.08l-2.726,2.732a.588.588,0,0,0-.08.733l1.152,1.818-2.1.469a.586.586,0,0,0-.461.576v3.862a.586.586,0,0,0,.461.576l2.1.469-1.152,1.818a.587.587,0,0,0,.08.733l2.726,2.73a.6.6,0,0,0,.734.082l1.813-1.153.468,2.1a.594.594,0,0,0,.575.463h3.855a.585.585,0,0,0,.575-.461l.469-2.1,1.813,1.153a.6.6,0,0,0,.733-.082l2.724-2.731a.593.593,0,0,0,.082-.733l-1.152-1.818,2.1-.47a.586.586,0,0,0,.462-.576Zm-9.744,6.239h0l-.055,0a4.051,4.051,0,0,1,0-8.1l.072,0h.014a4.054,4.054,0,0,1-.025,8.107" transform="translate(-184.279 -581.167)" fill="#636363"/>
    <path id="Trazado_613498" data-name="Trazado 613498" d="M1350.32,193.849c-7.561,0-13.712,4.831-13.712,10.77s6.151,10.769,13.712,10.769c.4,0,.8-.015,1.215-.044l1.077,2.6a.616.616,0,0,0,.467.375.582.582,0,0,0,.111.01.625.625,0,0,0,.465-.207l3.926-4.368c4.041-1.98,6.452-5.393,6.452-9.139,0-5.938-6.151-10.77-13.712-10.77m-5.139,13.536a1.639,1.639,0,1,1,1.639-1.639,1.641,1.641,0,0,1-1.639,1.639m5.176,0a1.639,1.639,0,1,1,1.639-1.639,1.641,1.641,0,0,1-1.639,1.639m4.937,0a1.639,1.639,0,1,1,1.639-1.639,1.641,1.641,0,0,1-1.639,1.639" transform="translate(-1038.099 -150.556)" fill="#636363"/>
    <path id="Trazado_613499" data-name="Trazado 613499" d="M659.623,441.328l19.447-7.842a1.283,1.283,0,0,0,.728-1.624l-.272-.758a.372.372,0,0,1,.057-.351c3.906-5.113,1.237-11.923,1.237-11.923L676.9,408.818l-.015-.048c-.074-.344-1.171-5.11-4.726-5.11a4.477,4.477,0,0,0-3.79,1.69.38.38,0,0,1-.682-.124c-.245-1.028-1.056-2.327-3.544-2.608a3.7,3.7,0,0,0-4.3,2.361.375.375,0,0,1-.683.034c-.893-1.852-2.8-4-5.2-3.2a4.339,4.339,0,0,0-2.754,2.42.378.378,0,0,1-.7,0l-4-10.274s-1.924-6.172-5.932-4.649-1.844,6.814-1.844,6.814l9.231,24.385a.379.379,0,0,1-.551.459l-4.4-2.663-.045-.032c-.319-.278-4.978-4.242-7.919-1.147s.3,6.465.546,6.718l.04.034,21.86,15.876.121.146.366.781a1.283,1.283,0,0,0,1.642.646" transform="translate(-492.271 -302.176)" fill="#03386e"/>
    <path id="Trazado_613500" data-name="Trazado 613500" d="M771.744,603.3l-4.383-9.861a1.441,1.441,0,0,0-1.855-.751l-21.461,8.641a1.441,1.441,0,0,0-.77,1.94l4.46,9.677a1.44,1.44,0,0,0,1.839.737l21.383-8.457a1.441,1.441,0,0,0,.787-1.925" transform="translate(-577.173 -460.237)" fill="#03386e"/>
    <path id="Trazado_613501" data-name="Trazado 613501" d="M624.935,314.2a2.565,2.565,0,0,0,4.787-1.844l-2.68-6.958a2.565,2.565,0,0,0-4.787,1.844Z" transform="translate(-483.151 -235.916)" fill="#03386e"/>
    <path id="Trazado_613502" data-name="Trazado 613502" d="M577.546,352.609l6.815,3.026a2.565,2.565,0,0,0,2.082-4.69l-6.815-3.026a2.565,2.565,0,0,0-2.082,4.69" transform="translate(-447.376 -270.045)" fill="#03386e"/>
    <path id="Trazado_613503" data-name="Trazado 613503" d="M708.091,404.656l-6.816-3.026a2.565,2.565,0,0,0-2.082,4.69l6.816,3.026a2.565,2.565,0,0,0,2.082-4.69" transform="translate(-541.855 -311.76)" fill="#03386e"/>
    <path id="Trazado_613504" data-name="Trazado 613504" d="M586.442,401a2.566,2.566,0,0,0-3.316-1.472l-6.959,2.679a2.565,2.565,0,1,0,1.844,4.787l6.959-2.679A2.565,2.565,0,0,0,586.442,401" transform="translate(-446.213 -310.166)" fill="#03386e"/>
    <path id="Trazado_613505" data-name="Trazado 613505" d="M698.692,357.484a2.561,2.561,0,0,0,3.316,1.472l6.959-2.679a2.565,2.565,0,1,0-1.844-4.787l-6.959,2.679a2.565,2.565,0,0,0-1.472,3.315" transform="translate(-542.517 -272.857)" fill="#03386e"/>
    <path id="Trazado_613506" data-name="Trazado 613506" d="M623.383,437.317l3.026-6.815a2.565,2.565,0,0,0-4.69-2.082l-3.026,6.815a2.565,2.565,0,1,0,4.689,2.082" transform="translate(-480.347 -331.555)" fill="#03386e"/>
    <path id="Trazado_613507" data-name="Trazado 613507" d="M673.709,316.971a2.562,2.562,0,0,0,3.386-1.3l3.025-6.816a2.565,2.565,0,1,0-4.689-2.082l-3.026,6.816a2.566,2.566,0,0,0,1.3,3.385" transform="translate(-522.063 -237.072)" fill="#03386e"/>
    <path id="Trazado_613508" data-name="Trazado 613508" d="M1191.574,647.635h-12.82a2.712,2.712,0,0,0-2.683,2.74V676.95a2.713,2.713,0,0,0,2.683,2.741h12.82a2.712,2.712,0,0,0,2.683-2.741V650.375a2.712,2.712,0,0,0-2.683-2.74m-4.742,29.811a.653.653,0,0,1-.653.654h-2.029a.654.654,0,0,1-.653-.654v-1.119a.653.653,0,0,1,.653-.653h2.029a.653.653,0,0,1,.653.653Zm3.645-3.639h-10.626a1.307,1.307,0,0,1-1.307-1.307v-20.49a1.308,1.308,0,0,1,1.307-1.307h10.626a1.308,1.308,0,0,1,1.307,1.307V672.5a1.307,1.307,0,0,1-1.307,1.307" transform="translate(-913.415 -502.997)" fill="#03386e"/>
    <path id="Trazado_613509" data-name="Trazado 613509" d="M70.632,256.832a6.866,6.866,0,0,0-.872.056,7.327,7.327,0,0,0,.045-.8,8.02,8.02,0,0,0-15.663-2.436c-.244-.021-.474-.032-.7-.032a8.511,8.511,0,0,0,0,17.022H70.632a6.907,6.907,0,1,0,0-13.814" transform="translate(-34.9 -192.665)" fill="#03386e"/>
  </g>
</svg>
