<svg id="Grupo_1076690" data-name="Grupo 1076690" xmlns="http://www.w3.org/2000/svg" xmlns:xlink="http://www.w3.org/1999/xlink" width="335" height="254.642" viewBox="0 0 335 254.642">
  <defs>
    <clipPath id="clip-path">
      <rect id="Rectángulo_380761" data-name="Rectángulo 380761" width="335" height="254.642" fill="none"/>
    </clipPath>
    <clipPath id="clip-path-5">
      <rect id="Rectángulo_380732" data-name="Rectángulo 380732" width="130.111" height="180.153" fill="none"/>
    </clipPath>
    <clipPath id="clip-path-7">
      <rect id="Rectángulo_380736" data-name="Rectángulo 380736" width="14.372" height="9.01" fill="none"/>
    </clipPath>
    <clipPath id="clip-path-8">
      <rect id="Rectángulo_380737" data-name="Rectángulo 380737" width="1.703" height="1.703" fill="none"/>
    </clipPath>
    <clipPath id="clip-path-9">
      <rect id="Rectángulo_380738" data-name="Rectángulo 380738" width="10.324" height="3.553" fill="none"/>
    </clipPath>
    <clipPath id="clip-path-10">
      <rect id="Rectángulo_380739" data-name="Rectángulo 380739" width="1.562" height="1.556" fill="none"/>
    </clipPath>
    <clipPath id="clip-path-11">
      <rect id="Rectángulo_380740" data-name="Rectángulo 380740" width="20.016" height="2.205" fill="none"/>
    </clipPath>
    <clipPath id="clip-path-12">
      <rect id="Rectángulo_380741" data-name="Rectángulo 380741" width="10.005" height="2.108" fill="none"/>
    </clipPath>
    <clipPath id="clip-path-13">
      <rect id="Rectángulo_380742" data-name="Rectángulo 380742" width="21.758" height="4.611" fill="none"/>
    </clipPath>
    <clipPath id="clip-path-14">
      <rect id="Rectángulo_380743" data-name="Rectángulo 380743" width="21.646" height="9.507" fill="none"/>
    </clipPath>
    <clipPath id="clip-path-15">
      <rect id="Rectángulo_380744" data-name="Rectángulo 380744" width="15.879" height="9.877" fill="none"/>
    </clipPath>
    <clipPath id="clip-path-17">
      <rect id="Rectángulo_380746" data-name="Rectángulo 380746" width="22.909" height="4.855" fill="none"/>
    </clipPath>
    <clipPath id="clip-path-19">
      <rect id="Rectángulo_380748" data-name="Rectángulo 380748" width="1.702" height="1.703" fill="none"/>
    </clipPath>
    <clipPath id="clip-path-20">
      <rect id="Rectángulo_380749" data-name="Rectángulo 380749" width="21.743" height="2.482" fill="none"/>
    </clipPath>
    <clipPath id="clip-path-21">
      <rect id="Rectángulo_380750" data-name="Rectángulo 380750" width="2.663" height="3.367" fill="none"/>
    </clipPath>
    <clipPath id="clip-path-22">
      <rect id="Rectángulo_380751" data-name="Rectángulo 380751" width="25.278" height="14.577" fill="none"/>
    </clipPath>
    <clipPath id="clip-path-24">
      <rect id="Rectángulo_380754" data-name="Rectángulo 380754" width="5.335" height="6.007" fill="none"/>
    </clipPath>
    <clipPath id="clip-path-25">
      <rect id="Rectángulo_380755" data-name="Rectángulo 380755" width="12.16" height="5.132" fill="none"/>
    </clipPath>
    <clipPath id="clip-path-26">
      <rect id="Rectángulo_380756" data-name="Rectángulo 380756" width="11.945" height="8.113" fill="none"/>
    </clipPath>
    <clipPath id="clip-path-27">
      <rect id="Rectángulo_380757" data-name="Rectángulo 380757" width="5.269" height="10.159" fill="none"/>
    </clipPath>
    <clipPath id="clip-path-28">
      <rect id="Rectángulo_380758" data-name="Rectángulo 380758" width="11.567" height="7.885" fill="none"/>
    </clipPath>
    <clipPath id="clip-path-29">
      <rect id="Rectángulo_380759" data-name="Rectángulo 380759" width="4.586" height="4.707" fill="none"/>
    </clipPath>
  </defs>
  <g id="Grupo_1076689" data-name="Grupo 1076689" clip-path="url(#clip-path)">
    <g id="Grupo_1076612" data-name="Grupo 1076612">
      <g id="Grupo_1076611" data-name="Grupo 1076611" clip-path="url(#clip-path)">
        <path id="Trazado_613206" data-name="Trazado 613206" d="M47.4,234.189H45.728l-3.639-5.072v-3.329s-2.577-.158-2.274,4.2-.025,3.249-.025,3.249-5.473.021-5.928.5c-.331.346-.48,5.782-.538,8.731a3.193,3.193,0,0,0,2.262,3.216,2.382,2.382,0,0,0,.589.079c1.365,0,8.34-1.11,8.34-1.11H47.4Z" transform="translate(-17.081 -115.74)" fill="#ebebeb"/>
        <path id="Trazado_613207" data-name="Trazado 613207" d="M67.909,241.15l-1.026,11.406H64.027V241.38Z" transform="translate(-32.821 -123.615)" fill="#ebebeb"/>
        <path id="Trazado_613208" data-name="Trazado 613208" d="M591.268,131.03a17.422,17.422,0,0,0-.389-2.494,9.839,9.839,0,0,0-1.15-2.706,10.152,10.152,0,0,0-12.189-4.3,10.143,10.143,0,0,0-4.693,3.528,10.067,10.067,0,0,0,0,11.947,10.137,10.137,0,0,0,4.694,3.529,10.184,10.184,0,0,0,12.189-4.3,9.851,9.851,0,0,0,1.15-2.706,17.433,17.433,0,0,0,.389-2.493.58.58,0,0,1,.01.167c0,.132,0,.293-.007.491a4.708,4.708,0,0,1-.063.8,7.169,7.169,0,0,1-.193,1.074,9.71,9.71,0,0,1-1.113,2.775,10.383,10.383,0,0,1-6.99,4.945,10.438,10.438,0,0,1-5.485-.434,10.438,10.438,0,0,1-4.864-3.632,10.388,10.388,0,0,1,0-12.363,10.445,10.445,0,0,1,4.863-3.631,10.441,10.441,0,0,1,5.484-.433,10.376,10.376,0,0,1,6.99,4.944,9.705,9.705,0,0,1,1.113,2.775,7.162,7.162,0,0,1,.193,1.074,4.7,4.7,0,0,1,.063.8c0,.2.005.359.007.491a.58.58,0,0,1-.01.167" transform="translate(-292.454 -61.823)" fill="#e0e0e0"/>
        <path id="Trazado_613209" data-name="Trazado 613209" d="M624.547,165.881c-.055.082-3.693-2.263-8.125-5.237s-7.981-5.453-7.926-5.536,3.693,2.262,8.126,5.238,7.98,5.453,7.925,5.535" transform="translate(-311.919 -79.508)" fill="#e0e0e0"/>
        <rect id="Rectángulo_380724" data-name="Rectángulo 380724" width="41.595" height="53.627" transform="translate(59.309 197.949)" fill="#ebebeb"/>
        <rect id="Rectángulo_380725" data-name="Rectángulo 380725" width="41.595" height="53.627" transform="translate(45.623 197.949)" fill="#f5f5f5"/>
        <path id="Trazado_613210" data-name="Trazado 613210" d="M106.9,414.33V412h-3.927v2.328a1.97,1.97,0,0,0,1.715,1.946V418.3h-.873c-.306,0-.556.176-.556.391h3.355c0-.215-.25-.391-.556-.391h-.873v-2.027a1.969,1.969,0,0,0,1.715-1.946" transform="translate(-52.785 -211.195)" fill="#e0e0e0" fill-rule="evenodd"/>
        <path id="Trazado_613211" data-name="Trazado 613211" d="M120.634,414.174A2.862,2.862,0,0,0,117.866,412h0a2.861,2.861,0,0,0-2.767,2.172h2.5v3.65a.555.555,0,0,1-1.106,0h-.533a1.087,1.087,0,0,0,2.172,0v-3.65Z" transform="translate(-59 -211.195)" fill="#e0e0e0" fill-rule="evenodd"/>
        <path id="Trazado_613212" data-name="Trazado 613212" d="M148.591,458.654c0,.07-12.484.127-27.88.127s-27.883-.057-27.883-.127,12.481-.127,27.883-.127,27.88.057,27.88.127" transform="translate(-47.584 -235.044)" fill="#e0e0e0"/>
        <path id="Trazado_613213" data-name="Trazado 613213" d="M136.144,459.906c-.07,0-.127-12.072-.127-26.961s.057-26.964.127-26.964.127,12.07.127,26.964-.057,26.961-.127,26.961" transform="translate(-69.723 -208.109)" fill="#e0e0e0"/>
        <rect id="Rectángulo_380726" data-name="Rectángulo 380726" width="41.596" height="53.627" transform="translate(250.071 168.359)" fill="#ebebeb"/>
        <rect id="Rectángulo_380727" data-name="Rectángulo 380727" width="41.595" height="53.627" transform="translate(236.387 168.359)" fill="#f5f5f5"/>
        <path id="Trazado_613214" data-name="Trazado 613214" d="M498.3,353.619v-2.328h-3.927v2.328a1.969,1.969,0,0,0,1.715,1.946v2.027h-.873c-.306,0-.556.176-.556.391h3.355c0-.215-.25-.391-.556-.391h-.873v-2.027a1.969,1.969,0,0,0,1.715-1.946" transform="translate(-253.416 -180.074)" fill="#e0e0e0" fill-rule="evenodd"/>
        <path id="Trazado_613215" data-name="Trazado 613215" d="M512.028,353.463a2.862,2.862,0,0,0-2.767-2.171h0a2.862,2.862,0,0,0-2.767,2.171H509v3.65a.555.555,0,0,1-1.106,0h-.533a1.087,1.087,0,0,0,2.172,0v-3.65Z" transform="translate(-259.631 -180.074)" fill="#e0e0e0" fill-rule="evenodd"/>
        <path id="Trazado_613216" data-name="Trazado 613216" d="M539.986,397.943c0,.07-12.484.127-27.88.127s-27.883-.057-27.883-.127,12.481-.127,27.883-.127,27.88.057,27.88.127" transform="translate(-248.216 -203.923)" fill="#e0e0e0"/>
        <path id="Trazado_613217" data-name="Trazado 613217" d="M527.539,399.2c-.07,0-.127-12.072-.127-26.961s.057-26.964.127-26.964.127,12.07.127,26.964-.057,26.961-.127,26.961" transform="translate(-270.355 -176.989)" fill="#e0e0e0"/>
        <rect id="Rectángulo_380728" data-name="Rectángulo 380728" width="34.939" height="34.939" transform="translate(208.806 186.86)" fill="#ebebeb"/>
        <rect id="Rectángulo_380729" data-name="Rectángulo 380729" width="34.939" height="34.939" transform="translate(194.968 186.86)" fill="#f5f5f5"/>
        <path id="Trazado_613218" data-name="Trazado 613218" d="M412.717,392.183h1l-.857-1.571L412,389.041l-.857,1.571-.857,1.571h1v3.95h-2.448v-3.95h.995l-.856-1.571-.856-1.571-.857,1.571-.856,1.571h.994v3.95h-.578v.55h6.476v-.55h-.578Z" transform="translate(-208.324 -199.425)" fill="#e0e0e0" fill-rule="evenodd"/>
        <path id="Trazado_613219" data-name="Trazado 613219" d="M436.528,418.554c-.07,0-.127-7.752-.127-17.313s.057-17.314.127-17.314.127,7.75.127,17.314-.057,17.313-.127,17.313" transform="translate(-223.702 -196.804)" fill="#e0e0e0"/>
        <path id="Trazado_613220" data-name="Trazado 613220" d="M448.794,419c0,.07-11.068.127-24.718.127s-24.72-.057-24.72-.127,11.066-.127,24.72-.127,24.718.057,24.718.127" transform="translate(-204.712 -214.718)" fill="#e0e0e0"/>
        <path id="Trazado_613221" data-name="Trazado 613221" d="M400,482.134H192.934a13.621,13.621,0,0,1,0-27.241H400a13.621,13.621,0,1,1,0,27.241" transform="translate(-91.917 -233.181)" fill="#dadddf" fill-rule="evenodd"/>
        <path id="Trazado_613222" data-name="Trazado 613222" d="M407.56,482.44H199.332a7.719,7.719,0,1,1,0-15.438H407.56a7.719,7.719,0,1,1,0,15.438" transform="translate(-98.222 -239.388)" fill="#ebebeb" fill-rule="evenodd"/>
        <path id="Trazado_613223" data-name="Trazado 613223" d="M209.039,476.065a11.807,11.807,0,0,0-.247-1.535,6.316,6.316,0,0,0-2.311-3.431,6.227,6.227,0,0,0-5.9-.876,6.231,6.231,0,0,0-2.885,2.17,6.193,6.193,0,0,0,0,7.345,6.242,6.242,0,0,0,2.885,2.17,6.279,6.279,0,0,0,8.211-4.308,11.82,11.82,0,0,0,.247-1.535,2.512,2.512,0,0,1,0,.406,2.852,2.852,0,0,1-.037.491,4.467,4.467,0,0,1-.118.663,6.384,6.384,0,0,1-5,4.77,6.448,6.448,0,0,1-3.388-.267,6.451,6.451,0,0,1-3.006-2.243,6.418,6.418,0,0,1,0-7.64A6.449,6.449,0,0,1,200.5,470a6.446,6.446,0,0,1,3.388-.267,6.384,6.384,0,0,1,5,4.77,4.422,4.422,0,0,1,.118.663,2.911,2.911,0,0,1,.037.491,2.512,2.512,0,0,1,0,.406" transform="translate(-100.591 -240.733)" fill="#e0e0e0"/>
        <path id="Trazado_613224" data-name="Trazado 613224" d="M209.382,480.43a2.291,2.291,0,1,1-2.29-2.29,2.29,2.29,0,0,1,2.29,2.29" transform="translate(-104.982 -245.097)" fill="#e0e0e0" fill-rule="evenodd"/>
        <path id="Trazado_613225" data-name="Trazado 613225" d="M633.045,476.065a11.644,11.644,0,0,0-.246-1.535,6.317,6.317,0,0,0-2.312-3.431,6.226,6.226,0,0,0-5.9-.876,6.232,6.232,0,0,0-2.885,2.17,6.191,6.191,0,0,0,0,7.345,6.241,6.241,0,0,0,2.885,2.17A6.279,6.279,0,0,0,632.8,477.6a11.656,11.656,0,0,0,.246-1.535,2.412,2.412,0,0,1,0,.406,2.866,2.866,0,0,1-.038.491,4.393,4.393,0,0,1-.117.663,6.384,6.384,0,0,1-5,4.77,6.448,6.448,0,0,1-3.388-.267,6.45,6.45,0,0,1-3.006-2.243,6.418,6.418,0,0,1,0-7.64A6.449,6.449,0,0,1,624.508,470a6.446,6.446,0,0,1,3.388-.267,6.385,6.385,0,0,1,5,4.77,4.4,4.4,0,0,1,.117.663,2.874,2.874,0,0,1,.038.491,2.412,2.412,0,0,1,0,.406" transform="translate(-317.94 -240.733)" fill="#e0e0e0"/>
        <path id="Trazado_613226" data-name="Trazado 613226" d="M633.388,480.43a2.291,2.291,0,1,1-2.291-2.29,2.291,2.291,0,0,1,2.291,2.29" transform="translate(-322.33 -245.097)" fill="#e0e0e0" fill-rule="evenodd"/>
        <path id="Trazado_613227" data-name="Trazado 613227" d="M416.742,469.569c0,.07-46.4.127-103.616.127-57.239,0-103.625-.057-103.625-.127s46.386-.127,103.625-.127c57.219,0,103.616.057,103.616.127" transform="translate(-107.391 -240.639)" fill="#e0e0e0"/>
        <path id="Trazado_613228" data-name="Trazado 613228" d="M417.646,495.711c0,.07-46.2.127-103.187.127-57,0-103.195-.057-103.195-.127s46.194-.127,103.195-.127c56.982,0,103.187.057,103.187.127" transform="translate(-108.295 -254.039)" fill="#e0e0e0"/>
      </g>
    </g>
    <g id="Grupo_1076614" data-name="Grupo 1076614">
      <g id="Grupo_1076613" data-name="Grupo 1076613" clip-path="url(#clip-path)">
        <path id="Trazado_613229" data-name="Trazado 613229" d="M341.657,517.579c0,.07-73.581.127-164.327.127-90.778,0-164.343-.057-164.343-.127s73.566-.127,164.343-.127c90.746,0,164.327.057,164.327.127" transform="translate(-6.657 -265.249)" fill="#263238"/>
      </g>
    </g>
    <g id="Grupo_1076619" data-name="Grupo 1076619">
      <g id="Grupo_1076618" data-name="Grupo 1076618" clip-path="url(#clip-path)">
        <path id="Trazado_613230" data-name="Trazado 613230" d="M248.168,212.63h-122a4.054,4.054,0,0,1-4.054-4.054V36.531a4.054,4.054,0,0,1,4.054-4.054h122a4.054,4.054,0,0,1,4.054,4.054V208.576a4.054,4.054,0,0,1-4.054,4.054" transform="translate(-62.595 -16.648)" fill="#03386e"/>
        <g id="Grupo_1076617" data-name="Grupo 1076617" transform="translate(59.516 15.829)" opacity="0.3">
          <g id="Grupo_1076616" data-name="Grupo 1076616">
            <g id="Grupo_1076615" data-name="Grupo 1076615" clip-path="url(#clip-path-5)">
              <path id="Trazado_613231" data-name="Trazado 613231" d="M248.168,212.63h-122a4.054,4.054,0,0,1-4.054-4.054V36.531a4.054,4.054,0,0,1,4.054-4.054h122a4.054,4.054,0,0,1,4.054,4.054V208.576a4.054,4.054,0,0,1-4.054,4.054" transform="translate(-122.111 -32.477)"/>
            </g>
          </g>
        </g>
        <rect id="Rectángulo_380733" data-name="Rectángulo 380733" width="111.852" height="164.208" transform="translate(68.645 25.467)" fill="#e0e0e0"/>
        <rect id="Rectángulo_380734" data-name="Rectángulo 380734" width="111.852" height="161.072" transform="translate(67.105 24.151)" fill="#ebebeb"/>
        <path id="Trazado_613232" data-name="Trazado 613232" d="M249.359,210.449c0-1.347-.062-66.032-.151-161.073l.151.151-111.839.015h-.013l.166-.166c-.012,60.484-.023,116.365-.032,161.073l-.134-.134,111.852.134-111.852.134h-.134v-.134c-.009-44.708-.02-100.589-.032-161.073V49.21h.179l111.839.015h.152v.152c-.089,95.041-.15,159.727-.151,161.073" transform="translate(-70.402 -25.225)" fill="#263238"/>
        <path id="Trazado_613233" data-name="Trazado 613233" d="M285.766,349.437s28.741-10.943,39.411-29.086a29.859,29.859,0,0,1-22.967,4.778s-7.609,20.306-16.443,24.308" transform="translate(-146.485 -164.214)" fill="#e0e0e0"/>
        <path id="Trazado_613234" data-name="Trazado 613234" d="M285.765,348.748l.476-.266a12.338,12.338,0,0,0,1.372-.878,22.669,22.669,0,0,0,4.3-4.306c3.249-4.118,6.931-10.694,10.152-18.91l.047-.12.123.025a29.375,29.375,0,0,0,10.4.208c.911-.109,1.807-.352,2.722-.543.9-.257,1.812-.5,2.705-.832a30.519,30.519,0,0,0,5.255-2.438,20.511,20.511,0,0,0,1.75-1.156l.687-.525-.442.739a45.187,45.187,0,0,1-6.179,8,67.642,67.642,0,0,1-7,6.245,99.756,99.756,0,0,1-13.25,8.621c-3.94,2.16-7.231,3.689-9.523,4.692-1.146.5-2.046.865-2.658,1.105l-.7.265a1.809,1.809,0,0,1-.243.077c.011,0,.072-.043.231-.108l.687-.294c.6-.259,1.494-.643,2.631-1.16,2.273-1.037,5.545-2.6,9.463-4.777a101.875,101.875,0,0,0,13.175-8.658,67.991,67.991,0,0,0,6.955-6.231,45.149,45.149,0,0,0,6.126-7.941l.245.214a20.562,20.562,0,0,1-1.786,1.18,30.719,30.719,0,0,1-5.314,2.464c-.9.337-1.826.58-2.735.838-.925.193-1.832.436-2.752.546a29.569,29.569,0,0,1-10.512-.233l.17-.095c-3.259,8.238-6.985,14.807-10.293,18.917a21.955,21.955,0,0,1-4.388,4.272,10.783,10.783,0,0,1-1.9,1.066" transform="translate(-146.485 -163.525)" fill="#263238"/>
        <path id="Trazado_613235" data-name="Trazado 613235" d="M176.015,153.287H166.7a2.178,2.178,0,0,1-2.178-2.178v-9.317a2.178,2.178,0,0,1,2.178-2.178h9.317a2.178,2.178,0,0,1,2.178,2.178v9.317a2.178,2.178,0,0,1-2.178,2.178" transform="translate(-84.334 -71.567)" fill="#0c5e46"/>
        <path id="Trazado_613236" data-name="Trazado 613236" d="M174.438,151.98h-.011a.318.318,0,0,1-.232-.111l-1.914-2.235a.319.319,0,0,1,.484-.414l1.688,1.97,4.438-4.539a.318.318,0,0,1,.455.445l-4.681,4.788a.319.319,0,0,1-.228.1" transform="translate(-88.273 -75.125)" fill="#fff"/>
        <path id="Trazado_613237" data-name="Trazado 613237" d="M272.033,142.854c0,.092-14.552.166-32.5.166s-32.5-.074-32.5-.166,14.549-.166,32.5-.166,32.5.074,32.5.166" transform="translate(-106.126 -73.143)" fill="#263238"/>
        <path id="Trazado_613238" data-name="Trazado 613238" d="M234.419,163.371a6.692,6.692,0,0,1-1.076.065l-2.935.053c-2.478.03-5.9.048-9.682.048s-7.205-.019-9.684-.048l-2.934-.053a6.692,6.692,0,0,1-1.076-.065,6.662,6.662,0,0,1,1.076-.064l2.934-.053c2.478-.03,5.9-.048,9.684-.048s7.2.019,9.682.048l2.935.053a6.662,6.662,0,0,1,1.076.064" transform="translate(-106.126 -83.66)" fill="#263238"/>
        <path id="Trazado_613239" data-name="Trazado 613239" d="M272.033,151.947c0,.092-14.552.166-32.5.166s-32.5-.075-32.5-.166,14.549-.166,32.5-.166,32.5.074,32.5.166" transform="translate(-106.126 -77.804)" fill="#263238"/>
        <path id="Trazado_613240" data-name="Trazado 613240" d="M176.015,202.527H166.7a2.178,2.178,0,0,1-2.178-2.178v-9.317a2.178,2.178,0,0,1,2.178-2.178h9.317a2.178,2.178,0,0,1,2.178,2.178v9.317a2.178,2.178,0,0,1-2.178,2.178" transform="translate(-84.334 -96.808)" fill="#0c5e46"/>
        <path id="Trazado_613241" data-name="Trazado 613241" d="M174.438,201.221h-.011a.318.318,0,0,1-.232-.111l-1.914-2.235a.319.319,0,0,1,.484-.414l1.688,1.97,4.438-4.539a.319.319,0,1,1,.455.446l-4.681,4.787a.319.319,0,0,1-.228.1" transform="translate(-88.273 -100.366)" fill="#fff"/>
        <path id="Trazado_613242" data-name="Trazado 613242" d="M272.033,192.094c0,.092-14.552.166-32.5.166s-32.5-.074-32.5-.166,14.549-.166,32.5-.166,32.5.074,32.5.166" transform="translate(-106.126 -98.383)" fill="#263238"/>
        <path id="Trazado_613243" data-name="Trazado 613243" d="M234.419,212.611a6.688,6.688,0,0,1-1.076.065l-2.935.053c-2.478.03-5.9.048-9.682.048s-7.205-.019-9.684-.048l-2.934-.053a6.688,6.688,0,0,1-1.076-.065,6.664,6.664,0,0,1,1.076-.064l2.934-.053c2.478-.03,5.9-.048,9.684-.048s7.2.019,9.682.048l2.935.053a6.664,6.664,0,0,1,1.076.064" transform="translate(-106.126 -108.901)" fill="#263238"/>
        <path id="Trazado_613244" data-name="Trazado 613244" d="M272.033,201.187c0,.092-14.552.166-32.5.166s-32.5-.075-32.5-.166,14.549-.166,32.5-.166,32.5.074,32.5.166" transform="translate(-106.126 -103.045)" fill="#263238"/>
        <path id="Trazado_613245" data-name="Trazado 613245" d="M176.015,251.767H166.7a2.178,2.178,0,0,1-2.178-2.178v-9.317a2.178,2.178,0,0,1,2.178-2.178h9.317a2.178,2.178,0,0,1,2.178,2.178v9.317a2.178,2.178,0,0,1-2.178,2.178" transform="translate(-84.334 -122.048)" fill="#0c5e46"/>
        <path id="Trazado_613246" data-name="Trazado 613246" d="M174.438,250.462h-.011a.316.316,0,0,1-.232-.111l-1.914-2.234a.319.319,0,1,1,.484-.414l1.688,1.97,4.438-4.539a.318.318,0,1,1,.455.445l-4.681,4.788a.319.319,0,0,1-.228.1" transform="translate(-88.273 -125.607)" fill="#fff"/>
        <path id="Trazado_613247" data-name="Trazado 613247" d="M272.033,241.334c0,.092-14.552.166-32.5.166s-32.5-.074-32.5-.166,14.549-.166,32.5-.166,32.5.074,32.5.166" transform="translate(-106.126 -123.624)" fill="#263238"/>
        <path id="Trazado_613248" data-name="Trazado 613248" d="M234.419,261.851a6.649,6.649,0,0,1-1.076.065l-2.935.053c-2.478.029-5.9.048-9.682.048s-7.205-.019-9.684-.048l-2.934-.053a6.649,6.649,0,0,1-1.076-.065,6.732,6.732,0,0,1,1.076-.064l2.934-.053c2.478-.029,5.9-.048,9.684-.048s7.2.019,9.682.048l2.935.053a6.732,6.732,0,0,1,1.076.064" transform="translate(-106.126 -134.141)" fill="#263238"/>
        <path id="Trazado_613249" data-name="Trazado 613249" d="M272.033,250.427c0,.092-14.552.166-32.5.166s-32.5-.074-32.5-.166,14.549-.166,32.5-.166,32.5.074,32.5.166" transform="translate(-106.126 -128.285)" fill="#263238"/>
        <path id="Trazado_613250" data-name="Trazado 613250" d="M176.015,301.007H166.7a2.178,2.178,0,0,1-2.178-2.178v-9.317a2.178,2.178,0,0,1,2.178-2.178h9.317a2.178,2.178,0,0,1,2.178,2.178v9.317a2.178,2.178,0,0,1-2.178,2.178" transform="translate(-84.334 -147.289)" fill="#0c5e46"/>
        <path id="Trazado_613251" data-name="Trazado 613251" d="M174.438,299.7h-.011a.319.319,0,0,1-.232-.112l-1.914-2.234a.319.319,0,0,1,.484-.414l1.688,1.97,4.438-4.539a.318.318,0,0,1,.455.445l-4.681,4.788a.318.318,0,0,1-.228.1" transform="translate(-88.273 -150.848)" fill="#fff"/>
        <path id="Trazado_613252" data-name="Trazado 613252" d="M272.033,290.574c0,.092-14.552.166-32.5.166s-32.5-.074-32.5-.166,14.549-.166,32.5-.166,32.5.074,32.5.166" transform="translate(-106.126 -148.865)" fill="#263238"/>
        <path id="Trazado_613253" data-name="Trazado 613253" d="M234.419,311.092a6.693,6.693,0,0,1-1.076.065l-2.935.053c-2.478.03-5.9.048-9.682.048s-7.205-.018-9.684-.048l-2.934-.053a6.693,6.693,0,0,1-1.076-.065,6.659,6.659,0,0,1,1.076-.064l2.934-.053c2.478-.03,5.9-.048,9.684-.048s7.2.019,9.682.048l2.935.053a6.659,6.659,0,0,1,1.076.064" transform="translate(-106.126 -159.383)" fill="#263238"/>
        <path id="Trazado_613254" data-name="Trazado 613254" d="M272.033,299.667c0,.092-14.552.166-32.5.166s-32.5-.074-32.5-.166,14.549-.166,32.5-.166,32.5.074,32.5.166" transform="translate(-106.126 -153.526)" fill="#263238"/>
        <path id="Trazado_613255" data-name="Trazado 613255" d="M170.876,28.98v8.431a8.859,8.859,0,0,0,8.859,8.859H241.6a8.859,8.859,0,0,0,8.859-8.859V29Z" transform="translate(-87.592 -14.855)" fill="#263238"/>
        <path id="Trazado_613256" data-name="Trazado 613256" d="M243.69,16.612A8.306,8.306,0,1,1,252,8.306a8.316,8.316,0,0,1-8.306,8.306m0-13.427a5.121,5.121,0,1,0,5.121,5.121,5.126,5.126,0,0,0-5.121-5.121" transform="translate(-120.659)" fill="#263238"/>
      </g>
    </g>
    <g id="Grupo_1076648" data-name="Grupo 1076648">
      <g id="Grupo_1076647" data-name="Grupo 1076647" clip-path="url(#clip-path)">
        <path id="Trazado_613257" data-name="Trazado 613257" d="M604.691,470.332l3.027,12.883,5.989,10.279a1.481,1.481,0,0,1-1.978,2.051c-2.689-1.451-12.556-6.838-12.757-7.878-.233-1.2-4.133-14.762-4.133-14.762Z" transform="translate(-304.919 -241.095)" fill="#636363"/>
        <g id="Grupo_1076622" data-name="Grupo 1076622" transform="translate(293.794 245.632)" opacity="0.6">
          <g id="Grupo_1076621" data-name="Grupo 1076621">
            <g id="Grupo_1076620" data-name="Grupo 1076620" clip-path="url(#clip-path-7)">
              <path id="Trazado_613258" data-name="Trazado 613258" d="M617.158,512.809l-14.372-8.839.163.59a2.231,2.231,0,0,0,.894,1.252c1.172.795,4.456,2.919,11.917,6.988a1.48,1.48,0,0,0,1.4.009" transform="translate(-602.786 -503.97)" fill="#fff"/>
            </g>
          </g>
        </g>
        <g id="Grupo_1076625" data-name="Grupo 1076625" transform="translate(294.288 240.297)" opacity="0.6">
          <g id="Grupo_1076624" data-name="Grupo 1076624">
            <g id="Grupo_1076623" data-name="Grupo 1076623" clip-path="url(#clip-path-8)">
              <path id="Trazado_613259" data-name="Trazado 613259" d="M604.922,493.075a.9.9,0,0,1,.548,1.063.861.861,0,0,1-1.048.553.945.945,0,0,1-.575-1.128.894.894,0,0,1,1.154-.454" transform="translate(-603.8 -493.023)" fill="#fff"/>
            </g>
          </g>
        </g>
        <path id="Trazado_613260" data-name="Trazado 613260" d="M622.247,509.069a3.194,3.194,0,0,1,2.441-2.171c0-.038-.2-.1-.542-.053a2.361,2.361,0,0,0-1.888,1.679c-.083.331-.048.543-.011.545" transform="translate(-318.947 -259.804)" fill="#263238"/>
        <path id="Trazado_613261" data-name="Trazado 613261" d="M625.366,513.044c.083.042.405-.535,1.068-.94a12.117,12.117,0,0,1,1.312-.551,1.64,1.64,0,0,0-1.48.283c-.754.466-.983,1.191-.9,1.209" transform="translate(-320.558 -262.187)" fill="#263238"/>
        <path id="Trazado_613262" data-name="Trazado 613262" d="M617.134,504.792a7.6,7.6,0,0,1,3.483-2.615,4.047,4.047,0,0,0-3.483,2.615" transform="translate(-316.342 -257.407)" fill="#263238"/>
        <path id="Trazado_613263" data-name="Trazado 613263" d="M614.207,497.664c.06.073.741-.461,1.732-.774s1.852-.292,1.857-.386a3.675,3.675,0,0,0-3.59,1.16" transform="translate(-314.844 -254.449)" fill="#263238"/>
        <path id="Trazado_613264" data-name="Trazado 613264" d="M611.865,489.308a4.7,4.7,0,0,1,3.757-.9c.015-.035-.186-.168-.558-.265a3.226,3.226,0,0,0-2.822.676c-.288.255-.406.464-.377.489" transform="translate(-313.644 -250.18)" fill="#263238"/>
        <path id="Trazado_613265" data-name="Trazado 613265" d="M612.366,484.412a1.25,1.25,0,0,0-.127-.532,3.8,3.8,0,0,0-.8-1.264,1.684,1.684,0,0,0-.91-.583.6.6,0,0,0-.612.307.968.968,0,0,0-.046.69,2.093,2.093,0,0,0,2.284,1.378,2.428,2.428,0,0,0,1.96-1.859.842.842,0,0,0-.149-.686.583.583,0,0,0-.671-.135,2.066,2.066,0,0,0-.786.731,4.232,4.232,0,0,0-.651,1.345,1.291,1.291,0,0,0-.081.541,6.753,6.753,0,0,1,.911-1.75,1.936,1.936,0,0,1,.7-.62.312.312,0,0,1,.367.072.579.579,0,0,1,.071.457,2.168,2.168,0,0,1-1.718,1.592,1.818,1.818,0,0,1-1.956-1.141.7.7,0,0,1,.012-.483.322.322,0,0,1,.335-.174,1.521,1.521,0,0,1,.78.479,5.62,5.62,0,0,1,1.086,1.638" transform="translate(-312.602 -246.91)" fill="#263238"/>
        <g id="Grupo_1076628" data-name="Grupo 1076628" transform="translate(290.363 231.721)" opacity="0.3">
          <g id="Grupo_1076627" data-name="Grupo 1076627">
            <g id="Grupo_1076626" data-name="Grupo 1076626" clip-path="url(#clip-path-9)">
              <path id="Trazado_613266" data-name="Trazado 613266" d="M595.745,477.055l.552,1.928,9.772-2.15-.33-1.4Z" transform="translate(-595.745 -475.43)"/>
            </g>
          </g>
        </g>
        <path id="Trazado_613267" data-name="Trazado 613267" d="M525.21,476.887l.679,10.293s-10.234,4.148-10.293,6.062l20-.6-.4-16.081Z" transform="translate(-264.298 -244.288)" fill="#636363"/>
        <g id="Grupo_1076631" data-name="Grupo 1076631" transform="translate(266.796 241.811)" opacity="0.6">
          <g id="Grupo_1076630" data-name="Grupo 1076630">
            <g id="Grupo_1076629" data-name="Grupo 1076629" clip-path="url(#clip-path-10)">
              <path id="Trazado_613268" data-name="Trazado 613268" d="M548.348,496.16a.817.817,0,0,1,.593.915.785.785,0,0,1-.9.6.862.862,0,0,1-.623-.972.815.815,0,0,1,1.007-.516" transform="translate(-547.392 -496.131)" fill="#fff"/>
            </g>
          </g>
        </g>
        <g id="Grupo_1076634" data-name="Grupo 1076634" transform="translate(251.287 246.75)" opacity="0.6">
          <g id="Grupo_1076633" data-name="Grupo 1076633">
            <g id="Grupo_1076632" data-name="Grupo 1076632" clip-path="url(#clip-path-11)">
              <path id="Trazado_613269" data-name="Trazado 613269" d="M535.589,507.868l-.04-1.6-19.205,1.166s-.878.414-.759,1.039Z" transform="translate(-515.573 -506.264)" fill="#fff"/>
            </g>
          </g>
        </g>
        <path id="Trazado_613270" data-name="Trazado 613270" d="M536.043,498.056c.006.1.5.127.986.427s.758.7.847.661c.09-.021-.074-.6-.674-.953s-1.183-.224-1.16-.135" transform="translate(-274.779 -255.255)" fill="#263238"/>
        <path id="Trazado_613271" data-name="Trazado 613271" d="M531.792,500.026c-.02.1.408.249.753.652s.453.837.55.83c.093.013.143-.561-.294-1.055s-1.009-.521-1.008-.427" transform="translate(-272.6 -256.294)" fill="#263238"/>
        <path id="Trazado_613272" data-name="Trazado 613272" d="M528.629,503.547c.089.018.211-.474-.056-1s-.73-.726-.769-.644.253.36.465.8.263.842.36.849" transform="translate(-270.552 -257.269)" fill="#263238"/>
        <path id="Trazado_613273" data-name="Trazado 613273" d="M536.257,492.913c.044.088.488-.06,1.041-.039s.989.182,1.037.1-.376-.421-1.028-.437-1.1.3-1.05.38" transform="translate(-274.887 -252.475)" fill="#263238"/>
        <g id="Grupo_1076637" data-name="Grupo 1076637" transform="translate(260.953 232.692)" opacity="0.3">
          <g id="Grupo_1076636" data-name="Grupo 1076636">
            <g id="Grupo_1076635" data-name="Grupo 1076635" clip-path="url(#clip-path-12)">
              <path id="Trazado_613274" data-name="Trazado 613274" d="M535.4,477.695l.118,1.835,9.887-.29v-1.819Z" transform="translate(-535.404 -477.421)"/>
            </g>
          </g>
        </g>
        <path id="Trazado_613275" data-name="Trazado 613275" d="M536.058,487.272a1.879,1.879,0,0,0,1-.035,4.5,4.5,0,0,0,1.039-.354,4.693,4.693,0,0,0,.566-.323,1.226,1.226,0,0,0,.3-.245.425.425,0,0,0,.029-.521.534.534,0,0,0-.435-.211,1.307,1.307,0,0,0-.374.063,3.6,3.6,0,0,0-.617.232,3.541,3.541,0,0,0-.906.634c-.451.444-.6.813-.564.831s.262-.282.723-.651a3.983,3.983,0,0,1,.878-.53,3.769,3.769,0,0,1,.57-.195c.21-.062.39-.069.447.024.021.036.024.05-.018.113a1,1,0,0,1-.217.178,5.282,5.282,0,0,1-.52.319,5.609,5.609,0,0,1-.958.4,6.914,6.914,0,0,0-.941.268" transform="translate(-274.787 -248.914)" fill="#263238"/>
        <path id="Trazado_613276" data-name="Trazado 613276" d="M534.875,486.008a1.6,1.6,0,0,0,.235-.976,3.254,3.254,0,0,0-.443-1.693.829.829,0,0,0-.655-.487.468.468,0,0,0-.41.292,1.321,1.321,0,0,0-.092.37,2.2,2.2,0,0,0,.02.675,2.3,2.3,0,0,0,.459,1.022c.406.506.818.611.825.578.031-.05-.315-.229-.629-.718a2.3,2.3,0,0,1-.345-.932,2.064,2.064,0,0,1,0-.579c.025-.214.1-.387.179-.368.1,0,.273.151.361.318a3.448,3.448,0,0,1,.264.536,3.61,3.61,0,0,1,.224.994c.045.586-.048.955.006.968" transform="translate(-273.472 -247.513)" fill="#263238"/>
        <path id="Trazado_613277" data-name="Trazado 613277" d="M580.371,133.886a1.817,1.817,0,0,0-.243,2.269,6.145,6.145,0,0,0,1.774,1.715,4.16,4.16,0,0,1,1.584,1.865c.478,1.452-.578,3.109-.01,4.528.5,1.238,2.014,1.76,2.687,2.912.69,1.183.313,2.686-.189,3.96s-1.122,2.612-.859,3.956a7.468,7.468,0,0,1,.474,2.2c-.123,1.087-1.221,1.778-2.254,2.138a10.449,10.449,0,0,1-5.3.4,4.73,4.73,0,0,1-3.276-1.889,5.87,5.87,0,0,1-.574-3.244,94.942,94.942,0,0,1,2.387-19.2" transform="translate(-294.325 -68.631)" fill="#263238"/>
        <path id="Trazado_613278" data-name="Trazado 613278" d="M512.392,194.978l6.18-14.72s4.3-13.4,11.157-13.174l1.652,12.05-9.495,20.451L511.7,195.2" transform="translate(-262.299 -85.647)" fill="#e0e0e0"/>
        <path id="Trazado_613279" data-name="Trazado 613279" d="M525.044,240.626s-11.161,22.023-10.975,28.91c.1,3.832,5.958,86.954,5.958,86.954h16.841l-3.116-86.7,17.668,87.3,14.913-2.425-11.9-93.358s-2.038-12.708-6.233-17.922Z" transform="translate(-263.514 -123.346)" fill="#012141"/>
        <path id="Trazado_613280" data-name="Trazado 613280" d="M553.7,281.767a68.527,68.527,0,0,1,.341,9.111,68.591,68.591,0,0,1-.341-9.111" transform="translate(-283.799 -144.435)" fill="#455a64"/>
        <path id="Trazado_613281" data-name="Trazado 613281" d="M587.714,291.888a1.667,1.667,0,0,1-.528.119,7.811,7.811,0,0,1-1.474.055,8.966,8.966,0,0,1-7.7-5.248,7.75,7.75,0,0,1-.488-1.392,1.67,1.67,0,0,1-.083-.535c.055-.015.212.741.764,1.834a9.313,9.313,0,0,0,7.524,5.127c1.219.115,1.98-.016,1.986.04" transform="translate(-295.996 -146.035)" fill="#455a64"/>
        <path id="Trazado_613282" data-name="Trazado 613282" d="M520.858,282.818a5,5,0,0,1-.585,1.352,13.726,13.726,0,0,1-4.881,5.095,4.991,4.991,0,0,1-1.325.643,18.32,18.32,0,0,0,6.791-7.089" transform="translate(-263.513 -144.974)" fill="#455a64"/>
        <path id="Trazado_613283" data-name="Trazado 613283" d="M552.512,386.715a1.325,1.325,0,0,1-.03-.232c-.014-.168-.033-.393-.057-.681-.045-.616-.108-1.5-.19-2.62-.152-2.293-.371-5.582-.641-9.64-.514-8.156-1.221-19.4-2-31.811-.759-12.429-1.453-23.675-1.9-31.825a29.51,29.51,0,0,1,1.023-9.591,6.778,6.778,0,0,1,1.21-2.331,2.476,2.476,0,0,1,.49-.478,1.279,1.279,0,0,1,.185-.141,1.4,1.4,0,0,1-.166.165,2.754,2.754,0,0,0-.463.493,6.992,6.992,0,0,0-1.144,2.329,30.114,30.114,0,0,0-.921,9.547c.51,8.155,1.213,19.4,1.99,31.815.747,12.417,1.423,23.66,1.914,31.817l.545,9.646c.057,1.126.1,2.008.133,2.624.011.289.02.515.027.683a1.312,1.312,0,0,1,0,.233" transform="translate(-280.738 -152.431)" fill="#455a64"/>
        <path id="Trazado_613284" data-name="Trazado 613284" d="M606.808,386.252c-.083.012-2.838-19.413-6.152-43.38s-5.935-43.415-5.852-43.426,2.837,19.409,6.152,43.384,5.934,43.411,5.852,43.422" transform="translate(-304.899 -153.497)" fill="#455a64"/>
        <path id="Trazado_613285" data-name="Trazado 613285" d="M559.792,202.894l3.172-16.059,2.454-17.274a16.007,16.007,0,0,0-7.836-3.731l-14.72.612-5.547,13.006.584,26.892Z" transform="translate(-275.431 -85.006)" fill="#e0e0e0"/>
        <path id="Trazado_613286" data-name="Trazado 613286" d="M566.865,166.384s-7.035,15.606-10.736,16.632c-1.658,6.611-3.128,41.575-3.128,41.575l23.161-.963-6.855-22.675,2.755-11.374s-3-17.987.212-21.1a10.405,10.405,0,0,0-5.41-2.1" transform="translate(-283.472 -85.289)" fill="#0c5e46"/>
        <path id="Trazado_613287" data-name="Trazado 613287" d="M534.3,165.763a59.5,59.5,0,0,0-.58,9.253,11.555,11.555,0,0,0,3.137,7.459l-3.071,41.766-16.394-2.389s3.382-10.452,6.077-15c0,0,1.284-2.159,3.632-6.249,0,0-1.64-13.327-1.7-15.209-.023-.709,4.248-18.24,4.248-18.24a6.113,6.113,0,0,1,4.651-1.391" transform="translate(-265.219 -84.938)" fill="#0c5e46"/>
        <path id="Trazado_613288" data-name="Trazado 613288" d="M539.484,120.066c-2.1-.552-3.391-1.3-3.391-2.124,0-1.7,5.495-3.078,12.274-3.078s12.274,1.378,12.274,3.078c0,.819-1.277,1.564-3.359,2.116" transform="translate(-274.805 -58.88)" fill="#6debff"/>
        <g id="Grupo_1076640" data-name="Grupo 1076640" transform="translate(262.844 56.516)" opacity="0.4">
          <g id="Grupo_1076639" data-name="Grupo 1076639">
            <g id="Grupo_1076638" data-name="Grupo 1076638" clip-path="url(#clip-path-13)">
              <path id="Trazado_613289" data-name="Trazado 613289" d="M542.29,120.566c-1.862-.49-3.053-1.154-3.006-1.883.132-2.028,4.871-2.728,10.879-2.728s10.879,1.221,10.879,2.728c0,.726-1.132,1.386-2.977,1.875" transform="translate(-539.284 -115.955)"/>
            </g>
          </g>
        </g>
        <path id="Trazado_613290" data-name="Trazado 613290" d="M578.113,121.958a2.323,2.323,0,0,0,1.109,2.315,10.64,10.64,0,0,1,2.167,1.649,3.6,3.6,0,0,1,.312,3.547,8.085,8.085,0,0,1-2.307,2.893,2.76,2.76,0,0,1-2.526.917" transform="translate(-295.707 -62.516)" fill="#263238"/>
        <path id="Trazado_613291" data-name="Trazado 613291" d="M580.9,170.69c-.292,0-1.369,2.745-2.173,5.217a16.547,16.547,0,0,0,1.346,13.3l5.094,8.954-15.335,5.151,2.244,7.179,21.471-5.76a6.26,6.26,0,0,0,3.789-9.194L586.149,176.3s-3.636-5.618-5.244-5.612" transform="translate(-292.101 -87.497)" fill="#e0e0e0"/>
        <path id="Trazado_613292" data-name="Trazado 613292" d="M561.623,115.614a8.3,8.3,0,0,0-8.725-8.125,8.468,8.468,0,0,0-7.88,8.5,86.7,86.7,0,0,0,.269,9.215c.669,4.209,3.375,5.49,4.446,5.838a5.523,5.523,0,0,0,1.15.114.029.029,0,0,1,.028.03l-.231,4.976c.038,3.233,2.22,5.8,5.453,5.8s5.372-2.8,5.394-6.042Z" transform="translate(-279.378 -55.094)" fill="#ffbe9d"/>
        <path id="Trazado_613293" data-name="Trazado 613293" d="M548.257,128.761a.677.677,0,0,0,.653.683.648.648,0,0,0,.7-.611.677.677,0,0,0-.653-.684.648.648,0,0,0-.7.611" transform="translate(-281.039 -65.69)" fill="#263238"/>
        <path id="Trazado_613294" data-name="Trazado 613294" d="M547.348,126.238c.084.088.6-.291,1.326-.29s1.263.367,1.342.277c.039-.039-.046-.2-.279-.368a1.858,1.858,0,0,0-1.075-.331,1.784,1.784,0,0,0-1.055.341c-.224.172-.3.332-.259.371" transform="translate(-280.568 -64.345)" fill="#263238"/>
        <path id="Trazado_613295" data-name="Trazado 613295" d="M562.877,128.761a.677.677,0,0,0,.653.683.648.648,0,0,0,.7-.611.678.678,0,0,0-.653-.684.648.648,0,0,0-.7.611" transform="translate(-288.534 -65.69)" fill="#263238"/>
        <path id="Trazado_613296" data-name="Trazado 613296" d="M562.048,126.517c.084.088.6-.291,1.326-.29s1.263.367,1.342.277c.039-.039-.046-.2-.28-.368a1.857,1.857,0,0,0-1.074-.331,1.785,1.785,0,0,0-1.056.341c-.224.172-.3.332-.259.371" transform="translate(-288.104 -64.488)" fill="#263238"/>
        <path id="Trazado_613297" data-name="Trazado 613297" d="M554.678,131.969a4.812,4.812,0,0,0-1.184-.213c-.186-.02-.362-.056-.394-.183a.948.948,0,0,1,.124-.552l.551-1.417a24.375,24.375,0,0,0,1.236-3.707,24.478,24.478,0,0,0-1.532,3.6c-.184.5-.36.972-.527,1.426a1.077,1.077,0,0,0-.1.73.468.468,0,0,0,.306.272,1.3,1.3,0,0,0,.316.044,4.751,4.751,0,0,0,1.2,0" transform="translate(-283.379 -64.535)" fill="#263238"/>
        <path id="Trazado_613298" data-name="Trazado 613298" d="M557.048,154.067a11.608,11.608,0,0,0,6.334-1.885s-1.11,3.72-6.4,3.226Z" transform="translate(-285.514 -78.009)" fill="#eb996e"/>
        <path id="Trazado_613299" data-name="Trazado 613299" d="M557.187,141.44a1.313,1.313,0,0,1,1.178-.488,1.2,1.2,0,0,1,.828.444.76.76,0,0,1,.058.869.882.882,0,0,1-.955.242,2.765,2.765,0,0,1-.932-.556.818.818,0,0,1-.208-.215.244.244,0,0,1,0-.271" transform="translate(-285.58 -72.249)" fill="#eb996e"/>
        <path id="Trazado_613300" data-name="Trazado 613300" d="M558.589,139.391c-.118-.007-.12.784-.8,1.346s-1.519.475-1.526.585c-.011.05.188.154.544.163a1.971,1.971,0,0,0,1.273-.444,1.717,1.717,0,0,0,.618-1.129c.03-.33-.058-.526-.112-.522" transform="translate(-285.145 -71.453)" fill="#263238"/>
        <path id="Trazado_613301" data-name="Trazado 613301" d="M561.382,124.073c.072.2.8.1,1.655.207.857.086,1.547.336,1.66.159.051-.085-.069-.271-.348-.464a2.9,2.9,0,0,0-2.526-.279c-.314.126-.472.282-.441.376" transform="translate(-287.766 -63.321)" fill="#263238"/>
        <path id="Trazado_613302" data-name="Trazado 613302" d="M547.889,123.138c.128.166.63-.006,1.234-.014.6-.03,1.115.111,1.233-.062.052-.084-.029-.25-.252-.407a1.789,1.789,0,0,0-1.988.061c-.214.17-.284.341-.227.422" transform="translate(-280.841 -62.734)" fill="#263238"/>
        <path id="Trazado_613303" data-name="Trazado 613303" d="M563.3,138.689a.1.1,0,1,1-.033.022" transform="translate(-288.721 -71.09)" fill="#263238"/>
        <path id="Trazado_613304" data-name="Trazado 613304" d="M554.581,117.12a4.646,4.646,0,0,0,3.426,1.989c.894.07,1.91-.087,2.586.5a3.884,3.884,0,0,1,.851,1.741,4.211,4.211,0,0,0,1.8,2.3c.679.383,1.521.543,2.011,1.149a3.757,3.757,0,0,1,.48,2.364,2.293,2.293,0,0,0,.946,2.134q.039-4.487.078-8.973a3.558,3.558,0,0,0-.155-1.319,3.291,3.291,0,0,0-2.392-1.649,36.376,36.376,0,0,0-8.477-.924" transform="translate(-284.282 -59.684)" fill="#263238"/>
        <path id="Trazado_613305" data-name="Trazado 613305" d="M539.556,106.941s1.755-7.215,1.906-7.566,2.207-3.511,7.122-4.413h4.062s5.767,1.856,6.821,3.26,1.5,8.225,1.5,8.225l-11.392-2.476-7.748,1.89Z" transform="translate(-276.58 -48.678)" fill="#6debff"/>
        <path id="Trazado_613306" data-name="Trazado 613306" d="M557.856,93.264h-1.744a2.822,2.822,0,0,0-.693,1.833c-.081,1.263-.367,9.927-.367,9.927l5.092-.232-.163-10.7,1.729.385-.055-.606-.458-.541Z" transform="translate(-284.523 -47.808)" fill="#6debff"/>
        <path id="Trazado_613307" data-name="Trazado 613307" d="M544,115.7l.1-2.624,7.664-2.283,9.571,2.82v2.82A23.533,23.533,0,0,0,544,115.7" transform="translate(-278.857 -56.792)" fill="#455a64"/>
        <path id="Trazado_613308" data-name="Trazado 613308" d="M541.931,112.476l-.337.327-2.758,1.732a43.666,43.666,0,0,1,10.782-1.431,51.079,51.079,0,0,1,11.757,1.91l-3.633-2.185a6.257,6.257,0,0,0-4.448-1.983l-6.884-.135a6.259,6.259,0,0,0-4.48,1.765" transform="translate(-276.211 -56.75)" fill="#6debff"/>
        <path id="Trazado_613309" data-name="Trazado 613309" d="M555.238,102.64a22.207,22.207,0,0,1,.052-3.666,22.327,22.327,0,0,1,.355-3.65,22.212,22.212,0,0,1-.052,3.666,22.26,22.26,0,0,1-.355,3.649" transform="translate(-284.593 -48.864)" fill="#263238"/>
        <path id="Trazado_613310" data-name="Trazado 613310" d="M566.763,95.351a6.672,6.672,0,0,1-1.285-.164.342.342,0,0,0-.315.323q.012.366.025.754c.013.553.027,1.138.042,1.751.021,1.242.023,2.367.009,3.181a5.712,5.712,0,0,1-.085,1.317,5.762,5.762,0,0,1-.13-1.317c-.041-.814-.077-1.938-.1-3.18q-.01-.92-.018-1.75,0-.4,0-.773a.571.571,0,0,1,.56-.52,4.79,4.79,0,0,1,1.292.379" transform="translate(-289.575 -48.683)" fill="#263238"/>
        <path id="Trazado_613311" data-name="Trazado 613311" d="M538.485,114.076c0-.009.068-.057.213-.139s.367-.186.656-.309.646-.266,1.037-.465a2.945,2.945,0,0,0,1.119-.922c.328-.42.374-1.082.828-1.642a1.539,1.539,0,0,1,.941-.543,7.617,7.617,0,0,1,1.1-.1c1.485-.076,3.121-.1,4.835-.052s3.346.151,4.827.281a3.141,3.141,0,0,1,2.025.723,5.269,5.269,0,0,1,.592.776l.254.367.128.171a.5.5,0,0,0,.137.1c.982.5,1.831.861,2.386,1.151.281.141.5.257.639.341s.215.133.21.142a8.567,8.567,0,0,1-.9-.376c-.574-.26-1.414-.575-2.441-1.072a.681.681,0,0,1-.2-.151l-.137-.174-.266-.368a5.175,5.175,0,0,0-.576-.73,2.925,2.925,0,0,0-1.873-.624c-1.476-.114-3.1-.211-4.811-.256s-3.336-.032-4.814.028c-.729.027-1.478.024-1.858.525-.408.469-.475,1.132-.847,1.606a3.065,3.065,0,0,1-1.219.949c-.41.191-.775.315-1.068.424-.591.209-.9.359-.913.338" transform="translate(-276.03 -56.325)" fill="#263238"/>
        <path id="Trazado_613312" data-name="Trazado 613312" d="M540.589,117.37c-.006-.008.052-.059.171-.15a3.162,3.162,0,0,1,.553-.348,9.8,9.8,0,0,1,2.26-.786,25.608,25.608,0,0,1,7.846-.466c1.526.109,2.991.185,4.315.374a32.818,32.818,0,0,1,3.467.731c.487.135.922.279,1.3.423a2.259,2.259,0,0,1,.9.526.932.932,0,0,1,.257.613c0,.156-.048.228-.055.225a.919.919,0,0,0-.288-.756,2.234,2.234,0,0,0-.876-.449c-.376-.127-.809-.255-1.294-.375-.968-.231-2.149-.476-3.45-.661s-2.767-.239-4.3-.348a27.651,27.651,0,0,0-7.777.373,11.258,11.258,0,0,0-2.255.683c-.513.22-.753.422-.775.391" transform="translate(-277.109 -59.211)" fill="#263238"/>
        <path id="Trazado_613313" data-name="Trazado 613313" d="M556.952,111.017a2.059,2.059,0,0,1,.363-.014l.987.015c.834.023,1.985.078,3.254.185.634.053,1.237.113,1.786.175a7.614,7.614,0,0,1,1.451.24,1.421,1.421,0,0,1,.789.6.686.686,0,0,1,.113.347,1.659,1.659,0,0,0-.153-.322,1.42,1.42,0,0,0-.776-.541,8.239,8.239,0,0,0-1.437-.211l-1.784-.165c-1.266-.106-2.415-.175-3.247-.22l-.986-.053a2.127,2.127,0,0,1-.361-.033" transform="translate(-285.497 -56.901)" fill="#fafafa"/>
        <path id="Trazado_613314" data-name="Trazado 613314" d="M564.5,102.02a1.03,1.03,0,0,1-.051-.255c-.024-.166-.053-.406-.084-.7-.062-.595-.124-1.419-.152-2.331s-.013-1.739.013-2.337c.013-.3.028-.54.043-.707a1.081,1.081,0,0,1,.034-.258,1.07,1.07,0,0,1,.013.26c0,.235,0,.469,0,.707,0,.6,0,1.421.022,2.33s.076,1.732.116,2.327c.015.238.03.471.046.706a1.136,1.136,0,0,1,0,.26" transform="translate(-289.214 -48.917)" fill="#fafafa"/>
        <path id="Trazado_613315" data-name="Trazado 613315" d="M576.588,115.583a.962.962,0,0,1,.235.074l.624.243,2.043.845a7.835,7.835,0,0,1,1.107.524,1.446,1.446,0,0,1,.642.774.973.973,0,0,1-.02.679.507.507,0,0,1-.15.2c-.009-.007.053-.073.106-.217a.971.971,0,0,0-.018-.634,1.385,1.385,0,0,0-.621-.707,8.7,8.7,0,0,0-1.095-.507l-2.029-.878-.61-.279a.95.95,0,0,1-.217-.117" transform="translate(-295.562 -59.248)" fill="#fafafa"/>
        <path id="Trazado_613316" data-name="Trazado 613316" d="M558.731,93.69a4.235,4.235,0,0,1,.716-.03c.443,0,1.054,0,1.729.014a12.309,12.309,0,0,1,1.734.091.868.868,0,0,1,.47.255c.083.1.1.172.092.174a.846.846,0,0,0-.58-.345c-.424-.071-1.045-.026-1.718-.053s-1.285-.03-1.728-.049a4.2,4.2,0,0,1-.715-.056" transform="translate(-286.409 -48.01)" fill="#fafafa"/>
        <path id="Trazado_613317" data-name="Trazado 613317" d="M543.674,119.621a11.59,11.59,0,0,0,.495,6.931,24.28,24.28,0,0,1,.4-4.292,5.731,5.731,0,0,1,.658-1.985,3.183,3.183,0,0,1,1.96-.877c.716-.155,1.513-.27,1.778-.953a20.45,20.45,0,0,0-5.287,1.177" transform="translate(-278.532 -60.715)" fill="#263238"/>
        <path id="Trazado_613318" data-name="Trazado 613318" d="M548.3,158.8a3.275,3.275,0,0,0-2.1.935,9.83,9.83,0,0,1-1.414,1.843c-.58.446-1.368.585-1.894,1.095-1.032,1-.525,2.744-.973,4.109a10.116,10.116,0,0,1-1.3,2.146,2.66,2.66,0,0,0-.453,2.376,2.067,2.067,0,0,0,1.623,1.146,4.356,4.356,0,0,0,2.037-.28q-.04-.809-.081-1.618a2.3,2.3,0,0,0,.379.875.785.785,0,0,0,.852.285c.469-.187.482-.833.433-1.335a8.081,8.081,0,0,1,.96-5.38c.5-.728,1.341-1.494,1.766-2.267Z" transform="translate(-276.825 -81.402)" fill="#263238"/>
        <path id="Trazado_613319" data-name="Trazado 613319" d="M495.1,216.16s1.043-2.276,2.56-2.181,5.783.569,5.783.569l.474,2.086-9.292-.474" transform="translate(-253.547 -109.685)" fill="#ffbe9d"/>
        <path id="Trazado_613320" data-name="Trazado 613320" d="M504.681,209.279l2.6-8.067a1.013,1.013,0,0,1,1.938.587l-2.252,7.932Z" transform="translate(-258.703 -102.783)" fill="#03386e"/>
        <path id="Trazado_613321" data-name="Trazado 613321" d="M485.668,218.483h25.3l16.779,22.8-23.663-.345Z" transform="translate(-248.956 -111.996)" fill="#263238"/>
        <path id="Trazado_613322" data-name="Trazado 613322" d="M541.841,235.409a20.184,20.184,0,0,1,3.386-.105c1.326.133,6.305,1.26,6.305,1.26l2.114,6.614-2.471-.22-1.662.8a40.092,40.092,0,0,1-6.275.559s-1-.561-.7-1.127c0,0-2.262-.266-2.029-2.062a1.87,1.87,0,0,1-1.464-1.629l-4.144-.227a.82.82,0,0,1-.772-.749c-.039-.465.587-.626,1.053-.646l6.458-.279a.948.948,0,0,0,.71-1.525Z" transform="translate(-273.798 -120.598)" fill="#ffbe9d"/>
        <g id="Grupo_1076643" data-name="Grupo 1076643" transform="translate(269.669 126.671)" opacity="0.5">
          <g id="Grupo_1076642" data-name="Grupo 1076642">
            <g id="Grupo_1076641" data-name="Grupo 1076641" clip-path="url(#clip-path-14)">
              <path id="Trazado_613323" data-name="Trazado 613323" d="M553.55,264.01l19.232-4.116,2.152,7.118L553.288,269.4Z" transform="translate(-553.288 -259.894)" fill="#fff"/>
            </g>
          </g>
        </g>
        <g id="Grupo_1076646" data-name="Grupo 1076646" transform="translate(253.261 126.06)" opacity="0.5">
          <g id="Grupo_1076645" data-name="Grupo 1076645">
            <g id="Grupo_1076644" data-name="Grupo 1076644" clip-path="url(#clip-path-15)">
              <path id="Trazado_613324" data-name="Trazado 613324" d="M535.5,263.242l-12.924-4.6-2.956,7,15.556,2.875Z" transform="translate(-519.622 -258.641)" fill="#fff"/>
            </g>
          </g>
        </g>
        <path id="Trazado_613325" data-name="Trazado 613325" d="M582.189,138.54c.028-.018.193.325.051.872a2.45,2.45,0,0,1-1.365,1.608,2.531,2.531,0,0,1-2.1-.241c-.473-.3-.606-.645-.579-.656.041-.033.232.243.685.469a2.574,2.574,0,0,0,1.883.145,2.476,2.476,0,0,0,1.27-1.389,4.71,4.71,0,0,0,.154-.809" transform="translate(-296.386 -71.016)" fill="#455a64"/>
        <path id="Trazado_613326" data-name="Trazado 613326" d="M581.675,136.2c.027.018-.146.379-.63.807a2.489,2.489,0,0,1-1.005.531,1.934,1.934,0,0,1-1.4-.152,2.393,2.393,0,0,1-.974-1.009,3.352,3.352,0,0,1-.335-1.076,2.3,2.3,0,0,1,0-1.02,6.44,6.44,0,0,1,.209.98,2.728,2.728,0,0,0,1.24,1.856,1.728,1.728,0,0,0,1.2.148,2.528,2.528,0,0,0,.937-.428c.486-.356.724-.67.762-.638" transform="translate(-295.919 -68.834)" fill="#455a64"/>
        <path id="Trazado_613327" data-name="Trazado 613327" d="M587.777,191.7c-.009.006-.064-.055-.161-.177s-.244-.3-.409-.55a16.642,16.642,0,0,1-1.275-2.173,18.548,18.548,0,0,1-.156-16.13,16.726,16.726,0,0,1,1.233-2.2c.16-.251.306-.431.4-.558s.149-.187.158-.18a6.607,6.607,0,0,1-.455.8,21.006,21.006,0,0,0-1.138,2.223,19.179,19.179,0,0,0,.154,15.949,21.1,21.1,0,0,0,1.18,2.2,6.434,6.434,0,0,1,.471.792" transform="translate(-299.366 -87.005)" fill="#263238"/>
        <path id="Trazado_613328" data-name="Trazado 613328" d="M558.369,185.439a5.956,5.956,0,0,1,.69-.568,23.318,23.318,0,0,0,1.818-1.6,28.78,28.78,0,0,0,4.8-6.362,64.518,64.518,0,0,0,3.423-7.243l.93-2.25a5.084,5.084,0,0,1,.375-.812,5.038,5.038,0,0,1-.265.855c-.19.543-.473,1.326-.841,2.287a53.975,53.975,0,0,1-3.359,7.314,26.671,26.671,0,0,1-4.915,6.367,17.719,17.719,0,0,1-1.9,1.544c-.233.17-.427.284-.555.365s-.2.117-.206.108" transform="translate(-286.223 -85.4)" fill="#263238"/>
        <path id="Trazado_613329" data-name="Trazado 613329" d="M547.674,167.46c.059.017-.267,1-.5,2.64A19.2,19.2,0,0,0,547,173a19.166,19.166,0,0,0,1.4,6.927,19.256,19.256,0,0,0,1.29,2.6c.851,1.421,1.533,2.2,1.486,2.238a3.337,3.337,0,0,1-.5-.528,7.25,7.25,0,0,1-.529-.667c-.193-.271-.429-.569-.641-.93a17.4,17.4,0,0,1-1.366-2.605A18.186,18.186,0,0,1,546.718,173a17.363,17.363,0,0,1,.246-2.931c.055-.416.156-.782.23-1.106a7.1,7.1,0,0,1,.228-.821,3.309,3.309,0,0,1,.253-.68" transform="translate(-280.251 -85.841)" fill="#263238"/>
        <path id="Trazado_613330" data-name="Trazado 613330" d="M539.529,165.36c.082.019-.873,4.616-2.133,10.267s-2.348,10.22-2.43,10.2.873-4.615,2.133-10.268,2.348-10.219,2.43-10.2" transform="translate(-274.224 -84.764)" fill="#263238"/>
      </g>
    </g>
    <g id="Grupo_1076668" data-name="Grupo 1076668">
      <g id="Grupo_1076667" data-name="Grupo 1076667" clip-path="url(#clip-path)">
        <path id="Trazado_613331" data-name="Trazado 613331" d="M472.677,141.593l1.939-6.754s.7-2.745.87-3.386c.222-.848-.372-1.121-.73-.546-.136.218-1.647,3.006-1.647,3.006l1.271-4.741c.4-1.494-.531-1.348-.809-.814-.286.551-2,5.048-2,5.048,1.629-5.883,1.142-6.407.7-6.5s-1.88,5.283-1.88,5.283a5.041,5.041,0,0,0-1.41-1.57c-1.415-.992-3.8-.037-3.918.634s.725.865.725.865a2.145,2.145,0,0,1,3.409,1.977,1.334,1.334,0,0,1-2.615.23c-.565-2.665-1.488-1.809-1.488-1.809l.863,5.874-1,2.941" transform="translate(-238.339 -65.049)" fill="#b78876"/>
        <path id="Trazado_613332" data-name="Trazado 613332" d="M392.839,103.341c2.212-.581,3.571-1.37,3.571-2.237,0-1.79-5.786-3.241-12.923-3.241s-12.923,1.451-12.923,3.241c0,.863,1.345,1.647,3.537,2.228" transform="translate(-189.953 -50.165)" fill="#6debff"/>
        <g id="Grupo_1076651" data-name="Grupo 1076651" transform="translate(181.91 48.258)" opacity="0.4">
          <g id="Grupo_1076650" data-name="Grupo 1076650">
            <g id="Grupo_1076649" data-name="Grupo 1076649" clip-path="url(#clip-path-17)">
              <path id="Trazado_613333" data-name="Trazado 613333" d="M392.973,103.867c1.961-.516,3.214-1.216,3.165-1.982-.138-2.135-5.128-2.873-11.454-2.873s-11.454,1.286-11.454,2.873c0,.765,1.192,1.46,3.134,1.974" transform="translate(-373.229 -99.012)"/>
            </g>
          </g>
        </g>
        <path id="Trazado_613334" data-name="Trazado 613334" d="M396.233,89.52s-1.848-7.6-2.007-7.967-2.323-3.7-7.5-4.647h-4.277s-6.073,1.954-7.182,3.433S373.685,89,373.685,89l11.995-2.608,8.157,1.99Z" transform="translate(-191.553 -39.422)" fill="#6debff"/>
        <path id="Trazado_613335" data-name="Trazado 613335" d="M393.305,75.121h1.836a2.972,2.972,0,0,1,.729,1.93c.086,1.33.386,10.452.386,10.452l-5.361-.244.172-11.268-1.821.4.057-.638.483-.569Z" transform="translate(-199.53 -38.507)" fill="#6debff"/>
        <path id="Trazado_613336" data-name="Trazado 613336" d="M329.668,465.165l-3.532,14.014-5.989,10.279a1.481,1.481,0,0,0,1.978,2.051c2.689-1.451,12.556-6.838,12.757-7.878.233-1.2,4.706-14.535,4.706-14.535Z" transform="translate(-164.006 -238.446)" fill="#12263f"/>
        <g id="Grupo_1076654" data-name="Grupo 1076654" transform="translate(156.764 244.244)" opacity="0.6">
          <g id="Grupo_1076653" data-name="Grupo 1076653">
            <g id="Grupo_1076652" data-name="Grupo 1076652" clip-path="url(#clip-path-7)">
              <path id="Trazado_613337" data-name="Trazado 613337" d="M321.637,509.961l14.372-8.839-.163.59a2.23,2.23,0,0,1-.895,1.252c-1.172.795-4.455,2.919-11.917,6.988a1.48,1.48,0,0,1-1.4.009" transform="translate(-321.637 -501.122)" fill="#fff"/>
            </g>
          </g>
        </g>
        <g id="Grupo_1076657" data-name="Grupo 1076657" transform="translate(168.939 238.909)" opacity="0.6">
          <g id="Grupo_1076656" data-name="Grupo 1076656">
            <g id="Grupo_1076655" data-name="Grupo 1076655" clip-path="url(#clip-path-19)">
              <path id="Trazado_613338" data-name="Trazado 613338" d="M347.2,490.228a.9.9,0,0,0-.548,1.063.862.862,0,0,0,1.048.553.945.945,0,0,0,.575-1.128.894.894,0,0,0-1.154-.454" transform="translate(-346.617 -490.176)" fill="#fff"/>
            </g>
          </g>
        </g>
        <path id="Trazado_613339" data-name="Trazado 613339" d="M329.054,506.221a3.194,3.194,0,0,0-2.441-2.171c0-.038.2-.1.542-.053a2.361,2.361,0,0,1,1.888,1.679c.083.331.048.543.011.545" transform="translate(-167.424 -258.344)" fill="#263238"/>
        <path id="Trazado_613340" data-name="Trazado 613340" d="M326.024,510.2c-.083.042-.4-.535-1.068-.94a12.105,12.105,0,0,0-1.312-.551,1.64,1.64,0,0,1,1.48.283c.754.466.983,1.191.9,1.209" transform="translate(-165.902 -260.727)" fill="#263238"/>
        <path id="Trazado_613341" data-name="Trazado 613341" d="M333.1,501.945a7.611,7.611,0,0,0-3.483-2.615,4.047,4.047,0,0,1,3.483,2.615" transform="translate(-168.965 -255.948)" fill="#263238"/>
        <path id="Trazado_613342" data-name="Trazado 613342" d="M335.923,494.816c-.06.073-.741-.461-1.732-.774s-1.852-.292-1.857-.387a3.674,3.674,0,0,1,3.59,1.16" transform="translate(-170.356 -252.989)" fill="#263238"/>
        <path id="Trazado_613343" data-name="Trazado 613343" d="M338.088,486.46a4.7,4.7,0,0,0-3.757-.9c-.015-.035.186-.168.558-.265a3.226,3.226,0,0,1,2.822.676c.288.255.406.464.377.489" transform="translate(-171.38 -248.72)" fill="#263238"/>
        <path id="Trazado_613344" data-name="Trazado 613344" d="M337.021,481.565a1.241,1.241,0,0,1,.127-.532,3.788,3.788,0,0,1,.8-1.264,1.683,1.683,0,0,1,.91-.583.6.6,0,0,1,.612.307.968.968,0,0,1,.046.69,2.094,2.094,0,0,1-2.284,1.378,2.428,2.428,0,0,1-1.96-1.859.84.84,0,0,1,.149-.686.583.583,0,0,1,.671-.135,2.066,2.066,0,0,1,.786.731,4.231,4.231,0,0,1,.651,1.345,1.291,1.291,0,0,1,.081.541,6.756,6.756,0,0,0-.911-1.75,1.935,1.935,0,0,0-.7-.62.311.311,0,0,0-.366.072.579.579,0,0,0-.071.457,2.167,2.167,0,0,0,1.718,1.592,1.818,1.818,0,0,0,1.956-1.142.7.7,0,0,0-.012-.483.322.322,0,0,0-.335-.174,1.521,1.521,0,0,0-.78.479,5.6,5.6,0,0,0-1.086,1.638" transform="translate(-171.854 -245.45)" fill="#263238"/>
        <path id="Trazado_613345" data-name="Trazado 613345" d="M405.243,473.007l-.774,11.18s11.1,4.542,11.161,6.622l-21.73-.723.492-17.469Z" transform="translate(-201.915 -242.266)" fill="#12263f"/>
        <path id="Trazado_613346" data-name="Trazado 613346" d="M401.167,493.932a.888.888,0,0,0-.647.992.853.853,0,0,0,.978.65.937.937,0,0,0,.68-1.054.886.886,0,0,0-1.092-.564" transform="translate(-205.302 -253.177)" fill="#e0e0e0"/>
        <g id="Grupo_1076660" data-name="Grupo 1076660" transform="translate(191.984 246.061)" opacity="0.6">
          <g id="Grupo_1076659" data-name="Grupo 1076659">
            <g id="Grupo_1076658" data-name="Grupo 1076658" clip-path="url(#clip-path-20)">
              <path id="Trazado_613347" data-name="Trazado 613347" d="M393.9,506.608l.118-1.759,20.791,1.351s.954.453.822,1.131Z" transform="translate(-393.899 -504.849)" fill="#fff"/>
            </g>
          </g>
        </g>
        <path id="Trazado_613348" data-name="Trazado 613348" d="M414.19,496.037c-.007.106-.539.136-1.073.46s-.826.761-.923.716c-.1-.024.082-.653.735-1.034s1.287-.238,1.26-.142" transform="translate(-211.281 -254.215)" fill="#263238"/>
        <path id="Trazado_613349" data-name="Trazado 613349" d="M419.361,498.193c.021.1-.445.269-.82.706s-.5.908-.6.9c-.1.014-.153-.611.324-1.145s1.1-.562,1.1-.461" transform="translate(-214.204 -255.353)" fill="#263238"/>
        <path id="Trazado_613350" data-name="Trazado 613350" d="M423.276,502.03c-.1.02-.227-.516.065-1.088s.8-.787.837-.7c.058.089-.275.39-.508.864s-.289.914-.394.921" transform="translate(-216.915 -256.419)" fill="#263238"/>
        <path id="Trazado_613351" data-name="Trazado 613351" d="M413.716,490.447c-.048.1-.53-.067-1.131-.047s-1.075.194-1.127.1.41-.457,1.119-.471,1.195.334,1.14.416" transform="translate(-210.913 -251.193)" fill="#263238"/>
        <path id="Trazado_613352" data-name="Trazado 613352" d="M412.9,484.315a2.042,2.042,0,0,1-1.088-.042,4.9,4.9,0,0,1-1.127-.387,5.152,5.152,0,0,1-.614-.352,1.328,1.328,0,0,1-.32-.267.463.463,0,0,1-.03-.566.581.581,0,0,1,.473-.227,1.422,1.422,0,0,1,.406.07,3.913,3.913,0,0,1,.669.255,3.856,3.856,0,0,1,.982.692c.488.483.647.886.611.905s-.284-.307-.784-.71a4.345,4.345,0,0,0-.953-.579,4.057,4.057,0,0,0-.618-.213c-.229-.068-.425-.077-.487.024-.023.039-.026.054.02.123a1.09,1.09,0,0,0,.235.195,5.73,5.73,0,0,0,.564.348,6.048,6.048,0,0,0,1.039.439,7.533,7.533,0,0,1,1.022.294" transform="translate(-209.983 -247.319)" fill="#263238"/>
        <path id="Trazado_613353" data-name="Trazado 613353" d="M415.772,482.951a1.736,1.736,0,0,1-.252-1.061,3.537,3.537,0,0,1,.188-1.187,3.577,3.577,0,0,1,.3-.652.9.9,0,0,1,.713-.526.509.509,0,0,1,.444.319,1.472,1.472,0,0,1,.1.4,2.442,2.442,0,0,1-.024.733,2.507,2.507,0,0,1-.5,1.109c-.444.549-.89.661-.9.625-.034-.055.343-.247.686-.777a2.5,2.5,0,0,0,.378-1.011,2.233,2.233,0,0,0,0-.63c-.026-.232-.107-.421-.194-.4-.108-.005-.3.163-.392.344a3.616,3.616,0,0,0-.289.581,3.9,3.9,0,0,0-.247,1.079c-.051.637.049,1.038-.009,1.052" transform="translate(-212.998 -245.808)" fill="#263238"/>
        <path id="Trazado_613354" data-name="Trazado 613354" d="M379.159,127.615l13.065-.6c.074-1.386-.634-9.963-.634-9.963s4.938-.767,5-5.7-.688-14.8-.688-14.8l-.083-.431c-5.716-2.457-12.336-2.676-17.266,1.118l-.732.563Z" transform="translate(-193.673 -48.351)" fill="#b78876"/>
        <path id="Trazado_613355" data-name="Trazado 613355" d="M399.32,138.888a11.482,11.482,0,0,1-6.437-1.829s1.522,3.553,6.448,3.109Z" transform="translate(-201.394 -70.257)" fill="#aa6550"/>
        <path id="Trazado_613356" data-name="Trazado 613356" d="M375.612,111.792c-.084-.037-3.393-1-3.285,2.372s3.474,2.571,3.477,2.474-.193-4.846-.193-4.846" transform="translate(-190.856 -57.226)" fill="#b78876"/>
        <path id="Trazado_613357" data-name="Trazado 613357" d="M375.636,116.555c-.015-.01-.058.043-.156.092a.59.59,0,0,1-.439.023,1.455,1.455,0,0,1-.715-1.284,1.937,1.937,0,0,1,.138-.847.679.679,0,0,1,.427-.465.3.3,0,0,1,.352.15c.048.093.029.161.047.166s.071-.059.039-.2a.375.375,0,0,0-.14-.207.444.444,0,0,0-.328-.076.826.826,0,0,0-.6.543,1.994,1.994,0,0,0-.174.947,1.527,1.527,0,0,0,.9,1.43.63.63,0,0,0,.535-.106c.1-.087.117-.163.105-.169" transform="translate(-191.759 -58.388)" fill="#aa6550"/>
        <path id="Trazado_613358" data-name="Trazado 613358" d="M409.9,110.888a.706.706,0,0,1-.68.712.675.675,0,0,1-.727-.636.706.706,0,0,1,.679-.713.676.676,0,0,1,.728.637" transform="translate(-209.395 -56.515)" fill="#263238"/>
        <path id="Trazado_613359" data-name="Trazado 613359" d="M409.851,109.331c-.087.092-.621-.3-1.38-.3s-1.315.381-1.4.289c-.04-.041.049-.207.291-.384a1.938,1.938,0,0,1,1.119-.345,1.856,1.856,0,0,1,1.1.355c.233.179.313.345.27.386" transform="translate(-208.663 -55.664)" fill="#263238"/>
        <path id="Trazado_613360" data-name="Trazado 613360" d="M394.6,111.433a.705.705,0,0,1-.68.712.675.675,0,0,1-.727-.636.705.705,0,0,1,.679-.712.675.675,0,0,1,.728.636" transform="translate(-201.551 -56.795)" fill="#263238"/>
        <path id="Trazado_613361" data-name="Trazado 613361" d="M394.549,109.622c-.087.092-.622-.3-1.381-.3s-1.315.382-1.4.289c-.04-.041.048-.207.291-.384a1.931,1.931,0,0,1,1.119-.345,1.858,1.858,0,0,1,1.1.354c.233.179.312.346.27.387" transform="translate(-200.819 -55.813)" fill="#263238"/>
        <path id="Trazado_613362" data-name="Trazado 613362" d="M402.755,115.3a5,5,0,0,1,1.233-.222c.193-.02.377-.058.409-.191a.984.984,0,0,0-.129-.575l-.573-1.475a25.37,25.37,0,0,1-1.287-3.859A25.4,25.4,0,0,1,404,112.721q.287.777.549,1.484a1.119,1.119,0,0,1,.1.76.487.487,0,0,1-.319.284,1.336,1.336,0,0,1-.329.046,4.939,4.939,0,0,1-1.249,0" transform="translate(-206.273 -55.861)" fill="#263238"/>
        <path id="Trazado_613363" data-name="Trazado 613363" d="M398.418,123.023c.123-.007.125.816.83,1.4s1.582.494,1.588.609c.012.052-.2.16-.566.17a2.049,2.049,0,0,1-1.326-.462,1.788,1.788,0,0,1-.643-1.175c-.031-.344.06-.548.117-.543" transform="translate(-204.168 -63.062)" fill="#263238"/>
        <path id="Trazado_613364" data-name="Trazado 613364" d="M394.24,103.7c-.076.206-.833.108-1.723.216-.892.089-1.61.35-1.728.165-.053-.088.072-.283.363-.482a3.015,3.015,0,0,1,2.629-.29c.327.132.491.294.46.392" transform="translate(-200.315 -52.867)" fill="#263238"/>
        <path id="Trazado_613365" data-name="Trazado 613365" d="M409.493,104.778c-.134.173-.656-.007-1.285-.015-.628-.031-1.16.116-1.283-.065-.054-.088.03-.26.263-.424a1.86,1.86,0,0,1,2.069.064c.222.177.3.354.236.439" transform="translate(-208.584 -53.307)" fill="#263238"/>
        <path id="Trazado_613366" data-name="Trazado 613366" d="M375.728,258.235l-2.155,111.558a1.369,1.369,0,0,1-1.38,1.342l-13-.115a1.368,1.368,0,0,1-1.356-1.4l2.014-96.018-16.9,95.306a2.453,2.453,0,0,1-2.5,2.024l-10.9-.376a2.454,2.454,0,0,1-2.34-2.829l17.116-109.95Z" transform="translate(-167.717 -132.139)" fill="#012141"/>
        <path id="Trazado_613367" data-name="Trazado 613367" d="M414.885,154.125l-8.076-1.948-5.33,14.459-14.729-13.178c-1.567-1.147-4.269-1.29-6.324-1.545l-.155-.019c-.8-.094-1.188-.209-1.667-.267-3.551,2.67-9.626,2.841-13.112.087,0,0-2.644.6-4.223.9-4.973.953-8.553,4.575-9.547,7.92l6.225,14.358,1.193,13.638-3.446,12.211a2.119,2.119,0,0,0,1.772,2.678l30.84.47.5-.25a5.726,5.726,0,0,0,.829-3.907c-1.334-5.843-.4-23.27-.684-28.619,6.049,5.878,12.723,10.754,17.6,7.734,4.054-2.51,8.33-24.722,8.33-24.722" transform="translate(-180.295 -77.725)" fill="#e0e0e0"/>
        <path id="Trazado_613368" data-name="Trazado 613368" d="M380.45,151.106h0" transform="translate(-195.021 -77.458)" fill="#e8505b"/>
        <path id="Trazado_613369" data-name="Trazado 613369" d="M377.929,103.739c.131,1.369.088,2.757.219,4.126a4.679,4.679,0,0,0,.491,1.478,1.359,1.359,0,0,0,2.576.011,4.035,4.035,0,0,0,.3-1.768,5.671,5.671,0,0,1,.185-1.792,9.571,9.571,0,0,1,1.022-1.745,2.182,2.182,0,0,0,.317-1.926,10.048,10.048,0,0,0-5.111,1.616" transform="translate(-193.729 -52.348)" fill="#263238"/>
        <path id="Trazado_613370" data-name="Trazado 613370" d="M396.072,98.74l-.105-2.763-8.069-2.4L377.82,96.543v2.969a24.778,24.778,0,0,1,18.252-.772" transform="translate(-193.673 -47.967)" fill="#455a64"/>
        <path id="Trazado_613371" data-name="Trazado 613371" d="M392.487,95.349l.355.344,2.9,1.824a45.979,45.979,0,0,0-11.353-1.507,53.773,53.773,0,0,0-12.379,2.01l3.825-2.3a6.588,6.588,0,0,1,4.683-2.088l7.249-.141a6.587,6.587,0,0,1,4.717,1.858" transform="translate(-190.696 -47.923)" fill="#6debff"/>
        <path id="Trazado_613372" data-name="Trazado 613372" d="M402.878,84.992a24.576,24.576,0,0,1-.366-3.843,24.623,24.623,0,0,1-.063-3.86,24.727,24.727,0,0,1,.366,3.843,24.609,24.609,0,0,1,.063,3.859" transform="translate(-206.273 -39.619)" fill="#263238"/>
        <path id="Trazado_613373" data-name="Trazado 613373" d="M389.246,77.324a5.246,5.246,0,0,1,1.36-.393.6.6,0,0,1,.582.542q0,.393,0,.814c-.006.58-.013,1.2-.019,1.843-.022,1.308-.059,2.491-.1,3.348a6.416,6.416,0,0,1-.131,1.387,6.3,6.3,0,0,1-.084-1.387c-.013-.857-.01-2.041.012-3.349.015-.646.03-1.263.043-1.843q.013-.41.025-.794a.367.367,0,0,0-.339-.345,7.433,7.433,0,0,1-1.353.178" transform="translate(-199.53 -39.435)" fill="#263238"/>
        <path id="Trazado_613374" data-name="Trazado 613374" d="M396.793,97.042c-.012.021-.338-.138-.96-.359-.309-.115-.693-.246-1.124-.447a3.218,3.218,0,0,1-1.281-1c-.39-.5-.461-1.2-.891-1.692-.4-.531-1.195-.527-1.961-.557-1.557-.063-3.271-.077-5.07-.029s-3.512.15-5.065.27a3.082,3.082,0,0,0-1.976.66,5.394,5.394,0,0,0-.607.77l-.28.387-.144.183a.714.714,0,0,1-.212.157c-1.079.523-1.965.856-2.569,1.13a9.836,9.836,0,0,1-.946.4.9.9,0,0,1,.222-.149c.152-.087.378-.209.674-.357.584-.305,1.479-.679,2.513-1.21a.518.518,0,0,0,.146-.108l.135-.18.268-.386a5.524,5.524,0,0,1,.623-.816,3.3,3.3,0,0,1,2.128-.759c1.559-.136,3.276-.247,5.082-.294s3.527-.026,5.09.054a7.972,7.972,0,0,1,1.156.106,1.615,1.615,0,0,1,.987.569c.476.587.525,1.284.872,1.728a3.1,3.1,0,0,0,1.181.971c.413.21.79.357,1.093.489s.538.241.692.324a.9.9,0,0,1,.225.145" transform="translate(-191.564 -47.483)" fill="#263238"/>
        <path id="Trazado_613375" data-name="Trazado 613375" d="M395.53,100.511a.739.739,0,0,1-.215-.106,4.741,4.741,0,0,0-.6-.309,11.788,11.788,0,0,0-2.375-.722,29.082,29.082,0,0,0-8.19-.4c-1.613.116-3.148.186-4.527.367-1.371.2-2.614.455-3.634.7-.51.127-.967.262-1.362.4a2.354,2.354,0,0,0-.923.475.963.963,0,0,0-.3.8c-.007,0-.053-.073-.056-.237a.98.98,0,0,1,.272-.643,2.373,2.373,0,0,1,.95-.553c.395-.151.853-.3,1.365-.444a34.888,34.888,0,0,1,3.651-.768c1.394-.2,2.936-.278,4.543-.392a27.006,27.006,0,0,1,8.259.488,10.357,10.357,0,0,1,2.38.825,3.391,3.391,0,0,1,.582.365c.126.1.188.148.181.156" transform="translate(-191.38 -50.522)" fill="#263238"/>
        <path id="Trazado_613376" data-name="Trazado 613376" d="M394.507,75.571a4.686,4.686,0,0,1-.753.057l-1.819.051c-.708.028-1.362-.018-1.809.058a.885.885,0,0,0-.611.365.344.344,0,0,1,.1-.182.915.915,0,0,1,.495-.267,13.007,13.007,0,0,1,1.825-.095l1.82-.016a4.66,4.66,0,0,1,.754.029" transform="translate(-199.667 -38.723)" fill="#fafafa"/>
        <path id="Trazado_613377" data-name="Trazado 613377" d="M391.948,93.814a2.18,2.18,0,0,1-.38.034l-1.038.055c-.876.048-2.086.119-3.419.231l-1.878.174a8.623,8.623,0,0,0-1.513.223,1.5,1.5,0,0,0-.818.571,1.664,1.664,0,0,0-.159.339.726.726,0,0,1,.119-.364,1.5,1.5,0,0,1,.83-.627,8.005,8.005,0,0,1,1.528-.253c.577-.065,1.213-.128,1.88-.183,1.335-.112,2.548-.171,3.425-.2l1.04-.017a2.371,2.371,0,0,1,.382.013" transform="translate(-196.196 -48.083)" fill="#fafafa"/>
        <path id="Trazado_613378" data-name="Trazado 613378" d="M393.342,84.339a1.193,1.193,0,0,1,0-.273c.016-.245.033-.491.05-.743.042-.626.094-1.493.122-2.451s.028-1.826.023-2.454c0-.253,0-.5-.005-.744a.137.137,0,1,1,.047,0c.016.176.031.43.044.744.027.63.041,1.5.013,2.46s-.094,1.828-.158,2.455c-.032.313-.062.566-.088.741a1.166,1.166,0,0,1-.051.269" transform="translate(-201.627 -39.676)" fill="#fafafa"/>
        <path id="Trazado_613379" data-name="Trazado 613379" d="M375.749,98.62a1.043,1.043,0,0,1-.229.122l-.642.293-2.136.923a9.1,9.1,0,0,0-1.153.534,1.46,1.46,0,0,0-.654.746,1.026,1.026,0,0,0-.018.669c.057.152.123.22.114.228a.535.535,0,0,1-.157-.21,1.023,1.023,0,0,1-.02-.714,1.517,1.517,0,0,1,.676-.813,8.266,8.266,0,0,1,1.166-.551l2.15-.89.657-.257a1.079,1.079,0,0,1,.248-.079" transform="translate(-190.074 -50.552)" fill="#fafafa"/>
        <path id="Trazado_613380" data-name="Trazado 613380" d="M377.929,148.45l.716-4.935,6.722,2.468,1.9,3.343,1.179-3.668,3.688-1.27,1.577,3.281L391,151.5l-5.076,1.026Z" transform="translate(-193.729 -73.567)" fill="#e0e0e0"/>
        <path id="Trazado_613381" data-name="Trazado 613381" d="M387.379,152.715c-.01.01-.1-.059-.251-.2a7.826,7.826,0,0,1-.617-.666,9.968,9.968,0,0,1-1.622-2.8l.247,0-1.552,3.914L382.8,154.9l-.082.2-.156-.151c-1.357-1.311-2.529-2.459-3.354-3.286l-.96-.98a1.815,1.815,0,0,1-.322-.378,1.825,1.825,0,0,1,.392.305l1.02.917c.862.79,2.059,1.91,3.428,3.21l-.238.052.773-1.935,1.588-3.9.131-.32.116.324a10.972,10.972,0,0,0,1.5,2.792c.459.62.769.941.745.965" transform="translate(-193.728 -76.191)" fill="#263238"/>
        <path id="Trazado_613382" data-name="Trazado 613382" d="M403.889,149.913A5.2,5.2,0,0,1,403.1,151a10.831,10.831,0,0,1-2.574,2.262l-.148.091-.061-.166c-.221-.6-.474-1.246-.743-1.917-.4-1.005-.784-1.963-1.077-2.812l.262-.021c-.222,1.114-.5,2.024-.661,2.668a6.243,6.243,0,0,1-.294,1.011,4.213,4.213,0,0,1,.136-1.047c.122-.658.357-1.578.552-2.681l.087-.492.174.471c.31.837.7,1.784,1.1,2.792.27.672.52,1.326.733,1.932l-.209-.076a12.264,12.264,0,0,0,2.586-2.134,11.533,11.533,0,0,1,.923-.966" transform="translate(-203.912 -75.811)" fill="#263238"/>
        <path id="Trazado_613383" data-name="Trazado 613383" d="M399.794,206.992a3.278,3.278,0,0,1,.034-.515q.058-.543.156-1.468c.085-.635.132-1.418.2-2.326.033-.455.067-.94.1-1.453q.031-.775.065-1.633c.1-2.288.1-5.018.043-8.046-.077-3.029-.244-6.356-.482-9.845-.5-6.979-1.192-13.278-1.711-17.834-.258-2.258-.468-4.094-.617-5.4q-.1-.926-.158-1.469a3.324,3.324,0,0,1-.035-.515,3.315,3.315,0,0,1,.1.507q.079.54.214,1.462c.178,1.27.429,3.109.713,5.385.574,4.551,1.295,10.851,1.8,17.839.238,3.493.4,6.826.458,9.86.042,3.035.023,5.769-.109,8.062l-.086,1.635q-.067.771-.127,1.455c-.083.909-.147,1.691-.25,2.326q-.135.922-.213,1.463a3.323,3.323,0,0,1-.095.506" transform="translate(-203.704 -80.218)" fill="#263238"/>
        <path id="Trazado_613384" data-name="Trazado 613384" d="M390.07,153.186l1.525.8-.284,2.571-2.379-.5Z" transform="translate(-199.369 -78.524)" fill="#03386e"/>
        <g id="Grupo_1076663" data-name="Grupo 1076663" transform="translate(189.563 74.716)" opacity="0.4">
          <g id="Grupo_1076662" data-name="Grupo 1076662">
            <g id="Grupo_1076661" data-name="Grupo 1076661" clip-path="url(#clip-path-21)">
              <path id="Trazado_613385" data-name="Trazado 613385" d="M390.07,153.186l1.525.8-.284,2.571-2.379-.5Z" transform="translate(-388.932 -153.186)"/>
            </g>
          </g>
        </g>
        <path id="Trazado_613386" data-name="Trazado 613386" d="M398.446,153.424l1.154-1.016,1.056,2.688-1.514.727Z" transform="translate(-204.246 -78.125)" fill="#03386e"/>
        <path id="Trazado_613387" data-name="Trazado 613387" d="M394.23,161.207l-.713,30.387,5.136,5.078,2.486-6.746-4.931-28.88Z" transform="translate(-201.719 -82.553)" fill="#03386e"/>
        <path id="Trazado_613388" data-name="Trazado 613388" d="M393.717,152.643c.349-.04.833-.135,1.215-.217a.842.842,0,0,1,.916.424l.648,1.2a.847.847,0,0,1,.087.563l-.26,1.342a.845.845,0,0,1-.662.667l-1.466.3a.845.845,0,0,1-.921-.446l-.733-1.447a.844.844,0,0,1-.019-.723l.51-1.157a.849.849,0,0,1,.685-.5" transform="translate(-201.172 -78.125)" fill="#03386e"/>
        <path id="Trazado_613389" data-name="Trazado 613389" d="M396.4,153.553a3.254,3.254,0,0,1-.391.486c-.253.29-.607.683-1,1.113s-.762.814-1.031,1.089a3.2,3.2,0,0,1-.454.428,3.174,3.174,0,0,1,.389-.484c.253-.29.608-.684,1.006-1.116s.764-.816,1.033-1.091a3.048,3.048,0,0,1,.452-.426" transform="translate(-201.718 -78.712)" fill="#263238"/>
        <path id="Trazado_613390" data-name="Trazado 613390" d="M394.943,155.082a7.047,7.047,0,0,1-1.332-1.278,3.541,3.541,0,0,1,.708.6,3.577,3.577,0,0,1,.624.683" transform="translate(-201.767 -78.84)" fill="#263238"/>
        <path id="Trazado_613391" data-name="Trazado 613391" d="M399.672,156.845a16.059,16.059,0,0,1,.364-1.752,1.738,1.738,0,0,0-.367-1.142,1.016,1.016,0,0,1-.177-.5c.018,0,.073.188.251.456a5.224,5.224,0,0,1,.3.492,1.147,1.147,0,0,1,.116.711c-.1.5-.23.919-.315,1.236a2.279,2.279,0,0,1-.169.5" transform="translate(-204.78 -78.659)" fill="#263238"/>
        <g id="Grupo_1076666" data-name="Grupo 1076666" transform="translate(177.491 105.173)" opacity="0.3">
          <g id="Grupo_1076665" data-name="Grupo 1076665">
            <g id="Grupo_1076664" data-name="Grupo 1076664" clip-path="url(#clip-path-22)">
              <path id="Trazado_613392" data-name="Trazado 613392" d="M364.306,227.394a5.821,5.821,0,0,0,5.068,1.455c1.277-.257,2.49-.952,3.789-.868,1.423.093,2.6,1.089,3.9,1.678,2.425,1.1,5.255.747,7.827.061a5.822,5.822,0,0,0,3.182-1.7,5.7,5.7,0,0,0,.979-2.643,27.3,27.3,0,0,0,.384-5.239,5.021,5.021,0,0,0-.846-3.123,3.61,3.61,0,0,0-2.347-1.183,9.233,9.233,0,0,0-2.678.149,44.259,44.259,0,0,0-19.4,8.321" transform="translate(-364.164 -215.786)"/>
            </g>
          </g>
        </g>
        <path id="Trazado_613393" data-name="Trazado 613393" d="M360.315,197.354s-16.318,7.3-17.979,7.663c-5.509,1.209-11.807-4-10.057-9.927.651-2.206,9.431-26.61,9.431-26.61l8.356,11.547-3.535,11.817,9.257-.615Z" transform="translate(-170.176 -86.364)" fill="#e0e0e0"/>
        <path id="Trazado_613394" data-name="Trazado 613394" d="M370.129,203.471a3.148,3.148,0,0,1-.645.09l-1.786.152c-1.519.118-3.643.265-6.063.419l-.2.013.058-.2.544-1.828c.825-2.759,1.588-5.252,2.154-7.052l.684-2.127a4.484,4.484,0,0,1,.289-.769,4.487,4.487,0,0,1-.181.8l-.6,2.154c-.516,1.816-1.247,4.317-2.072,7.076l-.549,1.827-.145-.183c2.42-.141,4.547-.253,6.069-.32l1.791-.066a3.183,3.183,0,0,1,.651.011" transform="translate(-185.272 -98.508)" fill="#263238"/>
        <path id="Trazado_613395" data-name="Trazado 613395" d="M369.43,229.672c.03.074-3.552,1.621-8,3.454s-8.081,3.261-8.111,3.187,3.551-1.62,8-3.454,8.08-3.26,8.11-3.186" transform="translate(-181.113 -117.73)" fill="#263238"/>
        <path id="Trazado_613396" data-name="Trazado 613396" d="M380.957,206.637l-1.288-6.266a.8.8,0,0,1,.792-.967l16.218.076a.806.806,0,0,1,.8.9L395.8,214.734a1.119,1.119,0,0,1-1.12.989l-10.576-.082a1.119,1.119,0,0,1-1.076-.844Z" transform="translate(-194.612 -102.216)" fill="#455a64"/>
        <path id="Trazado_613397" data-name="Trazado 613397" d="M379.4,207.475h0a1.7,1.7,0,0,1,1.592,1.088,3.688,3.688,0,0,0,1.086,1.736,3.847,3.847,0,0,0,2.9.427c.724-.355,3.62-2.961,4.127-2.671s.941.941.435,1.521-3.186,2.317-2.679,2.9,6.153-1.97,7.022-1.745,1.376.759.869,1.107-4.344,1.8-4.561,2.3c0,0,5.792-1.521,6.009-1.159s.579.941,0,1.159-5.575,1.52-6.009,1.737a10.523,10.523,0,0,1-2.233.652,23.942,23.942,0,0,0-2.333.74,5.109,5.109,0,0,1-3.6-.1l-.586-.239A2.3,2.3,0,0,1,380,214.662l.119-1.974-.632-1.629Z" transform="translate(-194.481 -106.353)" fill="#b78876"/>
        <path id="Trazado_613398" data-name="Trazado 613398" d="M398.127,203.737a.589.589,0,1,1-.589-.589.589.589,0,0,1,.589.589" transform="translate(-203.478 -104.135)" fill="#fafafa"/>
        <path id="Trazado_613454" data-name="Trazado 613454" d="M0,0H6.637V2.146H0Z" transform="translate(198.957 89.604)" fill="#03386e"/>
        <path id="Trazado_613399" data-name="Trazado 613399" d="M368.292,263.657l-7.052-.173.332-2.135,6.965.27Z" transform="translate(-185.174 -133.97)" fill="#03386e"/>
        <path id="Trazado_613400" data-name="Trazado 613400" d="M397.244,263.8l-17.716-.13.235-1.958,17.462.046Z" transform="translate(-194.549 -134.156)" fill="#03386e"/>
        <path id="Trazado_613401" data-name="Trazado 613401" d="M393.974,260.753v2.358a.644.644,0,0,0,.584.691h4.877a.644.644,0,0,0,.584-.691v-2.358a.644.644,0,0,0-.584-.692h-4.877a.644.644,0,0,0-.584.692m5.282,2.179h-4.518v-2h4.518Z" transform="translate(-201.953 -133.309)" fill="#fafafa"/>
        <path id="Trazado_613402" data-name="Trazado 613402" d="M418.993,261.779v2l3.743.066.053-2.13Z" transform="translate(-214.778 -134.156)" fill="#03386e"/>
        <path id="Trazado_613403" data-name="Trazado 613403" d="M342.882,371.526s0-.09.03-.263.068-.441.117-.767c.112-.688.273-1.678.479-2.945l1.8-10.825c1.525-9.153,3.627-21.773,5.95-35.713,2.305-13.954,4.346-26.592,5.789-35.745.712-4.567,1.289-8.268,1.69-10.842l.465-2.947c.055-.326.1-.579.129-.766s.054-.259.054-.259,0,.09-.023.264-.057.442-.1.77c-.1.69-.232,1.683-.408,2.956-.355,2.567-.909,6.275-1.6,10.858-1.389,9.163-3.4,21.807-5.7,35.762s-4.452,26.57-6.037,35.7l-1.9,10.809-.535,2.936c-.063.325-.112.578-.147.762s-.06.258-.06.258" transform="translate(-175.763 -138.636)" fill="#455a64"/>
        <path id="Trazado_613404" data-name="Trazado 613404" d="M411.19,372.021c-.084,0,.063-22.7.328-50.7s.547-50.7.631-50.7-.063,22.7-.328,50.7-.547,50.7-.631,50.7" transform="translate(-210.766 -138.722)" fill="#455a64"/>
        <path id="Trazado_613405" data-name="Trazado 613405" d="M406.524,479.307c0,.084-3.543.152-7.912.152s-7.913-.068-7.913-.152,3.542-.152,7.913-.152,7.912.068,7.912.152" transform="translate(-200.275 -245.618)" fill="#455a64"/>
        <path id="Trazado_613406" data-name="Trazado 613406" d="M344.134,478.121a2.578,2.578,0,0,1-.635.06l-1.731.06-5.709.139c-2.231.046-4.252.065-5.715.051-.732-.007-1.323-.019-1.732-.037a2.611,2.611,0,0,1-.635-.057,2.578,2.578,0,0,1,.635-.06l1.731-.059,5.71-.139c2.23-.046,4.251-.064,5.714-.05.731.007,1.323.02,1.732.037a2.579,2.579,0,0,1,.635.057" transform="translate(-168.123 -245.037)" fill="#455a64"/>
        <path id="Trazado_613407" data-name="Trazado 613407" d="M453.3,187.705a28.4,28.4,0,0,1,0-5.86,28.392,28.392,0,0,1,0,5.86" transform="translate(-232.287 -93.215)" fill="#263238"/>
        <path id="Trazado_613408" data-name="Trazado 613408" d="M455.43,188.1a20.523,20.523,0,0,1-2.128-6.216,28.2,28.2,0,0,1,1.1,3.1,28.429,28.429,0,0,1,1.027,3.12" transform="translate(-232.359 -93.235)" fill="#263238"/>
      </g>
    </g>
    <g id="Grupo_1076688" data-name="Grupo 1076688">
      <g id="Grupo_1076687" data-name="Grupo 1076687" clip-path="url(#clip-path)">
        <path id="Trazado_613409" data-name="Trazado 613409" d="M22.2,398.183a5.712,5.712,0,0,0-1.8-1.51,3.76,3.76,0,0,1-1.62-1.968,1.53,1.53,0,0,1,1.182-1.938c.864-.032,1.429.866,1.806,1.643.665,1.371,1.634,2.992,2.3,4.363" transform="translate(-9.6 -201.334)" fill="#0c5e46"/>
        <g id="Grupo_1076671" data-name="Grupo 1076671" transform="translate(9.128 191.291)" opacity="0.4">
          <g id="Grupo_1076670" data-name="Grupo 1076670">
            <g id="Grupo_1076669" data-name="Grupo 1076669" clip-path="url(#clip-path-24)">
              <path id="Trazado_613410" data-name="Trazado 613410" d="M22.2,398.183a5.712,5.712,0,0,0-1.8-1.51,3.76,3.76,0,0,1-1.62-1.968,1.53,1.53,0,0,1,1.182-1.938c.864-.032,1.429.866,1.806,1.643.665,1.371,1.634,2.992,2.3,4.363" transform="translate(-18.728 -392.765)"/>
            </g>
          </g>
        </g>
        <path id="Trazado_613411" data-name="Trazado 613411" d="M9.954,401.887a16.957,16.957,0,0,0-7.449-.4c-1.156.258-2.409.989-2.5,2.169a2.35,2.35,0,0,0,1.107,2c1.622,1.13,3.866.747,5.658-.084s3.789-2.3,5.39-3.171" transform="translate(0 -205.672)" fill="#0c5e46"/>
        <g id="Grupo_1076674" data-name="Grupo 1076674" transform="translate(0 195.417)" opacity="0.4">
          <g id="Grupo_1076673" data-name="Grupo 1076673">
            <g id="Grupo_1076672" data-name="Grupo 1076672" clip-path="url(#clip-path-25)">
              <path id="Trazado_613412" data-name="Trazado 613412" d="M9.954,401.887a16.957,16.957,0,0,0-7.449-.4c-1.156.258-2.409.989-2.5,2.169a2.35,2.35,0,0,0,1.107,2c1.622,1.13,3.866.747,5.658-.084s3.789-2.3,5.39-3.171" transform="translate(0 -401.228)"/>
            </g>
          </g>
        </g>
        <path id="Trazado_613413" data-name="Trazado 613413" d="M29.409,409.508a16.781,16.781,0,0,0-6.8,1.051,4.988,4.988,0,0,0-2.532,1.74,3.428,3.428,0,0,0,.752,4.285,4.732,4.732,0,0,0,4.475.77,7.793,7.793,0,0,0,3.726-2.817,21.371,21.371,0,0,0,2.536-3.768" transform="translate(-10.055 -209.904)" fill="#0c5e46"/>
        <g id="Grupo_1076677" data-name="Grupo 1076677" transform="translate(9.561 199.441)" opacity="0.4">
          <g id="Grupo_1076676" data-name="Grupo 1076676">
            <g id="Grupo_1076675" data-name="Grupo 1076675" clip-path="url(#clip-path-26)">
              <path id="Trazado_613414" data-name="Trazado 613414" d="M29.409,409.508a16.781,16.781,0,0,0-6.8,1.051,4.988,4.988,0,0,0-2.532,1.74,3.428,3.428,0,0,0,.752,4.285,4.732,4.732,0,0,0,4.475.77,7.793,7.793,0,0,0,3.726-2.817,21.371,21.371,0,0,0,2.536-3.768" transform="translate(-19.616 -409.484)"/>
            </g>
          </g>
        </g>
        <path id="Trazado_613415" data-name="Trazado 613415" d="M50.6,411.375a10.25,10.25,0,0,1-1.833-4.044,3.232,3.232,0,0,1-.062-1.312A1.382,1.382,0,0,1,49.467,405a1.415,1.415,0,0,1,1.443.346,3.7,3.7,0,0,1,.823,1.318,45.863,45.863,0,0,1,2.2,8.414" transform="translate(-24.944 -207.566)" fill="#0c5e46"/>
        <g id="Grupo_1076680" data-name="Grupo 1076680" transform="translate(23.717 197.217)" opacity="0.4">
          <g id="Grupo_1076679" data-name="Grupo 1076679">
            <g id="Grupo_1076678" data-name="Grupo 1076678" clip-path="url(#clip-path-27)">
              <path id="Trazado_613416" data-name="Trazado 613416" d="M50.6,411.375a10.25,10.25,0,0,1-1.833-4.044,3.232,3.232,0,0,1-.062-1.312A1.382,1.382,0,0,1,49.467,405a1.415,1.415,0,0,1,1.443.346,3.7,3.7,0,0,1,.823,1.318,45.863,45.863,0,0,1,2.2,8.414" transform="translate(-48.66 -404.922)"/>
            </g>
          </g>
        </g>
        <path id="Trazado_613417" data-name="Trazado 613417" d="M45.192,422.459a10.608,10.608,0,0,0-8.587,2.418,5.111,5.111,0,0,0-1.548,2.069,2.553,2.553,0,0,0,.34,2.472,2.9,2.9,0,0,0,3.084.6,9.661,9.661,0,0,0,3.275-2.2l4.7-4.193" transform="translate(-17.883 -216.484)" fill="#0c5e46"/>
        <g id="Grupo_1076683" data-name="Grupo 1076683" transform="translate(17.004 205.697)" opacity="0.4">
          <g id="Grupo_1076682" data-name="Grupo 1076682">
            <g id="Grupo_1076681" data-name="Grupo 1076681" clip-path="url(#clip-path-28)">
              <path id="Trazado_613418" data-name="Trazado 613418" d="M45.192,422.459a10.608,10.608,0,0,0-8.587,2.418,5.111,5.111,0,0,0-1.548,2.069,2.553,2.553,0,0,0,.34,2.472,2.9,2.9,0,0,0,3.084.6,9.661,9.661,0,0,0,3.275-2.2l4.7-4.193" transform="translate(-34.888 -422.321)"/>
            </g>
          </g>
        </g>
        <path id="Trazado_613419" data-name="Trazado 613419" d="M56.268,386.212a13.674,13.674,0,0,1,5.579-9.458,6.785,6.785,0,0,1,3.187-1.356,3.442,3.442,0,0,1,3.113,1.227,4.058,4.058,0,0,1,.02,4.084,9.678,9.678,0,0,1-5.127,4.508,22,22,0,0,1-6.815,1.365" transform="translate(-28.821 -192.421)" fill="#0c5e46"/>
        <path id="Trazado_613420" data-name="Trazado 613420" d="M51.708,371.466a14.905,14.905,0,0,1,3.1-6.457,7.2,7.2,0,0,1,1.594-1.645,2.88,2.88,0,0,1,2.175-.525,2.628,2.628,0,0,1,1.927,2.279,3.943,3.943,0,0,1-1,2.932,8.193,8.193,0,0,1-2.545,1.884,18.089,18.089,0,0,1-5.149,1.743" transform="translate(-26.506 -185.969)" fill="#0c5e46"/>
        <path id="Trazado_613421" data-name="Trazado 613421" d="M49.368,355.947a11.8,11.8,0,0,1,3.613-8.562c.412-.353.993-.688,1.465-.419a1.282,1.282,0,0,1,.5.716,6.159,6.159,0,0,1-5.575,8.266" transform="translate(-25.306 -177.807)" fill="#0c5e46"/>
        <path id="Trazado_613422" data-name="Trazado 613422" d="M42.646,350.964c-.086-2.66-1.457-4.915-3.113-7a1.986,1.986,0,0,0-1.5-.942c-.843.039-1.306,1.014-1.391,1.854a5.722,5.722,0,0,0,1.468,4.389,6.245,6.245,0,0,0,4.535,1.7" transform="translate(-18.77 -175.836)" fill="#0c5e46"/>
        <path id="Trazado_613423" data-name="Trazado 613423" d="M49,333.59a8.682,8.682,0,0,1-.29-8.1,4.8,4.8,0,0,1,1.73-1.813,2.9,2.9,0,0,1,2.441-.241,3.156,3.156,0,0,1,1.606,3.63A7.148,7.148,0,0,1,52.1,330.59a22.093,22.093,0,0,0-3.1,3" transform="translate(-24.523 -165.708)" fill="#0c5e46"/>
        <path id="Trazado_613424" data-name="Trazado 613424" d="M38.589,369.937a18.6,18.6,0,0,0-2.744-3.3,7.4,7.4,0,0,0-3.785-1.918,4.654,4.654,0,0,0-3.969,1.2,3.42,3.42,0,0,0-.632,3.96,4.785,4.785,0,0,0,2.656,1.912,12.526,12.526,0,0,0,8.627-.1" transform="translate(-13.881 -186.927)" fill="#0c5e46"/>
        <path id="Trazado_613425" data-name="Trazado 613425" d="M43.993,391.082a9.243,9.243,0,0,0-4.2-3.26,6.793,6.793,0,0,0-5.245.184,2.393,2.393,0,0,0-1.541,1.943c.006.9.815,1.579,1.6,2.017a10.841,10.841,0,0,0,9.493.432" transform="translate(-16.921 -198.576)" fill="#0c5e46"/>
        <path id="Trazado_613426" data-name="Trazado 613426" d="M63.838,411.153a8.687,8.687,0,0,1,1.06-6.362,10.042,10.042,0,0,1,5.228-4.228,5.385,5.385,0,0,1,2.575-.348,2.777,2.777,0,0,1,2.1,1.408c.659,1.338-.228,3-1.475,3.814a17.76,17.76,0,0,1-4.035,2.061c-2.194.727-4.188,3.241-5.043,5.01" transform="translate(-32.624 -205.13)" fill="#0c5e46"/>
        <path id="Trazado_613427" data-name="Trazado 613427" d="M69.164,431.213a13.866,13.866,0,0,1,2.237-7.969,7.552,7.552,0,0,1,3.233-3.111,3.834,3.834,0,0,1,4.232.629c1.341,1.409.961,3.828-.28,5.326a13.137,13.137,0,0,1-4.866,3.127,9.282,9.282,0,0,0-4.219,3.378" transform="translate(-35.45 -215.179)" fill="#0c5e46"/>
        <path id="Trazado_613428" data-name="Trazado 613428" d="M72.312,449.214A20.729,20.729,0,0,1,75.3,442.19a7.649,7.649,0,0,1,6.544-3.339,3.5,3.5,0,0,1,2.948,1.834c.6,1.381-.18,2.979-1.172,4.112a11.1,11.1,0,0,1-5.27,3.334c-1.136.323-2.323.464-3.429.879a4.049,4.049,0,0,0-2.539,2.3" transform="translate(-37.068 -224.945)" fill="#0c5e46"/>
        <path id="Trazado_613429" data-name="Trazado 613429" d="M56.72,459.465c-.792-2.607-3.166-4.4-5.557-5.7a9.882,9.882,0,0,0-5.809-1.558c-2.023.253-3.984,1.956-3.856,3.991.131,2.071,2.274,3.487,4.328,3.782s4.138-.178,6.213-.135,4.039.633,4.9,2.521" transform="translate(-21.269 -231.778)" fill="#0c5e46"/>
        <path id="Trazado_613430" data-name="Trazado 613430" d="M60.357,442.993a8.313,8.313,0,0,0-5.863-5.379,3.241,3.241,0,0,0-2.346.157,2.47,2.47,0,0,0-.886,3,4.029,4.029,0,0,0,2.5,2.167,11.771,11.771,0,0,0,3.366.472,12.269,12.269,0,0,1,3.371.452" transform="translate(-26.184 -224.25)" fill="#0c5e46"/>
        <path id="Trazado_613431" data-name="Trazado 613431" d="M32.99,403.344a4.644,4.644,0,0,1-1.273-2.077,1.046,1.046,0,0,1,.032-.773.783.783,0,0,1,.917-.267,2.123,2.123,0,0,1,.818.614,24.673,24.673,0,0,1,2.761,4.045" transform="translate(-16.229 -205.135)" fill="#0c5e46"/>
        <path id="Trazado_613432" data-name="Trazado 613432" d="M52.285,327.148a1.135,1.135,0,0,1-.074.178l-.239.512-.393.829-.475,1.158a32.133,32.133,0,0,0-1.063,3.258,33.919,33.919,0,0,0-.837,4.458,43.627,43.627,0,0,0,.289,11.776,99.19,99.19,0,0,0,3.521,14.037c1.541,4.907,3.155,9.542,4.308,13.857a104.034,104.034,0,0,1,2.417,11.6c.5,3.339.731,6.062.857,7.944.058.942.1,1.673.11,2.169.007.238.012.426.016.565a1.089,1.089,0,0,1,0,.193,1.163,1.163,0,0,1-.022-.192c-.01-.139-.024-.326-.041-.563-.037-.509-.09-1.236-.157-2.165-.156-1.878-.416-4.595-.936-7.924A107.6,107.6,0,0,0,57.1,377.272c-1.162-4.3-2.782-8.93-4.325-13.842a97.578,97.578,0,0,1-3.51-14.078,43.214,43.214,0,0,1-.235-11.833,33.2,33.2,0,0,1,.878-4.473,30.677,30.677,0,0,1,1.108-3.258l.5-1.152.416-.821.261-.5a1.074,1.074,0,0,1,.1-.167" transform="translate(-24.978 -167.698)" fill="#263238"/>
        <path id="Trazado_613433" data-name="Trazado 613433" d="M14.73,401.709a1.854,1.854,0,0,1,.355.019c.232.025.576.047,1.014.113a30.424,30.424,0,0,1,3.681.735,32.792,32.792,0,0,1,11.12,5.332,31.283,31.283,0,0,1,5.023,4.614,28.693,28.693,0,0,1,3.215,4.548,30.546,30.546,0,0,1,1.659,3.367c.176.406.29.732.374.949a1.831,1.831,0,0,1,.112.338,1.9,1.9,0,0,1-.159-.318c-.1-.211-.228-.529-.418-.929a35.847,35.847,0,0,0-1.723-3.317,29.782,29.782,0,0,0-3.237-4.484,31.914,31.914,0,0,0-5-4.564,33.785,33.785,0,0,0-11.016-5.363,35.579,35.579,0,0,0-3.649-.81c-.435-.08-.776-.118-1.005-.159a1.853,1.853,0,0,1-.349-.07" transform="translate(-7.551 -205.917)" fill="#263238"/>
        <path id="Trazado_613434" data-name="Trazado 613434" d="M63.908,383.877a15.4,15.4,0,0,1-1.276.881,24.123,24.123,0,0,0-5.4,5.085,15.407,15.407,0,0,1-.957,1.219,1.347,1.347,0,0,1,.189-.375c.134-.233.347-.56.625-.952a19.4,19.4,0,0,1,5.45-5.127c.408-.254.748-.446.989-.565a1.341,1.341,0,0,1,.385-.166" transform="translate(-28.844 -196.776)" fill="#263238"/>
        <path id="Trazado_613435" data-name="Trazado 613435" d="M71.472,405.99c.017.043-.638.263-1.584.826a10.228,10.228,0,0,0-4.825,6.779c-.223,1.078-.215,1.769-.262,1.767a1.631,1.631,0,0,1-.034-.483,8.275,8.275,0,0,1,.119-1.317,9.684,9.684,0,0,1,4.912-6.9,8.259,8.259,0,0,1,1.2-.543,1.612,1.612,0,0,1,.468-.127" transform="translate(-33.2 -208.111)" fill="#263238"/>
        <path id="Trazado_613436" data-name="Trazado 613436" d="M75.246,426.8c.024.039-.508.363-1.265,1.01A12.344,12.344,0,0,0,70,434.336c-.229.97-.272,1.591-.318,1.588a1.465,1.465,0,0,1-.007-.439,8.036,8.036,0,0,1,.15-1.187,11.242,11.242,0,0,1,4.039-6.625,8.025,8.025,0,0,1,.986-.677,1.468,1.468,0,0,1,.393-.195" transform="translate(-35.713 -218.78)" fill="#263238"/>
        <path id="Trazado_613437" data-name="Trazado 613437" d="M79.782,446.895c.017.041-.56.279-1.424.781A14.24,14.24,0,0,0,73,453.2c-.477.879-.7,1.463-.739,1.447a1.466,1.466,0,0,1,.116-.425,8.97,8.97,0,0,1,.464-1.1,12.734,12.734,0,0,1,5.435-5.6,8.943,8.943,0,0,1,1.09-.5,1.467,1.467,0,0,1,.421-.128" transform="translate(-37.037 -229.079)" fill="#263238"/>
        <path id="Trazado_613438" data-name="Trazado 613438" d="M56.381,441.738a3.459,3.459,0,0,1,1.224.012A7.542,7.542,0,0,1,62.6,444.7a3.474,3.474,0,0,1,.6,1.066c-.039.022-.269-.384-.741-.955a8.39,8.39,0,0,0-4.879-2.886c-.729-.139-1.2-.145-1.2-.189" transform="translate(-28.901 -226.416)" fill="#263238"/>
        <path id="Trazado_613439" data-name="Trazado 613439" d="M53.976,459.789c-.009-.01.1-.13.365-.253a2.34,2.34,0,0,1,1.2-.168,5.279,5.279,0,0,1,1.7.556c.6.287,1.258.608,1.93.986a13.177,13.177,0,0,1,3.166,2.347,7.369,7.369,0,0,1,.759.927,1.449,1.449,0,0,1,.216.383c-.039.028-.379-.5-1.1-1.183a15.175,15.175,0,0,0-3.162-2.252c-.664-.373-1.316-.7-1.908-1a5.5,5.5,0,0,0-1.62-.588,2.567,2.567,0,0,0-1.542.243" transform="translate(-27.668 -235.467)" fill="#263238"/>
        <path id="Trazado_613440" data-name="Trazado 613440" d="M49.537,424.195a16.671,16.671,0,0,0-3.956,1.288,16.658,16.658,0,0,0-3.366,2.446,4.056,4.056,0,0,1,.806-.942,10.4,10.4,0,0,1,5.281-2.693,4.053,4.053,0,0,1,1.236-.1" transform="translate(-21.639 -217.437)" fill="#263238"/>
        <path id="Trazado_613441" data-name="Trazado 613441" d="M54.818,417.088a3.26,3.26,0,0,1-.536-.835,14.741,14.741,0,0,1-1.514-4.522,3.257,3.257,0,0,1-.075-.989c.077-.011.3,1.481.889,3.231s1.3,3.077,1.237,3.114" transform="translate(-27.002 -210.549)" fill="#263238"/>
        <path id="Trazado_613442" data-name="Trazado 613442" d="M48.07,394.72a25.526,25.526,0,0,0-3.451-1.328,25.517,25.517,0,0,0-3.655-.556,3.576,3.576,0,0,1,1.1-.071,11.571,11.571,0,0,1,5.093,1.351,3.59,3.59,0,0,1,.917.6" transform="translate(-20.998 -201.333)" fill="#263238"/>
        <path id="Trazado_613443" data-name="Trazado 613443" d="M58.4,367.785a9.261,9.261,0,0,1-1.067.819c-.665.493-1.565,1.2-2.5,2.046s-1.724,1.676-2.28,2.29a9.265,9.265,0,0,1-.918.983,5.732,5.732,0,0,1,.782-1.1,22.09,22.09,0,0,1,4.812-4.366,5.75,5.75,0,0,1,1.17-.672" transform="translate(-26.47 -188.528)" fill="#263238"/>
        <path id="Trazado_613444" data-name="Trazado 613444" d="M42.713,375.435a10.229,10.229,0,0,1-1.153-.626,19.3,19.3,0,0,0-5.905-2.111,10.487,10.487,0,0,1-1.289-.246,5.025,5.025,0,0,1,1.317.069,15.22,15.22,0,0,1,5.968,2.133,5.075,5.075,0,0,1,1.063.781" transform="translate(-17.616 -190.911)" fill="#263238"/>
        <path id="Trazado_613445" data-name="Trazado 613445" d="M53.211,353.661c.054.055-1.019,1.145-2.13,2.66s-1.843,2.857-1.911,2.822a3.432,3.432,0,0,1,.406-.922,17.348,17.348,0,0,1,2.874-3.9,3.452,3.452,0,0,1,.76-.66" transform="translate(-25.203 -181.288)" fill="#263238"/>
        <path id="Trazado_613446" data-name="Trazado 613446" d="M43.576,353.285a8.705,8.705,0,0,1-.594-.879,12.575,12.575,0,0,0-1.662-1.916c-.72-.686-1.424-1.256-1.93-1.674a4.69,4.69,0,0,1-.793-.713,4.291,4.291,0,0,1,.9.571,18.663,18.663,0,0,1,2,1.633,9.7,9.7,0,0,1,1.637,2,3.026,3.026,0,0,1,.443.976" transform="translate(-19.784 -178.438)" fill="#263238"/>
        <path id="Trazado_613447" data-name="Trazado 613447" d="M35.755,410.784a22.05,22.05,0,0,0-3.229,1.242,22.067,22.067,0,0,0-2.855,1.956,3.136,3.136,0,0,1,.694-.761,10.1,10.1,0,0,1,4.37-2.3,3.137,3.137,0,0,1,1.02-.14" transform="translate(-15.209 -210.565)" fill="#263238"/>
        <path id="Trazado_613448" data-name="Trazado 613448" d="M13.7,402.983c.005.078-1.539.168-3.366.663s-3.214,1.176-3.248,1.1a3.354,3.354,0,0,1,.879-.51,13.84,13.84,0,0,1,4.719-1.261,3.343,3.343,0,0,1,1.016,0" transform="translate(-3.633 -206.555)" fill="#263238"/>
        <path id="Trazado_613449" data-name="Trazado 613449" d="M25.051,400.762a8.143,8.143,0,0,1-1.084-1.706,8.112,8.112,0,0,1-.862-1.828,8.134,8.134,0,0,1,1.084,1.706,8.127,8.127,0,0,1,.862,1.828" transform="translate(-11.84 -203.621)" fill="#263238"/>
        <g id="Grupo_1076686" data-name="Grupo 1076686" transform="translate(15.431 194.906)" opacity="0.4">
          <g id="Grupo_1076685" data-name="Grupo 1076685">
            <g id="Grupo_1076684" data-name="Grupo 1076684" clip-path="url(#clip-path-29)">
              <path id="Trazado_613450" data-name="Trazado 613450" d="M32.99,403.344a4.644,4.644,0,0,1-1.273-2.077,1.046,1.046,0,0,1,.032-.773.783.783,0,0,1,.917-.267,2.123,2.123,0,0,1,.818.614,24.673,24.673,0,0,1,2.761,4.045" transform="translate(-31.659 -400.181)"/>
            </g>
          </g>
        </g>
        <path id="Trazado_613451" data-name="Trazado 613451" d="M61.879,496.193h0A10.873,10.873,0,0,1,51.006,485.32v-9.349H72.752v9.349a10.873,10.873,0,0,1-10.873,10.873" transform="translate(-26.146 -243.986)" fill="#455a64"/>
        <path id="Trazado_613452" data-name="Trazado 613452" d="M72.781,487.839a6.226,6.226,0,0,1-.845-.254c-.54-.173-1.317-.439-2.3-.68a10.8,10.8,0,0,0-3.495-.35,7.544,7.544,0,0,0-2.013.462c-.679.249-1.362.569-2.083.863a8.287,8.287,0,0,1-2.2.617,6.72,6.72,0,0,1-2.129-.143c-1.327-.3-2.446-.767-3.41-1.067a10.267,10.267,0,0,0-2.326-.5,5.428,5.428,0,0,0-.648-.022.8.8,0,0,1-.229-.014.76.76,0,0,1,.226-.037,3.792,3.792,0,0,1,.657-.026,9.309,9.309,0,0,1,2.374.431c.978.281,2.107.734,3.4,1.009a6.577,6.577,0,0,0,2.054.125,8.183,8.183,0,0,0,2.134-.605c.713-.289,1.4-.611,2.094-.861a7.652,7.652,0,0,1,2.079-.461,10.6,10.6,0,0,1,3.558.409,23,23,0,0,1,2.286.761c.265.1.469.186.606.245a.78.78,0,0,1,.205.1" transform="translate(-26.195 -249.279)" fill="#263238"/>
        <path id="Trazado_613453" data-name="Trazado 613453" d="M72.781,485.154a6.219,6.219,0,0,1-.845-.254c-.54-.173-1.317-.439-2.3-.68a10.8,10.8,0,0,0-3.495-.35,7.545,7.545,0,0,0-2.013.462c-.679.249-1.362.569-2.083.863a8.289,8.289,0,0,1-2.2.617,6.72,6.72,0,0,1-2.129-.143c-1.327-.3-2.446-.767-3.41-1.067a10.271,10.271,0,0,0-2.326-.5,5.439,5.439,0,0,0-.648-.022.8.8,0,0,1-.229-.014.757.757,0,0,1,.226-.037,3.792,3.792,0,0,1,.657-.026,9.309,9.309,0,0,1,2.374.431c.978.281,2.107.734,3.4,1.009a6.577,6.577,0,0,0,2.054.125,8.184,8.184,0,0,0,2.134-.605c.713-.289,1.4-.611,2.094-.861a7.654,7.654,0,0,1,2.079-.461,10.6,10.6,0,0,1,3.558.409,23,23,0,0,1,2.286.761c.265.1.469.186.606.245a.779.779,0,0,1,.205.1" transform="translate(-26.195 -247.903)" fill="#263238"/>
      </g>
    </g>
  </g>
</svg>
