<svg xmlns="http://www.w3.org/2000/svg" xmlns:xlink="http://www.w3.org/1999/xlink" width="505" height="234.325" viewBox="0 0 505 234.325">
  <defs>
    <clipPath id="clip-path">
      <rect id="Rectángulo_377991" data-name="Rectángulo 377991" width="434.76" height="205.909" fill="#e1efe3"/>
    </clipPath>
    <clipPath id="clip-path-2">
      <rect id="Rectángulo_380722" data-name="Rectángulo 380722" width="505" height="231" transform="translate(179.667 14013)" fill="#fff" stroke="#707070" stroke-width="1"/>
    </clipPath>
    <clipPath id="clip-path-3">
      <rect id="Rectángulo_380721" data-name="Rectángulo 380721" width="500" height="463.027" fill="none"/>
    </clipPath>
    <clipPath id="clip-path-4">
      <rect id="Rectángulo_380720" data-name="Rectángulo 380720" width="500" height="322.188" transform="translate(0 0.001)" fill="none"/>
    </clipPath>
    <clipPath id="clip-path-5">
      <rect id="Rectángulo_380664" data-name="Rectángulo 380664" width="94.118" height="103.004" transform="translate(180.263 229.404)" fill="none"/>
    </clipPath>
    <clipPath id="clip-path-6">
      <rect id="Rectángulo_380695" data-name="Rectángulo 380695" width="74.528" height="61.53" transform="translate(157.18 113.741)" fill="none"/>
    </clipPath>
    <clipPath id="clip-path-7">
      <rect id="Rectángulo_380698" data-name="Rectángulo 380698" width="134.04" height="83.157" transform="translate(105.574 299.051)" fill="none"/>
    </clipPath>
    <clipPath id="clip-path-8">
      <rect id="Rectángulo_380700" data-name="Rectángulo 380700" width="50.762" height="83.161" transform="translate(105.581 299.052)" fill="none"/>
    </clipPath>
    <clipPath id="clip-path-9">
      <rect id="Rectángulo_380706" data-name="Rectángulo 380706" width="114.215" height="40.403" transform="translate(322.232 284.567)" fill="none"/>
    </clipPath>
    <clipPath id="clip-path-10">
      <rect id="Rectángulo_380708" data-name="Rectángulo 380708" width="34.9" height="40.405" transform="translate(322.237 284.567)" fill="none"/>
    </clipPath>
    <clipPath id="clip-path-11">
      <rect id="Rectángulo_380719" data-name="Rectángulo 380719" width="79.31" height="14.295" transform="translate(357.137 310.677)" fill="none"/>
    </clipPath>
  </defs>
  <g id="Grupo_1076608" data-name="Grupo 1076608" transform="translate(-179.667 -14002)">
    <g id="Grupo_1072852" data-name="Grupo 1072852" transform="translate(231.642 14088.417)">
      <g id="Grupo_1072851" data-name="Grupo 1072851" transform="translate(-15 -58)" clip-path="url(#clip-path)">
        <path id="Trazado_610488" data-name="Trazado 610488" d="M446.859,153.838s21.905-74.179-37.771-116.267C356.411.418,273.009-14.032,205.027,16.69c-24.223,10.947-41.854,32.2-70.15,38.767-31.727,7.365-72.519,10-101.981,41.562s-18.884,72.075,20.4,93.645,108.023.526,169.965-1.052,191.117,55.766,223.6-35.775" transform="translate(-16.025 0)" fill="#e1efe3"/>
      </g>
    </g>
    <g id="Enmascarar_grupo_1072831" data-name="Enmascarar grupo 1072831" transform="translate(0 -11)" clip-path="url(#clip-path-2)">
      <g id="Grupo_1076607" data-name="Grupo 1076607" transform="translate(185 13918.518)">
        <g id="Grupo_1076606" data-name="Grupo 1076606" clip-path="url(#clip-path-3)">
          <g id="Grupo_1076605" data-name="Grupo 1076605">
            <g id="Enmascarar_grupo_1072830" data-name="Enmascarar grupo 1072830" clip-path="url(#clip-path-4)">
              <path id="Trazado_613145" data-name="Trazado 613145" d="M288.127,304.505c-.3-.015-.605-.02-.91-.006a3.512,3.512,0,0,1,.91.006" fill="#ebebeb"/>
              <rect id="Rectángulo_380662" data-name="Rectángulo 380662" width="16.669" height="45.646" transform="translate(222.833 301.677)" fill="#dbdbdb"/>
              <path id="Trazado_613146" data-name="Trazado 613146" d="M237.89,309.635a6.725,6.725,0,1,1-6.723-6.919,6.823,6.823,0,0,1,6.723,6.919" fill="#c7c7c7"/>
              <rect id="Rectángulo_380663" data-name="Rectángulo 380663" width="34.279" height="14.485" transform="translate(287.218 241.358)" fill="#ebebeb"/>
              <path id="Trazado_613147" data-name="Trazado 613147" d="M186.49,249.342c16.364,26.869,48.758,69.2,64.385,78.622,17.372,10.471,67.047-25.075,99.14-46.35,6.381-4.23-23.378-55.819-29.96-50.952-17.193,12.711-52.745,42.229-57.459,41.227-3.858-.82-36.686-23.671-55.07-36.78-29.263-20.865-32.552-4.675-21.036,14.233" fill="#d3766a"/>
              <path id="Trazado_613148" data-name="Trazado 613148" d="M307.464,238.168l27.6,59.28s-60.09,39.294-78.779,34.518-58.417-59.788-70.065-81.378S180,216.853,202.574,231.344s57.344,37.658,60.99,37.775,43.9-30.951,43.9-30.951" fill="#0c5e46"/>
              <path id="Trazado_613149" data-name="Trazado 613149" d="M318.048,304.553c-7.9-25.331-20.042-50.756-21.843-55.338-.085-.217-.425-.055-.327.16,2,4.4,12.727,34.964,21.81,55.354.105.236.436.068.36-.176" fill="#263238"/>
              <g id="Grupo_1076586" data-name="Grupo 1076586" opacity="0.1">
                <g id="Grupo_1076585" data-name="Grupo 1076585">
                  <g id="Grupo_1076584" data-name="Grupo 1076584" clip-path="url(#clip-path-5)">
                    <path id="Trazado_613150" data-name="Trazado 613150" d="M274.381,329.513c-7.214,2.438-13.651,3.593-18.1,2.453-18.689-4.775-58.421-59.788-70.067-81.372-4.979-9.245-6.844-16.744-5.564-21.19,22.387,24.062,74.781,79.932,93.727,100.109"/>
                  </g>
                </g>
              </g>
              <path id="Trazado_613151" data-name="Trazado 613151" d="M332.154,293.548l-24.489-53.415c.861-1.112,4.538-3.314,8.169-6.734-.005-.023,9.518-13.091,13.357-27.308,3.246-11.936,6.7-30.031,13.182-28.525,9.461,2.168,7.845,25.572,6.1,38.951,6.8-2.742,12.917-4.464,16.846-4.162,13.049,1.005,15.97,59.825,4.974,67.324-10.6,7.23-30.924,14.9-38.138,13.869" fill="#d3766a"/>
              <rect id="Rectángulo_380665" data-name="Rectángulo 380665" width="114.167" height="86.651" transform="matrix(0.074, -0.997, 0.997, 0.074, 281.06, 292.608)" fill="#03386e"/>
              <rect id="Rectángulo_380666" data-name="Rectángulo 380666" width="99.518" height="70.224" transform="translate(289.797 285.917) rotate(-85.729)" fill="#fff"/>
              <rect id="Rectángulo_380667" data-name="Rectángulo 380667" width="99.518" height="26.313" transform="matrix(0.074, -0.997, 0.997, 0.074, 289.797, 285.916)" fill="#e1fbff"/>
              <path id="Trazado_613152" data-name="Trazado 613152" d="M312.922,208.039a7.042,7.042,0,0,1-7.385-.555,7.041,7.041,0,1,1,7.385.555" fill="#a6a6a6"/>
              <path id="Trazado_613153" data-name="Trazado 613153" d="M311.872,201.147a2.143,2.143,0,1,1-1.977-2.3,2.142,2.142,0,0,1,1.977,2.3" fill="#fff"/>
              <path id="Trazado_613154" data-name="Trazado 613154" d="M312.988,207.158l-.066.882a7.042,7.042,0,0,1-7.385-.555l.066-.879a3.7,3.7,0,0,1,7.385.552" fill="#fff"/>
              <rect id="Rectángulo_380668" data-name="Rectángulo 380668" width="1.309" height="18.95" transform="translate(327.354 198.672) rotate(-85.73)" fill="#ebebeb"/>
              <rect id="Rectángulo_380669" data-name="Rectángulo 380669" width="1.308" height="32.754" transform="matrix(0.074, -0.997, 0.997, 0.074, 327.085, 202.283)" fill="#ebebeb"/>
              <rect id="Rectángulo_380670" data-name="Rectángulo 380670" width="1.309" height="25.449" transform="matrix(0.074, -0.997, 0.997, 0.074, 326.815, 205.896)" fill="#ebebeb"/>
              <rect id="Rectángulo_380671" data-name="Rectángulo 380671" width="1.309" height="14.687" transform="translate(326.275 213.119) rotate(-85.728)" fill="#ebebeb"/>
              <rect id="Rectángulo_380672" data-name="Rectángulo 380672" width="1.309" height="25.449" transform="translate(326.005 216.731) rotate(-85.73)" fill="#ebebeb"/>
              <rect id="Rectángulo_380673" data-name="Rectángulo 380673" width="1.308" height="32.754" transform="translate(325.736 220.343) rotate(-85.728)" fill="#ebebeb"/>
              <rect id="Rectángulo_380674" data-name="Rectángulo 380674" width="1.309" height="18.95" transform="translate(325.466 223.955) rotate(-85.73)" fill="#ebebeb"/>
              <rect id="Rectángulo_380675" data-name="Rectángulo 380675" width="1.308" height="32.754" transform="translate(324.926 231.179) rotate(-85.728)" fill="#ebebeb"/>
              <rect id="Rectángulo_380676" data-name="Rectángulo 380676" width="1.308" height="23.761" transform="translate(324.657 234.791) rotate(-85.728)" fill="#ebebeb"/>
              <rect id="Rectángulo_380677" data-name="Rectángulo 380677" width="1.309" height="17.641" transform="matrix(0.074, -0.997, 0.997, 0.074, 324.387, 238.403)" fill="#ebebeb"/>
              <rect id="Rectángulo_380678" data-name="Rectángulo 380678" width="1.309" height="29.5" transform="translate(324.117 242.015) rotate(-85.729)" fill="#ebebeb"/>
              <rect id="Rectángulo_380679" data-name="Rectángulo 380679" width="1.309" height="23.762" transform="translate(323.577 249.238) rotate(-85.728)" fill="#ebebeb"/>
              <rect id="Rectángulo_380680" data-name="Rectángulo 380680" width="1.308" height="32.754" transform="translate(323.308 252.85) rotate(-85.728)" fill="#ebebeb"/>
              <rect id="Rectángulo_380681" data-name="Rectángulo 380681" width="1.309" height="29.5" transform="translate(322.768 260.075) rotate(-85.729)" fill="#ebebeb"/>
              <rect id="Rectángulo_380682" data-name="Rectángulo 380682" width="1.309" height="17.473" transform="translate(322.498 263.687) rotate(-85.73)" fill="#ebebeb"/>
              <rect id="Rectángulo_380683" data-name="Rectángulo 380683" width="1.308" height="32.754" transform="translate(322.228 267.298) rotate(-85.728)" fill="#ebebeb"/>
              <rect id="Rectángulo_380684" data-name="Rectángulo 380684" width="1.308" height="23.76" transform="translate(321.689 274.522) rotate(-85.728)" fill="#ebebeb"/>
              <rect id="Rectángulo_380685" data-name="Rectángulo 380685" width="1.308" height="32.754" transform="translate(321.419 278.134) rotate(-85.728)" fill="#ebebeb"/>
              <rect id="Rectángulo_380686" data-name="Rectángulo 380686" width="1.309" height="29.5" transform="translate(321.149 281.747) rotate(-85.729)" fill="#ebebeb"/>
              <rect id="Rectángulo_380687" data-name="Rectángulo 380687" width="1.308" height="8.696" transform="translate(301.633 214.91) rotate(-85.727)" fill="#a6a6a6"/>
              <rect id="Rectángulo_380688" data-name="Rectángulo 380688" width="1.309" height="14.478" transform="matrix(0.074, -0.997, 0.997, 0.074, 301.363, 218.523)" fill="#a6a6a6"/>
              <rect id="Rectángulo_380689" data-name="Rectángulo 380689" width="1.309" height="12.097" transform="translate(301.094 222.134) rotate(-85.729)" fill="#a6a6a6"/>
              <rect id="Rectángulo_380690" data-name="Rectángulo 380690" width="1.309" height="14.479" transform="matrix(0.074, -0.997, 0.997, 0.074, 300.554, 229.359)" fill="#a6a6a6"/>
              <rect id="Rectángulo_380691" data-name="Rectángulo 380691" width="1.309" height="15.385" transform="translate(300.284 232.97) rotate(-85.728)" fill="#a6a6a6"/>
              <rect id="Rectángulo_380692" data-name="Rectángulo 380692" width="1.309" height="10.788" transform="translate(300.014 236.583) rotate(-85.731)" fill="#a6a6a6"/>
              <rect id="Rectángulo_380693" data-name="Rectángulo 380693" width="1.308" height="12.748" transform="translate(299.745 240.194) rotate(-85.726)" fill="#a6a6a6"/>
              <rect id="Rectángulo_380694" data-name="Rectángulo 380694" width="15.562" height="43.92" transform="translate(310.205 189.259) rotate(-85.729)" fill="#6debff"/>
              <path id="Trazado_613155" data-name="Trazado 613155" d="M348.393,182.561l-31.161-2.327h0l.9-12.043,31.161,2.327Z" fill="#6debff"/>
              <path id="Trazado_613156" data-name="Trazado 613156" d="M344.913,214.828c-2.83,6.184,6.078,5.979,6.078,5.979s-12.751,3.385-13.2,10.89c-.416,7.233,10.336,6.606,11.107,6.571-.673.185-12.309,3.6-11.986,11.19.342,7.885,11.028,5.4,11.718,5.239-.581.374-8.175,5.451-6.619,11.16,2.678,9.808,22.453-2.639,30.4-.478,0,0-2.126,13.88-2.1,14.3,0,0,19.056-11.457,21.372-22.334a7.1,7.1,0,0,0-3.882-8s6.552-3.016,6.487-9c-.042-3.071-4.991-5.736-4.991-5.736s5.146-2.633,4.755-7.95c-.3-4.244-5.215-6.257-5.215-6.257s3.767-4.821,2.054-9.058c-3.435-8.554-39.9-9.749-45.969,3.488" fill="#d3766a"/>
              <path id="Trazado_613157" data-name="Trazado 613157" d="M388.1,219.96a.1.1,0,0,0,.043-.187c-11.9-3.319-25.982-3.321-37.633.994-.382.142-.318.824.132.748,12.859-2.151,24.442-3.035,37.458-1.555" fill="#263238"/>
              <path id="Trazado_613158" data-name="Trazado 613158" d="M389.472,234.538c.141.017.17-.218.023-.257-12.275-3.355-28.142-2.92-40.985,3.635-.441.225-.611.868-.084.648,8.87-3.711,29.336-5.418,41.046-4.026" fill="#263238"/>
              <path id="Trazado_613159" data-name="Trazado 613159" d="M347.888,255.463c12.558-5.809,25.715-7.008,39.4-6.3.178.009.173-.244.026-.293-6.6-2.172-15.376-1.716-22.173-.783a36.485,36.485,0,0,0-17.461,6.934c-.2.152-.065.563.2.439" fill="#263238"/>
              <path id="Trazado_613160" data-name="Trazado 613160" d="M229.66,364.93l-3.529-38.6s10.309-15.754,8.807-34.378c-1.093-13.554-39.81-60.957-42.3-63.282-10.005-9.324-26.887-5.6-33.815-.368-38.376,29.005-38.049,75.369-51.029,136.55Z" fill="#0c5e46"/>
              <path id="Trazado_613161" data-name="Trazado 613161" d="M229.66,364.93l-3.529-38.6s13.277-17.693,8.807-34.378-17.689-31.9-17.689-31.9h-57.08S155,309.994,141.93,318.5a36.735,36.735,0,0,1-27.02,5.559l-7.115,40.794Z" fill="#03386e"/>
              <path id="Trazado_613162" data-name="Trazado 613162" d="M189.716,321.287a112.137,112.137,0,0,1,16.587.253c2.738.283,5.443.691,8.155,1.158,1.351.233,2.7.42,4.061.6a17.7,17.7,0,0,0,4.288.166.1.1,0,0,1,.026.2,30.159,30.159,0,0,1-4.028.523,29.263,29.263,0,0,1-3.937-.152c-2.78-.261-5.545-.651-8.322-.94-5.6-.584-11.2-1.166-16.831-1.345-.259-.008-.26-.448,0-.459" fill="#263238"/>
              <path id="Trazado_613163" data-name="Trazado 613163" d="M166.986,244.714c-7.067,10.046-60.506,73.555-75.591,83.159-11.469,7.3-41.589,11.769-40.072-16.731,1.011-18.99,77-72.6,107.665-85.593,14.083-5.968,22.826-1.914,8,19.165" fill="#0c5e46"/>
              <path id="Trazado_613164" data-name="Trazado 613164" d="M63.42,332.3c9,2.489,18.812.569,26.719-4.155,7.957-4.847,14.151-11.983,20.584-18.623,11.218-11.767,26.527-29.346,37.513-41.629q-17.292,22.1-36.424,42.657c-6.588,6.62-12.894,13.916-21.1,18.59-8.172,4.586-18.332,6.306-27.29,3.16" fill="#263238"/>
              <path id="Trazado_613165" data-name="Trazado 613165" d="M141.079,276.394c2.475-2.041,5.129-3.614,7.764-5.429a17.116,17.116,0,0,1-7.764,5.429" fill="#263238"/>
              <path id="Trazado_613166" data-name="Trazado 613166" d="M160.169,260.052H168.9a110.833,110.833,0,0,0-5.283-37.007l-5.638,1.432s5.554,23.131,2.2,35.575" fill="#37474f"/>
              <path id="Trazado_613167" data-name="Trazado 613167" d="M195.591,226.517s11.766,16.934,21.659,33.535h-5.538L189.52,224.2Z" fill="#03386e"/>
              <path id="Trazado_613168" data-name="Trazado 613168" d="M166.785,229.58c.693,2.429,11.721,16.655,22.921,15.587,3.647-.354,4.065-19.2,4.065-19.2l.261-1.493,3.627-20.909-25.05-14.418L169,187.255s-.616,5.786-1.309,13c-.034.335-.068.669-.1,1.027-.05.407-.1.791-.13,1.172-.118,1.076-.233,2.176-.325,3.273-.074.835-.149,1.647-.194,2.526-.069.882-.116,1.738-.184,2.619-.483,8.7-.25,17.678.029,18.71" fill="#d3766a"/>
              <path id="Trazado_613169" data-name="Trazado 613169" d="M167.688,200.253a42.568,42.568,0,0,0,26.344,24.222l3.627-20.908-25.051-14.418L169,187.255s-.615,5.786-1.309,13" fill="#263238"/>
              <path id="Trazado_613170" data-name="Trazado 613170" d="M175.247,185.26c-6.676-4.465-25.409-11.043-35.316,3.511-14.137,20.77,16.484,57.208,18.056,76.35,2.848,34.688,20.87,54.169,36.853,44.478,17.911-10.86,16.81-40.389-16.831-73.742-21.036-20.856-24.237-36.085-19.4-39.582s12.368-.41,12.368-.41Z" fill="#263238"/>
              <path id="Trazado_613171" data-name="Trazado 613171" d="M172.594,183.724a47.648,47.648,0,0,0-10.817-4.011,28.211,28.211,0,0,0-11.678-.421,19.237,19.237,0,0,0-10.446,5.6,24.9,24.9,0,0,0-5.967,10.264,27.971,27.971,0,0,0-.55,11.82,51.452,51.452,0,0,0,3.243,11.22,103.392,103.392,0,0,0,11.535,19.958,152.282,152.282,0,0,1-9.959-20.571,54.834,54.834,0,0,1-2.787-10.892,26.332,26.332,0,0,1,.6-10.946,23.173,23.173,0,0,1,5.371-9.449,17.975,17.975,0,0,1,9.307-5.353,28.812,28.812,0,0,1,11.13-.189,46.446,46.446,0,0,1,5.568,1.186q2.744.8,5.448,1.787" fill="#263238"/>
              <path id="Trazado_613172" data-name="Trazado 613172" d="M166.7,224.082c3.1,3.54,6.585,6.718,9.93,10.01,3.393,3.244,6.765,6.5,10.034,9.841,3.251,3.359,6.432,6.777,9.327,10.413a70.731,70.731,0,0,1,7.72,11.5,36.2,36.2,0,0,1,4.246,12.921,39.429,39.429,0,0,1-1.132,13.6,29.387,29.387,0,0,1-6.377,12.048,26.576,26.576,0,0,1-5.2,4.564,23.871,23.871,0,0,1-3.029,1.728,12.3,12.3,0,0,1-3.295,1.159,17.336,17.336,0,0,0,6.626-2.4,27.374,27.374,0,0,0,5.671-4.325,29.167,29.167,0,0,0,4.373-5.7,31.611,31.611,0,0,0,2.855-6.611,37.127,37.127,0,0,0,1.425-7.056l.154-1.793.076-1.8a27.013,27.013,0,0,0-.106-3.639,37.765,37.765,0,0,0-4.369-13.717c-4.544-8.471-10.994-15.582-17.778-22.1-3.4-3.267-6.944-6.368-10.511-9.426-3.591-3.033-7.192-6.035-10.639-9.227" fill="#263238"/>
              <path id="Trazado_613173" data-name="Trazado 613173" d="M176.348,184.369c-1.336-1.754-4.356-2.962-5.714-2.372s-6.731,10.774-5.732,13.455,6.164,1.589,6.164,1.589Z" fill="#ffc727"/>
              <path id="Trazado_613174" data-name="Trazado 613174" d="M225.034,166.664c7.853,36.406-13.065,45.221-20.917,46.9C196.989,215.1,172.523,219.4,160.95,184s2.871-50.559,18.989-54.92,37.242,1.176,45.1,37.583" fill="#d3766a"/>
              <path id="Trazado_613175" data-name="Trazado 613175" d="M213.117,161.294a24.424,24.424,0,0,1-2.566-.168,4.157,4.157,0,0,1-2.586-.671,1.324,1.324,0,0,1-.227-1.6,3.284,3.284,0,0,1,3.1-1.22,4.831,4.831,0,0,1,3.242,1.259,1.414,1.414,0,0,1-.959,2.4" fill="#263238"/>
              <path id="Trazado_613176" data-name="Trazado 613176" d="M187.6,170.756a24.46,24.46,0,0,0,2.416-.883,4.158,4.158,0,0,0,2.292-1.371,1.324,1.324,0,0,0-.232-1.6,3.285,3.285,0,0,0-3.315-.3A4.828,4.828,0,0,0,186,168.722a1.413,1.413,0,0,0,1.6,2.034" fill="#263238"/>
              <path id="Trazado_613177" data-name="Trazado 613177" d="M193.843,175.295c-.035-.092-.176.151-.156.253.5,2.488.65,5.421-1.473,6.63-.066.038-.038.162.044.136,2.7-.851,2.456-4.742,1.585-7.019" fill="#263238"/>
              <path id="Trazado_613178" data-name="Trazado 613178" d="M191.173,173.057c-4.074.368-3.038,8.489.736,8.147,3.714-.335,2.678-8.456-.736-8.147" fill="#263238"/>
              <path id="Trazado_613179" data-name="Trazado 613179" d="M189.633,173.69c-.651.549-1.242,1.449-2.086,1.643-.977.224-1.833-.531-2.584-1.266-.077-.077-.139,0-.127.111.176,1.559.978,3.079,2.675,3.1,1.549.018,2.466-1.5,2.655-3.113.035-.3-.271-.695-.533-.473" fill="#263238"/>
              <path id="Trazado_613180" data-name="Trazado 613180" d="M208.915,172.049c.012-.1.205.106.209.21.094,2.535.629,5.423,2.976,6.1.073.021.074.149-.011.143-2.821-.2-3.491-4.041-3.174-6.458" fill="#263238"/>
              <path id="Trazado_613181" data-name="Trazado 613181" d="M210.991,169.251c4.048-.59,4.93,7.549,1.18,8.095-3.69.538-4.572-7.6-1.18-8.095" fill="#263238"/>
              <path id="Trazado_613182" data-name="Trazado 613182" d="M212.636,169.508c.76.383,1.545,1.121,2.411,1.112,1-.009,1.659-.942,2.218-1.832.058-.092.136-.029.149.079.193,1.557-.234,3.221-1.88,3.635-1.5.378-2.747-.885-3.306-2.41-.1-.283.1-.739.408-.584" fill="#263238"/>
              <path id="Trazado_613183" data-name="Trazado 613183" d="M198.462,194.755c.653.542,1.324,1.308,2.247,1.31a6.686,6.686,0,0,0,2.665-.858.089.089,0,0,1,.12.121,3.417,3.417,0,0,1-3.1,1.634,2.7,2.7,0,0,1-2.17-2.073c-.051-.143.139-.213.234-.134" fill="#263238"/>
              <path id="Trazado_613184" data-name="Trazado 613184" d="M207.7,184.211s1.042,3.679,1.289,5.448c.022.166-.395.3-.99.423-.028.013-.042.027-.069.012a8.492,8.492,0,0,1-8.608-2c-.146-.156.053-.37.23-.282a12.8,12.8,0,0,0,7.987,1.13c.057-.508-1.994-6.241-1.717-6.3a15.6,15.6,0,0,1,4.146.35c-1.948-7.726-5.118-15.077-6.942-22.8a.244.244,0,0,1,.446-.179c3.868,7.469,6.3,16.311,8.521,24.238.285.986-3.543.165-4.293-.037" fill="#263238"/>
              <path id="Trazado_613185" data-name="Trazado 613185" d="M158.865,183.072c6.329.489,7.782-12.78,7.782-12.78s12.861.038,17.1-18.456c0,0-.278,8.608-5.693,15.292,0,0,22.676-2.4,32.225-21.381,0,0-3.809,9.666-7.381,13.1,0,0,9.512-2.653,14.149-10.376,0,0,3.971,10.953,7.028,13.978,0,0-.937-39.678-37.7-35.457,0,0-23.016,1.528-31.281,19.747s3.764,36.33,3.764,36.33" fill="#263238"/>
              <path id="Trazado_613186" data-name="Trazado 613186" d="M167.339,185.549s-9.525-10.512-14.394-6.974,3.312,19.488,9.744,21a6.3,6.3,0,0,0,7.947-4.418Z" fill="#d3766a"/>
              <path id="Trazado_613187" data-name="Trazado 613187" d="M155.4,183.089a.085.085,0,0,0-.012.168c4.529,1.2,7.3,4.907,9.415,8.848-1.483-1.432-3.338-2.084-5.28-.289-.1.094.027.256.145.215a3.875,3.875,0,0,1,4.4.806A18.64,18.64,0,0,1,166.53,196c.251.359.92.065.717-.36-.014-.031-.032-.063-.047-.1-.587-5.506-5.829-12.651-11.8-12.458" fill="#263238"/>
              <path id="Trazado_613188" data-name="Trazado 613188" d="M163.613,199.819a2.037,2.037,0,1,0,2.037-2.038,2.037,2.037,0,0,0-2.037,2.038" fill="#fff"/>
              <path id="Trazado_613189" data-name="Trazado 613189" d="M213.618,132.421c-4.335.344-26.535,8.319-35.187,15.934s-21.808,27.926-22.482,28.988-17.321-34.378,10.43-50.885c30.237-17.985,47.239,5.963,47.239,5.963" fill="#03386e"/>
              <path id="Trazado_613190" data-name="Trazado 613190" d="M157.18,175.271s11.282-32.58,20.342-42.131,32.6-20.96,50.024-19.222c13.587,1.356-10.435,26.1-10.435,26.1s-2.183-3.968-6.5-4.235c-8.38-.518-21.727,6.339-28.877,11.656-9,6.692-24.554,27.83-24.554,27.83" fill="#03386e"/>
              <g id="Grupo_1076589" data-name="Grupo 1076589" transform="translate(-0.541)" opacity="0.2">
                <g id="Grupo_1076588" data-name="Grupo 1076588">
                  <g id="Grupo_1076587" data-name="Grupo 1076587" clip-path="url(#clip-path-6)">
                    <path id="Trazado_613191" data-name="Trazado 613191" d="M157.18,175.271s11.282-32.58,20.342-42.131,32.6-20.96,50.024-19.222c13.587,1.356-10.435,26.1-10.435,26.1s-2.183-3.968-6.5-4.235c-8.38-.518-21.727,6.339-28.877,11.656-9,6.692-24.554,27.83-24.554,27.83"/>
                  </g>
                </g>
              </g>
              <rect id="Rectángulo_380696" data-name="Rectángulo 380696" width="134.04" height="83.157" transform="translate(105.574 299.051)" fill="#6debff"/>
              <g id="Grupo_1076592" data-name="Grupo 1076592" transform="translate(0 0.002)" opacity="0.2">
                <g id="Grupo_1076591" data-name="Grupo 1076591">
                  <g id="Grupo_1076590" data-name="Grupo 1076590" clip-path="url(#clip-path-7)">
                    <rect id="Rectángulo_380697" data-name="Rectángulo 380697" width="134.04" height="83.157" transform="translate(105.574 299.051)"/>
                  </g>
                </g>
              </g>
              <g id="Grupo_1076595" data-name="Grupo 1076595" opacity="0.2">
                <g id="Grupo_1076594" data-name="Grupo 1076594">
                  <g id="Grupo_1076593" data-name="Grupo 1076593" clip-path="url(#clip-path-8)">
                    <rect id="Rectángulo_380699" data-name="Rectángulo 380699" width="50.762" height="83.161" transform="translate(105.581 299.052)"/>
                  </g>
                </g>
              </g>
              <path id="Trazado_613192" data-name="Trazado 613192" d="M109.078,376.484q5.638-8.871,11.176-17.8L131.267,340.8l10.872-17.965q5.409-9,10.707-18.055-5.64,8.869-11.177,17.8l-11.012,17.887-10.871,17.965q-5.409,9-10.708,18.055" fill="#03386e"/>
              <path id="Trazado_613193" data-name="Trazado 613193" d="M109.078,304.781q5.3,9.055,10.708,18.055L130.657,340.8l11.012,17.887q5.533,8.93,11.177,17.8-5.3-9.056-10.707-18.055l-10.872-17.964-11.013-17.887q-5.533-8.93-11.176-17.8" fill="#ffc727"/>
              <rect id="Rectángulo_380701" data-name="Rectángulo 380701" width="15.416" height="15.416" transform="translate(123.151 299.052)" fill="#ebebeb"/>
              <rect id="Rectángulo_380702" data-name="Rectángulo 380702" width="113.335" height="2.676" transform="translate(118.844 296.376)" fill="#ebebeb"/>
              <rect id="Rectángulo_380703" data-name="Rectángulo 380703" width="113.335" height="2.676" transform="translate(115.906 293.699)" fill="#c7c7c7"/>
              <path id="Trazado_613194" data-name="Trazado 613194" d="M168.956,352.622c-11.4-10.124-76.913-46.76-90.178-51.337s-31.986,1.44-26.016,21.385,73.288,78.86,98.691,83.043c8.936,1.471,21.628-49.428,17.5-53.091" fill="#d3766a"/>
              <path id="Trazado_613195" data-name="Trazado 613195" d="M172.377,349.627,140.547,412.2s-55.7-32.364-85.56-83.485c-9.95-17.035.047-39.881,30.215-27.663s87.175,48.573,87.175,48.573" fill="#0c5e46"/>
              <path id="Trazado_613196" data-name="Trazado 613196" d="M320.776,124.465a34.321,34.321,0,0,1-57.357,21.714l-17.174,2.52,8.593-14.847a34.332,34.332,0,1,1,65.938-9.387" transform="translate(-10.965 11.072)" fill="#fff"/>
              <path id="Trazado_613197" data-name="Trazado 613197" d="M320.776,124.465a34.562,34.562,0,0,1-6.929,17.4,38.2,38.2,0,0,1-3.111,3.582,38.771,38.771,0,0,1-3.623,3.068,33.854,33.854,0,0,1-8.281,4.61,34.231,34.231,0,0,1-9.243,2.2,33.742,33.742,0,0,1-4.769.091,30.079,30.079,0,0,1-4.751-.494,34.646,34.646,0,0,1-16.984-8.386l.406.125L246.333,149.3l-1.245.191.631-1.1,8.542-14.877-.04.588a34.715,34.715,0,0,1,2.115-30.6,35.1,35.1,0,0,1,10.751-11.449A34.923,34.923,0,0,1,297.262,88,35.071,35.071,0,0,1,310.5,96.114a34.531,34.531,0,0,1,10.275,28.351m0,0a33.961,33.961,0,0,0-38.931-37.152,33.731,33.731,0,0,0-14.178,5.6,35.371,35.371,0,0,0-10.271,11.2,33.882,33.882,0,0,0-4.357,14.526,34.279,34.279,0,0,0,2.416,14.955l.124.308-.164.28L246.771,149l-.614-.906,17.19-2.408.238-.033.169.159a33.816,33.816,0,0,0,16.438,8.467,29.412,29.412,0,0,0,4.658.566,33.019,33.019,0,0,0,4.7-.007,33.843,33.843,0,0,0,9.169-2.019A31.964,31.964,0,0,0,307,148.361a38.469,38.469,0,0,0,3.625-3.027,38.075,38.075,0,0,0,3.123-3.546,34.5,34.5,0,0,0,7.031-17.323" transform="translate(-10.967 11.375)" fill="#263238"/>
              <path id="Trazado_613198" data-name="Trazado 613198" d="M282.614,140.471l-14.662-14.842,4.925-4.867,8.566,8.669,17.8-27.9,5.839,3.724Z" transform="translate(-10.965 11.072)" fill="#6debff"/>
              <rect id="Rectángulo_380704" data-name="Rectángulo 380704" width="114.215" height="40.403" transform="translate(322.232 284.567)" fill="#6debff"/>
              <g id="Grupo_1076598" data-name="Grupo 1076598" transform="translate(0 -0.084)" opacity="0.2">
                <g id="Grupo_1076597" data-name="Grupo 1076597">
                  <g id="Grupo_1076596" data-name="Grupo 1076596" clip-path="url(#clip-path-9)">
                    <rect id="Rectángulo_380705" data-name="Rectángulo 380705" width="114.215" height="40.403" transform="translate(322.232 284.567)"/>
                  </g>
                </g>
              </g>
              <g id="Grupo_1076601" data-name="Grupo 1076601" opacity="0.2">
                <g id="Grupo_1076600" data-name="Grupo 1076600">
                  <g id="Grupo_1076599" data-name="Grupo 1076599" clip-path="url(#clip-path-10)">
                    <rect id="Rectángulo_380707" data-name="Rectángulo 380707" width="34.9" height="40.405" transform="translate(322.237 284.567)"/>
                  </g>
                </g>
              </g>
              <path id="Trazado_613199" data-name="Trazado 613199" d="M324.641,322.189q3.878-4.309,7.684-8.647l7.571-8.69,7.475-8.729q3.72-4.371,7.362-8.772-3.877,4.309-7.684,8.647l-7.572,8.69L332,313.417q-3.719,4.371-7.362,8.772" fill="#03386e"/>
              <path id="Trazado_613200" data-name="Trazado 613200" d="M324.641,287.35q3.646,4.4,7.362,8.772l7.474,8.729,7.572,8.69q3.8,4.34,7.684,8.647-3.645-4.4-7.362-8.772l-7.475-8.729L332.325,296q-3.8-4.338-7.684-8.647" fill="#03386e"/>
              <rect id="Rectángulo_380709" data-name="Rectángulo 380709" width="10.599" height="9.463" transform="translate(334.317 284.567)" fill="#ebebeb"/>
              <rect id="Rectángulo_380710" data-name="Rectángulo 380710" width="0.742" height="10.47" transform="translate(416.341 309.749)" fill="#263238"/>
              <rect id="Rectángulo_380711" data-name="Rectángulo 380711" width="0.742" height="10.47" transform="translate(418.122 309.749)" fill="#263238"/>
              <rect id="Rectángulo_380712" data-name="Rectángulo 380712" width="0.742" height="10.47" transform="translate(419.904 309.749)" fill="#263238"/>
              <rect id="Rectángulo_380713" data-name="Rectángulo 380713" width="0.742" height="10.47" transform="translate(421.685 309.749)" fill="#263238"/>
              <rect id="Rectángulo_380714" data-name="Rectángulo 380714" width="0.742" height="10.47" transform="translate(423.467 309.749)" fill="#263238"/>
              <rect id="Rectángulo_380715" data-name="Rectángulo 380715" width="0.742" height="10.47" transform="translate(425.248 309.749)" fill="#263238"/>
              <rect id="Rectángulo_380716" data-name="Rectángulo 380716" width="0.742" height="10.47" transform="translate(427.03 309.749)" fill="#263238"/>
              <rect id="Rectángulo_380717" data-name="Rectángulo 380717" width="0.742" height="10.47" transform="translate(428.811 309.749)" fill="#263238"/>
              <rect id="Rectángulo_380718" data-name="Rectángulo 380718" width="0.742" height="10.47" transform="translate(430.593 309.749)" fill="#263238"/>
              <path id="Trazado_613201" data-name="Trazado 613201" d="M409.055,319.421l2.857.8h-6.7l2.857-.8v-3.848c-2.045-.268-2.857-2.286-2.857-5.813h6.7c0,3.518-.812,5.545-2.857,5.813Z" fill="#263238"/>
              <path id="Trazado_613202" data-name="Trazado 613202" d="M403.644,315.091h-1.75v5.125h-4.482v-5.125h-1.759l4-5.34Z" fill="#263238"/>
              <g id="Grupo_1076604" data-name="Grupo 1076604" opacity="0.1">
                <g id="Grupo_1076603" data-name="Grupo 1076603">
                  <g id="Grupo_1076602" data-name="Grupo 1076602" clip-path="url(#clip-path-11)">
                    <path id="Trazado_613203" data-name="Trazado 613203" d="M436.447,324.972v-5.014l-79.309-9.281v14.291Z"/>
                  </g>
                </g>
              </g>
              <path id="Trazado_613204" data-name="Trazado 613204" d="M37.29,322.188c161.03-.612,341.671-.617,502.7,0-161.03.617-341.671.612-502.7,0" transform="translate(-39.991)" fill="#263238"/>
            </g>
          </g>
        </g>
      </g>
    </g>
  </g>
</svg>
