<svg xmlns="http://www.w3.org/2000/svg" width="141" height="141" viewBox="0 0 141 141">
  <g id="Grupo_1077069" data-name="Grupo 1077069" transform="translate(-730 -3515.831)">
    <g id="Grupo_1071490" data-name="Grupo 1071490" transform="translate(461 2557.831)">
      <circle id="Elipse_5614" data-name="Elipse 5614" cx="70.5" cy="70.5" r="70.5" transform="translate(269 958)" fill="#fff"/>
    </g>
    <g id="_001---Cyber-Security" data-name="001---Cyber-Security" transform="translate(760.274 3546.602)">
      <path id="Path" d="M64.616,10.971V43.229a25.16,25.16,0,0,1-8.779,19.108L52.381,65.3,50.05,67.29,38.53,77.168a2.648,2.648,0,0,1-3.443,0L23.566,67.29,21.236,65.3l-3.456-2.966A25.16,25.16,0,0,1,9,43.229V10.971a2.636,2.636,0,0,1,2.463-2.635C16.124,8.005,26.6,6.694,35.391,1.4a2.725,2.725,0,0,1,2.834,0c8.793,5.3,19.267,6.608,23.928,6.939a2.636,2.636,0,0,1,2.463,2.635Z" transform="translate(2.918 0.324)" fill="#6debff"/>
      <path id="Path-2" data-name="Path" d="M19.928,56.853A20.074,20.074,0,0,1,13,41.647V12.766a1.324,1.324,0,0,1,1.151-1.324A60.251,60.251,0,0,0,34.9,5.156a1.294,1.294,0,0,1,1.232,0,60.269,60.269,0,0,0,20.745,6.287,1.324,1.324,0,0,1,1.151,1.324V41.649a20.07,20.07,0,0,1-6.93,15.207L36.373,69.568a1.324,1.324,0,0,1-1.721,0Z" transform="translate(4.215 1.621)" fill="#25cce6"/>
      <path id="Path-3" data-name="Path" d="M60.3,22.646a2.648,2.648,0,0,1-4.966,1.271,2.606,2.606,0,0,1,0-2.542A2.648,2.648,0,0,1,60.3,22.646Z" transform="translate(17.831 6.487)" fill="#6debff"/>
      <path id="Path-4" data-name="Path" d="M60.3,7.65A2.648,2.648,0,0,1,58.92,9.967a2.606,2.606,0,0,1-2.542,0A2.648,2.648,0,1,1,60.3,7.65Z" transform="translate(17.831 1.619)" fill="#6debff"/>
      <path id="Path-5" data-name="Path" d="M60.3,37.648a2.648,2.648,0,1,1-3.92-2.317,2.606,2.606,0,0,1,2.542,0A2.648,2.648,0,0,1,60.3,37.648Z" transform="translate(17.831 11.347)" fill="#6debff"/>
      <path id="Path-6" data-name="Path" d="M51.3,57.646a2.648,2.648,0,0,1-4.966,1.271,2.606,2.606,0,0,1,0-2.542A2.648,2.648,0,0,1,51.3,57.646Z" transform="translate(14.913 17.834)" fill="#6debff"/>
      <path id="Path-7" data-name="Path" d="M6.3,22.648a2.56,2.56,0,0,1-.331,1.271,2.648,2.648,0,1,1,0-2.542A2.56,2.56,0,0,1,6.3,22.648Z" transform="translate(0.323 6.484)" fill="#6debff"/>
      <path id="Path-8" data-name="Path" d="M6.3,7.65A2.648,2.648,0,0,1,4.92,9.967a2.606,2.606,0,0,1-2.542,0A2.648,2.648,0,1,1,6.3,7.65Z" transform="translate(0.324 1.619)" fill="#6debff"/>
      <path id="Path-9" data-name="Path" d="M6.3,37.648a2.648,2.648,0,1,1-3.92-2.317,2.606,2.606,0,0,1,2.542,0A2.648,2.648,0,0,1,6.3,37.648Z" transform="translate(0.324 11.347)" fill="#6debff"/>
      <path id="Path-10" data-name="Path" d="M15.3,57.648a2.56,2.56,0,0,1-.331,1.271,2.648,2.648,0,1,1,0-2.542A2.56,2.56,0,0,1,15.3,57.648Z" transform="translate(3.241 17.831)" fill="#6debff"/>
      <circle id="Oval" cx="14.566" cy="14.566" r="14.566" transform="translate(25.16 22.511)" fill="#6debff"/>
      <g id="Grupo_1076777" data-name="Grupo 1076777" transform="translate(0 0)">
        <path id="Path-11" data-name="Path" d="M37.132,79.459a3.962,3.962,0,0,1-2.585-.963L17.242,63.672A26.462,26.462,0,0,1,8,43.558V11.3A3.983,3.983,0,0,1,11.691,7.34a63.826,63.826,0,0,0,6.67-.837,1.324,1.324,0,0,1,.466,2.606,66.193,66.193,0,0,1-6.949.873,1.311,1.311,0,0,0-1.229,1.324V43.558a23.812,23.812,0,0,0,8.317,18.1l17.3,14.831a1.324,1.324,0,0,0,1.721,0L55.3,61.66a23.81,23.81,0,0,0,8.317-18.1V11.3a1.31,1.31,0,0,0-1.229-1.324C57.025,9.6,46.708,8.172,37.862,2.85a1.392,1.392,0,0,0-1.457,0,45.95,45.95,0,0,1-9.455,4.237,1.324,1.324,0,0,1-.821-2.516A43.287,43.287,0,0,0,35.038.584a4.049,4.049,0,0,1,4.19,0C47.911,5.808,58.452,7.049,62.574,7.34A3.985,3.985,0,0,1,66.265,11.3V43.558A26.458,26.458,0,0,1,57.023,63.67L39.716,78.5a3.957,3.957,0,0,1-2.584.957Z" transform="translate(2.594 0)" fill="#373737"/>
        <path id="Path-12" data-name="Path" d="M35.836,71.534a2.635,2.635,0,0,1-1.721-.637L19.393,58.185A21.391,21.391,0,0,1,12,41.972V13.091a2.648,2.648,0,0,1,2.311-2.636,59.117,59.117,0,0,0,20.281-6.14,2.617,2.617,0,0,1,2.487,0,59.163,59.163,0,0,0,20.281,6.14,2.648,2.648,0,0,1,2.311,2.636V41.972a21.526,21.526,0,0,1-.881,6.1,1.324,1.324,0,1,1-2.54-.75,18.875,18.875,0,0,0,.772-5.352V13.091a62.044,62.044,0,0,1-21.2-6.442,61.484,61.484,0,0,1-21.187,6.436l.013,28.887a18.743,18.743,0,0,0,6.47,14.2L35.836,68.886,50.548,56.174a18.612,18.612,0,0,0,2.768-2.966A1.324,1.324,0,1,1,55.434,54.8a21.417,21.417,0,0,1-3.153,3.391l-14.724,12.7a2.638,2.638,0,0,1-1.721.642Z" transform="translate(3.891 1.297)" fill="#373737"/>
        <path id="Shape" d="M57.973,26.945a3.973,3.973,0,1,1,3.973-3.973,3.973,3.973,0,0,1-3.973,3.973Zm0-5.3A1.324,1.324,0,1,0,59.3,22.973,1.324,1.324,0,0,0,57.973,21.648Z" transform="translate(17.507 6.16)" fill="#373737"/>
        <path id="Shape-2" data-name="Shape" d="M57.973,11.945a3.973,3.973,0,1,1,2.809-1.164A3.973,3.973,0,0,1,57.973,11.945Zm0-5.3A1.324,1.324,0,1,0,59.3,7.973,1.324,1.324,0,0,0,57.973,6.648Z" transform="translate(17.507 1.297)" fill="#373737"/>
        <path id="Shape-3" data-name="Shape" d="M57.973,41.945a3.973,3.973,0,1,1,3.973-3.973A3.973,3.973,0,0,1,57.973,41.945Zm0-5.3A1.324,1.324,0,1,0,59.3,37.973,1.324,1.324,0,0,0,57.973,36.648Z" transform="translate(17.507 11.023)" fill="#373737"/>
        <path id="Shape-4" data-name="Shape" d="M48.973,61.945a3.973,3.973,0,1,1,3.973-3.973A3.973,3.973,0,0,1,48.973,61.945Zm0-5.3A1.324,1.324,0,1,0,50.3,57.973,1.324,1.324,0,0,0,48.973,56.648Z" transform="translate(14.589 17.507)" fill="#373737"/>
        <path id="Shape-5" data-name="Shape" d="M3.973,26.945a3.973,3.973,0,1,1,3.973-3.973,3.973,3.973,0,0,1-3.973,3.973Zm0-5.3A1.324,1.324,0,1,0,5.3,22.973,1.324,1.324,0,0,0,3.973,21.648Z" transform="translate(0 6.16)" fill="#373737"/>
        <path id="Shape-6" data-name="Shape" d="M3.973,11.945a3.973,3.973,0,1,1,2.809-1.164,3.973,3.973,0,0,1-2.809,1.164Zm0-5.3A1.324,1.324,0,1,0,5.3,7.973,1.324,1.324,0,0,0,3.973,6.648Z" transform="translate(0 1.297)" fill="#373737"/>
        <path id="Shape-7" data-name="Shape" d="M3.973,41.945a3.973,3.973,0,1,1,3.973-3.973A3.973,3.973,0,0,1,3.973,41.945Zm0-5.3A1.324,1.324,0,1,0,5.3,37.973,1.324,1.324,0,0,0,3.973,36.648Z" transform="translate(0 11.023)" fill="#373737"/>
        <path id="Shape-8" data-name="Shape" d="M12.973,61.945a3.973,3.973,0,1,1,3.973-3.973A3.973,3.973,0,0,1,12.973,61.945Zm0-5.3A1.324,1.324,0,1,0,14.3,57.973,1.324,1.324,0,0,0,12.973,56.648Z" transform="translate(2.918 17.507)" fill="#373737"/>
        <path id="Shape-9" data-name="Shape" d="M33.89,47.781a15.89,15.89,0,1,1,15.89-15.89A15.89,15.89,0,0,1,33.89,47.781Zm0-29.132A13.242,13.242,0,1,0,47.132,31.89,13.242,13.242,0,0,0,33.89,18.648Z" transform="translate(5.836 5.187)" fill="#373737"/>
        <path id="Path-13" data-name="Path" d="M29.293,36.244a1.324,1.324,0,0,1-.936-.388l-3.973-3.973a1.324,1.324,0,0,1,1.872-1.872l2.972,2.972,8.342-9.534a1.325,1.325,0,0,1,1.994,1.745L30.3,35.787a1.324,1.324,0,0,1-.952.452Z" transform="translate(7.785 7.455)" fill="#373737"/>
        <path id="Path-14" data-name="Path" d="M56.621,23.648h-5.3a1.324,1.324,0,0,1,0-2.648h5.3a1.324,1.324,0,1,1,0,2.648Z" transform="translate(16.21 6.808)" fill="#373737"/>
        <path id="Path-15" data-name="Path" d="M57.945,17.269H51.324a1.324,1.324,0,0,1,0-2.648h6.621v-5.3a1.324,1.324,0,1,1,2.648,0v5.3A2.648,2.648,0,0,1,57.945,17.269Z" transform="translate(16.21 2.594)" fill="#373737"/>
        <path id="Path-16" data-name="Path" d="M59.269,38.269a1.324,1.324,0,0,1-1.324-1.324v-5.3H51.324a1.324,1.324,0,0,1,0-2.648h6.621a2.648,2.648,0,0,1,2.648,2.648v5.3A1.324,1.324,0,0,1,59.269,38.269Z" transform="translate(16.21 9.402)" fill="#373737"/>
        <path id="Path-17" data-name="Path" d="M47.945,60.85h-5.3A2.648,2.648,0,0,1,40,58.2V50.534a1.324,1.324,0,0,1,2.648,0V58.2h5.3a1.324,1.324,0,1,1,0,2.648Z" transform="translate(12.968 15.954)" fill="#373737"/>
        <path id="Path-18" data-name="Path" d="M10.621,23.648h-5.3a1.324,1.324,0,1,1,0-2.648h5.3a1.324,1.324,0,1,1,0,2.648Z" transform="translate(1.297 6.808)" fill="#373737"/>
        <path id="Path-19" data-name="Path" d="M11.269,17.269H4.648A2.648,2.648,0,0,1,2,14.621v-5.3a1.324,1.324,0,0,1,2.648,0v5.3h6.621a1.324,1.324,0,1,1,0,2.648Z" transform="translate(0.649 2.594)" fill="#373737"/>
        <path id="Path-20" data-name="Path" d="M3.324,38.269A1.324,1.324,0,0,1,2,36.945v-5.3A2.648,2.648,0,0,1,4.648,29h6.621a1.324,1.324,0,1,1,0,2.648H4.648v5.3A1.324,1.324,0,0,1,3.324,38.269Z" transform="translate(0.649 9.402)" fill="#373737"/>
        <path id="Path-21" data-name="Path" d="M19.621,60.85h-5.3a1.324,1.324,0,1,1,0-2.648h5.3V50.534a1.324,1.324,0,1,1,2.648,0V58.2A2.648,2.648,0,0,1,19.621,60.85Z" transform="translate(4.215 15.954)" fill="#373737"/>
      </g>
    </g>
  </g>
</svg>
