<svg xmlns="http://www.w3.org/2000/svg" width="141" height="141" viewBox="0 0 141 141">
  <g id="Grupo_1077070" data-name="Grupo 1077070" transform="translate(-1143 -3515.831)">
    <g id="Grupo_1071491" data-name="Grupo 1071491" transform="translate(874 2557.831)">
      <circle id="Elipse_5614" data-name="Elipse 5614" cx="70.5" cy="70.5" r="70.5" transform="translate(269 958)" fill="#fff"/>
    </g>
    <g id="Page-1" transform="translate(1178.394 3551.262)">
      <g id="_013---Cyber-Key" data-name="013---Cyber-Key" transform="translate(0 0)">
        <g id="Icons" transform="translate(1.169 1.169)">
          <path id="Shape" d="M59.107,6.834A21.056,21.056,0,0,0,22.822,24.45l-2.794,2.782a3.507,3.507,0,0,0,0,4.956l1.157,1.146,10.1,10.088,1.146,1.134a3.521,3.521,0,0,0,4.968,0l2.794-2.782A21.011,21.011,0,0,0,59.107,6.834ZM48.224,23.375a7.014,7.014,0,1,1,7.014-7.014A7.014,7.014,0,0,1,48.224,23.375Z" transform="translate(3.211 0.005)" fill="#03386e"/>
          <g id="Grupo_1076778" data-name="Grupo 1076778" transform="translate(36.373 0.054)">
            <path id="Shape-2" data-name="Shape" d="M43.772,8.231a7.014,7.014,0,1,0,0,13.566,7,7,0,0,1,0-13.566Z" transform="translate(-30.463 1.298)" fill="#021e3b"/>
            <path id="Shape-3" data-name="Shape" d="M55.818,6.831A21.039,21.039,0,0,0,38.468.13a20.984,20.984,0,0,1,.106,41.838A21,21,0,0,0,55.818,6.831Z" transform="translate(-29.872 -0.046)" fill="#021e3b"/>
            <path id="Shape-4" data-name="Shape" d="M34.639,35.74l-2.794,2.782a3.467,3.467,0,0,1-.731.544,3.513,3.513,0,0,0,4.238-.544l2.525-2.513A21.229,21.229,0,0,1,34.639,35.74Z" transform="translate(-31.115 5.985)" fill="#021e3b"/>
          </g>
          <path id="Shape-5" data-name="Shape" d="M34.5,38.608l-5.4,5.4a1.184,1.184,0,0,1-1.052.327l-3.565-.713a1.649,1.649,0,0,0-1.964,1.964l.76,3.484a1.151,1.151,0,0,1-.316,1.075L18.9,54.2a1.167,1.167,0,0,1-1.04.316l-3.624-.666A1.645,1.645,0,0,0,12.274,55.8l.713,3.589a1.184,1.184,0,0,1-.327,1.052l-1.847,1.847a2.345,2.345,0,0,1-1.66.69H1.789A1.8,1.8,0,0,1,0,61.193V53.63a1.789,1.789,0,0,1,.526-1.263L24.4,28.52Z" transform="translate(0 4.819)" fill="#9e9e9e"/>
          <path id="Shape-6" data-name="Shape" d="M11.458,52.148a1.635,1.635,0,0,1,.525-1.572L9.915,50.2a1.645,1.645,0,0,0-1.964,1.952l.713,3.589a1.184,1.184,0,0,1-.327,1.052L6.49,58.636a2.345,2.345,0,0,1-1.66.69H8.337a2.345,2.345,0,0,0,1.66-.69l1.847-1.847a1.184,1.184,0,0,0,.327-1.052Z" transform="translate(0.816 8.475)" fill="#707070"/>
          <path id="Shape-7" data-name="Shape" d="M21.123,28.52,19.37,30.272l8.347,8.337-5.264,5.264,2.318.464a1.184,1.184,0,0,0,1.052-.327l5.4-5.4Z" transform="translate(3.273 4.819)" fill="#707070"/>
          <path id="Shape-8" data-name="Shape" d="M20.272,43.409a1.623,1.623,0,0,1,.494-1.556l-2.037-.407a1.649,1.649,0,0,0-1.964,1.964l.76,3.484a1.15,1.15,0,0,1-.316,1.075L13.27,51.908l2.35.433a1.167,1.167,0,0,0,1.04-.316l4.056-4.056a1.151,1.151,0,0,0,.316-1.075Z" transform="translate(2.242 6.997)" fill="#707070"/>
          <circle id="Oval" cx="3.507" cy="3.507" r="3.507" transform="translate(0 31.562)" fill="#6debff"/>
          <path id="Shape-9" data-name="Shape" d="M3.253,27a3.471,3.471,0,0,0-1.753.486,3.478,3.478,0,0,1,1.753,3.021A3.478,3.478,0,0,1,1.5,33.527a3.471,3.471,0,0,0,1.753.486,3.507,3.507,0,0,0,0-7.014Z" transform="translate(0.253 4.562)" fill="#0fceec"/>
          <circle id="Oval-2" data-name="Oval" cx="3.507" cy="3.507" r="3.507" transform="translate(8.183 14.788)" fill="#6debff"/>
          <path id="Shape-10" data-name="Shape" d="M10.253,12.65a3.471,3.471,0,0,0-1.753.486,3.478,3.478,0,0,1,0,6.041,3.471,3.471,0,0,0,1.753.486,3.507,3.507,0,1,0,0-7.014Z" transform="translate(1.436 2.138)" fill="#0fceec"/>
          <circle id="Oval-3" data-name="Oval" cx="3.507" cy="3.507" r="3.507" transform="translate(19.873)" fill="#6debff"/>
          <path id="Shape-11" data-name="Shape" d="M20.253,0A3.471,3.471,0,0,0,18.5.486a3.478,3.478,0,0,1,0,6.041,3.471,3.471,0,0,0,1.753.486,3.507,3.507,0,0,0,0-7.014Z" transform="translate(3.126)" fill="#0fceec"/>
          <circle id="Oval-4" data-name="Oval" cx="3.507" cy="3.507" r="3.507" transform="translate(29.224 60.787)" fill="#6debff"/>
          <path id="Shape-12" data-name="Shape" d="M28.253,52a3.471,3.471,0,0,0-1.753.486,3.478,3.478,0,0,1,0,6.041,3.471,3.471,0,0,0,1.753.486,3.507,3.507,0,1,0,0-7.014Z" transform="translate(4.478 8.787)" fill="#0fceec"/>
          <circle id="Oval-5" data-name="Oval" cx="3.507" cy="3.507" r="3.507" transform="translate(45.999 52.604)" fill="#6debff"/>
          <path id="Shape-13" data-name="Shape" d="M42.6,45a3.471,3.471,0,0,0-1.753.486,3.478,3.478,0,0,1,0,6.041,3.471,3.471,0,0,0,1.753.486A3.507,3.507,0,0,0,42.6,45Z" transform="translate(6.903 7.604)" fill="#0fceec"/>
          <circle id="Oval-6" data-name="Oval" cx="3.507" cy="3.507" r="3.507" transform="translate(60.787 40.914)" fill="#6debff"/>
          <path id="Shape-14" data-name="Shape" d="M55.253,35a3.471,3.471,0,0,0-1.753.486,3.478,3.478,0,0,1,0,6.041,3.471,3.471,0,0,0,1.753.486,3.507,3.507,0,0,0,0-7.014Z" transform="translate(9.04 5.914)" fill="#0fceec"/>
        </g>
        <g id="Layer_11">
          <path id="Shape-15" data-name="Shape" d="M64.35,7.212A22.228,22.228,0,0,0,26.071,18.573L20.84,13.342a2.339,2.339,0,0,1,0-3.3l1.349-1.349a4.624,4.624,0,0,0,2.36.663,4.676,4.676,0,1,0-4.676-4.676,4.624,4.624,0,0,0,.663,2.36L19.187,8.385a4.678,4.678,0,0,0,0,6.61l6.585,6.585a22.07,22.07,0,0,0,.182,3.637l-2.373,2.366c-.086.086-.15.186-.229.277l-6.424-6.14a4.617,4.617,0,0,0,.606-2.256,4.715,4.715,0,1,0-2.211,3.957l6.966,6.658a4.711,4.711,0,0,0-.079.809,4.633,4.633,0,0,0,1.371,3.3l.325.324L21.268,37.15l-6.273-6.273a4.677,4.677,0,0,0-6.61,0L7.036,32.225a4.624,4.624,0,0,0-2.36-.663,4.676,4.676,0,1,0,4.676,4.676,4.624,4.624,0,0,0-.663-2.36l1.349-1.349a2.339,2.339,0,0,1,3.3,0L19.614,38.8.869,57.529A2.977,2.977,0,0,0,0,59.618v7.563a2.961,2.961,0,0,0,2.958,2.958h7.365a3.494,3.494,0,0,0,2.486-1.032l1.848-1.848a2.357,2.357,0,0,0,.646-2.106l-.716-3.6a.473.473,0,0,1,.131-.445.486.486,0,0,1,.478-.117l3.625.666a2.342,2.342,0,0,0,2.077-.639l4.058-4.057a2.32,2.32,0,0,0,.63-2.151l-.76-3.482a.465.465,0,0,1,.123-.438.49.49,0,0,1,.469-.131L29,51.473a2.347,2.347,0,0,0,2.094-.649l.272-.272L37.61,56.8a2.339,2.339,0,0,1,0,3.3l-1.349,1.349a4.624,4.624,0,0,0-2.361-.662,4.676,4.676,0,1,0,4.676,4.676,4.624,4.624,0,0,0-.663-2.36l1.349-1.349a4.678,4.678,0,0,0,0-6.61L33.017,48.9l2.654-2.654.319.318A4.673,4.673,0,0,0,39.3,47.928a4.722,4.722,0,0,0,.767-.073l6.653,6.961a4.777,4.777,0,1,0,1.7-1.606l-6.116-6.4c.1-.085.21-.153.3-.248L44.982,44.2a22.255,22.255,0,0,0,3.589.184l6.574,6.574a4.678,4.678,0,0,0,6.61,0L63.1,49.6a4.624,4.624,0,0,0,2.36.663,4.676,4.676,0,1,0-4.676-4.676,4.624,4.624,0,0,0,.663,2.36L60.1,49.3a2.339,2.339,0,0,1-3.3,0l-5.211-5.211A22.149,22.149,0,0,0,64.351,7.212Zm-39.8-4.874a2.338,2.338,0,1,1-2.338,2.338A2.338,2.338,0,0,1,24.549,2.338ZM12.859,21.8A2.338,2.338,0,1,1,15.2,19.464,2.338,2.338,0,0,1,12.859,21.8ZM4.676,38.576a2.338,2.338,0,1,1,2.338-2.338A2.338,2.338,0,0,1,4.676,38.576ZM33.9,67.8a2.338,2.338,0,1,1,2.338-2.338A2.338,2.338,0,0,1,33.9,67.8ZM50.675,54.942a2.338,2.338,0,1,1-2.338,2.338A2.338,2.338,0,0,1,50.675,54.942Zm14.788-11.69a2.338,2.338,0,1,1-2.338,2.338A2.338,2.338,0,0,1,65.463,43.252Zm-36.02,5.926-3.557-.711a2.819,2.819,0,0,0-3.344,3.358l.76,3.484-4.06,4.048L15.655,58.7A2.815,2.815,0,0,0,12.3,62.02L13,65.607l-1.847,1.847a1.172,1.172,0,0,1-.833.347H2.958a.628.628,0,0,1-.62-.62V59.618a.622.622,0,0,1,.183-.436L25.562,36.165l1.629,1.624-21,21A1.169,1.169,0,1,0,7.84,60.444L28.845,39.439l5.17,5.155Zm19.6-7.162-.042,0a19.94,19.94,0,0,1-4.242-.219,1.169,1.169,0,0,0-1.012.326l-2.791,2.782a2.224,2.224,0,0,1-.975.572,2.344,2.344,0,0,1-2.342-.572L29.7,36.992c-.01-.012-.014-.026-.024-.037s-.026-.014-.037-.025l-3.228-3.219c-.008-.009-.011-.02-.019-.029s-.021-.012-.03-.02l-1.131-1.128a2.329,2.329,0,0,1,0-3.3l2.791-2.782a1.168,1.168,0,0,0,.328-1.016A19.875,19.875,0,0,1,47.978,2.386c.138,0,.276,0,.413,0a19.827,19.827,0,0,1,.652,39.627Z" transform="translate(0 0)"/>
          <path id="Shape-16" data-name="Shape" d="M46.183,8a8.183,8.183,0,1,0,8.183,8.183A8.183,8.183,0,0,0,46.183,8Zm0,14.028a5.845,5.845,0,1,1,5.845-5.845A5.845,5.845,0,0,1,46.183,22.028Z" transform="translate(6.421 1.352)"/>
        </g>
      </g>
    </g>
  </g>
</svg>
